/* XPM */
static char *card_deck[] = {
/* columns rows colors chars-per-pixel */
"122 65 126 2 ",
"   c #270833",
".  c #2B0C35",
"X  c #2D0E38",
"o  c #2F1139",
"O  c #32153D",
"+  c #35183F",
"@  c #43223D",
"#  c #361A40",
"$  c #3A1E43",
"%  c #3D2146",
"&  c #462441",
"*  c #412549",
"=  c #452A4D",
"-  c #492F50",
";  c #4C3253",
":  c #503656",
">  c #553C5A",
",  c #583F5D",
"<  c #59415E",
"1  c #6C4649",
"2  c #714B54",
"3  c #5C4460",
"4  c #5F4863",
"5  c #624B65",
"6  c #654F68",
"7  c #675069",
"8  c #6A546C",
"9  c #6E5970",
"0  c #735E74",
"q  c #756176",
"w  c #776378",
"e  c #796679",
"r  c #7D6A7C",
"t  c #A21B4B",
"y  c #A4214F",
"u  c #A62552",
"i  c #A72854",
"p  c #A82B56",
"a  c #A92E58",
"s  c #AC345D",
"d  c #AE3B62",
"f  c #B03E64",
"g  c #855C53",
"h  c #B14166",
"j  c #B24569",
"k  c #B54B6D",
"l  c #B64F70",
"z  c #B75171",
"x  c #B95574",
"c  c #BA5977",
"v  c #BC5D7A",
"b  c #806E7F",
"n  c #BE627D",
"m  c #B88C73",
"M  c #816E80",
"N  c #857384",
"B  c #8A7887",
"V  c #8C7B8A",
"C  c #907F8D",
"Z  c #BF6680",
"A  c #C06781",
"S  c #C16B84",
"D  c #C37087",
"F  c #C5748A",
"G  c #C77A8E",
"H  c #C87C8F",
"J  c #C87E91",
"K  c #92828F",
"L  c #958591",
"P  c #978893",
"I  c #9A8B95",
"U  c #9D8E98",
"Y  c #9F919A",
"T  c #A3959D",
"R  c #A799A0",
"E  c #AB9EA4",
"W  c #AEA1A7",
"Q  c #B2A5A9",
"!  c #B5A9AC",
"~  c #B8ACAF",
"^  c #BAAFB1",
"/  c #BCB2B3",
"(  c #CB8395",
")  c #CC8798",
"_  c #CE8B9A",
"`  c #CF909E",
"'  c #D0919F",
"]  c #D195A1",
"[  c #D49BA5",
"{  c #D59FA8",
"}  c #D6A2AA",
"|  c #D8A6AE",
" . c #D9A8AF",
".. c #DAACB2",
"X. c #C0B6B6",
"o. c #C2B8B7",
"O. c #C5BBBA",
"+. c #C8BFBD",
"@. c #DDB2B6",
"#. c #DEB6B9",
"$. c #DFB9BB",
"%. c #E1BDBD",
"&. c #CAC1BF",
"*. c #E2BFC0",
"=. c #CEC5C2",
"-. c #D2CAC5",
";. c #D6CFC9",
":. c #D9D2CB",
">. c #DFD9D0",
",. c #E4C4C3",
"<. c #E6C9C6",
"1. c #E7CCC9",
"2. c #E8CFCA",
"3. c #EAD3CD",
"4. c #EBD7D0",
"5. c #E4DED4",
"6. c #EDDBD3",
"7. c #E6E1D7",
"8. c #EFE1D7",
"9. c #EDE3D9",
"0. c #EEEADD",
"q. c #F1E5DA",
"w. c #F2EADE",
"e. c #F4EEE0",
"r. c #F6F3E4",
"t. c #00FF00",
/* pixels */
"t.t.t.t.t.t.t.t.t.t.t.t.t.t.t.t.t.t.t.t.t.t.t.t.t.t.t.t.t.t.t.t.t.t.t.t.t.t.t.t.t.t.t.t.t.t.t.t.t.t.t.t.t.t.t.t.                .                     t.t.t.t.t.t.t.t.t.t.t.t.t.t.t.t.t.t.t.t.t.t.t.t.t.t.t.t.t.t.t.t.t.t.t.t.t.t.t.t.t.t.t.t.t.t.t.",
"t.t.t.t.t.t.t.t.t.t.t.t.t.t.t.t.t.t.t.t.t.t.t.t.t.t.t.t.t.t.t.t.t.t.t.t.t.t.t.t.t.t.t.t.t.t.t.t.t.t.t.t.t.  * 8 T 9.r.r.r.r.r.r.r.r.r.r.r.r.r.w.7.7.5.:.;.=.&.o./ ~ Q E R T U L C B N b e 0 0 8 5 3 , > ; = = $ + O .                         t.t.t.",
"t.t.t.t.t.t.t.t.t.t.t.t.t.t.t.t.t.t.t.t.t.t.t.t.t.t.t.t.t.t.t.t.t.t.t.t.t.t.t.t.t.t.t.t.t.t.t.t.t.t.t.t.  0 :.r.r...Z A S F J ( ) _ ' ] [ }  .@.#.%.%.,.<.3.4.6.q.w.w.r.r.r.r.r.r.r.r.r.r.r.r.r.r.r.r.r.r.r.r.r.r.r.r.r.r.r.r.r.r.r.r.r.>.w O   . t.",
"t.t.t.t.t.t.t.t.t.t.t.t.t.t.t.t.t.t.t.t.t.t.t.t.t.t.t.t.t.t.t.t.t.t.t.t.t.t.t.t.t.t.t.t.t.t.t.t.t.t.t.  e 7.r.r.) t t t t t t t t t t t t t t t t t t t t t t t t t t t t t t t t t t t t t t t t u i s s f h j k z c v Z A D F G ( @.w.r.r.N   . 2 ",
"t.t.t.t.t.t.t.t.t.t.t.t.t.t.t.t.t.t.t.t.t.t.t.t.t.t.t.t.t.t.t.t.t.t.t.t.t.t.t.t.t.t.t.t.t.t.t.t.t.t.  N e.r.e.J t t t t u d h d d s a i y t t t t t t t t t t t t t t t t t t t t t t t t t t t t t t t t t t t t t t t t t t t t j %.r.r.Q =   . 2 ",
"t.t.t.t.t.t.t.t.t.t.t.t.t.t.t.t.t.t.t.t.t.t.t.t.t.t.t.t.t.t.t.t.t.t.t.t.t.t.t.t.t.t.t.t.t.t.t.t.t.  V r.r.0.G t t t t h #.6.| ] ] [ } | ..@.%.%.,.<.2.3.6.8.q.w.e.r.w.q.6.6.3.3.<.,.%.%.@.....} { [ ] _ ) ( G F D S n j y t t t y ' r.r.:.8   t.. 2 ",
"t.t.t.t.t.t.t.t.t.t.t.t.t.t.t.t.t.t.t.t.t.t.t.t.t.t.t.t.t.t.t.t.t.t.t.t.t.t.t.t.t.t.t.t.t.t.t.  X P r.r.6.D t t t t j @.,.z t t k ' | } S i l ( ) ( G F h t j n c x l k h f s a t u u t t i p a s d d j k z x v G <.,.x t t t t A 6.r.r.P . t.r.. 2 ",
"t.t.t.t.t.t.t.t.t.t.t.t.t.t.t.t.t.t.t.t.t.t.t.t.t.t.t.t.t.t.t.t.t.t.t.t.t.t.t.t.t.t.t.t.t.t.  # T r.r.3.A t t t t k #.,.k x ,.@.l S 3.w.3.] x ' q.r.r.2.| ) G $.r.r.r.r.q.$.] J ( <.r.r.q.1.{ x J 6.w.q.` u t t _ q.G t t t t h @.r.r./ >   5.r.. 2 ",
"t.t.t.t.t.t.t.t.t.t.t.t.t.t.t.t.t.t.t.t.t.t.t.t.t.t.t.t.t.t.t.t.t.t.t.t.t.t.t.t.t.t.t.t.t.  * W r.r.2.n t t t t k $.%.z j [ 2.w.%.v S *.w.r.} a F 8.r.r.w.4._ j { e.{ v _ @.3.r.r.q.| ) ) ] 3.6.#.] F _ 4. .f A 6.{ p t t t t _ r.r.9.r   5.r.r.. 2 ",
"t.t.t.t.t.t.t.t.t.t.t.t.t.t.t.t.t.t.t.t.t.t.t.t.t.t.t.t.t.t.t.t.t.t.t.t.t.t.t.t.t.t.t.t.  ; ! r.r.<.c t t t t z %.$.k d S ) _ @.8.1.( G | 1.w.%.v G *.q.r.r.r.] i J q.w.r.r.e.] j _ ,.6.q.[ A ' ..3.6.} D f j %.%.z t t t t n 2.r.r.R %   5.r.r.. 2 ",
"t.t.t.t.t.t.t.t.t.t.t.t.t.t.t.t.t.t.t.t.t.t.t.t.t.t.t.t.t.t.t.t.t.t.t.t.t.t.t.t.t.t.t.  > / r.r.%.x t t t t z %.$.k x ,.8.%.] G ' 6.3.} ( _ %.8.<.( H } <.w.r.r.r.r.q.4.] f ( q.e.r.' p ( 6.q.r.] j _ %.Z i ] 8.F t t t t s  .r.r.-.6   5.r.5.r.. 2 ",
"t.t.t.t.t.t.t.t.t.t.t.t.t.t.t.t.t.t.t.t.t.t.t.t.t.t.t.t.t.t.t.t.t.t.t.t.t.t.t.t.t.t.  5 &.r.r.$.k t t t t x *.%.z x ,.r.r.w.4.| Z H 3.8.*.' D ' 4.4.| ) )  .8.3..._ F ] 6.6.,.[ v ( 6.q.6.{ h F 6.r.r.{ p F q.] i t t t t ( e.r.r.V   t.r.5.r.r.. 2 ",
"t.t.t.t.t.t.t.t.t.t.t.t.t.t.t.t.t.t.t.t.t.t.t.t.t.t.t.t.t.t.t.t.t.t.t.t.t.t.t.t.t.  8 -.r.r.@.j t t t t c ,.#.k z ,.r.r.r.r.r.r.%.c v *.w.6. .A G <.q.,.] G G ' ..6.4.} _ ( ] 3.6.%.] F ( 2.r.r.r.r.%.k x *.%.j t t t t v <.r.r.~ ;   5.r.7.r.r.. 2 ",
"t.t.t.t.t.t.t.t.t.t.t.t.t.t.t.t.t.t.t.t.t.t.t.t.t.t.t.t.t.t.t.t.t.t.t.t.t.t.t.t.  0 ;.r.r...h t t t t v ,.#.k x ,.r.r.r.r.r.r.r.r.<.Z k %.r.r.,.Z a s z { #.F k z A ' #.6.6.} G _ [ <.r.r.r.r.r.r.6.S s } 6.S t t t t s } r.r.:.q   t.r.r.r.r.r.. t.",
"t.t.t.t.t.t.t.t.t.t.t.t.t.t.t.t.t.t.t.t.t.t.t.t.t.t.t.t.t.t.t.t.t.t.t.t.t.t.t.  r 5.r.r.} s t t t t v <.#.k x %.r.r.r.r.r.r.r.r.r.r.4.H l ] ,.F p u s [ 8.G t t i ] w.] k _ %.4.r.r.r.r.r.r.r.r.r._ u ( w.' u t t t t G q.r.r.Y +   5.5.r.5.r.2 . t.",
"t.t.t.t.t.t.t.t.t.t.t.t.t.t.t.t.t.t.t.t.t.t.t.t.t.t.t.t.t.t.t.t.t.t.t.t.t.t.  B 0.r.r.[ s t t t t n <.@.k x %.r.r.r.r.r.r.r.r.r.r.w.<.| ( v _ ,.<.<.( d ) 8.q.w._ i J 6.w.r.r.r.r.r.r.r.r.r.r.r...h v <.@.j t t t t x *.r.r.O.3   5.r.r.5.r.r.2 @ t.",
"t.t.t.t.t.t.t.t.t.t.t.t.t.t.t.t.t.t.t.t.t.t.t.t.t.t.t.t.t.t.t.t.t.t.t.t.  . K e.r.r.' p t t t t n <.@.j p j ( <.r.r.r.r.r.r.q.#._ ) ( %.w.( t t t ( q.] p t t S 4...l A <.e.r.r.r.r.r.r.r.r.r.<.n f  .3.A t t t t s ] r.r.9.N   t.r.r.5.5.r.. @ t.t.",
"t.t.t.t.t.t.t.t.t.t.t.t.t.t.t.t.t.t.t.t.t.t.t.t.t.t.t.t.t.t.t.t.t.t.t.  + P r.r.r.` i t t t t A 2.@.k k } ..S S *.r.r.8.{ S ) } ,.r.%.( ) ( G G ( ] ' D n v D | 1.w.<.F c } q.e.r.r.r.r.8.( p u y _ r._ y t t t t F 6.r.r.W =   7.r.5.7.r.2 . t.t.t.",
"t.t.t.t.t.t.t.t.t.t.t.t.t.t.t.t.t.t.t.t.t.t.t.t.t.t.t.t.t.t.t.t.t.t.  % T r.r.e.) y t t t t S 2...k x %.w.q.%.D h j z ` *.4.r. .A ) { *.q.<.' ) ) ( _ ..6.6.' D ] %.6.q.] l _ 2.3.6._ s ( 8.{ s A 3. .h t t t t k $.r.r.-.9   t.r.r.5.r.r.. < t.t.t.",
"t.t.t.t.t.t.t.t.t.t.t.t.t.t.t.t.t.t.t.t.t.t.t.t.t.t.t.t.t.t.t.t.t.. - W r.r.q.( t t t t t S 2...j t y k @.3.A t t i ` e.[ k ( #.3.w.%.H G ] @.6.6.@._ ) ] 1.w...D )  .2.e.] a t t n 2.w.6.| l k #.1.Z t t t t p ` r.r.r.K o   7.r.r.r.r.2 @ t.t.t.t.",
"t.t.t.t.t.t.t.t.t.t.t.t.t.t.t.t.t.t.t.t.t.t.t.t.t.t.t.t.t.t.t.t.  > ! r.r.8.H t t t t t D 3...j z ..%.n j } r.w.8.( a ( <.8.e.#.A S | ,.q.r.r.r.r.w.*.' ) ) %.w.*.) ( ] ] F v v S [ ..F h i p ' w.) t t t t t S 3.r.r./ <   5.r.r.7.r.r.. 3 t.t.t.t.",
"t.t.t.t.t.t.t.t.t.t.t.t.t.t.t.t.t.t.t.t.t.t.t.t.t.t.t.t.t.t.t.  3 / r.r.3.F t t t t t D 4. .j y t j ..3.D t t y ( q.' h a s S @.6.q.3.) x x c n A ..w.2.} _ ( ) ) _ ( J _ { } } ( n _ $.F u F 6.| h t t t t j @.r.r.>.r   t.r.r.5.r.r.2 . t.t.t.t.t.",
"t.t.t.t.t.t.t.t.t.t.t.t.t.t.t.t.t.t.t.t.t.t.t.t.t.t.t.t.t.t.  7 +.r.r.3.S t t t t y F 3. .j p s v } *.F s p i ( 8.} s y t x #.r.r.3.F t t t t t F 6.r.r.#.l t t f } 6.G t t t J 9.{ d t t x %.,.v t t t t u _ r.r.r.T %   5.r.5.5.r.r.. 3 t.t.t.t.t.",
"t.t.t.t.t.t.t.t.t.t.t.t.t.t.t.t.t.t.t.t.t.t.t.t.t.t.t.t.t.  9 =.r.r.<.n t t t t t F 6. .j k '  .F z ' 6.6.6.' s S 1.e.e.%.n l  .r.8.2.<.,.%.%.<.q.1.) F ' { ] ' ) ( ) ( J J J ] ] F x s s { 8.( t t t t t n <.r.r.&.7   5.r.r.5.r.r.2 . t.t.t.t.t.t.",
"t.t.t.t.t.t.t.t.t.t.t.t.t.t.t.t.t.t.t.t.t.t.t.t.t.t.t.t.  w ;.r.r.,.n t t t t t G 6.| h p h S %.6.G t t t F 4...l z $.r.e.2.( s ' w.r.r.r.r.<.( A ' @.3.e.@.G ) _ _ ) _ _ _ ( G _ ] v t J 8.} d t t t t h | r.r.9.V .   5.r.5.r.r.2 . < t.t.t.t.t.t.",
"t.t.t.t.t.t.t.t.t.t.t.t.t.t.t.t.t.t.t.t.t.t.t.t.t.t.    b >.r.r.$.c t t t t t G 8.| h x %.w.4.%.( h s s F ,.e.r.,.n s } r.w.8.' k G 2.,.G n ] %.6.r...D ( ] #.6.%.v t t a ' e.%.G k i n ,.*.v t t t t y ) q.r.r.Q :   7.r.5.5.r.r.. 3 t.t.t.t.t.t.t.",
"t.t.t.t.t.t.t.t.t.t.t.t.t.t.t.t.t.t.t.t.t.t.t.t.t.  X B 7.r.r.#.x t t t t t J 8.| h j '  .G x } e.r.r. .z c #.r.r.6.( p ) q.q.6.| Z n ] ,.6.r...A ( { %.6.6.} ( ) ) ) J ) ] %.6.%.x h | 8.H t t t t t n ,.r.r.;.q   5.r.r.5.r.r.2 @ t.t.t.t.t.t.t.t.",
"t.t.t.t.t.t.t.t.t.t.t.t.t.t.t.t.t.t.t.t.t.t.t.t.  + K w.r.r.@.l t t t t t ( 8.} h i h A @.r.e.r.r.r.r.r.,.n s } r.w.8.' l d s n [ %.H x c c J } %.6.3.{ G ) ' %.e.r.r.1.' J _ ] x u ) w.] s t t t t f { r.r.r.I %   5.r.7.r.r.r.@ 3 t.t.t.t.t.t.t.t.",
"t.t.t.t.t.t.t.t.t.t.t.t.t.t.t.t.t.t.t.t.t.t.t.  % I r.r.r...j t t t t y ( 9.| h x #.r.r.r.r.r.r.r.r.r.r.e.3.( p ) 8.| j t t d } q.) y t t n ,.3.{ G _ ' %.e.r.r.r.r.r.r.q.| Z f y A <.$.x t t t t t J 8.r.r./ 5   5.r.r.r.5.r.2 . t.t.t.t.t.t.t.t.t.",
"t.t.t.t.t.t.t.t.t.t.t.t.t.t.t.t.t.t.t.t.t.t.  = T r.r.r.} h t t t t u ) 9.} h x #.r.r.r.r.r.r.r.r.r.r.r.r.w.6.' z S | 1.,.@.( x (  ...| ] H G ) ] %.w.r.r.r.r.r.r.r.r.r.r.r...k k ..6.F t t t t t c %.r.r.5.N     5.r.r.5.r.2 3 3 t.t.t.t.t.t.t.t.t.",
"t.t.t.t.t.t.t.t.t.t.t.t.t.t.t.t.t.t.t.t.t.  : E r.r.r.{ d t t t t i ) q.{ f x #.r.r.r.r.r.r.r.r.r.r.r.w.[ l F @.| D z x n ( | ` F S F G ) ' ) ) @.q.r.r.r.r.r.r.r.r.r.r.r.<.A s ` r.' s t t t t s ] r.r.r.R ;   5.r.r.5.5.r.. < t.t.t.t.t.t.t.t.t.t.",
"t.t.t.t.t.t.t.t.t.t.t.t.t.t.t.t.t.t.t.t.  < ! r.r.r.] s t t t t p _ q.{ h x #.r.r.r.r.r.r.r.r.r.6.` h ( #.2.q.,.n t t t F 3.@.z t t p _ w.,._ ( ' @.3.r.r.r.r.r.r.r.r.r.8.( u D 3.#.l t t t t t F 4.r.r.&.9   5.r.r.5.r.r.2 . @ t.t.t.t.t.t.t.t.t.t.",
"t.t.t.t.t.t.t.t.t.t.t.t.t.t.t.t.t.t.t.  5 / r.e.e.` a t t t t p _ w.{ f x #.r.r.r.r.r.r.r.2.) x _ #.2.q.<._ D _ { [ ] _ ( ) ) ( ( H ( ' %.8.3.] A _ %.1.w.r.r.r.r.r.r.r.{ h x %.3.D t t t t t x @.r.r.0.K #   5.r.5.r.r.r.. 3 t.t.t.t.t.t.t.t.t.t.t.",
"t.t.t.t.t.t.t.t.t.t.t.t.t.t.t.t.t.t.  8 O.r.r.q.) p t t t y a ` w.{ f x @.r.r.r.r.r.%.J A ' @.2.w.,.) J _ } <.r.,.[ _ ( J _ } ,.w.%.H F ] *.6.r. .n S  .4.w.r.r.r.r.r.%.v s ] w._ s t t t t s ` r.r.r.! <   t.r.r.r.5.r.3 @ t.t.t.t.t.t.t.t.t.t.t.t.",
"t.t.t.t.t.t.t.t.t.t.t.t.t.t.t.t.    q &.r.r.8.( u t t t t a ` e.[ h x #.r.r.r.@.F J ] ..3.e.%.) ) _ { <.w.,.[ _ G _ ,.9.} n J ..1.q.4._ j ( ,.q.w.1.D d _ q.r.r.r.r.3.G y H 6.@.k t t t t t D 3.r.r.;.r     5.r.5.r.r.2 3 1 t.t.t.t.t.t.t.t.t.t.t.t.",
"t.t.t.t.t.t.t.t.t.t.t.t.t.t.t.    r ;.r.r.4.G y t t t y s ' e.[ d x @.8. .D ) ' ..3.q.#._ _ J [ 2.q.,.} _ Z _ 2.r.r.r.r.r.#.A c } 6.w.e. .l z  .r.e.w.] j Z %.r.r.r.' s n %.<.S t t t t t k ..r.r.r.T =   5.r.r.5.r.r.2 @ t.t.t.t.t.t.t.t.t.t.t.t.t.",
"t.t.t.t.t.t.t.t.t.t.t.t.t.t.  X N :.r.r.2.G t t t t t s ' r.[ h s n ) ) ( ..8.6.#.[ ( A { 6.6.<...( z _ 6.r.r.r.8.6.q.r.r.r.3.H t G 3.w.q.<.H s _ 6.w.3.@.H x [ q. .l j } q.) p t t t t p _ w.r.r.o.8   t.r.r.5.r.r.2 @ 1 t.t.t.t.t.t.t.t.t.t.t.t.t.",
"t.t.t.t.t.t.t.t.t.t.t.t.t.  + V 5.r.r.2.D t t t t t s [ r.' d s x J @.r.3.%.{ F n | w.q.3...F k ] q.r.r.r.w.6._ p A ,.r.r.r.q.6.{ n Z %.e.6.,.' S H %.r.2. .' H n d i ) 8.| k t t t t t A <.r.r.5.B O   5.r.r.5.r.r.2 1 t.t.t.t.t.t.t.t.t.t.t.t.t.t.",
"t.t.t.t.t.t.t.t.t.t.t.t.  % K 9.r.r.,.S t t t t t h } r.[ h x @.e.6.<.] v A @.r.q.8.} x k } r.r.r.r.r.3.( s G *. .S v  .r.r.r.q.<.| ( A } 4.8.%.' _ H  .8.4. .F k y S ,.,.A t t t t t j | r.r.r.E >   t.r.r.5.r.r.2 3 m t.t.t.t.t.t.t.t.t.t.t.t.t.t.",
"t.t.t.t.t.t.t.t.t.t.t.  = U e.r.r.*.n t t t t t h [ r.' s l } 1.J s S <.r.r.q.' f A @.6.w.r.r.r.,.H c _ #.2.q.q.,.| _ S { 3.r.r.e.<.] ) ) } <.r.*.) H ' @.3.e.} j l  .8.) p t t t t p ) 9.r.r.=.q     5.r.r.5.r.r.. r t.t.t.t.t.t.t.t.t.t.t.t.t.t.t.",
"t.t.t.t.t.t.t.t.t.t.  ; T r.r.r.$.n t t t t t h } e.` d y y h ) 3.q.w.2.( j ( %.2.q.r.r.r.%.J F _ | <.w.r.r.r.r.r.,.' ( _ } <.w.r.r.3.' Z ( ..1.0.4.` j G #.| x s ' q.} j t t t t t n %.r.r.w.P *   5.r.5.5.r.r.2 3 t.t.t.t.t.t.t.t.t.t.t.t.t.t.t.t.",
"t.t.t.t.t.t.t.t.t.  < W r.r.r.#.c t t t t t j } e.` s y t y s l c v x d t f n S F F H J n s a v ' ' [ { } } |  ...@.[ c y n  .<.1.1.3.3.' j j ] q.w.w.@.x y y t D 1.*.n t t t t t j } r.r.r./ 5   5.5.r.r.r.o.2 . r t.t.t.t.t.t.t.t.t.t.t.t.t.t.t.t.",
"t.t.t.t.t.t.t.t.  < ! r.r.r...x t t t t t j } e.3.@.} } [ ] ` ` _ _ ( J J G F F D S A A n v v x x z k k j h h f s s s p p i u y t t y y y t y a s s s p t t t x #.4.( u t t t t y ( 4.r.r.:.N .   5.r.5.r.5.r.. 3 t.t.t.t.t.t.t.t.t.t.t.t.t.t.t.t.t.",
"t.t.t.t.t.t.t.  7 / r.r.r. .l t t t t t s n _ ` ` ] ] [ } } ......@.@.%.%.*.,.<.<.2.3.3.6.6.6.q.q.q.w.r.r.w.w.q.q.q.8.6.3.3.3.<.<.<.,.%.%.%.%... .@.| } } } | <.r.[ j t t t t t n #.r.r.r.T ;   5.r.5.r.5.r.2 . r t.t.t.t.t.t.t.t.t.t.t.t.t.t.t.t.t.",
"t.t.t.t.t.    9 O.r.r.r.} j t t t t t t t t t t t t t t t t t t t t t t t t t t y u u p p s s s f f h j j k x z x c v n n A S D S F G G ( ( ) ) ` ` ' ' [ [ } } ( j t t t t t h [ e.r.r.o.9     5.r.r.5.r.2 . r t.t.t.t.t.t.t.t.t.t.t.t.t.t.t.t.t.t.",
"t.t.t.t.    w &.r.r.r.[ j t t t t t t t t t t t t t t t t t t t t t t t t t t t t t t t t t t t t t t t t t t t t t t t t t t t t t t t t t t t t t t y t t t t t t t t t t t G 3.r.r.7.K %   5.r.r.r.r.r.2 3 t.t.t.t.t.t.t.t.t.t.t.t.t.t.t.t.t.t.t.",
"t.t.t.  X r -.r.r.w.' f t t t t t t t t t t t t t t t t t t t t t t t t t t t t t t t t t t t t t t t t t t t t t t t t t t t t t t t t t t t t t t t t t t t t t t t t t t c #.r.r.r.Q <   7.5.r.5.r.r.2 . r t.t.t.t.t.t.t.t.t.t.t.t.t.t.t.t.t.t.t.",
"t.t.  + N :.r.r.r.6.,.$.#.#.@... .} } { [ [ [ ` ` _ ) ( ( ( G G F F S S A Z n v c c x z k k j j h f d s s s p p u y y t t t t t t t t t t t t t t t t t t t t t t t t t t s ' w.r.r.=.r     5.r.5.r.r.2 . t.t.t.t.t.t.t.t.t.t.t.t.t.t.t.t.t.t.t.t.t.",
"t.  O ; 0 T -.r.r.r.r.r.r.r.r.r.r.r.r.r.r.r.r.r.r.r.r.r.r.r.r.r.r.r.r.r.r.r.r.r.r.r.r.r.r.e.w.q.q.8.6.6.3.3.3.2.<.<.,.,.%.%.#.#.@. . . .| } [ [ ' ' ` _ _ ( ( ( G G F D D } 4.r.r.w.U -   7.r.5.r.r.5.. 3 t.t.t.t.t.t.t.t.t.t.t.t.t.t.t.t.t.t.t.t.t.",
"t.      > V ! ^ / X.o.+.&.=.=.-.;.:.:.5.5.7.7.0.0.e.r.r.r.r.r.r.r.r.r.r.r.r.r.r.r.r.r.r.r.r.r.r.r.r.r.r.r.r.r.r.r.r.r.r.r.r.r.r.r.r.r.r.r.r.r.r.r.r.r.r.r.r.r.r.r.r.r.r.r.r.r.0.7.Q 6   5.r.r.r.r.5.2 . t.t.t.t.t.t.t.t.t.t.t.t.t.t.t.t.t.t.t.t.t.t.",
". &                 . O O O $ $ % * = = - ; ; > < < < 4 4 6 8 8 9 0 q q w b b N N B V K K L P U Y T T E E W Q ! ~ ~ / / o.+.&.&.-.-.;.:.:.>.5.7.7.0.0.e.r.r.r.r.r.r.r.r.r.r./ w - $ .   5.r.5.r.r.5.. 3 t.t.t.t.t.t.t.t.t.t.t.t.t.t.t.t.t.t.t.t.t.t.",
"& . = = = = = = = = = = = = = = = = 9 9 9 9 9 9 9 9 9 9 9 9 9 9 9                                                     . . X O + + $ % * = - - ; : : < < < 4 5 6 8 9 9 9 q 8 - . . w 5.r.r.r.r.5.r.2 . t.t.t.t.t.t.t.t.t.t.t.t.t.t.t.t.t.t.t.t.t.t.t.",
"& . T r.:.:.:.:.:.:.:.:.:.:.:.:.:.r.r.r.r.5.5.5.7.5.5.5.5.r.r.r.r.5.5.5.7.5.5.5.5.5.5.5.7.5.5.5.5.5.5.5.5.5.5.5.5.5.5.5.7.5.5.5.5.5.5.5.5.7./ / / / ^ / / / ^ ^ / / / / / / 9 - . w 5.r.5.r.5.r.r.2 3 t.t.t.t.t.t.t.t.t.t.t.t.t.t.t.t.t.t.t.t.t.t.t.",
"2 : T :.r.r.r.r.r.r.r.r.r.r.r.r.r.r.r.r.r.r.r.r.r.r.r.r.r.r.r.r.r.r.r.r.r.r.r.r.r.r.r.r.r.r.r.r.5.5.5.5.5.5.5.5.5.5.5.5.r.r.r.r.r.r.r.r.r.r.;.:.:.:.r.r.r.r.7.7.5.5.r.r.r.r.r.w . 5.5.r.r.5.5.r.2 . t.t.t.t.t.t.t.t.t.t.t.t.t.t.t.t.t.t.t.t.t.t.t.t.",
"2 . : :.r.5.5.5.5.5.5.5.5.5.5.5.5.5.5.5.5.5.7.5.r.r.r.r.r.r.r.r.r.r.r.r.r.r.r.r.r.r.r.r.r.r.r.r.r.r.r.r.r.r.r.r.r.r.r.r.r.r.r.r.r.r.r.r.r.r.r.r.r.r.r.r.r.r.r.r.r.r.r.r.r.r.r.:.. -.5.r.r.5.r.r . 3 t.t.t.t.t.t.t.t.t.t.t.t.t.t.t.t.t.t.t.t.t.t.t.t.",
". . : :.r.r.r.r.r.r.r.r.r.r.r.r.r.r.r.r.r.r.r.r.r.r.r.r.r.r.r.r.r.r.r.r.r.r.r.r.r.r.r.r.r.r.r.r.5.5.5.5.5.5.5.5.5.5.r.r.r.r.r.r.r.r.r.r.5.7.5.5.7.5.5.r.r.r.r.r.r.r.r.r.r.r.r.:.. 5.r.r.5.r.2 2 . t.t.t.t.t.t.t.t.t.t.t.t.t.t.t.t.t.t.t.t.t.t.t.t.t.",
"& . : -.r.r.r.r.r.r.r.r.r.r.r.r.r.r.r.r.r.5.5.5.5.5.5.5.5.5.5.5.5.5.5.5.5.5.5.5.r.r.r.r.5.5.5.5.r.r.r.r.r.r.r.r.r.r.5.5.r.r.r.r.r.r.r.r.r.r.r.r.r.r.r.5.5.5.7.5.5.5.7.>.r.r.r.U . -.r.r.r.r.2 3 t.t.t.t.t.t.t.t.t.t.t.t.t.t.t.t.t.t.t.t.t.t.t.t.t.t.",
".   T :.r.r.5.7.5.5.r.r.r.r.r.5.5.r.r.r.r.r.r.r.r.r.r.r.r.r.r.r.r.r.r.r.r.r.r.r.r.r.r.r.r.r.r.r.r.r.r.r.r.r.r.r.r.r.r.r.r.r.r.r.r.r.r.r.r.r.r.r.r.r.r.r.r.r.r.r.r.r.r.r.r.r.r.U . 5.r.r.r.2 . 3 t.t.t.t.t.t.t.t.t.t.t.t.t.t.t.t.t.t.t.t.t.t.t.t.t.t.",
": . N r.r.r.r.r.r.5.5.5.5.5.5.r.r.5.5.7.r.r.r.r.r.r.r.r.r.r.r.r.r.r.r.5.5.5.r.r.r.r.r.r.r.r.r.r.r.r.r.r.r.r.r.r.r.r.r.r.r.r.r.r.r.r.r.r.r.r.5.5.5.5.5.5.5.5.7.5.5.r.r.r.r.r.r.U . 7.5.r.r.3 @ t.t.t.t.t.t.t.t.t.t.t.t.t.t.t.t.t.t.t.t.t.t.t.t.t.t.t.",
": : B :.5.5.r.r.r.r.r.r.r.r.r.r.r.r.r.r.5.5.5.r.r.r.5.5.5.5.7.7.5.5.5.r.r.r.5.5.5.5.5.7.5.r.r.r.r.r.r.r.r.5.5.5.5.5.7.5.5.5.5.5.7.7.r.r.5.5.r.r.r.r.r.r.r.r.r.r.r.5.r.r.r.r.r.U   -.5.-.@ < t.t.t.t.t.t.t.t.t.t.t.t.t.t.t.t.t.t.t.t.t.t.t.t.t.t.t.t.",
": : B r.r.r.r.r.r.r.r.r.r.r.r.r.r.r.r.r.r.r.r.r.r.r.r.r.r.r.r.r.r.r.r.r.r.r.r.r.r.r.r.r.r.r.r.r.r.r.r.r.r.r.r.r.r.r.r.r.r.r.r.r.r.r.r.r.r.r.r.r.r.r.r.r.r.r.r.r.r.r.r.r.r.r.r.:.. -.& & @ t.t.t.t.t.t.t.t.t.t.t.t.t.t.t.t.t.t.t.t.t.t.t.t.t.t.t.t.t.",
"t.: N -.:.r.r.r.r.r.r.r.r.r.r.r.r.r.r.r.r.r.r.r.r.r.r.r.r.r.r.r.r.r.r.r.r.r.r.r.r.r.r.r.r.r.r.r.r.r.r.r.r.r.r.r.r.r.r.r.r.r.r.r.r.r.r.r.r.r.r.r.r.r.r.r.r.r.r.r.r.r.r.r.r.r.r.:.. w . t.t.t.t.t.t.t.t.t.t.t.t.t.t.t.t.t.t.t.t.t.t.t.t.t.t.t.t.t.t.t.",
"t.t.: : : : :.:.:.:.:.:.:.:.:.:.:.r.r.r.r.:.:.:.:.:.r.r.r.r.:.:.:.:.:.:.:.r.r.:.:.:.:.:.:.:.:.:.r.r.r.r.r.r.:.:.:.:.:.:.:.:.r.r.r.r.r.:.:.:.:.:.:.:.;.:.r.r.r.:.:.:.:.:.:.r.r.X . . t.t.t.t.t.t.t.t.t.t.t.t.t.t.t.t.t.t.t.t.t.t.t.t.t.t.t.t.t.t.t.t.",
"t.t.t.& . . & . &   & . . & & . & . & . . . & . . 9 9 9 @ . . . & . . . . & . . . & . . . . & . . & & 9 9 9 0 . & . . @ . . . . . . & X @ . . & . . X @ . . & & & & & & & . . t.t.t.t.t.t.t.t.t.t.t.t.t.t.t.t.t.t.t.t.t.t.t.t.t.t.t.t.t.t.t.t.t.t.t.",
"t.t.t.t.t.t.9 9 9 9 9 9 9 9 9 9 9 9 9 9 9 9 9 9 9 9 g g g g g g g g g g g g g g g g g g g g g g g g g g g g g g g g g g g g g g g g g g g g m 9 9 9 9 9 9 9 9 9 9 9 0 8 0 8 t.t.t.t.t.t.t.t.t.t.t.t.t.t.t.t.t.t.t.t.t.t.t.t.t.t.t.t.t.t.t.t.t.t.t.t."
};
