/* XPM */
static char *select_bot_btn_pressed[] = {
/* columns rows colors chars-per-pixel */
"133 57 83 1 ",
"  c #000000",
". c #2E2E2E",
"X c #3D322F",
"o c #333333",
"O c #3C3532",
"+ c #3E3937",
"@ c #3A3A3A",
"# c #462F29",
"$ c #482F2A",
"% c #43312C",
"& c #4C332C",
"* c #47382F",
"= c #4D392F",
"- c #52362C",
"; c #553A2E",
": c #5B3C2C",
"> c #413632",
", c #463931",
"< c #4A3B31",
"1 c #453C3A",
"2 c #523730",
"3 c #553A31",
"4 c #5C3E35",
"5 c #613F2F",
"6 c #5E412E",
"7 c #4A433F",
"8 c #5E4036",
"9 c #64412F",
"0 c #6B452C",
"q c #614236",
"w c #6A4632",
"e c #6F4A34",
"r c #65443B",
"t c #69463C",
"y c #6E493C",
"u c #734B32",
"i c #7A4F35",
"p c #724C3C",
"a c #794F3C",
"s c #7B5035",
"d c #7C513C",
"f c #464646",
"g c #4A4644",
"h c #4B4B4B",
"j c #504643",
"k c #544A46",
"l c #504E4E",
"z c #594E49",
"x c #5D514B",
"c c #545454",
"v c #585757",
"b c #5B5B5B",
"n c #61544D",
"m c #656565",
"M c #6B6B6B",
"N c #737373",
"B c #797979",
"V c #83563D",
"C c #86583E",
"Z c #8A5A3F",
"A c #915E3F",
"S c #955F40",
"D c #956040",
"F c #F8D724",
"G c #FFDD21",
"H c #EED54E",
"J c #2493E1",
"K c #838383",
"L c #8B8B8B",
"P c #949494",
"I c #9B9B9B",
"U c #A2A2A2",
"Y c #AAAAAA",
"T c #B4B4B4",
"R c #BDBDBD",
"E c #C2C2C2",
"W c #CDCDCD",
"Q c #D3D3D3",
"! c #D9D9D9",
"~ c #E5E5E5",
"^ c #F6F6F6",
"/ c #F9F9F9",
"( c #00FF00",
/* pixels */
"(((((((((((((((((((((((((((((((((((((((((((((((((((((((((((((((((((((((((((((((((((((((((((((((((((((((((((((((((((((((((((((((((((((",
"((((o@ooooo((((((((((((((((((((((((((((((((((((((((((((mKKKKKKKKKKKKKKKKKKKKKMo(((((((((((((((((((((((((((((((((((((((((@@@@@@@@@((((",
"((@U/////////b((((((((((((((((((((((((((((((((((((((((m~~~~~~~~~~~~~~~~~~~~~~~o(((((((((((((((((((((((((((((((((((((((ob/////////Uf((",
"(oY!!!!!!LBK!IKKKKKKKKKKKKKKKKKKKKKKKKKKKKKLKKKKKLKKKKNWUNBYWWWWWWWWWWWWWTNNYWvKKKKKLKKKKKKKKKKKKKKKKKKKKKKKKKKLKKKKKKBLWKBI!!!!!!Yo(",
"(BEEEEEELRRRMBGGGGGGGGGGGGGGGGGGGGGGGGGGGGGGGGGGGGGGGGIYITTLTTTTTTTTTTTTTBTTLTKGGGGGGGGGGGGGGGGGGGGGGGGGGGGGGGGGGGGGGGGBLREULEEEEEEK(",
"(mYYYYYYBUUUmBGGGGGGGGGGGGGGGGGGGGGGGGGGGGGGGGGGGGGGGGPPBIIBUUUUUUUIUUUIINIIBIKGGGGGGGGGGGGGGGGGGGGGGGGGGGGGGGGGGGGGGGGBNUULBYYYYYYM(",
"(bIIIIIIIvMmIMGGGGGGGGGGGGGGGGGGGGGGGGGGGGGGGGGGGGGGGGLLNMmMLLLLLLLLLLLLLmMNmLBGGGGGGGGGGGGGGGGGGGGGGGGGGGGGGGGGGGGGGGHNLMMMIIIIIIIm(",
"(vLLLLLLLKNKLc<=<<<<<<<7=**7*==7<<<<<<<<<<<<<<<<<<<<<=gBBMmBBBBBBBBBBBBBBBmNBB+<<<<<-#-$77==6X7***7*==77<<<<<<<<<<<<<<,hLKBKLLLLLLLb(",
"(vBKKKBNooooX;0000000000000000000000000000000000000000;fccvccccccccccccxccccch70000000000000000000000000000000000000000-oooo+MKBKBKv(",
"(hBmLmBb00000uisV0VVVuVVssssssssiissssssVsssiiiissssssu6***7*=****7,=**&**,*,6isVVuVVuVViiiViiiVssssssssssssssssVssssssu00906lBNKmNc(",
"(hvWWYMc0iiiiASAAAAAAAAADADDDDDDSSSSDDDDAADDSSSSDDDDDDAVssusssiissiisiVusiiisCADASAAAAAADDDDAAASAADDDDDDDDDDDDSSAADDADAAiiiiwhMUQTbl(",
"(hmUYYhc0CCCZZZZVACZZVZZAAAAAAAAAZSSADAAAAADAAAAADDDAAADAAAAAAAAAAAADAAADAADAAAAAAAAAAAAAAADAAAAAAZZCZCZAZZAAAAAAAAAAAAAAAAAehMYYUKh(",
"(hbKIMmc9aaassaiVV0ViaiViiiissssiiipiVVVZZAAAZAAAZDZDZDDAAAZAAAAAZAAAAZAZAAAAAZAZAZZZVVVCVViaiiiisisssssssiaiaaisssVVVZVVVVZwfbmIBvh(",
"(fmh@bmf4iiiiaii0VVVainZVVCZAZSSAZSSZAZAAZAZAAZAZAZAZDZZZAAZAZAZZAAZZAAZZAZAAZVVVVVVVVVVVViiiiaausiiaaiiiiiiaiiasssdVsVVVVVVqfmc@cmh(",
"(ofhhlf*0ZZZSAZZCAVZSSZZZZZZZASdZZZZZZZZZZCZZZZZZZZZZZZZZZZZZZZZZZZZZZZZZZACAZCZZZZZZZZAAZZZZZSVAZZZSZZZCSdAZZZZCSZZZZZZZAZZu*fhhhf@(",
"((mGGGO:9ZCZnACCCZVZVSCZCCCZCZnSZCZZCZCZZCZCZCZCZCZCZCZZCZZCZZZCZCZZCZZCZZCCCCZCZCZZZVCCCCZCZAnSCCZCnAZZSVSnZZZZSCZZZCZCZVZCe:zGGGm@(",
"((MGGG%55nSaSVVSCCCCVVVSVVSaSVVSSSaSaSaSaSnVCCCVVZCCCVZVVVVVnSdSCCSdSSddVCCCCCZCCCSVVSdVVCCZCCdVSaSaSnSSSaSnSaSddCCCSySVVZSV55nFGGM((",
"((MGGGO:5SaSaVVnCCCCSVSaVVdSaSS5dSSpSaSSSpVVVVaVddddaaaiaiaaiipiiiaspaddVaVaVVVVCVCVVVdSZVVCVVSVaSaSdSypaSdSaSaSVVSVSpnVVVVV55nFGGM((",
"((MGGGO:5VSaSaySVVVVVVVVSSyiddnVddaarppaaa            appeypupp        ppeyu               VddVVSySadSpSdSSpSyVVVVdnySSVVVVV5:xGGGN((",
"((MGGGX:5VaaSaSpVVVVVdVV5SnVddiVddddypaaaV              aauaaa           aaa               VdVdVySdVdaSydaySySVdVVVZSS5VVVVVw:zGGGB((",
"((MGGGO:5VVdSySSVuaSpnVdVdVdVdVdSaddaSVViV  JJJJJJJJ    VVaVVd   JJJJ    ZVV  JJJJJJJJJJJ  nSySVaaadydSSdSySVddVVaVVVaaVVaVVw:xGGGN((",
"((mGGGO;5iddySyyuVVaVVVnddddddddddadaianaa  JJJJJJJJJJ  aaaa    JJJJJJJ   Va  JJJJJJJJJJJ  SyS5VnSddSdyaadayddddiVaiaaVVaVpi5:zGGGN((",
"((mGFG$-5dadaaSaViaVVVVpdadddaaddaaaaaStaV  JJJJJJJJJJ  naV     J   JJJ   ad      JJJ      ppaaaaddddadadaaadaddaanVVaSVaaVV5:zGGGN((",
"((mGFF%-:aaaayyauiaa5V5SaaaaaaaaaaaaaaaanV  JJ     JJJ  Vaa   JJJ   JJJJ  na      JJJ      ySpaaaadaaaaaaaaadadaaaVVpa5nnaVn5-kGGGN((",
"((mGGGO-3StaaapaaaaVySaaaaaaaaaaaanaaaaaaa  JJ     J    anV  JJ       JJ  da      JJJ      danVVaaddadaaaaaaayayayppanpai5y54-rFGGM((",
"((bGGGX-2Sypnyaa5aanypppapaayaaapaVunapyaa  JJ     J     pi  JJ       JJ  ap      JJJ      yV55aytyyttttyyytty5ttty55y5pa5y542zFGGM((",
"((bGGGX-45S5iaayStppyySyyyyyyyyypyppinVSyy  JJJJJJJJJJ   aa  JJ       JJ  ppapaa  JJJ  ppippipppyayypyypyp5iyyya5yyya555atyy3-kFGGM((",
"((mGGGX-3yyaaayayyyyyy55ttttttttwrr45555rr  JJ     JJJJ  pp  JJ       JJ  inaun   JJJ  panppnpppayayaayaaaadayayaapyySVnaapp5-kGGGm((",
"((bGGGX&:5Sappinyyynpyyapyppypyttttwwqrqrq  JJ     JJJJ  ty  JJ       JJ  ppppp   JJJ  ppppypyppppayyayypppnppppyppppnuapppp4-jGGGm((",
"((bGGGX&5n5ny5-,245ippynppyyyyyppppptyyyet  JJ     JJJJ  pp  JJJJ   JJJJ  yppyp  JJJJ  ptpppyppypyyyyyayypyyyypyypt4**25tppy4&jGGGm((",
"((bGGGX=:5nt3#fGF>25pyyyyyyyyyypyyytpypyyp  JJJJJJJJJJ   pp   JJJJJJJJJ   pytpy  JJJJ  ypyyyypypyyyayyyyyyyyyyaynt2%GGg,3yyy:-jGGGm((",
"((cGGGX&-y5&+GGGFF&3tyyyyyyypyyyypypyyyyyy  JJJJJJJJ     py     JJJJJ     ypptt  JJJJ  ytpyyyyyyyyyyyyyyyyyyypya52>FGGGG>&5p3&7GGGm((",
"((cGGGO&=&XcGGGGGGG>2rtpttptyyyynyyyyyynyy  JJJJJJJJ     yy     JJJJJ     yyann  JJJJ  nyyyyyan5yyyyyyyyyytyyyyt2>FFGGGGGhO23&gGGGm((",
"((cGGGGO%1GGGGGGGGGGO-rttpptyttyyyyyyytyyy              apty             yyy55a        5tttyy5anyyttyttyyyyyyyt&>FGGGGGGGGG1>OGGGGb((",
"((oGGGGGcGGGGGGGGGGGG%3t5yttttttyttttttttt              yptt             nttay5        nttttyyttytttttttytn5tr2$GGGGGGGGGGGGvGGGGG@((",
"(((@GGGGGGGGGGGGGGGGGO$4xyxttttttttytttttt            nxx5ntyn         rx5tttyx        tttttttttttttttttya5xt4$XGGGGGGGGGGGGGGGGG@(((",
"(((.@GGGGGGGGGGGGGGGF$$45nttrttrttrttttttrrtnttttrtrtttt55ttttrrx5x5r4rr55554884w44t4444r444444444r4r4r44r4442$$GGGGGGGGGGGGGGGG@@(((",
"(((..@GGGGGGGGGGGGGG1$$ta5ttrtttttttttrtttttyyttttttrtrtantyttttttypttrr5nyyrrtty55xrrttrrrr4rr48r4rr4r4444rr4$$@GGGGGGGGGGGGGG@@@(((",
"(((...oGGGGGGGGGGGFh$$555ttttrtrrtrtrrrrrrrtttrrtrrttrrr5tt4rrtrrtt4trrttrytrrrrtt5ntrtrtrrrtrrrrrrrrrrrttrtrr2$#hGGGGGGGGGGGG@@@@(((",
"((((...@GGGGGGGGGGF>$&5xyyttrrrrrrrrtrrrxrrrrrrrrrrrrrrryytttrrrrttyrrrrrtttttrrtya5rrrrrrrrrrrrrrrrrrrrrrrrrrt&#OGGGGGGGGGGGfo@@((((",
"(((((...@GGGGGGGGGf$#4z4rrrr5zrrrrrrrrrt5trrrrrrrrrrrrrry4x4rrrrrrrrrrrrtrrrrrrr4trrrrrrz5xyytrrrrrrrrrrrrrrrrr4##@GGGGGGGGGfo@@(((((",
"((((((..o@GGGGGGGGX$&4444r4444qqrr4rrrrtt44rrrrrrrrrrrrrty5tqrrrrrrrrrrry4rrrrrrttrrrr4rqr55rrrrrrrrrrrrrrrrrtr4&#%GGGGGGGGho@@((((((",
"(((((((...@GGGGGG1$%344444r4444444444444r4rr4r4rttx5rrrrtr5tqzrrrrrrrrrr5tx4rrrrrrrrrrrrrrrrrrrrrrrrytx5rrrrtt548$#OGGGGGGfoo@(((((((",
"((((((((..ofGGGGGo##24rrrry55xrrrrrrrr5ztrrrrrrry55zrr42&&&&&&&&&&&&$&$$&&-$$2rrrrrrrrrrrrrrrrrrrrrry55zrrrry5nz4##oGGGGGfoo@((((((((",
"(((((((((...fGGGGGO##$&&$$&&&&&&&&&&&&&&&&&&$&&&&&&&&&&X>+++O@+O+1+11++++++++O$$&&&&$$2$&&&&&&&&>&&&&&$&$$&&&&$&##oGGGGGfo@o@((((((((",
"((((((((((...fGGGGGO#$$$$$$$####$$$$#####$%$$$$$####$$>cmmbmmmmmmbmmmmbmbmmmmbO$####$$$$########$$$$$$$$$$$$$$$$#OGGGGGfoo@((((((((((",
"((((((((((....hGGGGG1111171111111711111111111111111111gmmMMmmmmmmmmmmmmmmmNMmmo7117111111111111111171111111711111GGGGGho@o@((((((((((",
"(((((((((((....GGGGGGGGGGFFFGGGGFFFFGGGGGGGGFFFFGGGFFFcmMYTMmmMmmmmMmmMmmNTUbmhGGGGFFFFFGGGGGGGGFFFFFGGGFFFFGGGGGGGGGh@o@@(((((((((((",
"((((((((((((...ohGGGGGGGGGGGGGGGGGGGGGGGGGGGGGGGGGGGGGcbKUYBMmMmmMmmmmMmmBYUBmhFGGGGGGGGGGGGGGGGGGGGGGGGGGGGGGGGGGFGho@o@((((((((((((",
"(((((((((((((....hGGGGGGGGGGGGGGGGGGGGGGGGGGGGGGGGGGGGcmmPPMmmmmmmmmmmmmmMIPmmhFGGGGGGGGGGGGGGGGGGGGGGGGGGGGGGGGGGGfoo@((((((((((((((",
"((((((((((((((....fffffffffffffffffffffffffffffffffffffmvvbvMmmmMmmMMmmmmcmvbm@hhffhfhfffffffhfhffhfffhffffhffhffffoo@@((((((((((((((",
"(((((((((((((((.......ooo.oo.oo.oo.ooo.o.oo.ooooooo.o.@mmmmmmmMmmmmmmmmmmMmmmmoooooooooooo@ooooooooooooooooo@ooooo@o@o(((((((((((((((",
"((((((((((((((((.............o.o...o...o..oo.o.o.o.oooo@fffffffffffffffffffff1oooooo@o@oo@ooo@oo@o@ooo@@@oo@oo@o@oo@@((((((((((((((((",
"(((((((((((((((((.........o.....oo...o..o.....o.o.o..oooo.oooooooooooooooooooooooooooooooo@ooo@ooooo@oooo@@o@oo@o@o@(((((((((((((((((",
"((((((((((((((((((o.....o.....o...o..oo.o..oo.oo.oooooo.oooo.o.oooooooooooooo@ooo@oooo@oo@ooo@oooo@ooo@oo@ooo@o@@o@((((((((((((((((((",
"(((((((((((((((((((((((((((((((((((((((((((((((((((((((oo.o.ooooo.o..ooooooooo(((((((((((((((((((((((((((((((((((((((((((((((((((((((",
"(((((((((((((((((((((((((((((((((((((((((((((((((((((((oooooooooooooooo@oooooo((((((((((((((((((((((((((((((((((((((((((((((((((((((("
};
