/* XPM */
static char *select_bot_btn[] = {
/* columns rows colors chars-per-pixel */
"133 57 80 1 ",
"  c #000000",
". c #2E2E2E",
"X c #3D322F",
"o c #333333",
"O c #3C3532",
"+ c #3E3937",
"@ c #3A3A3A",
"# c #462F29",
"$ c #482F2A",
"% c #43312C",
"& c #4C332C",
"* c #47382F",
"= c #4D392F",
"- c #52362C",
"; c #553A2E",
": c #5B3C2C",
"> c #413632",
", c #463931",
"< c #4A3B31",
"1 c #453C3A",
"2 c #523730",
"3 c #553A31",
"4 c #5C3E35",
"5 c #613F2F",
"6 c #5E412E",
"7 c #4A433F",
"8 c #5E4036",
"9 c #64412F",
"0 c #6B452C",
"q c #614236",
"w c #6A4632",
"e c #6F4A34",
"r c #65443B",
"t c #69463C",
"y c #6E493C",
"u c #734B32",
"i c #7A4F35",
"p c #724C3C",
"a c #794F3C",
"s c #7B5035",
"d c #7C513C",
"f c #464646",
"g c #4A4644",
"h c #4B4B4B",
"j c #504643",
"k c #544A46",
"l c #504E4E",
"z c #594E49",
"x c #5D514B",
"c c #545454",
"v c #585757",
"b c #5B5B5B",
"n c #61544D",
"m c #666565",
"M c #6A6A6A",
"N c #737373",
"B c #7B7B7B",
"V c #83563D",
"C c #86583E",
"Z c #8A5A3F",
"A c #915E3F",
"S c #955F40",
"D c #956040",
"F c #2493E1",
"G c #848484",
"H c #8B8B8B",
"J c #939393",
"K c #9B9B9B",
"L c #A2A2A2",
"P c #ABABAB",
"I c #B5B5B5",
"U c #BDBDBD",
"Y c #C3C3C3",
"T c #CDCDCD",
"R c #D3D3D3",
"E c #D9D9D9",
"W c #E6E6E6",
"Q c #F5F5F5",
"! c #FAFAFA",
"~ c #00FF00",
/* pixels */
"~~~~~~~~~~~~~~~~~~~~~~~~~~~~~~~~~~~~~~~~~~~~~~~~~~~~~~~~~~~~~~~~~~~~~~~~~~~~~~~~~~~~~~~~~~~~~~~~~~~~~~~~~~~~~~~~~~~~~~~~~~~~~~~~~~~~~",
"~~~~o@ooooo~~~~~~~~~~~~~~~~~~~~~~~~~~~~~~~~~~~~~~~~~~~~mGBGGGGGGGGGGGGGGGGGGGM@~~~~~~~~~~~~~~~~~~~~~~~~~~~~~~~~~~~~~~~~~@@@@@@@f@~~~~",
"~~@L!!!!!!!!!v~~~~~~~~~~~~~~~~~~~~~~~~~~~~~~~~~~~~~~~~mWWWWWWWWWWWWWWWWWWWWWWWo~~~~~~~~~~~~~~~~~~~~~~~~~~~~~~~~~~~~~~~om!!QQ!Q!!!Lf~~",
"~oPEEEEERHBGEKGGGGGGGGGGGGGGGHGGGGGGGGHGGGGGGGGGGGGGGGNTPNNPTTTTTTTTTTTTTPNNPTcGGGGGGGGGHGGGGGGGGGHGGGGGGGGGGGGGGGGGGGNGTGBKEEEEEEPo~",
"~NYYUYYUHUUUMB!!!!!!!!!!!!!!!!!!QQ!!QQQQ!!!!!!!!!!!!!!LPKPIHIIIIIIIIIIIIIBIIGIG!Q!!!!!!!!!!!!!Q!!!!!!!!!!!!!!!!!!!!!!!RGHUULGYYYYUYG~",
"~mPPPPPPBLLLmBQQQQQQQQQQQQQQQQQQQQQQQQQQQQQQQQQQQQ!QQQJJBKKGLLLLKLLKLLLLLNKKBLGQQQQQQQQQQQQQQQQQQQQQQQQQQ!QQQQQQQ!QQQQTBNLLHBPPPPPPM~",
"~bKKKKKKKvMmKMWWWWWWWWWWWWWWWWWWWWWWWWEWWWWWWWWWWWWWWWJHMNmMHHHHHHHHHHHHHmMNmHBWWWWWWWEWWWWWWWWWWWWWWWWWWWWWWWWWWWWWWWYMHMNMKKKKKKKm~",
"~vHHHHHHHGNGHc**7=*=7==*=7*==7<<,*6X66$#7=**6,,,<<****7BBMMBNBNBBBNBBNBNBNmMBBO*7O6**6-$*7===7*=7,,6**=7<<<<<<<<<<<<<<<hHGMGHHHHHHHb~",
"~cGBBGBNooooo:0000000000000000000000000000000055000000;fcccccccvvvcccvccccvcch*0000000000000000000000000000000000000000-oooo@MGBBGGc~",
"~hNmJmBb00000ussssssssssssssssssVV0V0VVVVuVVuVVVssssssi6**7***************,**6ssVVuVVuVViiiVVssissssssssssssssssVssssssu00008hBNGMNc~",
"~hbTTPmv0iuiiADDDDDDDDDDAAADDDADAAAASSSSAASSAAAADDDDDDAVssusssisssssssiisiuisVDDAAAAAAASADDDAASSDAADDDDDDDDDDDDDAADDDDAAiiiu0hMLTIbh~",
"~hmLPPhc0CZCZZCCCZZCZZZZAAAAADAAAAAAAAAAAAAAAAAADDDDAAADAAAAAAADADZDDDAAADDDAADDAAAAAAAAAAAAAAAAAZZCCCCZCZAAAAAAAAAAAAAASSASehMPPPBh~",
"~hbGKMmc5ssssdissssssdssdssassssV0VVVVVVZVAAAZAAZADAZAAAAAAAAAAAAAZAAAAAAAAAAAZAAAAZZVCCZVViaiaissssasaisssssaiasssVVCCVVVCZwfbmJBvh~",
"~fmh1bmf5aiaaaaassVddVdVddVVZAZZZAZZZZZAAAAZAAAZAZZZAZAZZZZZAZZZZAAZZAZAZAZZZZVVVVViVVVVVViiiiiassasaaiaispppsiisssssVVVVVVdqfmvfcmh~",
"~ofhhlf*9ZZZCZZCZZZZZZZZZZSVZZZZAZZAVZAZAZVZZZAnZZZZZZZZZZZZZZZZZZZZZZZZZZZZZZZZZZZZZZZZZZZZZZZZZCZZZZZZZZZSDAZZZASSZZCAZZZZe*@lhhfo~",
"~~mPPPo:wCCCCCCSCZZZCZZZZZVSZZZZVZVZVZVZVZVZZZZSCZZZZZCZZZZZZCZZCZCZCCZZZZCZZCZCZVZZZVZCZCZCCZCZCZCZZCCZZCSdnAZZCZAnZZCZCCZZe6xPPPm@~",
"~~MTYY%55aSdnSaSCCCCVVVZVVSnVZVZSpSVVZSSpSSyVCCSCCnSCVVVCVdSVVCVCCSdSSddVVCVCCCCCCCCCCCCCCSSdVCCSaSaSadSaSaSdSdSCCCCSnVVVVnV55nYYTN~~",
"~~MYYYO:5SaSSaSaVCCVVVVVVZSSVVVVpSnVVVaSSpySVdsdVVVsaaaaapauuaaaaaaspaddVaVsVVCVCVVCCVCCCVdVdSCAaSaSaSVVSaSadaSVCCCVpSSVVSSau5nYYYM~~",
"~~MUYU>:5SdVaddSZnVVVVVVVVV5ViVV5SSyiaiypp            pppepyppp        ppppp               aaddnSnSpdSVVpSdSSaVVVVVVSaaSaSSS55nUUUN~~",
"~~mUUU%:4aaSdVaSCaSdVVVVVVVVaaViSayyaa5Saa              paauaa           app               VddSaddpSdpVVSyaSddVVaVVVySayS5aa52tUUUN~~",
"~~MUII>25SySdSadVVnVVVVVaSySSaSySySSnpaVVa  FFFFFFFF    VdVdVV   FFFF    VVV  FFFFFFFFFFF  SySSyddSaddVVySaddVddVVVaS5aSaVVi55nIIIB~~",
"~~mIIIO25apyddaaaipSiVnaanaa5SSpayypVSaVnd  FFFFFFFFFF  addd    FFFFFFF   ad  FFFFFFFFFFF  naatSddaaddddanddddddaaaVnSS5VVaV55xIIIN~~",
"~~mPPI$-2SaadaadaVaaaaVVaaSySatpaSySiiVpVi  FFFFFFFFFF  add     F   FFF   ad      FFF      SaayaadadddadadaaddaaaVVVaaaS5SnV5:zPPPN~~",
"~~mPPP%-2aaaaddaaaaaaapaaaaytaaaaayaaaaaVV  FF     FFF  aaa   FFF   FFFF  aa      FFF      aaaS5aaaaaaaaaaaaaaaanV5VaaaaaayS52zPPPN~~",
"~~bPPPO-4aaaaSaaaanpaaaVaaaaaaaaaaaaanVuad  FF     F    Vaa  FF       FF  da      FFF      aanVSaaaaaaaadaaaaaapaayyypypyyyy5-rPPPM~~",
"~~mLLLX-:pppytyaaaaS5aanaaaayanypppaiVVnpp  FF     F     na  FF       FF  ap      FFF      ppp5iyyyytyttp5tytty5ty5t5ttt4ty54&kLLPM~~",
"~~bLLLX-:pppypna5dy5Styyyyyaayaypppyyppppp  FFFFFFFFFF   pp  FF       FF  ppappp  FFF  ppipp5ippyyppyayaaappyyyytttyay5pytyy4&kLLLM~~",
"~~mKKKX&4ppyppiaaayyytyttt5y5ty5rrwr5t5trr  FF     FFFF  pp  FF       FF  inaan   FFF  ppnppVnpppappayaynyppppappppapaySaapp4&kKKKM~~",
"~~bKKKX&2nitin5nyyppyppppppyapyytttwwqrqqr  FF     FFFF  ty  FF       FF  pyppp   FFF  ppppyppppyayayapyppppytinppppnyn5tSny4-jKKKm~~",
"~~bJJKX&:y5S554223yyaypyypyyyypypppyyyyyyw  FF     FFFF  yp  FFFF   FFFF  pppyp  FFFF  pyppppyypyyyayyypyppyyS5yypy3&2:5y5ip:&jJJKm~~",
"~~vJJJX&2yyy5&gNM12ryyyyyyayyyyyyyyyyypyyp  FFFFFFFFFF   pp   FFFFFFFFF   pyyyp  FFFF  yypyyyypyyyyyyyyyypyyyyyyyy2%NNg&2typ:&jJJJm~~",
"~~vJHJX&2y4&1MHJHM%&typyyyyyyyyyypyyyyyyyy  FFFFFFFF     py     FFFFF     pyyyy  FFFF  pyyyyyyyyyyyyyypyyyyyyyyyy2>NHJHM>&y5:&jJHJm~~",
"~~vJHH+&-=XvGHHHHHMO2rn5naayyyyyyyyynyyyyy  FFFFFFFF     pp     FFFFF     yyinn  FFFF  ayyyyyyyyyyyyyyyyyyyyyytt2>NHHHHHGh>22$jHHHb~~",
"~~lHHHMOX1NHHHHHHHHMO2rti5yyyytyyttyttyyyy              nuyy             tyt55p        5tytttytynyttyttytttyytt21MHHHHHHHGM1>>mHHHb~~",
"~~oBGHGmvBHHHGGHHGGGb%2ttttttttttttttttttt              a5tt             nttpyt        nyyttttttyttttttttttttt2>mHHGHGGHHGHGvmHGHN@~~",
"~~~@BGGGGGGGGGGGGGGGM>$4ttttttttnttttttttt            nn5n5xyn         tn5rtyyx        xrtttttttyttttttttrtrt42oNGGGGGGGGGGGGGGGN@~~~",
"~~~.@BBGBGGBBGGBGGGGb%%3tttrtttrtttrttttrtttntttttrtttrrattttrtrn4n5r444555544r4r5444484r44444444444r44r444442$OmBGGBGGBGGGGGGBN@@~~~",
"~~~..oBBGGBBGBBGBGBN1$&rtttttrtttttttrtrttrtyyttttttttrrttttttrtytyytttt5ntarrrrtrryrrtrrrrrr4r44r4rrrr4rrr4r4$$+NGBGBGBBBBBBGM@@@~~~",
"~~~...@BBBBBBBBBBBBh%$2rtrtrrtrrtttrrtrrrttrrrrtrttrtrrrttrrrtrttr5trttrrtytrrrrrtrrrtrtrrrrrrrrttrrrrrrrrrrrr2$$fBBBBBBBBBBBN1@@@~~~",
"~~~~...oNBBBBBBBBNmO$&rrrtrrrrrtttrtrrrrrrrtttrrrtrrrrrrttrrrrrrrttyrrrtrrttrrrrrrtttrrrrrrrrrrrrrrrrrrrtrrrrrr$$OmBBNBBBBBNNfo@@~~~~",
"~~~~~...+MBNBNBNBN1$$4rrrtrr5zrrrrrrrrrrrrrrrrrrrrrrrrrrtt55rrrrrrrrrrrrrrrrrrrrrr4z55yytrrrrrrrtrrrrrrrrrrrrrr4$%@NNBBNNBBNfo@@~~~~~",
"~~~~~~...@MBNNNNNcO$&444444r444rr4rr4r4rrrrr8rr84rrrrrrrryynrrrrrrrrrrrrrrrrrrrrrrrrx5tttyrrrrrrrrrrrrrrrr4rrrrr&$%bNNNNNNMhoo@~~~~~~",
"~~~~~~~...@MMNNNM1$$3444444444444444r44r4r4rrrr8rrrrrrrrrr544zrrrrrrrrrrrrrrrrrrrrrrrrrr5yx5rrrrrrrrrrrrrrrrrrrr4$#@MNNNNMfo@@~~~~~~~",
"~~~~~~~~..ofMNNMbo$$28rrrry55xrrrrrrrkrrrrrrrrrrrrrtrrr&&&&&&-&&&&&&$&&$&&&&$2rrrrrrrrrrn55zrrrrrrrrrrrrrrrrrrrr3$%@mMNMMfo@@~~~~~~~~",
"~~~~~~~~~...fMMNNco$$&$$&&&&&&&&$&&&&&&&&&&$>$&&$&&%&&$O+1++@++++1++@1++1@+11O%&&$&&&&&&&&&&&&&&>&$&&&&&>$$&&&$$$$obNMNMfo@@@~~~~~~~~",
"~~~~~~~~~~..ofMMMMcO%$$#$$$$####$$$$$$$$$$$$$$$$$$$$$$+vmbbmmmbmmbmmmbbmbmmbmbO$$$$$$$$$########$$$$$$$$$$$$$$$$%OvMMMMfoo@~~~~~~~~~~",
"~~~~~~~~~~...ocMMMMh1111111111111111111@111111111111111mmMNbmmmmmmmmmmMmmbNMmmo1111111111111111111111@11111111111lMMMMho@o@~~~~~~~~~~",
"~~~~~~~~~~~....hMMMMMMMMMMMMmMMMMMMMMMMMMMmMMMMMMMmMMMcmMIIMMmmmmmmmmMmmmNILbmhMMMMmMMMmmMMMMMMMMMMMMMMMMMMMMMMMMMMMMhoo@@~~~~~~~~~~~",
"~~~~~~~~~~~~...ohmMmMMMmMmMMMmMMmMmMMMMmmMMMMmmmMMmMmMcbGLPBMmMmmmmmmmmmmBPLBmfMMMmMmMMMmMmMMmMmmMMMmMmMMMMMmMmMMmMmho@o@~~~~~~~~~~~~",
"~~~~~~~~~~~~~....hmmmmmMmmmmmMmmmmMmmmMmmmmmMmmmmmmmMmcmmJJMmmmmmmmmmmmMmMKJmmfmmmMmmmmmMmmmmmmMMmmmmMmMmmmmmMmMmMmfoo@~~~~~~~~~~~~~~",
"~~~~~~~~~~~~~~....ffffffffffffffffffffffhffhhhfhhffhfhfmvvbvmmmmmmmmmmmmmcmvbm@fhffhhffhhfhffhhhffhhfffffffhffhffffoo@@~~~~~~~~~~~~~~",
"~~~~~~~~~~~~~~~.......ooo.oooo.oooo.o.oo.o..o..oooo.oo@bmmmmmMmmmmmMmmmmmmmmmmoooooooooooooooooooooooo@oooo@oooooo@o@o~~~~~~~~~~~~~~~",
"~~~~~~~~~~~~~~~~.............o.o.oo....o..oo.ooo.o.o.o.@fffffffffffffffffffhf1oooooooooooooo@ooooooo@ooo@@o@oo@o@oo@@~~~~~~~~~~~~~~~~",
"~~~~~~~~~~~~~~~~~.........o........o.oo.o......oo.o.ooooo.ooooooooo.oooooooooooooo@oo@o@ooo@ooo@o@o@ooo@oooo@oo@o@@o~~~~~~~~~~~~~~~~~",
"~~~~~~~~~~~~~~~~~~o.....o.....o.o.oooo..o..oo.ooo.oo.ooooooo.oo.oo.oooooooooooooooooo@oo@ooo@oooo@oo@oooo@@oo@o@@o@~~~~~~~~~~~~~~~~~~",
"~~~~~~~~~~~~~~~~~~~~~~~~~~~~~~~~~~~~~~~~~~~~~~~~~~~~~~~oo.o.ooooooooooooooooo@~~~~~~~~~~~~~~~~~~~~~~~~~~~~~~~~~~~~~~~~~~~~~~~~~~~~~~~",
"~~~~~~~~~~~~~~~~~~~~~~~~~~~~~~~~~~~~~~~~~~~~~~~~~~~~~~~ooooooooooooooooooooooo~~~~~~~~~~~~~~~~~~~~~~~~~~~~~~~~~~~~~~~~~~~~~~~~~~~~~~~"
};
