/* XPM */
static char *select_top_btn_pressed[] = {
/* columns rows colors chars-per-pixel */
"133 57 83 1 ",
"  c #040200",
". c #2E2E2E",
"X c #3D322F",
"o c #333333",
"O c #3C3532",
"+ c #3E3937",
"@ c #3A3A3A",
"# c #462F29",
"$ c #482F2A",
"% c #43312C",
"& c #4C332C",
"* c #47382F",
"= c #4D392F",
"- c #52362C",
"; c #553A2E",
": c #5B3C2C",
"> c #413632",
", c #463931",
"< c #4A3B31",
"1 c #453C3A",
"2 c #523730",
"3 c #553A31",
"4 c #5C3E35",
"5 c #613F2F",
"6 c #5E412E",
"7 c #4A433F",
"8 c #5E4036",
"9 c #64412F",
"0 c #6B452C",
"q c #624236",
"w c #6A4632",
"e c #6F4A34",
"r c #65453B",
"t c #69463C",
"y c #6E493C",
"u c #734B32",
"i c #7A4F35",
"p c #724C3C",
"a c #794F3C",
"s c #7B5035",
"d c #7C513C",
"f c #464646",
"g c #4A4644",
"h c #4C4B4B",
"j c #504643",
"k c #544A46",
"l c #504F4A",
"z c #594E49",
"x c #5D514B",
"c c #545454",
"v c #585757",
"b c #5B5B5B",
"n c #655F46",
"m c #61544D",
"M c #656565",
"N c #6B6B6B",
"B c #737373",
"V c #797979",
"C c #83563D",
"Z c #86583E",
"A c #8A5A3F",
"S c #915E3F",
"D c #955F40",
"F c #956040",
"G c #DEBC1F",
"H c #FFDD21",
"J c #FADC31",
"K c #838383",
"L c #8B8B8B",
"P c #949494",
"I c #9B9B9B",
"U c #A2A2A2",
"Y c #AAAAAA",
"T c #B4B4B4",
"R c #BDBDBD",
"E c #C2C2C2",
"W c #CDCDCD",
"Q c #D3D3D3",
"! c #D9D9D9",
"~ c #E5E5E5",
"^ c #F6F6F6",
"/ c #F9F9F9",
"( c #00FF00",
/* pixels */
"(((((((((((((((((((((((((((((((((((((((((((((((((((((((((((((((((((((((((((((((((((((((((((((((((((((((((((((((((((((((((((((((((((((",
"((((o@ooooo((((((((((((((((((((((((((((((((((((((((((((MKKKKKKKKKKKKKKKKKKKKKNo(((((((((((((((((((((((((((((((((((((((((@@@@@@@@o((((",
"((@U/////////b((((((((((((((((((((((((((((((((((((((((M~~~~~~~~~~~~~~~~~~~~~~~o(((((((((((((((((((((((((((((((((((((((ob////////^Uf((",
"(oY!!!!!!LVK!IKKKKKKKKKKLKKKKKKKKKLKLKKKKLKKKKKKKKKKKKBWUVVUWWWWWWWWWWWQWYVBYWvKKLKKKLKKKKKKKKKVKKKLKKKKKKKKKKKKKLKKKKVKWKVI!!!!!~Y.(",
"(VEEEEEELRRRNKHHHHHHHHHHHHHHHHHHHHHHHHHHHHHHHHHHHHHHHHUYITTLTTTTTTTTTTTTTVYTLTKHHHHHHHHHHHHHHHHHHHHHHHHHHHHHHHHHHHHHHHHKLREULEEEEEWK(",
"(MYYYYYYVUUUMBHHHHHHHHHHHHHHHHHHHHHHHHHHHHHHHHHHHHHHHHPPVIIKUUUIUUIIUUIUUBIIVUKHHHHHHHHHHHHHHHHHHHHHHHHHHHHHHHHHHHHHHHJVNUULKYYYYYYM(",
"(bIIIIIIIbNMINHHHHHHHHHHHHHHHHHHHHHHHHHHHHHHHHHHHHHHHHLLBNMNLLLLLLLLLLLLLMBBMLVHHHHHHHHHHHHHHHHHHHHHHHHHHHHHHHHHHHHHHHHNLNBNIIIIIIIM(",
"(vLLLLLLLKBKLl==<<<<<<<<=**7*==7**-*-#$$7*6**7***6***77VVNMVVVVVVVVVVVVVVVMNVVO<**-*-#$$76**7**76*==7=*7<<<<<<<=<<<<7**hLKNKLLLLLLLb(",
"(cKVKKVBooooX:00000000000000000000000000000000559000006fcccccccvcvcvcvcvvcvcvh=0000000000000005560000000000000000000000-oooo@NKKVKKc(",
"(hVMPMVb09005uiisssCiiiCssssssssCC0C0CCCC0CCCCCCssssssu6,*,,==,****,*,****,,*;ssCC0C0CCCC0CCCCCCiisisssssssssssssssssssu00006hVNKNBc(",
"(hvWQUMv0iiiiSSSSSSSSSSSFSFFFFFFDDDSSDDDSSDDSSSSFFSSFFFZssssiiiisssssssisssssCFFSDSSDDDDSSSSSSSSFFSFFFFFFFFFFFFFFFFFFFSSssssqhNUWTvc(",
"(fMYYYhc0ZAZAAAAASAAAAAASSSSSSSSSSSASSSSSSSSSSSSFSSSSSSSSSSSSSSSSSSSSSFSSSSSSFSFSSSSSSSDSSSSSSSASAAAZAZAZZSSSSSSFSSSFSSSFSDAehNYYYVh(",
"(hbKINMc5sssssaasiiiiiipiiaissssC0CCCCCCAAASSSSSSSSASSASSAZASSSSSSASSASSSSSSSSSSSSCSSCCCCCCCCCCCsssdsdssssidiaiasasCCACCZAAZwfbMIBvh(",
"(fMh@bMf5aapaaiiiiCCaaDaCCCZSADDSASCCASCSAASAAASSSSSSASSASFdSASSASSAZDSAASAAAACsCCCCCCCCCCC05C5CispspispssaiiapyisdsdCCCCsCCq7MbfcMh(",
"(ofhhhf*9CZZZdDAAAAACDAAAAAAASCDSAAAAASSAAAAAADaZAAAAAAAAZDDAFDnAAAADZAAAAAAAAAACSCSCSAAASCSAAnDZAAAAAAAFAAAZDCDSnDZASAZAAAAu<@lhhfo(",
"((MHHHO:0DDCDDnAACAADAZAAAAZAnDdACAAACCAAAACAAnDZZAZZZAZZDdDDddDAAZAZAAZAZAZAAZASCAACCAACCACACCDAZZAAZAZnSAZDZDdADdDZAZZZAZZe6zHHHM@(",
"((NHHH#53DpDDaDdCCACDDpDmCDCCCCCDdDaDmDdDDdDCACDZZCDZZAAACZCACZAZZDdDDdZZZZZZZAZZZZZZDdCCCCCCCDaDaDddDdDaDdDDddDCZZZDaDaDpDm55mHHHB((",
"((NHHHO:4pDDpDaDCAZCpDDpCCaDCDDCdDaDdDCCaddaCCiCddaaipiCipaauappaapsppddaCCaCCCZCZZZZCdDCCCDaDaDaDaDddDCDaDCaDCCCZZCdDaDaDpDu5rHHHN((",
"((NHHHX:5DDpDpDaCCZCDppDCDaCdi5Dddaa5ppapp               yepppp        yypyy           aaCaaaCCpDyaddDCCpdCCdCCCCCCCDaCCDpDp5:xHHHB((",
"((NHHH%55pdpDdddCCdCpDaDCCaaCCmyddddDpaaaC               aapip           iii            aCCaCaaDyDDddaCdyDCCdCCCCCCCdCdCyDyD52xHHHB((",
"((NHHHX-5yDyDpaaaCCCaDD5pDpDddD5dDadpDdCCC  GGGGGGGGGGG  CddCC   GGGG    ACC  GGGGGGG   DmCCDyD5mdCdDyaadydDCCddaDDypDdCCaaCy:xHHHB((",
"((MHHHX-5DmpaamDdaaCD5aCaaadaCpDddaaadddaa  GGGGGGGGGGG  ddd    GGGGGGG   Ca  GGGGGGGG    CCtDpDCCddyDDmdDpyddddpppDmyddaCaC55zHHHB((",
"((MHHH$-5dddDyyDaCaayaCaaadaddaaadddaadaaC      GGG      na     G   GGG   aa  GGG   GG    yDpDaaadaaadyDaaadaadaaCipidddaaCC5-zHHHB((",
"((MHHJ$-:adiaayanCaamaaaaaaaaaaaaaaaaadamC      GGG      aa   GGG   GGGG  na  GG     GGG  ppytaaaaaaaayaaaaaaaaamC5DdaaaaaCm5-zHHHB((",
"((MHHHO-2DtmidaaaamyDptDaaDtpDpaaanaaamdaa      GGG      Ca  GG       GG  aa  GG     GGG  aaymCCaaaaaaaaaaaaaaappapyyDim5my552rJHHN((",
"((bHHHO-2DypaaaaaaaDtpppyayaymppppCpppptap      GGG      ip  GG       GG  ap  GG     GGG  yyD55ayytyytttp5ytttp5t5ttt5555ut442jHHHN((",
"((bHHHX-455a5ypp5Dy5tyypyyyppaypypyypmCDyyppap  GGG  ppatmD  GG       GG  pp  GGG   GGGG  pp5apppypypyyaaapyyyyyyttyt55pa5pt4-kHHHN((",
"((MHHHX-2yDiDyppytppyttyytttt54twtwt5555trwtt   GGG  yyyD5x  GG       GG  an  GGGGGGGG    ppCmppapapappampppppppappyyDpCapDt4&jHHHM((",
"((bHHHX&:pymim5xyymappppppyyyyyytttwqqwqqqwqq   GGG  qqt5py  GG       GG  pp  GG          ppppppyayayppypppppy5iypppmupmpppp:$kHHHM((",
"((bHHHX&2ppy554&2355ypyppypppyyppppypyyyytttt  GGGG  yypa5p  GGGG   GGGG  yp  GG          umpyypyyyyypypppypytDmpyy3=*-5ypyy4-jHHHM((",
"((vHHHX&3yyt5&fHN>4yyypyyypyypyyyyyyyyyyyyypy  GGGG  yypiam   GGGGGGGGG   yp  GG        ypypyypyyyyypyypyyyyyyyyyt2%HHg,3yyp:$jHHHM((",
"((vHHHX&3y4&>NHHHN&2tyyyyyyyyyyypyyyyyypyyyyy  GGGG  yyym5i     GGGGG     yy  GG        yyyyyyyyyyyyyyyyyyypyyytt2>HHHHH>&5y4$jHHHM((",
"((vHHH+&=&XvHHHHHHM>2rpyyyyyyypyyyyympyyyyyyy  GGGG  m5apyy     GGGGG     m5  GG  yya55mymyyyyytyyyyyyyy5mipyyty2>HHHHHHHmO23&gHHHM((",
"((cHHHHX%1HHHHHHHHHMO25xyttymtyyyttytttyytyyt        yimyy5m             5im      yypamtytyyytytyyttymyymt5ayyt2>JHHHHHHHHH1%+HHHHb((",
"((oHHHHHvHHHHHHHHHHHb%2ttttttttttyttttttttttm        yy5ttpy             mtt      ttyytttyttttttytttttyyttttyt2$HHHHHHHHHHHHhHHHHH@((",
"(((@HHHHHHHHHHHHHHHHH>$4tyyttttttttttttttttty        yyzttyytm         r5itx      trrttttttttttttttttttttttxt3$$HHHHHHHHHHHHHHHHH@(((",
"(((.@HHHHHHHHHHHHHHHb$$4ttttrtyyttttrtttttrtyttttrtttrrtttttrtrrx55mr4rr5rqq44r4r44444r4q4444q444444r444444842$%HHHHHHHHHHHHHHHH@o(((",
"(((..@HHHHHHHHHHHHHH1$&4ttrtrt5xttttttrttttttttttttrttttttrtrttt4m5ittrrpyrrrrrrz55mrrrrrr4rq4q4r4rr4r4r4rr4r4$$OHHHHHHHHHHHHHH@@@(((",
"(((...oHHHHHHHHHHHHh$$4trrrttrtrtrrrrtrtrrrrrtrttttrrrtrtrtttrtrrryytrtrtttrrtrr4tpyrtttrttrrtrrrrtrtrrrtrtrrr2$#hHHHHHHHHHHHH@@@@(((",
"((((...@HHHHHHHHHHMO$&5ytttrrrrrrtttrrrrrtttrrrrzrrtrrrrtrrrrrrrttttrrrrrrrrrrrrttttrrrrrrrrrrrrrrrrrrtrrrrrtrr$$XHHHHHHHHHHHfo+@((((",
"(((((...@HHHHHHHHHf##4x5rrrr5zrrrrrrrrrrrrrrrrrrrrrrrrrryyx5rrrrrrrrrrrrrrrrrrrrttrrrrrrtttrrrrrrrrrrrrrrrrrrrr3&%@HHHHHHHHHfo@@(((((",
"((((((...@HHHHHHHcX$&444r44444qq4r4r4rrrrrrr4rr44rrrrrrrt55zrrqrrrrrrrrrrrrrrrrrrrqrrrrrtprrrrrrrrrrrrrrrrrrrrrr&%%HHHHHHHHho@@((((((",
"(((((((...@HHHHHH1$$344444r444444j444r444r4rr8rrrrrtrrrrrrrqrrrrrrrrrrrrrrrrrrrrrrrrrrrrm55trrrrrrrrrrrrrr4rrrrr4$#OHHHHHHfoo@(((((((",
"((((((((...fHHHHbo$#24z54ry55xrrrrrrrrrrrrrrrrrrrrr4rr42&&&&&&&%$&&&$&&$&&&&$&rrrrrrrrrr55zkqrrrrrrrrrrrrrrrrrrr3$#oHHHHHfoo@((((((((",
"(((((((((...fHHHHcO#$$&$&&&&&&&&&&&&$&&&&$&&>$&&$&&&&$$O>++++++O++++11++X++X+o&&&&&$$$$&&&&&&&&&>&$$&&$&>&$$&&$&&#oHHHHHfo@o@((((((((",
"((((((((((...fHHHHcX#$$$$$$$####$$$$$$$$$$$$$$$$##$$$$+vMMbMMMMMbMMMMbMMMMMMMbX$$$$$$$$$##$#$##$$$$$$$$$$$$$$$$$#OHHHHHfoo@((((((((((",
"((((((((((....lHHHJh1111111111111111111111111>111111111MMBNMMNNMMMMNMMMMMMBMMMo111111111111111111>1>1111111111111HHHHHlo@o@((((((((((",
"(((((((((((...ohHHHHHHHHHHHJHHHHHHHJHHHHHHHHHHJJHHHHHJcMNYTNMMMMMMMMMMMMMBTUMMhHHHHHHHHJHHHHHHHHJJJHHHHHJHHHHHHHHHHHHloo@@(((((((((((",
"((((((((((((...ohHHHHHHHHHHHHHHHHHHHHHHHHHHHHHHHHHHHHHcbKYUVMMMMMMMMMNMMNVYUVMhJHHHHHHHHHHHHHHHHHHHHHHHHHHHHHHHHHHHHho@o@((((((((((((",
"(((((((((((((....hHHHHHHHHHHHHHHHHHHHHHHHHHHHHHHHHHHHHcMMPPNMNNMNMMNMMMMMNIPMM7JHHHHHHHHHHHHHHHHHHHHHHHHHHHHHHHHHHHfoo@((((((((((((((",
"((((((((((((((....fffffffffffffffffffffffffffffffffffffMvvbvMMNMMMMMNMMMMvMvvM+fhffhffhffhffhffhfffffffffffhffhffhfoo@@((((((((((((((",
"(((((((((((((((......o.oo.oo.oo...o.o.oo.oo.oooooooooo@bMMMMMMMMMMNMMMMMMMMMMMoooooooooooooooooooo@ooo@oooo@oooooooo@o(((((((((((((((",
"((((((((((((((((.............o.o...o...o..oo.o.o.o.oooo@ffffffffhffffffffffff1oooooooooooo@ooo@oooo@@ooo@@o@oo@oo@o@@((((((((((((((((",
"(((((((((((((((((.........o.....oo...o..o.....o.o.o..oooo.oooooooo.ooooooooooooo@ooo@o@oo@ooo@oo@oooooo@oooo@oo@@o@o(((((((((((((((((",
"((((((((((((((((((o.....o.....o...o..oo.o..oo.oo.ooo.ooooooo.o.ooooooooooooooo@oooooooo@oo@ooo@oooo@@oooo@@oo@o@o@@((((((((((((((((((",
"(((((((((((((((((((((((((((((((((((((((((((((((((((((((oo.o.ooooo.o.oooooooooo(((((((((((((((((((((((((((((((((((((((((((((((((((((((",
"(((((((((((((((((((((((((((((((((((((((((((((((((((((((oooooooooooooooooooooo@((((((((((((((((((((((((((((((((((((((((((((((((((((((("
};
