/* XPM */
static char *select_card_arrow[] = {
/* columns rows colors chars-per-pixel */
"27 36 181 2 ",
"   c #000000",
".  c #000101",
"X  c #010101",
"o  c #010102",
"O  c #010202",
"+  c #020202",
"@  c #030303",
"#  c #020304",
"$  c #020404",
"%  c #020504",
"&  c #030505",
"*  c #030607",
"=  c #040505",
"-  c #050505",
";  c #040607",
":  c #040707",
">  c #050707",
",  c #040808",
"<  c #040809",
"1  c #060809",
"2  c #070909",
"3  c #050A0A",
"4  c #040B0A",
"5  c #060B0B",
"6  c #050C0C",
"7  c #070E0E",
"8  c #0A1110",
"9  c #081112",
"0  c #0C1618",
"q  c #0B1919",
"w  c #0C1A1A",
"e  c #0C1A1C",
"r  c #0D1C1D",
"t  c #0F1F21",
"y  c #0F2422",
"u  c #112223",
"i  c #112325",
"p  c #112925",
"a  c #13282A",
"s  c #142A2C",
"d  c #152B2D",
"f  c #162C2F",
"g  c #162D2F",
"h  c #152E30",
"j  c #183436",
"k  c #1B393C",
"l  c #1C3A3D",
"z  c #1D3D40",
"x  c #1D3F42",
"c  c #1E3F43",
"v  c #1F4145",
"b  c #204246",
"n  c #234445",
"m  c #204C45",
"M  c #204549",
"N  c #234A4E",
"B  c #234B4F",
"V  c #244B4F",
"C  c #22534B",
"Z  c #254D51",
"A  c #245252",
"S  c #255C53",
"D  c #255D53",
"F  c #275358",
"G  c #2F5D5A",
"H  c #2A5A5F",
"J  c #2B5C61",
"K  c #2C5E63",
"L  c #2D5F64",
"P  c #2D6065",
"I  c #2D6166",
"U  c #2E6166",
"Y  c #2B6B61",
"T  c #2E6469",
"R  c #2F6469",
"E  c #2F656A",
"W  c #2F666B",
"Q  c #3F6C64",
"!  c #30676C",
"~  c #31686D",
"^  c #31696D",
"/  c #336A6F",
"(  c #346D71",
")  c #377073",
"_  c #387275",
"`  c #3A7477",
"'  c #3A7678",
"]  c #3B7678",
"[  c #3D7979",
"{  c #3D797A",
"}  c #407F7F",
"|  c #3E8D8D",
" . c #448282",
".. c #458483",
"X. c #448583",
"o. c #448484",
"O. c #478685",
"+. c #478886",
"@. c #4D8E8C",
"#. c #4D908D",
"$. c #51938F",
"%. c #429696",
"&. c #409995",
"*. c #439897",
"=. c #439997",
"-. c #429C97",
";. c #459998",
":. c #429E98",
">. c #439E98",
",. c #449E99",
"<. c #489C9B",
"1. c #4A9D9B",
"2. c #509993",
"3. c #519B94",
"4. c #559994",
"5. c #42A099",
"6. c #43A39A",
"7. c #4CA29C",
"8. c #44AE98",
"9. c #46AA9E",
"0. c #46AA9F",
"q. c #46AB9F",
"w. c #46AC9F",
"e. c #47AC9F",
"r. c #54A59D",
"t. c #5BA49D",
"y. c #5DA49D",
"u. c #5DA89F",
"i. c #45B09B",
"p. c #46AFA0",
"a. c #47AFA0",
"s. c #4AAEA1",
"d. c #53A6A2",
"f. c #55A6A2",
"g. c #5AA7A1",
"h. c #53AEA4",
"j. c #56AEA5",
"k. c #59A9A1",
"l. c #5FA8A0",
"z. c #5FA8A1",
"x. c #59ACA6",
"c. c #47B1A1",
"v. c #48B4A3",
"b. c #49B7A4",
"n. c #49BAA5",
"m. c #49BBA6",
"M. c #4ABCA6",
"N. c #4ABDA7",
"B. c #4ABEA7",
"V. c #4BBEA7",
"C. c #4CBFA8",
"Z. c #5DB2A8",
"A. c #61A8A0",
"S. c #61B2A8",
"D. c #61B4AB",
"F. c #67B7AD",
"G. c #69B5AB",
"H. c #62BAAE",
"J. c #65BAAF",
"K. c #6AB8AD",
"L. c #6BBDB1",
"P. c #73BFB1",
"I. c #4EC0A9",
"U. c #56C1AC",
"Y. c #57C1AC",
"T. c #57C2AD",
"R. c #5AC2AE",
"E. c #5CC1AD",
"W. c #5CC3AF",
"Q. c #6FC1B4",
"!. c #6AC7B5",
"~. c #6CC7B6",
"^. c #6DC7B6",
"/. c #72C0B3",
"(. c #74C2B5",
"). c #74C7B8",
"_. c #77CABB",
"`. c #78C9BA",
"'. c #79CABB",
"]. c #7ACBBC",
"[. c #00FF00",
/* pixels */
"[.[.[.[.[.                                  [.[.[.[.[.",
"[.[.[.[.[.  p C C C C C C C C C C C C m & @ [.[.[.[.[.",
"[.[.[.[.[.  D V.B.B.B.B.B.B.B.B.B.B.B.8.4   [.[.[.[.[.",
"[.[.[.[.[.  D V.B.B.B.B.B.B.B.B.B.B.B.8.4   [.[.[.[.[.",
"[.[.[.[.[.  D V.B.B.B.B.B.B.B.B.B.B.B.8.4   [.[.[.[.[.",
"[.[.[.[.[.  D V.B.B.B.B.B.B.B.B.B.B.B.8.4   [.[.[.[.[.",
"[.[.[.[.[.  D V.B.B.B.B.B.B.B.B.B.B.B.8.4 @ [.[.[.[.[.",
"[.[.[.[.[.  S V.B.B.B.B.B.B.B.B.B.B.B.8.4   [.[.[.[.[.",
"[.[.[.[.[.  D B.B.B.B.B.B.B.B.B.B.B.B.8.4   [.[.[.[.[.",
"[.[.[.[.[.  D I.B.B.B.B.B.B.B.B.B.B.B.8.4 @ [.[.[.[.[.",
"[.[.[.[.[.  S B.B.B.B.B.B.B.B.B.B.B.B.8.4   [.[.[.[.[.",
"[.[.[.[.[.  S V.B.B.B.B.B.B.B.B.B.B.B.i.4 @ [.[.[.[.[.",
"[.[.[.[.[.  S V.B.B.B.B.B.B.B.B.B.B.B.8.4   [.[.[.[.[.",
"[.[.[.[.[.  S V.B.B.B.B.B.B.B.B.B.B.B.8.6   [.[.[.[.[.",
"[.[.[.[.[.  D V.B.B.B.B.B.B.B.B.B.B.B.8.4   [.[.[.[.[.",
"> > > * &   D V.B.B.B.B.B.B.B.B.B.B.B.8.4   @ @ @ @ > ",
"  6 w w w w Y B.B.B.B.B.B.B.B.B.B.B.B.i.u w w w w     ",
"  A %.%.%.%.0.B.B.B.B.B.B.B.B.B.B.B.B.B.*.%.%.%.| 4   ",
"  G x.;.=.0.v.B.B.B.B.B.B.B.B.B.B.B.B.n.w.w.w.h.r.8   ",
"  } ].1.,.B.B.B.B.B.B.B.B.B.B.B.B.B.B.B.B.B.B.!./.8   ",
"  n } F.J.6.w.B.B.B.B.B.B.B.B.B.B.B.B.B.B.Y.^.2.[ 3   ",
"  k ! F.L.,.w.n.B.B.B.B.B.B.B.B.B.B.B.B.V.R.).+.U 3   ",
"  k ! ! [ ].Z.| b.V.B.B.B.B.B.B.B.B.B.I.`.A.! ! U 3 > ",
"@ g l U ` k.x.j.p.p.B.B.B.B.B.V.B.B.Y.E.u.#.! N k 3 [.",
"[.[.  H ! ! 4.].7.:.B.B.B.B.V.V.V.V.!.(.( ! ! i   [.[.",
"[.[.[.e a ! ` O.S.H.6.p.B.B.V.V.T.!.3...^ Z e [.[.[.[.",
"[.[.[.> 0 U R ! G.Q.-.0.n.n.B.V.W._...! U b   [.[.[.[.",
"[.[.[.[.[.  j ! ! ' ].D.%.%.<.`.t.^ ! L *   [.[.[.[.[.",
"[.[.[.[.[.3 f c L ( A.g.d.d.f.l.@.! Z l 3 [.[.[.[.[.[.",
"[.[.[.[.[.[.[.  F ! ^ $.].].P.( ! ! u   [.[.[.[.[.[.[.",
"[.[.[.[.[.[.[.[.i a ! ` O.O. .! Z t [.[.[.[.[.[.[.[.[.",
"[.[.[.[.[.[.[.[.> 9 T W ! W ! R c # [.[.[.[.[.[.[.[.[.",
"[.[.[.[.[.[.[.[.[.[.  h ^ ! J #   [.[.[.[.[.[.[.[.[.[.",
"[.[.[.[.[.[.[.[.[.[.& f M M b 3 [.[.[.[.[.[.[.[.[.[.[.",
"[.[.[.[.[.[.[.[.[.[.[.[.      [.[.[.[.[.[.[.[.[.[.[.[.",
"[.[.[.[.[.[.[.[.[.[.[.[.[.[.[.[.[.[.[.[.[.[.[.[.[.[.[."
};
