/* XPM */
static char *select_top_btn[] = {
/* columns rows colors chars-per-pixel */
"133 57 80 1 ",
"  c #040200",
". c #2E2E2E",
"X c #3D322F",
"o c #333333",
"O c #3C3532",
"+ c #3E3937",
"@ c #3A3A3A",
"# c #462F29",
"$ c #482F2A",
"% c #43312C",
"& c #4C332C",
"* c #47382F",
"= c #4D392F",
"- c #52362C",
"; c #553A2E",
": c #5B3C2C",
"> c #413632",
", c #463931",
"< c #4A3B31",
"1 c #453C3A",
"2 c #523730",
"3 c #553A31",
"4 c #5C3E35",
"5 c #613F2F",
"6 c #5E412E",
"7 c #4A433F",
"8 c #5E4036",
"9 c #64412F",
"0 c #6B452C",
"q c #624236",
"w c #6A4632",
"e c #6F4A34",
"r c #65453B",
"t c #69463C",
"y c #6E493C",
"u c #734B32",
"i c #7A4F35",
"p c #724C3C",
"a c #794F3C",
"s c #7B5035",
"d c #7C513C",
"f c #464646",
"g c #4A4644",
"h c #4B4B4B",
"j c #504643",
"k c #544A46",
"l c #504E4E",
"z c #594E49",
"x c #5D514B",
"c c #545454",
"v c #585757",
"b c #5B5B5B",
"n c #61544D",
"m c #666565",
"M c #6A6A6A",
"N c #737373",
"B c #7B7B7B",
"V c #83563D",
"C c #86583E",
"Z c #8A5A3F",
"A c #915E3F",
"S c #955F40",
"D c #956040",
"F c #DEBC1F",
"G c #848484",
"H c #8B8B8B",
"J c #939393",
"K c #9B9B9B",
"L c #A2A2A2",
"P c #ABABAB",
"I c #B5B5B5",
"U c #BDBDBD",
"Y c #C3C3C3",
"T c #CDCDCD",
"R c #D3D3D3",
"E c #D9D9D9",
"W c #E6E6E6",
"Q c #F5F5F5",
"! c #FAFAFA",
"~ c #00FF00",
/* pixels */
"~~~~~~~~~~~~~~~~~~~~~~~~~~~~~~~~~~~~~~~~~~~~~~~~~~~~~~~~~~~~~~~~~~~~~~~~~~~~~~~~~~~~~~~~~~~~~~~~~~~~~~~~~~~~~~~~~~~~~~~~~~~~~~~~~~~~~",
"~~~~o@ooooo~~~~~~~~~~~~~~~~~~~~~~~~~~~~~~~~~~~~~~~~~~~~mGGGGGGGGGGGGGGGGGGGGGM@~~~~~~~~~~~~~~~~~~~~~~~~~~~~~~~~~~~~~~~~~@1@@@@@f@~~~~",
"~~@L!!!!!!!!!v~~~~~~~~~~~~~~~~~~~~~~~~~~~~~~~~~~~~~~~~mWWWWWWWWWWWWWWWWWWWWWWWo~~~~~~~~~~~~~~~~~~~~~~~~~~~~~~~~~~~~~~~ob!!QQ!Q!!!Lf~~",
"~oPEEEEERHBGEKGGGGGGGGGGGGGGGHGGGGGGGGGGGGGHGGGGGHGGGGNTLNBLTTTTTTTTTTTTTPNNPTcGGGGGGGHGGGGGGGGGGGGGGHGGGGGGGGGGGGHGGGNHTGBKEEEEEEPo~",
"~NYYUYYUHUUUMB!!!!!!!!!!!!!!!!!!Q!!!QQQQ!!!!!!Q!!!!!!!LPJIIHIIIIIIIIIIIIIBIPGIG!QQ!!QQQQ!!!!!!!!!!!!!!!!Q!!!!!!!!!!!!!RGHUULHUYYYUYG~",
"~mPPPPPPBLLLmBQQQQQQQQQQQQQQQQQQQQQQQQQQQQQQQQQQ!QQQQQJJBKKGLLLKLLKLLLLKLNKKBLGQQQQQQQQQQQQQQQQQQQQQQQQQQQQQQQQQQQQQQQTNNLLHBPPPPPPM~",
"~bKKKKKKKvMmKMWWWWWWWWWWWWWWWWWWEWWWWWEWWWWWWWWWWWWWWWHHMNMMHHHHHHHHHHHHHmNNmHBWWWWWWWEWWWWWWWWWWWWWWWWWWWWWWWWWWWWWWWUMHMMMKKKKKKKm~",
"~vHHHHHHHGNGHc**7=*=7==*=7*==7<<6*7X66$$7==*7=*=<<<<<*7BBMmBNBBBNBNBBBNBBNmMBBO***6==:$#7=**6,,,=7*==7<<X6==*7=7<7==*7=hHGNGHHHHHHHb~",
"~cGBBGBNooooo:00000000000000000000000000000055050000006fccccvccvcvvvcvccccvcch<0000000000000000500000000000000000000000=oooo@MGGBGGc~",
"~hNmJmBb00000ussssssssssssssssssVV0V0VVVVuVVVVVissssssu6>,,,,,************,**6ssVVV0VVVV0VVV0VVVsssssssssssssssssssssssu00006lNMGMNc~",
"~hbTTPmv0iuiiADDDDDDDDDDAAADDDADAAAASSSSAASSAASSDDDDDDAVsssssiiisssisiiisssssVDDSSAAAAAAASSSSSAAAAAAAAAADDDDDDAADDDDDDDAsiii6lMLTIbh~",
"~hmLPPhc0CZCZZCCCZZCZZZZAAAAADAAAAAAAAAAAAAAAAAAAAADAAAAAAAAAAAAAAAADAAAAAAAAAAAAAAAAAAAAAAAAAAZAAACZZZZCZADAAAAADAAADADADAAelMPPPBh~",
"~hbGKMmc5ssssdissssssdssdssassssV0VVVVVVCVAAAZAAAAZAAAVZAAZZZAZAZAAAAAAAZAAAAAAZAAZVZVVZCVVVVVVVssiasaasssissasasasVCCCCCZCZtfbMJBvh~",
"~fmh1bmf5aiaaaaassVdVddVddVVZAZZZAZZVZAAAAACAAZAAZCSAZSSAZSSAZZZAZAZZAZAAAZZZZVVVVVVVVVVVVV05V5ViiiaaiipasaaaaasisdsVsVsVsVVq7Mvfcmh~",
"~ofhhlf*9ZZZCZZCZZZZZZZZZZSVZZZZAZVACAZZZZCAZZZZZZZCCCSVZZZVZZZSZZCZZZZZZZZZZZZZZZZZZZAVZAZZZZaSZZZZZZZZZZZZCZZZAnSCZZZZZZZZ07@hhhfo~",
"~~mPPPo:wCCCCCCSCZZZCZZZZZVSZZZZVZZZVVZZVZZVZVZZCZCSCSVSZZCSZZCZZCZCCCZZCZZCZZZZVZZZVZZVVZVZVnSSCCCZZZCZZZCZZCZCZSdSCZZCZCZZ06zPPPm@~",
"~~MYTY%55VnSaSSaCZVZSSSVVVVZVVZVSdSaSpaSaSaSZVZVCCCVVVZZVVCVCVVVCCSnAVCCVVVVVCCCCCCCCCCCVVSVVSSaSdSnSaSapSSpSaSdZCCCdVSVVVVV55nTYTN~~",
"~~MYYYO:5VVaSSaSVVCV5SnVZVVVVZZVdSaSSSSSSaSyVZVaaaVVapiVaaapaaaapssdViaVVaVVVVCVVCVCCCCVVVVVVVaSaSdSaSaSSpSSpSaSVCCVSVaS5SVn55nYYYM~~",
"~~MYUU>:5ZySySadCAVVSaVVVVVdS5Vaaaaarapppi               pyuuyy        pppiu           aaVVVpaVpSySySySapSSpSpVVVVVVVVVVSSpS5:nUYUN~~",
"~~mUUU%:5VSySySaVnVdaVVVVVddSVaVVaVayyapin               aipaa           ipV            aVV5aVVSySySySdaSyySySdaVVVVVVVVSySy5:xUUIB~~",
"~~MUII>25sVdSyaaVVVVViVadddVyVVddVVVSddVSa  FFFFFFFFFFF  ddVVV   FFFF    Spn  FFFFFFF   SSnVySySdySydddSypddVddSaVVVVVVidVySu:xIIIN~~",
"~~mIII>25VadtSnSaiVVVaiVddddnsddddadydddaa  FFFFFFFFFFF  ddd    FFFFFFF   aa  FFFFFFFF    VVnaayaSnadVddnSddddddaaVniVVVddnS55zIIIN~~",
"~~mPPP$:5dadaatSaaVnaaaVddaddaddaddaaddan5      FFF      na     F   FFF   Va  FFF   FF    dadsaSadVadaaadddadaaaaVaaaaVnddV55-zPIPN~~",
"~~mPPP%-4aaatSyaaaaaaanVaaaaaaaaaaaaaaaaVV      FFF      aa   FFF   FFFF  aa  FF     FFF  aaadyyadaaaaaaaaaaaaaaaaaaaapaaaaV5:xPPPM~~",
"~~mLPPO-4V5nddaaaaySddytaaaaaaaaynsaaadaaa      FFF      Va  FF       FF  aa  FF     FFF  aaaaaSaaaaaaaaaadayapppayyyyySu5py4-rLPPM~~",
"~~mLLLO-2aSt5apaapyaainSaaaayapatSdaaydnpa      FFF      pp  FF       FF  pa  FF     FFF  ppayyyyyyyytttyyyyy5yyy5yt5rr5ypy54$kLLPM~~",
"~~mLLLX-2aaaSyapyyyy5ayyyyyyyyyyyy5Vyayppppppa  FFF  papapn  FF       FF  pp  FFF   FFFF  ppyy5ippppyyyyyy5apyyyyytypy5yyyyy42kLLLM~~",
"~~bKKKX&-S5nyyapppayyytyttttttttya5n5y5ytrqrt   FFF  yyppiV  FF       FF  Vn  FFFFFFFF    ppyySnppppaaaaytSiayapppayaaaiappp4&kLKKM~~",
"~~bKKKX&35Synynypyn5apppayyyyy5n5n55r5qrqrqqr   FFF  qqw4ty  FF       FF  pp  FF          ipppyyayapypppyayntSnyyaypn5SnppyS:-4KKKm~~",
"~~bJJKX&:ytyi5-&234Syyypyayyyy5VppV5pypyywqyt  FFFF  yypS5y  FFFF   FFFF  yp  FF          npyptSyyyyyypyyayyy5appyy31&$4yyy54$kJJKm~~",
"~~vJJJX&3yyt:$gNM125yypyyyypyyaayyyyypyypypyp  FFFF  yyynin   FFFFFFFFF   py  FF        yypyyp55yyyyyayyyyyyyypyyt2%MBg$3yni4&jJJJm~~",
"~~vJHJX&2y4&>mJJHM&2tyyyyypyyyyyypyyyyyyyyyyy  FFFF  yyy5pp     FFFFF     yy  FF        yyyyyyniyyyyyyyyyyyyyyyyt2>NJJHM>&454$jJHHm~~",
"~~vJHH+&-=XvGHHHHHM>24ni5ayyyyyyyynyyyyyyyyyy  FFFF  nyyyyy     FFFFF     5n  FF  ytyan5yyytyy5nyyyyyyyytyyyyytt3ONHHHHHBlX22$gHHHm~~",
"~~cGHHMOX1NHHHHHHHHM>25nyyyyyytytyyyyytyytyyy        nypytyp             yat      yty5anytytyyayyyyyytyyttyytyt2>NHHHHHHHHN1%+mHGHb~~",
"~~oBGHHmvBHHHGGHHGGGb%3rytttttttttttttttttttn        5npttyt             nty      ttyytttttttttytttttttttttttt2>MGGHGHHGGHGGvmHGHN@~~",
"~~~@BGGGGGGGGGGGGGGGM>$4ttttttttttttnttttttty        ni5tttttn         tn5tn      ttttrtttttttrtttttttttrttrt4&oNGGGGGGGGGGGGGGGN@~~~",
"~~~.@BGBGGGBBGBGGBGGb%$3ttrttrrttttttrtttttrytrttrttrttrttttrtrrx5y5r44455t444r4r5444444r44444444444444r44r442$OmBGBGGBGGGBGGGGM@@~~~",
"~~~..oBBBBBBBGGBGBBB1$$rttttttttttttttrrrrttttrttttrtttrtttttttt5nyptttt5attrrrrx55nttttrr4rr4r4r4r4r4r44r4rr4$$ONGBBBGBBGBGBBN@@@~~~",
"~~~...@NBBBBBBBBBBBh%$3rttrtrtrttttrrtrrtrrtrrtrtrrtrtrrtrtrrrtrrttttrtrtrttrtrry4yyytrtrtrrrtrrtrrttrrrrtrtrr2$$hBBBBBBBBBBBM@@@@~~~",
"~~~~...oNBBBBBBBBNm>$&rrrrrrrrrrttrrrrrrrrtrtttrrrrrrrrrrrrtrtrrrrttrrrrrtrtrrrrtttt5xrrrrrrrrrrrrtrrrtrrtrrrrr$$+mBBBBBBBNBNf@@@~~~~",
"~~~~~...@NNBNBNBBNf%%3rr5n4trrrrrrrrrrrrrrrrrrrrrrrrrrrry5x4rrrrrrrrrrrrrrrrrrrrttrrrrrr4z55ytrrrrrrrrrrrrrrrrr4##1NNBNNNNBNfo@o~~~~~",
"~~~~~~...@NNNNNNNcX#&44454444r4qr4rr4rrrrrrr4r4r4rrrrrrrty5trrrrrrrrrrrrrrrrrrrrrrrrrrrrrrx5ttrrrrrrrrrrrrrrrrrr&#ObNNNNNNMf@@@~~~~~~",
"~~~~~~~...1MMNNNM1$$34444444444444k44444kr4rr4rrrrrrrrrrtrz5rrqrrrrrrrrrrrrrrrrrrrrtrrrrrrrrtrrrrrrrrrrrrrr4rrrr4$#+MNNNNMfo@@~~~~~~~",
"~~~~~~~~...fMNNMbO$$24rrttk8rrrrrrrrrrrrrrrrrrrrrrrrrr42&&&$&&&&&&&&&&$$&&&$$2rrrrr4rrrrrrrrrrrrrrrrrrrrrrrrrrrr4$#omNNMMf@@@~~~~~~~~",
"~~~~~~~~~...fMNMNcO$$$&$&&&&&&&&$$2$$&&&&&&$&&&&&&&$&&$X+>++@O@1+>++@>++O@+1@O&$&$&&$$&&&&&&&&&&>&$&&&&&$&$$&&$$##ObNMNMfo@@@~~~~~~~~",
"~~~~~~~~~~...fMMMMco$$$$$$$$#%#$$$$$$$$$$$$$$$$$$$$%$$>cmmbmmmmbmmmmmmbmmmmbmbo$$$$$$$$$########$$$$$$$$$%$$%$$$#ovMMMMfo@o~~~~~~~~~~",
"~~~~~~~~~~....cMMMMl11111111111111111111111111@1111111fmmNMmmmmmmmmmmmmmmbNMmm@1111111111111111111111@11111111111lMMMMho@o@~~~~~~~~~~",
"~~~~~~~~~~~....lmMMMMMMMMMMMmMMMMMMMmMMMMMMMMMMMmMMMMMlmMPIMmMmmmmmmmMmmmNILbmfMMMMMmMMMMMMMMMMMMMMMMMMMMMMMMMMMMMMMmhoo@@~~~~~~~~~~~",
"~~~~~~~~~~~~...ohmMmMMMmMmMMMMMMMMmMMMMmMMmMmMMMmMMmMMcbGLPBMmmmmmmmmmmMmBPPBmfmMMmMmMmMMMMmMmMmMMMMmMmMmMmMMMMMmMmmfo@o@~~~~~~~~~~~~",
"~~~~~~~~~~~~~....hmmmmmMmmmmmmmmmmMmmmMmmmmMmmmmMmMmmmcmmJJMmmMmmmmmmMmmmMKJmmfmmmMmMmMMmmMmmMmMmmmmmMmmmmMMmmmmmMmho@@~~~~~~~~~~~~~~",
"~~~~~~~~~~~~~~....ffffffffffffffffffffffhhhhhhfhfhfffhfmvvmvmmmmMmmmmmmmmcmbbm@ffhfhffffffffffhhfffhfhhhffffffhffffo@o@~~~~~~~~~~~~~~",
"~~~~~~~~~~~~~~~.......ooo.oooo.ooo.ooo.o......o..o.ooo@bmbmmmMmmmmmmmmmmmmbmmmooooooooooooooooooooooooooo@o@oooo@oo@o@~~~~~~~~~~~~~~~",
"~~~~~~~~~~~~~~~~.............o.oo....o....oo.ooo.o.o.oo@fffffffffffffffffffff@@oo@oooooo@ooo@oooooooo@oooo@ooo@oo@@o@~~~~~~~~~~~~~~~~",
"~~~~~~~~~~~~~~~~~.........o.......oo...oo...o..oo.o..oooo.ooooooooooooooooooooooooooo@o@ooo@ooo@o@o@ooo@@oo@@oo@ooo@~~~~~~~~~~~~~~~~~",
"~~~~~~~~~~~~~~~~~~o.....o.....o..ooooo.oo..o..oo.ooo.ooooooo.oo.o.o.ooo.ooooooooooooo@oo@ooo@oooo@ooo@oo@oo@o@o@@o@~~~~~~~~~~~~~~~~~~",
"~~~~~~~~~~~~~~~~~~~~~~~~~~~~~~~~~~~~~~~~~~~~~~~~~~~~~~~oo.o.ooooooooooooooooo@~~~~~~~~~~~~~~~~~~~~~~~~~~~~~~~~~~~~~~~~~~~~~~~~~~~~~~~",
"~~~~~~~~~~~~~~~~~~~~~~~~~~~~~~~~~~~~~~~~~~~~~~~~~~~~~~~oooooooooooooooo@oooooo~~~~~~~~~~~~~~~~~~~~~~~~~~~~~~~~~~~~~~~~~~~~~~~~~~~~~~~"
};
