/* XPM */
static char *select_card_arrow_inv[] = {
/* columns rows colors chars-per-pixel */
"28 36 95 2 ",
"   c #010303",
".  c #050A0B",
"X  c #080F10",
"o  c #0A1414",
"O  c #0A1916",
"+  c #0D1A1B",
"@  c #0F1E20",
"#  c #0F2022",
"$  c #102325",
"%  c #132628",
"&  c #152B2C",
"*  c #162F31",
"=  c #193436",
"-  c #173A33",
";  c #183D36",
":  c #193639",
">  c #1C3B3C",
",  c #233D39",
"<  c #1A443C",
"1  c #1C483F",
"2  c #1C3D40",
"3  c #1E4343",
"4  c #1E4B43",
"5  c #204347",
"6  c #204E46",
"7  c #21464A",
"8  c #254A4B",
"9  c #244D51",
"0  c #275357",
"q  c #255C52",
"w  c #295659",
"e  c #2A5A5E",
"r  c #365B54",
"t  c #2C5F63",
"y  c #2E6267",
"u  c #2F6469",
"i  c #2F6A6A",
"p  c #30676C",
"a  c #32696E",
"s  c #3B6F6E",
"d  c #346D71",
"f  c #377275",
"g  c #397274",
"h  c #3C7779",
"j  c #3D7A7B",
"k  c #3A8484",
"l  c #3E8D8D",
"z  c #3B9583",
"x  c #3C9987",
"c  c #3F968F",
"v  c #3D9C8A",
"b  c #458584",
"n  c #468985",
"m  c #488987",
"M  c #4B8C89",
"N  c #4E918E",
"B  c #409191",
"V  c #449997",
"C  c #459C99",
"Z  c #4C9F9D",
"A  c #529591",
"S  c #559C96",
"D  c #5D9F94",
"F  c #579D98",
"G  c #45A39B",
"H  c #4CA69E",
"J  c #46AB9D",
"K  c #55A09A",
"L  c #5BA49D",
"P  c #53A89F",
"I  c #46B39D",
"U  c #47AEA0",
"Y  c #4EADA2",
"T  c #52A5A1",
"R  c #53ACA3",
"E  c #5CABA3",
"W  c #47B5A0",
"Q  c #48B3A2",
"!  c #4ABEA7",
"~  c #4CBFA8",
"^  c #5DB3A5",
"/  c #5FB4AA",
"(  c #65AFA6",
")  c #64B4AA",
"_  c #68B6AB",
"`  c #65BAAE",
"'  c #6ABAAE",
"]  c #68BBB0",
"[  c #52C0AA",
"{  c #5BC2AE",
"}  c #62C4B1",
"|  c #6CC4B4",
" . c #73C3B5",
".. c #76C7BA",
"X. c #00FF00",
/* pixels */
"X.X.X.X.X.X.X.X.X.X.X.X.X.X.X.X.X.X.X.X.X.X.X.X.X.X.X.X.",
"X.X.X.X.X.X.X.X.X.X.X.X.X.. . . X.X.X.X.X.X.X.X.X.X.X.X.",
"X.X.X.X.X.X.X.X.X.X.X.. & 7 7 > + X.X.X.X.X.X.X.X.X.X.X.",
"X.X.X.X.X.X.X.X.X.X.X.. : y p 9 $ . X.X.X.X.X.X.X.X.X.X.",
"X.X.X.X.X.X.X.X.X.. $ 9 p a a p u 2 X X.X.X.X.X.X.X.X.X.",
"X.X.X.X.X.X.X.X.X.@ 2 t h M M b d 9 * @ X.X.X.X.X.X.X.X.",
"X.X.X.X.X.X.X.X.o 7 p d A  ...( n d t * . X.X.X.X.X.X.X.",
"X.X.X.X.X.X.X.& 2 t j F E T T T E M a 0 > @ X.X.X.X.X.X.",
"X.X.X.X.X.X.. = y d n _ R G c Y ] L h d 9 $ X X.X.X.X.X.",
"X.X.X.X.  # 0 u h L | [ ! ! ! Q J R ] N a p 5 o X.X.X.X.",
"X.X.X.X.@ : e h N ^ } [ ! ! [ W J R / F n f 9 & @ X.X.X.",
"X.X.X.o 3 i d A | { ! ! ! ! [ ! ! U G ) ( m d y : . X.X.",
"X.X.% 5 w j S ^ { [ ! ! ! ! ! ! ! ! U Y R E M d 0 > @ X.",
"X.  * y a m _ } ! ! ! ! ! ! ! ! ! ! ! U T ` E j g 0 @   ",
"X.  = g L | [ [ ! ! ! ! ! ! ! ! ! ! ! ! Q J R ' A w $   ",
"X.. > n E } [ ! ! ! ! ! [ ! ! ! ! ! ! ! Q J Y ) L s &   ",
"X.. r | { ! ! ! ! ! ! ! ! ! ! ! ! ! ! ! ! ! J C ^ D ,   ",
"X.. 8 T Y J J I ! ! ! ! ! ! ! ! ! ! ! ! ! U C V Z n =   ",
"X.  2 l B B c G ! ! ! ! ! ! ! ! ! ! ! ! Q c k k k i %   ",
"X.  . O + + @ q I ! ! ! ! ! ! ! ! ! ! ! v 3 O O O o .   ",
"X..         . 4 I ! ! ! ! ! ! ! ! ! ! ! x -       .   X.",
"X.X.X.X.X.X.  4 I ! ! ! ! ! ! ! ! ! ! ! x -   X.X.X.X.X.",
"X.X.X.X.X.X.. 1 I ! ! ! ! ! ! ! ! ! ! ! x -   X.X.X.X.X.",
"X.X.X.X.X.X.. 4 I ! ! ! ! ! ! ! ! ! ! ! x -   X.X.X.X.X.",
"X.X.X.X.X.X.. 1 I ! ! ! ! ! ! ! ! ! ! ! x -   X.X.X.X.X.",
"X.X.X.X.X.X.  1 I ! ! ! ! ! ! ! ! ! ! ! x -   X.X.X.X.X.",
"X.X.X.X.X.X.. < I ! ! ! ! ! ! ! ! ! ! ! x ;   X.X.X.X.X.",
"X.X.X.X.X.X.  < I ! ! ! ! ! ! ! ! ! ! ! v ;   X.X.X.X.X.",
"X.X.X.X.X.X.. < I ! ! ! ! ! ! ! ! ! ! ! v ;   X.X.X.X.X.",
"X.X.X.X.X.X.  < I ! [ ! [ ! ! ! ! ! ! ! v ;   X.X.X.X.X.",
"X.X.X.X.X.X.. < I ! ! ! ! ! ! ! ! ! ! ! v ;   X.X.X.X.X.",
"X.X.X.X.X.X.  < I ! ! ! ! ! ! ! ! [ ! ! v ;   X.X.X.X.X.",
"X.X.X.X.X.X.  < I ! ! ! ! [ ! ! ! ! ! ! v ;   X.X.X.X.X.",
"X.X.X.X.X.X.  < J W W I I W I I I J I I z -   X.X.X.X.X.",
"X.X.X.X.X.X.  O 1 6 6 4 4 4 4 4 4 4 4 4 ; o   X.X.X.X.X.",
"X.X.X.X.X.X.                                  X.X.X.X.X."
};
