/* XPM */
static char *slider[] = {
/* columns rows colors chars-per-pixel */
"21 21 40 1 ",
"  c #C7C7C7",
". c #C8C8C8",
"X c #C6C6C6",
"o c #C1C1C1",
"O c #979797",
"+ c #9C9C9C",
"@ c #9B9B9B",
"# c #A4A4A4",
"$ c #C0C0C0",
"% c #9D9D9D",
"& c #B8B8B8",
"* c #ADADAD",
"= c #AEAEAE",
"- c #AFAFAF",
"; c #EBEBEB",
": c #9F9F9F",
"> c #888888",
", c #595959",
"< c #5A5A5A",
"1 c #868686",
"2 c #C9C9C9",
"3 c #EEEEEE",
"4 c #858585",
"5 c #545454",
"6 c #555555",
"7 c #BFBFBF",
"8 c #868586",
"9 c #9E9E9E",
"0 c #858485",
"q c #ACACAC",
"w c #9A9A9A",
"e c #EDEDED",
"r c #AAAAAA",
"t c #E8E8E8",
"y c #E9E9E9",
"u c #F3F3F3",
"i c #C5C5C5",
"p c #CCCCCC",
"a c #CECECE",
"s c #CDCDCD",
/* pixels */
"                     ",
" .          XXXXXXX  ",
" oO+++@@@@@@@@@@@@#  ",
" $%&**=--------XX ;  ",
" $:>,,<<<<<<<<<<123  ",
" $:455666666666<123  ",
" $:1556666666666123  ",
" $:155666666666<123  ",
" 7:856666666666<123  ",
" 79866666666666<123  ",
" 79866666666666<123  ",
" 79866666666666<123  ",
" 79866666666666<123  ",
" 79866666666666<123  ",
" 79866666666666<123  ",
" 79866666666666<123  ",
" 7905555555566<<123  ",
" 7%qwwwwwwwwwwwwX.e  ",
" 7rttttttttttttttyu  ",
"  ipaaaaaaaaaaaaass  ",
"    ..           ..  "
};
