/* XPM */
static char *mouse[] = {
/* columns rows colors chars-per-pixel */
"64 64 3 1 ",
"  c #00ff00",
". c #000000",
"X c #ffffff",
/* pixels */
"                                                                ",
"                                                                ",
"                                                                ",
"                                                                ",
"                                                                ",
"                                                                ",
"                                                                ",
"                                                                ",
"                                                                ",
"                                                                ",
"                                                                ",
"                                                                ",
"                                                                ",
"                  ..                                            ",
"                  ...                                           ",
"                  ....                                          ",
"                  .....                                         ",
"                  ..X...                                        ",
"                  ..XX...                                       ",
"                  ..XXX...                                      ",
"                  ..XXXX...                                     ",
"                  ..XXXXX...                                    ",
"                  ..XXXXXX...                                   ",
"                  ..XXXXXXX...                                  ",
"                  ..XXXXXXXX...                                 ",
"                  ..XXXXXXXXX...                                ",
"                  ..XXXXXXXXXX...                               ",
"                  ..XXXXXXXXXXX...                              ",
"                  ..XXXXXXXXXXXX...                             ",
"                  ..XXXXXXXXXXXXX...                            ",
"                  ..XXXXXXXXXXXXXX...                           ",
"                  ..XXXXXXXXXXXXXXX...                          ",
"                  ..XXXXXXXXXXXXXXXX...                         ",
"                  ..XXXXXXXXXXXXXXXXX...                        ",
"                  ..XXXXXXXXXXXXXXXXXX...                       ",
"                  ..XXXXXXXXXXXXXXXXXXX...                      ",
"                  ..XXXXXXXXXXXXXXXXXXXX...                     ",
"                  ..XXXXXXXXXXXXXXXXXXXXX...                    ",
"                  ..XXXXXXXXXXXXXXXXXXXXXX...                   ",
"                  ..XXXXXXXX..................                  ",
"                  ..XXXXXXX...................                  ",
"                  ..XXXXXX...                                   ",
"                  ..XXXXX...                                    ",
"                  ..XXXX...                                     ",
"                  ..XXX...                                      ",
"                  ..XX...                                       ",
"                  ..X...                                        ",
"                  .....                                         ",
"                  ....                                          ",
"                  ...                                           ",
"                  ..                                            ",
"                                                                ",
"                                                                ",
"                                                                ",
"                                                                ",
"                                                                ",
"                                                                ",
"                                                                ",
"                                                                ",
"                                                                ",
"                                                                ",
"                                                                ",
"                                                                ",
"                                                                "
};
