/* XPM */
static char *mouse_click[] = {
/* columns rows colors chars-per-pixel */
"64 64 3 1 ",
"  c #00FF00",
". c #000000",
"X c #FFFFFF",
/* pixels */
"                                                                ",
"                                                                ",
"                                                                ",
"                                                                ",
"                                                                ",
"                                                                ",
"                                                                ",
"                                                                ",
"                                                                ",
"                                                                ",
"                                                                ",
"                          ....                                  ",
"                          ....                                  ",
"                        ..XXXX..                                ",
"                        ..XXXX..                                ",
"                        ..XXXX..                                ",
"                        ..XXXX..                                ",
"                        ..XXXX..                                ",
"                        ..XXXX..                                ",
"                        ..XXXX..                                ",
"                        ..XXXX..                                ",
"                        ..XXXX..                                ",
"                        ..XXXX..                                ",
"                        ..XXXX..                                ",
"                        ..XXXX.....                             ",
"                        ..XXXX.....                             ",
"                        ..XXXX..XXX.....                        ",
"                        ..XXXX..XXX.....                        ",
"                        ..XXXX..XXX..XXX....                    ",
"                        ..XXXX..XXX..XXX....                    ",
"                ......  ..XXXX..XXX..XXX..XX..                  ",
"                ......  ..XXXX..XXX..XXX..XX..                  ",
"                ..XXXX....XXXX..XXX..XXX..XXXX..                ",
"                ..XXXX....XXXXXXXXXXXXXX..XXXX..                ",
"                ..XXXXXX..XXXXXXXXXXXXXXXXXXXX..                ",
"                ..XXXXXX..XXXXXXXXXXXXXXXXXXXX..                ",
"                  ..XXXX..XXXXXXXXXXXXXXXXXXXX..                ",
"                  ..XXXX..XXXXXXXXXXXXXXXXXXXX..                ",
"                    ..XXXXXXXXXXXXXXXXXXXXXXXX..                ",
"                    ..XXXXXXXXXXXXXXXXXXXXXXXX..                ",
"                    ..XXXXXXXXXXXXXXXXXXXXXXXX..                ",
"                      ..XXXXXXXXXXXXXXXXXXXXXX..                ",
"                      ..XXXXXXXXXXXXXXXXXXXXXX..                ",
"                      ..XXXXXXXXXXXXXXXXXXXX....                ",
"                      ..XXXXXXXXXXXXXXXXXXXX....                ",
"                        ..XXXXXXXXXXXXXXXXXX..                  ",
"                        ..XXXXXXXXXXXXXXXXXX..                  ",
"                        ..XXXXXXXXXXXXXXXXXX..                  ",
"                        ..XXXXXXXXXXXXXXXXXX..                  ",
"                          ..XXXXXXXXXXXXXX..                    ",
"                          ..XXXXXXXXXXXXXX..                    ",
"                          ..XXXXXXXXXXXXXX..                    ",
"                          ..................                    ",
"                          ..................                    ",
"                                                                ",
"                                                                ",
"                                                                ",
"                                                                ",
"                                                                ",
"                                                                ",
"                                                                ",
"                                                                ",
"                                                                ",
"                                                                "
};
