/* XPM */
static char *mouse_grab[] = {
/* columns rows colors chars-per-pixel */
"64 64 3 1 ",
"  c #00ff00",
". c #000000",
"X c #ffffff",
/* pixels */
"                                                                ",
"                                                                ",
"                                                                ",
"                                                                ",
"                                                                ",
"                                                                ",
"                                                                ",
"                                                                ",
"                                                                ",
"                                                                ",
"                                                                ",
"                                                                ",
"                                                                ",
"                                                                ",
"                                                                ",
"                                                                ",
"                                                                ",
"                            .....                               ",
"                         ........                               ",
"                         .....XXX.....                          ",
"                       ..XXX..XXX.....                          ",
"                       ..XXX..XXX..XXX....                      ",
"                       ..XXX..XXX..XXX....                      ",
"                       ..XXX..XXX..XXX..XX..                    ",
"                       ..XXX..XXX..XXX..XX..                    ",
"                       ..XXX..XXX..XXX..XXXX..                  ",
"                 ........XXXXXXXXXXXXX..XXXX..                  ",
"                 ........XXXXXXXXXXXXXXXXXXX..                  ",
"                 ..XX....XXXXXXXXXXXXXXXXXXX..                  ",
"                 ..XXXX..XXXXXXXXXXXXXXXXXXX..                  ",
"                 ..XXXX..XXXXXXXXXXXXXXXXXXX..                  ",
"                  ..XXXXXXXXXXXXXXXXXXXXXXXX..                  ",
"                  ..XXXXXXXXXXXXXXXXXXXXXXXX..                  ",
"                  ..XXXXXXXXXXXXXXXXXXXXXXXX..                  ",
"                    ..XXXXXXXXXXXXXXXXXXXXXX..                  ",
"                    ..XXXXXXXXXXXXXXXXXXXXXX..                  ",
"                    ..XXXXXXXXXXXXXXXXXXXX....                  ",
"                    ..XXXXXXXXXXXXXXXXXXXX....                  ",
"                      ..XXXXXXXXXXXXXXXXXX..                    ",
"                      ..XXXXXXXXXXXXXXXXXX..                    ",
"                      ..XXXXXXXXXXXXXXXXXX..                    ",
"                      ..XXXXXXXXXXXXXXXXXX..                    ",
"                        ..XXXXXXXXXXXXXX..                      ",
"                        ..XXXXXXXXXXXXXX..                      ",
"                        ..XXXXXXXXXXXXXX..                      ",
"                        ..................                      ",
"                        ..................                      ",
"                                                                ",
"                                                                ",
"                                                                ",
"                                                                ",
"                                                                ",
"                                                                ",
"                                                                ",
"                                                                ",
"                                                                ",
"                                                                ",
"                                                                ",
"                                                                ",
"                                                                ",
"                                                                ",
"                                                                ",
"                                                                ",
"                                                                "
};
