/* XPM */
static char *mouse_hand[] = {
/* columns rows colors chars-per-pixel */
"64 64 3 1 ",
"  c #00ff00",
". c #000000",
"X c #ffffff",
/* pixels */
"                                                                ",
"                                                                ",
"                                                                ",
"                                                                ",
"                                                                ",
"                                                                ",
"                                                                ",
"                                                                ",
"                                                                ",
"                                                                ",
"                                ...                             ",
"                              .......                           ",
"                              ..XXX.....                        ",
"                           .....XXX.......                      ",
"                           .....XXX..XXX..                      ",
"                         ..XXX..XXX..XXX..                      ",
"                         ..XXX..XXX..XXX..                      ",
"                         ..XXX..XXX..XXX..                      ",
"                         ..XXX..XXX..XXX.....                   ",
"                         ..XXX..XXX..XXX.....                   ",
"                         ..XXX..XXX..XXX..XXX..                 ",
"                         ..XXX..XXX..XXX..XXX..                 ",
"                         ..XXX..XXX..XXX..XXX..                 ",
"                         ..XXX..XXX..XXX..XXX..                 ",
"                         ..XXX..XXX..XXX..XXX..                 ",
"                         ..XXX..XXX..XXX..XXX..                 ",
"                         ..XXX..XXX..XXX..XXX..                 ",
"                         ..XXX..XXX..XXX..XXX..                 ",
"                         ..XXX..XXX..XXX..XXX..                 ",
"                         ..XXX..XXX..XXX..XXX..                 ",
"                ......   ..XXXXXXXXXXXXXXXXXX..                 ",
"                ......   ..XXXXXXXXXXXXXXXXXX..                 ",
"                ..XXXX.. ..XXXXXXXXXXXXXXXXXX..                 ",
"                ..XXXX.. ..XXXXXXXXXXXXXXXXXX..                 ",
"                ..XXXXXX...XXXXXXXXXXXXXXXXXX..                 ",
"                ..XXXXXX...XXXXXXXXXXXXXXXXXX..                 ",
"                  ..XXXXX..XXXXXXXXXXXXXXXXXX..                 ",
"                  ..XXXXX..XXXXXXXXXXXXXXXXXX..                 ",
"                    ..XXXXXXXXXXXXXXXXXXXXXXX..                 ",
"                    ..XXXXXXXXXXXXXXXXXXXXXXX..                 ",
"                    ..XXXXXXXXXXXXXXXXXXXXXXX..                 ",
"                      ..XXXXXXXXXXXXXXXXXXXXX..                 ",
"                      ..XXXXXXXXXXXXXXXXXXXXX..                 ",
"                      ..XXXXXXXXXXXXXXXXXXX....                 ",
"                      ..XXXXXXXXXXXXXXXXXXX....                 ",
"                        ..XXXXXXXXXXXXXXXXX..                   ",
"                        ..XXXXXXXXXXXXXXXXX..                   ",
"                        ..XXXXXXXXXXXXXXXXX..                   ",
"                        ..XXXXXXXXXXXXXXXXX..                   ",
"                          ..XXXXXXXXXXXXX..                     ",
"                          ..XXXXXXXXXXXXX..                     ",
"                          ..XXXXXXXXXXXXX..                     ",
"                          .................                     ",
"                          .................                     ",
"                                                                ",
"                                                                ",
"                                                                ",
"                                                                ",
"                                                                ",
"                                                                ",
"                                                                ",
"                                                                ",
"                                                                ",
"                                                                "
};
