/* XPM */
static char *back_2[] = {
/* columns rows colors chars-per-pixel */
"74 104 183 2 ",
"   c None",
".  c #1F002C",
"X  c #20012D",
"o  c #21012D",
"O  c #21012E",
"+  c #22032F",
"@  c #23032F",
"#  c #250632",
"$  c #270833",
"%  c #30133B",
"&  c #482E50",
"*  c #4B3152",
"=  c #583F5D",
"-  c #59405D",
";  c #59415E",
":  c #9B0A3F",
">  c #9C0C40",
",  c #9C0D41",
"<  c #9D0D41",
"1  c #9D0F42",
"2  c #9D0F43",
"3  c #9E0F43",
"4  c #9E1144",
"5  c #9F1345",
"6  c #A01546",
"7  c #A01647",
"8  c #A11748",
"9  c #A11849",
"0  c #A11949",
"q  c #A21A4A",
"w  c #A21B4B",
"e  c #A31F4E",
"r  c #A4204E",
"t  c #A4204F",
"y  c #A4214F",
"u  c #A52250",
"i  c #A72854",
"p  c #AD375F",
"a  c #AE3960",
"s  c #AF3B62",
"d  c #AF3C62",
"f  c #AF3D63",
"g  c #B03E64",
"h  c #B03F65",
"j  c #B04065",
"k  c #B14166",
"l  c #B14267",
"z  c #B4496B",
"x  c #B44A6C",
"c  c #B54B6D",
"v  c #B54C6D",
"b  c #B54C6E",
"n  c #B54D6E",
"m  c #B54D6F",
"M  c #B64D6F",
"N  c #B64E6F",
"B  c #B64F70",
"V  c #B75071",
"C  c #B75171",
"Z  c #B85272",
"A  c #B85372",
"S  c #BD607C",
"D  c #BD617C",
"F  c #BE627D",
"G  c #BE637E",
"H  c #BE647E",
"J  c #BE647F",
"K  c #BF657F",
"L  c #816E80",
"P  c #BF6580",
"I  c #BF6680",
"U  c #C06781",
"Y  c #C06882",
"T  c #C16B83",
"R  c #C16B84",
"E  c #C26D85",
"W  c #C36F86",
"Q  c #C37087",
"!  c #C47188",
"~  c #C47289",
"^  c #C47389",
"/  c #C5748A",
"(  c #C5758B",
")  c #C5768B",
"_  c #C6778C",
"`  c #C6788D",
"'  c #C7798E",
"]  c #C87D90",
"[  c #9B8B96",
"{  c #D0909E",
"}  c #D194A1",
"|  c #D297A3",
" . c #D398A4",
".. c #D49BA6",
"X. c #D49CA6",
"o. c #D49CA7",
"O. c #D59DA7",
"+. c #D69FA9",
"@. c #D6A0A9",
"#. c #D6A1AA",
"$. c #D7A4AC",
"%. c #D8A5AD",
"&. c #D8A6AD",
"*. c #D8A6AE",
"=. c #D9A9AF",
"-. c #C2B8B7",
";. c #C4BAB9",
":. c #C6BCBB",
">. c #E0BCBD",
",. c #E1BDBE",
"<. c #E1BEBE",
"1. c #E1BEBF",
"2. c #E2BFBF",
"3. c #E2BFC0",
"4. c #D5CDC7",
"5. c #E2C0C0",
"6. c #E2C1C0",
"7. c #E3C1C1",
"8. c #E3C2C1",
"9. c #E3C3C2",
"0. c #E4C3C2",
"q. c #E4C4C2",
"w. c #E4C4C3",
"e. c #E4C5C3",
"r. c #E4C5C4",
"t. c #E5C6C4",
"y. c #E5C7C5",
"u. c #E5C8C6",
"i. c #E6C9C6",
"p. c #E7CBC8",
"a. c #E7CCC8",
"s. c #E7CCC9",
"d. c #E7CDC9",
"f. c #E7CEC9",
"g. c #E7CECA",
"h. c #E8CECA",
"j. c #E8CFCA",
"k. c #E8CFCB",
"l. c #E8D0CB",
"z. c #E9D0CB",
"x. c #E9D0CC",
"c. c #E9D1CC",
"v. c #E9D2CC",
"b. c #E9D2CD",
"n. c #E9D3CD",
"m. c #EAD4CE",
"M. c #EBD7D0",
"N. c #EFEBDE",
"B. c #F1E6DB",
"V. c #F1E7DC",
"C. c #F2EADD",
"Z. c #F3EADE",
"A. c #F3EBDE",
"S. c #F4EEE0",
"D. c #F4EEE1",
"F. c #F4EFE1",
"G. c #F5F1E2",
"H. c #F5F2E3",
"J. c #F6F2E3",
"K. c #F6F2E4",
"L. c #F6F3E4",
"P. c #F6F4E5",
"I. c #F7F5E5",
"U. c #F7F6E6",
"Y. c #F7F7E7",
"T. c #F8F7E7",
"R. c #F8F8E8",
"E. c #F8F9E8",
"W. c #FBF9E9",
"Q. c #F9FAE9",
"!. c #F9FBE9",
"~. c #F9FBEA",
"^. c #FBFBEA",
"/. c #F9FCEA",
"(. c #FAFCEA",
"). c #FBFCEA",
"_. c #FAFDEB",
"`. c #FCFCEA",
"'. c #FAFEEC",
"]. c #FBFFEC",
"[. c #FEFEEC",
"{. c #FFFEEC",
"}. c #FCFFEF",
/* pixels */
"    $ # @ @ @ @ @ @ @ @ @ @ @ @ @ @ @ @ @ @ @ @ @ @ @ @ @ @ @ @ @ @ @ @ @ @ @ @ @ @ @ @ @ @ @ @ @ @ @ @ @ @ @ @ @ @ @ @ @ @ @ @ @ @ @ @ @ @ # $     ",
"    @ % * ; ; ; = = = = = = = = ; ; = = = = = = = = = = = = = = = = = = = = = = ; ; = = = = = = = = = = = = = = = = = = = = = = ; ; = ; ; * % @     ",
"$ @ . & [ :.;.-.-.-.-.-.-.-.-.-.-.-.-.-.-.-.-.-.-.-.-.-.-.-.-.-.-.-.-.-.-.-.-.-.-.-.-.-.-.-.-.-.-.-.-.-.-.-.-.-.-.-.-.-.-.-.-.-.-.-.-.;.:.[ & . @ $ ",
"# % & L 4.[.[.`.`.`.`.`.`.`.`.`.`.`.`.`.`.`.`.`.`.`.`.`.`.`.`.`.`.`.`.`.`.`.`.`.`.`.`.`.`.`.`.`.`.`.`.`.`.`.`.`.`.`.`.`.`.`.`.`.`.`.`.[.[.4.L & % # ",
"@ * [ 4.N.W.W.).).).).).W.W.W.W.).).).).).).).).W.W.).).).).).).).).).).W.W.W.W.).).).).).).W.).W.W.).).).).).).).).).).W.W.W.W.).).).W.W.N.4.[ * @ ",
"@ ; :.[.W.B.p.<.<.<.<.<.<.<.<.<.<.<.<.<.<.<.<.<.<.<.<.<.<.<.<.<.<.<.<.<.<.<.<.<.<.<.<.<.<.<.<.<.<.<.<.<.<.<.<.<.<.<.<.<.<.<.<.<.<.<.<.p.B.W.[.:.; @ ",
"@ ; ;.[.W.p._ c n B V V B B B B B B B B B B B B B B B B B B B B B B V V B B B B B B B B B B B B B B B B B B B B B B V V B B B B B n c _ p.W.[.;.; @ ",
"@ = -.`.W.<.c 4 4 7 8 8 8 7 7 7 8 8 8 7 7 7 7 7 7 7 7 7 7 7 7 8 7 7 8 8 8 7 7 7 8 8 8 7 7 7 8 8 7 7 7 7 7 7 7 8 7 7 8 8 8 7 7 7 7 4 4 c <.).`.-.= @ ",
"@ ; -.`.).<.n 4 5 9 9 9 9 9 9 9 9 9 9 9 9 9 9 9 9 9 9 9 9 9 9 9 9 9 9 9 9 9 9 9 9 9 9 9 9 9 9 9 9 9 9 9 9 9 9 9 9 9 9 9 9 9 9 9 9 5 4 n <.).`.-.= @ ",
"@ ; -.`.).<.B 8 9 9 9 9 9 9 9 9 9 9 9 9 9 9 9 9 9 9 9 9 9 9 9 9 9 9 9 9 9 9 9 9 9 9 9 9 9 9 9 9 9 9 9 9 9 8 9 9 9 9 9 9 9 9 9 9 9 9 7 B <.).`.-.= @ ",
"@ ; -.`.).<.B 8 9 9 9 9 8 8 8 8 7 7 7 7 7 7 7 7 7 7 7 7 7 8 7 7 7 7 7 7 7 7 7 7 7 7 7 7 7 7 7 7 7 7 7 7 7 7 7 7 8 8 7 7 7 8 9 9 9 9 7 B <.).`.-.= @ ",
"@ = -.`.).<.B 7 9 9 9 i l V A A A V A A V A A A A A A A A A V V A A A A V V V V A A A A V V V V A A A A A V V A A A A A V l i 9 9 9 7 B <.).`.-.= @ ",
"@ = -.`.).<.B 7 9 9 8 l | w.r.w.w.w.w.w.w.w.w.w.w.w.w.w.w.w.w.w.w.w.w.w.w.w.w.w.w.w.w.w.w.w.w.w.w.w.w.w.w.w.w.w.w.w.w.w.w.| l 9 9 9 8 B <.W.`.-.= @ ",
"@ = -.`.).<.B 7 9 9 7 V w.G.m.9.9.9.9.9.9.9.9.9.9.9.9.9.9.9.9.9.9.9.9.9.9.9.9.9.9.9.9.9.9.9.9.9.9.9.9.9.9.9.9.9.9.9.9.m.G.w.V 8 9 9 8 B <.W.`.-.= @ ",
"@ = -.`.).<.B 7 9 9 7 A r.m.] B V V n n n B V V n n n n n n V V B n n n n n n n n n V V B n n n n n V V B n n n V V B ] m.r.A 8 9 9 7 B <.W.`.-.= @ ",
"@ = -.`.).<.B 7 9 9 7 A w.9.B 2 2 y g B n f e e g n n c c f e y g n n c c c c c n g y e f c c n n g y e f n B g y 2 2 B 9.w.A 8 9 9 7 B <.W.`.-.= @ ",
"@ = -.`.W.<.B 7 9 9 7 A w.9.V 2 2 f | r.9.{ p s | w.<.<.9.{ p s | q.<.>.<.<.<.9.q.| s p { 9.<.<.0.| s p { 0.r.| f 2 2 V 9.w.A 7 9 9 7 B <.).`.-.; @ ",
"@ = -.`.W.<.B 7 9 9 7 A w.9.V y f R %.m.L.v._ P #.v.F.'.'.s.) P #.v.F.).W.W.).F.v.#.P ) s.'.'.F.v.#.P _ v.L.m.%.R f y V 9.w.A 7 9 9 7 B <.).`.-.; @ ",
"@ = -.`.).<.B 7 9 9 7 A w.9.n g | %.U ) v.L.v.+.H ) z.'.W.C.j.#.H ) j.'.W.W.'.z.) H #.j.C.W.'.z.) H #.v.L.v.) U %.| g n 9.w.A 7 9 9 7 B <.).`.-.= @ ",
"@ = -.`.).<.B 7 9 9 7 A w.9.n B r.m.) S X.z.G.z.^ S X.s.C.W.).s.^ S X.s.C.C.s.X.S ! s.).W.C.s.X.S ^ z.G.z.X.S ) m.r.B n 9.w.A 7 9 9 7 B <.).`.-.= @ ",
"@ = -.`.).<.B 7 9 9 7 V w.9.n n 0.L.v.X.S ^ z.G.z.X.S ^ s.).W.C.s.X.S ) v.v.) S X.s.C.W.).s.^ S X.z.G.z.^ S X.v.L.w.n n 9.w.V 7 9 9 8 B <.).`.-.= @ ",
"@ = -.`.).<.B 7 9 9 7 A w.9.n s { v.L.z.^ S X.z.G.z.^ S X.s.C.W.).s.! S #.#.S ! s.).W.C.s.X.S ^ z.G.z.X.S ^ z.L.v.{ f B 9.w.V 7 9 9 7 B <.).`.-.= @ ",
"@ = -.`.).<.B 7 9 9 7 A w.9.V e p _ v.G.z.X.S ^ z.G.v.X.S ! s.).W.C.s.X.S S X.s.C.W.).s.^ S X.z.G.z.^ S X.z.G.v._ p e V 9.w.V 7 9 9 7 B <.).`.-.= @ ",
"@ = -.`.).<.B 8 9 9 7 A w.9.V e s P +.z.G.z.^ S X.v.G.v.^ S X.s.C.W.).p.Q Q s.).W.C.s.X.S ^ z.G.z.X.S ^ z.G.z.#.P s y V 9.w.V 7 9 9 7 B <.).`.-.= @ ",
"@ = -.`.).<.B 7 9 9 8 A w.9.n g | #.H ^ z.G.z.X.S ^ z.G.v.X.S ^ s.).W.V.u.u.V.W.).s.^ S X.z.G.z.^ S X.z.G.z.^ H #.| g n 9.w.V 7 9 9 7 B <.).`.-.= @ ",
"@ = -.`.).<.B 7 9 9 8 A w.9.n n w.v.) S X.z.G.z.^ S X.z.G.v.^ S X.s.C.W.W.W.W.C.s.X.S ^ z.G.z.X.S ^ z.G.z.X.S ) v.w.n n 9.w.V 7 9 9 7 B <.).`.-.= @ ",
"@ = -.`.).<.V 8 9 9 7 A w.9.n c <.F.z.X.S ^ z.G.z.X.S ^ z.G.z.X.S ! s.).W.W.).s.^ S X.z.G.z.^ S X.z.G.z.^ S X.z.F.<.n n 9.w.V 7 9 9 7 B <.).`.-.= @ ",
"@ = -.`.).<.V 8 9 9 7 A w.9.n c >.).'.s.^ S X.z.G.z.^ S X.v.G.z.^ S X.s.C.C.s.X.S ^ v.G.z.X.S ^ z.G.z.X.S ! s.'.).>.c n 9.w.A 7 9 9 7 B <.).`.-.= @ ",
"@ = -.`.W.<.B 8 9 9 7 V w.9.n c >.W.W.C.s.X.S ^ z.G.z.X.S ^ z.G.v.X.S ) v.v.) S X.z.G.z.^ S X.z.G.z.^ S X.s.C.W.W.>.c n 9.w.A 7 9 9 8 B <.W.`.-.= @ ",
"@ = -.`.W.<.B 7 9 9 7 A w.9.n c <.W.U.U.W.s.! S X.z.G.z.^ S X.z.G.v.) P #.#.P ) v.G.z.X.S ^ z.G.v.X.S ^ s.W.U.U.R.<.c n 9.w.A 7 9 9 8 B <.W.`.-.= @ ",
"@ = -.`.W.<.B 7 9 9 7 A w.9.n c <.R.U.U.U.C.s.X.S ^ z.G.z.X.S ^ v.L.m.#.S S #.m.L.z.^ S X.z.G.z.^ S X.s.C.U.U.U.R.>.c n 9.w.V 7 9 9 7 B <.W.`.-.= @ ",
"@ = -.`.W.<.B 7 9 9 7 A w.9.n c <.W.U.L.L.U.W.s.^ S X.z.G.z.^ S #.w.r.$.H H $.r.w.#.S ^ z.G.z.X.S ^ s.W.U.L.L.U.R.>.c n 9.w.V 7 9 9 7 B <.W.`.-.= @ ",
"@ ; -.`.).<.B 8 9 9 7 V w.9.n c <.W.U.L.L.U.U.C.s.X.S ^ v.G.z.#.Y n n E %.%.E n n Y #.v.G.v.^ S X.s.C.U.U.L.L.U.W.<.c n 9.q.V 7 9 9 7 B <.).`.-.; @ ",
"@ ; -.`.).<.B 8 9 8 7 V w.9.n c <.W.U.L.L.L.L.U.W.s.^ S X.v.L.w.n : : n u.u.n : : n w.L.v.X.S ^ s.W.U.L.L.L.L.U.W.<.c n 9.9.V 7 9 9 7 B <.).`.-.; @ ",
"@ = -.`.).<.B 8 9 9 7 V w.9.n c <.W.U.L.L.L.L.U.U.C.s.X.S ) m.r.n : : n u.u.n : : n r.m.) S X.s.C.U.U.L.L.L.L.U.W.<.c n 9.q.V 7 9 9 7 B <.).`.-.= @ ",
"@ = -.`.).<.B 7 9 9 7 V w.9.n c <.W.U.L.L.L.L.L.L.U.W.s.) P #.%.E n n E %.%.E n n E %.#.P ) s.W.U.L.L.L.L.L.L.U.W.<.c n 9.w.V 7 9 9 7 B <.).`.-.= @ ",
"@ = -.`.).<.B 7 9 9 8 A w.9.n c <.R.U.L.L.L.L.L.L.U.U.C.v.#.S H %.u.u.%.H H %.u.u.%.H S #.v.C.U.U.L.L.L.L.L.L.U.W.<.c n 9.w.A 7 9 9 8 B <.).`.-.= @ ",
"@ = -.`.).<.B 7 9 9 7 V w.9.n c <.W.U.L.L.L.L.L.L.U.U.C.v.#.S H %.u.u.%.H H %.u.u.%.H S #.v.C.U.U.L.L.L.L.L.L.T.W.<.c n 9.w.A 7 9 9 7 B <.).`.-.= @ ",
"@ = -.`.).<.B 7 9 9 7 A w.9.n c <.).U.L.L.L.L.L.L.U.W.s.) P #.%.E n n E %.%.E n n E %.#.P ) s.W.U.L.L.L.L.L.L.T.).<.c n 9.w.V 7 9 9 7 B <.).`.-.= @ ",
"@ = -.`.).<.B 7 9 9 7 A w.9.n f { s.C.U.U.L.L.U.U.C.s.X.S ) m.r.n : : B u.u.n : : n u.m.) S X.s.C.U.U.L.L.U.U.C.s.{ f n 9.w.V 7 9 9 7 B <.).`.-.= @ ",
"@ = -.`.W.<.B 7 9 9 7 A w.9.V e p ) j.W.U.L.L.U.W.s.^ S X.v.L.w.n : : n u.u.n : : n w.L.v.X.S ^ s.W.U.L.L.U.W.j.) p e V 9.w.V 7 9 9 7 B <.).`.-.= @ ",
"@ = -.`.W.<.B 7 9 9 7 A w.9.V y s P #.s.C.W.W.C.s.X.S ^ z.G.z.#.Y n n E %.%.E n n Y #.z.G.z.^ S X.s.C.W.W.C.s.#.P s y V 9.w.V 7 9 9 7 B <.).`.-.= @ ",
"@ = -.`.).<.B 7 9 9 7 A w.9.B g | #.H ! s.'.'.s.^ S X.z.G.z.^ S #.w.r.%.H H $.r.w.#.S ^ z.G.z.X.S ! s.'.'.s.^ H #.| f B 9.w.V 7 9 9 7 B <.).`.-.= @ ",
"@ = -.`.).<.B 7 9 9 7 A w.9.n B r.m.) S #.9.9.#.S ^ z.G.z.X.S ^ z.L.m.#.S S #.m.L.z.^ S X.z.G.z.^ S #.9.9.#.S ) m.r.B n 9.w.A 7 9 9 7 B <.).`.-.= @ ",
"@ = -.`.).<.B 7 9 9 7 V w.9.n n w.L.v.#.Y c c Y #.z.G.z.^ S X.z.G.v.) P #.#.P ) v.G.z.X.S ^ z.G.z.#.Y c c Y #.v.L.w.n n 9.w.A 7 9 9 8 B <.W.`.-.= @ ",
"@ = -.`.).<.B 7 9 9 7 A w.9.n f { v.U.w.n : : n w.L.v.X.S ^ z.G.v.X.S ) z.v.) S X.z.G.z.^ S X.v.L.w.n : : n w.U.v.{ f n 9.w.A 8 9 9 8 B <.W.`.-.= @ ",
"@ = -.`.).<.B 7 9 9 7 A w.9.V e p ' M.r.n : : n r.m.) S X.v.G.z.^ S X.s.C.C.s.X.S ^ v.G.z.X.S ) m.r.n : : n r.M.' p e V 9.w.A 7 9 9 7 B <.W.`.-.= @ ",
"@ = -.`.).<.B 8 9 9 7 A w.9.V y s Y $.%.E n n E %.#.P ) v.G.z.X.S ^ j.'.W.W.'.j.^ S X.z.G.v.) P #.%.E n n E %.$.Y s y V 9.w.V 7 9 9 7 B <.W.`.-.= @ ",
"@ = -.`.).<.B 7 9 9 7 A w.9.n l  .%.P H %.u.u.%.H S #.m.L.z.^ S X.s.F.).W.W.).F.s.X.S ^ z.L.m.#.S H %.u.u.%.H P %. .l B 9.w.A 7 9 9 7 B <.).`.-.; @ ",
"@ = -.`.).<.B 7 9 9 7 A w.9.n l ..=.U H %.u.u.%.H H %.u.w.#.S ^ s.F.j.<.<.<.<.j.F.s.^ S #.w.r.%.H H %.u.u.%.H U =...l B 9.w.A 7 9 9 7 B <.).`.-.; @ ",
"@ = -.`.).<.V 8 9 9 7 A w.9.V u g E %.%.E n n E %.%.E n n Y #.j.F.j.' c n n c ' j.F.j.#.Y n n E %.%.E n n E %.%.E g u V 9.w.V 7 9 9 7 B <.).`.-.= @ ",
"@ = -.`.).<.V 8 9 9 7 A w.w.A 4 2 n u.u.n : : n u.u.n : : c 9.[.).<.z 2 2 2 2 z <.'.[.0.c : : n u.u.n : : n u.u.n 2 4 A w.w.V 7 9 9 7 B <.).`.-.= @ ",
"@ = -.`.W.<.B 8 9 9 7 V w.w.A 4 2 n u.u.n : : n u.u.n : : c 0.[.).<.z 2 2 2 2 z <.'.[.9.c : : n u.u.n : : B u.u.n 2 4 A w.w.A 7 9 9 8 B <.).`.-.= @ ",
"@ = -.`.W.<.B 7 9 9 7 V w.9.V u g E %.%.E n n E %.%.E n n Y #.j.F.j.' c n n c ' j.F.j.#.Y n n E %.%.E n B E %.%.E g u V 9.w.A 7 9 9 7 B <.).`.-.= @ ",
"@ = -.`.W.<.B 7 9 9 7 V w.9.n l ..=.U H %.u.u.%.H H %.u.w.#.S ^ s.F.j.<.<.<.<.j.F.s.^ S #.w.r.%.H H %.u.u.%.H U =...l n 9.w.A 7 9 9 7 B <.).`.-.= @ ",
"@ = -.`.W.<.B 7 9 9 7 V w.9.n l  .%.P H %.u.u.%.H S #.m.L.v.^ S X.s.F.).W.W.).F.s.X.S ^ z.L.m.#.S H %.u.u.%.H P %. .l n 9.w.A 7 9 9 7 B <.).`.-.= @ ",
"@ ; -.`.).<.B 8 9 9 7 A w.9.V y s Y $.%.E n n E %.#.P ) v.G.z.X.S ^ j.'.W.W.'.j.^ S X.z.G.v.) P #.%.E n n E $.$.Y s y V 9.w.A 7 9 9 7 B <.).`.-.= @ ",
"@ ; -.`.).<.B 8 9 9 7 A w.9.V e p ' M.r.n : : n r.m.) S X.z.G.z.^ S X.s.C.C.s.X.S ^ z.G.z.X.S ) m.r.n : : n r.M.' p e V 9.w.A 7 9 9 7 B <.).`.-.= @ ",
"@ ; -.`.).<.B 8 9 9 7 A w.9.B f { v.U.w.n : : n w.L.v.X.S ^ z.G.z.X.S ) v.v.) S X.z.G.z.^ S X.v.L.w.n : : n w.U.v.{ f B 9.w.A 7 9 9 7 B <.).`.-.= @ ",
"@ ; -.`.W.<.B 8 9 9 7 A w.9.n n 9.L.v.#.Y c c Y #.z.G.z.^ S X.z.G.v.) P #.#.P ) v.G.z.X.S ^ z.G.z.#.Y c c Y #.v.L.0.n n 9.w.A 7 9 9 7 B <.).`.-.= @ ",
"@ = -.`.).<.B 7 9 9 8 A w.9.n B r.m.) S #.9.9.#.S ^ z.G.z.X.S ^ z.L.m.#.S S #.m.L.z.^ S X.z.G.z.^ S #.w.9.#.S ) m.r.B n 9.w.V 7 9 9 8 B <.W.`.-.= @ ",
"@ = -.`.).<.B 7 9 9 8 A w.9.n g | #.H ! s.'.'.s.^ S X.z.G.z.^ S #.w.r.%.H H %.r.w.#.S ^ z.G.z.X.S ^ s.'.'.s.! H #.| g B 9.w.V 7 9 9 8 B <.W.`.-.= @ ",
"@ = -.`.W.<.B 7 9 9 7 V w.9.V e s P #.s.C.W.W.C.s.X.S ^ v.G.z.#.Y n n E %.%.E n n Y #.z.G.z.^ S X.s.C.W.W.C.s.#.P s y V 9.w.V 7 9 9 7 B <.W.`.-.= @ ",
"@ = -.`.W.<.B 8 9 9 7 V w.9.V e p ) j.W.U.L.L.U.W.s.^ S X.v.L.w.n : : B u.u.n : : n w.L.v.X.S ^ s.W.U.L.L.U.W.j.) p e V 9.w.V 7 9 9 7 B <.W.`.-.= @ ",
"@ = -.`.W.<.B 7 9 9 7 A w.9.n f { s.C.U.U.L.L.U.U.C.s.X.S ) m.r.n : : n u.u.n : : n u.m.) S X.s.C.U.U.L.L.U.U.C.s.{ f n 9.w.V 7 9 9 7 B <.).`.-.= @ ",
"@ = -.`.W.<.B 7 9 9 7 A w.9.n c <.).T.L.L.L.L.L.L.U.W.s.) P #.%.E n n E %.%.E n n E %.#.P ) s.W.U.L.L.L.L.L.L.T.).<.c n 9.w.V 7 9 9 8 B <.W.`.-.= @ ",
"@ = -.`.).<.B 7 9 9 7 A w.9.n c <.W.T.L.L.L.L.L.L.U.U.C.v.#.S H %.u.u.%.H H %.u.u.%.H S #.v.C.U.U.L.L.L.L.L.L.T.W.<.c n 9.w.V 7 9 9 8 B <.).`.-.= @ ",
"@ = -.`.).<.B 7 9 9 7 A w.9.n c <.W.U.L.L.L.L.L.L.U.U.C.v.#.S H %.u.u.%.H H %.u.u.%.H S #.v.C.U.U.L.L.L.L.L.L.U.R.>.c n 9.w.V 7 9 9 8 B <.).`.-.= @ ",
"@ = -.`.).<.B 7 9 9 7 A w.9.n c <.W.U.L.L.L.L.L.L.U.W.s.) P #.%.E n n E %.%.E n n E %.#.P ) s.W.U.L.L.L.L.L.L.U.R.>.c n 9.w.V 7 9 9 7 B <.).`.-.= @ ",
"@ = -.`.).<.B 7 9 8 7 V w.9.n c <.W.U.L.L.L.L.U.U.C.s.X.S ) m.u.n : : n u.u.n : : n r.m.) S X.s.C.U.U.L.L.L.L.U.R.>.c n 9.w.V 7 9 9 7 B <.).`.-.= @ ",
"@ = -.`.).<.B 7 8 8 7 V w.9.n c <.W.U.L.L.L.L.U.W.s.^ S X.v.L.w.n : : n u.u.n : : n w.L.v.X.S ^ s.W.U.L.L.L.L.U.W.<.c n 9.w.A 7 9 9 7 B <.).`.-.= @ ",
"@ = -.`.).<.B 8 8 8 7 V w.9.n c <.W.U.L.L.U.U.C.s.X.S ^ z.G.z.#.Y n n E %.%.E n n Y #.v.G.z.^ S X.s.C.U.U.L.L.U.W.<.c n 9.w.A 7 9 9 8 B <.).`.-.= @ ",
"@ = -.`.).<.B 7 9 9 8 A w.9.n c <.W.U.L.L.U.W.s.^ S X.z.G.z.^ S #.w.r.%.H H %.u.w.#.S ^ z.G.v.X.S ^ s.W.U.L.L.U.W.<.c n 9.w.A 7 9 9 7 B <.).`.-.; @ ",
"@ = -.`.).<.B 7 9 9 8 A w.9.n c <.W.U.U.U.C.s.X.S ^ z.G.z.X.S ^ z.L.m.#.S S #.m.L.z.^ S X.z.G.z.^ S X.s.C.U.U.U.W.<.c n 9.w.A 7 9 9 7 B <.).`.-.; @ ",
"@ = -.`.).<.V 8 9 9 7 A w.9.n c <.W.U.U.W.s.^ S X.z.G.z.^ S X.z.G.v.) P #.#.P ) v.G.z.X.S ^ z.G.z.X.S ^ s.W.U.U.R.>.c n 9.w.V 7 9 9 7 B <.).`.-.; @ ",
"@ = -.`.).<.V 8 9 9 7 A w.9.n c <.W.W.C.s.X.S ^ v.G.z.X.S ^ v.G.z.X.S ) v.v.) S X.z.G.z.^ S X.z.G.z.^ S X.s.C.W.W.>.c n 9.w.V 7 9 9 7 B <.).`.-.= @ ",
"@ = -.`.W.<.B 8 9 9 7 V w.9.n c <.).'.s.^ S X.z.G.z.^ S X.z.G.v.^ S X.s.C.C.s.X.S ^ z.G.z.X.S ^ z.G.z.X.S ^ s.'.).>.c n 9.w.V 7 9 9 7 B <.).`.-.= @ ",
"@ = -.`.W.<.B 7 9 9 7 A w.9.n n <.F.j.X.S ^ z.G.z.X.S ^ z.G.z.X.S ! s.).W.W.).s.^ S X.z.G.z.^ S X.z.G.z.^ S X.z.F.<.n n 9.w.V 7 9 9 7 B <.).`.-.= @ ",
"@ = -.`.W.<.B 7 9 9 7 A w.9.n n 9.v.) S X.z.G.z.^ S X.z.G.z.^ S X.s.C.W.W.W.W.C.s.X.S ^ z.G.z.X.S ^ z.G.z.X.S ) v.9.n n 9.w.V 7 9 9 7 B <.).`.-.= @ ",
"@ = -.`.W.<.B 7 9 9 7 A w.9.n g | #.S ^ z.G.z.X.S ^ z.G.z.X.S ^ s.).W.V.u.u.V.W.).s.^ S X.z.G.z.^ S X.z.G.z.^ H #.| g n 9.w.V 7 9 9 7 B <.).`.-.= @ ",
"@ ; -.`.).<.B 7 9 9 7 A w.9.V y s P +.z.G.z.^ S X.z.G.z.^ S X.s.C.W.).s.Q Q s.).W.C.s.X.S ^ z.G.z.X.S ^ z.G.z.+.P s y V 9.w.V 7 9 9 8 B <.).`.-.= @ ",
"@ ; -.`.).<.B 8 9 9 7 A w.9.V e p _ v.G.z.X.S ^ z.G.z.X.S ^ s.).W.C.s.X.S S X.s.C.W.).s.! S X.z.G.z.^ S X.z.G.v._ p e V w.w.V 7 9 9 8 B <.).`.-.= @ ",
"@ ; -.`.).<.B 8 9 9 7 V w.9.B f { v.L.z.^ S X.z.G.z.^ S X.s.C.W.).s.! S #.#.S ! s.).W.C.s.X.S ^ z.G.z.X.S ^ z.L.v.{ f B 9.w.V 7 9 9 7 B <.).`.-.= @ ",
"@ = -.`.).<.B 7 9 9 7 V w.9.n n 9.L.v.X.S ^ z.G.z.X.S ^ s.).W.C.s.X.S ) v.v.) S X.s.C.W.).s.^ S X.z.G.z.^ S X.v.L.9.n n 9.w.A 7 9 9 7 B <.).`.-.= @ ",
"@ = -.`.).<.B 7 9 9 7 A w.9.n B r.m.) S X.z.G.z.^ S X.s.C.W.).s.! S X.s.C.C.s.X.S ! s.).W.C.s.X.S ^ z.G.z.X.S ) m.r.B n 9.w.V 7 9 9 7 B <.W.`.-.= @ ",
"@ = -.`.).<.B 7 9 9 7 A w.9.n g | %.U ) v.L.v.+.H ) z.'.W.C.j.#.H ) j.).W.W.'.j.) H #.j.C.W.'.z.) H #.v.L.v.) U %.| g n 9.w.V 7 9 9 7 B <.W.`.-.= @ ",
"@ = -.`.).<.B 7 9 9 7 A w.9.V y f R %.m.L.v._ P #.v.F.'.'.s.) P #.v.F.).W.W.).F.v.#.P ) s.'.'.F.v.#.P _ v.L.m.%.R f y V 9.w.A 7 9 9 7 B <.W.`.-.= @ ",
"@ = -.`.).<.B 7 9 9 7 A w.9.V 2 2 f | r.9.{ p s | 9.9.<.9.{ p s | q.9.<.<.<.>.<.q.| s p { <.<.9.w.| s p { 0.r.| f 2 2 V 9.w.A 7 9 9 7 B <.W.`.-.= @ ",
"@ = -.`.W.<.B 7 9 9 8 A w.9.B 2 2 y g n n f e y g n c c c f e e g n n c c c c c n g y e f c c n n g y e f n n g y 2 2 B 9.w.A 7 9 9 7 B <.).`.-.= @ ",
"@ = -.`.W.<.B 7 9 9 8 A r.m.] n V V n n n B V V B n n n n n V V n n n n n n n n n n V V n n n n n B V V n n n n V V n ] m.r.A 7 9 9 7 B <.).`.-.= @ ",
"@ = -.`.).<.B 7 9 9 8 V w.G.m.9.9.9.9.9.9.9.9.9.9.9.9.9.9.9.9.9.9.9.9.9.9.9.9.9.9.9.9.9.9.9.9.9.9.9.9.9.9.9.9.9.9.9.9.m.G.w.V 7 9 9 7 B <.).`.-.= @ ",
"@ = -.`.).<.B 7 9 9 8 l | w.r.w.w.w.w.w.w.w.w.w.w.w.w.w.w.w.w.w.w.w.w.w.w.w.w.w.w.w.w.w.w.w.w.w.w.w.w.w.w.w.w.w.w.w.w.r.w.| l 8 9 9 7 B <.).`.-.= @ ",
"@ ; -.`.).<.B 7 9 9 9 i l V V A V A A A A A A A A A A V A V A A A A A A A A A A V A A A A A A A A A V A A A A V A A A A V l i 9 9 9 7 B <.).`.-.= @ ",
"@ ; -.`.).<.B 7 9 9 9 9 8 7 7 7 7 7 7 8 7 7 7 7 7 7 7 7 7 7 7 7 7 7 7 7 7 7 7 7 7 7 7 7 7 7 7 7 7 7 7 7 7 7 7 7 8 8 8 7 7 8 9 9 9 9 7 B <.).`.-.= @ ",
"@ = -.`.).<.B 7 9 9 9 9 9 9 9 9 9 9 9 9 9 9 9 9 9 9 9 9 9 9 9 9 9 9 9 9 9 9 9 9 9 9 9 9 9 9 9 9 9 9 9 9 9 9 8 9 9 9 9 9 9 9 9 9 9 9 7 B <.).`.-.= @ ",
"@ = -.`.).<.n 4 7 9 9 9 9 9 9 9 9 9 9 9 9 9 9 9 9 9 9 9 9 9 9 9 9 9 9 9 9 9 9 9 9 9 9 9 9 9 9 9 9 9 9 9 9 9 9 9 9 9 9 9 9 9 9 9 9 7 4 n <.).`.-.= @ ",
"@ = -.`.).<.c 4 4 7 8 8 8 7 8 7 7 7 7 8 8 8 7 7 7 8 8 8 7 8 8 8 8 8 8 8 7 8 8 8 8 8 7 7 7 8 8 8 7 7 7 8 8 8 7 7 7 8 8 8 7 8 8 8 8 4 4 n <.).`.-.= @ ",
"@ ; ;.[.W.p._ c n B B B B B B B B B B B V V B B B B B B B B B B B B B B B B B B B B B B B B B B B B B B V V B B B B B B B B B B B n n _ p.W.[.;.; @ ",
"@ ; ;.[.W.B.p.<.<.<.<.<.<.<.<.<.<.<.<.<.<.<.<.<.<.<.<.<.<.<.<.<.<.<.<.<.<.<.<.<.<.<.<.<.<.<.<.<.<.<.<.<.<.<.<.<.<.<.<.<.<.<.<.<.<.<.<.s.B.W.[.:.; @ ",
"@ * [ 4.N.W.W.W.).).).).W.W.).).W.W.W.W.).).).).W.).).).W.W.W.W.W.W.W.W.W.W.W.W.).).W.W.).).).).W.W.W.W.).).).).W.).).).W.W.W.W.).).).`.W.N.4.[ * @ ",
"# % & L 4.[.[.`.`.`.`.`.`.`.`.`.`.`.`.`.`.`.`.`.`.`.`.`.`.`.`.`.`.`.`.`.`.`.`.`.`.`.`.`.`.`.`.`.`.`.`.`.`.`.`.`.`.`.`.`.`.`.`.`.`.`.`.[.[.4.L & % # ",
"$ @ . & [ :.;.-.-.-.-.-.-.-.-.-.-.-.-.-.-.-.-.-.-.-.-.-.-.-.-.-.-.-.-.-.-.-.-.-.-.-.-.-.-.-.-.-.-.-.-.-.-.-.-.-.-.-.-.-.-.-.-.-.-.-.-.;.:.[ & . @ $ ",
"    @ % * ; ; = = = = = ; ; ; ; = = = = = = = = = ; ; = = = = = ; ; ; ; = = = = = = = = = ; ; ; = = = = = = = = = ; ; = = = = = = = = ; ; * % @     ",
"    $ # @ @ @ @ @ @ @ @ @ @ @ @ @ @ @ @ @ @ @ @ @ @ @ @ @ @ @ @ @ @ @ @ @ @ @ @ @ @ @ @ @ @ @ @ @ @ @ @ @ @ @ @ @ @ @ @ @ @ @ @ @ @ @ @ @ @ # $     "
};
