/* XPM */
static char *back_1[] = {
/* columns rows colors chars-per-pixel */
"74 104 184 2 ",
"   c None",
".  c #1F002C",
"X  c #20012D",
"o  c #21012D",
"O  c #21012E",
"+  c #22032F",
"@  c #23032F",
"#  c #250632",
"$  c #270833",
"%  c #30133B",
"&  c #362478",
"*  c #382679",
"=  c #39277A",
"-  c #3A287A",
";  c #3A287B",
":  c #3A297B",
">  c #3B2A7B",
",  c #3C2A7B",
"<  c #3D2C7C",
"1  c #3F2D7D",
"2  c #482E50",
"3  c #4B3152",
"4  c #583F5D",
"5  c #402E7E",
"6  c #402F7E",
"7  c #41307E",
"8  c #41307F",
"9  c #42317F",
"0  c #43327F",
"q  c #59405D",
"w  c #59415E",
"e  c #433280",
"r  c #443380",
"t  c #473682",
"y  c #483782",
"u  c #483883",
"i  c #493883",
"p  c #4A3983",
"a  c #4E3E86",
"s  c #5B4C8D",
"d  c #5D4E8E",
"f  c #5F508F",
"g  c #605190",
"h  c #615290",
"j  c #625391",
"k  c #625491",
"l  c #635491",
"z  c #655692",
"x  c #6A5C95",
"c  c #6B5D96",
"v  c #6B5E96",
"b  c #6C5E96",
"n  c #6C5E97",
"m  c #6D5F97",
"M  c #6D6097",
"N  c #6E6097",
"B  c #6E6098",
"V  c #6E6198",
"C  c #6F6198",
"Z  c #706299",
"A  c #716399",
"S  c #72649A",
"D  c #7D71A0",
"F  c #7E72A1",
"G  c #7F72A1",
"H  c #7F73A1",
"J  c #816E80",
"K  c #8074A2",
"L  c #8174A2",
"P  c #8175A2",
"I  c #8275A3",
"U  c #8276A3",
"Y  c #8377A3",
"T  c #8478A4",
"R  c #867AA5",
"E  c #887CA6",
"W  c #897DA7",
"Q  c #8A7FA7",
"!  c #9B8B96",
"~  c #8B80A8",
"^  c #8C80A8",
"/  c #8C81A8",
"(  c #8D81A9",
")  c #8D82A9",
"_  c #8E83AA",
"`  c #8F83AA",
"'  c #8F84AA",
"]  c #9085AB",
"[  c #9186AB",
"{  c #9287AC",
"}  c #958AAD",
"|  c #A59BB6",
" . c #A89FB8",
".. c #AAA1B9",
"X. c #AAA1BA",
"o. c #ABA2BA",
"O. c #ADA5BB",
"+. c #AEA6BC",
"@. c #AFA6BC",
"#. c #AFA7BC",
"$. c #B1A9BD",
"%. c #B2A9BE",
"&. c #B2AABE",
"*. c #B3AABE",
"=. c #B3ABBE",
"-. c #C2B8B7",
";. c #C4BAB9",
":. c #C6BCBB",
">. c #B5ADC0",
",. c #B6ADC0",
"<. c #B6AEC0",
"1. c #B7AFC0",
"2. c #B9B1C2",
"3. c #C8C2CA",
"4. c #C9C3CB",
"5. c #CAC3CB",
"6. c #CAC4CB",
"7. c #CAC4CC",
"8. c #CBC5CC",
"9. c #CCC5CC",
"0. c #CCC6CD",
"q. c #CDC6CD",
"w. c #CDC7CD",
"e. c #CEC8CE",
"r. c #CFC8CE",
"t. c #CFC9CE",
"y. c #D5CDC7",
"u. c #D0CACF",
"i. c #D1CBCF",
"p. c #D2CCD0",
"a. c #D3CDD0",
"s. c #D5D0D2",
"d. c #D6D1D2",
"f. c #D7D2D3",
"g. c #D8D3D3",
"h. c #D9D3D3",
"j. c #D9D4D4",
"k. c #DAD4D4",
"l. c #DAD5D4",
"z. c #DAD5D5",
"x. c #DBD6D5",
"c. c #DCD7D6",
"v. c #DDD8D6",
"b. c #DFDAD7",
"n. c #ECE8DE",
"m. c #ECE8DF",
"M. c #EFEBDE",
"N. c #EEEBE0",
"B. c #EFEBE0",
"V. c #F0ECE0",
"C. c #F2EEE1",
"Z. c #F2EEE2",
"A. c #F2EFE2",
"S. c #F3EFE2",
"D. c #F4F1E3",
"F. c #F5F2E3",
"G. c #F6F2E4",
"H. c #F6F3E4",
"J. c #F7F4E4",
"K. c #F7F4E5",
"L. c #F9F6E5",
"P. c #F9F6E6",
"I. c #F9F7E6",
"U. c #FAF7E6",
"Y. c #FAF8E6",
"T. c #FAF8E7",
"R. c #FBF8E7",
"E. c #FBF9E7",
"W. c #FCF9E7",
"Q. c #FCFAE7",
"!. c #FBF9E8",
"~. c #FCFAE8",
"^. c #FDFAE8",
"/. c #FDFBE8",
"(. c #FDFBE9",
"). c #FEFBE8",
"_. c #FDFBEA",
"`. c #FEFBEA",
"'. c #FFFCE9",
"]. c #FFFDE9",
"[. c #FFFDEB",
"{. c #FFFEEA",
"}. c #FFFFEB",
"|. c #FFFDEC",
/* pixels */
"    $ # @ @ @ @ @ @ @ @ @ @ @ @ @ @ @ @ @ @ @ @ @ @ @ @ @ @ @ @ @ @ @ @ @ @ @ @ @ @ @ @ @ @ @ @ @ @ @ @ @ @ @ @ @ @ @ @ @ @ @ @ @ @ @ @ @ @ # $     ",
"    @ % 3 w w 4 4 4 4 4 4 4 4 4 4 4 4 4 4 4 4 4 4 4 4 4 4 4 4 4 4 4 4 4 4 4 4 4 4 4 4 4 4 4 4 4 4 4 4 4 4 4 4 4 4 4 4 4 4 4 4 4 4 4 4 w w 3 % @     ",
"$ @ . 2 ! :.;.-.-.-.-.-.-.-.-.-.-.-.-.-.-.-.-.-.-.-.-.-.-.-.-.-.-.-.-.-.-.-.-.-.-.-.-.-.-.-.-.-.-.-.-.-.-.-.-.-.-.-.-.-.-.-.-.-.-.-.-.;.:.! 2 . @ $ ",
"# % 2 J y.|.[._._._._._._._._._._._._._._._._._._._._._._._._._._._._._._._._._._._._._._._._._._._._._._._._._._._._._._._._._._._._.[.|.y.J 2 % # ",
"@ 3 ! y.M.!._._._._._._._._._._._._._._._._._._._._._._._._._._._._._._._._._._._._._._._._._._._._._._._._._._._._._._._._._._._._._._.!.M.y.! 3 @ ",
"@ w :.|.!.n.s.5.6.7.7.7.7.7.7.7.7.7.7.7.7.7.7.7.6.7.7.7.7.7.7.7.7.7.7.7.7.7.7.7.7.7.7.7.7.7.7.7.6.7.7.7.7.7.7.7.7.7.7.7.7.7.7.7.7.7.6.s.M.!.|.:.w @ ",
"@ w ;.[._.s.' b b C C C C C C C C C C C C C C C C C C C C C C C C C C C C C C C C C C C C C C C C C C C C C C C C C C C C C C C C b b ' s._.[.;.w @ ",
"@ 4 -._._.6.b , < 5 5 5 5 5 5 5 5 5 5 5 5 5 5 5 5 5 5 5 5 5 5 5 5 5 5 5 5 5 5 5 5 5 5 5 5 5 5 5 5 5 5 5 5 5 5 5 5 5 5 5 5 5 5 5 5 < , b 6._._.-.4 @ ",
"@ 4 -._._.6.b < < 8 8 8 8 8 8 8 8 8 8 8 8 8 8 8 8 8 8 8 8 8 8 8 8 8 8 8 8 8 8 8 8 8 8 8 8 8 8 8 8 8 8 8 8 8 8 8 8 8 8 8 8 8 8 8 8 < < b 7._._.-.4 @ ",
"@ 4 -._._.7.C 5 8 r r r 8 8 8 8 8 8 8 8 8 8 8 8 8 8 8 8 8 8 8 8 8 8 8 8 8 8 8 8 8 8 8 8 8 8 8 8 8 8 8 8 8 8 8 8 8 8 8 8 8 8 e r r 8 5 C 7._._.-.4 @ ",
"@ 4 -._._.7.C 5 8 r r 8 8 5 5 5 5 5 5 5 5 5 5 5 5 5 5 5 5 5 5 5 5 5 5 5 5 5 5 5 5 5 5 5 5 5 5 5 5 5 5 5 5 5 5 5 5 5 5 5 5 8 8 r r 8 5 C 7._._.-.4 @ ",
"@ 4 -._._.7.C 5 8 e 8 a z A S S S S S S S S S S S S S S S S S S S S S S S S S S S S S S S S S S S S S S S S S S S S S S A z a 8 e 8 5 C 7._._.-.4 @ ",
"@ 4 -._._.7.C 5 8 8 5 z X.t.u.t.t.t.t.t.t.t.t.t.t.t.t.t.t.t.t.t.t.t.t.t.t.t.t.t.t.t.t.t.t.t.t.t.t.t.t.t.t.t.t.t.t.t.t.u.t.X.z 8 8 8 5 C 6._._.-.4 @ ",
"@ 4 -._._.7.C 5 8 8 5 A t.D.c.t.t.t.q.q.q.q.t.t.q.q.q.q.q.q.t.t.q.q.q.q.q.q.q.q.q.q.t.t.q.q.q.q.q.q.t.t.q.q.q.q.t.t.t.c.D.t.A 5 8 8 5 C 6._._.-.4 @ ",
"@ 4 -._._.7.C 5 8 8 5 S u.c.} C A A C M b C A A C M M M M C A A C M M M M M M M M C A A C M M M M C A A C b b C A A C } c.u.S 5 8 8 5 C 6._._.-.4 @ ",
"@ 4 -._._.7.C 5 8 8 5 S t.t.C ; ; i h C b f t y h C b c b f t y h C b c c c c b C h y t f b c b C h y t f b C h i ; ; C t.t.S 5 8 8 5 C 7._._.-.4 @ ",
"@ 4 -._._.6.C 5 8 8 5 S t.t.A ; * h X.u.t.| s d  .t.7.6.q.| s d  .t.7.5.5.5.5.q.t. .d d | q.6.7.t. .d s | t.u.X.h * ; A t.t.S 5 8 8 5 C 7._._.-.4 @ ",
"@ 4 -._._.7.C 5 8 8 5 S t.t.A i h R ,.c.H.z.] Y $.z.S.[.[.s.` Y $.z.S._.E.E._.S.z.$.Y ` s.[.[.S.z.$.Y ] z.H.c.,.R h i A t.t.S 5 8 8 5 C 7._._.-.4 @ ",
"@ 4 -._._.7.C 5 8 8 5 S t.q.C h X.,.Y ` z.H.z.$.K ` z.[._.N.g.$.Y ` g.[.W.W.[.z.` Y $.g.N._.[.g.` Y $.z.H.z.` Y ,.X.h C q.t.S 5 8 8 5 C 7._._.-.4 @ ",
"@ 4 -._._.7.C 5 8 8 5 S t.q.b C u.v.` D +.z.D.z.` D +.s.N.W.[.s.~ D +.s.B.B.s.+.D ~ s.[.W.N.s.+.D ` z.D.z.+.D ` c.u.C b q.t.S 5 8 8 5 C 7._._.-.4 @ ",
"@ 4 -._._.7.C 5 8 8 5 S t.q.M b t.H.z.+.D ` z.D.z.+.D ~ s._.W.N.s.+.D ` z.z.` D +.s.N.W._.s.~ D +.z.D.z.` D +.z.H.t.b M q.t.S 5 8 8 5 C 7._._.-.4 @ ",
"@ 4 -._._.7.C 5 8 8 5 S t.q.C f | z.H.z.` D +.z.D.z.` D +.s.N.W._.s.~ D $.$.K ~ s._.W.N.s.+.D ` z.D.z.+.D ` z.H.z.| f C q.t.S 5 8 8 5 C 7._._.-.4 @ ",
"@ 4 -._._.7.C 5 8 8 5 S t.t.A t s ] z.D.z.+.D ` z.D.z.+.D ~ s._.W.N.s.+.D D +.s.N.W.[.s.~ D +.z.D.z.` D +.z.D.z.] s t A t.t.S 5 8 8 5 C 7._._.-.4 @ ",
"@ 4 -._._.7.C 5 8 8 5 S t.t.A y d Y $.z.D.z.` D +.z.D.z.` D +.s.N.W._.s.Q Q s.[.W.N.s.+.D ` z.D.z.+.D ` z.D.z.$.Y d y A t.t.S 5 8 8 5 C 7._._.-.4 @ ",
"@ 4 -._._.7.C 5 8 8 5 S t.q.C h  .$.K ` z.D.z.+.D ` z.D.z.+.D ~ s.[.W.M.a.a.M.W._.s.~ D +.z.D.z.` D +.z.D.z.` K $. .h C q.t.S 5 8 8 5 C 7._._.-.4 @ ",
"@ 4 -._._.7.C 5 8 8 5 S t.q.M C t.z.` D +.z.D.z.` D +.z.D.z.` D +.s.N.E.E.E.E.N.s.+.D ` z.D.z.+.D ` z.D.z.+.D ` z.t.C M q.t.S 5 8 8 5 C 7._._.-.4 @ ",
"@ 4 -._._.7.C 5 8 8 5 S t.q.M b 7.S.h.+.D ` z.D.z.+.D ` z.D.z.+.D ~ s._.E.E._.s.~ D +.z.D.z.` D +.z.D.z.` D +.h.S.q.b M q.t.S 5 8 8 5 C 7._._.-.4 @ ",
"@ 4 -._._.7.C 5 8 8 5 S t.q.M c 5._.[.s.~ D +.z.D.z.` D +.z.D.z.` D +.s.B.B.s.+.D ` z.D.z.+.D ` z.D.z.+.D ~ s.[._.5.c M q.t.S 5 8 8 5 C 7._._.-.4 @ ",
"@ 4 -._._.7.C 5 8 8 5 S t.q.M c 5.E.W.N.s.+.D ` z.D.z.+.D ` z.D.z.+.D ` z.z.` D +.z.D.z.` D +.z.D.z.` D +.s.N.W.W.5.c M q.t.S 5 8 8 5 C 6._._.-.4 @ ",
"@ 4 -._._.7.C 5 8 8 5 S t.q.M c 5.U.U.U.W.s.~ D +.z.D.z.` D +.z.D.z.` Y $.$.Y ` z.D.z.+.D ` z.D.z.+.D ~ s._.U.U.U.5.c M q.t.S 5 8 8 5 C 6._._.-.4 @ ",
"@ 4 -._._.7.C 5 8 8 5 S t.q.M c 5.U.U.K.U.N.s.+.D ` z.D.z.+.D ` z.H.v.$.D D $.v.H.z.` D +.z.D.z.` D +.s.N.U.K.U.U.5.c M q.t.S 5 8 8 5 C 6._._.-.4 @ ",
"@ 4 -._._.7.C 5 8 8 5 S t.q.M c 5.U.U.H.H.U._.s.~ D +.z.D.z.` D $.u.a.,.Y Y ,.a.t.$.D ` z.D.z.+.D ~ s._.U.H.H.U.U.5.c M q.t.S 5 8 8 5 C 7._._.-.4 @ ",
"@ 4 -._._.7.C 5 8 8 5 S t.q.M c 5.U.U.H.H.K.U.N.s.+.D ` z.D.z.$.R b M Q ,.,.Q b b R $.z.D.z.` D +.s.N.U.K.H.H.U.U.5.c b q.t.S 5 8 8 5 C 7._._.-.4 @ ",
"@ 4 -._._.7.C 5 8 8 5 S t.q.M c 5.U.U.H.H.H.H.U._.s.~ D +.z.H.u.b & & C a.a.C & & b u.H.z.+.D ~ s._.U.H.H.H.H.U.U.5.c b q.t.S 5 8 8 5 C 7._._.-.4 @ ",
"@ 4 -._._.7.C 5 8 8 5 S t.q.M c 5.U.U.H.H.H.H.K.U.N.s.+.D ` v.a.M & & C a.a.C & & M a.v.` D +.s.N.U.K.H.H.H.H.U.U.5.c b q.t.S 5 8 8 5 C 7._._.-.4 @ ",
"@ 4 -._._.7.C 5 8 8 5 S t.q.M c 5.U.U.H.H.H.H.H.H.U._.s.` Y $.,.Q C C Q ,.,.Q C C Q ,.$.Y ` s._.U.H.H.H.H.H.H.U.U.5.c b q.t.S 5 8 8 5 C 7._._.-.4 @ ",
"@ 4 -._._.7.C 5 8 8 5 S t.q.M c 5.U.U.H.H.H.H.H.H.K.U.B.z.$.D Y ,.a.a.,.Y Y ,.a.a.,.Y D $.z.B.U.K.H.H.H.H.H.H.U.E.5.c M q.t.S 5 8 8 5 C 7._._.-.4 @ ",
"@ 4 -._._.7.C 5 8 8 5 S t.q.M c 6.W.U.H.H.H.H.H.H.K.U.B.z.$.D Y ,.a.a.,.Y Y ,.a.a.,.Y D $.z.B.U.K.H.H.H.H.H.H.U._.7.c M q.t.S 5 8 8 5 C 7._._.-.4 @ ",
"@ 4 -._._.7.C 5 8 8 5 S t.q.M b 7._.U.H.H.H.H.H.H.U._.s.` Y $.,.Q C C Q ,.,.E C C Q ,.$.Y ` s._.U.H.H.H.H.H.H.U._.q.b M q.t.S 5 8 8 5 C 7._._.-.4 @ ",
"@ 4 -._._.7.C 5 8 8 5 S t.q.C f | s.N.U.K.H.H.K.U.N.s.+.D ` c.a.M & & M a.a.C & & M a.v.` D +.s.N.U.K.H.H.K.U.N.s.| f C q.t.S 5 8 8 5 C 7._._.-.4 @ ",
"@ 4 -._._.6.C 5 8 8 5 S t.t.A t s ` g._.U.H.H.U._.s.~ D +.z.H.u.b & & C a.a.C & & b u.H.z.+.D ~ s.W.U.H.H.U._.g.` s t A t.t.S 5 8 8 5 C 7._._.-.4 @ ",
"@ 4 -._._.7.C 5 8 8 5 S t.t.A y d Y $.s.N.E.E.N.s.+.D ` z.D.z.$.T b M Q ,.,.Q M b R $.z.D.z.` D +.s.N.E.E.N.s.$.Y d y A t.t.S 5 8 8 5 C 7._._.-.4 @ ",
"@ 4 -._._.7.C 5 8 8 5 S t.q.C h  .$.Y ~ s.[.[.s.~ D +.z.D.z.` D $.u.a.,.Y Y ,.a.u.$.D ` z.D.z.+.D ~ s.[.[.s.~ Y $. .h C q.t.S 5 8 8 5 C 7._._.-.4 @ ",
"@ 4 -._._.7.C 5 8 8 5 S t.q.b C u.c.` D $.t.t.$.D ` z.D.z.+.D ` z.H.c.$.D D $.v.H.z.` D +.z.D.z.` D $.t.t.$.D ` c.u.C b q.t.S 5 8 8 5 C 7._._.-.4 @ ",
"@ 4 -._._.7.C 5 8 8 5 S t.q.b b t.H.z.$.R c c R $.z.D.z.` D +.z.D.z.` Y $.$.Y ` z.D.z.+.D ` z.D.z.$.R b b R $.z.H.t.b M q.t.S 5 8 8 5 C 6._._.-.4 @ ",
"@ 4 -._._.7.C 5 8 8 5 S t.q.C f | z.K.u.b & & b u.H.z.+.D ` z.D.z.+.D ` z.z.` D +.z.D.z.` D +.z.H.u.b & & b u.K.z.| f C q.t.S 5 8 8 5 C 6._._.-.4 @ ",
"@ 4 -._._.7.C 5 8 8 5 S t.t.A t s { v.a.M & & M a.c.` D +.z.D.z.` D +.s.B.B.s.+.D ` z.D.z.+.D ` v.a.M & & M a.v.{ s t A t.t.S 5 8 8 5 C 6._._.-.4 @ ",
"@ 4 -._._.7.C 5 8 8 5 S t.t.A i f R =.,.Q C C Q ,.$.Y ` z.D.z.+.D ` g.[.W.W.[.g.` D +.z.D.z.` Y $.,.Q C C Q ,.,.R f i A t.t.S 5 8 8 5 C 7._._.-.4 @ ",
"@ 4 -._._.7.C 5 8 8 5 S t.q.C l X.,.Y Y ,.a.a.,.Y D $.c.H.z.` D +.s.S._.W.W._.S.s.+.D ` z.H.v.$.D Y ,.a.a.,.Y Y ,.X.l C q.t.S 5 8 8 5 C 7._._.-.4 @ ",
"@ 4 -._._.7.C 5 8 8 5 S t.q.C l O.2.Y Y ,.a.a.,.Y Y ,.a.t.$.D ` s.S.g.5.6.7.6.g.S.s.` D $.u.a.,.Y Y ,.a.a.,.Y Y 2.O.l C q.t.S 5 8 8 5 C 7._._.-.4 @ ",
"@ 4 -._._.7.C 5 8 8 5 S t.t.A i h Q ,.,.Q C C Q ,.,.Q M b R $.g.S.g.] b b b b ] g.S.g.$.R b M Q ,.,.Q C C Q ,.,.Q h i A t.t.S 5 8 8 5 C 7._._.-.4 @ ",
"@ 4 -._._.7.C 5 8 8 5 S t.t.S ; * C a.a.C & & C a.a.C & & c t.[.[.5.c * ; ; * c 5.[.[.t.c & & C a.a.C & & C a.a.C & ; S t.t.S 5 8 8 5 C 7._._.-.4 @ ",
"@ 4 -._._.7.C 5 8 8 5 S t.t.S ; & M a.a.C & & C a.a.C & & c t.[.[.5.c * ; ; * c 5.[.[.t.c & & C a.a.C & & C a.a.C * ; S t.t.S 5 8 8 5 C 7._._.-.4 @ ",
"@ 4 -._._.7.C 5 8 8 5 S t.t.A i h Q ,.,.Q C C Q ,.,.Q M b R $.g.S.g.] b b b b ] g.S.g.$.R b M Q ,.,.Q C C Q ,.,.Q h i A t.t.S 5 8 8 5 C 7._._.-.4 @ ",
"@ 4 -._._.7.C 5 8 8 5 S t.q.C l O.2.Y Y ,.a.a.,.Y Y ,.a.t.$.D ` s.S.g.6.6.6.5.g.S.s.` D $.u.a.,.Y Y ,.a.a.,.Y Y 2.O.l C q.t.S 5 8 8 5 C 7._._.-.4 @ ",
"@ 4 -._._.7.C 5 8 8 5 S t.q.C l X.,.Y Y ,.a.a.,.Y D $.v.H.z.` D O.s.S._.E.E._.S.s.+.D ` z.H.c.$.D Y ,.a.a.,.Y Y ,.X.l C q.t.S 5 8 8 5 C 7._._.-.4 @ ",
"@ 4 -._._.7.C 5 8 8 5 S t.t.A i f R =.,.Q C C Q ,.$.Y ` z.D.z.+.D ` g.[.E.W.[.g.` D +.z.D.z.` Y $.,.Q C C Q ,.=.R f i A t.t.S 5 8 8 5 C 7._._.-.4 @ ",
"@ 4 -._._.7.C 5 8 8 5 S t.t.A t s { v.a.M & & M a.c.` D +.z.D.z.` D +.s.B.B.s.+.D ` z.D.z.+.D ` v.a.M & & M a.v.{ s t A t.t.S 5 8 8 5 C 7._._.-.4 @ ",
"@ 4 -._._.7.C 5 8 8 5 S t.q.C f | z.K.u.b & & b u.H.z.+.D ` z.D.z.+.D ` z.z.` D +.z.D.z.` D +.z.H.u.b & & b u.H.z.| f C q.t.S 5 8 8 5 C 7._._.-.4 @ ",
"@ 4 -._._.7.C 5 8 8 5 S t.q.b b t.H.z.$.R b b R $.z.D.z.` D +.z.D.z.' Y $.$.Y ` z.D.z.+.D ` z.D.z.$.R b b R $.z.H.t.b b q.t.S 5 8 8 5 C 7._._.-.4 @ ",
"@ 4 -._._.7.C 5 8 8 5 S t.q.M C u.c.` D $.t.t.$.D ` z.D.z.+.D ` z.H.c.$.D D $.v.H.z.` D +.z.D.z.` D $.t.t.$.D ` c.u.C M q.t.S 5 8 8 5 C 6._._.-.4 @ ",
"@ 4 -._._.7.C 5 8 8 5 S t.q.C h  .$.Y ~ s.[.[.s.~ D +.z.D.z.` D $.u.a.,.Y Y ,.a.u.$.D ` z.D.z.+.D ~ s.[.[.s.~ Y $. .h C q.t.S 5 8 8 5 C 6._._.-.4 @ ",
"@ 4 -._._.7.C 5 8 8 5 S t.t.A y d Y $.s.N.E.E.N.s.+.D ` z.D.z.$.R b M Q ,.,.Q M b R $.z.D.z.` D +.s.N.E.E.N.s.$.Y d y A t.t.S 5 8 8 5 C 7._._.-.4 @ ",
"@ 4 -._._.7.C 5 8 8 5 S t.t.A t s ` g._.U.H.H.U._.s.~ D +.z.H.u.b & & C a.a.C & & b u.H.z.+.D ~ s._.U.H.H.U._.g.` s t A t.t.S 5 8 8 5 C 7._._.-.4 @ ",
"@ 4 -._._.6.C 5 8 8 5 S t.q.C f | s.N.U.K.H.H.K.U.N.s.+.D ` v.a.M & & C a.a.C & & b i.c.' D +.s.N.U.K.H.H.K.U.N.s.| f C q.t.S 5 8 8 5 C 7._._.-.4 @ ",
"@ 4 -._._.7.C 5 8 8 5 S t.q.M b q._.U.H.H.H.H.H.H.U._.s.` Y $.,.Q C C Q ,.,.E C C Q ,.$.Y ` s._.U.H.H.H.H.H.H.U._.q.b M q.t.S 5 8 8 5 C 7._._.-.4 @ ",
"@ 4 -._._.7.C 5 8 8 5 S t.q.M c 6.W.U.H.H.H.H.H.H.K.U.B.z.$.D Y ,.a.a.,.Y Y ,.a.a.,.Y D $.z.B.U.K.H.H.H.H.H.H.U.W.6.c b q.t.S 5 8 8 5 C 7._._.-.4 @ ",
"@ 4 -._._.7.C 5 8 8 5 S t.q.M c 5.U.U.H.H.H.H.H.H.K.U.B.z.$.D Y ,.a.a.,.Y Y ,.a.a.,.Y D $.z.B.U.K.H.H.H.H.H.H.U.U.5.c M q.t.S 5 8 8 5 C 7._._.-.4 @ ",
"@ 4 -._._.7.C 5 8 8 5 S t.q.M c 5.U.U.H.H.H.H.H.H.U._.s.` Y $.,.Q C C Q ,.,.Q C C Q ,.$.Y ` s._.U.H.H.H.H.H.H.U.U.5.c M q.t.S 5 8 8 5 C 7._._.-.4 @ ",
"@ 4 -._._.7.C 5 8 8 5 S t.q.M c 5.E.U.H.H.H.H.K.U.N.s.+.D ` v.a.M & & C a.a.C & & M a.v.` D +.s.N.U.K.H.H.H.H.U.U.5.c M q.t.S 5 8 8 5 C 7._._.-.4 @ ",
"@ 4 -._._.7.C 5 8 8 5 S t.q.M c 5.U.U.H.H.H.H.U._.s.~ D +.z.H.u.b & & C a.a.C & & b u.H.z.+.D ~ s._.U.H.H.H.H.U.E.5.c M q.t.S 5 8 8 5 C 7._._.-.4 @ ",
"@ 4 -._._.7.C 5 8 8 5 S t.q.M c 5.U.U.H.H.K.U.N.s.+.D ` z.D.z.$.T b M Q ,.,.Q M b R $.z.D.z.` D +.s.N.U.K.H.H.U.E.5.c M q.t.S 5 8 8 5 C 7._._.-.4 @ ",
"@ 4 -._._.7.C 5 8 8 5 S t.q.M c 5.U.U.H.H.U._.s.~ D +.z.D.z.` D $.u.a.,.Y Y ,.a.t.$.D ` z.D.z.+.D ~ s._.U.H.H.U.U.5.c b q.t.S 5 8 8 5 C 7._._.-.4 @ ",
"@ 4 -._._.7.C 5 8 8 5 S t.q.M c 5.U.U.K.U.N.s.+.D ` z.D.z.+.D ` z.H.v.$.D D $.v.H.z.` D +.z.D.z.` D +.s.N.U.K.U.U.5.c b q.t.S 5 8 8 5 C 7._._.-.4 @ ",
"@ 4 -._._.7.C 5 8 8 5 S t.q.M c 5.U.U.U._.s.~ D +.z.D.z.` D +.z.D.z.' Y $.$.Y ` z.D.z.+.D ` z.D.z.+.D ~ s._.U.U.U.5.c b q.t.S 5 8 8 5 C 7._._.-.4 @ ",
"@ 4 -._._.7.C 5 8 8 5 S t.q.M c 5.E.W.N.s.+.D ` z.D.z.+.D ` z.D.z.+.D ` z.z.` D +.z.D.z.` D +.z.D.z.` D +.s.N.W.E.5.c b q.t.S 5 8 8 5 C 7._._.-.4 @ ",
"@ 4 -._._.7.C 5 8 8 5 S t.q.M c 5._.[.s.~ D +.z.D.z.` D +.z.D.z.` D +.s.S.B.s.+.D ` z.D.z.+.D ` z.D.z.+.D ~ s.[._.5.c M q.t.S 5 8 8 5 C 7._._.-.4 @ ",
"@ 4 -._._.7.C 5 8 8 5 S t.q.M b 7.S.g.+.D ` z.D.z.+.D ` z.D.z.+.D ~ s._.E.E._.s.~ D +.z.D.z.` D +.z.D.z.` D +.h.S.7.b b q.t.S 5 8 8 5 C 7._._.-.4 @ ",
"@ 4 -._._.7.C 5 8 8 5 S t.q.M C t.z.` D +.z.D.z.` D +.z.D.z.` D +.s.N.U.E.E.U.N.s.+.D ` z.D.z.+.D ` z.D.z.+.D ` z.t.C b q.t.S 5 8 8 5 C 7._._.-.4 @ ",
"@ 4 -._._.7.C 5 8 8 5 S t.q.C h  .$.K ` z.D.z.+.D ` z.D.z.+.D ~ s._.W.M.a.a.M.W._.s.~ D +.z.D.z.` D +.z.D.z.` K $. .h C q.t.S 5 8 8 5 C 7._._.-.4 @ ",
"@ 4 -._._.7.C 5 8 8 5 S t.t.A y d Y $.z.D.z.` D +.z.D.z.` D +.s.N.W.[.s.Q Q s.[._.N.s.+.D ` z.D.z.+.D ` z.D.z.$.Y d y A t.t.S 5 8 8 5 C 7._._.-.4 @ ",
"@ 4 -._._.7.C 5 8 8 5 S t.t.A t s ] z.D.z.+.D ` z.D.z.+.D ~ s._.W.N.s.+.D D #.s.N._.[.s.~ D +.z.D.z.` D +.z.D.z.] s t A t.t.S 5 8 8 5 C 7._._.-.4 @ ",
"@ 4 -._._.7.C 5 8 8 5 S t.q.C f | z.H.z.` D +.z.D.z.` D +.s.N.W._.s.~ D $.$.D ~ s._.W.N.s.O.D ` z.D.z.+.D ` z.H.z.| f C q.t.S 5 8 8 5 C 7._._.-.4 @ ",
"@ 4 -._._.7.C 5 8 8 5 S t.q.b b t.H.z.+.D ` z.D.z.+.D ~ s._.W.N.s.+.D ` z.z.` D O.s.N.W._.s.~ D +.z.D.z.` D +.z.H.t.b M q.t.S 5 8 8 5 C 7._._.-.4 @ ",
"@ 4 -._._.7.C 5 8 8 5 S t.q.b C u.c.` D +.z.D.z.` D +.s.N.W.[.s.~ D +.s.B.B.s.+.D ~ s._.W.N.s.+.D ` z.D.z.+.D ` v.u.C b q.t.S 5 8 8 5 C 6._._.-.4 @ ",
"@ 4 -._._.7.C 5 8 8 5 S t.q.C h X.,.Y ` z.H.z.$.Y ` z.[._.N.g.$.Y ` g.[.W.W.[.z.` Y $.g.N._.[.z.` K $.z.H.z.` Y ,.X.h C q.t.S 5 8 8 5 C 6._._.-.4 @ ",
"@ 4 -._._.7.C 5 8 8 5 S t.t.A i h R ,.c.H.z.] Y $.z.S.[.[.s.` Y $.z.S._.E.E._.S.z.$.Y ` s.[.[.S.z.$.Y ] z.H.v.,.R h i A t.t.S 5 8 8 5 C 6._._.-.4 @ ",
"@ 4 -._._.7.C 5 8 8 5 S t.t.A ; * h X.u.t.| s d  .t.q.6.q.| d d  .t.q.5.5.5.5.q.t. .d d | q.6.q.t. .d s | t.u.X.h * ; A t.t.S 5 8 8 5 C 6._._.-.4 @ ",
"@ 4 -._._.6.C 5 8 8 5 S t.t.C ; ; i h C b f t y h M b c b f t y h C b c c c c b C h y t f b c b M h y t f M C h i ; ; C t.t.S 5 8 8 5 C 7._._.-.4 @ ",
"@ 4 -._._.7.C 5 8 8 5 S u.c.} C A A C M b C A A C b M M M C A A C M M M M M M M M C A A C M M M b C A A C M M C A A C } c.u.S 5 8 8 5 C 7._._.-.4 @ ",
"@ 4 -._._.7.C 5 8 8 5 A t.D.c.t.t.t.q.q.q.q.t.t.q.q.q.q.q.q.t.t.q.q.q.q.q.q.q.q.q.q.t.t.q.q.q.q.q.q.t.t.q.q.q.q.t.t.t.c.D.t.A 5 8 8 5 C 7._._.-.4 @ ",
"@ 4 -._._.7.C 5 8 8 8 z X.t.u.t.t.t.t.t.t.t.t.t.t.t.t.t.t.t.t.t.t.t.t.t.t.t.t.t.t.t.t.t.t.t.t.t.t.t.t.t.t.t.t.t.t.t.t.u.t.X.z 8 8 8 5 C 7._._.-.4 @ ",
"@ 4 -._._.7.C 5 8 e 8 a z A S S S S S S S S S S S S S S S S S S S S S S S S S S S S S S S S S S S S S S S S S S S S S S A z a 8 e 8 5 C 7._._.-.4 @ ",
"@ 4 -._._.7.C 5 8 r r 8 8 5 5 5 5 5 5 5 5 5 5 5 5 5 5 5 5 5 5 5 5 5 5 5 5 5 5 5 5 5 5 5 5 5 5 5 5 5 5 5 5 5 5 5 5 5 5 5 5 8 8 r r 8 5 C 7._._.-.4 @ ",
"@ 4 -._._.7.C 5 8 r r e 8 8 8 8 8 8 8 8 8 8 8 8 8 8 8 8 8 8 8 8 8 8 8 8 8 8 8 8 8 8 8 8 8 8 8 8 8 8 8 8 8 8 8 8 8 8 8 8 8 8 e r r 8 5 C 7._._.-.4 @ ",
"@ 4 -._._.6.b < < 8 8 8 8 8 8 8 8 8 8 8 8 8 8 8 8 8 8 8 8 8 8 8 8 8 8 8 8 8 8 8 8 8 8 8 8 8 8 8 8 8 8 8 8 8 8 8 8 8 8 8 8 8 8 8 8 < < b 7._._.-.4 @ ",
"@ 4 -._._.6.b , < 5 5 5 5 5 5 5 5 5 5 5 5 5 5 5 5 5 5 5 5 5 5 5 5 5 5 5 5 5 5 5 5 5 5 5 5 5 5 5 5 5 5 5 5 5 5 5 5 5 5 5 5 5 5 5 5 < , b 6._._.-.4 @ ",
"@ w ;.[._.a.' b b C C C C C C C C C C C C C C C C C C C C C C C C C C C C C C C C C C C C C C C C C C C C C C C C C C C C C C C C b b ] s._.[.;.w @ ",
"@ w :.[.!.n.s.5.6.7.7.7.7.7.7.7.7.7.7.7.7.7.7.7.7.7.7.7.7.7.7.7.7.7.7.7.7.7.7.7.7.7.7.7.7.7.7.7.7.7.7.7.7.7.7.7.7.7.7.7.7.7.7.7.7.7.6.s.n.!.|.:.w @ ",
"@ 3 ! y.M.!._._._._._._._._._._._._._._._._._._._._._._._._._._._._._._._._._._._._._._._._._._._._._._._._._._._._._._._._._._._._._._.!.M.y.! 3 @ ",
"# % 2 J y.|.[._._._._._._._._._._._._._._._._._._._._._._._._._._._._._._._._._._._._._._._._._._._._._._._._._._._._._._._._._._._._.[.|.y.J 2 % # ",
"$ @ . 2 ! :.;.-.-.-.-.-.-.-.-.-.-.-.-.-.-.-.-.-.-.-.-.-.-.-.-.-.-.-.-.-.-.-.-.-.-.-.-.-.-.-.-.-.-.-.-.-.-.-.-.-.-.-.-.-.-.-.-.-.-.-.-.;.:.! 2 . @ $ ",
"    @ % 3 w w 4 4 4 4 4 4 4 4 4 4 4 4 4 4 4 4 4 4 4 4 4 4 4 4 4 4 4 4 4 4 4 4 4 4 4 4 4 4 4 4 4 4 4 4 4 4 4 4 4 4 4 4 4 4 4 4 4 4 4 4 w w 3 % @     ",
"    $ # @ @ @ @ @ @ @ @ @ @ @ @ @ @ @ @ @ @ @ @ @ @ @ @ @ @ @ @ @ @ @ @ @ @ @ @ @ @ @ @ @ @ @ @ @ @ @ @ @ @ @ @ @ @ @ @ @ @ @ @ @ @ @ @ @ @ # $     "
};
