/* XPM */
static char *clubs_6[] = {
/* columns rows colors chars-per-pixel */
"74 104 163 2 ",
"   c None",
".  c #1B0029",
"X  c #1C002A",
"o  c #1D002A",
"O  c #1D002B",
"+  c #1E002B",
"@  c #1E002C",
"#  c #1F002C",
"$  c #20002D",
"%  c #20012D",
"&  c #21012D",
"*  c #21012E",
"=  c #21022E",
"-  c #22032F",
";  c #23032F",
":  c #230430",
">  c #250531",
",  c #250631",
"<  c #250632",
"1  c #260732",
"2  c #270833",
"3  c #2A0B36",
"4  c #2B0C36",
"5  c #2B0D37",
"6  c #2F113A",
"7  c #30123B",
"8  c #30133B",
"9  c #31133B",
"0  c #31133C",
"q  c #32143C",
"w  c #32153D",
"e  c #33153D",
"r  c #43284B",
"t  c #452A4D",
"y  c #462B4D",
"u  c #462B4E",
"i  c #462C4E",
"p  c #472D4F",
"a  c #482E50",
"s  c #492F50",
"d  c #4A2F51",
"f  c #4A3051",
"g  c #4B3152",
"h  c #4C3152",
"j  c #4C3253",
"k  c #4D3454",
"l  c #4F3555",
"z  c #503756",
"x  c #523857",
"c  c #523858",
"v  c #533A58",
"b  c #533A59",
"n  c #543B59",
"m  c #543B5A",
"M  c #553C5A",
"N  c #553C5B",
"B  c #553D5B",
"V  c #563D5B",
"C  c #563E5B",
"Z  c #573E5C",
"A  c #573F5C",
"S  c #583F5D",
"D  c #58405D",
"F  c #59405D",
"G  c #59415E",
"H  c #5A425E",
"J  c #5A425F",
"K  c #5B435F",
"L  c #766277",
"P  c #7B677B",
"I  c #7B687B",
"U  c #7D6A7D",
"Y  c #7F6C7E",
"T  c #806C7F",
"R  c #806D7F",
"E  c #816E80",
"W  c #826F81",
"Q  c #837182",
"!  c #847282",
"~  c #978893",
"^  c #9B8B96",
"/  c #9B8C96",
"(  c #9C8C97",
")  c #9D8E98",
"_  c #9E8F99",
"`  c #9F9099",
"'  c #A0919A",
"]  c #A1939B",
"[  c #A2949C",
"{  c #AC9FA4",
"}  c #B2A5AA",
"|  c #C0B5B6",
" . c #C0B6B6",
".. c #C1B6B6",
"X. c #C1B7B7",
"o. c #C2B8B7",
"O. c #C2B8B8",
"+. c #C3B9B8",
"@. c #C3B9B9",
"#. c #C3BAB9",
"$. c #C4BAB9",
"%. c #C4BBBA",
"&. c #C5BBBA",
"*. c #C5BCBA",
"=. c #C6BCBB",
"-. c #C6BDBB",
";. c #C7BDBB",
":. c #C7BDBC",
">. c #C7BEBC",
",. c #C8BEBC",
"<. c #C8BFBD",
"1. c #CAC1BE",
"2. c #CBC2BF",
"3. c #CCC3C0",
"4. c #CEC5C2",
"5. c #CFC7C3",
"6. c #D0C7C3",
"7. c #D0C8C3",
"8. c #D0C8C4",
"9. c #D1C9C4",
"0. c #D1CAC5",
"q. c #D2CAC5",
"w. c #D3CBC6",
"e. c #D3CCC6",
"r. c #D4CCC7",
"t. c #D5CDC7",
"y. c #D5CEC8",
"u. c #D6CEC8",
"i. c #D7CFC9",
"p. c #D7D0C9",
"a. c #DBD5CD",
"s. c #E9E4D9",
"d. c #EAE5DA",
"f. c #EAE6DA",
"g. c #EBE7DB",
"h. c #ECE8DC",
"j. c #EFEADE",
"k. c #EFEBDE",
"l. c #F1EDDF",
"z. c #F1EEE0",
"x. c #F5F2E3",
"c. c #F6F3E4",
"v. c #F7F4E5",
"b. c #F8F5E6",
"n. c #F8F6E6",
"m. c #F9F6E7",
"M. c #F9F7E7",
"N. c #FAF7E7",
"B. c #FAF8E8",
"V. c #FBF8E8",
"C. c #FBF9E8",
"Z. c #FBF9E9",
"A. c #FCF9E9",
"S. c #FCFAE9",
"D. c #FDFBEA",
"F. c #FEFCEA",
"G. c #FEFCEB",
"H. c #FFFDEB",
"J. c #FFFDEC",
"K. c #FFFEEC",
"L. c #FFFEED",
"P. c #FFFFED",
"I. c #FFFFEE",
/* pixels */
"    2 < ; ; ; ; ; ; ; ; ; ; ; ; ; ; ; ; ; ; ; ; ; ; ; ; ; ; ; ; ; ; ; ; ; ; ; ; ; ; ; ; ; ; ; ; ; ; ; ; ; ; ; ; ; ; ; ; ; ; ; ; ; ; ; ; ; ; < 2     ",
"    ; 8 g G G S S S S A S S S S S S S S S S S A S S S S S S S S S S S A S S S S S S S S S S S A S S S S S S S S S S S A S S S S S S S G G g 8 ;     ",
"2 ; # a ^ *.$.o.o.X.X.X.X.X.X.X.o.o.X.o.X.X.X.X.X.X.X.X.o.o.o.o.X.X.X.X.X.X.X.X.o.o.o.o.X.X.X.X.X.X.X.X.o.o.o.o.X.X.X.X.X.X.X.X.o.o.o.$.*.^ a # ; 2 ",
"< 8 a E t.K.K.G.G.G.G.G.D.G.G.D.D.Z.Z.Z.Z.Z.Z.Z.Z.Z.Z.Z.Z.Z.Z.Z.Z.Z.Z.Z.Z.Z.Z.Z.Z.Z.Z.Z.Z.Z.Z.Z.Z.Z.Z.Z.Z.Z.Z.Z.Z.Z.Z.Z.Z.Z.Z.Z.Z.Z.Z.D.G.t.E a 8 < ",
"; g ^ t.j.Z.D.G.G.G.G.G.G.G.G.D.Z.N.N.N.N.N.N.N.N.N.N.N.N.N.N.N.N.N.N.N.N.N.N.N.N.N.N.N.N.N.N.N.N.N.N.N.N.N.N.N.N.N.N.N.N.N.N.N.N.N.N.N.Z.j.t.^ g ; ",
"; G *.K.Z.s.8.+.+.+.o.X.X.X.X.4.s.v.v.c.c.c.c.c.c.c.c.c.c.c.c.c.c.c.c.c.c.c.c.c.c.c.c.c.c.c.c.c.c.c.c.c.c.c.c.c.c.c.c.c.c.c.c.c.c.c.c.c.c.Z.G.*.G ; ",
"; G $.K.D.7.Y N A S N m m b z I 4.N.N.c.c.c.c.c.c.c.c.c.c.c.c.c.c.c.c.c.c.c.c.c.c.c.c.c.c.c.c.c.c.c.c.c.c.c.c.c.c.c.c.c.c.c.c.c.c.c.c.c.c.N.D.$.G ; ",
"; S o.G.G.+.N X X 6 g G S N b U 6.N.N.c.c.c.c.c.c.c.c.c.c.c.c.c.c.c.c.c.c.c.c.c.c.c.c.c.c.c.c.c.c.c.c.c.c.c.c.c.c.c.c.c.c.c.c.c.c.c.c.c.c.N.Z.o.S ; ",
"; S o.G.G.+.A X X g ` 1.<.$.$.8.s.v.v.c.c.c.c.c.c.c.c.c.c.c.c.c.c.c.c.c.c.c.c.c.c.c.c.c.c.c.c.c.c.c.c.c.c.c.c.c.c.c.c.c.c.c.c.c.c.c.c.c.c.N.Z.o.A ; ",
"; S o.G.G.$.G ; ; k ' 1.<.*.>.t.s.v.c.c.c.v.N.N.N.N.N.N.v.c.c.c.c.c.c.c.c.c.c.c.c.c.c.c.c.v.N.N.N.N.N.N.v.c.c.c.c.c.c.c.c.c.c.c.c.c.c.c.c.N.Z.o.A ; ",
"; S X.G.G.$.G ; ; e h G S N A E 8.N.N.c.c.v.N.Z.Z.Z.Z.N.v.c.c.c.c.c.c.c.c.c.c.c.c.c.c.c.c.v.N.Z.Z.Z.Z.N.v.c.c.c.c.c.c.c.c.c.c.c.c.c.c.c.c.N.Z.o.A ; ",
"; S X.G.G.$.G ; ; e h G G p 3 m o.Z.N.v.v.s.8.+.+.+.+.8.s.v.v.c.c.c.c.c.c.c.c.c.c.c.c.v.v.s.7.+.+.+.+.8.s.v.v.c.c.c.c.c.c.c.c.c.c.c.c.c.c.N.Z.o.A ; ",
"; S X.G.G.$.G ; ; k ` 3.3.( u b X.Z.N.N.N.7.Y N A A N Y 8.N.N.c.c.c.c.c.c.c.c.c.c.c.c.N.N.8.Y N A A N Y 8.N.N.c.c.c.c.c.c.c.c.c.c.c.c.c.c.N.Z.X.A ; ",
"; S X.G.G.+.A X X g ` 3.3.( u b X.Z.N.N.Z.+.N X # # X N +.Z.N.c.c.c.c.c.c.c.c.c.c.c.c.N.Z.+.N X # # X N +.Z.N.c.c.c.c.c.c.c.c.c.c.c.c.c.c.N.Z.X.A ; ",
"; S X.G.G.+.N X X 6 g G G p 3 m +.Z.N.N.Z.+.A # ; ; # A +.Z.N.c.c.c.c.c.c.c.c.c.c.c.c.N.Z.+.A # ; ; # A +.Z.N.c.c.c.c.c.c.c.c.c.c.c.c.c.c.N.Z.X.A ; ",
"; A X.D.D.8.Y N G G G A A N N Y 7.Z.Z.D.G.*.A ; : : ; A *.G.D.N.v.c.c.c.c.c.c.c.c.v.N.D.G.*.A ; : : ; A *.G.D.N.v.c.c.c.c.c.c.c.c.c.c.c.c.N.Z.X.A ; ",
"; S X.Z.N.s.6.$.>.<.*.*.*.$.+.8.s.N.Z.G.K.*.N # ; ; # A *.K.G.N.v.c.c.c.c.c.c.c.c.v.N.G.K.*.N X ; ; X N *.K.G.N.v.c.c.c.c.c.c.c.c.c.c.c.c.N.Z.o.S ; ",
"; S X.Z.N.N.Z.j.i.<.<.<.<.i.j.D.N.s.8.$.*.{ L h 0 8 h L { *.$.8.s.v.v.c.c.c.c.v.v.s.8.$.*.{ L h 8 8 h L { *.$.8.s.v.v.c.c.c.c.c.c.c.c.c.c.N.Z.o.S ; ",
"; S o.Z.N.N.D.8.E G G G G E 8.G.D.8.Y m m L } [ h h [ } L m m Y 8.N.N.c.c.c.c.N.N.8.Y m m L } [ h h [ } L m b U 8.N.N.c.c.c.c.c.c.c.c.c.c.N.Z.o.S ; ",
"; S X.Z.N.N.D.$.N X # # X N *.K.K.+.N . . h [ ' h h ' [ h . . N +.Z.N.c.c.c.c.N.Z.+.N . . h [ ' h h ' [ h . . N +.Z.N.c.c.c.c.c.c.c.c.c.c.N.Z.o.S ; ",
"; S o.Z.N.Z.G.>.S # ; ; # S >.K.K.+.A # ; e h h e e h h 8 ; # A +.Z.N.c.c.c.c.N.Z.+.A # ; 0 h h e e h h 8 ; X A +.Z.N.c.c.c.c.c.c.c.c.c.c.N.Z.o.S ; ",
"; S o.D.B.j.t.) h : < < : h ) p.z.$.S # ; 8 a a e e a a 8 ; X A +.Z.N.c.c.c.c.N.Z.+.A # ; 8 a a e e a a 8 ; # A +.Z.N.c.c.c.c.c.c.c.c.c.c.N.Z.o.S ; ",
"; S X.D.D.8.R a 8 < < < < 8 a Q i.*.S . . g ) ) g g ) ) g . . N +.Z.N.c.c.c.c.N.Z.+.N . X g ` ) g g ) ) g . . N +.Z.N.c.c.c.c.c.c.c.c.c.c.N.Z.o.S ; ",
"; S o.G.G.o.b . ; < < < < ; . N *.i.E b b ! a.1.G G 1.a.! b b Y 8.N.N.c.c.c.c.N.N.8.Y b b ! a.1.G G 1.a.! b b Y 8.N.N.c.c.c.c.c.c.c.c.c.c.N.Z.o.S ; ",
"; S X.G.G.+.b . X : < < < # . m +.j.e.+.o.i.x.<.A A <.x.i.o.o.7.s.v.v.c.c.c.c.v.v.s.7.o.o.i.x.<.A A <.x.i.o.+.8.s.v.v.c.c.c.c.c.c.c.c.c.c.N.Z.o.A ; ",
"; S X.D.D.8.Y A G l e e l G A Y 7.Z.D.D.D.j.8.~ u u ~ 8.j.D.D.N.v.c.c.c.c.c.c.c.c.v.N.D.D.j.8.~ u u ~ 8.j.D.D.N.v.c.c.c.c.c.c.c.c.c.c.c.c.N.Z.o.A ; ",
"; S X.Z.Z.s.7.*.1.' g g ' 1.*.7.s.N.N.D.D.8.U r 5 5 r U 8.D.D.N.v.c.c.c.c.c.c.c.c.v.N.D.D.8.U r 5 5 r U 8.D.D.N.v.c.c.c.c.c.c.c.c.c.c.c.c.N.Z.o.A ; ",
"; A X.Z.N.N.Z.l.i./ p p / i.l.Z.N.c.c.N.N.4.P x N N x P 4.N.N.c.c.c.c.c.c.c.c.c.c.c.c.N.N.4.P x N N x P 4.N.N.c.c.c.c.c.c.c.c.c.c.c.c.c.c.N.Z.o.A ; ",
"; S X.Z.N.N.D.8.R u 5 5 u Y 8.D.N.c.c.v.v.s.4.X.+.+.X.4.s.v.v.c.c.c.c.c.c.c.c.c.c.c.c.v.v.s.4.X.+.+.X.4.s.v.v.c.c.c.c.c.c.c.c.c.c.c.c.c.c.N.Z.X.A ; ",
"; S X.Z.N.N.N.4.P x N N x P 4.N.N.c.c.c.c.v.N.Z.Z.Z.Z.N.v.c.c.c.c.c.c.c.c.c.c.c.c.c.c.c.c.v.N.Z.Z.Z.Z.N.v.c.c.c.c.c.c.c.c.c.c.c.c.c.c.c.c.N.Z.X.A ; ",
"; S X.Z.N.v.v.s.4.X.+.+.X.4.s.v.v.c.c.c.c.v.N.N.N.N.N.N.v.c.c.c.c.c.c.c.c.c.c.c.c.c.c.c.c.v.N.N.N.N.N.N.v.c.c.c.c.c.c.c.c.c.c.c.c.c.c.c.c.N.Z.X.A ; ",
"; S X.Z.N.c.c.v.N.Z.Z.Z.Z.N.v.c.c.c.c.c.c.c.c.c.c.c.c.c.c.c.c.c.c.c.c.c.c.c.c.c.c.c.c.c.c.c.c.c.c.c.c.c.c.c.c.c.c.c.c.c.c.c.c.c.c.c.c.c.c.N.Z.X.A ; ",
"; S o.Z.N.c.c.v.N.N.N.N.N.N.v.c.c.c.c.c.c.c.c.c.c.c.c.c.c.c.c.c.c.c.c.c.c.c.c.c.c.c.c.c.c.c.c.c.c.c.c.c.c.c.c.c.c.c.c.c.c.c.c.c.c.c.c.c.c.N.Z.o.S ; ",
"; S o.Z.N.c.c.c.c.c.c.c.c.c.c.c.c.c.c.c.c.c.c.c.c.c.c.c.c.c.c.c.c.c.c.c.c.c.c.c.c.c.c.c.c.c.c.c.c.c.c.c.c.c.c.c.c.c.c.c.c.c.c.c.c.c.c.c.c.N.Z.o.S ; ",
"; S o.Z.N.c.c.c.c.c.c.c.c.c.c.c.c.c.c.c.c.c.c.c.c.c.c.c.c.c.c.c.c.c.c.c.c.c.c.c.c.c.c.c.c.c.c.c.c.c.c.c.c.c.c.c.c.c.c.c.c.c.c.c.c.c.c.c.c.N.Z.o.S ; ",
"; S o.Z.N.c.c.c.c.c.c.c.c.c.c.c.c.c.c.c.c.c.c.c.c.c.c.c.c.c.c.c.c.c.c.c.c.c.c.c.c.c.c.c.c.c.c.c.c.c.c.c.c.c.c.c.c.c.c.c.c.c.c.c.c.c.c.c.c.N.Z.o.S ; ",
"; S X.Z.N.c.c.c.c.c.c.c.c.c.c.c.c.c.c.c.c.c.c.c.c.c.c.c.c.c.c.c.c.c.c.c.c.c.c.c.c.c.c.c.c.c.c.c.c.c.c.c.c.c.c.c.c.c.c.c.c.c.c.c.c.c.c.c.c.N.Z.o.S ; ",
"; S X.Z.N.c.c.c.c.c.c.c.c.c.c.c.c.c.c.c.c.c.c.c.c.c.c.c.c.c.c.c.c.c.c.c.c.c.c.c.c.c.c.c.c.c.c.c.c.c.c.c.c.c.c.c.c.c.c.c.c.c.c.c.c.c.c.c.c.N.Z.o.S ; ",
"; S X.Z.N.c.c.c.c.c.c.c.c.c.c.c.c.c.c.c.c.c.c.c.c.c.c.c.c.c.c.c.c.c.c.c.c.c.c.c.c.c.c.c.c.c.c.c.c.c.c.c.c.c.c.c.c.c.c.c.c.c.c.c.c.c.c.c.c.N.Z.o.S ; ",
"; A X.Z.N.c.c.c.c.c.c.c.c.c.c.c.c.c.c.c.c.c.c.c.c.c.c.c.c.c.c.c.c.c.c.c.c.c.c.c.c.c.c.c.c.c.c.c.c.c.c.c.c.c.c.c.c.c.c.c.c.c.c.c.c.c.c.c.c.N.Z.o.S ; ",
"; S X.Z.N.c.c.c.c.c.c.c.c.c.c.c.c.c.c.c.c.c.c.c.c.c.c.c.c.c.c.c.c.c.c.c.c.c.c.c.c.c.c.c.c.c.c.c.c.c.c.c.c.c.c.c.c.c.c.c.c.c.c.c.c.c.c.c.c.N.Z.o.A ; ",
"; S X.Z.N.c.c.c.c.c.c.c.c.c.c.c.c.c.c.c.c.v.N.N.N.N.N.N.v.c.c.c.c.c.c.c.c.c.c.c.c.c.c.c.c.v.N.N.N.N.N.N.v.c.c.c.c.c.c.c.c.c.c.c.c.c.c.c.c.N.Z.o.A ; ",
"; S X.Z.N.c.c.c.c.c.c.c.c.c.c.c.c.c.c.c.c.v.N.Z.Z.Z.Z.N.v.c.c.c.c.c.c.c.c.c.c.c.c.c.c.c.c.v.N.Z.Z.Z.Z.N.v.c.c.c.c.c.c.c.c.c.c.c.c.c.c.c.c.N.Z.o.A ; ",
"; S X.Z.N.c.c.c.c.c.c.c.c.c.c.c.c.c.c.v.v.s.8.+.+.+.+.7.s.v.v.c.c.c.c.c.c.c.c.c.c.c.c.v.v.s.7.+.+.+.+.8.s.v.v.c.c.c.c.c.c.c.c.c.c.c.c.c.c.N.Z.o.A ; ",
"; S o.Z.N.c.c.c.c.c.c.c.c.c.c.c.c.c.c.N.N.8.Y N A A N Y 8.N.N.c.c.c.c.c.c.c.c.c.c.c.c.N.N.8.Y N A A N Y 8.N.N.c.c.c.c.c.c.c.c.c.c.c.c.c.c.N.Z.X.A ; ",
"; S o.Z.N.c.c.c.c.c.c.c.c.c.c.c.c.c.c.N.Z.+.N X # # X N +.Z.N.c.c.c.c.c.c.c.c.c.c.c.c.N.Z.+.N X # # X N +.Z.N.c.c.c.c.c.c.c.c.c.c.c.c.c.c.N.Z.X.A ; ",
"; S o.Z.N.c.c.c.c.c.c.c.c.c.c.c.c.c.c.N.Z.+.A # ; ; # A +.Z.N.c.c.c.c.c.c.c.c.c.c.c.c.N.Z.+.A # ; ; # A +.Z.N.c.c.c.c.c.c.c.c.c.c.c.c.c.c.N.Z.X.A ; ",
"; S o.Z.N.c.c.c.c.c.c.c.c.c.c.c.c.v.N.D.G.*.A ; : : ; A *.G.D.N.v.c.c.c.c.c.c.c.c.v.N.D.G.*.A ; : : ; A *.G.D.N.v.c.c.c.c.c.c.c.c.c.c.c.c.N.Z.X.A ; ",
"; S X.Z.N.c.c.c.c.c.c.c.c.c.c.c.c.v.N.G.K.*.A # ; ; # A *.K.G.N.v.c.c.c.c.c.c.c.c.v.N.G.K.*.N X ; ; X N *.K.G.N.v.c.c.c.c.c.c.c.c.c.c.c.c.N.Z.o.S ; ",
"; S X.Z.N.c.c.c.c.c.c.c.c.c.c.v.v.s.8.$.*.{ L h e 0 h L { *.$.8.s.v.v.c.c.c.c.v.v.s.8.$.*.{ L h 8 8 h L { *.$.8.s.v.v.c.c.c.c.c.c.c.c.c.c.N.Z.o.S ; ",
"; S X.Z.N.c.c.c.c.c.c.c.c.c.c.N.N.8.Y m m L } [ h h [ } L m b U 8.N.N.c.c.c.c.N.N.8.Y m m L } [ h h [ } L m b U 8.N.N.c.c.c.c.c.c.c.c.c.c.N.Z.o.S ; ",
"; A X.Z.N.c.c.c.c.c.c.c.c.c.c.N.Z.+.N . . h [ ' h h ' [ h . . N +.Z.N.c.c.c.c.N.Z.+.N . . h [ ' h h ' [ h . . N +.Z.N.c.c.c.c.c.c.c.c.c.c.N.Z.o.S ; ",
"; S X.Z.N.c.c.c.c.c.c.c.c.c.c.N.Z.+.A X ; 0 h h e e h h 8 ; X A +.Z.N.c.c.c.c.N.Z.+.A # ; 0 h h e e h h 8 ; X A +.Z.N.c.c.c.c.c.c.c.c.c.c.N.Z.o.S ; ",
"; S X.Z.N.c.c.c.c.c.c.c.c.c.c.N.Z.+.A # ; 8 a g e e a a 8 ; # A +.Z.N.c.c.c.c.N.Z.+.A # ; 8 a a e e a a 8 ; # A +.Z.N.c.c.c.c.c.c.c.c.c.c.N.Z.o.S ; ",
"; S X.Z.N.c.c.c.c.c.c.c.c.c.c.N.Z.+.N . . g ` ) g g ) ` g . . N +.Z.N.c.c.c.c.N.Z.+.N . X g ` ) g g ) ) g . . N +.Z.N.c.c.c.c.c.c.c.c.c.c.N.Z.o.S ; ",
"; S X.Z.N.c.c.c.c.c.c.c.c.c.c.N.N.8.Y b b ! a.1.G G 1.a.! b b Y 8.N.N.c.c.c.c.N.N.8.Y b b ! a.1.G G 1.a.! b b Y 8.N.N.c.c.c.c.c.c.c.c.c.c.N.Z.o.S ; ",
"; S o.Z.N.c.c.c.c.c.c.c.c.c.c.v.v.s.7.o.o.i.x.<.A A <.x.i.o.+.8.s.v.v.c.c.c.c.v.v.s.7.o.o.i.x.<.A A <.x.i.o.+.8.s.v.v.c.c.c.c.c.c.c.c.c.c.N.Z.o.S ; ",
"; S o.Z.N.c.c.c.c.c.c.c.c.c.c.c.c.v.N.D.D.j.8.~ u u ~ 8.j.D.D.N.v.c.c.c.c.c.c.c.c.v.N.D.D.j.8.~ u u ~ 8.j.D.D.N.v.c.c.c.c.c.c.c.c.c.c.c.c.N.Z.o.S ; ",
"; S o.Z.N.c.c.c.c.c.c.c.c.c.c.c.c.v.N.D.D.8.U r 5 5 r U 8.D.D.N.v.c.c.c.c.c.c.c.c.v.N.D.D.8.U r 5 5 r U 8.D.D.N.v.c.c.c.c.c.c.c.c.c.c.c.c.N.Z.o.S ; ",
"; S o.Z.N.c.c.c.c.c.c.c.c.c.c.c.c.c.c.N.N.4.P x N N x P 4.N.N.c.c.c.c.c.c.c.c.c.c.c.c.N.N.4.P x N N x P 4.N.N.c.c.c.c.c.c.c.c.c.c.c.c.c.c.N.Z.o.S ; ",
"; S X.Z.N.c.c.c.c.c.c.c.c.c.c.c.c.c.c.v.v.s.4.X.+.+.X.4.s.v.v.c.c.c.c.c.c.c.c.c.c.c.c.v.v.s.4.X.+.+.X.4.s.v.v.c.c.c.c.c.c.c.c.c.c.c.c.c.c.N.Z.X.S ; ",
"; S X.Z.N.c.c.c.c.c.c.c.c.c.c.c.c.c.c.c.c.v.N.Z.Z.Z.Z.N.v.c.c.c.c.c.c.c.c.c.c.c.c.c.c.c.c.v.N.Z.Z.Z.Z.N.v.c.c.c.c.c.c.c.c.c.c.c.c.c.c.c.c.N.Z.X.S ; ",
"; S X.Z.N.c.c.c.c.c.c.c.c.c.c.c.c.c.c.c.c.v.N.N.N.N.N.N.v.c.c.c.c.c.c.c.c.c.c.c.c.c.c.c.c.v.N.N.N.N.N.N.v.c.c.c.c.c.c.c.c.c.c.c.c.c.c.c.c.N.Z.X.A ; ",
"; A X.Z.N.c.c.c.c.c.c.c.c.c.c.c.c.c.c.c.c.c.c.c.c.c.c.c.c.c.c.c.c.c.c.c.c.c.c.c.c.c.c.c.c.c.c.c.c.c.c.c.c.c.c.c.c.c.c.c.c.c.c.c.c.c.c.c.c.N.Z.X.A ; ",
"; S X.Z.N.c.c.c.c.c.c.c.c.c.c.c.c.c.c.c.c.c.c.c.c.c.c.c.c.c.c.c.c.c.c.c.c.c.c.c.c.c.c.c.c.c.c.c.c.c.c.c.c.c.c.c.c.c.c.c.c.c.c.c.c.c.c.c.c.N.Z.o.A ; ",
"; S X.Z.N.c.c.c.c.c.c.c.c.c.c.c.c.c.c.c.c.c.c.c.c.c.c.c.c.c.c.c.c.c.c.c.c.c.c.c.c.c.c.c.c.c.c.c.c.c.c.c.c.c.c.c.c.c.c.c.c.c.c.c.c.c.c.c.c.N.Z.o.A ; ",
"; S X.Z.N.c.c.c.c.c.c.c.c.c.c.c.c.c.c.c.c.c.c.c.c.c.c.c.c.c.c.c.c.c.c.c.c.c.c.c.c.c.c.c.c.c.c.c.c.c.c.c.c.c.c.c.c.c.c.c.c.c.c.c.c.c.c.c.c.N.Z.o.A ; ",
"; S X.Z.N.c.c.c.c.c.c.c.c.c.c.c.c.c.c.c.c.c.c.c.c.c.c.c.c.c.c.c.c.c.c.c.c.c.c.c.c.c.c.c.c.c.c.c.c.c.c.c.c.c.c.c.c.c.c.c.c.c.c.c.c.c.c.c.c.N.Z.o.A ; ",
"; S o.Z.N.c.c.c.c.c.c.c.c.c.c.c.c.c.c.c.c.c.c.c.c.c.c.c.c.c.c.c.c.c.c.c.c.c.c.c.c.c.c.c.c.c.c.c.c.c.c.c.c.c.c.c.c.c.c.c.c.c.c.c.c.c.c.c.c.N.Z.o.A ; ",
"; S o.Z.N.c.c.c.c.c.c.c.c.c.c.c.c.c.c.c.c.c.c.c.c.c.c.c.c.c.c.c.c.c.c.c.c.c.c.c.c.c.c.c.c.c.c.c.c.c.c.c.c.c.c.c.c.c.c.c.c.c.c.c.c.c.c.c.c.N.Z.o.A ; ",
"; S o.Z.N.c.c.c.c.c.c.c.c.c.c.c.c.c.c.c.c.c.c.c.c.c.c.c.c.c.c.c.c.c.c.c.c.c.c.c.c.c.c.c.c.c.c.c.c.c.c.c.c.c.c.c.c.c.c.c.c.c.c.c.c.c.c.c.c.N.Z.o.A ; ",
"; S o.Z.N.c.c.c.c.c.c.c.c.c.c.c.c.c.c.c.c.c.c.c.c.c.c.c.c.c.c.c.c.c.c.c.c.c.c.c.c.c.c.c.c.c.c.c.c.c.c.c.c.c.c.c.c.c.c.v.N.N.N.N.N.N.v.c.c.N.Z.o.A ; ",
"; S X.Z.N.c.c.c.c.c.c.c.c.c.c.c.c.c.c.c.c.c.c.c.c.c.c.c.c.c.c.c.c.c.c.c.c.c.c.c.c.c.c.c.c.c.c.c.c.c.c.c.c.c.c.c.c.c.c.v.N.Z.Z.Z.Z.N.v.c.c.N.Z.o.S ; ",
"; S X.Z.N.c.c.c.c.c.c.c.c.c.c.c.c.c.c.c.c.v.N.N.N.N.N.N.v.c.c.c.c.c.c.c.c.c.c.c.c.c.c.c.c.v.N.N.N.N.N.N.v.c.c.c.c.v.v.s.4.X.+.+.X.4.s.v.v.N.Z.o.S ; ",
"; S X.Z.N.c.c.c.c.c.c.c.c.c.c.c.c.c.c.c.c.v.N.Z.Z.Z.Z.N.v.c.c.c.c.c.c.c.c.c.c.c.c.c.c.c.c.v.N.Z.Z.Z.Z.N.v.c.c.c.c.N.N.4.P x N N x P 4.N.N.N.Z.o.S ; ",
"; A X.Z.N.c.c.c.c.c.c.c.c.c.c.c.c.c.c.v.v.s.4.X.+.+.X.4.s.v.v.c.c.c.c.c.c.c.c.c.c.c.c.v.v.s.4.X.+.+.X.4.s.v.v.c.c.N.D.8.R u 5 5 u Y 8.D.N.N.Z.X.S ; ",
"; S X.Z.N.c.c.c.c.c.c.c.c.c.c.c.c.c.c.N.N.4.P x N N x P 4.N.N.c.c.c.c.c.c.c.c.c.c.c.c.N.N.4.I b N N x P 4.N.N.c.c.N.Z.l.i./ p p / i.l.Z.N.N.Z.X.S ; ",
"; S X.Z.N.c.c.c.c.c.c.c.c.c.c.c.c.v.N.D.D.8.U r 5 5 r U 8.D.D.N.v.c.c.c.c.c.c.c.c.v.N.D.D.8.U r 5 5 r U 8.D.D.N.N.s.7.*.1.` g g ' 1.*.8.s.Z.D.o.S ; ",
"; S X.Z.N.c.c.c.c.c.c.c.c.c.c.c.c.v.N.D.D.j.8.~ u u ~ 8.j.D.D.N.v.c.c.c.c.c.c.c.c.v.N.D.D.j.8.~ u u ~ 8.j.D.D.D.Z.8.Y A G l e e l G A Y 8.D.D.o.S ; ",
"; S X.Z.N.c.c.c.c.c.c.c.c.c.c.v.v.s.8.+.o.i.x.<.A A <.x.i.+.+.8.s.v.v.c.c.c.c.v.v.s.8.+.o.i.x.<.A A <.x.i.o.+.e.j.+.m . X : < < < X . b +.G.G.o.S ; ",
"; S o.Z.N.c.c.c.c.c.c.c.c.c.c.N.N.7.U b b ! a.1.G G 1.a.! b b Y 7.N.N.c.c.c.c.N.N.8.Y b b ! a.1.G G 1.a.! b b E i.*.N . ; < < < < # . b o.G.G.X.A ; ",
"; S o.Z.N.c.c.c.c.c.c.c.c.c.c.N.Z.+.N . . g ) ) g g ) ) g . . N +.Z.N.c.c.c.c.N.Z.+.N . . g ) ) g g ) ) g . . S >.i.Q a 8 < < < < 8 a R 8.D.D.X.A ; ",
"; S o.Z.N.c.c.c.c.c.c.c.c.c.c.N.Z.+.A X ; 8 a g e e a a 8 ; # A +.Z.N.c.c.c.c.N.Z.+.A X ; 8 a a e e a a 8 ; # A $.z.p.) h : < < : h ) t.j.Z.Z.X.A ; ",
"; S o.Z.N.c.c.c.c.c.c.c.c.c.c.N.Z.+.A # ; e h h e e h h 8 ; # A +.Z.N.c.c.c.c.N.Z.+.A X ; e h h e e h h 8 ; # A +.K.K.>.S # ; ; # S >.G.Z.N.Z.o.A ; ",
"; S X.Z.N.c.c.c.c.c.c.c.c.c.c.N.Z.+.N . . h [ ' h h ' [ h . . N +.Z.N.c.c.c.c.N.Z.+.N . . h [ ' h h ' [ h . . N +.K.K.*.N X # # X N *.D.N.N.Z.o.A ; ",
"; S X.Z.N.c.c.c.c.c.c.c.c.c.c.N.N.8.Y m m L } [ h h [ } L m b Y 8.N.N.c.c.c.c.N.N.8.Y m m L } [ h h [ } L m m Y 8.D.G.8.E G G G G E e.D.N.N.Z.o.A ; ",
"; S X.Z.N.c.c.c.c.c.c.c.c.c.c.v.v.s.8.$.*.{ L h e e h L { *.$.7.s.v.v.c.c.c.c.v.v.s.8.$.*.{ L h 0 0 h L { *.$.8.s.N.D.j.i.<.<.<.<.i.j.Z.N.N.Z.X.A ; ",
"; A X.Z.N.c.c.c.c.c.c.c.c.c.c.c.c.v.N.G.K.*.N # ; ; # N *.K.G.N.v.c.c.c.c.c.c.c.c.v.N.G.K.*.A # ; ; X N *.K.G.Z.N.s.8.+.$.*.*.*.<.>.$.7.s.N.Z.X.A ; ",
"; S X.Z.N.c.c.c.c.c.c.c.c.c.c.c.c.v.N.D.G.*.A ; : : ; A *.G.D.N.v.c.c.c.c.c.c.c.c.v.N.D.G.*.A ; : : ; A *.G.D.Z.Z.7.Y N N A A G G G N Y 8.D.D.X.A ; ",
"; S X.Z.N.c.c.c.c.c.c.c.c.c.c.c.c.c.c.N.Z.+.A # ; ; # A +.Z.N.c.c.c.c.c.c.c.c.c.c.c.c.N.Z.+.A # ; ; # A +.Z.N.N.Z.+.m 3 p G G g 6 X X N +.G.G.X.A ; ",
"; S X.Z.N.c.c.c.c.c.c.c.c.c.c.c.c.c.c.N.Z.+.N X # # X N +.Z.N.c.c.c.c.c.c.c.c.c.c.c.c.N.Z.+.N X # # X N +.Z.N.N.Z.X.b u ( 3.3.` g X X A +.G.G.X.A ; ",
"; S X.Z.N.c.c.c.c.c.c.c.c.c.c.c.c.c.c.N.N.8.Y N A A N Y 8.N.N.c.c.c.c.c.c.c.c.c.c.c.c.N.N.8.Y N A A N Y 8.N.N.N.Z.X.b u ( 3.3.` k ; ; G $.G.G.o.A ; ",
"; S o.Z.N.c.c.c.c.c.c.c.c.c.c.c.c.c.c.v.v.s.7.+.+.+.+.8.s.v.v.c.c.c.c.c.c.c.c.c.c.c.c.v.v.s.7.+.+.+.+.7.s.v.v.N.Z.+.m 5 p G G g e ; ; G $.G.G.o.A ; ",
"; S o.Z.N.c.c.c.c.c.c.c.c.c.c.c.c.c.c.c.c.v.N.Z.Z.Z.Z.N.v.c.c.c.c.c.c.c.c.c.c.c.c.c.c.c.c.v.N.Z.Z.Z.Z.N.v.c.c.N.N.8.E A N S G g e ; ; G $.G.G.o.A ; ",
"; S o.Z.N.c.c.c.c.c.c.c.c.c.c.c.c.c.c.c.c.v.N.N.N.N.N.N.v.c.c.c.c.c.c.c.c.c.c.c.c.c.c.c.c.v.N.N.N.N.N.N.v.c.c.v.v.s.t.>.*.<.1.` k ; ; G $.G.G.o.A ; ",
"; S o.Z.N.c.c.c.c.c.c.c.c.c.c.c.c.c.c.c.c.c.c.c.c.c.c.c.c.c.c.c.c.c.c.c.c.c.c.c.c.c.c.c.c.c.c.c.c.c.c.c.c.c.c.v.v.s.8.$.*.<.1.` g X X A +.G.G.o.A ; ",
"; S X.Z.N.c.c.c.c.c.c.c.c.c.c.c.c.c.c.c.c.c.c.c.c.c.c.c.c.c.c.c.c.c.c.c.c.c.c.c.c.c.c.c.c.c.c.c.c.c.c.c.c.c.c.N.N.6.U b N S G g 6 X X N +.G.G.o.S ; ",
"; G $.D.N.c.c.c.c.c.c.c.c.c.c.c.c.c.c.c.c.c.c.c.c.c.c.c.c.c.c.c.c.c.c.c.c.c.c.c.c.c.c.c.c.c.c.c.c.c.c.c.c.c.c.N.N.4.P z x m m N S A N U 7.D.K.$.G ; ",
"; G *.G.N.c.c.c.c.c.c.c.c.c.c.c.c.c.c.c.c.c.c.c.c.c.c.c.c.c.c.c.c.c.c.c.c.c.c.c.c.c.c.c.c.c.c.c.c.c.c.c.c.c.c.v.v.s.4.X.X.X.X.X.+.+.+.7.s.Z.K.*.G ; ",
"; g ^ t.j.B.N.N.N.N.N.N.N.N.N.N.N.N.N.N.N.N.N.N.N.N.N.N.N.N.N.N.N.N.N.N.N.N.N.N.N.N.N.N.N.N.N.N.N.N.N.N.N.N.N.N.N.B.D.G.G.G.G.G.G.G.G.D.Z.j.t.^ g ; ",
"< 8 a E t.G.D.Z.Z.Z.Z.Z.Z.Z.Z.Z.Z.Z.Z.Z.Z.Z.Z.Z.Z.Z.Z.Z.Z.Z.Z.Z.Z.Z.Z.Z.Z.Z.Z.Z.Z.Z.Z.Z.Z.Z.Z.Z.Z.Z.Z.Z.Z.Z.Z.Z.Z.D.D.G.G.G.G.G.G.G.G.K.K.t.E a 8 < ",
"2 ; # a ^ *.$.o.X.X.X.X.o.o.o.o.X.X.X.X.X.X.o.o.o.o.o.X.X.X.X.o.o.o.X.X.X.X.o.o.X.X.X.X.o.o.o.o.X.X.X.X.X.X.o.o.o.o.X.o.X.X.o.o.o.o.o.$.*.^ a # ; 2 ",
"    ; 8 g G G S A S S S S S S S S S S S A A S S S S S S A S S S S S S S A S S S A S S S S S S S S S S S A A S S S S S S A S S S S S S G G g 8 ;     ",
"    2 < ; ; ; ; ; ; ; ; ; ; ; ; ; ; ; ; ; ; ; ; ; ; ; ; ; ; ; ; ; ; ; ; ; ; ; ; ; ; ; ; ; ; ; ; ; ; ; ; ; ; ; ; ; ; ; ; ; ; ; ; ; ; ; ; ; ; < 2     "
};
