/* XPM */
static char *clubs_3[] = {
/* columns rows colors chars-per-pixel */
"74 104 149 2 ",
"   c None",
".  c #1B0029",
"X  c #1C002A",
"o  c #1D002A",
"O  c #1D002B",
"+  c #1E002B",
"@  c #1E002C",
"#  c #1F002C",
"$  c #20002D",
"%  c #20012D",
"&  c #21012D",
"*  c #21012E",
"=  c #21022E",
"-  c #22032F",
";  c #23032F",
":  c #230430",
">  c #250531",
",  c #250631",
"<  c #250632",
"1  c #260732",
"2  c #270833",
"3  c #2B0C36",
"4  c #2B0D37",
"5  c #2F113A",
"6  c #30123B",
"7  c #30133B",
"8  c #31133B",
"9  c #31133C",
"0  c #32143C",
"q  c #32153D",
"w  c #33153D",
"e  c #43284B",
"r  c #452A4D",
"t  c #462B4D",
"y  c #462C4E",
"u  c #482E50",
"i  c #492F50",
"p  c #4A2F51",
"a  c #4A3051",
"s  c #4B3152",
"d  c #4C3152",
"f  c #4C3253",
"g  c #4D3454",
"h  c #4F3555",
"j  c #503756",
"k  c #513857",
"l  c #523857",
"z  c #523858",
"x  c #533A58",
"c  c #533A59",
"v  c #543B59",
"b  c #543B5A",
"n  c #553C5A",
"m  c #553D5B",
"M  c #563D5B",
"N  c #563E5B",
"B  c #573E5C",
"V  c #573F5C",
"C  c #583F5D",
"Z  c #58405D",
"A  c #59405D",
"S  c #59415E",
"D  c #5A425E",
"F  c #5A425F",
"G  c #5B435F",
"H  c #766277",
"J  c #7B677B",
"K  c #7B687B",
"L  c #7D6A7D",
"P  c #7F6C7E",
"I  c #806C7F",
"U  c #806D7F",
"Y  c #816E80",
"T  c #826F81",
"R  c #847282",
"E  c #978893",
"W  c #9B8B96",
"Q  c #9B8C96",
"!  c #9D8E98",
"~  c #9E8F99",
"^  c #9F9099",
"/  c #A0919A",
"(  c #A1939B",
")  c #A2949C",
"_  c #AC9FA4",
"`  c #B2A5AA",
"'  c #C0B5B6",
"]  c #C0B6B6",
"[  c #C1B6B6",
"{  c #C1B7B7",
"}  c #C2B8B7",
"|  c #C2B8B8",
" . c #C3B9B8",
".. c #C3B9B9",
"X. c #C3BAB9",
"o. c #C4BAB9",
"O. c #C4BBBA",
"+. c #C5BBBA",
"@. c #C5BCBA",
"#. c #C6BCBB",
"$. c #C6BDBB",
"%. c #C7BDBC",
"&. c #C7BEBC",
"*. c #C8BEBC",
"=. c #C8BFBD",
"-. c #CAC1BE",
";. c #CBC2BF",
":. c #CEC5C2",
">. c #CFC7C3",
",. c #D0C7C3",
"<. c #D0C8C3",
"1. c #D0C8C4",
"2. c #D1C9C4",
"3. c #D1CAC5",
"4. c #D2CAC5",
"5. c #D3CBC6",
"6. c #D3CCC6",
"7. c #D4CCC7",
"8. c #D5CDC7",
"9. c #D5CEC8",
"0. c #D7CFC9",
"q. c #DBD5CD",
"w. c #E9E4D9",
"e. c #EAE5DA",
"r. c #EAE6DA",
"t. c #ECE8DC",
"y. c #EFEADE",
"u. c #EFEBDE",
"i. c #F1EDDF",
"p. c #F5F2E3",
"a. c #F6F3E4",
"s. c #F7F4E5",
"d. c #F8F5E6",
"f. c #F8F6E6",
"g. c #F9F6E7",
"h. c #F9F7E7",
"j. c #FAF7E7",
"k. c #FAF8E8",
"l. c #FBF8E8",
"z. c #FBF9E8",
"x. c #FBF9E9",
"c. c #FCF9E9",
"v. c #FCFAE9",
"b. c #FDFBEA",
"n. c #FEFCEA",
"m. c #FEFCEB",
"M. c #FFFDEB",
"N. c #FFFEEC",
"B. c #FFFEED",
/* pixels */
"    2 < ; ; ; ; ; ; ; ; ; ; ; ; ; ; ; ; ; ; ; ; ; ; ; ; ; ; ; ; ; ; ; ; ; ; ; ; ; ; ; ; ; ; ; ; ; ; ; ; ; ; ; ; ; ; ; ; ; ; ; ; ; ; ; ; ; ; < 2     ",
"    ; 7 s S S C C C C V C C C C C C C C C C C V C C C C C C C C C C C V C C C C C C C C C C C V C C C C C C C C C C C V C C C C C C C S S s 7 ;     ",
"2 ; # u W @.o.} } ' ' ' ' ' } ' } } ' ' ' ' ' ' ' ' } ' } } } } ' ' ' ' ' ' } ' } } } } ' ' ' ' ' ' } ' } } } } ' ' ' ' ' ' } ' } } } o.@.W u # ; 2 ",
"< 7 u Y 8.N.N.m.m.m.m.m.m.m.m.b.b.x.x.x.x.x.x.x.x.x.x.x.x.x.x.x.x.x.x.x.x.x.x.x.x.x.x.x.x.x.x.x.x.x.x.x.x.x.x.x.x.x.x.x.x.x.x.x.x.x.x.b.m.8.Y u 7 < ",
"; s W 8.y.x.b.m.m.m.m.m.m.m.m.b.x.j.j.j.j.j.j.j.j.j.j.j.j.j.j.j.j.j.j.j.j.j.j.j.j.j.j.j.j.j.j.j.j.j.j.j.j.j.j.j.j.j.j.j.j.j.j.j.j.j.j.j.x.y.8.W s ; ",
"; S @.N.x.w.>.' ' ' ' } ......1.w.s.s.a.a.a.a.a.a.a.a.a.a.a.a.a.a.a.a.a.a.a.a.a.a.a.a.a.a.a.a.a.a.a.a.a.a.a.a.a.a.a.a.a.a.a.a.a.a.a.a.a.a.x.m.@.S ; ",
"; S o.N.b.>.J j c b b m C V m P <.j.j.a.a.a.a.a.a.a.a.a.a.a.a.a.a.a.a.a.a.a.a.a.a.a.a.a.a.a.a.a.a.a.a.a.a.a.a.a.a.a.a.a.a.a.a.a.a.a.a.a.a.j.b.o.S ; ",
"; C } b.b.,.L c m S S s 5 X X m ..x.j.a.a.a.a.a.a.a.a.a.a.a.a.a.a.a.a.a.a.a.a.a.a.a.a.a.a.a.a.a.a.a.a.a.a.a.a.a.a.a.a.a.a.a.a.a.a.a.a.a.a.j.x.} C ; ",
"; C ..b.x.w.1.o.o.=.-.^ s X X V ..x.j.a.a.a.a.a.a.a.a.a.a.a.a.a.a.a.a.a.a.a.a.a.a.a.a.a.a.a.a.a.a.a.a.a.a.a.a.a.a.a.a.a.a.a.a.a.a.a.a.a.a.j.x.} V ; ",
"; C } b.x.w.1.o.@.=.-.^ g ; ; S o.x.j.a.a.a.a.a.a.a.a.a.a.a.a.a.a.s.j.j.j.j.j.j.s.a.a.a.a.a.a.a.a.a.a.a.a.a.a.a.a.a.a.a.a.a.a.a.a.a.a.a.a.j.x.} V ; ",
"; C } b.b.<.L c m S S s w ; ; S o.x.j.a.a.a.a.a.a.a.a.a.a.a.a.a.a.s.j.x.x.x.x.j.s.a.a.a.a.a.a.a.a.a.a.a.a.a.a.a.a.a.a.a.a.a.a.a.a.a.a.a.a.j.x.} V ; ",
"; C } b.b.<.L c m S S s w ; ; S o.x.j.a.a.a.a.a.a.a.a.a.a.a.a.s.s.w.1.........<.w.s.s.a.a.a.a.a.a.a.a.a.a.a.a.a.a.a.a.a.a.a.a.a.a.a.a.a.a.j.x.} V ; ",
"; C ' x.x.w.1.o.@.=.-./ g ; ; S o.x.j.a.a.a.a.a.a.a.a.a.a.a.a.j.j.1.P m V V m P 1.j.j.a.a.a.a.a.a.a.a.a.a.a.a.a.a.a.a.a.a.a.a.a.a.a.a.a.a.j.x.' V ; ",
"; C ' x.x.w.1.o.@.=.-.^ s X X m ..x.j.a.a.a.a.a.a.a.a.a.a.a.a.j.x...m X # # X m ..x.j.a.a.a.a.a.a.a.a.a.a.a.a.a.a.a.a.a.a.a.a.a.a.a.a.a.a.j.x.' V ; ",
"; C ' b.b.,.L c m S S s 5 X X m ..x.j.a.a.a.a.a.a.a.a.a.a.a.a.j.x...V # ; ; # V ..x.j.a.a.a.a.a.a.a.a.a.a.a.a.a.a.a.a.a.a.a.a.a.a.a.a.a.a.j.x.' V ; ",
"; V ' b.b.>.J k b V V S S S m L 1.j.j.a.a.a.a.a.a.a.a.a.a.s.j.b.m.@.V ; : : ; V @.m.b.j.s.a.a.a.a.a.a.a.a.a.a.a.a.a.a.a.a.a.a.a.a.a.a.a.a.j.x.' V ; ",
"; C ' x.j.w.>.' o.@.@.@.=.&.o.1.w.s.s.a.a.a.a.a.a.a.a.a.a.s.j.m.N.@.m # ; ; # m @.N.m.j.s.a.a.a.a.a.a.a.a.a.a.a.a.a.a.a.a.a.a.a.a.a.a.a.a.j.x.} C ; ",
"; C ' x.j.j.x.y.0.=.=.=.=.0.y.x.j.a.a.a.a.a.a.a.a.a.a.s.s.w.1.o.@._ H f 9 7 f H _ @.o.1.w.s.s.a.a.a.a.a.a.a.a.a.a.a.a.a.a.a.a.a.a.a.a.a.a.j.x.} C ; ",
"; S } x.j.j.b.1.Y S S S S Y 1.b.j.a.a.a.a.a.a.a.a.a.a.j.j.1.P b b H ` ) f f ) ` H b c P <.j.j.a.a.a.a.a.a.a.a.a.a.a.a.a.a.a.a.a.a.a.a.a.a.j.x.} C ; ",
"; C } x.j.j.b.@.m X # # X m @.b.x.a.a.a.a.a.a.a.a.a.a.j.x...m . . f ) / f f / ) f . . m ..x.j.a.a.a.a.a.a.a.a.a.a.a.a.a.a.a.a.a.a.a.a.a.a.j.x.} C ; ",
"; C } x.j.x.m.&.C # ; ; # C &.m.x.a.a.a.a.a.a.a.a.a.a.j.x...V # ; 9 f f w w f f 9 ; # V ..x.j.a.a.a.a.a.a.a.a.a.a.a.a.a.a.a.a.a.a.a.a.a.a.j.x.} C ; ",
"; C } b.k.y.8.! f : < < : f ! 8.y.s.s.a.a.a.a.a.a.a.a.j.x...V # ; 7 u s w w u u 7 ; # V ..x.j.a.a.a.a.a.a.a.a.a.a.a.a.a.a.a.a.a.a.a.a.a.a.j.x.} C ; ",
"; C ' b.b.1.U u 7 < < < < 7 u U 1.j.j.a.a.a.a.a.a.a.a.j.x...m . . s ! ! s s ! ! s . . m ..x.j.a.a.a.a.a.a.a.a.a.a.a.a.a.a.a.a.a.a.a.a.a.a.j.x.} C ; ",
"; C ' m.m.} c . ; < < < < ; . c ..x.j.a.a.a.a.a.a.a.a.j.j.<.P c c R q.-.S S -.q.R c c P 1.j.j.a.a.a.a.a.a.a.a.a.a.a.a.a.a.a.a.a.a.a.a.a.a.j.x.} C ; ",
"; C ' m.m...c . X : < < < # . c ..x.j.a.a.a.a.a.a.a.a.s.s.w.<.} } 0.p.=.V V =.p.0.} } <.w.s.s.a.a.a.a.a.a.a.a.a.a.a.a.a.a.a.a.a.a.a.a.a.a.j.x.} V ; ",
"; C ' b.b.1.P V S h w w h S V P <.j.j.a.a.a.a.a.a.a.a.a.a.s.j.b.b.y.1.E t t E 1.y.b.b.j.s.a.a.a.a.a.a.a.a.a.a.a.a.a.a.a.a.a.a.a.a.a.a.a.a.j.x.} V ; ",
"; C ' x.x.w.<.@.-./ s s / -.@.1.w.s.s.a.a.a.a.a.a.a.a.a.a.s.j.b.b.1.L e 4 4 e L 1.b.b.j.s.a.a.a.a.a.a.a.a.a.a.a.a.a.a.a.a.a.a.a.a.a.a.a.a.j.x.} V ; ",
"; C ' x.j.j.x.i.0.Q y y Q 0.i.x.j.a.a.a.a.a.a.a.a.a.a.a.a.a.a.j.j.>.J k m m k K >.j.j.a.a.a.a.a.a.a.a.a.a.a.a.a.a.a.a.a.a.a.a.a.a.a.a.a.a.j.x.} V ; ",
"; C ' x.j.j.b.1.U t 4 4 t P 1.b.j.a.a.a.a.a.a.a.a.a.a.a.a.a.a.s.s.w.>.' ....' >.w.s.s.a.a.a.a.a.a.a.a.a.a.a.a.a.a.a.a.a.a.a.a.a.a.a.a.a.a.j.x.' V ; ",
"; S ' x.j.j.j.>.J k m m k J >.j.j.a.a.a.a.a.a.a.a.a.a.a.a.a.a.a.a.s.j.x.x.x.x.j.s.a.a.a.a.a.a.a.a.a.a.a.a.a.a.a.a.a.a.a.a.a.a.a.a.a.a.a.a.j.x.' V ; ",
"; C } x.j.s.s.w.>.' ....' >.w.s.s.a.a.a.a.a.a.a.a.a.a.a.a.a.a.a.a.s.j.j.j.j.j.j.s.a.a.a.a.a.a.a.a.a.a.a.a.a.a.a.a.a.a.a.a.a.a.a.a.a.a.a.a.j.x.' V ; ",
"; C ' x.j.a.a.s.j.x.x.x.x.j.s.a.a.a.a.a.a.a.a.a.a.a.a.a.a.a.a.a.a.a.a.a.a.a.a.a.a.a.a.a.a.a.a.a.a.a.a.a.a.a.a.a.a.a.a.a.a.a.a.a.a.a.a.a.a.j.x.' V ; ",
"; C } x.j.a.a.s.j.j.j.j.j.j.s.a.a.a.a.a.a.a.a.a.a.a.a.a.a.a.a.a.a.a.a.a.a.a.a.a.a.a.a.a.a.a.a.a.a.a.a.a.a.a.a.a.a.a.a.a.a.a.a.a.a.a.a.a.a.j.x.} C ; ",
"; C } x.j.a.a.a.a.a.a.a.a.a.a.a.a.a.a.a.a.a.a.a.a.a.a.a.a.a.a.a.a.a.a.a.a.a.a.a.a.a.a.a.a.a.a.a.a.a.a.a.a.a.a.a.a.a.a.a.a.a.a.a.a.a.a.a.a.j.x.} C ; ",
"; C } x.j.a.a.a.a.a.a.a.a.a.a.a.a.a.a.a.a.a.a.a.a.a.a.a.a.a.a.a.a.a.a.a.a.a.a.a.a.a.a.a.a.a.a.a.a.a.a.a.a.a.a.a.a.a.a.a.a.a.a.a.a.a.a.a.a.j.x.} C ; ",
"; C } x.j.a.a.a.a.a.a.a.a.a.a.a.a.a.a.a.a.a.a.a.a.a.a.a.a.a.a.a.a.a.a.a.a.a.a.a.a.a.a.a.a.a.a.a.a.a.a.a.a.a.a.a.a.a.a.a.a.a.a.a.a.a.a.a.a.j.x.} C ; ",
"; C ' x.j.a.a.a.a.a.a.a.a.a.a.a.a.a.a.a.a.a.a.a.a.a.a.a.a.a.a.a.a.a.a.a.a.a.a.a.a.a.a.a.a.a.a.a.a.a.a.a.a.a.a.a.a.a.a.a.a.a.a.a.a.a.a.a.a.j.x.} C ; ",
"; C ' x.j.a.a.a.a.a.a.a.a.a.a.a.a.a.a.a.a.a.a.a.a.a.a.a.a.a.a.a.a.a.a.a.a.a.a.a.a.a.a.a.a.a.a.a.a.a.a.a.a.a.a.a.a.a.a.a.a.a.a.a.a.a.a.a.a.j.x.} C ; ",
"; C ' x.j.a.a.a.a.a.a.a.a.a.a.a.a.a.a.a.a.a.a.a.a.a.a.a.a.a.a.a.a.a.a.a.a.a.a.a.a.a.a.a.a.a.a.a.a.a.a.a.a.a.a.a.a.a.a.a.a.a.a.a.a.a.a.a.a.j.x.} C ; ",
"; V ' x.j.a.a.a.a.a.a.a.a.a.a.a.a.a.a.a.a.a.a.a.a.a.a.a.a.a.a.a.a.a.a.a.a.a.a.a.a.a.a.a.a.a.a.a.a.a.a.a.a.a.a.a.a.a.a.a.a.a.a.a.a.a.a.a.a.j.x.} C ; ",
"; C ' x.j.a.a.a.a.a.a.a.a.a.a.a.a.a.a.a.a.a.a.a.a.a.a.a.a.a.a.a.a.a.a.a.a.a.a.a.a.a.a.a.a.a.a.a.a.a.a.a.a.a.a.a.a.a.a.a.a.a.a.a.a.a.a.a.a.j.x.} V ; ",
"; C ' x.j.a.a.a.a.a.a.a.a.a.a.a.a.a.a.a.a.a.a.a.a.a.a.a.a.a.a.a.a.s.j.j.j.j.j.j.s.a.a.a.a.a.a.a.a.a.a.a.a.a.a.a.a.a.a.a.a.a.a.a.a.a.a.a.a.j.x.} V ; ",
"; C } x.j.a.a.a.a.a.a.a.a.a.a.a.a.a.a.a.a.a.a.a.a.a.a.a.a.a.a.a.a.s.j.x.x.x.x.j.s.a.a.a.a.a.a.a.a.a.a.a.a.a.a.a.a.a.a.a.a.a.a.a.a.a.a.a.a.j.x.} V ; ",
"; C ' x.j.a.a.a.a.a.a.a.a.a.a.a.a.a.a.a.a.a.a.a.a.a.a.a.a.a.a.s.s.w.1.........<.w.s.s.a.a.a.a.a.a.a.a.a.a.a.a.a.a.a.a.a.a.a.a.a.a.a.a.a.a.j.x.} V ; ",
"; C } x.j.a.a.a.a.a.a.a.a.a.a.a.a.a.a.a.a.a.a.a.a.a.a.a.a.a.a.j.j.1.P m V V m P 1.j.j.a.a.a.a.a.a.a.a.a.a.a.a.a.a.a.a.a.a.a.a.a.a.a.a.a.a.j.x.' V ; ",
"; C } x.j.a.a.a.a.a.a.a.a.a.a.a.a.a.a.a.a.a.a.a.a.a.a.a.a.a.a.j.x...m X # # X m ..x.j.a.a.a.a.a.a.a.a.a.a.a.a.a.a.a.a.a.a.a.a.a.a.a.a.a.a.j.x.' V ; ",
"; C } x.j.a.a.a.a.a.a.a.a.a.a.a.a.a.a.a.a.a.a.a.a.a.a.a.a.a.a.j.x...V # ; ; # V ..x.j.a.a.a.a.a.a.a.a.a.a.a.a.a.a.a.a.a.a.a.a.a.a.a.a.a.a.j.x.' V ; ",
"; C } x.j.a.a.a.a.a.a.a.a.a.a.a.a.a.a.a.a.a.a.a.a.a.a.a.a.s.j.b.m.@.V ; : : ; V @.m.b.j.s.a.a.a.a.a.a.a.a.a.a.a.a.a.a.a.a.a.a.a.a.a.a.a.a.j.x.' V ; ",
"; C ' x.j.a.a.a.a.a.a.a.a.a.a.a.a.a.a.a.a.a.a.a.a.a.a.a.a.s.j.m.N.@.m # ; ; # m @.N.m.j.s.a.a.a.a.a.a.a.a.a.a.a.a.a.a.a.a.a.a.a.a.a.a.a.a.j.x.} C ; ",
"; C ' x.j.a.a.a.a.a.a.a.a.a.a.a.a.a.a.a.a.a.a.a.a.a.a.s.s.w.1.o.@._ H f 9 7 f H _ @.o.1.w.s.s.a.a.a.a.a.a.a.a.a.a.a.a.a.a.a.a.a.a.a.a.a.a.j.x.} C ; ",
"; C ' x.j.a.a.a.a.a.a.a.a.a.a.a.a.a.a.a.a.a.a.a.a.a.a.j.j.1.P b b H ` ) f f ) ` H b c P <.j.j.a.a.a.a.a.a.a.a.a.a.a.a.a.a.a.a.a.a.a.a.a.a.j.x.} C ; ",
"; V ' x.j.a.a.a.a.a.a.a.a.a.a.a.a.a.a.a.a.a.a.a.a.a.a.j.x...m . . f ) / f f / ) f . . m ..x.j.a.a.a.a.a.a.a.a.a.a.a.a.a.a.a.a.a.a.a.a.a.a.j.x.} C ; ",
"; C ' x.j.a.a.a.a.a.a.a.a.a.a.a.a.a.a.a.a.a.a.a.a.a.a.j.x...V X ; 9 f f w w f f 9 ; # V ..x.j.a.a.a.a.a.a.a.a.a.a.a.a.a.a.a.a.a.a.a.a.a.a.j.x.} C ; ",
"; C ' x.j.a.a.a.a.a.a.a.a.a.a.a.a.a.a.a.a.a.a.a.a.a.a.j.x...V X ; 7 u s w w u u 7 ; # V ..x.j.a.a.a.a.a.a.a.a.a.a.a.a.a.a.a.a.a.a.a.a.a.a.j.x.} C ; ",
"; C } x.j.a.a.a.a.a.a.a.a.a.a.a.a.a.a.a.a.a.a.a.a.a.a.j.x...m . . s ! ! s s ! ! s . . m ..x.j.a.a.a.a.a.a.a.a.a.a.a.a.a.a.a.a.a.a.a.a.a.a.j.x.} C ; ",
"; C ' x.j.a.a.a.a.a.a.a.a.a.a.a.a.a.a.a.a.a.a.a.a.a.a.j.j.<.P c c R q.-.S S -.q.R c c P 1.j.j.a.a.a.a.a.a.a.a.a.a.a.a.a.a.a.a.a.a.a.a.a.a.j.x.} C ; ",
"; C } x.j.a.a.a.a.a.a.a.a.a.a.a.a.a.a.a.a.a.a.a.a.a.a.s.s.w.1...} 0.p.=.V V =.p.0.} } <.w.s.s.a.a.a.a.a.a.a.a.a.a.a.a.a.a.a.a.a.a.a.a.a.a.j.x.} C ; ",
"; C } x.j.a.a.a.a.a.a.a.a.a.a.a.a.a.a.a.a.a.a.a.a.a.a.a.a.s.j.b.b.y.1.E t t E 1.y.b.b.j.s.a.a.a.a.a.a.a.a.a.a.a.a.a.a.a.a.a.a.a.a.a.a.a.a.j.x.} C ; ",
"; C } x.j.a.a.a.a.a.a.a.a.a.a.a.a.a.a.a.a.a.a.a.a.a.a.a.a.s.j.b.b.1.L e 4 4 e L 1.b.b.j.s.a.a.a.a.a.a.a.a.a.a.a.a.a.a.a.a.a.a.a.a.a.a.a.a.j.x.} C ; ",
"; C } x.j.a.a.a.a.a.a.a.a.a.a.a.a.a.a.a.a.a.a.a.a.a.a.a.a.a.a.j.j.>.J k m m k K >.j.j.a.a.a.a.a.a.a.a.a.a.a.a.a.a.a.a.a.a.a.a.a.a.a.a.a.a.j.x.} C ; ",
"; C ' x.j.a.a.a.a.a.a.a.a.a.a.a.a.a.a.a.a.a.a.a.a.a.a.a.a.a.a.s.s.w.>.' ....' >.w.s.s.a.a.a.a.a.a.a.a.a.a.a.a.a.a.a.a.a.a.a.a.a.a.a.a.a.a.j.x.' C ; ",
"; C ' x.j.a.a.a.a.a.a.a.a.a.a.a.a.a.a.a.a.a.a.a.a.a.a.a.a.a.a.a.a.s.j.x.x.x.x.j.s.a.a.a.a.a.a.a.a.a.a.a.a.a.a.a.a.a.a.a.a.a.a.a.a.a.a.a.a.j.x.' C ; ",
"; C ' x.j.a.a.a.a.a.a.a.a.a.a.a.a.a.a.a.a.a.a.a.a.a.a.a.a.a.a.a.a.s.j.j.j.j.j.j.s.a.a.a.a.a.a.a.a.a.a.a.a.a.a.a.a.a.a.a.a.a.a.a.a.a.a.a.a.j.x.' V ; ",
"; V ' x.j.a.a.a.a.a.a.a.a.a.a.a.a.a.a.a.a.a.a.a.a.a.a.a.a.a.a.a.a.a.a.a.a.a.a.a.a.a.a.a.a.a.a.a.a.a.a.a.a.a.a.a.a.a.a.a.a.a.a.a.a.a.a.a.a.j.x.' V ; ",
"; C ' x.j.a.a.a.a.a.a.a.a.a.a.a.a.a.a.a.a.a.a.a.a.a.a.a.a.a.a.a.a.a.a.a.a.a.a.a.a.a.a.a.a.a.a.a.a.a.a.a.a.a.a.a.a.a.a.a.a.a.a.a.a.a.a.a.a.j.x.} V ; ",
"; C ' x.j.a.a.a.a.a.a.a.a.a.a.a.a.a.a.a.a.a.a.a.a.a.a.a.a.a.a.a.a.a.a.a.a.a.a.a.a.a.a.a.a.a.a.a.a.a.a.a.a.a.a.a.a.a.a.a.a.a.a.a.a.a.a.a.a.j.x.} V ; ",
"; C } x.j.a.a.a.a.a.a.a.a.a.a.a.a.a.a.a.a.a.a.a.a.a.a.a.a.a.a.a.a.a.a.a.a.a.a.a.a.a.a.a.a.a.a.a.a.a.a.a.a.a.a.a.a.a.a.a.a.a.a.a.a.a.a.a.a.j.x.} V ; ",
"; C ' x.j.a.a.a.a.a.a.a.a.a.a.a.a.a.a.a.a.a.a.a.a.a.a.a.a.a.a.a.a.a.a.a.a.a.a.a.a.a.a.a.a.a.a.a.a.a.a.a.a.a.a.a.a.a.a.a.a.a.a.a.a.a.a.a.a.j.x.} V ; ",
"; C } x.j.a.a.a.a.a.a.a.a.a.a.a.a.a.a.a.a.a.a.a.a.a.a.a.a.a.a.a.a.a.a.a.a.a.a.a.a.a.a.a.a.a.a.a.a.a.a.a.a.a.a.a.a.a.a.a.a.a.a.a.a.a.a.a.a.j.x.} V ; ",
"; C } x.j.a.a.a.a.a.a.a.a.a.a.a.a.a.a.a.a.a.a.a.a.a.a.a.a.a.a.a.a.a.a.a.a.a.a.a.a.a.a.a.a.a.a.a.a.a.a.a.a.a.a.a.a.a.a.a.a.a.a.a.a.a.a.a.a.j.x.} V ; ",
"; C } x.j.a.a.a.a.a.a.a.a.a.a.a.a.a.a.a.a.a.a.a.a.a.a.a.a.a.a.a.a.a.a.a.a.a.a.a.a.a.a.a.a.a.a.a.a.a.a.a.a.a.a.a.a.a.a.a.a.a.a.a.a.a.a.a.a.j.x.} V ; ",
"; C } x.j.a.a.a.a.a.a.a.a.a.a.a.a.a.a.a.a.a.a.a.a.a.a.a.a.a.a.a.a.a.a.a.a.a.a.a.a.a.a.a.a.a.a.a.a.a.a.a.a.a.a.a.a.a.a.s.j.j.j.j.j.j.s.a.a.j.x.} V ; ",
"; C ' x.j.a.a.a.a.a.a.a.a.a.a.a.a.a.a.a.a.a.a.a.a.a.a.a.a.a.a.a.a.a.a.a.a.a.a.a.a.a.a.a.a.a.a.a.a.a.a.a.a.a.a.a.a.a.a.s.j.x.x.x.x.j.s.a.a.j.x.} C ; ",
"; C ' x.j.a.a.a.a.a.a.a.a.a.a.a.a.a.a.a.a.a.a.a.a.a.a.a.a.a.a.a.a.s.j.j.j.j.j.j.s.a.a.a.a.a.a.a.a.a.a.a.a.a.a.a.a.s.s.w.>.' ....' >.w.s.s.j.x.} C ; ",
"; C ' x.j.a.a.a.a.a.a.a.a.a.a.a.a.a.a.a.a.a.a.a.a.a.a.a.a.a.a.a.a.s.j.x.x.x.x.j.s.a.a.a.a.a.a.a.a.a.a.a.a.a.a.a.a.j.j.>.J k m m k J >.j.j.j.x.} C ; ",
"; V ' x.j.a.a.a.a.a.a.a.a.a.a.a.a.a.a.a.a.a.a.a.a.a.a.a.a.a.a.s.s.w.>.' ....' >.w.s.s.a.a.a.a.a.a.a.a.a.a.a.a.a.a.j.b.1.U t 4 4 t P 1.b.j.j.x.' C ; ",
"; C ' x.j.a.a.a.a.a.a.a.a.a.a.a.a.a.a.a.a.a.a.a.a.a.a.a.a.a.a.j.j.>.J k m m k J >.j.j.a.a.a.a.a.a.a.a.a.a.a.a.a.a.j.x.i.0.Q y y Q 0.i.x.j.j.x.' C ; ",
"; C ' x.j.a.a.a.a.a.a.a.a.a.a.a.a.a.a.a.a.a.a.a.a.a.a.a.a.s.j.b.b.1.L e 4 4 e L 1.b.b.j.s.a.a.a.a.a.a.a.a.a.a.s.s.w.<.@.-./ s s / -.@.1.w.x.b.} C ; ",
"; C } x.j.a.a.a.a.a.a.a.a.a.a.a.a.a.a.a.a.a.a.a.a.a.a.a.a.s.j.b.b.y.1.E t t E 1.y.b.b.j.s.a.a.a.a.a.a.a.a.a.a.j.j.1.P V S h w w h S V P 1.b.b.} C ; ",
"; C ' x.j.a.a.a.a.a.a.a.a.a.a.a.a.a.a.a.a.a.a.a.a.a.a.s.s.w.1...} 0.p.=.V V =.p.0.....1.w.s.s.a.a.a.a.a.a.a.a.j.x...c . X : < < < X . c ..m.m.} C ; ",
"; C } x.j.a.a.a.a.a.a.a.a.a.a.a.a.a.a.a.a.a.a.a.a.a.a.j.j.1.P c c R q.-.S S -.q.R c c P 1.j.j.a.a.a.a.a.a.a.a.j.x.} c . ; < < < < # . c } m.m.' V ; ",
"; C } x.j.a.a.a.a.a.a.a.a.a.a.a.a.a.a.a.a.a.a.a.a.a.a.j.x...m . . s ! ! s s ! ! s . . m ..x.j.a.a.a.a.a.a.a.a.j.j.1.U u 7 < < < < 7 u U 1.b.b.' V ; ",
"; C } x.j.a.a.a.a.a.a.a.a.a.a.a.a.a.a.a.a.a.a.a.a.a.a.j.x...V X ; 7 u s w w u u 7 ; # V ..x.j.a.a.a.a.a.a.a.a.s.s.y.8.! f : < < : f ! 8.y.x.x.' V ; ",
"; C } x.j.a.a.a.a.a.a.a.a.a.a.a.a.a.a.a.a.a.a.a.a.a.a.j.x...V X ; w f f w w f f 7 ; # V ..x.j.a.a.a.a.a.a.a.a.a.a.x.m.&.C # ; ; # C &.N.x.j.x.} V ; ",
"; C ' x.j.a.a.a.a.a.a.a.a.a.a.a.a.a.a.a.a.a.a.a.a.a.a.j.x...m . . f ) / f f / ) f . . m ..x.j.a.a.a.a.a.a.a.a.a.a.j.b.@.m X # # X m @.b.j.j.x.} V ; ",
"; C ' x.j.a.a.a.a.a.a.a.a.a.a.a.a.a.a.a.a.a.a.a.a.a.a.j.j.1.P b b H ` ) f f ) ` H b c L 1.j.j.a.a.a.a.a.a.a.a.a.a.j.b.1.Y S S S S Y 6.b.j.j.x.} V ; ",
"; C ' x.j.a.a.a.a.a.a.a.a.a.a.a.a.a.a.a.a.a.a.a.a.a.a.s.s.w.1.o.@._ H f 9 9 f H _ @.o.<.w.s.s.a.a.a.a.a.a.a.a.a.a.j.x.y.0.=.=.=.=.0.y.x.j.j.x.' V ; ",
"; V ' x.j.a.a.a.a.a.a.a.a.a.a.a.a.a.a.a.a.a.a.a.a.a.a.a.a.s.j.m.N.@.m # ; ; X m @.N.m.j.s.a.a.a.a.a.a.a.a.a.a.s.s.w.<.o.&.=.&.@.@.o.' >.w.j.x.' V ; ",
"; C ' x.j.a.a.a.a.a.a.a.a.a.a.a.a.a.a.a.a.a.a.a.a.a.a.a.a.s.j.b.m.@.V ; : : # V @.m.b.j.s.a.a.a.a.a.a.a.a.a.a.j.j.<.L m S S S V V b k K >.b.b.} V ; ",
"; C ' x.j.a.a.a.a.a.a.a.a.a.a.a.a.a.a.a.a.a.a.a.a.a.a.a.a.a.a.j.x...V # ; ; # V ..x.j.a.a.a.a.a.a.a.a.a.a.a.a.j.x...m X X 5 s S S m c L <.b.b...V ; ",
"; C } x.j.a.a.a.a.a.a.a.a.a.a.a.a.a.a.a.a.a.a.a.a.a.a.a.a.a.a.j.x...m X # # X m ..x.j.a.a.a.a.a.a.a.a.a.a.a.a.j.x...V X X s ^ -.=.o.o.1.w.x.b.} V ; ",
"; C ' x.j.a.a.a.a.a.a.a.a.a.a.a.a.a.a.a.a.a.a.a.a.a.a.a.a.a.a.j.j.1.P m V V m P <.j.j.a.a.a.a.a.a.a.a.a.a.a.a.j.x.o.S ; ; g ^ -.=.o.o.1.w.x.b.} V ; ",
"; C } x.j.a.a.a.a.a.a.a.a.a.a.a.a.a.a.a.a.a.a.a.a.a.a.a.a.a.a.s.s.w.<.........1.w.s.s.a.a.a.a.a.a.a.a.a.a.a.a.j.x.o.S ; ; w s S C m c L ,.b.b.} V ; ",
"; C } x.j.a.a.a.a.a.a.a.a.a.a.a.a.a.a.a.a.a.a.a.a.a.a.a.a.a.a.a.a.s.j.x.x.x.x.j.s.a.a.a.a.a.a.a.a.a.a.a.a.a.a.j.x.o.S ; ; w s S S m c L ,.b.b.} V ; ",
"; C } x.j.a.a.a.a.a.a.a.a.a.a.a.a.a.a.a.a.a.a.a.a.a.a.a.a.a.a.a.a.s.j.j.j.j.j.j.s.a.a.a.a.a.a.a.a.a.a.a.a.a.a.j.x.o.S ; ; g ^ -.=.@.o.1.w.x.x.} V ; ",
"; C } x.j.a.a.a.a.a.a.a.a.a.a.a.a.a.a.a.a.a.a.a.a.a.a.a.a.a.a.a.a.a.a.a.a.a.a.a.a.a.a.a.a.a.a.a.a.a.a.a.a.a.a.j.x...V X X s ^ -.=.@.o.1.w.x.x.} V ; ",
"; C ' x.j.a.a.a.a.a.a.a.a.a.a.a.a.a.a.a.a.a.a.a.a.a.a.a.a.a.a.a.a.a.a.a.a.a.a.a.a.a.a.a.a.a.a.a.a.a.a.a.a.a.a.j.x...m X X 5 s S S m c L ,.b.b.} C ; ",
"; S o.b.j.a.a.a.a.a.a.a.a.a.a.a.a.a.a.a.a.a.a.a.a.a.a.a.a.a.a.a.a.a.a.a.a.a.a.a.a.a.a.a.a.a.a.a.a.a.a.a.a.a.a.j.j.<.P m V C m b b c j J >.m.N.o.S ; ",
"; S @.m.j.a.a.a.a.a.a.a.a.a.a.a.a.a.a.a.a.a.a.a.a.a.a.a.a.a.a.a.a.a.a.a.a.a.a.a.a.a.a.a.a.a.a.a.a.a.a.a.a.a.a.s.s.w.<.......} ' ' ' ' >.w.x.N.@.S ; ",
"; s W 8.y.k.j.j.j.j.j.j.j.j.j.j.j.j.j.j.j.j.j.j.j.j.j.j.j.j.j.j.j.j.j.j.j.j.j.j.j.j.j.j.j.j.j.j.j.j.j.j.j.j.j.j.j.k.b.m.m.m.m.m.m.m.m.b.x.y.8.W s ; ",
"< 7 u Y 8.m.b.x.x.x.x.x.x.x.x.x.x.x.x.x.x.x.x.x.x.x.x.x.x.x.x.x.x.x.x.x.x.x.x.x.x.x.x.x.x.x.x.x.x.x.x.x.x.x.x.x.x.b.b.m.m.m.m.m.m.m.m.N.N.8.Y u 7 < ",
"2 ; # u W @.o.} ' ' ' ' } } } } ' ' ' ' ' } } } } } } ' ' ' } } } } ' ' ' ' } } ' ' ' ' } } } } ' ' ' ' ' } } } } } } } ' ' } } } } } o.@.W u # ; 2 ",
"    ; 7 s S S C V C C C C C C C C C C C V V C C C C C C V C C C C C C C C C C C V C C C C C C C C C C C V V C C C C C C V C C C C C C S S s 7 ;     ",
"    2 < ; ; ; ; ; ; ; ; ; ; ; ; ; ; ; ; ; ; ; ; ; ; ; ; ; ; ; ; ; ; ; ; ; ; ; ; ; ; ; ; ; ; ; ; ; ; ; ; ; ; ; ; ; ; ; ; ; ; ; ; ; ; ; ; ; ; < 2     "
};
