/* XPM */
static char *clubs_ace[] = {
/* columns rows colors chars-per-pixel */
"74 104 175 2 ",
"   c None",
".  c #1A0028",
"X  c #1B0029",
"o  c #1C0029",
"O  c #1C002A",
"+  c #1D002A",
"@  c #1D002B",
"#  c #1E002B",
"$  c #1E002C",
"%  c #1F002C",
"&  c #1F002D",
"*  c #20002D",
"=  c #20012D",
"-  c #21012D",
";  c #21012E",
":  c #21022E",
">  c #22022F",
",  c #22032F",
"<  c #23032F",
"1  c #230430",
"2  c #240430",
"3  c #250531",
"4  c #250631",
"5  c #250632",
"6  c #260732",
"7  c #270833",
"8  c #290B35",
"9  c #2A0B36",
"0  c #2B0D37",
"q  c #2D0F38",
"w  c #2E1039",
"e  c #2F113A",
"r  c #2F123A",
"t  c #30133B",
"y  c #31133B",
"u  c #32143C",
"i  c #32153D",
"p  c #33153D",
"a  c #35173F",
"s  c #43284B",
"d  c #452A4D",
"f  c #462B4D",
"g  c #462B4E",
"h  c #462C4E",
"j  c #472D4F",
"k  c #482E50",
"l  c #492F50",
"z  c #4A2F51",
"x  c #4A3051",
"c  c #4B3152",
"v  c #4C3152",
"b  c #4C3253",
"n  c #4D3353",
"m  c #4D3454",
"M  c #4F3555",
"N  c #503656",
"B  c #503756",
"V  c #513757",
"C  c #513857",
"Z  c #523857",
"A  c #533A58",
"S  c #533A59",
"D  c #543B59",
"F  c #543B5A",
"G  c #553C5A",
"H  c #553C5B",
"J  c #553D5B",
"K  c #563D5B",
"L  c #563E5C",
"P  c #573E5C",
"I  c #573F5C",
"U  c #583F5D",
"Y  c #58405D",
"T  c #59405D",
"R  c #59405E",
"E  c #59415E",
"W  c #5A425F",
"Q  c #5B435F",
"!  c #786478",
"~  c #796579",
"^  c #7B677B",
"/  c #7C687C",
"(  c #7C697C",
")  c #7F6C7E",
"_  c #806C7F",
"`  c #806D7F",
"'  c #816E80",
"]  c #816F80",
"[  c #826F81",
"{  c #837182",
"}  c #998994",
"|  c #9B8B96",
" . c #9B8C96",
".. c #9C8C97",
"X. c #9C8D97",
"o. c #9D8E98",
"O. c #9F9099",
"+. c #9F919A",
"@. c #A0919A",
"#. c #A4969E",
"$. c #A6989F",
"%. c #B0A3A8",
"&. c #B2A6AA",
"*. c #C0B5B6",
"=. c #C0B6B6",
"-. c #C1B6B6",
";. c #C1B7B7",
":. c #C2B8B7",
">. c #C2B8B8",
",. c #C3B9B8",
"<. c #C3B9B9",
"1. c #C3BAB9",
"2. c #C4BAB9",
"3. c #C4BBBA",
"4. c #C5BCBA",
"5. c #C6BCBB",
"6. c #C6BDBB",
"7. c #C7BDBB",
"8. c #C7BDBC",
"9. c #C7BEBC",
"0. c #CAC1BE",
"q. c #CAC1BF",
"w. c #CBC2BF",
"e. c #CCC3C0",
"r. c #CEC5C2",
"t. c #CFC7C2",
"y. c #CFC7C3",
"u. c #D0C8C3",
"i. c #D0C8C4",
"p. c #D1C9C4",
"a. c #D1C9C5",
"s. c #D2CAC5",
"d. c #D2CBC6",
"f. c #D3CBC6",
"g. c #D3CCC6",
"h. c #D4CCC7",
"j. c #D4CDC7",
"k. c #D5CDC7",
"l. c #D5CDC8",
"z. c #D5CEC8",
"x. c #D7CFC9",
"c. c #D9D2CB",
"v. c #E9E4D9",
"b. c #EAE5DA",
"n. c #ECE7DB",
"m. c #ECE8DC",
"M. c #EDE9DC",
"N. c #EEEADD",
"B. c #EFEADE",
"V. c #EFEBDE",
"C. c #F1EDDF",
"Z. c #F1EEE0",
"A. c #F6F3E4",
"S. c #F7F4E5",
"D. c #F8F5E5",
"F. c #F8F5E6",
"G. c #F8F6E6",
"H. c #F9F6E7",
"J. c #F9F7E7",
"K. c #FAF7E7",
"L. c #FAF8E8",
"P. c #FBF8E8",
"I. c #FBF9E8",
"U. c #FBF9E9",
"Y. c #FCF9E9",
"T. c #FCFAE9",
"R. c #FDFBEA",
"E. c #FEFCEA",
"W. c #FEFCEB",
"Q. c #FFFDEB",
"!. c #FFFDEC",
"~. c #FFFEEC",
"^. c #FFFFEE",
"/. c #FFFFEF",
"(. c #FFFFF0",
/* pixels */
"    7 5 < < < < < < < < < < < < < < < < < < < < < < < < < < < < < < < < < < < < < < < < < < < < < < < < < < < < < < < < < < < < < < < < < < 5 7     ",
"    < t c E E U U U U I U U U U U U U U I U U I U U U U U U U U U U U I U U U U U U U U U U U I U U U U U U U U U U U I U U U U U U U E E c t <     ",
"7 < & k | 4.2.:.:.;.;.;.;.;.:.;.:.:.;.:.;.;.;.;.;.;.;.;.:.:.:.:.;.;.;.;.;.;.;.;.:.:.:.:.;.;.;.;.;.;.;.;.:.:.:.:.;.;.;.;.;.;.;.;.:.:.:.2.4.| k & < 7 ",
"5 t k ' j.~.~.W.W.W.W.W.R.W.W.R.R.U.U.U.U.U.U.U.U.U.U.U.U.U.U.U.U.U.U.U.U.U.U.U.U.U.U.U.U.U.U.U.U.U.U.U.U.U.U.U.U.U.U.U.U.U.U.U.U.U.U.R.W.j.' k t 5 ",
"< c | j.B.U.R.W.W.W.W.W.W.W.W.R.U.K.K.K.K.K.K.K.K.K.K.K.K.K.K.K.K.K.K.K.K.K.K.K.K.K.K.K.K.K.K.K.K.K.K.K.K.K.K.K.K.K.K.K.K.K.K.K.K.K.K.K.U.B.j.| c < ",
"< E 4.~.U.b.i.>.;.;.;.:.>.>.>.i.b.S.S.A.A.A.A.A.A.A.A.A.A.A.A.A.A.A.A.A.A.A.A.A.A.A.A.A.A.A.A.A.A.A.A.A.A.A.A.A.A.A.A.A.A.A.A.A.A.A.A.A.A.U.W.4.E < ",
"< E 2.~.R.i.) F S F F J U I J ) i.K.K.A.A.A.A.A.A.A.A.A.A.A.A.A.A.A.A.A.A.A.A.A.A.A.A.A.A.A.A.A.A.A.A.A.A.A.A.A.A.A.A.A.A.A.A.A.A.A.A.A.A.K.R.2.E < ",
"< U :.W.W.>.F 9 j E E c e O O J >.U.K.A.A.A.A.A.A.A.A.A.A.A.A.A.A.A.A.A.A.A.A.A.A.A.A.A.A.A.A.A.A.A.A.A.A.A.A.A.A.A.A.A.A.A.A.A.A.A.A.A.A.K.U.:.U < ",
"< U :.W.W.;.S g ..e.e.O.c O O I >.U.K.A.A.A.A.A.A.A.A.A.A.A.A.A.A.A.A.A.A.A.A.A.A.A.A.A.A.A.A.A.A.A.A.A.A.A.A.A.A.A.A.A.A.A.A.A.A.A.A.A.A.K.U.:.I < ",
"< U :.W.W.:.J k ..e.e.@.m < < E 2.U.K.A.A.A.A.A.A.A.A.A.A.A.A.A.A.A.A.A.A.A.A.A.A.A.A.A.A.A.A.A.A.A.A.A.A.A.A.A.A.A.A.A.A.A.A.A.A.A.A.A.A.K.U.:.I < ",
"< E :.W.W.>.U e k E E v p < < E 2.U.K.A.A.A.A.A.A.A.A.A.A.A.A.A.A.A.A.A.A.A.A.A.A.A.A.A.A.A.A.A.A.A.A.A.A.A.A.A.A.A.A.A.A.A.A.A.A.A.A.A.A.K.U.:.I < ",
"< U :.W.W.>.U q g J J k p < < E 2.U.K.A.A.A.A.A.A.A.A.A.A.A.A.A.A.A.A.A.A.A.A.A.A.A.A.A.A.A.A.A.A.A.A.A.A.A.A.A.A.A.A.A.A.A.A.A.A.A.A.A.A.K.U.:.I < ",
"< U :.W.W.:.J j | 8.8...v < < E 2.U.K.A.A.A.A.A.A.A.A.A.A.A.A.A.A.A.A.A.A.A.A.A.A.A.A.A.A.A.A.A.A.A.A.A.A.A.A.A.A.A.A.A.A.A.A.A.A.A.A.A.A.K.U.;.I < ",
"< U ;.W.W.;.C S 2.~.~.8.U O O J >.U.K.A.A.A.A.A.A.A.A.A.A.A.A.A.A.A.A.A.A.A.A.A.A.A.A.A.A.A.A.A.A.A.A.A.A.A.A.A.A.A.A.A.A.A.A.A.A.A.A.A.A.K.U.;.I < ",
"< I ;.W.W.;.B C >.~.~.2.J . . J >.U.K.A.A.A.A.A.A.A.A.A.A.A.A.A.A.A.A.A.A.A.A.A.A.A.A.A.A.A.A.A.A.A.A.A.A.A.A.A.A.A.A.A.A.A.A.A.A.A.A.A.A.K.U.;.I < ",
"< I ;.R.R.r.^ ) i.~.~.i.' J F ) i.K.K.A.A.A.A.A.A.A.A.A.A.A.A.A.A.A.A.A.A.A.A.A.A.A.A.A.A.A.A.A.A.A.A.A.A.A.A.A.A.A.A.A.A.A.A.A.A.A.A.A.A.K.U.;.I < ",
"< U ;.U.K.b.r.u.B.R.R.B.x.4.>.u.b.S.S.A.A.A.A.A.A.A.A.A.A.A.A.A.A.A.A.A.A.A.A.A.A.A.A.A.A.A.A.A.A.A.A.A.A.A.A.A.A.A.A.A.A.A.A.A.A.A.A.A.A.K.U.:.U < ",
"< U ;.U.K.K.U.B.i.>.>.2.4.x.B.U.K.A.A.A.A.A.A.A.A.A.A.A.A.A.A.A.A.A.A.A.A.A.A.A.A.A.A.A.A.A.A.A.A.A.A.A.A.A.A.A.A.A.A.A.A.A.A.A.A.A.A.A.A.K.U.:.U < ",
"< U :.U.K.K.R.i.` J I I U ' g.R.K.A.A.A.A.A.A.A.A.A.A.A.A.A.A.A.A.A.A.A.A.A.A.A.A.A.A.A.A.A.A.A.A.A.A.A.A.A.A.A.A.A.A.A.A.A.A.A.A.A.A.A.A.K.U.:.U < ",
"< U ;.U.K.K.R.2.J O & & O J 4.R.K.A.A.A.A.A.A.A.A.A.A.A.A.A.A.A.A.A.A.A.A.A.A.A.A.A.A.A.A.A.A.A.A.A.A.A.A.A.A.A.A.A.A.A.A.A.A.A.A.A.A.A.A.K.U.:.U < ",
"< U :.U.K.U.W.8.U & < < & U 8.W.U.A.A.A.A.A.A.A.A.A.A.A.A.A.A.A.A.A.A.A.A.A.A.A.A.A.A.A.A.A.A.A.A.A.A.A.A.A.A.A.A.A.A.A.A.A.A.A.A.A.A.A.A.K.U.:.U < ",
"< U :.R.L.B.j.o.v 1 5 5 1 v o.j.B.S.S.A.A.A.A.A.A.A.A.A.A.A.A.A.A.A.A.A.A.A.A.A.A.A.A.A.A.A.A.A.A.A.A.A.A.A.A.A.A.A.A.A.A.A.A.A.A.A.A.A.A.K.U.:.U < ",
"< U ;.R.R.i.` k t 5 5 5 5 t k ` i.K.K.A.A.A.A.A.A.A.A.A.A.A.A.A.A.A.A.A.A.A.A.A.A.A.A.A.A.A.A.A.A.A.A.A.A.A.A.A.A.A.A.A.A.A.A.A.A.A.A.A.A.K.U.:.U < ",
"< U :.W.W.:.S . < 5 5 5 5 < . S >.U.K.A.A.A.A.A.A.A.A.A.A.A.A.A.A.A.A.A.A.A.A.A.A.A.A.A.A.A.A.A.A.A.A.A.A.A.A.A.A.A.A.A.A.A.A.A.A.A.A.A.A.K.U.:.U < ",
"< U ;.W.W.>.S . O 1 5 5 5 & . S >.U.K.A.A.A.A.A.A.A.A.A.A.A.A.A.A.A.A.A.A.A.A.A.A.A.A.A.A.A.A.A.A.A.A.A.A.A.A.A.A.A.A.A.A.A.A.A.A.A.A.A.A.K.U.:.I < ",
"< U ;.R.R.i.) I E m p p m E I ) u.K.K.A.A.A.A.A.A.A.A.A.A.A.A.A.A.A.A.A.A.A.A.A.A.A.A.A.A.A.A.A.A.A.A.A.A.A.A.A.A.A.A.A.A.A.A.A.A.A.A.A.A.K.U.:.I < ",
"< U ;.U.U.b.u.4.w.@.c c @.w.4.i.b.S.S.A.A.A.A.A.A.A.A.A.A.A.A.A.A.A.A.A.A.A.A.A.A.A.A.A.A.A.A.A.A.A.A.A.A.A.A.A.A.A.A.A.A.A.A.A.A.A.A.A.A.K.U.:.I < ",
"< I ;.U.K.K.U.C.x. .j j  .x.C.U.K.A.A.A.A.A.A.A.A.A.A.A.A.A.A.A.A.A.A.A.A.A.A.A.A.A.A.A.A.A.A.A.A.A.A.A.A.A.A.A.A.A.A.A.A.A.A.A.A.A.A.A.A.K.U.:.I < ",
"< U ;.U.K.K.R.i.` g 0 0 g ) i.R.K.A.A.A.A.A.A.A.A.A.A.A.A.A.A.A.A.A.A.A.A.A.A.A.A.A.A.A.A.A.A.A.A.A.A.A.A.A.A.A.A.A.A.A.A.A.A.A.A.A.A.A.A.K.U.;.I < ",
"< U ;.U.K.K.K.r.^ C J J C ^ r.K.K.A.A.A.A.A.A.A.A.A.A.A.A.A.A.A.A.A.A.A.A.A.A.A.A.A.A.A.A.A.A.A.A.A.A.A.A.A.A.A.A.A.A.A.A.A.A.A.A.A.A.A.A.K.U.;.I < ",
"< U ;.U.K.S.S.b.r.;.>.>.;.r.b.S.S.A.A.A.A.A.A.A.A.A.A.A.A.A.A.A.A.A.A.A.A.A.A.A.A.A.A.A.A.A.A.A.A.A.A.A.A.A.A.A.A.A.A.A.A.A.A.A.A.A.A.A.A.K.U.;.I < ",
"< U ;.U.K.A.A.S.K.U.U.U.U.K.S.A.A.A.A.A.A.A.A.A.A.A.A.A.A.A.A.A.A.A.A.A.A.A.A.A.A.A.A.A.A.A.A.A.A.A.A.A.A.A.A.A.A.A.A.A.A.A.A.A.A.A.A.A.A.K.U.;.I < ",
"< U :.U.K.A.A.S.K.K.K.K.K.K.S.A.A.A.A.A.A.A.A.A.A.A.A.A.A.A.A.A.A.A.A.A.A.A.A.A.A.A.A.A.A.A.A.A.A.A.A.A.A.A.A.A.A.A.A.A.A.A.A.A.A.A.A.A.A.K.U.:.U < ",
"< U :.U.K.A.A.A.A.A.A.A.A.A.A.A.A.A.A.A.A.A.A.A.A.A.A.A.A.A.A.A.A.S.K.K.K.K.K.K.S.A.A.A.A.A.A.A.A.A.A.A.A.A.A.A.A.A.A.A.A.A.A.A.A.A.A.A.A.K.U.:.U < ",
"< U :.U.K.A.A.A.A.A.A.A.A.A.A.A.A.A.A.A.A.A.A.A.A.A.A.A.A.A.A.A.A.S.K.U.U.U.U.K.S.A.A.A.A.A.A.A.A.A.A.A.A.A.A.A.A.A.A.A.A.A.A.A.A.A.A.A.A.K.U.:.U < ",
"< U :.U.K.A.A.A.A.A.A.A.A.A.A.A.A.A.A.A.A.A.A.A.A.A.A.A.A.A.A.S.K.B.i.>.>.>.>.i.B.K.K.A.A.A.A.A.A.A.A.A.A.A.A.A.A.A.A.A.A.A.A.A.A.A.A.A.A.K.U.:.U < ",
"< U ;.U.K.A.A.A.A.A.A.A.A.A.A.A.A.A.A.A.A.A.A.A.A.A.A.A.A.A.A.K.R.j.` J I I J ` j.R.K.A.A.A.A.A.A.A.A.A.A.A.A.A.A.A.A.A.A.A.A.A.A.A.A.A.A.K.U.:.U < ",
"< U ;.U.K.A.A.A.A.A.A.A.A.A.A.A.A.A.A.A.A.A.A.A.A.A.A.A.A.S.K.B.j...k & < < & k ..j.B.K.S.A.A.A.A.A.A.A.A.A.A.A.A.A.A.A.A.A.A.A.A.A.A.A.A.K.U.:.U < ",
"< U ;.U.K.A.A.A.A.A.A.A.A.A.A.A.A.A.A.A.A.A.A.A.A.A.A.A.A.K.R.j.' k e < < < < e k ' j.R.K.A.A.A.A.A.A.A.A.A.A.A.A.A.A.A.A.A.A.A.A.A.A.A.A.K.U.:.U < ",
"< I ;.U.K.A.A.A.A.A.A.A.A.A.A.A.A.A.A.A.A.A.A.A.A.A.A.S.S.B.j...k & 1 7 7 7 7 1 & k ..j.B.S.S.A.A.A.A.A.A.A.A.A.A.A.A.A.A.A.A.A.A.A.A.A.A.K.U.:.U < ",
"< U ;.U.K.A.A.A.A.A.A.A.A.A.A.A.A.A.A.A.A.A.A.A.A.A.A.K.K.i.` k e 1 5 7 7 7 7 5 1 e k ` i.K.K.A.A.A.A.A.A.A.A.A.A.A.A.A.A.A.A.A.A.A.A.A.A.K.U.:.I < ",
"< U ;.U.K.A.A.A.A.A.A.A.A.A.A.A.A.A.A.A.A.A.A.A.A.A.A.K.U.>.J & < 7 7 7 7 7 7 7 7 < & J >.U.K.A.A.A.A.A.A.A.A.A.A.A.A.A.A.A.A.A.A.A.A.A.A.K.U.:.I < ",
"< U ;.U.K.A.A.A.A.A.A.A.A.A.A.A.A.A.A.A.A.A.A.A.A.A.A.K.U.>.I < 1 7 7 7 7 7 7 7 7 1 < I >.U.K.A.A.A.A.A.A.A.A.A.A.A.A.A.A.A.A.A.A.A.A.A.A.K.U.:.I < ",
"< U ;.U.K.A.A.A.A.A.A.A.A.A.A.A.A.A.A.A.A.A.A.A.A.A.A.K.U.>.I < 1 7 7 7 7 7 7 7 7 1 < I >.U.K.A.A.A.A.A.A.A.A.A.A.A.A.A.A.A.A.A.A.A.A.A.A.K.U.:.I < ",
"< U :.U.K.A.A.A.A.A.A.A.A.A.A.A.A.A.A.A.A.A.A.A.A.A.A.K.U.>.J O < 7 7 7 7 7 7 7 7 < & J >.U.K.A.A.A.A.A.A.A.A.A.A.A.A.A.A.A.A.A.A.A.A.A.A.K.U.;.I < ",
"< U :.U.K.A.A.A.A.A.A.A.A.A.A.A.A.A.A.A.A.A.A.A.A.S.K.U.R.j.{ c e 1 5 7 7 7 7 5 1 e c { j.R.U.K.S.A.A.A.A.A.A.A.A.A.A.A.A.A.A.A.A.A.A.A.A.K.U.;.I < ",
"< U :.U.K.A.A.A.A.A.A.A.A.A.A.A.A.A.A.A.A.A.A.A.A.S.K.R.R.Z.c.O.k & 1 7 7 7 7 1 & k O.c.Z.R.R.K.S.A.A.A.A.A.A.A.A.A.A.A.A.A.A.A.A.A.A.A.A.K.U.;.I < ",
"< U :.U.K.A.A.A.A.A.A.A.A.A.A.A.A.A.A.A.A.A.A.K.K.B.i.>.>.8.w.%.! v p 5 5 5 5 p v ! %.w.8.>.>.i.B.K.K.A.A.A.A.A.A.A.A.A.A.A.A.A.A.A.A.A.A.K.U.;.I < ",
"< U ;.U.K.A.A.A.A.A.A.A.A.A.A.A.A.A.A.A.A.A.A.K.R.j.` J I E E ^ &.#.B 1 5 5 1 B #.&.^ E E I J ` j.R.K.A.A.A.A.A.A.A.A.A.A.A.A.A.A.A.A.A.A.K.U.:.U < ",
"< U ;.U.K.A.A.A.A.A.A.A.A.A.A.A.A.A.A.A.A.S.S.B.j...k O < < O v #.$.B 1 5 5 1 B $.#.v O < < & k ..j.B.S.S.A.A.A.A.A.A.A.A.A.A.A.A.A.A.A.A.K.U.:.U < ",
"< U ;.U.K.A.A.A.A.A.A.A.A.A.A.A.A.A.A.A.A.K.K.i.` k e < 1 1 < p B B a 5 5 5 5 a B B p < 1 1 < e k ` i.K.K.A.A.A.A.A.A.A.A.A.A.A.A.A.A.A.A.K.U.:.U < ",
"< I ;.U.K.A.A.A.A.A.A.A.A.A.A.A.A.A.A.A.A.K.U.>.J O < 7 7 7 7 5 1 1 5 7 7 7 7 5 1 1 5 7 7 7 7 < O J >.U.K.A.A.A.A.A.A.A.A.A.A.A.A.A.A.A.A.K.U.:.U < ",
"< U ;.U.K.A.A.A.A.A.A.A.A.A.A.A.A.A.A.A.A.K.U.>.I < < 7 7 7 7 5 5 5 5 7 7 7 7 5 5 5 5 7 7 7 7 1 < I >.U.K.A.A.A.A.A.A.A.A.A.A.A.A.A.A.A.A.K.U.:.U < ",
"< U ;.U.K.A.A.A.A.A.A.A.A.A.A.A.A.A.A.A.A.K.U.>.I < 1 7 7 7 7 5 5 5 5 5 5 5 5 5 5 5 5 7 7 7 7 1 < I >.U.K.A.A.A.A.A.A.A.A.A.A.A.A.A.A.A.A.K.U.:.U < ",
"< U ;.U.K.A.A.A.A.A.A.A.A.A.A.A.A.A.A.A.A.K.U.>.J & < 7 7 7 7 5 1 < < 1 5 5 1 < < 1 5 7 7 7 7 < O J >.U.K.A.A.A.A.A.A.A.A.A.A.A.A.A.A.A.A.K.U.:.U < ",
"< U ;.U.K.A.A.A.A.A.A.A.A.A.A.A.A.A.A.A.A.K.K.i.` k e < 1 1 < t v E E v p p v E E v t < 1 1 < e k ` i.K.K.A.A.A.A.A.A.A.A.A.A.A.A.A.A.A.A.K.U.:.U < ",
"< U :.U.K.A.A.A.A.A.A.A.A.A.A.A.A.A.A.A.A.S.S.B.j. .k & < < O k o.w.w...k k ..w.w.o.k & < < O k ..j.B.S.S.A.A.A.A.A.A.A.A.A.A.A.A.A.A.A.A.K.U.:.U < ",
"< U :.U.K.A.A.A.A.A.A.A.A.A.A.A.A.A.A.A.A.A.A.K.R.j.` J I I J ` j.~.(.8.J J 8.(.~.j.` J I I J ` j.R.K.A.A.A.A.A.A.A.A.A.A.A.A.A.A.A.A.A.A.K.U.:.U < ",
"< U :.U.K.A.A.A.A.A.A.A.A.A.A.A.A.A.A.A.A.A.A.K.K.B.i.>.>.>.>.i.B.W.~.8.J J 8.~.W.n.i.>.>.>.>.i.B.K.K.A.A.A.A.A.A.A.A.A.A.A.A.A.A.A.A.A.A.K.U.:.U < ",
"< U :.U.K.A.A.A.A.A.A.A.A.A.A.A.A.A.A.A.A.A.A.A.A.S.K.U.U.U.U.U.U.B.j.| k k | j.B.U.U.U.U.U.U.K.S.A.A.A.A.A.A.A.A.A.A.A.A.A.A.A.A.A.A.A.A.K.U.:.U < ",
"< U ;.U.K.A.A.A.A.A.A.A.A.A.A.A.A.A.A.A.A.A.A.A.A.S.K.K.K.K.K.R.W.j.' k t e k ' j.W.R.K.K.K.K.K.S.A.A.A.A.A.A.A.A.A.A.A.A.A.A.A.A.A.A.A.A.K.U.;.U < ",
"< U ;.U.K.A.A.A.A.A.A.A.A.A.A.A.A.A.A.A.A.A.A.A.A.A.A.A.A.S.S.n.i.| g O < < O g | i.n.S.S.A.A.A.A.A.A.A.A.A.A.A.A.A.A.A.A.A.A.A.A.A.A.A.A.K.U.;.U < ",
"< U ;.U.K.A.A.A.A.A.A.A.A.A.A.A.A.A.A.A.A.A.A.A.A.A.A.A.A.K.K.u.) s 9 & < < & 9 s ) u.K.K.A.A.A.A.A.A.A.A.A.A.A.A.A.A.A.A.A.A.A.A.A.A.A.A.K.U.;.I < ",
"< I ;.U.K.A.A.A.A.A.A.A.A.A.A.A.A.A.A.A.A.A.A.A.A.A.A.A.A.K.K.r.^ C J E E E E J C ^ r.K.K.A.A.A.A.A.A.A.A.A.A.A.A.A.A.A.A.A.A.A.A.A.A.A.A.K.U.;.I < ",
"< U ;.U.K.A.A.A.A.A.A.A.A.A.A.A.A.A.A.A.A.A.A.A.A.A.A.A.A.S.S.b.r.;.>.2.2.2.2.>.;.r.b.S.S.A.A.A.A.A.A.A.A.A.A.A.A.A.A.A.A.A.A.A.A.A.A.A.A.K.U.:.I < ",
"< U ;.U.K.A.A.A.A.A.A.A.A.A.A.A.A.A.A.A.A.A.A.A.A.A.A.A.A.A.A.S.K.U.U.U.U.U.U.U.U.K.S.A.A.A.A.A.A.A.A.A.A.A.A.A.A.A.A.A.A.A.A.A.A.A.A.A.A.K.U.:.I < ",
"< U ;.U.K.A.A.A.A.A.A.A.A.A.A.A.A.A.A.A.A.A.A.A.A.A.A.A.A.A.A.S.K.K.K.K.K.K.K.K.K.K.S.A.A.A.A.A.A.A.A.A.A.A.A.A.A.A.A.A.A.A.A.A.A.A.A.A.A.K.U.:.I < ",
"< U ;.U.K.A.A.A.A.A.A.A.A.A.A.A.A.A.A.A.A.A.A.A.A.A.A.A.A.A.A.A.A.A.A.A.A.A.A.A.A.A.A.A.A.A.A.A.A.A.A.A.A.A.A.A.A.A.A.A.A.A.A.A.A.A.A.A.A.K.U.:.I < ",
"< U :.U.K.A.A.A.A.A.A.A.A.A.A.A.A.A.A.A.A.A.A.A.A.A.A.A.A.A.A.A.A.A.A.A.A.A.A.A.A.A.A.A.A.A.A.A.A.A.A.A.A.A.A.A.A.A.A.A.A.A.A.A.A.A.A.A.A.K.U.:.I < ",
"< U :.U.K.A.A.A.A.A.A.A.A.A.A.A.A.A.A.A.A.A.A.A.A.A.A.A.A.A.A.A.A.A.A.A.A.A.A.A.A.A.A.A.A.A.A.A.A.A.A.A.A.A.A.A.A.A.A.A.A.A.A.A.A.A.A.A.A.K.U.:.I < ",
"< U :.U.K.A.A.A.A.A.A.A.A.A.A.A.A.A.A.A.A.A.A.A.A.A.A.A.A.A.A.A.A.A.A.A.A.A.A.A.A.A.A.A.A.A.A.A.A.A.A.A.A.A.A.A.A.A.A.A.A.A.A.A.A.A.A.A.A.K.U.:.I < ",
"< U :.U.K.A.A.A.A.A.A.A.A.A.A.A.A.A.A.A.A.A.A.A.A.A.A.A.A.A.A.A.A.A.A.A.A.A.A.A.A.A.A.A.A.A.A.A.A.A.A.A.A.A.A.A.A.A.A.S.K.K.K.K.K.K.S.A.A.K.U.:.I < ",
"< U ;.U.K.A.A.A.A.A.A.A.A.A.A.A.A.A.A.A.A.A.A.A.A.A.A.A.A.A.A.A.A.A.A.A.A.A.A.A.A.A.A.A.A.A.A.A.A.A.A.A.A.A.A.A.A.A.A.S.K.U.U.U.U.K.S.A.A.K.U.:.U < ",
"< U ;.U.K.A.A.A.A.A.A.A.A.A.A.A.A.A.A.A.A.A.A.A.A.A.A.A.A.A.A.A.A.A.A.A.A.A.A.A.A.A.A.A.A.A.A.A.A.A.A.A.A.A.A.A.A.S.S.b.r.;.>.>.;.r.b.S.S.K.U.:.U < ",
"< U ;.U.K.A.A.A.A.A.A.A.A.A.A.A.A.A.A.A.A.A.A.A.A.A.A.A.A.A.A.A.A.A.A.A.A.A.A.A.A.A.A.A.A.A.A.A.A.A.A.A.A.A.A.A.A.K.K.r.^ C J J C ^ r.K.K.K.U.:.U < ",
"< I ;.U.K.A.A.A.A.A.A.A.A.A.A.A.A.A.A.A.A.A.A.A.A.A.A.A.A.A.A.A.A.A.A.A.A.A.A.A.A.A.A.A.A.A.A.A.A.A.A.A.A.A.A.A.A.K.R.i.` g 0 0 g ) i.R.K.K.U.;.U < ",
"< U ;.U.K.A.A.A.A.A.A.A.A.A.A.A.A.A.A.A.A.A.A.A.A.A.A.A.A.A.A.A.A.A.A.A.A.A.A.A.A.A.A.A.A.A.A.A.A.A.A.A.A.A.A.A.A.K.U.C.x. .j j  .x.C.U.K.K.U.;.U < ",
"< U ;.U.K.A.A.A.A.A.A.A.A.A.A.A.A.A.A.A.A.A.A.A.A.A.A.A.A.A.A.A.A.A.A.A.A.A.A.A.A.A.A.A.A.A.A.A.A.A.A.A.A.A.A.S.S.b.u.4.w.@.c c @.w.4.i.b.U.R.:.U < ",
"< U ;.U.K.A.A.A.A.A.A.A.A.A.A.A.A.A.A.A.A.A.A.A.A.A.A.A.A.A.A.A.A.A.A.A.A.A.A.A.A.A.A.A.A.A.A.A.A.A.A.A.A.A.A.K.K.i.) I E m p p m E I ) i.R.R.:.U < ",
"< U ;.U.K.A.A.A.A.A.A.A.A.A.A.A.A.A.A.A.A.A.A.A.A.A.A.A.A.A.A.A.A.A.A.A.A.A.A.A.A.A.A.A.A.A.A.A.A.A.A.A.A.A.A.K.U.>.S . O 1 5 5 5 O . S >.W.W.:.U < ",
"< U :.U.K.A.A.A.A.A.A.A.A.A.A.A.A.A.A.A.A.A.A.A.A.A.A.A.A.A.A.A.A.A.A.A.A.A.A.A.A.A.A.A.A.A.A.A.A.A.A.A.A.A.A.K.U.>.S . & 5 5 5 5 & . S :.W.W.;.I < ",
"< U :.U.K.A.A.A.A.A.A.A.A.A.A.A.A.A.A.A.A.A.A.A.A.A.A.A.A.A.A.A.A.A.A.A.A.A.A.A.A.A.A.A.A.A.A.A.A.A.A.A.A.A.A.K.K.i.` k t 5 5 5 5 t k ` i.R.R.;.I < ",
"< U :.U.K.A.A.A.A.A.A.A.A.A.A.A.A.A.A.A.A.A.A.A.A.A.A.A.A.A.A.A.A.A.A.A.A.A.A.A.A.A.A.A.A.A.A.A.A.A.A.A.A.A.A.S.S.B.j.o.v 1 5 5 1 v o.j.B.U.U.;.I < ",
"< U :.U.K.A.A.A.A.A.A.A.A.A.A.A.A.A.A.A.A.A.A.A.A.A.A.A.A.A.A.A.A.A.A.A.A.A.A.A.A.A.A.A.A.A.A.A.A.A.A.A.A.A.A.A.A.U.W.8.U & < < & U 8.W.U.K.U.:.I < ",
"< U ;.U.K.A.A.A.A.A.A.A.A.A.A.A.A.A.A.A.A.A.A.A.A.A.A.A.A.A.A.A.A.A.A.A.A.A.A.A.A.A.A.A.A.A.A.A.A.A.A.A.A.A.A.A.A.K.R.4.J O & & O J 4.R.K.K.U.:.I < ",
"< U ;.U.K.A.A.A.A.A.A.A.A.A.A.A.A.A.A.A.A.A.A.A.A.A.A.A.A.A.A.A.A.A.A.A.A.A.A.A.A.A.A.A.A.A.A.A.A.A.A.A.A.A.A.A.A.K.R.g.' U I I J ` i.R.K.K.U.:.I < ",
"< U ;.U.K.A.A.A.A.A.A.A.A.A.A.A.A.A.A.A.A.A.A.A.A.A.A.A.A.A.A.A.A.A.A.A.A.A.A.A.A.A.A.A.A.A.A.A.A.A.A.A.A.A.A.A.A.K.U.B.x.8.2.>.>.i.B.U.K.K.U.;.I < ",
"< I ;.U.K.A.A.A.A.A.A.A.A.A.A.A.A.A.A.A.A.A.A.A.A.A.A.A.A.A.A.A.A.A.A.A.A.A.A.A.A.A.A.A.A.A.A.A.A.A.A.A.A.A.A.S.S.b.u.>.4.x.B.R.R.B.i.r.b.K.U.;.I < ",
"< U ;.U.K.A.A.A.A.A.A.A.A.A.A.A.A.A.A.A.A.A.A.A.A.A.A.A.A.A.A.A.A.A.A.A.A.A.A.A.A.A.A.A.A.A.A.A.A.A.A.A.A.A.A.K.K.u.) S J ' g.~.~.i.) ^ r.R.R.:.I < ",
"< U ;.U.K.A.A.A.A.A.A.A.A.A.A.A.A.A.A.A.A.A.A.A.A.A.A.A.A.A.A.A.A.A.A.A.A.A.A.A.A.A.A.A.A.A.A.A.A.A.A.A.A.A.A.K.U.>.J . . J 4.~.~.>.C B ;.W.W.:.I < ",
"< U ;.U.K.A.A.A.A.A.A.A.A.A.A.A.A.A.A.A.A.A.A.A.A.A.A.A.A.A.A.A.A.A.A.A.A.A.A.A.A.A.A.A.A.A.A.A.A.A.A.A.A.A.A.K.U.>.I O O U 8.~.~.2.S C ;.W.W.:.I < ",
"< U ;.U.K.A.A.A.A.A.A.A.A.A.A.A.A.A.A.A.A.A.A.A.A.A.A.A.A.A.A.A.A.A.A.A.A.A.A.A.A.A.A.A.A.A.A.A.A.A.A.A.A.A.A.K.U.2.E < < v ..8.8.| j J :.W.W.:.I < ",
"< U :.U.K.A.A.A.A.A.A.A.A.A.A.A.A.A.A.A.A.A.A.A.A.A.A.A.A.A.A.A.A.A.A.A.A.A.A.A.A.A.A.A.A.A.A.A.A.A.A.A.A.A.A.K.U.2.E < 1 p k J J g q U >.W.W.:.I < ",
"< U :.U.K.A.A.A.A.A.A.A.A.A.A.A.A.A.A.A.A.A.A.A.A.A.A.A.A.A.A.A.A.A.A.A.A.A.A.A.A.A.A.A.A.A.A.A.A.A.A.A.A.A.A.K.U.2.E < < p v E E k e U >.W.W.:.I < ",
"< U :.U.K.A.A.A.A.A.A.A.A.A.A.A.A.A.A.A.A.A.A.A.A.A.A.A.A.A.A.A.A.A.A.A.A.A.A.A.A.A.A.A.A.A.A.A.A.A.A.A.A.A.A.K.U.2.E < < m @.e.e...k J :.W.W.:.I < ",
"< U :.U.K.A.A.A.A.A.A.A.A.A.A.A.A.A.A.A.A.A.A.A.A.A.A.A.A.A.A.A.A.A.A.A.A.A.A.A.A.A.A.A.A.A.A.A.A.A.A.A.A.A.A.K.U.>.I O O c O.e.e...g S ;.W.W.:.I < ",
"< U ;.U.K.A.A.A.A.A.A.A.A.A.A.A.A.A.A.A.A.A.A.A.A.A.A.A.A.A.A.A.A.A.A.A.A.A.A.A.A.A.A.A.A.A.A.A.A.A.A.A.A.A.A.K.U.>.J O O e c E E j 9 F >.W.W.:.U < ",
"< E 2.R.K.A.A.A.A.A.A.A.A.A.A.A.A.A.A.A.A.A.A.A.A.A.A.A.A.A.A.A.A.A.A.A.A.A.A.A.A.A.A.A.A.A.A.A.A.A.A.A.A.A.A.K.K.u.) J I U J F F S F ) i.R.~.2.E < ",
"< E 4.W.K.A.A.A.A.A.A.A.A.A.A.A.A.A.A.A.A.A.A.A.A.A.A.A.A.A.A.A.A.A.A.A.A.A.A.A.A.A.A.A.A.A.A.A.A.A.A.A.A.A.A.S.S.b.u.>.>.>.;.;.;.;.>.i.b.U.~.4.E < ",
"< c | j.B.L.K.K.K.K.K.K.K.K.K.K.K.K.K.K.K.K.K.K.K.K.K.K.K.K.K.K.K.K.K.K.K.K.K.K.K.K.K.K.K.K.K.K.K.K.K.K.K.K.K.K.K.L.R.W.W.W.W.W.W.W.W.W.U.B.j.| c < ",
"5 t k ' j.W.R.U.U.U.U.U.U.U.U.U.U.U.U.U.U.U.U.U.U.U.U.U.U.U.U.U.U.U.U.U.U.U.U.U.U.U.U.U.U.U.U.U.U.U.U.U.U.U.U.U.U.R.R.W.W.W.W.W.W.W.W.~.~.j.' k t 5 ",
"7 < & k | 4.2.:.;.;.;.;.:.:.:.:.;.;.;.;.;.;.:.:.:.:.:.;.;.;.;.:.:.:.;.;.;.;.:.:.;.;.;.;.:.:.:.:.;.;.;.;.;.;.:.:.:.:.;.:.;.;.:.:.:.:.:.2.4.| k & < 7 ",
"    < t c E E U I U U U U U U U U U U U I I U U U U U U I U U U U U U U I U U U I U U U U U U U U U U U I I U U U U U U I U U U U U U E E c t <     ",
"    7 5 < < < < < < < < < < < < < < < < < < < < < < < < < < < < < < < < < < < < < < < < < < < < < < < < < < < < < < < < < < < < < < < < < < 5 7     "
};
