/* XPM */
static char *clubs_5[] = {
/* columns rows colors chars-per-pixel */
"74 104 159 2 ",
"   c None",
".  c #1B0029",
"X  c #1C002A",
"o  c #1D002A",
"O  c #1D002B",
"+  c #1E002B",
"@  c #1E002C",
"#  c #1F002C",
"$  c #20002D",
"%  c #20012D",
"&  c #21012D",
"*  c #21012E",
"=  c #22032F",
"-  c #23032F",
";  c #230430",
":  c #250531",
">  c #250631",
",  c #250632",
"<  c #260732",
"1  c #270833",
"2  c #2B0C36",
"3  c #2B0D37",
"4  c #2F113A",
"5  c #30123B",
"6  c #30133B",
"7  c #31133B",
"8  c #31133C",
"9  c #32143C",
"0  c #32153D",
"q  c #33153D",
"w  c #43284B",
"e  c #452A4D",
"r  c #462B4D",
"t  c #462C4E",
"y  c #482E50",
"u  c #492F50",
"i  c #4A2F51",
"p  c #4A3051",
"a  c #4B3152",
"s  c #4C3253",
"d  c #4F3555",
"f  c #503756",
"g  c #513857",
"h  c #523857",
"j  c #523858",
"k  c #533A58",
"l  c #533A59",
"z  c #543B59",
"x  c #543B5A",
"c  c #553C5A",
"v  c #553C5B",
"b  c #553D5B",
"n  c #563D5B",
"m  c #563E5B",
"M  c #573E5C",
"N  c #573F5C",
"B  c #583F5D",
"V  c #58405D",
"C  c #59405D",
"Z  c #59415E",
"A  c #5A415E",
"S  c #5A425E",
"D  c #5A425F",
"F  c #5B435F",
"G  c #5C4460",
"H  c #766277",
"J  c #7B677B",
"K  c #7B687B",
"L  c #7D6A7D",
"P  c #7F6C7E",
"I  c #806C7F",
"U  c #806D7F",
"Y  c #816E80",
"T  c #826F81",
"R  c #837182",
"E  c #847282",
"W  c #978893",
"Q  c #9B8B96",
"!  c #9B8C96",
"~  c #9D8E98",
"^  c #9E8F99",
"/  c #9F9099",
"(  c #A0919A",
")  c #A1939B",
"_  c #A2949C",
"`  c #AC9FA4",
"'  c #B2A5AA",
"]  c #C0B5B6",
"[  c #C0B6B6",
"{  c #C1B6B6",
"}  c #C1B7B7",
"|  c #C2B8B7",
" . c #C2B8B8",
".. c #C3B9B8",
"X. c #C3B9B9",
"o. c #C3BAB9",
"O. c #C4BAB9",
"+. c #C4BBBA",
"@. c #C5BBBA",
"#. c #C5BCBA",
"$. c #C6BCBB",
"%. c #C6BDBB",
"&. c #C7BDBB",
"*. c #C7BDBC",
"=. c #C7BEBC",
"-. c #C8BEBC",
";. c #C8BFBD",
":. c #CAC1BE",
">. c #CAC1BF",
",. c #CBC2BF",
"<. c #CEC5C2",
"1. c #CFC7C3",
"2. c #D0C7C3",
"3. c #D0C8C3",
"4. c #D0C8C4",
"5. c #D1C9C4",
"6. c #D1CAC5",
"7. c #D2CAC5",
"8. c #D3CBC6",
"9. c #D3CCC6",
"0. c #D4CCC7",
"q. c #D5CDC7",
"w. c #D5CEC8",
"e. c #D6CEC8",
"r. c #D7CFC9",
"t. c #D7D0C9",
"y. c #DBD5CD",
"u. c #E9E4D9",
"i. c #EAE5DA",
"p. c #EAE6DA",
"a. c #EBE7DB",
"s. c #ECE8DC",
"d. c #EFEADE",
"f. c #EFEBDE",
"g. c #F1EDDF",
"h. c #F1EEE0",
"j. c #F5F2E3",
"k. c #F6F3E4",
"l. c #F7F4E5",
"z. c #F8F5E6",
"x. c #F8F6E6",
"c. c #F9F6E7",
"v. c #F9F7E7",
"b. c #FAF7E7",
"n. c #FAF8E8",
"m. c #FBF8E8",
"M. c #FBF9E8",
"N. c #FBF9E9",
"B. c #FCF9E9",
"V. c #FCFAE9",
"C. c #FDFBEA",
"Z. c #FEFCEA",
"A. c #FEFCEB",
"S. c #FFFDEB",
"D. c #FFFDEC",
"F. c #FFFEEC",
"G. c #FFFEED",
"H. c #FFFFED",
"J. c #FFFFEE",
/* pixels */
"    1 , - - - - - - - - - - - - - - - - - - - - - - - - - - - - - - - - - - - - - - - - - - - - - - - - - - - - - - - - - - - - - - - - - - , 1     ",
"    - 6 a Z Z B B B B N B B B B B B B B B B B N B B B B B B B B B B B N B B B B B B B B B B B N B B B B B B B B B B B N B B B B B B B Z Z a 6 -     ",
"1 - # y Q #.O.| | } } } } } } } | | } | } } } } } } } } | | | | } } } } } } } } | | | | } } } } } } } } | | | | } } } } } } } } | | | O.#.Q y # - 1 ",
", 6 y Y q.F.F.A.A.A.A.A.C.A.A.C.C.N.N.N.N.N.N.N.N.N.N.N.N.N.N.N.N.N.N.N.N.N.N.N.N.N.N.N.N.N.N.N.N.N.N.N.N.N.N.N.N.N.N.N.N.N.N.N.N.N.N.C.A.q.Y y 6 , ",
"- a Q q.d.N.C.A.A.A.A.A.A.A.A.C.N.b.b.b.b.b.b.b.b.b.b.b.b.b.b.b.b.b.b.b.b.b.b.b.b.b.b.b.b.b.b.b.b.b.b.b.b.b.b.b.b.b.b.b.b.b.b.b.b.b.b.b.N.d.q.Q a - ",
"- Z #.F.N.u.4.......| } } } } <.u.l.l.k.k.k.k.k.k.k.k.k.k.k.k.k.k.k.k.k.k.k.k.k.k.k.k.k.k.k.k.k.k.k.k.k.k.k.k.k.k.k.k.k.k.k.k.k.k.k.k.k.k.N.A.#.Z - ",
"- Z O.F.C.3.P v N B v x x l f K <.b.b.k.k.k.k.k.k.k.k.k.k.k.k.k.k.k.k.k.k.k.k.k.k.k.k.k.k.k.k.k.k.k.k.k.k.k.k.k.k.k.k.k.k.k.k.k.k.k.k.k.k.b.C.O.Z - ",
"- B | A.A...v X X 4 a Z B v l L 2.b.b.k.k.k.k.k.k.k.k.k.k.k.k.k.k.k.k.k.k.k.k.k.k.k.k.k.k.k.k.k.k.k.k.k.k.k.k.k.k.k.k.k.k.k.k.k.k.k.k.k.k.b.N.| B - ",
"- B | A.A...N X X a / >.;.#.O.4.u.l.l.k.k.k.k.k.k.k.k.k.k.k.k.k.k.k.k.k.k.k.k.k.k.k.k.k.k.k.k.k.k.k.k.k.k.k.k.k.k.k.k.k.k.k.k.k.k.k.k.k.k.b.N.| N - ",
"- B | A.A...N X X a / >.>.;.;.q.u.l.k.k.k.l.b.b.b.b.b.b.l.k.k.k.k.k.k.k.k.k.k.k.k.k.k.k.k.l.b.b.b.b.b.b.l.k.k.k.k.k.k.k.k.k.k.k.k.k.k.k.k.b.N.| N - ",
"- B | A.A...v X X 4 a Z G Z Z Y 4.b.b.k.k.l.b.N.N.N.N.b.l.k.k.k.k.k.k.k.k.k.k.k.k.k.k.k.k.l.b.N.N.N.N.b.l.k.k.k.k.k.k.k.k.k.k.k.k.k.k.k.k.b.N.| N - ",
"- B | C.C.4.Y Z Z G Z a 4 X X v ..N.b.l.l.u.4.........4.u.l.l.k.k.k.k.k.k.k.k.k.k.k.k.l.l.u.3.........4.u.l.l.k.k.k.k.k.k.k.k.k.k.k.k.k.k.b.N.| N - ",
"- B | N.N.u.q.;.;.>.>./ a X X N ..N.b.b.b.3.P v N N v P 4.b.b.k.k.k.k.k.k.k.k.k.k.k.k.b.b.4.P v N N v P 4.b.b.k.k.k.k.k.k.k.k.k.k.k.k.k.k.b.N.} N - ",
"- B } N.N.u.4.O.#.;.>./ a X X N ..N.b.b.N...v X # # X v ..N.b.k.k.k.k.k.k.k.k.k.k.k.k.b.N...v X # # X v ..N.b.k.k.k.k.k.k.k.k.k.k.k.k.k.k.b.N.} N - ",
"- B } C.C.2.L l v Z Z a 4 X X v ..N.b.b.N...N # - - # N ..N.b.k.k.k.k.k.k.k.k.k.k.k.k.b.N...N # - - # N ..N.b.k.k.k.k.k.k.k.k.k.k.k.k.k.k.b.N.} N - ",
"- N } C.C.<.J g x N N Z Z Z v P 3.N.N.C.A.#.N - ; ; - N #.A.C.b.l.k.k.k.k.k.k.k.k.l.b.C.A.#.N - ; ; - N #.A.C.b.l.k.k.k.k.k.k.k.k.k.k.k.k.b.N.} N - ",
"- B } N.b.u.<.} O.#.#.#.;.=.O.4.u.b.N.A.F.#.v # - - # v #.F.A.b.l.k.k.k.k.k.k.k.k.l.b.A.F.#.v X - - X v #.F.A.b.l.k.k.k.k.k.k.k.k.k.k.k.k.b.N.| B - ",
"- B } N.b.b.N.d.r.;.;.;.;.r.d.C.b.u.4.O.#.` H s 8 6 s H ` #.O.4.u.l.l.k.k.k.k.l.l.u.4.O.#.` H s 6 6 s H ` #.O.4.u.l.l.k.k.k.k.k.k.k.k.k.k.b.N.| B - ",
"- B | N.b.b.C.4.Y Z Z Z Z Y 4.A.C.4.P x x H ' _ s s _ ' H x x P 4.b.b.k.k.k.k.b.b.4.P x x H ' _ s s _ ' H x l L 4.b.b.k.k.k.k.k.k.k.k.k.k.b.N.| B - ",
"- B } N.b.b.C.O.v X # # X v #.F.F...v . . s _ ( s s ( _ s . . v ..N.b.k.k.k.k.b.N...v . . s _ ( s s ( _ s . . v ..N.b.k.k.k.k.k.k.k.k.k.k.b.N.| B - ",
"- B | N.b.N.A.=.B # - - # B =.F.F...N # - q s s q q s s 6 - # N ..N.b.k.k.k.k.b.N...N # - 8 s s q q s s 6 - X N ..N.b.k.k.k.k.k.k.k.k.k.k.b.N.| B - ",
"- B | C.n.d.q.~ s ; , , ; s ~ t.h.O.N # - 6 y y q q y y 6 - X N ..N.b.k.k.k.k.b.N...N # - 6 y y q q y y 6 - X N ..N.b.k.k.k.k.k.k.k.k.k.k.b.N.| B - ",
"- B } C.C.4.U y 6 , , , , 6 y R r.#.B . . a ~ ~ a a ~ ~ a . . v ..N.b.k.k.k.k.b.N...v . X a / ~ a a ~ ~ a . . v ..N.b.k.k.k.k.k.k.k.k.k.k.b.N.| B - ",
"- B } A.A.| l . - , , , , - . v #.r.Y l l E y.>.Z Z >.y.E l l P 4.b.b.k.k.k.k.b.b.4.P l l E y.>.Z Z >.y.E l l P 3.b.b.k.k.k.k.k.k.k.k.k.k.b.N.| B - ",
"- B } A.A...l . X ; , , , # . x ..d.9...| r.j.;.N N ;.j.r.| | 3.u.l.l.k.k.k.k.l.l.u.3.| | r.j.;.N N ;.j.r.| ..4.u.l.l.k.k.k.k.k.k.k.k.k.k.b.N.| N - ",
"- B } C.C.4.P N Z d q q d Z N P 3.N.C.C.C.d.4.W r r W 4.d.C.C.b.l.k.k.k.k.k.k.k.k.l.b.C.C.d.4.W r r W 4.d.C.C.b.l.k.k.k.k.k.k.k.k.k.k.k.k.b.N.| N - ",
"- B } N.N.u.3.#.>.( a a ( >.#.3.u.b.b.C.C.4.L w 3 3 w L 4.C.C.b.l.k.k.k.k.k.k.k.k.l.b.C.C.4.L w 3 3 w L 4.C.C.b.l.k.k.k.k.k.k.k.k.k.k.k.k.b.N.| N - ",
"- N } N.b.b.N.g.r.! t t ! r.g.N.b.k.k.b.b.<.J g v v g J <.b.b.k.k.k.k.k.k.k.k.k.k.k.k.b.b.<.J g v v g J <.b.b.k.k.k.k.k.k.k.k.k.k.k.k.k.k.b.N.| N - ",
"- B } N.b.b.C.4.U r 3 3 r U 4.C.b.k.k.l.l.u.<.} ....} <.u.l.l.k.k.k.k.k.k.k.k.k.k.k.k.l.l.u.<.} ....} <.u.l.l.k.k.k.k.k.k.k.k.k.k.k.k.k.k.b.N.} N - ",
"- B } N.b.b.b.<.J g v v g J <.b.b.k.k.k.k.l.b.N.N.N.N.b.l.k.k.k.k.k.k.k.k.k.k.k.k.k.k.k.k.l.b.N.N.N.N.b.l.k.k.k.k.k.k.k.k.k.k.k.k.k.k.k.k.b.N.} N - ",
"- B } N.b.l.l.u.<.} ....} <.u.l.l.k.k.k.k.l.b.b.b.b.b.b.l.k.k.k.k.k.k.k.k.k.k.k.k.k.k.k.k.l.b.b.b.b.b.b.l.k.k.k.k.k.k.k.k.k.k.k.k.k.k.k.k.b.N.} N - ",
"- B } N.b.k.k.l.b.N.N.N.N.b.l.k.k.k.k.k.k.k.k.k.k.k.k.k.k.k.k.k.k.k.k.k.k.k.k.k.k.k.k.k.k.k.k.k.k.k.k.k.k.k.k.k.k.k.k.k.k.k.k.k.k.k.k.k.k.b.N.} N - ",
"- B | N.b.k.k.l.b.b.b.b.b.b.l.k.k.k.k.k.k.k.k.k.k.k.k.k.k.k.k.k.k.k.k.k.k.k.k.k.k.k.k.k.k.k.k.k.k.k.k.k.k.k.k.k.k.k.k.k.k.k.k.k.k.k.k.k.k.b.N.| B - ",
"- B | N.b.k.k.k.k.k.k.k.k.k.k.k.k.k.k.k.k.k.k.k.k.k.k.k.k.k.k.k.k.k.k.k.k.k.k.k.k.k.k.k.k.k.k.k.k.k.k.k.k.k.k.k.k.k.k.k.k.k.k.k.k.k.k.k.k.b.N.| B - ",
"- B | N.b.k.k.k.k.k.k.k.k.k.k.k.k.k.k.k.k.k.k.k.k.k.k.k.k.k.k.k.k.k.k.k.k.k.k.k.k.k.k.k.k.k.k.k.k.k.k.k.k.k.k.k.k.k.k.k.k.k.k.k.k.k.k.k.k.b.N.| B - ",
"- B | N.b.k.k.k.k.k.k.k.k.k.k.k.k.k.k.k.k.k.k.k.k.k.k.k.k.k.k.k.k.k.k.k.k.k.k.k.k.k.k.k.k.k.k.k.k.k.k.k.k.k.k.k.k.k.k.k.k.k.k.k.k.k.k.k.k.b.N.| B - ",
"- B } N.b.k.k.k.k.k.k.k.k.k.k.k.k.k.k.k.k.k.k.k.k.k.k.k.k.k.k.k.k.k.k.k.k.k.k.k.k.k.k.k.k.k.k.k.k.k.k.k.k.k.k.k.k.k.k.k.k.k.k.k.k.k.k.k.k.b.N.| B - ",
"- B } N.b.k.k.k.k.k.k.k.k.k.k.k.k.k.k.k.k.k.k.k.k.k.k.k.k.k.k.k.k.k.k.k.k.k.k.k.k.k.k.k.k.k.k.k.k.k.k.k.k.k.k.k.k.k.k.k.k.k.k.k.k.k.k.k.k.b.N.| B - ",
"- B } N.b.k.k.k.k.k.k.k.k.k.k.k.k.k.k.k.k.k.k.k.k.k.k.k.k.k.k.k.k.k.k.k.k.k.k.k.k.k.k.k.k.k.k.k.k.k.k.k.k.k.k.k.k.k.k.k.k.k.k.k.k.k.k.k.k.b.N.| B - ",
"- N } N.b.k.k.k.k.k.k.k.k.k.k.k.k.k.k.k.k.k.k.k.k.k.k.k.k.k.k.k.k.k.k.k.k.k.k.k.k.k.k.k.k.k.k.k.k.k.k.k.k.k.k.k.k.k.k.k.k.k.k.k.k.k.k.k.k.b.N.| B - ",
"- B } N.b.k.k.k.k.k.k.k.k.k.k.k.k.k.k.k.k.k.k.k.k.k.k.k.k.k.k.k.k.k.k.k.k.k.k.k.k.k.k.k.k.k.k.k.k.k.k.k.k.k.k.k.k.k.k.k.k.k.k.k.k.k.k.k.k.b.N.| N - ",
"- B } N.b.k.k.k.k.k.k.k.k.k.k.k.k.k.k.k.k.k.k.k.k.k.k.k.k.k.k.k.k.l.b.b.b.b.b.b.l.k.k.k.k.k.k.k.k.k.k.k.k.k.k.k.k.k.k.k.k.k.k.k.k.k.k.k.k.b.N.| N - ",
"- B } N.b.k.k.k.k.k.k.k.k.k.k.k.k.k.k.k.k.k.k.k.k.k.k.k.k.k.k.k.k.l.b.N.N.N.N.b.l.k.k.k.k.k.k.k.k.k.k.k.k.k.k.k.k.k.k.k.k.k.k.k.k.k.k.k.k.b.N.| N - ",
"- B } N.b.k.k.k.k.k.k.k.k.k.k.k.k.k.k.k.k.k.k.k.k.k.k.k.k.k.k.l.l.u.4.........3.u.l.l.k.k.k.k.k.k.k.k.k.k.k.k.k.k.k.k.k.k.k.k.k.k.k.k.k.k.b.N.| N - ",
"- B | N.b.k.k.k.k.k.k.k.k.k.k.k.k.k.k.k.k.k.k.k.k.k.k.k.k.k.k.b.b.4.P v N N v P 4.b.b.k.k.k.k.k.k.k.k.k.k.k.k.k.k.k.k.k.k.k.k.k.k.k.k.k.k.b.N.} N - ",
"- B | N.b.k.k.k.k.k.k.k.k.k.k.k.k.k.k.k.k.k.k.k.k.k.k.k.k.k.k.b.N...v X # # X v ..N.b.k.k.k.k.k.k.k.k.k.k.k.k.k.k.k.k.k.k.k.k.k.k.k.k.k.k.b.N.} N - ",
"- B | N.b.k.k.k.k.k.k.k.k.k.k.k.k.k.k.k.k.k.k.k.k.k.k.k.k.k.k.b.N...N # - - # N ..N.b.k.k.k.k.k.k.k.k.k.k.k.k.k.k.k.k.k.k.k.k.k.k.k.k.k.k.b.N.} N - ",
"- B | N.b.k.k.k.k.k.k.k.k.k.k.k.k.k.k.k.k.k.k.k.k.k.k.k.k.l.b.C.A.#.N - ; ; - N #.A.C.b.l.k.k.k.k.k.k.k.k.k.k.k.k.k.k.k.k.k.k.k.k.k.k.k.k.b.N.} N - ",
"- B } N.b.k.k.k.k.k.k.k.k.k.k.k.k.k.k.k.k.k.k.k.k.k.k.k.k.l.b.A.F.#.v # - - # v #.F.A.b.l.k.k.k.k.k.k.k.k.k.k.k.k.k.k.k.k.k.k.k.k.k.k.k.k.b.N.| B - ",
"- B } N.b.k.k.k.k.k.k.k.k.k.k.k.k.k.k.k.k.k.k.k.k.k.k.l.l.u.4.O.#.` H s 8 6 s H ` #.O.4.u.l.l.k.k.k.k.k.k.k.k.k.k.k.k.k.k.k.k.k.k.k.k.k.k.b.N.| B - ",
"- B } N.b.k.k.k.k.k.k.k.k.k.k.k.k.k.k.k.k.k.k.k.k.k.k.b.b.4.P x x H ' _ s s _ ' H x x P 3.b.b.k.k.k.k.k.k.k.k.k.k.k.k.k.k.k.k.k.k.k.k.k.k.b.N.| B - ",
"- N } N.b.k.k.k.k.k.k.k.k.k.k.k.k.k.k.k.k.k.k.k.k.k.k.b.N...v . . s _ ( s s ( _ s . . v ..N.b.k.k.k.k.k.k.k.k.k.k.k.k.k.k.k.k.k.k.k.k.k.k.b.N.| B - ",
"- B } N.b.k.k.k.k.k.k.k.k.k.k.k.k.k.k.k.k.k.k.k.k.k.k.b.N...N X - 8 s s q q s s 8 - # N ..N.b.k.k.k.k.k.k.k.k.k.k.k.k.k.k.k.k.k.k.k.k.k.k.b.N.| B - ",
"- B } N.b.k.k.k.k.k.k.k.k.k.k.k.k.k.k.k.k.k.k.k.k.k.k.b.N...N X - 6 y a q q y y 6 - # N ..N.b.k.k.k.k.k.k.k.k.k.k.k.k.k.k.k.k.k.k.k.k.k.k.b.N.| B - ",
"- B } N.b.k.k.k.k.k.k.k.k.k.k.k.k.k.k.k.k.k.k.k.k.k.k.b.N...v . . a ~ ~ a a ~ ~ a . . v ..N.b.k.k.k.k.k.k.k.k.k.k.k.k.k.k.k.k.k.k.k.k.k.k.b.N.| B - ",
"- B } N.b.k.k.k.k.k.k.k.k.k.k.k.k.k.k.k.k.k.k.k.k.k.k.b.b.4.P l l E y.>.Z Z >.y.E l l P 4.b.b.k.k.k.k.k.k.k.k.k.k.k.k.k.k.k.k.k.k.k.k.k.k.b.N.| B - ",
"- B | N.b.k.k.k.k.k.k.k.k.k.k.k.k.k.k.k.k.k.k.k.k.k.k.l.l.u.4...| r.j.;.N N ;.j.r.| | 3.u.l.l.k.k.k.k.k.k.k.k.k.k.k.k.k.k.k.k.k.k.k.k.k.k.b.N.| B - ",
"- B | N.b.k.k.k.k.k.k.k.k.k.k.k.k.k.k.k.k.k.k.k.k.k.k.k.k.l.b.C.C.d.4.W r r W 4.d.C.C.b.l.k.k.k.k.k.k.k.k.k.k.k.k.k.k.k.k.k.k.k.k.k.k.k.k.b.N.| B - ",
"- B | N.b.k.k.k.k.k.k.k.k.k.k.k.k.k.k.k.k.k.k.k.k.k.k.k.k.l.b.C.C.4.L w 3 3 w L 4.C.C.b.l.k.k.k.k.k.k.k.k.k.k.k.k.k.k.k.k.k.k.k.k.k.k.k.k.b.N.| B - ",
"- B | N.b.k.k.k.k.k.k.k.k.k.k.k.k.k.k.k.k.k.k.k.k.k.k.k.k.k.k.b.b.<.J g v v g K <.b.b.k.k.k.k.k.k.k.k.k.k.k.k.k.k.k.k.k.k.k.k.k.k.k.k.k.k.b.N.| B - ",
"- B } N.b.k.k.k.k.k.k.k.k.k.k.k.k.k.k.k.k.k.k.k.k.k.k.k.k.k.k.l.l.u.<.} ....} <.u.l.l.k.k.k.k.k.k.k.k.k.k.k.k.k.k.k.k.k.k.k.k.k.k.k.k.k.k.b.N.} B - ",
"- B } N.b.k.k.k.k.k.k.k.k.k.k.k.k.k.k.k.k.k.k.k.k.k.k.k.k.k.k.k.k.l.b.N.N.N.N.b.l.k.k.k.k.k.k.k.k.k.k.k.k.k.k.k.k.k.k.k.k.k.k.k.k.k.k.k.k.b.N.} B - ",
"- B } N.b.k.k.k.k.k.k.k.k.k.k.k.k.k.k.k.k.k.k.k.k.k.k.k.k.k.k.k.k.l.b.b.b.b.b.b.l.k.k.k.k.k.k.k.k.k.k.k.k.k.k.k.k.k.k.k.k.k.k.k.k.k.k.k.k.b.N.} N - ",
"- N } N.b.k.k.k.k.k.k.k.k.k.k.k.k.k.k.k.k.k.k.k.k.k.k.k.k.k.k.k.k.k.k.k.k.k.k.k.k.k.k.k.k.k.k.k.k.k.k.k.k.k.k.k.k.k.k.k.k.k.k.k.k.k.k.k.k.b.N.} N - ",
"- B } N.b.k.k.k.k.k.k.k.k.k.k.k.k.k.k.k.k.k.k.k.k.k.k.k.k.k.k.k.k.k.k.k.k.k.k.k.k.k.k.k.k.k.k.k.k.k.k.k.k.k.k.k.k.k.k.k.k.k.k.k.k.k.k.k.k.b.N.| N - ",
"- B } N.b.k.k.k.k.k.k.k.k.k.k.k.k.k.k.k.k.k.k.k.k.k.k.k.k.k.k.k.k.k.k.k.k.k.k.k.k.k.k.k.k.k.k.k.k.k.k.k.k.k.k.k.k.k.k.k.k.k.k.k.k.k.k.k.k.b.N.| N - ",
"- B } N.b.k.k.k.k.k.k.k.k.k.k.k.k.k.k.k.k.k.k.k.k.k.k.k.k.k.k.k.k.k.k.k.k.k.k.k.k.k.k.k.k.k.k.k.k.k.k.k.k.k.k.k.k.k.k.k.k.k.k.k.k.k.k.k.k.b.N.| N - ",
"- B } N.b.k.k.k.k.k.k.k.k.k.k.k.k.k.k.k.k.k.k.k.k.k.k.k.k.k.k.k.k.k.k.k.k.k.k.k.k.k.k.k.k.k.k.k.k.k.k.k.k.k.k.k.k.k.k.k.k.k.k.k.k.k.k.k.k.b.N.| N - ",
"- B | N.b.k.k.k.k.k.k.k.k.k.k.k.k.k.k.k.k.k.k.k.k.k.k.k.k.k.k.k.k.k.k.k.k.k.k.k.k.k.k.k.k.k.k.k.k.k.k.k.k.k.k.k.k.k.k.k.k.k.k.k.k.k.k.k.k.b.N.| N - ",
"- B | N.b.k.k.k.k.k.k.k.k.k.k.k.k.k.k.k.k.k.k.k.k.k.k.k.k.k.k.k.k.k.k.k.k.k.k.k.k.k.k.k.k.k.k.k.k.k.k.k.k.k.k.k.k.k.k.k.k.k.k.k.k.k.k.k.k.b.N.| N - ",
"- B | N.b.k.k.k.k.k.k.k.k.k.k.k.k.k.k.k.k.k.k.k.k.k.k.k.k.k.k.k.k.k.k.k.k.k.k.k.k.k.k.k.k.k.k.k.k.k.k.k.k.k.k.k.k.k.k.k.k.k.k.k.k.k.k.k.k.b.N.| N - ",
"- B | N.b.k.k.k.k.k.k.k.k.k.k.k.k.k.k.k.k.k.k.k.k.k.k.k.k.k.k.k.k.k.k.k.k.k.k.k.k.k.k.k.k.k.k.k.k.k.k.k.k.k.k.k.k.k.k.l.b.b.b.b.b.b.l.k.k.b.N.| N - ",
"- B } N.b.k.k.k.k.k.k.k.k.k.k.k.k.k.k.k.k.k.k.k.k.k.k.k.k.k.k.k.k.k.k.k.k.k.k.k.k.k.k.k.k.k.k.k.k.k.k.k.k.k.k.k.k.k.k.l.b.N.N.N.N.b.l.k.k.b.N.| B - ",
"- B } N.b.k.k.k.k.k.k.k.k.k.k.k.k.k.k.k.k.l.b.b.b.b.b.b.l.k.k.k.k.k.k.k.k.k.k.k.k.k.k.k.k.l.b.b.b.b.b.b.l.k.k.k.k.l.l.u.<.} ....} <.u.l.l.b.N.| B - ",
"- B } N.b.k.k.k.k.k.k.k.k.k.k.k.k.k.k.k.k.l.b.N.N.N.N.b.l.k.k.k.k.k.k.k.k.k.k.k.k.k.k.k.k.l.b.N.N.N.N.b.l.k.k.k.k.b.b.<.J g v v g J <.b.b.b.N.| B - ",
"- N } N.b.k.k.k.k.k.k.k.k.k.k.k.k.k.k.l.l.u.<.} ....} <.u.l.l.k.k.k.k.k.k.k.k.k.k.k.k.l.l.u.<.} ....} <.u.l.l.k.k.b.C.4.U r 3 3 r P 4.C.b.b.N.} B - ",
"- B } N.b.k.k.k.k.k.k.k.k.k.k.k.k.k.k.b.b.<.J g v v g J <.b.b.k.k.k.k.k.k.k.k.k.k.k.k.b.b.<.K g v v g J <.b.b.k.k.b.N.g.r.! t t ! r.g.N.b.b.N.} B - ",
"- B } N.b.k.k.k.k.k.k.k.k.k.k.k.k.l.b.C.C.4.L w 3 3 w L 4.C.C.b.l.k.k.k.k.k.k.k.k.l.b.C.C.4.L w 3 3 w L 4.C.C.b.b.u.3.#.>./ a a ( >.#.4.u.N.C.| B - ",
"- B } N.b.k.k.k.k.k.k.k.k.k.k.k.k.l.b.C.C.d.4.W r r W 4.d.C.C.b.l.k.k.k.k.k.k.k.k.l.b.C.C.d.4.W r r W 4.d.C.C.C.N.4.P N Z d q q d Z N P 4.C.C.| B - ",
"- B } N.b.k.k.k.k.k.k.k.k.k.k.l.l.u.4...| r.j.;.N N ;.j.r.....4.u.l.l.k.k.k.k.l.l.u.4...| r.j.;.N N ;.j.r.| ..9.d...x . X ; , , , X . l ..A.A.| B - ",
"- B | N.b.k.k.k.k.k.k.k.k.k.k.b.b.3.L l l E y.>.Z Z >.y.E l l P 3.b.b.k.k.k.k.b.b.4.P l l E y.>.Z Z >.y.E l l Y r.#.v . - , , , , # . l | A.A.} N - ",
"- B | N.b.k.k.k.k.k.k.k.k.k.k.b.N...v . . a ~ ~ a a ~ ~ a . . v ..N.b.k.k.k.k.b.N...v . . a ~ ~ a a ~ ~ a . . B #.r.R y 6 , , , , 6 y U 4.C.C.} N - ",
"- B | N.b.k.k.k.k.k.k.k.k.k.k.b.N...N X - 6 y y q q y y 6 - # N ..N.b.k.k.k.k.b.N...N X - 6 y y q q y y 6 - # N O.h.t.~ s ; , , ; s ~ q.d.N.N.} N - ",
"- B | N.b.k.k.k.k.k.k.k.k.k.k.b.N...N # - q s s q q s s 6 - # N ..N.b.k.k.k.k.b.N...N X - q s s q q s s 6 - # N ..F.F.=.B # - - # B =.A.N.b.N.| N - ",
"- B } N.b.k.k.k.k.k.k.k.k.k.k.b.N...v . . s _ ( s s ( _ s . . v ..N.b.k.k.k.k.b.N...v . . s _ ( s s ( _ s . . v ..F.F.#.v X # # X v #.C.b.b.N.| N - ",
"- B } N.b.k.k.k.k.k.k.k.k.k.k.b.b.4.P x x H ' _ s s _ ' H x l P 4.b.b.k.k.k.k.b.b.4.P x x H ' _ s s _ ' H x x P 4.C.A.4.Y Z Z Z Z Y 9.C.b.b.N.| N - ",
"- B } N.b.k.k.k.k.k.k.k.k.k.k.l.l.u.4.O.#.` H s q q s H ` #.O.3.u.l.l.k.k.k.k.l.l.u.4.O.#.` H s 8 6 s H ` #.O.4.u.b.C.d.r.;.;.;.;.r.d.N.b.b.N.} N - ",
"- N } N.b.k.k.k.k.k.k.k.k.k.k.k.k.l.b.A.F.#.v # - - # v #.F.A.b.l.k.k.k.k.k.k.k.k.l.b.A.F.#.v # - - X v #.F.A.N.b.u.4.O.=.;.=.#.#.O.} <.u.b.N.} N - ",
"- B } N.b.k.k.k.k.k.k.k.k.k.k.k.k.l.b.C.A.#.N - ; ; - N #.A.C.b.l.k.k.k.k.k.k.k.k.l.b.C.A.#.N - ; ; - N #.A.C.N.N.3.P v Z Z Z N N x g J <.C.C.| N - ",
"- B } N.b.k.k.k.k.k.k.k.k.k.k.k.k.k.k.b.N...N # - - # N ..N.b.k.k.k.k.k.k.k.k.k.k.k.k.b.N...N # - - # N ..N.b.b.N...v X X 4 a Z Z v l L 2.C.C.| N - ",
"- B } N.b.k.k.k.k.k.k.k.k.k.k.k.k.k.k.b.N...v X # # X v ..N.b.k.k.k.k.k.k.k.k.k.k.k.k.b.N...v X # # X v ..N.b.b.N...N X X a / >.;.O.O.4.u.N.C.| N - ",
"- B } N.b.k.k.k.k.k.k.k.k.k.k.k.k.k.k.b.b.4.P v N N v P 3.b.b.k.k.k.k.k.k.k.k.k.k.k.k.b.b.4.P v N N v P 3.b.b.b.N.O.N X X a / >.>.;.;.q.u.N.C.| N - ",
"- B | N.b.k.k.k.k.k.k.k.k.k.k.k.k.k.k.l.l.u.3.........4.u.l.l.k.k.k.k.k.k.k.k.k.k.k.k.l.l.u.3.........3.u.l.l.b.N...v X X 4 a Z G Z Z Y 4.C.C.| N - ",
"- B | N.b.k.k.k.k.k.k.k.k.k.k.k.k.k.k.k.k.l.b.N.N.N.N.b.l.k.k.k.k.k.k.k.k.k.k.k.k.k.k.k.k.l.b.N.N.N.N.b.l.k.k.b.b.4.Y Z Z G Z a 4 X X v ..A.A.| N - ",
"- B | N.b.k.k.k.k.k.k.k.k.k.k.k.k.k.k.k.k.l.b.b.b.b.b.b.l.k.k.k.k.k.k.k.k.k.k.k.k.k.k.k.k.l.b.b.b.b.b.b.l.k.k.l.l.u.q.;.;.>.>./ a X X N O.A.A.| N - ",
"- B | N.b.k.k.k.k.k.k.k.k.k.k.k.k.k.k.k.k.k.k.k.k.k.k.k.k.k.k.k.k.k.k.k.k.k.k.k.k.k.k.k.k.k.k.k.k.k.k.k.k.k.k.l.l.u.4.O.O.;.>./ a X X N ..A.A.| N - ",
"- B } N.b.k.k.k.k.k.k.k.k.k.k.k.k.k.k.k.k.k.k.k.k.k.k.k.k.k.k.k.k.k.k.k.k.k.k.k.k.k.k.k.k.k.k.k.k.k.k.k.k.k.k.b.b.2.L l v B Z a 4 X X v ..A.A.| B - ",
"- Z O.C.b.k.k.k.k.k.k.k.k.k.k.k.k.k.k.k.k.k.k.k.k.k.k.k.k.k.k.k.k.k.k.k.k.k.k.k.k.k.k.k.k.k.k.k.k.k.k.k.k.k.k.b.b.<.J f g x x v B N v P 3.C.F.O.Z - ",
"- Z #.A.b.k.k.k.k.k.k.k.k.k.k.k.k.k.k.k.k.k.k.k.k.k.k.k.k.k.k.k.k.k.k.k.k.k.k.k.k.k.k.k.k.k.k.k.k.k.k.k.k.k.k.l.l.u.<.} } } } } ......4.u.N.F.#.Z - ",
"- a Q q.d.n.b.b.b.b.b.b.b.b.b.b.b.b.b.b.b.b.b.b.b.b.b.b.b.b.b.b.b.b.b.b.b.b.b.b.b.b.b.b.b.b.b.b.b.b.b.b.b.b.b.b.b.n.C.A.A.A.A.A.A.A.A.A.N.d.q.Q a - ",
", 6 y Y q.A.C.N.N.N.N.N.N.N.N.N.N.N.N.N.N.N.N.N.N.N.N.N.N.N.N.N.N.N.N.N.N.N.N.N.N.N.N.N.N.N.N.N.N.N.N.N.N.N.N.N.N.C.C.A.A.A.A.A.A.A.A.F.F.q.Y y 6 , ",
"1 - # y Q #.O.| } } } } | | | | } } } } } } | | | | | } } } } | | | } } } } | | } } } } | | | | } } } } } } | | | | } | } } | | | | | O.#.Q y # - 1 ",
"    - 6 a Z Z B N B B B B B B B B B B B N N B B B B B B N B B B B B B B N B B B N B B B B B B B B B B B N N B B B B B B N B B B B B B Z Z a 6 -     ",
"    1 , - - - - - - - - - - - - - - - - - - - - - - - - - - - - - - - - - - - - - - - - - - - - - - - - - - - - - - - - - - - - - - - - - - , 1     "
};
