/* XPM */
static char *clubs_q[] = {
/* columns rows colors chars-per-pixel */
"74 104 199 2 ",
"   c None",
".  c #1D002B",
"X  c #1F0433",
"o  c #21012E",
"O  c #2D022D",
"+  c #2C0B2D",
"@  c #30072F",
"#  c #240532",
"$  c #260833",
"%  c #2B0D35",
"&  c #2C0F3A",
"*  c #310D31",
"=  c #2E123B",
"-  c #321031",
";  c #31143C",
":  c #4A032C",
">  c #49052D",
",  c #56032B",
"<  c #5C0A2E",
"1  c #56062B",
"2  c #441E29",
"3  c #4A1D26",
"4  c #4F0930",
"5  c #7D0A24",
"6  c #46212C",
"7  c #4A232C",
"8  c #4D2628",
"9  c #552927",
"0  c #542C2B",
"q  c #582E2B",
"w  c #532425",
"e  c #5A302B",
"r  c #7B2A24",
"t  c #743F26",
"y  c #794823",
"u  c #77411C",
"i  c #462B4D",
"p  c #482D4F",
"a  c #452D53",
"s  c #492F50",
"d  c #453152",
"f  c #4C3253",
"g  c #4F3A5D",
"h  c #503756",
"j  c #543C5A",
"k  c #583F5D",
"l  c #6C2C4D",
"z  c #6D3250",
"x  c #723451",
"c  c #72304E",
"v  c #55415E",
"b  c #59415E",
"n  c #6C4C4C",
"m  c #684648",
"M  c #785753",
"N  c #7E5748",
"B  c #554260",
"V  c #5B4461",
"C  c #7B667A",
"Z  c #7D6A7D",
"A  c #7E6477",
"S  c #820527",
"D  c #9F0726",
"F  c #A30926",
"G  c #A8102F",
"H  c #AB1531",
"J  c #AE1A34",
"K  c #B11731",
"L  c #802026",
"P  c #FF051C",
"I  c #FF0A1C",
"U  c #FF121B",
"Y  c #D52E1E",
"T  c #C7231F",
"R  c #FC251B",
"E  c #FE2B1E",
"W  c #FA2B18",
"Q  c #FE321C",
"!  c #CC0C24",
"~  c #C80623",
"^  c #DB0B21",
"/  c #D50A23",
"(  c #DA1121",
")  c #DC1830",
"_  c #FF0F20",
"`  c #F60D21",
"'  c #FF1529",
"]  c #FF1720",
"[  c #D32E20",
"{  c #995E1F",
"}  c #955D1E",
"|  c #BF5E1A",
" . c #98601E",
".. c #BD7C1B",
"X. c #BD7915",
"o. c #AB6D19",
"O. c #965D20",
"+. c #804326",
"@. c #9C6424",
"#. c #A26B28",
"$. c #A7712C",
"%. c #F24A1B",
"&. c #CC661B",
"*. c #D1691B",
"=. c #C17E19",
"-. c #C87D17",
";. c #F96319",
":. c #F47E15",
">. c #F87E17",
",. c #E87D17",
"<. c #F76D22",
"1. c #843450",
"2. c #FF3544",
"3. c #F63748",
"4. c #81445F",
"5. c #806D7F",
"6. c #826679",
"7. c #FE5341",
"8. c #FF4652",
"9. c #FF4952",
"0. c #F36970",
"q. c #F3676F",
"w. c #D74757",
"e. c #BE801B",
"r. c #C3821A",
"t. c #CB8716",
"y. c #D0801A",
"u. c #ED9E0D",
"i. c #EA8117",
"p. c #FB8416",
"a. c #F48416",
"s. c #E99A15",
"d. c #EFA10F",
"f. c #F1A20F",
"g. c #EFA212",
"h. c #EDAA15",
"j. c #F2A512",
"k. c #F3AC13",
"l. c #FCAC12",
"z. c #F0A71E",
"x. c #FBB01E",
"c. c #F5B438",
"v. c #EEAE38",
"b. c #D18E22",
"n. c #CD994A",
"m. c #F5B945",
"M. c #F4B949",
"N. c #F3B746",
"B. c #F4C76E",
"V. c #7B6C81",
"C. c #7E7081",
"Z. c #816F80",
"A. c #837182",
"S. c #9B8B96",
"D. c #9C8E99",
"F. c #9D919B",
"G. c #A68C97",
"H. c #A1929B",
"J. c #A69697",
"K. c #FF9695",
"L. c #FFA195",
"P. c #D4A8A8",
"I. c #D4A6A7",
"U. c #C1B7B7",
"Y. c #C2B8B7",
"T. c #C4BABA",
"R. c #C8BFBD",
"E. c #C1B7B8",
"W. c #D4A494",
"Q. c #F6D38A",
"!. c #C6C0BE",
"~. c #CAC1BE",
"^. c #CEC2B6",
"/. c #D2C5B8",
"(. c #FFC3BB",
"). c #F2C3BC",
"_. c #EBD9B5",
"`. c #F4DFB1",
"'. c #F9E5B6",
"]. c #F7E4B8",
"[. c #CCC5C2",
"{. c #CBC6C2",
"}. c #D0C7C3",
"|. c #D2CAC5",
" X c #D3CDC8",
".X c #D8C4C0",
"XX c #D8D1CB",
"oX c #D6D2CC",
"OX c #F7E8C3",
"+X c #EAE6DA",
"@X c #EDE9DD",
"#X c #F2EDDD",
"$X c #FBF5DE",
"%X c #F6F3E4",
"&X c #F9F6E7",
"*X c #F6F5E9",
"=X c #FCFAE9",
"-X c #F9F7E8",
";X c #FAFAF0",
/* pixels */
"    $ # o o o o o o o o o o o o o o o o o o o o o o o o o o o o o o o o o o o o o o o o o o o o o o o o o o o o o o o o o o o o o o o o o o # $     ",
"    o ; f b b b b b k k k k b b k k k k k k k k k k k k k k k k k k k k k k k k k k k k k k k k k k k k k k k k k k k k k k k k k k k b b f ; o     ",
"$ o . s S.T.T.Y.T.Y.Y.Y.Y.Y.Y.Y.Y.Y.Y.Y.Y.Y.Y.Y.Y.Y.Y.Y.U.U.Y.Y.Y.Y.Y.Y.Y.Y.Y.Y.U.Y.U.U.Y.Y.Y.Y.Y.Y.Y.Y.U.U.Y.Y.Y.Y.Y.Y.Y.Y.Y.Y.Y.Y.Y.T.T.S.s . o $ ",
"# ; s Z. X=X=X=X=X=X=X=X=X=X=X=X=X=X=X=X=X=X=X=X=X=X=X=X=X=X=X=X=X=X=X=X=X=X=X=X=X=X=X=X=X=X=X=X=X=X=X=X=X=X=X=X=X=X=X=X=X=X=X=X=X=X=X=X=X XZ.s ; # ",
"o f S. X@X=X=X=X=X=X=X=X=X=X=X&X&X&X&X&X&X&X&X&X&X&X&X&X&X&X&X&X&X&X&X&X&X&X&X&X&X&X&X&X&X&X&X&X&X&X&X&X&X&X&X&X&X&X&X&X&X&X&X&X&X&X&X&X=X@X XS.f o ",
"o b T.=X=X+X}.T.T.T.Y.U.T.}.+X%X%X%X&X&X&X&X&X&X&X&X&X&X&X&X&X&X&X&X&X&X&X&X&X&X&X&X&X&X&X&X&X&X&X&X&X&X&X&X&X&X&X&X&X&X&X&X&X&X%X%X%X%X%X-X=XT.b o ",
"o b T.=X=X}.Z j k k j j j Z }.&X&X%X&X=X=X=X=X=X=X=X=X=X=X=X=X=X=X=X=X=X=X=X=X=X=X=X=X=X=X=X=X=X=X=X=X=X=X=X=X=X=X=X=X=X=X=X=X&X%X%X%X%X%X&X=XT.b o ",
"o k Y.=X=XT.j . . = s i % j T.=X=X+X[.U.U.U.U.U.U.U.U.U.U.U.U.U.U.U.U.U.U.U.U.U.U.U.U.U.U.U.U.U.U.U.U.U.U.U.U.U.U.U.U.U.U.U.Y.}.+X%X%X%X%X&X=XY.k o ",
"o b Y.=X=XT.k . . f F.S.p j U.=X=X[.C h h j j j j j j j j j j j j j j j j j j j j j j j j j j j j j j j j j j j j j j j j j j Z }.&X&X%X%X&X=XY.k o ",
"o b Y.=X=XT.b . . V [.[.b j U.=X=X[.C h j j j j j j k k k k k k k k k k k k k k k k j j k k j j j j j j j j j j j j j j j i % j T.=X&X%X%X&X=XY.k o ",
"o b Y.=X=XT.b . . V [.[.b j U.=X=X+X[.U.U.U.U.U.U.T.T.T.T.T.T.T.T.T.T.T.T.T.T.T.T.T.T.T.T.T.E.U.U.U.U.U.U.U.U.U.U.U.U.T.T.S.i j U.=X&X%X%X&X=XY.k o ",
"o b Y.=X=XT.b o o h H.F.f j T.=X&X%X&X=X=X=X=X=X=X@X}./._.'.'.'.'.'.'.'.'.'.'.'.'.'.'.'.'.OX$X=X=X=X=X=X=X=X=X=X=X=X=X=X=XT.j j U.=X&X%X%X&X=XY.k o ",
"o b Y.=X=XT.b o o ; f f = b R.=X=X%X&X&X&X&X&X=X=X}.Z M n.m.M.M.M.M.M.M.M.M.M.M.M.M.M.N.N.B.OX=X=X=X=X=X-X&X&X&X&X&X&X=X=XT.j j U.=X&X%X%X&X=XY.k o ",
"o b Y.=X=XT.k . o o o . . s S.}.+X%X%X%X%X%X%X&X&X[.C m @.t.s.f.f.d.d.d.f.f.f.f.d.d.d.u.u.v.Q.].].`.`.].#X*X*X%X%X%X%X&X=XU.j j U.=X&X%X%X&X=XY.k o ",
"o k Y.=X=XT.j . . o o . o % i Z }.&X&X%X%X%X%X%X%X+X}.G.m u t.j.j.g.g.g.j.j.j.j.j.g.g.g.g.z.v.N.N.N.N.B.OX*X*X*X%X%X%X&X=XU.j j U.=X&X%X%X&X=XY.k o ",
"o k Y.=X=X}.Z j b V V V V k j C [.&X&X%X%X%X%X%X%X&X=X|.V.m @.-.,.>.>.,.-.....t.s.g.g.g.g.g.g.d.g.u.u.v.Q.].'.].#X%X%X&X=XU.j j U.=X&X%X%X&X=XY.k o ",
"o b Y.=X-X+X}.T.R.~.~.~.~.T.Y.[.+X&X%X%X%X%X%X%X%X&X&X@X|.J.n r Y Q Q [ r 8 7 y t.k.j.g.g.g.g.g.g.g.g.z.c.m.m.B.].%X%X&X=XU.j j U.=X&X%X%X&X=XY.k o ",
"o b Y.=X&X&X=X@X XR.R.R.R. X@X=X&X%X%X%X&X&X%X%X%X%X%X&X=X XV.l H ( E Y r 8 8 t &.>.>.a.g.j.j.j.j.j.j.s.t.X.X.n._.*X%X&X=XU.j j U.=X&X%X%X&X=XY.k o ",
"o b Y.=X&X&X=X}.Z.b b b b Z.}.=X&X%X%X%X&X&X%X%X%X%X%X%X&X@X|.G.c L &.a.y...e.&.%.E E %.a.j.j.j.j.j.k.t.y w w M ^.-X&X&X=XU.j j U.=X&X%X%X&X=XY.k o ",
"o b Y.=X&X&X=XT.j . . o . j T.=X-X&X&X+X}.}.+X&X&X%X%X%X%X=X=XR.B 2  .r.r.r.r.*.%.E E %.&.............#.n g g Z [.&X&X&X=XU.j j U.=X&X%X%X&X=XY.k o ",
"o k Y.=X&X=X=XR.b . o o . b R.=X-X&X=X}.Z Z }.=X&X%X%X%X%X=X=X~.B + 6 e e q 0 +.*.p.p.*.t 8 0 0 0 9 w n J.T.T.[.+X%X%X&X=XU.j j U.=X&X%X%X&X=XY.k o ",
"o k Y.=X=X@X XD.f # # # # f D. X@X@X XS.i i S. X@X%X%X%X&X+X}.S.f # # # X X X 7 @.r.r.@.u 0 0 7 % & a V. X=X=X&X%X%X%X&X=XU.j j U.=X&X%X%X&X=XY.k o ",
"o b Y.=X=X}.5.s ; # # # # ; s A. X XA.p & & p 5.}.&X&X&X=X}.Z i = # # # # X # - 7 0 9 t o.r.r.{ 2 a S.|.@X=X=X&X%X%X%X&X=XU.j j U.=X&X%X%X&X=XY.k o ",
"o b Y.=X=XT.j . o # # $ # o . j R.R.j . o o . j T.=X&X&X&X}.Z i = # # ; f f ; o # = a n $.r.r.{ 2 B R.=X=X%X%X%X%X%X%X&X=XU.j j U.=X&X%X%X&X=XY.k o ",
"o k Y.=X=XT.j . . # # # # . . k R.R.j . o o . j Y.=X&X%X%X+X}.S.f o . f H.H.f . . f F.J.M 0 0 6 + B ~.=X=X%X%X%X%X%X%X&X=XU.j j U.=X&X%X%X&X=XY.k o ",
"o k Y.=X=X}.Z k b f ; ; f b k Z. X XA.f ; ; f A.}.&X&X%X%X=X=X~.b % i A.XXXXA.i % V [..X4., , , , c G. X@X%X%X%X%X%X%X&X=XU.j j U.=X&X%X%X&X=XY.k o ",
"o k Y.=X=X+X}.T.~.H.f f H.~.T.}.+X@XXXF.s f D.XX@X%X%X%X%X=X=XR.k i S. X#X#X XS.i v !.).w.~ ~ ~ ! H c Z }.&X&X%X%X%X%X&X=XU.j j U.=X&X%X%X&X=XY.k o ",
"o k Y.=X&X&X=X#X XS.i i S. X#X=X&X@X XS.s s S. X@X%X%X%X%X@X XS.i k T.=X-X-X=XT.j j T.(.9.U R Q Q T 1 g T.=X&X%X%X%X%X&X=XU.j j U.=X&X%X%X&X=XY.k o ",
"o k Y.=X&X&X=X}.5.i % % i 5.}.=X=X}.Z p ; ; i Z }.&X&X&X&X}.5.i & b T.=X&X&X=XT.j k T.(.8.R ;.p.p.| 3 g T.=X=X%X%X%X%X&X=XU.j j U.=X&X%X%X&X=XY.k o ",
"o b Y.=X&X&X&X[.C j b b j C [.=X=X}.5.i ; ; i Z }.&X&X-X=XT.j . . b R.=X&X&X=XU.j j T.(.8.W :.k.k.-.r c G. X@X&X%X%X%X&X=XU.j j U.=X&X%X%X&X=XY.k o ",
"o k Y.=X&X%X%X+X[.Y.T.T.Y.[.+X&X=X#X XS.s s S. X@X%X%X=X=XR.k . . b R.=X=X&X=XU.j j !.(.8.W :.k.k.i.Y H l V. X=X&X%X%X&X=XU.j j U.=X&X%X%X&X=XY.k o ",
"o k Y.=X&X%X%X&X=X@X X X@X=X&X+X}.T.R.S.p p D.XX@X&X&X@X XD.f o o f D.|.@X=X=X^.M n J.I.q.7.<.:.a.;.E ^ 5 l G.|.@X&X%X&X=XU.j j U.=X&X%X%X&X=XY.k o ",
"o k Y.=X&X%X%X&X=X}.Z Z }.=X=X}.Z j k s = & f A.}.=X=X}.5.s ; # # ; a V.|.=X;X_.n.#.n A I.L.7.W Q E ] ` ^ G l V. X=X&X&X=XU.j j U.=X&X%X%X&X=XY.k o ",
"o k Y.=X&X%X%X&X=XU.h h U.=X=XT.j % i k b s % j T.=X=XT.j . o $ $ * 2 N W.'.'.Q.c.=.w a F.P.0.2.' I _ ] E Y r n J. X@X=X=XU.j j U.=X&X%X%X&X=XY.k o ",
"o k Y.=X&X%X%X&X=XU.j j U.=X=XU.j i S.R.~.S.i j U.=X=XR.b o # # # 7 { b.v.m.m.c.x.=.9 & d 6.I.K.2.P I E ;.i.-.@.n V.|.=X=XU.j j U.=X&X%X%X&X=XY.k o ",
"o k Y.=X&X%X%X&X=XU.j j U.=X=XU.j j T.=X=XT.j j T.%XXXD.f # # # # 7  .=.=.X.X.X.X.O.7 # . f F.P.0.2.' Q a.k.k.-.r l G. X%XT.j j U.=X&X%X%X&X=XY.k o ",
"o k Y.=X&X%X%X&X=XU.j j U.=X=XU.j j T.=X=XT.j b ~.XXA.s ; # $ # # + 7 9 q 9 9 9 9 7 - # # = f 6.P.K.2.W :.k.k.i.Y G l V.oXR.k j U.=X&X%X%X&X=XU.k o ",
"o k Y.=X&X%X%X&X=XU.j j U.=X=XU.j j T.=X=XT.j f F.H.f o # # # ; f V V f = = f V V f ; # # # . d F.I.0.7.<.:.a.;.E ( r n J.D.s j Y.=X&X%X%X&X=XU.k o ",
"o k Y.=X&X%X%X&X=XU.j j U.=X=XU.j j T.=X=XR.b = f f ; # # # # f H.[.[.D.a a D.[.[.F.f # # # X = d C I.L.7.W Q E ] W &.#.n a & b T.=X&X%X%X&X=XU.k o ",
"o k Y.=X&X%X%X&X=XU.j j U.=X=XU.j i S.R.~.D.f . . # # $ $ # # f H.[.[.D.f f D.[.[.F.f O > < < < , z H.P.0.2.' P _ Q p.t.y 2 + b T.=X&X%X%X&X=XY.k o ",
"o k Y.=X&X%X%X&X=XU.j j U.=X=XT.j % i k b f = # X # # $ $ $ # ; f V V f ; ; f V V f = 4 F ! ! ! ! H z C P.K.2.P P Q a.g.t.} 2 k T.=X&X%X%X&X=XY.k o ",
"o k Y.=X&X%X%X&X=XU.j j U.=X=X}.Z.b k f = O > < < < < 4 * $ # - 7 9 9 2 - - 7 9 9 6 % < ! _ _ _ _ ^ 5 z H.P.0.2.' R ;.p.p.&.w k T.=X&X%X%X&X=XY.k o ",
"o k Y.=X&X%X%X&X=XU.j j U.=X-X+X X~.~.D.d : D ! ! ! ! F 4 # # 7 O.=.=.O.6 6 O.=.=.O.6 < ! _ _ _ _ ` ^ H z C P.K.2.I R Q Q T 1 v T.=X&X%X%X&X=XY.k o ",
"o k Y.=X&X%X%X&X=XU.j j T.=X=X@X X!.{.J.x S ^ _ _ _ _ ! < X X q =.l.l...0 0 =.l.l.r.0 1 ! _ _ _ _ _ _ ^ S z H.P.q.8.8.3.) D : v T.=X&X%X%X&X=XU.k o ",
"o k Y.=X&X%X%X&X=XU.j j T.=X=X XC.v B x J ^ ` _ _ _ _ ! < X X q =.l.l...0 0 =.l.l.r.0 1 ! _ _ _ _ _ _ ` ^ H c C I.(.(.W.1.: O v T.=X&X%X%X&X=XY.k o ",
"o k Y.=X&X%X%X&X=XY.j p S.~.~.G.c , , S ^ _ _ _ _ _ _ ! < X X q =.l.l...0 6 O.r.r.@.6 > D ! ! ! ~ ! ! ! / F : d F.{.{.F.d . . b T.=X&X%X%X&X=XY.k o ",
"o k Y.=X&X%X%X&X=XT.b = f b B x K ! ! ^ ` _ _ _ _ _ _ ! < X X q =.l.l.=.0 % 7 q q 7 + O > , , , , , < < < 4 @ = f V v d = . . b T.=X&X%X%X&X=XY.k o ",
"o k Y.=X&X%X%X&X=XT.b o . . . : F / / ! ! ! ! ! ! ! ! F > X X 7 { =.r.@.7 # # # # ; f V V B B V V f = # # # # # o = f b V f = k T.=X&X%X%X&X=XY.k o ",
"o k Y.=X&X%X%X&X=XT.b o . . . O : < < < < < < < < < , : O o o + 2 9 q 7 - # # # # f H.[.[.!.!.[.{.F.f # # $ $ # o f F.[.[.F.s j U.=X&X%X%X&X=XY.k o ",
"o k Y.=X&X%X%X&X=XT.k = f V V V V f = # # $ $ # # = f V V V V V V f = # # $ $ # # f H.~.R.T.T.R.~.F.f # # $ $ # o f F.[.[.S.p j Y.=X&X%X%X&X=XY.k o ",
"o k Y.=X&X%X%X&X=XU.j s F.[.~.~.{.F.f # # $ $ # # f F.{.[.~.~.~.[.F.f # # $ $ # # ; f b k k k b b f ; # $ $ $ # o = f b b p & k T.=X&X%X%X&X=XY.k o ",
"o k Y.=X&X%X%X&X=XY.j s S.~.R.~.[.H.f # # $ $ # # f F.~.R.T.T.R.~.H.f # # $ $ # # ; f b k k k b b f ; # $ $ # ; f V b k b p = k T.=X&X%X%X&X=XY.k o ",
"o k Y.=X&X%X%X&X=XT.k & s b k b V f ; # # $ $ $ # ; f b b k k k b f ; # # $ $ # # f F.~.R.T.T.R.~.H.f # # # # f H.[.~.R.~.S.s j U.=X&X%X%X&X=XY.k o ",
"o k Y.=X&X%X%X&X=XT.k = s b b f = o # $ $ $ $ # # ; f b b k k k b f ; # # $ # # # f H.[.~.~.!.[.{.F.f # # # # f F.{.~.~.[.F.s j U.=X&X%X%X&X=XY.k o ",
"o k Y.=X&X%X%X&X=XY.j p S.[.[.F.f o # $ $ $ $ # # f H.~.R.T.T.R.~.H.f # # # # # # ; f V V V V V V f = # # # # = f V V V V f = k T.=X&X%X%X&X=XY.k o ",
"o k Y.=X&X%X%X&X=XY.j s F.[.[.F.f o # $ $ $ $ # # f F.{.[.!.~.~.[.F.f # # - 7 q q 7 + o o O > , , , < < < < < < < : O . . . o b T.=X&X%X%X&X=XY.k o ",
"o k Y.=X&X%X%X&X=XT.k = f V b f = o # $ $ $ $ # # = f V B V V V V f = # # 7 @.r.r.@.7 X X > F ! ! ! ! ! ! ! ! / / F : . . . o b T.=X&X%X%X&X=XY.k o ",
"o k Y.=X&X%X%X&X=XT.b . . = d v V f = @ 4 < < < < < 1 , , > O + 2 9 q 7 % 0 =.l.l.=.q X X < ! _ _ _ _ _ _ ` ^ ! ! K x B b s = b T.=X&X%X%X&X=XY.k o ",
"o k Y.=X&X%X%X&X=XT.b . . d F.{.{.F.d : F / ! ! ! ! ! ! ! D > 6 { =.r.O.6 0 ..l.l.=.q X X < ! _ _ _ _ _ _ ^ S , , c G.~.~.S.p j U.=X&X%X%X&X=XY.k o ",
"o k Y.=X&X%X%X&X=XT.b O : 1.W.(.(.I.A c H ^ ` _ _ _ _ _ _ ! < 0 r.l.l.=.0 0 ..l.l.=.q X X < ! _ _ _ _ ` ^ J x B v C. X=X=XT.j j U.=X&X%X%X&X=XY.k o ",
"o k Y.=X&X%X%X&X=XT.v : D ) 3.8.8.q.P.H.z S ^ _ _ _ _ _ _ ! 1 0 r.l.l.=.0 0 ..l.l.r.q X X < ! _ _ _ _ ^ S x J.{.!. X@X=X=XT.j j U.=X&X%X%X&X=XY.k o ",
"o k Y.=X&X%X%X&X=XT.j 1 T Q Q R I 2.K.P.C z H ^ ` _ _ _ _ ! < 6 O.=.=.O.7 7 O.=.=.{ 7 # # 4 F ! ! ! ! D : d F.~.~. X+X-X=XU.j j U.=X&X%X%X&X=XY.k o ",
"o k Y.=X&X%X%X&X=XT.k w &.p.p.;.R ' 2.0.P.H.z 5 ^ _ _ _ _ ! < % 6 9 9 2 - - 2 9 9 7 - $ $ * 4 < < < < > O = f k b Z.}.=X=XU.j j U.=X&X%X%X&X=XY.k o ",
"o k Y.=X&X%X%X&X=XT.k 2 } t.g.p.Q P P 2.K.P.C z H ! ! ! ! F 4 = f V V f ; ; f V V f ; # $ $ $ # # X # = f b k i % j T.=X=XU.j j U.=X&X%X%X&X=XY.k o ",
"o k Y.=X&X%X%X&X=XT.b + 2 y t.p.Q _ P ' 2.q.P.H.z , < < < > O f F.[.[.D.s s D.[.[.H.f # # $ $ # # . . f D.~.R.S.i j U.=X=XU.j j U.=X&X%X%X&X=XY.k o ",
"o k Y.=X&X%X%X&X=XT.k & a n #.&.W ] E Q W 7.L.I.C d = X # # # f H.[.[.D.a a D.[.[.H.f # # # # ; f f = b R.=X=XT.j j U.=X=XU.j j U.=X&X%X%X&X=XY.k o ",
"o k Y.=X&X%X%X&X=XY.j s D.J.n r ( E ;.a.:.<.7.q.I.F.d . # # # ; f V V f = = f V V h ; # $ # o f H.F.f j T.=X=XT.j j U.=X=XU.j j U.=X&X%X%X&X=XY.k o ",
"o k Y.=X&X%X%X&X=XU.j k R.oXV.l H Y i.k.k.:.W 2.K.P.6.f = # # - 7 9 w 9 9 q 0 7 + # # # # ; s A.XXR.k j T.=X=XT.j j U.=X=XU.j j U.=X&X%X%X&X=XY.k o ",
"o k Y.=X&X%X%X&X=XU.j j T.%X XG.l r -.k.k.a.Q ' 2.0.P.F.f . # 7 O...X.X.X.=.r. .7 # # # # f D.XX%XT.j j T.=X=XT.j j U.=X=XU.j j U.=X&X%X%X&X=XY.k o ",
"o k Y.=X&X%X%X&X=XU.j j U.=X=X|.V.n @.-.i.;.E I P 2.K.I.6.d & 9 r.x.c.M.m.v.b.{ 7 # # # o k R.=X=XU.j i S.~.~.S.i j U.=X=XU.h h U.=X&X%X%X&X=XY.k o ",
"o k Y.=X&X%X%X&X=XU.j j U.=X=X@X XJ.n r Y E ] _ I ' 2.0.I.F.a w =.c.Q.'.'.W.N 2 * $ $ o . j T.=X=XY.j % s b b i % j T.=X=XU.h h U.=X&X%X%X&X=XY.k o ",
"o k Y.=X&X%X%X&X=XU.j j U.=X&X&X=X XV.l G ^ ` ] E Q W 7.L.I.A n #.n._.=X=X|.V.a ; # # ; s 5.}.=X=X}.A.f & = f k j Z }.=X=X}.Z Z }.=X&X%X%X&X=XY.k o ",
"o k Y.=X&X%X%X&X=XU.j j U.=X&X%X&X@X|.G.l 5 ^ E ;.a.:.<.7.q.I.J.n M ^.=X=X@X|.D.f o o f D. X@X&X&X@XXXD.p p S.R.T.}.+X&X=X@X X X@X=X&X%X%X&X=XY.k o ",
"o k Y.=X&X%X%X&X=XU.j j U.=X&X%X%X&X=X XV.l H Y i.k.k.:.W 8.(.!.j j U.=X&X=X=XR.b . . k R.=X=X%X%X@X XS.s s S. X#X=X&X+X[.Y.T.T.Y.[.+X%X%X&X=XY.k o ",
"o k Y.=X&X%X%X&X=XU.j j U.=X&X%X%X%X&X@X XG.z r -.k.k.:.W 8.(.T.j j U.=X&X-X=XR.b . . j T.=X-X&X&X}.Z i = = i 5.}.=X=X[.C j b b j C [.&X&X&X=XY.k o ",
"o k Y.=X&X%X%X&X=XU.j j U.=X&X%X%X%X%X=X=XT.g 3 | p.p.;.R 8.(.T.k j T.=X-X-X=XT.b % i 5.}.&X&X&X&X}.Z i = = i Z }.=X=X}.5.i % % i Z }.=X&X&X=XY.k o ",
"o k Y.=X&X%X%X&X=XU.j j U.=X&X%X%X%X%X=X=XT.g 1 T Q Q R U 9.(.T.k j T.=X=X=X=XT.k i S. X@X%X%X%X%X@X XS.s s S. X@X&X=X#X XS.i i S. X#X=X&X&X=XY.k o ",
"o k Y.=X&X%X%X&X=XU.j j U.=X&X%X%X%X%X&X&X}.V.c H ! ~ ~ ~ w.).!.v i S. X#X#X XS.i k R.=X=X%X%X%X%X@XXXF.s s F.XX@X+X}.R.~.H.f f H.~.T.}.+X=X=XY.k o ",
"o k Y.=X&X%X%X&X=XU.j j U.=X&X%X%X%X%X%X&X@X XG.c , , , , 4..X[.V % i A.XXXXA.i % b ~.=X=X%X%X&X&X}.A.f ; ; f A. X XZ.k b f ; ; f b k Z }.=X=XY.k o ",
"o k Y.=X&X%X%X&X=XU.j j U.=X&X%X%X%X%X%X%X=X=X~.B + 6 0 0 M J.F.f . . f H.H.f . o f S.}.+X%X%X&X=XT.j . o o . j R.R.k . . # # # # . . j Y.=X=XY.k o ",
"o k Y.=X&X%X%X&X=XU.j j U.=X&X%X%X%X%X%X%X=X=XR.B 2  .r.r.$.n a = # # ; f f ; o # = i Z }.&X&X&X=XT.j . o o . j R.R.j . o # # $ # o . j T.=X=XY.k o ",
"o k Y.=X&X%X%X&X=XU.j j U.=X&X%X%X%X&X&X=X@X|.S.a 2 O.r.r.o.t 9 0 7 - # X # # # # = i Z }.&X&X&X&X}.5.p & & p A. X XA.s ; # # # # ; s 5.}.=X=XU.k o ",
"o k Y.=X&X%X%X&X=XU.j j U.=X&X%X%X%X&X=X=X XV.a & % 7 0 0 u @.r.r.@.7 X X X # # # f S.}.+X%X%X%X%X@X XS.i i S. X@X@X XD.f # # # # f D. X@X=X=XU.k o ",
"o k Y.=X&X%X%X&X=XU.j j U.=X&X%X%X+X[.T.T.J.n w 9 0 0 0 8 t *.p.p.*.+.0 q e e 6 + B ~.=X=X%X%X%X%X&X=X}.Z Z }.=X&X=X=XR.b . o o . k R.=X=X&X=XY.k o ",
"o k Y.=X&X%X%X&X=XU.j j U.=X&X&X&X[.Z g g n #...=.........&.%.E E %.*.r.r.r.r. .2 B R.=X=X%X%X%X%X%X&X+X}.}.+X&X&X&X=XT.j . . . . j T.=X&X&X=XY.k o ",
"o k Y.=X&X%X%X&X=XU.j j U.=X&X&X=X^.M w w y t.k.j.j.j.j.k.a.%.E E %.*.e...y.i.&.L c G.|.@X&X%X%X%X%X%X%X&X&X%X%X%X&X=X XZ.b b b b Z.}.=X&X&X=XY.k o ",
"o k Y.=X&X%X%X&X=XU.j j U.=X&X%X*X_.n.X.X.t.s.j.j.j.j.j.j.g.a.>.>.&.t 8 8 r Y R ( H l V. X=X&X%X%X%X%X%X&X&X%X%X%X&X=X@X XR.R.R.R. X@X=X&X&X=XY.k o ",
"o k Y.=X&X%X%X&X=XU.j j U.=X&X%X*X].B.m.m.v.z.u.g.g.g.g.g.g.g.j.j.t.y 7 7 r [ Q Q Y r n J.|.@X&X&X%X%X%X%X%X%X%X%X+X[.U.T.~.~.~.~.R.T.}.+X=X=XY.k o ",
"o k Y.=X&X%X%X&X=XU.j j U.=X&X%X%X#X].'.].Q.v.u.u.d.d.g.g.g.g.g.j.s.t.....-.,.>.>.,.-.@.n V.|.=X&X%X%X%X%X%X%X&X-X[.C j k V V V V b j Z }.=X=XT.k o ",
"o k Y.=X&X%X%X&X=XU.j j U.=X&X%X%X%X*X*X*XOXB.N.N.N.N.v.z.g.g.g.g.g.j.j.j.j.j.g.g.j.f.t.u m G.}.+X%X%X%X%X%X%X&X&X}.Z i % o . o o . . j T.=X=XT.k o ",
"o k Y.=X&X%X%X&X=XU.j j U.=X&X%X%X%X%X*X*X#X].`.`.].].Q.v.u.u.d.u.d.f.f.f.f.d.d.d.f.f.s.t.@.m C [.&X&X%X%X%X%X%X&X+X}.S.s . . o o o . k T.=X=XY.k o ",
"o k Y.=X&X%X%X&X=XU.j j T.=X=X&X&X&X&X&X&X-X=X=X=X=X;XOXB.N.N.M.M.M.M.M.M.M.M.M.M.M.M.M.m.n.M Z }.=X=X&X&X&X&X&X%X=X=XR.b = f f ; o o b T.=X=XY.k o ",
"o k Y.=X&X%X%X&X=XU.j j T.=X=X=X=X=X=X=X=X=X=X=X=X=X=X$XOX'.'.'.'.'.'.'.'.'.'.'.'.'.'.'.'._./.}.@X=X=X=X=X=X=X&X%X&X=XT.j f F.H.f o o b T.=X=XY.k o ",
"o k Y.=X&X%X%X&X=XU.j i S.T.T.U.U.U.U.U.U.U.U.U.U.U.U.E.T.T.T.T.T.T.T.T.T.T.T.T.T.T.T.T.T.T.T.T.T.U.U.U.U.U.U.[.+X=X=XU.j b [.[.V . . b T.=X=XY.k o ",
"o k Y.=X&X%X%X&X=XY.j % i j j j j j j j j j j j j j j j k k k k k k j j j j k k k k k k k k k j j j j j j h h C [.=X=XU.j b [.[.V . o b T.=X=XT.k o ",
"o k Y.=X&X%X%X&X&X}.Z j j j j j j j j j j j j j j j j j j j j j j j j j j j j j j j j j j j j j j j j j j h h C [.=X=XU.j p S.F.f . . k T.=X=XT.k o ",
"o k Y.=X&X%X%X%X%X+X}.T.U.U.U.U.U.U.U.U.U.U.U.U.U.U.U.U.U.U.U.U.U.U.U.U.U.U.U.U.U.U.U.U.U.U.U.U.U.U.U.U.U.U.U.[.+X=X=XT.j % i s = . . j T.=X=XY.b o ",
"o b T.=X&X%X%X%X%X%X&X=X=X=X=X=X=X=X=X=X=X=X=X=X=X=X=X=X=X=X=X=X=X=X=X=X=X=X=X=X=X=X=X=X=X=X=X=X=X=X=X=X=X=X=X&X%X&X&X}.Z j j j k k j Z }.=X=XT.b o ",
"o b T.=X=X%X%X%X%X%X&X&X&X&X&X&X&X&X&X&X&X&X&X&X&X&X&X&X&X&X&X&X&X&X&X&X&X&X&X&X&X&X&X&X&X&X&X&X&X&X&X&X&X&X&X&X%X%X%X+X}.T.U.Y.T.T.T.}.+X=X=XT.b o ",
"o f S. X@X=X&X&X&X&X&X&X&X&X&X&X&X&X&X&X&X&X&X&X&X&X&X&X&X&X&X&X&X&X&X&X&X&X&X&X&X&X&X&X&X&X&X&X&X&X&X&X&X&X&X&X&X&X&X-X=X=X=X=X=X=X=X=X=X@X XS.f o ",
"# ; s Z. X=X=X=X=X=X=X=X=X=X=X=X=X=X=X=X=X=X=X=X=X=X=X=X=X=X=X=X=X=X=X=X=X=X=X=X=X=X=X=X=X=X=X=X=X=X=X=X=X=X=X=X=X=X=X=X=X=X=X=X=X=X=X=X=X XZ.s ; # ",
"$ o . p S.T.T.Y.Y.Y.Y.Y.Y.Y.Y.Y.Y.Y.Y.Y.Y.Y.Y.U.Y.Y.Y.Y.Y.Y.U.U.Y.Y.Y.Y.Y.Y.U.U.Y.Y.Y.Y.U.Y.Y.U.Y.Y.Y.Y.Y.Y.Y.U.Y.U.Y.Y.Y.Y.Y.Y.Y.Y.Y.T.T.S.s o # $ ",
"    o ; f b b k k k k k k k k k k k k k k k k k k k k k k k k k k k k k k k k k k k k k k k k k k k k k k k k k k k k k k k k k b b b b b f ; #     ",
"    $ # o o o o o o o o o o o o o o o o o o o o o o o o o o o o o o o o o o o o o o o o o o o o o o o o o o o o o o o o o o o o o o o o o o # $     "
};
