/* XPM */
static char *clubs_k[] = {
/* columns rows colors chars-per-pixel */
"74 104 201 2 ",
"   c None",
".  c #180026",
"X  c #1C002B",
"o  c #1E0231",
"O  c #21012E",
"+  c #2E022E",
"@  c #2D0B2C",
"#  c #240631",
"$  c #250833",
"%  c #2B0C34",
"&  c #2C0735",
"*  c #320A31",
"=  c #2E123A",
"-  c #32143C",
";  c #30032F",
":  c #4A042C",
">  c #49032D",
",  c #57042A",
"<  c #59052C",
"1  c #5B092E",
"2  c #431B26",
"3  c #451E2B",
"4  c #4B0630",
"5  c #571131",
"6  c #6B112B",
"7  c #47212D",
"8  c #4D2326",
"9  c #542A27",
"0  c #542B2A",
"q  c #512528",
"w  c #522D36",
"e  c #56312F",
"r  c #782828",
"t  c #7A4824",
"y  c #774B31",
"u  c #3E2146",
"i  c #462B4E",
"p  c #462B4B",
"a  c #492E50",
"s  c #452E51",
"d  c #4C3353",
"f  c #4C365A",
"g  c #503756",
"h  c #543A54",
"j  c #543C5A",
"k  c #583F5D",
"l  c #55344F",
"z  c #6E2E4D",
"x  c #723251",
"c  c #703050",
"v  c #563F60",
"b  c #55415F",
"n  c #59415E",
"m  c #6D4B4B",
"M  c #7B5548",
"N  c #7C574A",
"B  c #7C5E59",
"V  c #5A4461",
"C  c #574061",
"Z  c #725B6D",
"A  c #7E6B7D",
"S  c #7B677B",
"D  c #970826",
"F  c #A10625",
"G  c #A30926",
"H  c #A30929",
"J  c #AC122A",
"K  c #AE1533",
"L  c #802B25",
"P  c #FF0B1D",
"I  c #DB301F",
"U  c #CB0C24",
"Y  c #C90720",
"T  c #D30C24",
"R  c #DC0B21",
"E  c #FF0F21",
"W  c #F60D20",
"Q  c #FF1020",
"!  c #D32D22",
"~  c #965C1C",
"^  c #99601F",
"/  c #BC7916",
"(  c #BD7A18",
")  c #975E21",
"_  c #804D25",
"`  c #A26A28",
"'  c #A35D1F",
"]  c #C17E19",
"[  c #CE7E19",
"{  c #C4671D",
"}  c #EA7F17",
"|  c #C73547",
" . c #814E53",
".. c #806C7C",
"X. c #927C7F",
"o. c #FF4750",
"O. c #D54553",
"+. c #BC893D",
"@. c #CA8416",
"#. c #CD8919",
"$. c #C78419",
"%. c #CD8715",
"&. c #EF9F0B",
"*. c #E3950C",
"=. c #F09F0A",
"-. c #E59A13",
";. c #E99E15",
":. c #EE8117",
">. c #EFA00E",
",. c #F3A30E",
"<. c #F8A70F",
"1. c #EFA110",
"2. c #EFA61E",
"3. c #F2A412",
"4. c #F6A913",
"5. c #F4A91E",
"6. c #F7A915",
"7. c #CA8923",
"8. c #CE902C",
"9. c #E5A738",
"0. c #F3B33A",
"q. c #F3B236",
"w. c #F2AB25",
"e. c #BE8B43",
"r. c #CB9747",
"t. c #F3B744",
"y. c #F5B945",
"u. c #F5BA4A",
"i. c #E7B762",
"p. c #F3C56C",
"a. c #F5C972",
"s. c #F9CC72",
"d. c #7C6B81",
"f. c #7D7284",
"g. c #816F81",
"h. c #837182",
"j. c #947D80",
"k. c #9A8B96",
"l. c #9D8F99",
"z. c #9E919A",
"x. c #9F8B8C",
"c. c #A0929B",
"v. c #A89598",
"b. c #B39F94",
"n. c #A78C97",
"m. c #B8A498",
"M. c #BCACA4",
"N. c #BFB7BB",
"B. c #CEB38F",
"V. c #C2AC95",
"C. c #CEB491",
"Z. c #D0B898",
"A. c #C5B6AA",
"S. c #C9B9AC",
"D. c #D2BDA1",
"F. c #C1B7B7",
"G. c #C2B8B7",
"H. c #C1B7B8",
"J. c #C4BBBA",
"K. c #C8BFBD",
"L. c #D1BBB8",
"P. c #FABDB6",
"I. c #ECBCB6",
"U. c #C38D93",
"Y. c #F5D38C",
"T. c #F8D68F",
"R. c #F0D193",
"E. c #CAC1BE",
"W. c #D2C6B9",
"Q. c #EFD3B5",
"!. c #F6E1B3",
"~. c #F9E5B4",
"^. c #F8E6BB",
"/. c #C5BEC2",
"(. c #CCC5C2",
"). c #CFC9C8",
"_. c #D2CAC5",
"`. c #D4CDC8",
"'. c #D9CEC1",
"]. c #D6D0CA",
"[. c #D8D1CA",
"{. c #E7DFD1",
"}. c #FAEBC3",
"|. c #F7E9C5",
" X c #EAE4D5",
".X c #EAE5DA",
"XX c #EEEADD",
"oX c #E7E0D2",
"OX c #F1EDDE",
"+X c #FBF4DE",
"@X c #F2EFE0",
"#X c #F6F3E4",
"$X c #F9F6E6",
"%X c #F7F5E9",
"&X c #FBF8E8",
"*X c #FAF9EA",
"=X c #FEFCEB",
"-X c #FCFAE9",
";X c #F9F7E8",
":X c #FFFFF0",
">X c #EBE9E1",
/* pixels */
"    $ # O O O O O O O O O O O O O O O O O O O O O O O O O O O O O O O O O O O O O O O O O O O O O O O O O O O O O O O O O O O O O O O O O O # $     ",
"    O - d n n k n n k k k k k n k k k k k k k k k k k k k k k k k k k k k k k k k k k k k k k k k k k k k k k k k k k k k k k k k k k n n d - O     ",
"$ O X a k.J.J.G.G.G.G.G.G.G.G.G.G.G.G.G.G.G.G.G.G.G.G.G.G.G.G.G.G.G.G.G.G.G.G.G.G.G.G.G.G.G.G.G.G.G.G.G.G.G.G.G.G.G.G.G.G.G.G.G.G.G.G.J.J.k.a X O $ ",
"# - a g.`.=X=X=X=X&X&X&X&X=X=X&X&X&X&X&X&X&X&X&X&X&X&X&X&X&X&X&X&X&X&X&X&X&X&X&X&X&X&X&X&X&X&X&X&X&X&X&X&X&X&X&X&X&X&X&X&X&X&X&X&X&X&X&X=X`.g.a - # ",
"O d k.`.XX&X=X=X=X&X&X&X&X=X=X&X&X&X&X&X&X&X&X&X&X&X&X&X&X&X&X&X&X&X&X&X&X&X&X&X&X&X&X&X&X&X&X&X&X&X&X&X&X&X&X&X&X&X&X&X&X&X&X&X&X&X&X&X&XXX`.k.d O ",
"O n J.=X&X.X_.G.G._.XXXX_.G.G._..X#X&X&X&X&X&X&X&X&X&X&X&X&X&X&X&X&X&X&X&X&X&X&X&X&X&X&X&X&X&X&X&X&X#X#X#X#X#X#X#X#X&X&X&X&X&X&X#X#X#X#X#X&X=XJ.n O ",
"O n J.=X=X_.A j j h.[.[.h.j j A (.&X&X&X&X&X&X&X&X&X&X&X&X&X&X&X&X&X&X&X&X&X&X&X&X&X&X&X&X&X&X&X&X&X#X#X#X#X#X#X#X#X&X&X&X&X&X&X#X#X#X#X#X&X&XJ.n O ",
"O k G.=X=XG.j X X d c.c.d X . j G.XX_.N.G.G.G.G.G.G.G.G.G.G.G.G.G.G.G.G.G.G.G.G.G.G.G.G.G.G.G.G.G.(..X&X&X@X X X@X.X(.N.G.G.G._..X#X#X#X#X&X&XG.k O ",
"O k G.=X=XG.k X O - d d - X X j J.`.A g g j j j j j j j j j j j j j j j j j j j j j j j j j j g g S (.&X&X XW.W..X_.A g g j j A _.&X&X#X#X&X&XG.k O ",
"O k G.=X=XJ.n O # # O O # - d h.`._.A g g j j j j j k k k k j j j k k j j j k k k k k k j j j j g S (.#XXX'.M.A.oX_.A g j i % j G.&X&X#X#X&X&XG.k O ",
"O k G.=X=XJ.n O # # O X O d c.[.XX.X(.N.G.G.G.G.G.H.G.H.H.G.H.H.G.H.G.G.H.H.G.H.H.G.H.G.H.G.G.G.G.(..X XW.M.m.A.oX.X(.G.J.k.i j G.&X&X#X#X&X&XG.k O ",
"O k G.=X=XJ.n O O - d d - d c.[.XX&X&X&X&X&X&X&X=X+X}.~.~.|.+X+X}.~.~.}.#X#X|.~.~.~.~.}.+X&X&X&X&X&X&X{.A.b.b.A.{.&X&X=X=XJ.j j G.&X&X#X#X&X&XG.k O ",
"O k G.=X=XJ.n O O d c.c.d = a h._.&X&X&X&X&X&X&X=X}.a.t.t.a.|.|.s.y.y.a.|.|.a.t.t.t.t.a.}.=X&X&X&X&X&X{.A.b.b.A.{.&X&X&X=XG.j j G.&X&X#X#X&X&XG.k O ",
"O k G.=X=XJ.k X X n (.(.n X . j G.&X&X#X#X#X#X.X).B.9.&.&.q.T.R.8.@.*.0.T.Y.q.&.&.&.,.9.B.)..X#X#X#X&XoXA.b.b.A.{.#X#X&X&XG.j j G.&X&X#X#X&X&XG.k O ",
"O k G.=X=XG.j X X n E.E.n . . j G.&X&X#X#X&X&X).d.M 7.,.,.5.0.r.y t @.5.0.q.2.1.1.3.3.7.M d.).&X&X#X#X{.A.b.b.A.{.#X#X&X&XG.j j G.&X&X#X#X&X&XG.k O ",
"O k G.&X&X_.A j j h.[.[.h.j j A _.&X&X#X#X&X&XN.f 8 / 4.4.-.@.' 6 6 ' #.-.4.4.3.1.3.4.( 8 j H.&X&X#X#X{.A.b.b.A.{.#X#X&X&XG.j j G.&X&X#X#X&X&XG.k O ",
"O k G.&X&X.X_.G.J.`.OXOX`.J.J._..X#X#X#X#X&X&XN.f 8 / 6.4.$.t r J J r t $.4.4.3.4.4.4.( q j H.&X&X#X#X{.A.b.b.A.{.&X#X&X&XG.j j G.&X&X#X#X&X&XG.k O ",
"O k G.&X&X&X&XXX`.J.J.J.K.`.XX&X&X#X#X#X#X&X&X).d.m ` [ :.{ q < T T < q { :.[ [ } } [ ~ 2 j H.&X&X#X#X{.A.b.b.A.{.&X#X&X&XG.j j G.&X&X#X#X&X&XG.k O ",
"O k G.&X&X&X&X`.g.k k k k h.`.&X&X#X#X#X#X#X#X.X_.v.m r I ! 5 < T T 1 5 ! I r r I I L 2 O j G.&X&X#X&X{.A.b.b.A.{.#X#X&X&XG.j j G.&X&X#X#X&X&XG.k O ",
"O k G.&X&X&X&XJ.j X X O X j J.=X&X#X#X#X#X#X#X&X&X_.d.z K F : : G G : : F F > > F K x j j A _.&X&X#X#X{.A.b.b.A.{.#X#X&X&XG.j j G.&X&X#X#X&X&XG.k O ",
"O k G.&X&X&X=XK.k X O O X k K.=X&X#X#X#X#X#X#X#X&XXX_.n.c > + + : > + + > > ; + > c n.J.J._..X#X#X#X#X{.A.b.b.A.{.#X#X&X&XG.j j G.&X&X#X#X&X&XG.k O ",
"O k G.&X&XXX`.l.d # # # # d l.`.XX#X#X#X#X#X#X#X#X*X=XW.B w h n b b n b b h w 9 q B W.=X=X&X#X#X#X#X#X{.A.b.b.A.{.#X#X&X&XG.j j G.&X&X#X#X&X&XG.k O ",
"O k G.&X&X_...a - # # # # - a .._.&X&X#X#X#X#X#X#X&X&XQ.r.+.V.K.H.G.G.H.J.V.e./ / r.Q.:X&X&X#X#X#X#X#X{.A.b.b.A.{.#X#X&X&XG.j j G.&X&X#X#X&X&XG.k O ",
"O n G.=X=XG.j X O # # # # O X j G.&X&X#X#X#X#X#X#X#X*X!.t.y.~.=X-X&X&X=X:X~.u.,.<.0.Y.|.OX#X#X#X#X#X&X{.A.b.b.A.{.#X#X&X&XG.j j G.&X&X#X#X&X&XG.k O ",
"O n G.=X=XG.j X X # # # # X X j G.&X&X#X#X#X#X#X#X%X*X!.t.t.~.=X&X&X&X=X:X~.u.,.<.5.q.p.^.%X#X#X#X#X#X{.A.b.b.A.{.#X#X&X&XG.j j G.&X&X#X#X&X&XG.k O ",
"O n G.&X&X_.A k n d - - d n k A _.&X&X#X#X#X#X#X#X.X).B.9.9.B._..X.X_.G.H.C.9.-.@.@.*.t.!.%X#X#X#X#X#X{.A.b.b.A.{.#X#X&X&XG.j j G.&X&X#X#X&X&XG.k O ",
"O k G.&X&X.X_.J.E.c.d d c.E.J._..X#X#X#X#X#X#X&X&X).d.M 7.7.N d._.`.g.j j  .8.#.t t @.t.!.%X#X#X#X#X&X{.A.b.b.A.{.&X#X&X&XG.j j G.&X&X#X#X&X&XG.k O ",
"O k G.&X&X&X&XOX`.k.i i k.`.OX&X&X#X#X#X#X#X#X&X&XH.f 2 ~ ~ 2 j K.K.k X X 3 ^ ) 3 8 / y.~.%X%X#X#X#X&X{.A.b.b.A.oX&X#X&X&XG.j j G.&X&X#X#X&X&XG.k O ",
"O k G.&X&X&X&X_...i % % i .._.&X&X#X#X#X#X#X#X&X&XG.j @ 3 3 O k /./.k X X @ 7 3 $ q / y.~.%X%X#X#X#X&XoXA.b.b.A.{.#X#X&X&XG.j j G.&X&X#X#X&X&XG.k O ",
"O k G.&X&X&X&X(.S j n n j S (.&X&X#X#X#X#X#X#X&X&XW.B q q w h ..D.D...v C h w 0 0 t @.q.Y.|.+X*X&X&X&XoXA.b.b.A.{.#X#X&X&XG.j j G.&X&X#X#X&X&XG.k O ",
"O k G.&X&X#X#X.X(.G.J.J.G.(..X#X#X#X#X#X#X#X#X%X%XQ.r./ / e.V.D.i.i.D././.V.e.( ( @.-.2.q.p.}.*X&X&X&X{.A.b.b.A.{.#X#X&X&XG.j j G.&X&X#X#X&X&XG.k O ",
"O n G.&X&X#X#X&X&XXX`.`.XX&X&X#X#X#X#X#X#X#X&X+X|.Y.0.,.,.0.T.T.q.q.Y.^.^.T.0.<.4.4.3.1.&.9.B.N.N.).XX XA.b.b.A.{.#X#X&X&XG.j j G.&X&X#X#X&X&XG.k O ",
"O k G.&X&X#X#X&X&X_.A A _.&X&X#X#X#X#X#X#X#X&X}.p.q.2.4.3.5.0.0.5.5.0.u.u.0.5.4.4.3.1.3.,.7.M f f d.`.XXS.b.b.A.{.#X#X&X&XG.j j G.&X&X#X#X&X&XG.k O ",
"O k G.&X&X#X#X&X&XG.g g N.&X&X#X#X#X#X#X&XXX_.B.9.=.>.1.1.3.3.-.@.@.-.,.,.3.3.1.1.1.1.5.0.r.y 8 8 m v.G.M.m.m.A.{.#X#X&X&XG.j j G.&X&X#X#X&X&XG.k O ",
"O k G.&X&X#X#X&X&XG.g g G.&X&X#X#X#X#X&X&X_.d.M $.,.,.1.>.,.4.%.t t @.4.4.3.,.>.1.&.&.q.R.R.r./ / ` m Z x.m.m.A.{.#X#X&X&XG.j j G.&X&X#X#X&X&XG.k O ",
"O k G.&X&X#X#X&X&XG.j j G.&X&X#X#X#X&XXX`.k.i w e.u.y.t.t.9.8.) 3 3 ) ] ] 7.9.t.t.t.t.p.R.R.0.<.6.] q p X.m.m.S.oX&X&X&X&XG.j j G.&X&X#X#X&X&XG.k O ",
"O k G.&X&X#X#X&X&XG.j j G.&X&X#X#X&X&X`.g.i % h V.^.~.~.~.C.N 3 % % 7 0 9 N C.~.!.~.~.T.p.q.5.4.6.] 9 p j.m.m.S. X&X&X&X&XG.j j G.&X&X#X#X&X&XG.k O ",
"O k G.&X&X#X#X&X&XG.j j G.&X&X#X&XXX`.k.a X X d l.`.>X*X=XH.v o # # # o o v H.-X*X>X).C.9.,.3.;.#.) 7 u Z j.X.x.M.J.J._.XXG.j j G.&X&X#X#X&X&XG.k O ",
"O k G.&X&X#X#X&X&XG.j j G.&X&X&X=X`.g.a = # # - d g._.=X=XH.C o o # # o o k H.=X-X).d.M 7.4.6.#.t 7 % = p a a d j k j g.`.J.j j G.&X&X#X#X&X&XG.k O ",
"O k G.&X&X#X#X&X&XG.j j G.&X&XXX_.k.s X # $ $ # X j G.=X=XG.n ; : 1 1 : + n G.=X=XH.j 8 ( ;.#.) 7 o # # O O O O O X X j K.J.k j G.&X&X#X#X&X&XG.k O ",
"O k G.&X&X#X#X&X&XG.j j G.=X=X`.d.s = o # # # o X j G.=X=XG.b : G T T G : b G.=X=XG.j q ( #._ 7 % # # # O O O O # O X j K.J.k j G.&X&X#X#X&X&XG.k O ",
"O k G.&X&X#X#X&X&XG.j j J.#X[.n.z , < 1 1 1 1 < ,  .L.=X&XG.b : G T T G : b G.=X=XG.k 9 ] $.0 ; 4 4 * - d V V d - - a h.`.J.j j G.&X&X#X#X&X&XG.k O ",
"O k G.&X&X#X#X&X&XG.j k K.].f.z K U U U U U U U U O.I.&X&XG.n + : 1 1 : + n G.=X=XG.k 9 ] $.0 4 H G : d z.E.E.k.a a k.[.@XG.j j G.&X&X#X#X&X&XG.k O ",
"O k G.&X&X#X#X&X&XG.j d z.v.c 6 R Q E E Q E E P P o.P.&X&XG.n + : 1 1 : + n J.=X=XH.k 9 ] $.e < T T < b K.=X=XJ.j j K.:X=XG.j j G.&X&X#X#X&X&XG.k O ",
"O k G.&X&X#X#X&X&XG.k = s x K R W Q E E E Q E P P o.P.&X*XG.b : F U U F : b K.=X=XK.v 9 $.$.e < T T < b J.=X=XG.j j K.:X:XJ.j j G.&X&X#X#X&X&XG.k O ",
"O k G.&X&X#X#X&X&XG.n + > D R Q Q E E E E E E P P o.P.=X=XJ.b < U Q Q U < d z.E.E.l.s 3 ~ ^ 7 > F F : b K.=X=XJ.j i k.J.K.k.a j G.&X&X#X#X&X&XG.k O ",
"O k G.&X&X#X#X&X&XG.b > F R E E Q E E E E E E P P o.Q.:X=XK.b < U Q Q T 1 = d n V d = @ 3 3 @ + > > + n K.=X=XK.n = i j j i = n G.&X&X#X#X&X&XG.k O ",
"O k G.&X&X#X#X&X&XG.b > F U U U U U U U U U U U U | U.J.K.k.s > F U T H 4 # # O O - d V V V V V V d = d l.E.E.l.d = a n n a = k G.&X&X#X#X&X&XG.k O ",
"O k G.&X&X#X#X&X&XG.n + > < < , , < 1 1 1 1 1 1 1 5 l j j i = + > < 1 4 * # # O O d c.(.(.K.K.(.(.z.d = d n n d - d z.(.(.k.a j G.&X&X#X#X&X&XG.k O ",
"O k G.&X&X#X#X&X&XG.k = d V V V V f = # # # $ # # = d n k n n V V f = # # $ $ # # d c.E.K.J.J.K.E.c.d O O O O O O d z.(.(.k.a j G.&X&X#X#X&X&XG.k O ",
"O k G.&X&X#X#X&X&XG.j a z.(.(.(.(.z.f # # $ # # # f z.E.K.J.K.E.(.z.f # # $ $ # # - d n k k k k n d - # # # # O O = d n n a = k G.&X&X#X#X&X&XG.k O ",
"O k G.&X&X#X#X&X&XG.j a k.E.K.E.(.c.d # # $ $ # # d z.E.K.J.J.K.E.c.d # # $ $ # # - d n k k k k n d - # # # # - g V n k n a = k G.&X&X#X#X&X&XG.k O ",
"O k G.&X&X#X#X&X&XG.k = a n k n V g - # # $ $ $ # - d n n k k k n d - # # $ $ # # d c.E.K.J.J.K.E.c.d # # # # d c.(.E.K.E.k.a j G.&X&X#X#X&X&XG.k O ",
"O k G.&X&X#X#X&X&XG.k = a n n d = O O # # # # $ # - d n k k k k n d - # # $ $ # # d c.(.K.J.J.E.(.z.f # # # # f z.(.(.(.(.z.a j G.&X&X#X#X&X&XG.k O ",
"O k G.&X&X#X#X&X&XG.j a k.(.(.z.d O O O O # # # # d c.E.K.J.J.K.E.c.d # # $ # # # - d V n k k n V f = # # # # = f V V V V d = k G.&X&X#X#X&X&XG.k O ",
"O k G.&X&X#X#X&X&XG.j a k.(.(.z.d - d n n d - # O f c.(.(.K.K.E.E.z.d O # * 4 1 1 : + = s k k l 5 < 1 1 1 1 1 1 , , , < < > + n G.&X&X#X#X&X&XG.k O ",
"O k G.&X&X#X#X&X&XG.n = a n n a = d l.E.E.z.d # # - d V V V V V n d = O # 4 H T T G > s k.K.J.U.| Y U U U U U U U Y Y U U F > b G.&X&X#X#X&X&XG.k O ",
"O k G.&X&X#X#X&X&XG.n = i j j i = n K.:X=XK.n ; : : ; @ 3 3 @ = i k n d = 1 T Q Q U < b K.=X:XQ.o.P P E E E E E E E Q E R F > b G.&X&X#X#X&X&XG.k O ",
"O k G.&X&X#X#X&X&XG.j i k.K.K.k.i j J.=X=XJ.b : G H : 7 ^ ~ 3 s k.K.E.l.d < U Q Q U < b J.=X=XP.o.P P E E E E E E E Q R D > + b G.&X&X#X#X&X&XG.k O ",
"O k G.&X&X#X#X&X&XG.j j J.=X:XK.j j G.=X=XJ.b < T T < e $.] 9 v K.=X=XK.b : F U U F : b G.*X*XP.o.P P E E E E E E W R K x s = n G.&X&X#X#X&X&XG.k O ",
"O k G.&X&X#X#X&X&XG.j j G.=X:XK.k j J.=X=XK.C < T T < e $.] 9 k J.=X=XJ.n + : 1 1 : + n G.*X*XP.o.P P E E E E E E R 6 c v.z.d j G.&X&X#X#X&X&XG.k O ",
"O k G.&X&X#X#X&X&XG.j j G.@X[.k.a a k.E.E.l.d : G H 4 0 $.] 9 k G.=X=XG.n + : 1 1 : + n G.*X*XI.O.U U U U U U U U K z f.].K.k j G.&X&X#X#X&X&XG.k O ",
"O k G.&X&X#X#X&X&XG.j k J.`.h.a = - d n n d - * 4 4 ; 0 $.] 9 k G.=X=XG.b : G T T G : b G.=X=XL. ., < 1 1 1 1 < , z n.[.#XG.j j G.&X&X#X#X&X&XG.k O ",
"O k G.&X&X#X#X&X&XG.j k J.K.j X O # O O O O # $ # % 7 _ #.( q j G.=X=XG.b : G T T G : b G.=X=XG.j X o # # # o = s d._.=X=XG.j j G.&X&X#X#X&X&XG.k O ",
"O k G.&X&X#X#X&X&XG.j k J.K.j X X O O O O O # # o 7 ) #.;./ q j H.=X=XG.n + : 1 1 : ; n G.=X=XG.j X o $ $ # X s k.`.XX&X&XG.j j G.&X&X#X#X&X&XG.k O ",
"O k G.&X&X#X#X&X&XG.j j J.`.g.j k j d a a p = % 7 t #.6.<.7.M d.).=X=XH.k o o # # o o k H.=X=X_.g.d - # # = a g.`.&X&X&X&XG.j j G.&X&X#X#X&X&XG.k O ",
"O k G.&X&X#X#X&X&XG.j j G.XX_.J.J.M.x.X.X.Z u 7 ) #.;.4.,.9.B.).>X*X*XH.v o o # # # o v H.-X*X>X`.z.d O X a k.`.XX&X#X&X&XG.j j G.&X&X#X#X&X&XG.k O ",
"O k G.&X&X#X#X&X&XG.j j G.&X&X&X&X XS.m.m.j.p 9 ] 6.4.5.q.a.|.#X|.!.~.C.N 9 9 7 * % 3 N C.~.~.~.^.V.h % i g.`.&X&X#X#X&X&XG.j j G.&X&X#X#X&X&XG.k O ",
"O k G.&X&X#X#X&X&XG.j j G.&X&X*X&X XS.m.m.X.p q ] 6.<.q.Y.|.&X|.p.t.t.9.7.] ] ) 3 3 ) 8.9.t.t.y.u.e.w i k.`.XX&X#X#X#X&X&XG.j j G.&X&X#X#X&X&XG.k O ",
"O k G.&X&X#X#X&X&XG.j j G.&X&X#X&XoXA.m.m.x.Z m ` / / 8.R.^.^.Y.q.&.&.3.3.4.<.@.t t @.<.,.1.>.,.,.$.M d._.&X&X#X#X#X#X&X&XG.g j G.&X&X#X#X&X&XG.k O ",
"O k G.&X&X#X#X&X&XG.j j G.&X&X#X&XoXA.m.m.M.G.v.m 8 8 y r.u.u.q.2.1.1.3.,.,.,.-.@.@.-.,.3.1.1.>.&.9.B._.XX&X&X#X#X#X#X&X&XG.g g N.&X&X#X#X&X&XG.k O ",
"O k G.&X&X#X#X&X&XG.j j G.&X&X#X&XoXA.b.b.S.XX`.d.f f M 7.,.,.1.3.4.4.5.0.u.u.0.5.5.0.0.5.4.4.2.q.p.}.&X%X#X#X#X#X#X#X&X&X_.A A _.&X&X#X#X&X&XG.k O ",
"O k G.&X&X#X#X&X&XG.j j G.&X&X#X#X{.A.b.b.A. XXX).N.N.B.9.=.>.3.4.4.<.0.T.^.^.Y.q.q.T.T.0.<.<.0.Y.|.+X&X#X#X#X#X#X#X#X&X&XXX`.`.XX&X&X#X#X&X&XG.k O ",
"O k G.&X&X#X#X&X&XG.j j G.&X&X#X#X{.A.b.b.A.{.&X&X&X*X}.p.q.2.-.@.( ( e.V././.D.i.i.D.V.e./ / r.Q.%X%X#X#X#X#X#X#X#X#X.X(.G.J.J.G.(..X#X#X&X&XG.k O ",
"O k G.&X&X#X#X&X&XG.j j G.&X&X#X#X{.A.b.b.A.{.&X*X&X*X+X|.Y.0.@.t 0 0 w h C v ..D.D...h w q 9 B E.&X&X#X#X#X#X#X#X&X&X(.S j n n j S (.&X&X&X&XG.k O ",
"O k G.&X&X#X#X&X&XG.j j G.&X&X#X#X{.A.b.b.A.{.&X#X#X#X%X%X~.y./ q $ 3 7 @ X X k K.K.k O 3 3 @ j G.&X&X#X#X#X#X#X#X&X&X_...i % % i A _.&X&X&X&XG.k O ",
"O k G.&X&X#X#X&X&XG.j j G.&X&X#X#XoXA.b.b.A.oX&X#X#X#X%X%X~.y./ 8 3 ) ^ 3 X X k K.K.j 2 ~ ~ 2 f N.&X&X#X#X#X#X#X#X&X&XOX`.k.i i k.`.OX&X&X&X&XG.k O ",
"O k G.&X&X#X#X&X&XG.j j G.&X&X#X#X{.A.b.b.A.oX&X#X#X#X#X%X!.t.@.t t #.8. .j j g.`._.d.N 7.7.N d.).&X&X#X#X#X#X#X#X.X_.J.E.z.d d z.E.J._..X&X&XG.k O ",
"O k G.&X&X#X#X&X&XG.j j G.&X&X#X&XoXA.b.b.A.{.#X#X#X#X#X%X!.t.*.@.@.-.9.C.H.G._..X.X_.B.9.9.B.)..X#X#X#X#X#X#X&X&X_.A k n d - - d n k A _.&X&XG.k O ",
"O k G.&X&X#X#X&X&XG.j j G.&X&X#X&XoXA.b.b.A.{.#X#X#X#X#X%X^.p.q.5.<.,.u.~.:X=X&X&X&X=X~.y.t.!.*X%X#X#X#X#X#X#X&X&XG.j X X # # # # X X j G.=X=XG.k O ",
"O k G.&X&X#X#X&X&XG.j j G.&X&X#X&X{.A.b.b.A.{.&X#X#X#X#X#XOX|.Y.0.<.<.u.~.:X=X&X&X-X=X~.y.y.!.&X%X#X#X#X#X#X#X&X&XG.j X O # $ $ # X X j G.=X=XG.k O ",
"O k G.&X&X#X#X&X&XG.j j G.&X&X#X&X{.A.b.b.A.oX&X#X#X#X#X&X&X*XQ.r./ / e.V.J.K.G.G.H.J.V.+.r.Q.*X&X&X#X#X#X#X#X&X&X_...a - # # # # - a .._.&X&XG.k O ",
"O k G.&X&X#X#X&X&XG.j j G.&X&X#X#X{.A.b.b.A.{.#X#X#X#X#X&X=X=XW.B q 0 w h b n n b b n h w B W.=X=X&X#X#X#X#X#X#X#XXX`.l.d # # # # d l.`.XX&X&XG.k O ",
"O k G.&X&X#X#X&X&XG.j j G.&X&X#X#X{.A.b.b.A.{.#X#X#X#X.X_.J.K.n.c > + ; > > + + : : + + > x n.J.J._..X#X#X#X#X#X#X&X=XK.n X O O X k K.=X&X&X&XG.k O ",
"O k G.&X&X#X#X&X&XG.j j G.&X&X#X#X{.A.b.b.A.{.#X#X&X&X_.A j j x K F > > F F : : G G : : F K x j j A _.&X&X#X#X#X#X&X&XJ.j X X X X j J.&X&X&X&XG.k O ",
"O k G.&X&X#X#X&X&XG.j j G.&X&X#X#X{.A.b.b.A.{.&X#X&X&XG.j O 2 L I I r r I ! 5 < T T < 5 ! I L * O j G.&X&X#X#X#X#X&X&X_.g.k k k k g.`.&X&X&X&XG.k O ",
"O k G.&X&X#X#X&X&XG.j j G.&X&X#X#X{.A.b.b.A.oX&X#X&X&XG.j 2 ~ [ } } [ [ :.{ q < T T < q { :.[ ~ 2 j H.&X&X#X#X#X#X&X&XXX`.J.J.J.J.`.XX&X&X&X&XG.k O ",
"O k G.&X&X#X#X&X&XG.j j G.&X&X#X#X{.A.b.b.A.oX&X#X&X&XH.j q ( 4.4.1.3.4.4.$.t r J J r t $.4.6.( q j H.&X&X#X#X#X#X.X_.G.J.`.OXOX`.J.J._..X&X&XG.k O ",
"O k G.&X&X#X#X&X&XG.j j G.&X&X#X#X{.A.b.b.A.{.#X#X&X&XH.j 8 / 4.3.1.3.4.4.-.#.' 6 6 ' @.;.4.4.( 8 j H.&X&X#X#X&X&X_.A j j h.[.[.h.j j A _.&X&XG.k O ",
"O k G.&X&X#X#X&X&XG.j j G.&X&X#X#X{.A.b.b.A.{.#X#X&X&X).d.M 7.,.3.1.1.2.q.0.5.@.t y r.0.5.,.,.7.M d.).&X&X#X#X&X&XG.j . . n E.E.n X X j G.=X=XG.k O ",
"O k G.&X&X#X#X&X&XG.j j G.&X&X#X#X{.A.b.b.A.{.#X#X#X#X.X).B.9.&.&.&.&.q.Y.Y.q.*.@.8.R.T.q.&.&.9.B.)..X#X#X#X#X&X&XG.j . X n (.(.V X X k G.=X=XG.k O ",
"O k G.&X&X#X#X&X&XG.j j G.=X&X&X&X{.A.b.b.A.{.&X&X&X&X&X=X}.a.t.t.t.t.a.|.|.a.y.y.s.|.|.a.t.t.a.}.=X&X&X&X&X&X&X&X_.h.a = d c.c.g O O n J.=X=XG.k O ",
"O k G.&X&X#X#X&X&XG.j j J.=X=X&X&X{.A.b.b.A.{.&X&X&X&X&X&X+X}.~.~.~.~.}.#X#X|.~.~.}.+X+X}.~.~.}.+X=X&X&X&X&X&X&X&XXX[.c.d - d d - O O n J.=X=XG.k O ",
"O k G.&X&X#X#X&X&XG.j i k.J.G.(..XoXA.m.A.W. X.X(.N.G.G.G.H.G.H.G.G.H.G.H.H.G.H.G.G.G.G.G.H.G.G.H.G.G.G.G.G.N.(..XXX[.c.d O X O # # O n J.=X=XG.k O ",
"O k G.&X&X#X#X&X&XG.j % i j g A _.oXA.M.'.XX#X(.S g j j j j k k k k k k j j k k k k j j k k k k j j j j j g g A _.`.h.d - # O O # # O n J.=X=XG.k O ",
"O k G.&X&X#X#X&X&X_.A j j g g A _..XW.W. X&X&X(.S g j j j j j j j j j j j j j j j j j j j j j j j j j j j g g A `.J.j X X - d d - O X k G.=X=XG.k O ",
"O k G.&X&X#X#X#X#X.X_.G.G.G.N.(..X@X X X@X&X&X.X(.N.G.G.G.G.G.G.G.G.G.G.G.G.G.G.G.G.G.G.G.G.G.G.G.G.G.G.G.G.N._.XXG.j . X d c.c.d X X j G.=X=XG.n O ",
"O n J.&X&X#X#X#X#X#X&X&X&X&X&X&X#X#X#X#X#X#X#X#X&X&X&X&X&X&X&X&X&X&X&X&X&X&X&X&X&X&X&X&X&X&X&X&X&X&X&X&X&X&X&X&X&X_.A j j h.[.[.h.j j A _.=X=XJ.n O ",
"O n J.=X&X#X#X#X#X#X&X&X&X&X&X&X#X#X#X#X#X#X#X#X&X&X&X&X&X&X&X&X&X&X&X&X&X&X&X&X&X&X&X&X&X&X&X&X&X&X&X&X&X&X&X&X&X.X_.G.G._.XXXX_.G.G._..X&X=XJ.n O ",
"O d k.`.XX&X&X&X&X&X&X&X&X&X&X&X&X&X&X&X&X&X&X&X&X&X&X&X&X&X&X&X&X&X&X&X&X&X&X&X&X&X&X&X&X&X&X&X&X&X&X&X&X&X&X&X&X&X&X=X=X&X&X&X&X=X=X=X&XXX`.k.d O ",
"# - a g.`.=X&X&X&X&X&X&X&X&X&X&X&X&X&X&X&X&X&X&X&X&X&X&X&X&X&X&X&X&X&X&X&X&X&X&X&X&X&X&X&X&X&X&X&X&X&X&X&X&X&X&X&X&X&X=X=X&X&X&X&X=X=X=X=X`.g.a - # ",
"$ O X a k.J.J.G.G.G.G.G.G.G.G.G.G.G.G.G.G.G.G.G.G.G.G.G.G.G.G.G.G.G.G.G.G.G.G.G.G.G.G.G.G.G.G.G.G.G.G.G.G.G.G.G.G.G.G.G.G.G.G.G.G.G.G.J.J.k.a X O $ ",
"    O - d n n k k k k k k k k k k k k k k k k k k k k k k k k k k k k k k k k k k k k k k k k k k k k k k k k k k k k k k k k k k k k n n d - O     ",
"    $ # O O O O O O O O O O O O O O O O O O O O O O O O O O O O O O O O O O O O O O O O O O O O O O O O O O O O O O O O O O O O O O O O O O # $     "
};
