/* XPM */
static char *clubs_2[] = {
/* columns rows colors chars-per-pixel */
"74 104 150 2 ",
"   c None",
".  c #1B0029",
"X  c #1C002A",
"o  c #1D002A",
"O  c #1D002B",
"+  c #1E002B",
"@  c #1E002C",
"#  c #1F002C",
"$  c #20002D",
"%  c #20012D",
"&  c #21012D",
"*  c #21012E",
"=  c #22032F",
"-  c #23032F",
";  c #230430",
":  c #250531",
">  c #250631",
",  c #250632",
"<  c #260732",
"1  c #270833",
"2  c #2B0C36",
"3  c #2B0D37",
"4  c #2F113A",
"5  c #30123B",
"6  c #30133B",
"7  c #31133B",
"8  c #31133C",
"9  c #32143C",
"0  c #32153D",
"q  c #33153D",
"w  c #43284B",
"e  c #452A4D",
"r  c #462B4D",
"t  c #462C4E",
"y  c #482E50",
"u  c #492F50",
"i  c #4A2F51",
"p  c #4A3051",
"a  c #4B3152",
"s  c #4C3253",
"d  c #4F3555",
"f  c #503756",
"g  c #513857",
"h  c #523857",
"j  c #523858",
"k  c #533A58",
"l  c #533A59",
"z  c #543B59",
"x  c #543B5A",
"c  c #553C5A",
"v  c #553D5B",
"b  c #563D5B",
"n  c #563E5B",
"m  c #573E5C",
"M  c #573F5C",
"N  c #583F5D",
"B  c #58405D",
"V  c #59405D",
"C  c #59415E",
"Z  c #5A415E",
"A  c #5A425E",
"S  c #5A425F",
"D  c #5B435F",
"F  c #5C4460",
"G  c #766277",
"H  c #7B677B",
"J  c #7B687B",
"K  c #7D6A7D",
"L  c #7F6C7E",
"P  c #806C7F",
"I  c #806D7F",
"U  c #816E80",
"Y  c #826F81",
"T  c #847282",
"R  c #978893",
"E  c #9B8B96",
"W  c #9B8C96",
"Q  c #9D8E98",
"!  c #9E8F99",
"~  c #9F9099",
"^  c #A0919A",
"/  c #A1939B",
"(  c #A2949C",
")  c #AC9FA4",
"_  c #B2A5AA",
"`  c #C0B5B6",
"'  c #C0B6B6",
"]  c #C1B6B6",
"[  c #C1B7B7",
"{  c #C2B8B7",
"}  c #C2B8B8",
"|  c #C3B9B8",
" . c #C3B9B9",
".. c #C3BAB9",
"X. c #C4BAB9",
"o. c #C4BBBA",
"O. c #C5BBBA",
"+. c #C5BCBA",
"@. c #C6BCBB",
"#. c #C6BDBB",
"$. c #C7BDBC",
"%. c #C7BEBC",
"&. c #C8BEBC",
"*. c #C8BFBD",
"=. c #CAC1BE",
"-. c #CAC1BF",
";. c #CBC2BF",
":. c #CEC5C2",
">. c #CFC7C3",
",. c #D0C7C3",
"<. c #D0C8C3",
"1. c #D0C8C4",
"2. c #D1C9C4",
"3. c #D1CAC5",
"4. c #D2CAC5",
"5. c #D3CBC6",
"6. c #D3CCC6",
"7. c #D4CCC7",
"8. c #D5CDC7",
"9. c #D5CEC8",
"0. c #D7CFC9",
"q. c #DBD5CD",
"w. c #E9E4D9",
"e. c #EAE5DA",
"r. c #EAE6DA",
"t. c #EBE7DB",
"y. c #ECE8DC",
"u. c #EFEADE",
"i. c #EFEBDE",
"p. c #F1EDDF",
"a. c #F5F2E3",
"s. c #F6F3E4",
"d. c #F7F4E5",
"f. c #F8F5E6",
"g. c #F8F6E6",
"h. c #F9F6E7",
"j. c #F9F7E7",
"k. c #FAF7E7",
"l. c #FAF8E8",
"z. c #FBF8E8",
"x. c #FBF9E8",
"c. c #FBF9E9",
"v. c #FCF9E9",
"b. c #FCFAE9",
"n. c #FDFBEA",
"m. c #FEFCEA",
"M. c #FEFCEB",
"N. c #FFFDEB",
"B. c #FFFEEC",
"V. c #FFFEED",
/* pixels */
"    1 , - - - - - - - - - - - - - - - - - - - - - - - - - - - - - - - - - - - - - - - - - - - - - - - - - - - - - - - - - - - - - - - - - - , 1     ",
"    - 6 a C C N N N N M N N N N N N N N N N N M N N N N N N N N N N N M N N N N N N N N N N N M N N N N N N N N N N N M N N N N N N N C C a 6 -     ",
"1 - # y E +.X.{ { ` ` ` ` ` { ` { { ` ` ` ` ` ` ` ` { ` { { { { ` ` ` ` ` ` { ` { { { { ` ` ` ` ` ` { ` { { { { ` ` ` ` ` ` { ` { { { X.+.E y # - 1 ",
", 6 y U 8.B.B.M.M.M.M.M.M.M.M.n.n.c.c.c.c.c.c.c.c.c.c.c.c.c.c.c.c.c.c.c.c.c.c.c.c.c.c.c.c.c.c.c.c.c.c.c.c.c.c.c.c.c.c.c.c.c.c.c.c.c.c.n.M.8.U y 6 , ",
"- a E 8.u.c.n.M.M.M.M.M.M.M.M.n.c.k.k.k.k.k.k.k.k.k.k.k.k.k.k.k.k.k.k.k.k.k.k.k.k.k.k.k.k.k.k.k.k.k.k.k.k.k.k.k.k.k.k.k.k.k.k.k.k.k.k.k.c.u.8.E a - ",
"- C +.B.c.w.>.` ` ` ` {  . . .1.w.d.d.s.s.s.s.s.s.s.s.s.s.s.s.s.s.s.s.s.s.s.s.s.s.s.s.s.s.s.s.s.s.s.s.s.s.s.s.s.s.s.s.s.s.s.s.s.s.s.s.s.s.c.M.+.C - ",
"- C X.B.n.>.H f l x x v N M v L <.k.k.s.s.s.s.s.s.s.s.s.s.s.s.s.s.s.s.s.s.s.s.s.s.s.s.s.s.s.s.s.s.s.s.s.s.s.s.s.s.s.s.s.s.s.s.s.s.s.s.s.s.k.n.X.C - ",
"- N { n.n.,.K l v C C a 4 X X v  .c.k.s.s.s.s.s.s.s.s.s.s.s.s.s.s.s.s.s.s.s.s.s.s.s.s.s.s.s.s.s.s.s.s.s.s.s.s.s.s.s.s.s.s.s.s.s.s.s.s.s.s.k.c.{ N - ",
"- N { n.c.w.1.X.X.*.;.~ a X X M  .c.k.s.s.s.s.s.s.s.s.s.s.s.s.s.s.s.s.s.s.s.s.s.s.s.s.s.s.s.s.s.s.s.s.s.s.s.s.s.s.s.s.s.s.s.s.s.s.s.s.s.s.k.c.{ M - ",
"- N { n.c.w.8.*.*.;.;.~ a X X M  .c.k.s.s.s.s.s.s.s.s.s.s.s.s.s.s.d.k.k.k.k.k.k.d.s.s.s.s.s.s.s.s.s.s.s.s.s.s.s.s.s.s.s.s.s.s.s.s.s.s.s.s.k.c.{ M - ",
"- N { n.n.1.U C C F C a 4 X X v  .c.k.s.s.s.s.s.s.s.s.s.s.s.s.s.s.d.k.c.c.c.c.k.d.s.s.s.s.s.s.s.s.s.s.s.s.s.s.s.s.s.s.s.s.s.s.s.s.s.s.s.s.k.c.{ M - ",
"- N { M.M. .v X X 4 a C F C C U 1.k.k.s.s.s.s.s.s.s.s.s.s.s.s.d.d.w.1. . . . .<.w.d.d.s.s.s.s.s.s.s.s.s.s.s.s.s.s.s.s.s.s.s.s.s.s.s.s.s.s.k.c.{ M - ",
"- N ` M.M. .M X X a ~ ;.;.*.*.8.w.d.d.s.s.s.s.s.s.s.s.s.s.s.s.k.k.1.L v M M v L 1.k.k.s.s.s.s.s.s.s.s.s.s.s.s.s.s.s.s.s.s.s.s.s.s.s.s.s.s.k.c.` M - ",
"- N ` M.M. .M X X a ~ ;.*.X.X.1.w.d.d.s.s.s.s.s.s.s.s.s.s.s.s.k.c. .v X # # X v  .c.k.s.s.s.s.s.s.s.s.s.s.s.s.s.s.s.s.s.s.s.s.s.s.s.s.s.s.k.c.` M - ",
"- N ` M.M. .v X X 4 a C C v l K ,.k.k.s.s.s.s.s.s.s.s.s.s.s.s.k.c. .M # - - # M  .c.k.s.s.s.s.s.s.s.s.s.s.s.s.s.s.s.s.s.s.s.s.s.s.s.s.s.s.k.c.` M - ",
"- M ` n.n.1.L v C C C M M x g H >.k.k.s.s.s.s.s.s.s.s.s.s.d.k.n.M.+.M - ; ; - M +.M.n.k.d.s.s.s.s.s.s.s.s.s.s.s.s.s.s.s.s.s.s.s.s.s.s.s.s.k.c.` M - ",
"- N ` c.k.w.<.X.%.*.+.+.+.X.` >.w.d.d.s.s.s.s.s.s.s.s.s.s.d.k.M.B.+.v # - - # v +.B.M.k.d.s.s.s.s.s.s.s.s.s.s.s.s.s.s.s.s.s.s.s.s.s.s.s.s.k.c.{ N - ",
"- N ` c.k.k.c.u.0.*.*.*.*.0.u.c.k.s.s.s.s.s.s.s.s.s.s.d.d.w.1.X.+.) G s 8 6 s G ) +.X.1.w.d.d.s.s.s.s.s.s.s.s.s.s.s.s.s.s.s.s.s.s.s.s.s.s.k.c.{ N - ",
"- N { c.k.k.n.1.U C C C C U 1.n.k.s.s.s.s.s.s.s.s.s.s.k.k.1.L x x G _ ( s s ( _ G x l L <.k.k.s.s.s.s.s.s.s.s.s.s.s.s.s.s.s.s.s.s.s.s.s.s.k.c.{ N - ",
"- N { c.k.k.n.+.v X # # X v +.n.c.s.s.s.s.s.s.s.s.s.s.k.c. .v . . s ( ^ s s ^ ( s . . v  .c.k.s.s.s.s.s.s.s.s.s.s.s.s.s.s.s.s.s.s.s.s.s.s.k.c.{ N - ",
"- N { c.k.c.M.%.N # - - # N %.M.c.s.s.s.s.s.s.s.s.s.s.k.c. .M # - 8 s s q q s s 8 - # M  .c.k.s.s.s.s.s.s.s.s.s.s.s.s.s.s.s.s.s.s.s.s.s.s.k.c.{ N - ",
"- N { n.l.u.8.Q s ; , , ; s Q 8.u.d.d.s.s.s.s.s.s.s.s.k.c. .M # - 6 y y q q y y 6 - # M  .c.k.s.s.s.s.s.s.s.s.s.s.s.s.s.s.s.s.s.s.s.s.s.s.k.c.{ N - ",
"- N ` n.n.1.I y 6 , , , , 6 y I 1.k.k.s.s.s.s.s.s.s.s.k.c. .v . . a Q Q a a Q Q a . . v  .c.k.s.s.s.s.s.s.s.s.s.s.s.s.s.s.s.s.s.s.s.s.s.s.k.c.{ N - ",
"- N { M.M.{ l . - , , , , - . l  .c.k.s.s.s.s.s.s.s.s.k.k.<.L l l T q.;.C C ;.q.T l l L 1.k.k.s.s.s.s.s.s.s.s.s.s.s.s.s.s.s.s.s.s.s.s.s.s.k.c.{ N - ",
"- N ` M.M. .l . X ; , , , X . l  .c.k.s.s.s.s.s.s.s.s.d.d.w.<.{ { 0.a.*.M M *.a.0.{ { <.w.d.d.s.s.s.s.s.s.s.s.s.s.s.s.s.s.s.s.s.s.s.s.s.s.k.c.{ M - ",
"- N ` n.n.1.L M C d q q d C M L <.k.k.s.s.s.s.s.s.s.s.s.s.d.k.n.n.u.1.R r r R 1.u.n.n.k.d.s.s.s.s.s.s.s.s.s.s.s.s.s.s.s.s.s.s.s.s.s.s.s.s.k.c.{ M - ",
"- N ` c.c.w.<.+.;.^ a a ^ ;.+.1.w.d.d.s.s.s.s.s.s.s.s.s.s.d.k.n.n.1.K w 3 3 w K 1.n.n.k.d.s.s.s.s.s.s.s.s.s.s.s.s.s.s.s.s.s.s.s.s.s.s.s.s.k.c.{ M - ",
"- N ` c.k.k.c.p.0.W t t W 0.p.c.k.s.s.s.s.s.s.s.s.s.s.s.s.s.s.k.k.>.H g v v g J >.k.k.s.s.s.s.s.s.s.s.s.s.s.s.s.s.s.s.s.s.s.s.s.s.s.s.s.s.k.c.{ M - ",
"- N ` c.k.k.n.1.I r 3 3 r L 1.n.k.s.s.s.s.s.s.s.s.s.s.s.s.s.s.d.d.w.>.`  . .` >.w.d.d.s.s.s.s.s.s.s.s.s.s.s.s.s.s.s.s.s.s.s.s.s.s.s.s.s.s.k.c.` M - ",
"- C ` c.k.k.k.>.H g v v g H >.k.k.s.s.s.s.s.s.s.s.s.s.s.s.s.s.s.s.d.k.c.c.c.c.k.d.s.s.s.s.s.s.s.s.s.s.s.s.s.s.s.s.s.s.s.s.s.s.s.s.s.s.s.s.k.c.` M - ",
"- N { c.k.d.d.w.>.`  . .` >.w.d.d.s.s.s.s.s.s.s.s.s.s.s.s.s.s.s.s.d.k.k.k.k.k.k.d.s.s.s.s.s.s.s.s.s.s.s.s.s.s.s.s.s.s.s.s.s.s.s.s.s.s.s.s.k.c.` M - ",
"- N ` c.k.s.s.d.k.c.c.c.c.k.d.s.s.s.s.s.s.s.s.s.s.s.s.s.s.s.s.s.s.s.s.s.s.s.s.s.s.s.s.s.s.s.s.s.s.s.s.s.s.s.s.s.s.s.s.s.s.s.s.s.s.s.s.s.s.k.c.` M - ",
"- N { c.k.s.s.d.k.k.k.k.k.k.d.s.s.s.s.s.s.s.s.s.s.s.s.s.s.s.s.s.s.s.s.s.s.s.s.s.s.s.s.s.s.s.s.s.s.s.s.s.s.s.s.s.s.s.s.s.s.s.s.s.s.s.s.s.s.k.c.{ N - ",
"- N { c.k.s.s.s.s.s.s.s.s.s.s.s.s.s.s.s.s.s.s.s.s.s.s.s.s.s.s.s.s.s.s.s.s.s.s.s.s.s.s.s.s.s.s.s.s.s.s.s.s.s.s.s.s.s.s.s.s.s.s.s.s.s.s.s.s.k.c.{ N - ",
"- N { c.k.s.s.s.s.s.s.s.s.s.s.s.s.s.s.s.s.s.s.s.s.s.s.s.s.s.s.s.s.s.s.s.s.s.s.s.s.s.s.s.s.s.s.s.s.s.s.s.s.s.s.s.s.s.s.s.s.s.s.s.s.s.s.s.s.k.c.{ N - ",
"- N { c.k.s.s.s.s.s.s.s.s.s.s.s.s.s.s.s.s.s.s.s.s.s.s.s.s.s.s.s.s.s.s.s.s.s.s.s.s.s.s.s.s.s.s.s.s.s.s.s.s.s.s.s.s.s.s.s.s.s.s.s.s.s.s.s.s.k.c.{ N - ",
"- N ` c.k.s.s.s.s.s.s.s.s.s.s.s.s.s.s.s.s.s.s.s.s.s.s.s.s.s.s.s.s.s.s.s.s.s.s.s.s.s.s.s.s.s.s.s.s.s.s.s.s.s.s.s.s.s.s.s.s.s.s.s.s.s.s.s.s.k.c.{ N - ",
"- N ` c.k.s.s.s.s.s.s.s.s.s.s.s.s.s.s.s.s.s.s.s.s.s.s.s.s.s.s.s.s.s.s.s.s.s.s.s.s.s.s.s.s.s.s.s.s.s.s.s.s.s.s.s.s.s.s.s.s.s.s.s.s.s.s.s.s.k.c.{ N - ",
"- N ` c.k.s.s.s.s.s.s.s.s.s.s.s.s.s.s.s.s.s.s.s.s.s.s.s.s.s.s.s.s.s.s.s.s.s.s.s.s.s.s.s.s.s.s.s.s.s.s.s.s.s.s.s.s.s.s.s.s.s.s.s.s.s.s.s.s.k.c.{ N - ",
"- M ` c.k.s.s.s.s.s.s.s.s.s.s.s.s.s.s.s.s.s.s.s.s.s.s.s.s.s.s.s.s.s.s.s.s.s.s.s.s.s.s.s.s.s.s.s.s.s.s.s.s.s.s.s.s.s.s.s.s.s.s.s.s.s.s.s.s.k.c.{ N - ",
"- N ` c.k.s.s.s.s.s.s.s.s.s.s.s.s.s.s.s.s.s.s.s.s.s.s.s.s.s.s.s.s.s.s.s.s.s.s.s.s.s.s.s.s.s.s.s.s.s.s.s.s.s.s.s.s.s.s.s.s.s.s.s.s.s.s.s.s.k.c.{ M - ",
"- N ` c.k.s.s.s.s.s.s.s.s.s.s.s.s.s.s.s.s.s.s.s.s.s.s.s.s.s.s.s.s.s.s.s.s.s.s.s.s.s.s.s.s.s.s.s.s.s.s.s.s.s.s.s.s.s.s.s.s.s.s.s.s.s.s.s.s.k.c.{ M - ",
"- N { c.k.s.s.s.s.s.s.s.s.s.s.s.s.s.s.s.s.s.s.s.s.s.s.s.s.s.s.s.s.s.s.s.s.s.s.s.s.s.s.s.s.s.s.s.s.s.s.s.s.s.s.s.s.s.s.s.s.s.s.s.s.s.s.s.s.k.c.{ M - ",
"- N ` c.k.s.s.s.s.s.s.s.s.s.s.s.s.s.s.s.s.s.s.s.s.s.s.s.s.s.s.s.s.s.s.s.s.s.s.s.s.s.s.s.s.s.s.s.s.s.s.s.s.s.s.s.s.s.s.s.s.s.s.s.s.s.s.s.s.k.c.{ M - ",
"- N { c.k.s.s.s.s.s.s.s.s.s.s.s.s.s.s.s.s.s.s.s.s.s.s.s.s.s.s.s.s.s.s.s.s.s.s.s.s.s.s.s.s.s.s.s.s.s.s.s.s.s.s.s.s.s.s.s.s.s.s.s.s.s.s.s.s.k.c.` M - ",
"- N { c.k.s.s.s.s.s.s.s.s.s.s.s.s.s.s.s.s.s.s.s.s.s.s.s.s.s.s.s.s.s.s.s.s.s.s.s.s.s.s.s.s.s.s.s.s.s.s.s.s.s.s.s.s.s.s.s.s.s.s.s.s.s.s.s.s.k.c.` M - ",
"- N { c.k.s.s.s.s.s.s.s.s.s.s.s.s.s.s.s.s.s.s.s.s.s.s.s.s.s.s.s.s.s.s.s.s.s.s.s.s.s.s.s.s.s.s.s.s.s.s.s.s.s.s.s.s.s.s.s.s.s.s.s.s.s.s.s.s.k.c.` M - ",
"- N { c.k.s.s.s.s.s.s.s.s.s.s.s.s.s.s.s.s.s.s.s.s.s.s.s.s.s.s.s.s.s.s.s.s.s.s.s.s.s.s.s.s.s.s.s.s.s.s.s.s.s.s.s.s.s.s.s.s.s.s.s.s.s.s.s.s.k.c.` M - ",
"- N ` c.k.s.s.s.s.s.s.s.s.s.s.s.s.s.s.s.s.s.s.s.s.s.s.s.s.s.s.s.s.s.s.s.s.s.s.s.s.s.s.s.s.s.s.s.s.s.s.s.s.s.s.s.s.s.s.s.s.s.s.s.s.s.s.s.s.k.c.{ N - ",
"- N ` c.k.s.s.s.s.s.s.s.s.s.s.s.s.s.s.s.s.s.s.s.s.s.s.s.s.s.s.s.s.s.s.s.s.s.s.s.s.s.s.s.s.s.s.s.s.s.s.s.s.s.s.s.s.s.s.s.s.s.s.s.s.s.s.s.s.k.c.{ N - ",
"- N ` c.k.s.s.s.s.s.s.s.s.s.s.s.s.s.s.s.s.s.s.s.s.s.s.s.s.s.s.s.s.s.s.s.s.s.s.s.s.s.s.s.s.s.s.s.s.s.s.s.s.s.s.s.s.s.s.s.s.s.s.s.s.s.s.s.s.k.c.{ N - ",
"- M ` c.k.s.s.s.s.s.s.s.s.s.s.s.s.s.s.s.s.s.s.s.s.s.s.s.s.s.s.s.s.s.s.s.s.s.s.s.s.s.s.s.s.s.s.s.s.s.s.s.s.s.s.s.s.s.s.s.s.s.s.s.s.s.s.s.s.k.c.{ N - ",
"- N ` c.k.s.s.s.s.s.s.s.s.s.s.s.s.s.s.s.s.s.s.s.s.s.s.s.s.s.s.s.s.s.s.s.s.s.s.s.s.s.s.s.s.s.s.s.s.s.s.s.s.s.s.s.s.s.s.s.s.s.s.s.s.s.s.s.s.k.c.{ N - ",
"- N ` c.k.s.s.s.s.s.s.s.s.s.s.s.s.s.s.s.s.s.s.s.s.s.s.s.s.s.s.s.s.s.s.s.s.s.s.s.s.s.s.s.s.s.s.s.s.s.s.s.s.s.s.s.s.s.s.s.s.s.s.s.s.s.s.s.s.k.c.{ N - ",
"- N { c.k.s.s.s.s.s.s.s.s.s.s.s.s.s.s.s.s.s.s.s.s.s.s.s.s.s.s.s.s.s.s.s.s.s.s.s.s.s.s.s.s.s.s.s.s.s.s.s.s.s.s.s.s.s.s.s.s.s.s.s.s.s.s.s.s.k.c.{ N - ",
"- N ` c.k.s.s.s.s.s.s.s.s.s.s.s.s.s.s.s.s.s.s.s.s.s.s.s.s.s.s.s.s.s.s.s.s.s.s.s.s.s.s.s.s.s.s.s.s.s.s.s.s.s.s.s.s.s.s.s.s.s.s.s.s.s.s.s.s.k.c.{ N - ",
"- N { c.k.s.s.s.s.s.s.s.s.s.s.s.s.s.s.s.s.s.s.s.s.s.s.s.s.s.s.s.s.s.s.s.s.s.s.s.s.s.s.s.s.s.s.s.s.s.s.s.s.s.s.s.s.s.s.s.s.s.s.s.s.s.s.s.s.k.c.{ N - ",
"- N { c.k.s.s.s.s.s.s.s.s.s.s.s.s.s.s.s.s.s.s.s.s.s.s.s.s.s.s.s.s.s.s.s.s.s.s.s.s.s.s.s.s.s.s.s.s.s.s.s.s.s.s.s.s.s.s.s.s.s.s.s.s.s.s.s.s.k.c.{ N - ",
"- N { c.k.s.s.s.s.s.s.s.s.s.s.s.s.s.s.s.s.s.s.s.s.s.s.s.s.s.s.s.s.s.s.s.s.s.s.s.s.s.s.s.s.s.s.s.s.s.s.s.s.s.s.s.s.s.s.s.s.s.s.s.s.s.s.s.s.k.c.{ N - ",
"- N { c.k.s.s.s.s.s.s.s.s.s.s.s.s.s.s.s.s.s.s.s.s.s.s.s.s.s.s.s.s.s.s.s.s.s.s.s.s.s.s.s.s.s.s.s.s.s.s.s.s.s.s.s.s.s.s.s.s.s.s.s.s.s.s.s.s.k.c.{ N - ",
"- N ` c.k.s.s.s.s.s.s.s.s.s.s.s.s.s.s.s.s.s.s.s.s.s.s.s.s.s.s.s.s.s.s.s.s.s.s.s.s.s.s.s.s.s.s.s.s.s.s.s.s.s.s.s.s.s.s.s.s.s.s.s.s.s.s.s.s.k.c.` N - ",
"- N ` c.k.s.s.s.s.s.s.s.s.s.s.s.s.s.s.s.s.s.s.s.s.s.s.s.s.s.s.s.s.s.s.s.s.s.s.s.s.s.s.s.s.s.s.s.s.s.s.s.s.s.s.s.s.s.s.s.s.s.s.s.s.s.s.s.s.k.c.` N - ",
"- N ` c.k.s.s.s.s.s.s.s.s.s.s.s.s.s.s.s.s.s.s.s.s.s.s.s.s.s.s.s.s.s.s.s.s.s.s.s.s.s.s.s.s.s.s.s.s.s.s.s.s.s.s.s.s.s.s.s.s.s.s.s.s.s.s.s.s.k.c.` M - ",
"- M ` c.k.s.s.s.s.s.s.s.s.s.s.s.s.s.s.s.s.s.s.s.s.s.s.s.s.s.s.s.s.s.s.s.s.s.s.s.s.s.s.s.s.s.s.s.s.s.s.s.s.s.s.s.s.s.s.s.s.s.s.s.s.s.s.s.s.k.c.` M - ",
"- N ` c.k.s.s.s.s.s.s.s.s.s.s.s.s.s.s.s.s.s.s.s.s.s.s.s.s.s.s.s.s.s.s.s.s.s.s.s.s.s.s.s.s.s.s.s.s.s.s.s.s.s.s.s.s.s.s.s.s.s.s.s.s.s.s.s.s.k.c.{ M - ",
"- N ` c.k.s.s.s.s.s.s.s.s.s.s.s.s.s.s.s.s.s.s.s.s.s.s.s.s.s.s.s.s.s.s.s.s.s.s.s.s.s.s.s.s.s.s.s.s.s.s.s.s.s.s.s.s.s.s.s.s.s.s.s.s.s.s.s.s.k.c.{ M - ",
"- N { c.k.s.s.s.s.s.s.s.s.s.s.s.s.s.s.s.s.s.s.s.s.s.s.s.s.s.s.s.s.s.s.s.s.s.s.s.s.s.s.s.s.s.s.s.s.s.s.s.s.s.s.s.s.s.s.s.s.s.s.s.s.s.s.s.s.k.c.{ M - ",
"- N ` c.k.s.s.s.s.s.s.s.s.s.s.s.s.s.s.s.s.s.s.s.s.s.s.s.s.s.s.s.s.s.s.s.s.s.s.s.s.s.s.s.s.s.s.s.s.s.s.s.s.s.s.s.s.s.s.s.s.s.s.s.s.s.s.s.s.k.c.{ M - ",
"- N { c.k.s.s.s.s.s.s.s.s.s.s.s.s.s.s.s.s.s.s.s.s.s.s.s.s.s.s.s.s.s.s.s.s.s.s.s.s.s.s.s.s.s.s.s.s.s.s.s.s.s.s.s.s.s.s.s.s.s.s.s.s.s.s.s.s.k.c.{ M - ",
"- N { c.k.s.s.s.s.s.s.s.s.s.s.s.s.s.s.s.s.s.s.s.s.s.s.s.s.s.s.s.s.s.s.s.s.s.s.s.s.s.s.s.s.s.s.s.s.s.s.s.s.s.s.s.s.s.s.s.s.s.s.s.s.s.s.s.s.k.c.{ M - ",
"- N { c.k.s.s.s.s.s.s.s.s.s.s.s.s.s.s.s.s.s.s.s.s.s.s.s.s.s.s.s.s.s.s.s.s.s.s.s.s.s.s.s.s.s.s.s.s.s.s.s.s.s.s.s.s.s.s.s.s.s.s.s.s.s.s.s.s.k.c.{ M - ",
"- N { c.k.s.s.s.s.s.s.s.s.s.s.s.s.s.s.s.s.s.s.s.s.s.s.s.s.s.s.s.s.s.s.s.s.s.s.s.s.s.s.s.s.s.s.s.s.s.s.s.s.s.s.s.s.s.s.d.k.k.k.k.k.k.d.s.s.k.c.{ M - ",
"- N ` c.k.s.s.s.s.s.s.s.s.s.s.s.s.s.s.s.s.s.s.s.s.s.s.s.s.s.s.s.s.s.s.s.s.s.s.s.s.s.s.s.s.s.s.s.s.s.s.s.s.s.s.s.s.s.s.d.k.c.c.c.c.k.d.s.s.k.c.{ N - ",
"- N ` c.k.s.s.s.s.s.s.s.s.s.s.s.s.s.s.s.s.s.s.s.s.s.s.s.s.s.s.s.s.d.k.k.k.k.k.k.d.s.s.s.s.s.s.s.s.s.s.s.s.s.s.s.s.d.d.w.>.`  . .` >.w.d.d.k.c.{ N - ",
"- N ` c.k.s.s.s.s.s.s.s.s.s.s.s.s.s.s.s.s.s.s.s.s.s.s.s.s.s.s.s.s.d.k.c.c.c.c.k.d.s.s.s.s.s.s.s.s.s.s.s.s.s.s.s.s.k.k.>.H g v v g H >.k.k.k.c.{ N - ",
"- M ` c.k.s.s.s.s.s.s.s.s.s.s.s.s.s.s.s.s.s.s.s.s.s.s.s.s.s.s.d.d.w.>.`  . .` >.w.d.d.s.s.s.s.s.s.s.s.s.s.s.s.s.s.k.n.1.I r 3 3 r L 1.n.k.k.c.` N - ",
"- N ` c.k.s.s.s.s.s.s.s.s.s.s.s.s.s.s.s.s.s.s.s.s.s.s.s.s.s.s.k.k.>.H g v v g H >.k.k.s.s.s.s.s.s.s.s.s.s.s.s.s.s.k.c.p.0.W t t W 0.p.c.k.k.c.` N - ",
"- N ` c.k.s.s.s.s.s.s.s.s.s.s.s.s.s.s.s.s.s.s.s.s.s.s.s.s.d.k.n.n.1.K w 3 3 w K 1.n.n.k.d.s.s.s.s.s.s.s.s.s.s.d.d.w.<.+.;.^ a a ^ ;.+.1.w.c.n.{ N - ",
"- N { c.k.s.s.s.s.s.s.s.s.s.s.s.s.s.s.s.s.s.s.s.s.s.s.s.s.d.k.n.n.u.1.R r r R 1.u.n.n.k.d.s.s.s.s.s.s.s.s.s.s.k.k.1.L M C d q q d C M L 1.n.n.{ N - ",
"- N ` c.k.s.s.s.s.s.s.s.s.s.s.s.s.s.s.s.s.s.s.s.s.s.s.d.d.w.1. .{ 0.a.*.M M *.a.0. . .1.w.d.d.s.s.s.s.s.s.s.s.k.c. .l . X ; , , ; X . l  .M.M.{ N - ",
"- N { c.k.s.s.s.s.s.s.s.s.s.s.s.s.s.s.s.s.s.s.s.s.s.s.k.k.1.L l l T q.;.C C ;.q.T l l L 1.k.k.s.s.s.s.s.s.s.s.k.c.{ l . - , , , , # . l  .M.M.` M - ",
"- N { c.k.s.s.s.s.s.s.s.s.s.s.s.s.s.s.s.s.s.s.s.s.s.s.k.c. .v . . a Q Q a a Q Q a . . v  .c.k.s.s.s.s.s.s.s.s.k.k.1.I y 6 , , , , 6 y I 1.n.n.` M - ",
"- N { c.k.s.s.s.s.s.s.s.s.s.s.s.s.s.s.s.s.s.s.s.s.s.s.k.c. .M X - 6 y a q q y y 6 - # M  .c.k.s.s.s.s.s.s.s.s.d.d.u.8.Q s ; , , ; s Q 8.u.c.c.` M - ",
"- N { c.k.s.s.s.s.s.s.s.s.s.s.s.s.s.s.s.s.s.s.s.s.s.s.k.c. .M X - q s s q q s s 6 - # M  .c.k.s.s.s.s.s.s.s.s.s.s.c.M.%.N # - - # N %.B.c.k.c.{ M - ",
"- N ` c.k.s.s.s.s.s.s.s.s.s.s.s.s.s.s.s.s.s.s.s.s.s.s.k.c. .v . . s ( ^ s s ^ ( s . . v  .c.k.s.s.s.s.s.s.s.s.s.s.k.n.+.v X # # X v +.n.k.k.c.{ M - ",
"- N ` c.k.s.s.s.s.s.s.s.s.s.s.s.s.s.s.s.s.s.s.s.s.s.s.k.k.1.L x x G _ ( s s ( _ G x l K 1.k.k.s.s.s.s.s.s.s.s.s.s.k.n.1.U C C C C U 6.n.k.k.c.{ M - ",
"- N ` c.k.s.s.s.s.s.s.s.s.s.s.s.s.s.s.s.s.s.s.s.s.s.s.d.d.w.1.X.+.) G s 8 8 s G ) +.X.<.w.d.d.s.s.s.s.s.s.s.s.s.s.k.c.u.0.*.*.*.*.0.u.c.k.k.c.` M - ",
"- M ` c.k.s.s.s.s.s.s.s.s.s.s.s.s.s.s.s.s.s.s.s.s.s.s.s.s.d.k.M.B.+.v # - - X v +.B.M.k.d.s.s.s.s.s.s.s.s.s.s.d.d.w.>.` X.+.+.+.*.%.X.<.w.k.c.` M - ",
"- N ` c.k.s.s.s.s.s.s.s.s.s.s.s.s.s.s.s.s.s.s.s.s.s.s.s.s.d.k.n.M.+.M - ; ; # M +.M.n.k.d.s.s.s.s.s.s.s.s.s.s.k.k.>.J g x M M C C C v L 1.n.n.{ M - ",
"- N ` c.k.s.s.s.s.s.s.s.s.s.s.s.s.s.s.s.s.s.s.s.s.s.s.s.s.s.s.k.c. .M # - - # M  .c.k.s.s.s.s.s.s.s.s.s.s.s.s.k.k.,.K l v C C a 4 X X v  .M.M.{ M - ",
"- N { c.k.s.s.s.s.s.s.s.s.s.s.s.s.s.s.s.s.s.s.s.s.s.s.s.s.s.s.k.c. .v X # # X v  .c.k.s.s.s.s.s.s.s.s.s.s.s.s.d.d.w.1.X.+.*.;.~ a X X M  .M.M.{ M - ",
"- N ` c.k.s.s.s.s.s.s.s.s.s.s.s.s.s.s.s.s.s.s.s.s.s.s.s.s.s.s.k.k.1.L v M M v L <.k.k.s.s.s.s.s.s.s.s.s.s.s.s.d.d.w.8.*.*.;.;.~ a X X M  .M.M.{ M - ",
"- N { c.k.s.s.s.s.s.s.s.s.s.s.s.s.s.s.s.s.s.s.s.s.s.s.s.s.s.s.d.d.w.<. . . . .1.w.d.d.s.s.s.s.s.s.s.s.s.s.s.s.k.k.1.U C C F C a 4 X X v  .M.M.{ M - ",
"- N { c.k.s.s.s.s.s.s.s.s.s.s.s.s.s.s.s.s.s.s.s.s.s.s.s.s.s.s.s.s.d.k.c.c.c.c.k.d.s.s.s.s.s.s.s.s.s.s.s.s.s.s.k.c. .v X X 4 a C F C C U 1.n.n.{ M - ",
"- N { c.k.s.s.s.s.s.s.s.s.s.s.s.s.s.s.s.s.s.s.s.s.s.s.s.s.s.s.s.s.d.k.k.k.k.k.k.d.s.s.s.s.s.s.s.s.s.s.s.s.s.s.k.c. .M X X a ~ ;.;.*.*.8.w.c.n.{ M - ",
"- N { c.k.s.s.s.s.s.s.s.s.s.s.s.s.s.s.s.s.s.s.s.s.s.s.s.s.s.s.s.s.s.s.s.s.s.s.s.s.s.s.s.s.s.s.s.s.s.s.s.s.s.s.k.c. .M X X a ~ ;.*.+.X.1.w.c.n.{ M - ",
"- N ` c.k.s.s.s.s.s.s.s.s.s.s.s.s.s.s.s.s.s.s.s.s.s.s.s.s.s.s.s.s.s.s.s.s.s.s.s.s.s.s.s.s.s.s.s.s.s.s.s.s.s.s.k.c. .v X X 4 a C C v l K ,.n.n.{ N - ",
"- C X.n.k.s.s.s.s.s.s.s.s.s.s.s.s.s.s.s.s.s.s.s.s.s.s.s.s.s.s.s.s.s.s.s.s.s.s.s.s.s.s.s.s.s.s.s.s.s.s.s.s.s.s.k.k.<.L v M N v x x g f H >.M.B.X.C - ",
"- C +.M.k.s.s.s.s.s.s.s.s.s.s.s.s.s.s.s.s.s.s.s.s.s.s.s.s.s.s.s.s.s.s.s.s.s.s.s.s.s.s.s.s.s.s.s.s.s.s.s.s.s.s.d.d.w.<. . . .{ ` ` ` ` >.w.c.B.+.C - ",
"- a E 8.u.l.k.k.k.k.k.k.k.k.k.k.k.k.k.k.k.k.k.k.k.k.k.k.k.k.k.k.k.k.k.k.k.k.k.k.k.k.k.k.k.k.k.k.k.k.k.k.k.k.k.k.k.l.n.M.M.M.M.M.M.M.M.M.c.u.8.E a - ",
", 6 y U 8.M.n.c.c.c.c.c.c.c.c.c.c.c.c.c.c.c.c.c.c.c.c.c.c.c.c.c.c.c.c.c.c.c.c.c.c.c.c.c.c.c.c.c.c.c.c.c.c.c.c.c.c.n.n.M.M.M.M.M.M.M.M.B.B.8.U y 6 , ",
"1 - # y E +.X.{ ` ` ` ` { { { { ` ` ` ` ` { { { { { { ` ` ` { { { { ` ` ` ` { { ` ` ` ` { { { { ` ` ` ` ` { { { { { { { ` ` { { { { { X.+.E y # - 1 ",
"    - 6 a C C N M N N N N N N N N N N N M M N N N N N N M N N N N N N N N N N N M N N N N N N N N N N N M M N N N N N N M N N N N N N C C a 6 -     ",
"    1 , - - - - - - - - - - - - - - - - - - - - - - - - - - - - - - - - - - - - - - - - - - - - - - - - - - - - - - - - - - - - - - - - - - , 1     "
};
