/* XPM */
static char *clubs_7[] = {
/* columns rows colors chars-per-pixel */
"74 104 169 2 ",
"   c None",
".  c #180026",
"X  c #190027",
"o  c #1A0028",
"O  c #1B0028",
"+  c #1B0029",
"@  c #1C0029",
"#  c #1D002A",
"$  c #1D002B",
"%  c #1E002B",
"&  c #1E002C",
"*  c #1F002C",
"=  c #20002D",
"-  c #20012D",
";  c #21012D",
":  c #21012E",
">  c #22032F",
",  c #23032F",
"<  c #230430",
"1  c #250531",
"2  c #250631",
"3  c #250632",
"4  c #260732",
"5  c #270833",
"6  c #290A35",
"7  c #2A0B36",
"8  c #2B0C36",
"9  c #2B0D37",
"0  c #2F113A",
"q  c #30123B",
"w  c #30133B",
"e  c #31133B",
"r  c #31133C",
"t  c #32143C",
"y  c #32153D",
"u  c #33153D",
"i  c #43284B",
"p  c #452A4D",
"a  c #462B4D",
"s  c #462B4E",
"d  c #462C4E",
"f  c #472C4E",
"g  c #472D4F",
"h  c #482D4F",
"j  c #482E50",
"k  c #492E50",
"l  c #492F50",
"z  c #4A2F51",
"x  c #4A3051",
"c  c #4B3152",
"v  c #4C3253",
"b  c #4F3555",
"n  c #503756",
"m  c #523857",
"M  c #523858",
"N  c #533A58",
"B  c #533A59",
"V  c #543B59",
"C  c #543B5A",
"Z  c #553C5A",
"A  c #553C5B",
"S  c #553D5B",
"D  c #563D5B",
"F  c #563E5B",
"G  c #573E5C",
"H  c #573F5C",
"J  c #583F5D",
"K  c #58405D",
"L  c #59405D",
"P  c #59415E",
"I  c #5A425E",
"U  c #5A425F",
"Y  c #766277",
"T  c #7B677B",
"R  c #7B687B",
"E  c #7D6A7D",
"W  c #7F6C7E",
"Q  c #806C7F",
"!  c #806D7F",
"~  c #816E80",
"^  c #816F80",
"/  c #826F81",
"(  c #837182",
")  c #847282",
"_  c #857283",
"`  c #978893",
"'  c #9B8B96",
"]  c #9B8C96",
"[  c #9B8C97",
"{  c #9D8E98",
"}  c #9E8F99",
"|  c #9F909A",
" . c #A0919A",
".. c #A1939B",
"X. c #A2949C",
"o. c #AC9FA4",
"O. c #B2A5AA",
"+. c #C0B5B6",
"@. c #C0B6B6",
"#. c #C1B6B6",
"$. c #C1B7B7",
"%. c #C2B8B7",
"&. c #C2B8B8",
"*. c #C3B9B8",
"=. c #C3B9B9",
"-. c #C3BAB9",
";. c #C4BAB9",
":. c #C4BBBA",
">. c #C5BBBA",
",. c #C5BCBA",
"<. c #C6BCBB",
"1. c #C6BDBB",
"2. c #C7BDBB",
"3. c #C7BEBC",
"4. c #C8BFBD",
"5. c #CBC2BF",
"6. c #CEC5C2",
"7. c #CFC7C3",
"8. c #D0C8C3",
"9. c #D0C8C4",
"0. c #D1C9C4",
"q. c #D2CAC5",
"w. c #D3CBC6",
"e. c #D3CCC6",
"r. c #D4CCC7",
"t. c #D5CDC7",
"y. c #D5CDC8",
"u. c #D5CEC8",
"i. c #D6CEC8",
"p. c #D7CFC9",
"a. c #D7D0C9",
"s. c #D8D1CA",
"d. c #DAD3CC",
"f. c #DBD5CD",
"g. c #E9E4D9",
"h. c #EAE5DA",
"j. c #EBE7DB",
"k. c #ECE8DC",
"l. c #EFEADE",
"z. c #EFEBDE",
"x. c #F1EDDF",
"c. c #F1EEE0",
"v. c #F4F0E2",
"b. c #F5F2E3",
"n. c #F6F3E4",
"m. c #F7F4E5",
"M. c #F8F5E5",
"N. c #F8F5E6",
"B. c #F8F6E6",
"V. c #F9F6E7",
"C. c #F9F7E7",
"Z. c #FAF7E7",
"A. c #FAF8E8",
"S. c #FBF8E8",
"D. c #FBF9E8",
"F. c #FBF9E9",
"G. c #FCF9E9",
"H. c #FCFAE9",
"J. c #FCFAEA",
"K. c #FDFBEA",
"L. c #FEFCEA",
"P. c #FEFCEB",
"I. c #FEFDEB",
"U. c #FFFDEB",
"Y. c #FFFDEC",
"T. c #FFFEEC",
"R. c #FFFEED",
"E. c #FFFFED",
"W. c #FFFFEE",
/* pixels */
"    5 3 , , , , , , , , , , , , , , , , , , , , , , , , , , , , , , , , , , , , , , , , , , , , , , , , , , , , , , , , , , , , , , , , , , 3 5     ",
"    , w c P P J J J J H J J J J J J J J J J J H J J J J J J J J J J J H J J J J J J J J J J J H J J J J J J J J J J J H J J J J J J J P P c w ,     ",
"5 , * j ' ,.;.%.%.+.+.+.+.+.%.+.%.%.+.%.+.+.+.+.+.+.%.+.%.%.%.%.+.+.+.+.+.+.%.+.%.%.%.%.+.+.+.+.+.+.%.+.%.%.%.%.+.+.+.+.+.+.%.+.%.%.%.;.,.' h * , 5 ",
"3 w j ~ t.T.T.P.P.P.P.P.P.P.P.K.K.F.F.F.F.F.F.F.F.F.F.F.F.F.F.F.F.F.F.F.F.F.F.F.F.F.F.F.F.F.F.F.F.F.F.F.F.F.F.F.F.F.F.F.F.F.F.F.F.F.F.K.P.t.~ h w 3 ",
", c ' t.l.F.K.P.P.P.P.P.P.P.P.K.F.Z.Z.Z.Z.Z.Z.Z.Z.Z.Z.Z.Z.Z.Z.Z.Z.Z.Z.Z.Z.Z.Z.Z.Z.Z.Z.Z.Z.Z.Z.Z.Z.Z.Z.Z.Z.Z.Z.Z.Z.Z.Z.Z.Z.Z.Z.Z.Z.Z.Z.Z.F.l.t.' c , ",
", P ,.T.F.g.7.+.+.+.+.%.=.=.=.9.g.m.m.n.n.n.n.n.n.n.n.n.n.n.n.n.n.n.n.n.n.n.n.n.n.n.n.n.n.n.n.n.n.n.n.n.n.n.n.n.n.n.n.n.n.n.n.n.n.n.n.n.n.F.P.,.P , ",
", P ;.T.K.7.T n m C C S J H S W 8.Z.Z.n.n.n.n.n.n.n.n.n.n.n.n.n.n.n.n.n.n.n.n.n.n.n.n.n.n.n.n.n.n.n.n.n.n.n.n.n.n.n.n.n.n.n.n.n.n.n.n.n.n.Z.K.;.P , ",
", J %.K.K.7.R n m S J c 0 # o B %.F.Z.n.n.n.n.n.n.n.n.n.n.n.n.n.n.n.n.n.n.n.n.n.n.n.n.n.n.n.n.n.n.n.n.n.n.n.n.n.n.n.n.n.n.n.n.n.n.n.n.n.n.Z.F.%.J , ",
", J +.K.F.g.7.O.+.;.4.| c # X B =.F.Z.n.n.n.n.n.n.n.n.n.n.n.n.n.n.n.n.n.n.n.n.n.n.n.n.n.n.n.n.n.n.n.n.n.n.n.n.n.n.n.n.n.n.n.n.n.n.n.n.n.n.Z.F.%.H , ",
", J %.F.Z.m.Z.K.P.v.d.| c 8 s ! 9.Z.Z.n.n.m.Z.Z.Z.Z.Z.Z.m.n.n.n.n.n.n.n.n.n.n.n.n.n.n.n.n.m.Z.Z.Z.Z.Z.Z.m.n.n.n.n.n.n.n.n.n.n.n.n.n.n.n.n.Z.F.%.H , ",
", J =.F.Z.m.Z.K.T.s._ h 6 g ] t.l.m.m.n.n.m.Z.F.F.F.F.Z.m.n.n.n.n.n.n.n.n.n.n.n.n.n.n.n.n.m.Z.F.F.F.F.Z.m.n.n.n.n.n.n.n.n.n.n.n.n.n.n.n.n.Z.F.%.H , ",
", J %.F.Z.m.m.l.t.] g 6 s ~ y.P.Z.n.n.m.m.g.8.=.=.=.=.9.g.m.m.n.n.n.n.n.n.n.n.n.n.n.n.m.m.g.8.=.=.=.=.9.g.m.m.n.n.n.n.n.n.n.n.n.n.n.n.n.n.Z.F.%.H , ",
", J %.F.Z.Z.Z.9.! s 8 j ] t.l.Z.m.n.n.Z.Z.8.W S H H S W 9.Z.Z.n.n.n.n.n.n.n.n.n.n.n.n.Z.Z.9.W S H H S W 9.Z.Z.n.n.n.n.n.n.n.n.n.n.n.n.n.n.Z.F.+.H , ",
", J +.F.Z.Z.F.=.B X o P 3.P.F.n.n.n.n.Z.F.=.S # * * # S =.F.Z.n.n.n.n.n.n.n.n.n.n.n.n.Z.F.=.S # * * # S =.F.Z.n.n.n.n.n.n.n.n.n.n.n.n.n.n.Z.F.+.H , ",
", J +.F.Z.Z.F.=.B X X S ,.K.Z.n.n.n.n.Z.F.=.H * , , * H =.F.Z.n.n.n.n.n.n.n.n.n.n.n.n.Z.F.=.H * , , * H =.F.Z.n.n.n.n.n.n.n.n.n.n.n.n.n.n.Z.F.+.H , ",
", H +.F.Z.Z.Z.9.~ S S ~ e.K.Z.n.n.m.Z.K.P.,.H , < < , H ,.P.K.Z.m.n.n.n.n.n.n.n.n.m.Z.K.P.,.H , < < , H ,.P.K.Z.m.n.n.n.n.n.n.n.n.n.n.n.n.Z.F.+.H , ",
", J +.F.Z.n.m.g.t.3.3.y.l.F.Z.n.n.m.Z.P.T.,.S * , , * S ,.T.P.Z.m.n.n.n.n.n.n.n.n.m.Z.P.T.,.S * , , # S ,.T.P.Z.m.n.n.n.n.n.n.n.n.n.n.n.n.Z.F.%.J , ",
", J +.F.Z.n.m.g.t.4.4.3.;.8.g.Z.Z.g.9.;.,.o.Y v r w v Y o.,.;.9.g.m.m.n.n.n.n.m.m.g.9.;.,.o.Y v w w v Y o.,.;.9.g.m.m.n.n.n.n.n.n.n.n.n.n.Z.F.%.J , ",
", J %.F.Z.Z.Z.9.~ P P P S W 8.K.K.9.W B C Y O.X.v v X.O.Y C C W 9.Z.Z.n.n.n.n.Z.Z.9.W C C Y O.X.v v X.O.Y C B W 9.Z.Z.n.n.n.n.n.n.n.n.n.n.Z.F.%.J , ",
", J +.F.Z.Z.K.,.S # * * # S ,.T.T.=.S o o v X. .v v  .X.v o o S =.F.Z.n.n.n.n.Z.F.=.S o o v X. .v v  .X.v o o S =.F.Z.n.n.n.n.n.n.n.n.n.n.Z.F.%.J , ",
", J %.F.Z.F.T.3.J * , , * J 3.T.T.=.H * , r v v u u v v r , * H =.F.Z.n.n.n.n.Z.F.=.H * , u v v u u v v w , # H =.F.Z.n.n.n.n.n.n.n.n.n.n.Z.F.%.J , ",
", J %.K.F.l.t.{ v < 3 3 < v { a.c.;.J * , w j j u u j j w , * H =.F.Z.n.n.n.n.Z.F.=.H * , w j j u u j j w , # H =.F.Z.n.n.n.n.n.n.n.n.n.n.Z.F.%.J , ",
", J +.K.K.9.! j w 3 3 3 3 w j ( y.,.J o o c { { c c { { c o o S =.F.Z.n.n.n.n.Z.F.=.S o o c { { c c { { c o o S =.F.Z.n.n.n.n.n.n.n.n.n.n.Z.F.%.J , ",
", J +.P.P.%.B o , 3 3 3 3 , o S ,.y.~ B B _ f.5.P P 5.f._ B B W 8.Z.Z.n.n.n.n.Z.Z.9.W B B _ f.5.P P 5.f._ B B W 8.Z.Z.n.n.n.n.n.n.n.n.n.n.Z.F.%.J , ",
", J +.P.P.=.B o # < 3 3 3 * o C =.l.e.=.%.y.v.4.H H 4.v.y.%.%.9.g.m.m.n.n.n.n.m.m.g.8.%.%.y.v.4.H H 4.v.y.%.=.9.g.m.m.n.n.n.n.n.n.n.n.n.n.Z.F.%.H , ",
", J +.K.K.9.W H P b u u b P H W 8.F.K.K.K.l.9.` s s ` 9.l.K.K.Z.m.n.n.n.n.n.n.n.n.m.Z.K.K.l.9.` s s ` 9.l.K.K.Z.m.n.n.n.n.n.n.n.n.n.n.n.n.Z.F.%.H , ",
", J +.F.F.g.8.,.5. .c c  .5.,.8.g.Z.Z.K.K.9.W i 8 8 i W 9.K.F.Z.m.n.n.n.n.n.n.n.n.m.Z.F.K.9.W i 8 8 i W 9.K.K.Z.m.n.n.n.n.n.n.n.n.n.n.n.n.Z.F.%.H , ",
", J +.F.Z.Z.F.x.y.] g g ] y.x.F.Z.n.n.Z.Z.7.T m S S B R 7.Z.Z.n.n.m.Z.Z.Z.Z.Z.Z.m.n.n.Z.Z.7.T m S S m T 7.Z.Z.n.n.n.n.n.n.n.n.n.n.n.n.n.n.Z.F.%.H , ",
", J +.F.Z.Z.K.9.! s 8 8 s W 9.K.Z.n.n.m.m.g.7.+.=.=.+.7.g.m.m.n.n.m.Z.F.F.F.F.Z.m.n.n.m.m.g.7.+.=.=.+.7.g.m.m.n.n.n.n.n.n.n.n.n.n.n.n.n.n.Z.F.+.H , ",
", P +.F.Z.Z.Z.7.T m S S m T 7.Z.Z.n.n.n.n.m.Z.F.F.F.F.Z.m.n.n.m.m.g.9.=.=.=.=.8.g.m.m.n.n.m.Z.F.F.F.F.Z.m.n.n.n.n.n.n.n.n.n.n.n.n.n.n.n.n.Z.F.+.H , ",
", J %.F.Z.m.m.g.7.+.=.=.+.7.g.m.m.n.n.n.n.m.Z.Z.Z.Z.Z.Z.m.n.n.Z.Z.8.W S H H S W 8.Z.Z.n.n.m.Z.Z.Z.Z.Z.Z.m.n.n.n.n.n.n.n.n.n.n.n.n.n.n.n.n.Z.F.+.H , ",
", J +.F.Z.n.n.m.Z.F.F.F.F.Z.m.n.n.n.n.n.n.n.n.n.n.n.n.n.n.n.n.Z.F.=.S # * * # S =.F.Z.n.n.n.n.n.n.n.n.n.n.n.n.n.n.n.n.n.n.n.n.n.n.n.n.n.n.Z.F.+.H , ",
", J %.F.Z.n.n.m.Z.Z.Z.Z.Z.Z.m.n.n.n.n.n.n.n.n.n.n.n.n.n.n.n.n.Z.F.=.H * , , * H =.F.Z.n.n.n.n.n.n.n.n.n.n.n.n.n.n.n.n.n.n.n.n.n.n.n.n.n.n.Z.F.%.J , ",
", J %.F.Z.n.n.n.n.n.n.n.n.n.n.n.n.n.n.n.n.n.n.n.n.n.n.n.n.m.Z.K.P.,.H , < < , H ,.P.K.Z.m.n.n.n.n.n.n.n.n.n.n.n.n.n.n.n.n.n.n.n.n.n.n.n.n.Z.F.%.J , ",
", J %.F.Z.n.n.n.n.n.n.n.n.n.n.n.n.n.n.n.n.n.n.n.n.n.n.n.n.m.Z.P.T.,.S * , , # S ,.T.P.Z.m.n.n.n.n.n.n.n.n.n.n.n.n.n.n.n.n.n.n.n.n.n.n.n.n.Z.F.%.J , ",
", J %.F.Z.n.n.n.n.n.n.n.n.n.n.n.n.n.n.n.n.n.n.n.n.n.n.m.m.g.9.;.,.o.Y v w w v Y o.,.;.9.g.m.m.n.n.n.n.n.n.n.n.n.n.n.n.n.n.n.n.n.n.n.n.n.n.Z.F.%.J , ",
", J +.F.Z.n.n.n.n.n.n.n.n.n.n.n.n.n.n.n.n.n.n.n.n.n.n.Z.Z.9.W C C Y O.X.v v X.O.Y C B W 8.Z.Z.n.n.n.n.n.n.n.n.n.n.n.n.n.n.n.n.n.n.n.n.n.n.Z.F.%.J , ",
", J +.F.Z.n.n.n.n.n.n.n.n.n.n.n.n.n.n.n.n.n.n.n.n.n.n.Z.F.=.S o o v X. .v v  .X.v o o S =.F.Z.n.n.n.n.n.n.n.n.n.n.n.n.n.n.n.n.n.n.n.n.n.n.Z.F.%.J , ",
", J +.F.Z.n.n.n.n.n.n.n.n.n.n.n.n.n.n.n.n.n.n.n.n.n.n.Z.F.=.H # , r v v u u v v w * # H =.F.Z.n.n.n.n.n.n.n.n.n.n.n.n.n.n.n.n.n.n.n.n.n.n.Z.F.%.J , ",
", H +.F.Z.n.n.n.n.n.n.n.n.n.n.n.n.n.n.n.n.n.n.n.n.n.n.Z.F.=.H # , w j j u u j j w , # H =.F.Z.n.n.n.n.n.n.n.n.n.n.n.n.n.n.n.n.n.n.n.n.n.n.Z.F.%.J , ",
", J +.F.Z.n.n.n.n.n.n.n.n.n.n.n.n.n.n.n.n.n.n.n.n.n.n.Z.F.=.S o o c { { c c { { c o o S =.F.Z.n.n.n.n.n.n.n.n.n.n.n.n.n.n.n.n.n.n.n.n.n.n.Z.F.%.H , ",
", J +.F.Z.n.n.n.n.n.n.n.n.n.n.n.n.n.n.n.n.m.Z.Z.Z.Z.Z.F.F.8.W B B _ f.5.P P 5.f._ B B W 8.F.F.Z.Z.Z.Z.Z.m.n.n.n.n.n.n.n.n.n.n.n.n.n.n.n.n.Z.F.%.H , ",
", J %.F.Z.n.n.n.n.n.n.n.n.n.n.n.n.n.n.n.n.m.Z.F.F.F.F.A.Z.g.8.%.%.y.v.4.H H 4.v.y.=.%.9.g.Z.F.F.F.F.F.Z.m.n.n.n.n.n.n.n.n.n.n.n.n.n.n.n.n.Z.F.%.H , ",
", J +.F.Z.n.n.n.n.n.n.n.n.n.n.n.n.n.n.m.m.g.9.=.=.=.=.8.g.Z.F.K.K.l.9.` s s ` 9.l.K.K.F.Z.g.8.=.=.=.=.9.g.m.m.n.n.n.n.n.n.n.n.n.n.n.n.n.n.Z.F.%.H , ",
", J %.F.Z.n.n.n.n.n.n.n.n.n.n.n.n.n.n.Z.Z.9.W S H H S W 9.F.F.K.K.9.W i 8 8 i W 9.K.K.F.F.8.W S H H S W 9.Z.Z.n.n.n.n.n.n.n.n.n.n.n.n.n.n.Z.F.+.H , ",
", J %.F.Z.n.n.n.n.n.n.n.n.n.n.n.n.n.n.Z.F.=.S # * * # S =.F.Z.Z.Z.7.T m S S m T 7.Z.Z.Z.F.=.S # * * # S =.F.Z.n.n.n.n.n.n.n.n.n.n.n.n.n.n.Z.F.+.H , ",
", J %.F.Z.n.n.n.n.n.n.n.n.n.n.n.n.n.n.Z.F.=.H * , , * H =.F.Z.m.m.g.7.+.=.=.+.7.g.m.m.Z.F.=.S * , , * H =.F.Z.n.n.n.n.n.n.n.n.n.n.n.n.n.n.Z.F.+.H , ",
", J %.F.Z.n.n.n.n.n.n.n.n.n.n.n.n.m.Z.K.P.,.H , < < , H ,.P.K.Z.m.m.Z.F.F.F.F.Z.m.m.Z.K.P.,.H * < < , H ,.P.K.Z.m.n.n.n.n.n.n.n.n.n.n.n.n.Z.F.+.H , ",
", J +.F.Z.n.n.n.n.n.n.n.n.n.n.n.n.m.Z.P.T.,.H * , , * H ,.T.P.Z.m.m.Z.Z.Z.Z.Z.Z.m.m.Z.P.T.,.S * , , # S ,.T.P.Z.m.n.n.n.n.n.n.n.n.n.n.n.n.Z.F.%.J , ",
", J +.F.Z.n.n.n.n.n.n.n.n.n.n.m.m.g.8.;.,.o.Y v r r v Y o.,.;.9.g.m.m.n.n.n.n.m.m.g.9.;.,.o.Y v w w v Y o.,.;.9.g.m.m.n.n.n.n.n.n.n.n.n.n.Z.F.%.J , ",
", J +.F.Z.n.n.n.n.n.n.n.n.n.n.Z.Z.8.W C C Y O.X.v v X.O.Y C B W 8.Z.Z.n.n.n.n.Z.Z.9.W C C Y O.X.v v X.O.Y C B W 9.Z.Z.n.n.n.n.n.n.n.n.n.n.Z.F.%.J , ",
", H +.F.Z.n.n.n.n.n.n.n.n.n.n.Z.F.=.S o o v X. .v v  .X.v o o S =.F.Z.n.n.n.n.Z.F.=.S o o v X. .v v  .X.v o o S =.F.Z.n.n.n.n.n.n.n.n.n.n.Z.F.%.J , ",
", J +.F.Z.n.n.n.n.n.n.n.n.n.n.Z.F.=.H * , u v v u u v v w , # H =.F.Z.n.n.n.n.Z.F.=.H * , u v v u u v v w , # H =.F.Z.n.n.n.n.n.n.n.n.n.n.Z.F.%.J , ",
", J +.F.Z.n.n.n.n.n.n.n.n.n.n.Z.F.=.H * , w j j u u j j w , # H =.F.Z.n.n.n.n.Z.F.=.H * , w j j u u j j w , # H =.F.Z.n.n.n.n.n.n.n.n.n.n.Z.F.%.J , ",
", J %.F.Z.n.n.n.n.n.n.n.n.n.n.Z.F.=.S o # c { { c c { { c o o S =.F.Z.n.n.n.n.Z.F.=.S o o c { { c c { { c o o S =.F.Z.n.n.n.n.n.n.n.n.n.n.Z.F.%.J , ",
", J +.F.Z.n.n.n.n.n.n.n.n.n.n.Z.Z.9.W B B _ f.5.P P 5.f._ B B W 8.Z.Z.n.n.n.n.Z.Z.9.W B B _ f.5.P P 5.f._ B B W 8.Z.Z.n.n.n.n.n.n.n.n.n.n.Z.F.%.J , ",
", J %.F.Z.n.n.n.n.n.n.n.n.n.n.m.m.g.8.%.%.y.v.4.H H 4.v.y.%.=.9.g.m.m.n.n.n.n.m.m.g.8.%.%.y.v.4.H H 4.v.y.%.=.9.g.m.m.n.n.n.n.n.n.n.n.n.n.Z.F.%.J , ",
", J %.F.Z.n.n.n.n.n.n.n.n.n.n.n.n.m.Z.K.K.l.9.` s s ` 9.l.K.K.Z.m.n.n.n.n.n.n.n.n.m.Z.K.K.l.9.` s s ` 9.l.K.K.Z.m.n.n.n.n.n.n.n.n.n.n.n.n.Z.F.%.J , ",
", J %.F.Z.n.n.n.n.n.n.n.n.n.n.n.n.m.Z.K.K.9.W i 8 8 i W 9.K.K.Z.m.n.n.n.n.n.n.n.n.m.Z.K.K.9.W i 8 8 i W 9.K.K.Z.m.n.n.n.n.n.n.n.n.n.n.n.n.Z.F.%.J , ",
", J %.F.Z.n.n.n.n.n.n.n.n.n.n.n.n.n.n.Z.Z.7.T m S S m T 7.Z.Z.n.n.n.n.n.n.n.n.n.n.n.n.Z.Z.7.T m S S m T 7.Z.Z.n.n.n.n.n.n.n.n.n.n.n.n.n.n.Z.F.%.J , ",
", J +.F.Z.n.n.n.n.n.n.n.n.n.n.n.n.n.n.m.m.g.7.+.=.=.+.7.g.m.m.n.n.n.n.n.n.n.n.n.n.n.n.m.m.g.7.+.=.=.+.7.g.m.m.n.n.n.n.n.n.n.n.n.n.n.n.n.n.Z.F.+.J , ",
", J +.F.Z.n.n.n.n.n.n.n.n.n.n.n.n.n.n.n.n.m.Z.F.F.F.F.Z.m.n.n.n.n.n.n.n.n.n.n.n.n.n.n.n.n.m.Z.F.F.F.F.Z.m.n.n.n.n.n.n.n.n.n.n.n.n.n.n.n.n.Z.F.+.J , ",
", J +.F.Z.n.n.n.n.n.n.n.n.n.n.n.n.n.n.n.n.m.Z.Z.Z.Z.Z.Z.m.n.n.n.n.n.n.n.n.n.n.n.n.n.n.n.n.m.Z.Z.Z.Z.Z.Z.m.n.n.n.n.n.n.n.n.n.n.n.n.n.n.n.n.Z.F.+.H , ",
", H +.F.Z.n.n.n.n.n.n.n.n.n.n.n.n.n.n.n.n.n.n.n.n.n.n.n.n.n.n.n.n.n.n.n.n.n.n.n.n.n.n.n.n.n.n.n.n.n.n.n.n.n.n.n.n.n.n.n.n.n.n.n.n.n.n.n.n.Z.F.+.H , ",
", J +.F.Z.n.n.n.n.n.n.n.n.n.n.n.n.n.n.n.n.n.n.n.n.n.n.n.n.n.n.n.n.n.n.n.n.n.n.n.n.n.n.n.n.n.n.n.n.n.n.n.n.n.n.n.n.n.n.n.n.n.n.n.n.n.n.n.n.Z.F.%.H , ",
", J +.F.Z.n.n.n.n.n.n.n.n.n.n.n.n.n.n.n.n.n.n.n.n.n.n.n.n.n.n.n.n.n.n.n.n.n.n.n.n.n.n.n.n.n.n.n.n.n.n.n.n.n.n.n.n.n.n.n.n.n.n.n.n.n.n.n.n.Z.F.%.H , ",
", J %.F.Z.n.n.n.n.n.n.n.n.n.n.n.n.n.n.n.n.n.n.n.n.n.n.n.n.n.n.n.n.n.n.n.n.n.n.n.n.n.n.n.n.n.n.n.n.n.n.n.n.n.n.n.n.n.n.n.n.n.n.n.n.n.n.n.n.Z.F.%.H , ",
", J +.F.Z.n.n.n.n.n.n.n.n.n.n.n.n.n.n.n.n.n.n.n.n.n.n.n.n.n.n.n.n.n.n.n.n.n.n.n.n.n.n.n.n.n.n.n.n.n.n.n.n.n.n.n.n.n.n.n.n.n.n.n.n.n.n.n.n.Z.F.%.H , ",
", J %.F.Z.n.n.n.n.n.n.n.n.n.n.n.n.n.n.n.n.n.n.n.n.n.n.n.n.n.n.n.n.n.n.n.n.n.n.n.n.n.n.n.n.n.n.n.n.n.n.n.n.n.n.n.n.n.n.n.n.n.n.n.n.n.n.n.n.Z.F.%.H , ",
", J %.F.Z.n.n.n.n.n.n.n.n.n.n.n.n.n.n.n.n.n.n.n.n.n.n.n.n.n.n.n.n.n.n.n.n.n.n.n.n.n.n.n.n.n.n.n.n.n.n.n.n.n.n.n.n.n.n.n.n.n.n.n.n.n.n.n.n.Z.F.%.H , ",
", J %.F.Z.n.n.n.n.n.n.n.n.n.n.n.n.n.n.n.n.n.n.n.n.n.n.n.n.n.n.n.n.n.n.n.n.n.n.n.n.n.n.n.n.n.n.n.n.n.n.n.n.n.n.n.n.n.n.n.n.n.n.n.n.n.n.n.n.Z.F.%.H , ",
", J %.F.Z.n.n.n.n.n.n.n.n.n.n.n.n.n.n.n.n.n.n.n.n.n.n.n.n.n.n.n.n.n.n.n.n.n.n.n.n.n.n.n.n.n.n.n.n.n.n.n.n.n.n.n.n.n.n.m.Z.Z.Z.Z.Z.Z.m.n.n.Z.F.%.H , ",
", J +.F.Z.n.n.n.n.n.n.n.n.n.n.n.n.n.n.n.n.n.n.n.n.n.n.n.n.n.n.n.n.n.n.n.n.n.n.n.n.n.n.n.n.n.n.n.n.n.n.n.n.n.n.n.n.n.n.m.Z.F.F.F.F.Z.m.n.n.Z.F.%.J , ",
", J +.F.Z.n.n.n.n.n.n.n.n.n.n.n.n.n.n.n.n.m.Z.Z.Z.Z.Z.Z.m.n.n.n.n.n.n.n.n.n.n.n.n.n.n.n.n.m.Z.Z.Z.Z.Z.Z.m.n.n.n.n.m.m.g.7.+.=.=.+.7.g.m.m.Z.F.%.J , ",
", J +.F.Z.n.n.n.n.n.n.n.n.n.n.n.n.n.n.n.n.m.Z.F.F.F.F.Z.m.n.n.n.n.n.n.n.n.n.n.n.n.n.n.n.n.m.Z.F.F.F.F.Z.m.n.n.n.n.Z.Z.7.T m S S m T 7.Z.Z.Z.F.%.J , ",
", H +.F.Z.n.n.n.n.n.n.n.n.n.n.n.n.n.n.m.m.g.7.+.=.=.+.7.g.m.m.n.n.n.n.n.n.n.n.n.n.n.n.m.m.g.7.+.=.=.+.7.g.m.m.n.n.Z.K.9.! s 8 8 s W 9.K.Z.Z.F.+.J , ",
", J +.F.Z.n.n.n.n.n.n.n.n.n.n.n.n.n.n.Z.Z.7.T m S S m T 7.Z.Z.n.n.n.n.n.n.n.n.n.n.n.n.Z.Z.7.R B S S m T 7.Z.Z.n.n.Z.F.x.y.] g g ] y.x.F.Z.Z.F.+.J , ",
", J +.F.Z.n.n.n.n.n.n.n.n.n.n.n.n.m.Z.K.K.9.W i 8 8 i W 9.K.K.Z.m.n.n.n.n.n.n.n.n.m.Z.K.K.9.W i 8 8 i W 9.K.K.Z.Z.g.8.,.5.| c c  .5.,.9.g.F.K.%.J , ",
", J %.F.Z.n.n.n.n.n.n.n.n.n.n.n.n.m.Z.K.K.l.9.` s s ` 9.l.K.K.Z.m.n.n.n.n.n.n.n.n.m.Z.K.K.l.9.` s s ` 9.l.K.K.K.F.8.W H P b u u b P H W 9.K.K.%.J , ",
", J +.F.Z.n.n.n.n.n.n.n.n.n.n.m.m.g.9.=.%.y.v.4.H H 4.v.y.%.=.9.g.m.m.n.n.n.n.m.m.g.9.=.%.y.v.4.H H 4.v.y.%.=.e.l.=.C o # < 3 3 < # o B =.P.P.%.J , ",
", J %.F.Z.n.n.n.n.n.n.n.n.n.n.Z.Z.8.W B B _ f.5.P P 5.f._ B B W 8.Z.Z.n.n.n.n.Z.Z.9.W B B _ f.5.P P 5.f._ B B ~ y.,.S o , 3 3 3 3 * o B %.P.P.%.H , ",
", J %.F.Z.n.n.n.n.n.n.n.n.n.n.Z.F.=.S o o c { { c c { { c o o S =.F.Z.n.n.n.n.Z.F.=.S o o c { { c c { { c o o J 3.y.( j w 3 3 3 3 w j ! 9.K.K.+.H , ",
", J %.F.Z.n.n.n.n.n.n.n.n.n.n.Z.F.=.H # , w j j u u j j w , * H =.F.Z.n.n.n.n.Z.F.=.H # , w j j u u j j w , * H ;.c.a.{ v < 3 3 < v { t.l.F.F.+.H , ",
", J %.F.Z.n.n.n.n.n.n.n.n.n.n.Z.F.=.H # , r v v u u v v r , * H =.F.Z.n.n.n.n.Z.F.=.H # , r v v u u v v w , * H =.T.T.3.J * , , * J 3.P.F.Z.F.%.H , ",
", J +.F.Z.n.n.n.n.n.n.n.n.n.n.Z.F.=.S o o v X. .v v  .X.v o o S =.F.Z.n.n.n.n.Z.F.=.S o o v X. .v v  .X.v o o S =.T.T.,.S # * * # S ,.K.Z.Z.F.%.H , ",
", J +.F.Z.n.n.n.n.n.n.n.n.n.n.Z.Z.9.W C C Y O.X.v v X.O.Y C B W 9.Z.Z.n.n.n.n.Z.Z.9.W C C Y O.X.v v X.O.Y C C W 9.K.K.9.W S P P P ~ 9.Z.Z.Z.F.%.H , ",
", J +.F.Z.n.n.n.n.n.n.n.n.n.n.m.m.g.9.;.,.o.Y v r r v Y o.,.;.8.g.m.m.n.n.n.n.m.m.g.9.;.,.o.Y v r w v Y o.,.;.9.g.Z.Z.g.9.;.3.4.4.t.g.m.n.Z.F.+.H , ",
", H +.F.Z.n.n.n.n.n.n.n.n.n.n.n.n.m.Z.P.T.,.H * , , * H ,.T.P.Z.m.n.n.n.n.n.n.n.n.m.Z.P.T.,.H * , , # S ,.T.P.Z.m.n.n.Z.F.l.y.3.3.t.g.m.n.Z.F.+.H , ",
", J +.F.Z.n.n.n.n.n.n.n.n.n.n.n.n.m.Z.K.P.,.H , < < , H ,.P.K.Z.m.n.n.n.n.n.n.n.n.m.Z.K.P.,.H , < < , H ,.P.K.Z.m.n.n.Z.K.9.~ S S ~ 9.Z.Z.Z.F.%.H , ",
", J +.F.Z.n.n.n.n.n.n.n.n.n.n.n.n.n.n.Z.F.=.H * , , * H =.F.Z.n.n.n.n.n.n.n.n.n.n.n.n.Z.F.=.H * , , * H =.F.Z.n.n.n.n.Z.K.,.S X X B =.F.Z.Z.F.%.H , ",
", J %.F.Z.n.n.n.n.n.n.n.n.n.n.n.n.n.n.Z.F.=.S # * * # S =.F.Z.n.n.n.n.n.n.n.n.n.n.n.n.Z.F.=.S # * * # S =.F.Z.n.n.n.n.F.P.3.P o X B =.F.Z.Z.F.%.H , ",
", J +.F.Z.n.n.n.n.n.n.n.n.n.n.n.n.n.n.Z.Z.8.W S H H S W 8.Z.Z.n.n.n.n.n.n.n.n.n.n.n.n.Z.Z.8.W S H H S W 8.Z.Z.n.n.m.Z.l.t.] j 8 s ! 9.Z.Z.Z.F.%.H , ",
", J %.F.Z.n.n.n.n.n.n.n.n.n.n.n.n.n.n.m.m.g.8.=.=.=.=.9.g.m.m.n.n.n.n.n.n.n.n.n.n.n.n.m.m.g.8.=.=.=.=.8.g.m.m.n.n.Z.P.t.~ s 6 g ] t.l.m.m.Z.F.%.H , ",
", J %.F.Z.n.n.n.n.n.n.n.n.n.n.n.n.n.n.n.n.m.Z.F.F.F.F.Z.m.n.n.n.n.n.n.n.n.n.n.n.n.n.n.n.n.m.Z.F.F.F.F.Z.m.n.n.m.m.l.t.] g 6 h _ s.T.K.Z.m.Z.F.+.H , ",
", J %.F.Z.n.n.n.n.n.n.n.n.n.n.n.n.n.n.n.n.m.Z.Z.Z.Z.Z.Z.m.n.n.n.n.n.n.n.n.n.n.n.n.n.n.n.n.m.Z.Z.Z.Z.Z.Z.m.n.n.Z.Z.9.! s 8 j | d.v.P.K.Z.m.Z.F.+.H , ",
", J %.F.Z.n.n.n.n.n.n.n.n.n.n.n.n.n.n.n.n.n.n.n.n.n.n.n.n.n.n.n.n.n.n.n.n.n.n.n.n.n.n.n.n.n.n.n.n.n.n.n.n.n.n.Z.F.=.B X # c | 4.;.+.+.7.g.A.F.+.H , ",
", J +.F.Z.n.n.n.n.n.n.n.n.n.n.n.n.n.n.n.n.n.n.n.n.n.n.n.n.n.n.n.n.n.n.n.n.n.n.n.n.n.n.n.n.n.n.n.n.n.n.n.n.n.n.Z.F.=.B o # 0 c J S m n T 7.K.K.%.J , ",
", P ;.K.Z.n.n.n.n.n.n.n.n.n.n.n.n.n.n.n.n.n.n.n.n.n.n.n.n.n.n.n.n.n.n.n.n.n.n.n.n.n.n.n.n.n.n.n.n.n.n.n.n.n.n.Z.Z.9.W S H J S C C m n T 7.P.T.;.P , ",
", P ,.P.A.n.n.n.n.n.n.n.n.n.n.n.n.n.n.n.n.n.n.n.n.n.n.n.n.n.n.n.n.n.n.n.n.n.n.n.n.n.n.n.n.n.n.n.n.n.n.n.n.n.n.m.m.g.8.=.=.=.%.+.+.+.+.7.g.K.T.,.P , ",
", c ' t.l.A.Z.Z.Z.Z.Z.Z.Z.Z.Z.Z.Z.Z.Z.Z.Z.Z.Z.Z.Z.Z.Z.Z.Z.Z.Z.Z.Z.Z.Z.Z.Z.Z.Z.Z.Z.Z.Z.Z.Z.Z.Z.Z.Z.Z.Z.Z.Z.Z.Z.Z.Z.A.K.P.P.P.P.P.P.P.P.P.F.l.t.' c , ",
"3 w h ~ t.P.K.F.F.F.F.F.F.F.F.F.F.F.F.F.F.F.F.F.F.F.F.F.F.F.F.F.F.F.F.F.F.F.F.F.F.F.F.F.F.F.F.F.F.F.F.F.F.F.F.F.F.F.K.P.P.P.P.P.P.P.P.T.T.t.~ h w 3 ",
"5 , * h ' ,.;.%.+.+.+.+.%.%.%.%.+.+.+.+.+.%.%.%.%.%.%.+.+.+.%.%.%.%.%.+.+.+.%.%.+.+.+.+.%.%.%.%.+.+.+.+.+.%.%.%.%.%.%.%.+.+.%.%.%.%.%.;.,.' h * , 5 ",
"    , w c P P J H J J J J J J J J J J J H H J J J J J J H J J J J J J J H J J J H J J J J J J J J J J J H H J J J J J J H J J J J J J P P c w ,     ",
"    5 3 , , , , , , , , , , , , , , , , , , , , , , , , , , , , , , , , , , , , , , , , , , , , , , , , , , , , , , , , , , , , , , , , , , 3 5     "
};
