/* XPM */
static char *clubs_j[] = {
/* columns rows colors chars-per-pixel */
"74 104 202 2 ",
"   c None",
".  c #1D002B",
"X  c #1B0333",
"o  c #21012E",
"O  c #2C012C",
"+  c #2D0B2D",
"@  c #240632",
"#  c #270833",
"$  c #2B0C37",
"%  c #2E123B",
"&  c #32143C",
"*  c #321031",
"=  c #320631",
"-  c #49042C",
";  c #45012A",
":  c #55032A",
">  c #58052B",
",  c #550A2F",
"<  c #5B092E",
"1  c #520026",
"2  c #451E28",
"3  c #4B0830",
"4  c #581333",
"5  c #770427",
"6  c #7B1E22",
"7  c #4D2225",
"8  c #4A232C",
"9  c #48232B",
"0  c #512625",
"q  c #552A27",
"w  c #552C2B",
"e  c #55262A",
"r  c #542F32",
"t  c #762426",
"y  c #7B4928",
"u  c #462B4D",
"i  c #462B4D",
"p  c #552F4F",
"a  c #452C51",
"s  c #492E50",
"d  c #4C3253",
"f  c #493456",
"g  c #513656",
"h  c #543C5A",
"j  c #583F5D",
"k  c #553A53",
"l  c #54364D",
"z  c #6C2E4C",
"x  c #7F304B",
"c  c #763853",
"v  c #722F4D",
"b  c #553F60",
"n  c #54415E",
"m  c #59415E",
"M  c #4D405F",
"N  c #6A4B4B",
"B  c #7A5549",
"V  c #7B5B59",
"C  c #7B5955",
"Z  c #7D425B",
"A  c #554161",
"S  c #594461",
"D  c #6C5B74",
"F  c #7B667B",
"G  c #7E6B7D",
"H  c #810627",
"J  c #9D0725",
"K  c #A80925",
"L  c #A9132E",
"P  c #AC1731",
"I  c #812527",
"U  c #D9061E",
"Y  c #CE0A1F",
"T  c #FF0619",
"R  c #FF0A1D",
"E  c #F70A1E",
"W  c #F7291E",
"Q  c #FD351D",
"!  c #CB0B24",
"~  c #C70A23",
"^  c #DA0A21",
"/  c #D60A22",
"(  c #D81627",
")  c #FF0E21",
"_  c #F60C21",
"`  c #FF1320",
"'  c #FF1B2B",
"]  c #C82922",
"[  c #D5301D",
"{  c #975D1D",
"}  c #99601F",
"|  c #BA7614",
" . c #BD7915",
".. c #BD7A19",
"X. c #9D6724",
"o. c #A36725",
"O. c #A65F1D",
"+. c #F9471C",
"@. c #C6641C",
"#. c #D1631B",
"$. c #C17E19",
"%. c #CC7F16",
"&. c #F56A19",
"*. c #C83749",
"=. c #F93743",
"-. c #82455D",
";. c #806D7F",
":. c #D84654",
">. c #FF454F",
",. c #FE4A53",
"<. c #FE4751",
"1. c #FF7578",
"2. c #F2676E",
"3. c #BD852D",
"4. c #C38119",
"5. c #C88215",
"6. c #EC9C0C",
"7. c #F48417",
"8. c #FD8616",
"9. c #EE950E",
"0. c #EFA00E",
"q. c #F6A40B",
"w. c #F8A80F",
"e. c #EFA112",
"r. c #EFA61E",
"t. c #F3A412",
"y. c #F6A815",
"u. c #CA8E30",
"i. c #F2B137",
"p. c #EAAB38",
"a. c #BE8940",
"s. c #CA984C",
"d. c #CB9748",
"f. c #F2B644",
"g. c #F6BA46",
"h. c #F8BB46",
"j. c #F4C76D",
"k. c #F6C970",
"l. c #7B6D81",
"z. c #7D7082",
"x. c #816F80",
"c. c #827082",
"v. c #9B8C96",
"b. c #9B8D99",
"n. c #978793",
"m. c #9E919B",
"M. c #A48B96",
"N. c #A88E97",
"B. c #A0929B",
"V. c #A69699",
"C. c #A59CA4",
"Z. c #BFB9B9",
"A. c #C49196",
"S. c #D59194",
"D. c #D48E92",
"F. c #C2AB92",
"G. c #CEB491",
"H. c #C1B7B7",
"J. c #C2B8B7",
"K. c #C4BBBB",
"L. c #C9BFBC",
"P. c #D3B1B1",
"I. c #F4A8A4",
"U. c #F4D089",
"Y. c #EAC98C",
"T. c #CCC1BC",
"R. c #C8C0BC",
"E. c #D2C4BA",
"W. c #FCC2BA",
"Q. c #F1C1BA",
"!. c #E8D6B4",
"~. c #EAD8B5",
"^. c #F1CDB6",
"/. c #F6E1B2",
"(. c #F7E4B8",
"). c #C2BFC0",
"_. c #BFC0C1",
"`. c #CCC4C1",
"'. c #CAC6C3",
"]. c #D2CAC5",
"[. c #D3CDC8",
"{. c #D0C7C3",
"}. c #D4D0CB",
"|. c #FFD4C8",
" X c #FCCCC2",
".X c #F8E9C2",
"XX c #EAE5DA",
"oX c #EDEADD",
"OX c #F3EEDD",
"+X c #FAE8DB",
"@X c #FBF5DD",
"#X c #F6F3E4",
"$X c #F9F6E7",
"%X c #F6F5E9",
"&X c #F9F7E8",
"*X c #FBF8E8",
"=X c #FAFAEA",
"-X c #FDFAEA",
";X c #FEFCEB",
":X c #FBF9E9",
">X c #FFFFF2",
",X c #EFEDE0",
/* pixels */
"    # @ o o o o o o o o o o o o o o o o o o o o o o o o o o o o o o o o o o o o o o o o o o o o o o o o o o o o o o o o o o o o o o o o o o @ #     ",
"    o & d m m j j j j j j j j j j j j j j j j j j j j j j j j j j j j j j j j j j j j j j j j j j j j j m m j j j j j j j j j j j j j m m d & o     ",
"# o . s v.K.K.J.J.J.J.J.J.J.J.J.J.J.J.J.J.J.J.J.J.J.J.J.J.J.J.J.J.J.J.J.J.J.J.J.J.J.J.J.J.J.J.J.J.J.J.J.J.J.J.J.J.J.J.J.J.J.J.J.J.J.J.K.K.v.s . o # ",
"@ & s x.[.;X-X*X*X*X*X-X-X;X;X-X-X*X*X*X*X*X*X*X*X*X*X*X*X*X*X*X*X*X*X*X*X*X*X*X*X*X*X*X*X*X*X*X*X*X*X*X*X*X*X*X*X*X*X*X*X*X*X*X*X*X*X-X;X[.x.s & @ ",
"o d v.[.oX*X$X$X$X$X$X*X-X;X;X-X*X$X$X$X$X$X$X$X$X$X$X$X$X$X$X$X$X$X$X$X$X$X$X$X$X$X$X$X$X$X$X$X$X$X$X$X$X$X$X$X$X$X$X$X$X$X$X$X$X$X$X$X*XoX[.v.d o ",
"o m K.;X*X#X#X#X#X#X#XXX{.J.J.{.XX$X$X$X$X$X$X$X$X$X$X$X$X$X$X$X$X$X$X$X$X$X$X$X$X$X$X$X$X$X$X$X$X$X$X$X#X#X#X#X$X$X#X#X$X$X$X$X#X#X#X#X#X*X;XK.m o ",
"o m K.-X$X#X#X#X#X$X$X{.G h h G {.*X-X*X*X*X*X*X*X*X*X*X*X*X*X*X*X*X*X*X*X*X*X*X*X*X*X*X*X*X*X*X*X*X*X$X#X#X#X#X$X$X#X#X$X*X*X$X#X#X#X#X#X$X-XK.m o ",
"o j J.*X$X#X#X#X#X$X*XJ.h . . h K.oX{.H.H.H.H.H.H.H.H.H.H.H.H.H.H.H.H.H.H.H.H.H.H.H.H.H.H.H.H.H.H.H.H.`.XX$X*XXX{.{.XXXX`.H.H.{.XX#X#X#X#X$X*XJ.j o ",
"o j J.*X$X#X#X#X#X$X*XJ.j . . m L.[.G g g h h h h h h h h h h h h h h h h h h h h h h h h h h h h h g F `.-X;X{.G G {.{.G d g G {.$X$X#X#X$X*XJ.j o ",
"o j J.*X$X#X#X#X#X$X*XK.m . . S L.[.G g g h h h h h h h h h h h h h j j j j j j j j j j h h h h h h g G {.OX[.v.u h K.[.G u # h J.*X$X#X#X$X*XJ.j o ",
"o j J.*X$X#X#X#X#X$X*XK.m . . m K.oX{.H.H.H.H.H.H.H.H.H.H.H.H.H.H.J.K.K.K.K.K.K.K.K.K.K.J.H.H.H.H.H.H.{.oX{.x.i $ h K.OX[.n.i h H.*X$X#X#X$X*XJ.j o ",
"o j J.*X$X#X$X$X$X-X;XK.m . . m K.-X-X*X*X*X*X*X*X*X*X-X;X;X;X;X;X,X[.L.K.E.Q.W.W.Q.L.[.,X;X-X*X*X*X*X-X-XJ.h . . m K.;X;XK.h h H.*X$X#X#X$X*XJ.j o ",
"o j J.*X$X#X$X*X*X;X;XL.m . . m K.-X*X$X$X$X$X$X$X*X*X-X;X;X;X;X;X[.z.n n -.:.,.,.:.Z z.}.;X-X$X$X$X$X*X-XJ.j . . m K.;X;XK.h h H.*X$X#X#X$X*XJ.j o ",
"o j J.-X*XXX`.H.H.K.K.v.d . . j J.*X$X#X#X#X#X#X$X+X XQ.L.Z.Z.L.Q.D.x 1 1 5 K ^ E U 5 z N.].oX#X#X#X#X$X*XK.m . . m K.;X;XH.h h H.*X$X#X#X$X*XJ.j o ",
"o j J.-X-X`.F g g h h s % . . h J.*X$X#X#X#X#X#X*X X1.:.Z M M Z :.=.( ! ! K 5 H / E / L z G {.$X$X#X#X$X*XK.m . . m K.;X;XH.h h H.*X$X#X#X$X*XJ.j o ",
"o j J.-X-X`.F g h j j m m m h G {.$X$X#X#X#X#XXX].D.=.U H : : 5 K / _ ` ) ! , , ~ ) ` ! 1 g Z.*X$X#X#X$X*XJ.j . . j J.;X;XH.h h H.*X$X#X#X$X*XJ.j o ",
"o j J.-X*XXX`.H.K.K.K.L.L.L.K.{.XX#X#X#X#X$X$X{.l.x ( E / ! ! K 5 H ^ ) ` ! , , ~ ` ` ! 1 g Z.*X$X#X#X$X*XJ.j . . j J.;X;XH.h h H.*X$X#X#X$X*XJ.j o ",
"o j J.*X$X$X*XoX[.L.L.L.L.[.oX*X$X#X#X#X#X$X*XJ.h 1 ! ) ) ) ` ! , , ! ) ` ! , , ! _ ^ L z l.{.$X$X#X#X$X*XE.V 0 0 V E.-X-XH.h h H.*X$X#X#X$X*XJ.j o ",
"o j J.*X$X$X-X{.x.m m m m x.].-X$X#X#X#X#X$X*XJ.h : ! ` ) ) ) ! , , ! ) ` ! , < ! ^ H z N.].oX#X#X#X#X#X&X!.s. . .s.!.=X-XH.h h H.*X$X#X#X$X*XJ.j o ",
"o j J.*X$X$X-XK.h . . . . h K.-X*X#X#X#X#X$X*XJ.h ; J ! ! ! ! K 3 3 J ! ! J - - K P v l.[.;X$X#X#X#X#X#X%X/.g.q.q.g./.=X*XH.h h H.*X$X#X#X$X*XJ.j o ",
"o j J.*X$X*X;XL.j . o o . m L.;X*X#X#X#X#X$X*XJ.h O ; > < < < 3 = = - > > - O O - v N.[.oX$X#X#X#X#X#X#X%X/.g.q.q.g./.*X*XH.h h H.*X$X#X#X$X*XJ.j o ",
"o j J.-X*XoX[.b.d @ @ @ @ d b.[.oX#X#X#X#X$X$X{.G j n f % X X + 8 r k A n n m s $ h L.;X*X#X#X#X#X#X#X#X%X!.s.| | s.!.*X-XH.h h H.*X$X#X#X$X*XJ.j o ",
"o j J.-X-X{.;.s & @ @ @ @ & s ;.{.$X$X#X#X#X#XXX{.L.).m.f X X 9 { u.F.K.K.L.L.v.a h J.;X$X#X#X#X#X#X#X$X*XT.V 7 7 V T.-X;XH.h h H.*X$X#X#X$X*XJ.j o ",
"o j J.;X;XJ.h . o @ @ @ @ o . h J.*X$X#X#X#X#X#X*X@X.XG.C e e y u.k..X=X*X;X;XE.C C T.*X&X#X#X#X#X#X#X$X*XT.V 7 7 V T.-X;XH.h h H.*X$X#X#X$X*XJ.j o ",
"o j J.;X;XJ.h . . @ @ @ @ . . h J.*X$X#X#X#X#X#X&X.Xk.p.4.....u.Y..X@X*X&X*X=X!.d.d.!.%X%X#X#X#X#X#X#X#X%X!.s.| | s.!.*X-XH.h h H.*X$X#X#X$X*XJ.j o ",
"o j J.-X-X{.G j m d & & d m j G {.$X$X#X#X#X#X%X%X/.f.0.t.y.q.g./.%X%X#X#X%X%X/.f.i.U..XOX#X#X#X#X#X#X#X%X/.g.q.q.g./.=X*XH.h h H.*X$X#X#X$X*XJ.j o ",
"o j J.-X*XXX{.K.T.B.d d B.T.K.{.XX#X#X#X#X#X#X%X%X/.f.0.t.t.q.f./.%X%X#X#X#X%X/.f.y.i.j.(.%X#X#X#X#X#X#X%X/.g.q.q.g./.=X=XH.h h H.*X$X#X#X$X*XJ.j o ",
"o j J.*X$X$X*XOX[.v.i i v.[.OX*X$X#X#X#X#X#X#XOX.XU.i.e.e.e.e.f./.*X%X#X#X#X%X/.f.q.6.f./.%X%X#X#X#X#X#X%X!.s.| | s.!.*X-XH.h h H.*X$X#X#X$X*XJ.j o ",
"o j J.*X$X$X-X{.;.i $ $ i ;.{.-X$X#X#X#X#X#X%X(.j.i.r.e.e.e.0.f.(.=X%X#X#X#X%X/.g.q.0.f./.%X%X#X#X#X#X$X*XT.V 7 7 V T.-X-XH.h h H.*X$X#X#X$X*XJ.j o ",
"o j J.*X$X$X$X`.F h m m h F `.$X$X#X#X#X#X%X*X/.f.6.e.e.e.t.t.p.G.[.oX*X$X*X*X~.s.5.9.i.U..XOX#X#X#X#X$X*XT.V 7 7 V T.-X-XH.h h H.*X$X#X#X$X*XJ.j o ",
"o j J.*X$X#X#XXX`.J.K.K.J.`.XX#X#X#X#X#X#X%X=X(.f.6.e.e.e.t.t.4.B l.[.;X-X;X;XE.V y 5.r.i.j.(.%X#X#X#X#X&X!.s.| | s.!.*X-XH.h h H.*X$X#X#X$X*XJ.j o ",
"o j J.*X$X#X#X$X*XoX[.[.oX*X$X#X#X#X#X$X$XoX'.G.p.t.t.t.t.y.y...0 a v.K.J.J.K.v.a e ..w.q.f./.%X#X#X#X#X%X/.g.q.q.g./.=X*XH.h h H.*X$X#X#X$X*XJ.j o ",
"o j J.*X$X#X#X$X-X{.G G {.-X$X#X#X#X#X$X-X{.F B 4.y.y.y.t.y.y.$.q $ a h h h h s % q $.w.w.f./.%X#X#X#X#X%X/.g.q.q.g./.*X*XH.h h H.*X$X#X#X$X*XJ.j o ",
"o j J.*X$X#X#X$X*XH.g g H.*X$X#X#X$X$XoX].C.D N o. ...........{ 8 % s m j j m d % 8 {  . .d.~.*X&X#X#X#X&X!.s.| | s.!.*X-XH.h h H.*X$X#X#X$X*XJ.j o ",
"o j J.*X$X#X#X$X*XH.g g H.*X$X#X#X$X;X{.G D C.V.N 0 0 q 0 q q 2 + d m.T.L.L.T.m.d + 2 0 7 C E.;X&X#X#X$X*XT.V 7 7 V T.-X-XH.h h H.*X$X#X#X$X*XJ.j o ",
"o j J.*X$X#X#X$X*XH.h h H.*X$X#X$XoX[.M.z x S.P.F h b A A A b s % d m.`.`.`.`.m.d % s h b D C.].oX$X#X$X*XT.V 7 7 V T.-X-XH.h h H.*X$X#X#X$X*XJ.j o ",
"o j J.*X$X#X#X$X*XH.h h H.*X$X$X-X[.l.z L ( =.2.P._.).K.K.).L.b.d & d S S S S d % d b.L.'.C.D G {.;X$X#X%X!.s.| | s.!.*X-XH.h h H.*X$X#X#X$X*XJ.j o ",
"o j J.*X$X#X#X$X*XH.h h H.-X-XoX[.M.z 5 / R T =.I.W.W.W.W.|.#XL.S + 2 2 + + 2 2 + S L.$X|.D.x z M.[.oX*X=X(.g.q.q.g.(.=X-XH.h h H.*X$X#X#X$X*XJ.j o ",
"o j J.*X$X#X#X$X*XH.h h H.;X;X[.l.z L ^ _ ) R ' =.,.,.<.>.1.|.L.A 8 { { 2 2 { { 2 A L.|.1.=.( L z l.[.;X;X(.g.q.q.h.(.;X-XH.h h H.*X$X#X#X$X*XJ.j o ",
"o j J.*X$X#X#X$X*XH.h h K.#X}.V.N t [ Q Q W ` R R R R T T >.W.K.A q 4.4.w w 4.$.q A K.W.>.T R / 5 z N.L.L.F.a.| | a.F.[.,XJ.h h H.*X$X#X#X$X*XJ.j o ",
"o j J.*X$X#X#X$X*XH.h m L.}.l.N X.%.7.7.7.&.W ) R R R R T <.W.K.A q $.$.w w 4.$.q A K.W.<.T R _ / P v b A k r 0 0 r l c.[.K.j h H.*X$X#X#X$X*XJ.j o ",
"o j J.*X$X#X#X$X*XJ.h d m.N.v 6 #.8.7.7.7.&.+.W ` ) ) R R ,.W.K.A q $.$.w w $.$.q A K.W.,.R R ) ) ( t 2 + % s b b a $ j L.K.j h H.*X$X#X#X$X*XJ.j o ",
"o j J.*X$X#X#X$X*XJ.m % a v P ( W Q Q Q Q +.&.&.W ) ) R R ,.W.K.A q $.$.w w $.$.q A K.W.,.R R ) ) W #.{ 2 s v.L.L.v.i h K.K.j h H.*X$X#X#X$X*XJ.j o ",
"o j J.*X$X#X#X$X*XJ.m O ; H ^ ) ) ) ) ) ) Q 7.7.Q ) ) R R ,.W.K.A q $.4.w w 4.$.q A `.W.,.R R ) ) Q 8.4.q b L.>X>XL.h j L.L.j h H.*X$X#X#X$X*XJ.j o ",
"o j J.*X$X#X#X$X*XJ.n ; J / _ ) ) ) ) ) ) Q 7.7.Q ) ) R R ,.W.K.A q 4.4.w w 4.4.q A '.W.,.R R ) ) Q 8.4.q b L.>X>XL.h m T.T.m h H.*X$X#X#X$X*XJ.j o ",
"o j J.*X$X#X#X$X*XJ.n > ! ` ) ) ) ) ) ) ) Q 7.7.Q ) ) R R ,.W.'.A 8 } } 8 8 } } 8 d b.A.*.~ ~ ! ~ ] @.} 8 d b.T.T.v.i s b.b.s h J.*X$X#X#X$X*XJ.j o ",
"o j J.*X$X#X#X$X*XJ.n > ! ) ) ) ) ) ) ) ) Q 7.7.Q ) ) R R ,.W.'.S + 8 8 * * 8 8 * & d p 4 : : : : , e 8 * & d m m d % % s i % j J.*X$X#X#X$X*XJ.j o ",
"o j J.*X$X#X#X$X*XJ.n ; J ! ! ! ! ! ! ! ! ] @.@.] ! ! ~ ~ *.A.m.d o @ @ @ @ @ @ @ & d m S S S S S f % @ @ @ @ o o & d S m s % j J.*X$X#X#X$X*XJ.j o ",
"o j J.*X$X#X#X$X*XJ.m O ; : : : : < < < < 4 e e 4 < > : : 4 p s % o @ @ # # @ @ @ d m.T.T.R.R.'.`.m.d @ @ # @ o o d B.`.`.b.s h J.*X$X#X#X$X*XJ.j o ",
"o j J.*X$X#X#X$X*XJ.j % d S S S S f % @ @ @ @ @ @ % f S S A n m S g & @ @ # # @ @ d m.T.L.K.K.L.T.B.d @ @ # # @ o d m.`.`.b.s h J.*X$X#X#X$X*XJ.j o ",
"o j J.*X$X#X#X$X*XJ.h s m.`.`.`.`.m.f @ @ # @ @ @ f m.`.`.L.K.T.`.B.d @ @ # # @ @ & d m j j j j m d & @ @ # # @ o % d m m s % j J.*X$X#X#X$X*XJ.j o ",
"o j J.*X$X#X#X$X*XJ.h s b.T.L.T.`.B.d @ @ # # @ @ d m.T.L.K.K.L.T.B.d @ @ # # @ @ & d m j j j j m d & @ @ @ @ & g S m j m s % j K.*X$X#X#X$X*XJ.j o ",
"o j J.*X$X#X#X$X*XK.j % s m j m S g & @ @ # # @ @ & d m m j j j m d & @ @ # # @ @ d m.T.L.K.K.L.T.m.d @ @ @ @ d B.`.T.L.T.b.s h J.*X$X#X#X$X*XJ.j o ",
"o j J.*X$X#X#X$X*XK.j % s m m d % o @ # # # # @ @ & d m j j j j m d & @ @ # # @ @ d m.T.T.R.R.`.`.m.d @ @ @ @ f m.`.`.`.`.m.s h J.*X$X#X#X$X*XJ.j o ",
"o j J.*X$X#X#X$X*XJ.h s b.`.`.m.d o @ # # # # @ @ d m.T.L.K.K.L.T.B.d @ @ # @ @ @ % d m S S S S S f % @ @ @ @ % f S S S S d % j J.*X$X#X#X$X*XJ.j o ",
"o j J.*X$X#X#X$X*XJ.h s b.`.`.B.d o o @ @ @ @ @ @ f m.`.`.L.K.T.`.B.d @ @ = 3 < < 4 g p 4 : : : : , e e 4 < < < > : : : : ; O m J.*X$X#X#X$X*XJ.j o ",
"o j J.*X$X#X#X$X*XJ.j % s m S d & o o @ @ @ @ @ @ % f S S A n m S d & @ @ 3 K ! ! *.A.A.*.~ ~ ! ~ ] @.@.] ! ! ! ! ~ ! ! ! J ; n J.*X$X#X#X$X*XJ.j o ",
"o j J.*X$X#X#X$X*XJ.m % s s % % d S S d & * 8 e 4 < > : : 4 p p 4 - = X X < ! R R ,.W.W.,.R R ) ) Q 7.7.Q ) ) ) ) ) ) ` ` ! > n J.*X$X#X#X$X*XJ.j o ",
"o j J.*X$X#X#X$X*XJ.h s b.b.s i v.T.T.b.d 8 } @.] ! ! ~ ~ *.A.A.*.K - X X < ! R R ,.W.W.,.R R ) ) Q 7.7.Q ) ) ) ) ) ) ` ) ! > n J.*X$X#X#X$X*XJ.j o ",
"o j J.*X$X#X#X$X*XH.h m T.T.m h L.>X>XL.b q 4.8.Q ) ) R R ,.W.W.,.^ I w w I ( R R ,.W.W.,.R R ) ) Q 7.7.Q ) ) ) ) ) ) _ / J ; n J.*X$X#X#X$X*XJ.j o ",
"o j J.*X$X#X#X$X*XH.h m L.L.j h L.>X>XL.b q 4.8.Q ) ) R R ,.W.W.,.W #.4.4.#.W R R ,.W.W.,.R R ) ) Q 7.7.Q ) ) ) ) ) ) ^ H ; O m J.*X$X#X#X$X*XJ.j o ",
"o j J.*X$X#X#X$X*XH.h j K.K.h i v.L.L.v.s 2 { #.W ) ) R R ,.W.W.<.W #.4.4.#.W R R ,.W.W.,.R R ) ) W &.&.+.Q Q Q Q W ( P v a % j J.*X$X#X#X$X*XJ.j o ",
"o j J.*X$X#X#X$X*XH.h j K.L.j $ a b b s % + 2 t ( ) ) R R ,.W.W.,.^ I w w t ( R R ,.W.W.,.R R ) ) ` W +.&.7.7.7.8.#.6 v N.m.d h J.*X$X#X#X$X*XJ.j o ",
"o j J.*X$X#X#X$X*XH.h j K.[.c.l r 0 0 r k A A v P / _ R T <.W.Q.:.K t w w t L / E ,.W.W.<.T R R R R ) W &.7.7.7.5.X.N z.}.T.m h H.*X$X#X#X$X*XJ.j o ",
"o j J.*X$X#X#X$X*XH.h h J.,X[.F.a.| | a.F.L.L.N.z 5 / R T >.W.L.Z t O.4.4.O.t H ^ ,.W.W.>.T T R R R ) ` W Q Q [ t N V.}.#XK.h h H.*X$X#X#X$X*XJ.j o ",
"o j J.*X$X#X#X$X*XH.h h H.-X;X(.h.q.q.h.(.;X;X[.l.z L ( =.1.|.K.A 2 { 5.5.{ 9 ; J :.Q.|.1.>.<.,.,.=.' R R _ ^ L z l.[.;X;XH.h h H.*X$X#X#X$X*XJ.j o ",
"o j J.*X$X#X#X$X*XH.h h H.-X=X(.g.q.q.g.(.=X*XoX[.M.z x D.|.#XL.A + 2 q q 9 + O ; -.E.#X|.W.W.W.W.I.=.T R / 5 z M.[.oX-X-XH.h h H.*X$X#X#X$X*XJ.j o ",
"o j J.*X$X#X#X$X*XH.h h H.-X*X!.s.| | s.!.%X#X$X-X{.G D C.'.L.b.d % d S S S S d % a b.L.K.K.K.)._.P.2.=.( L z l.[.-X$X$X*XH.h h H.*X$X#X#X$X*XJ.j o ",
"o j J.*X$X#X#X$X*XH.h h H.-X-XT.V 7 7 V T.*X$X$X$XoX].C.D h j s % d m.`.`.`.`.B.d % s b A A A b h F P.S.x z M.[.oX$X$X$X*XH.h h H.*X$X#X#X$X*XJ.j o ",
"o j J.*X$X#X#X$X*XH.h h H.-X-XT.V 7 7 V T.*X$X#X#X&X;XE.C 7 0 2 + d m.T.L.L.T.m.d + 2 q q q e 0 0 N V.C.D G {.-X$X#X#X$X*XH.g g H.*X$X#X#X$X*XJ.j o ",
"o j J.*X$X#X#X$X*XH.h h H.-X=X!.s.| | s.!.%X#X#X#X%X*X~.s. . .{ 8 % s m j j m d % 8 { ............o.N D C.{.oX$X$X#X#X$X*XH.g g H.*X$X#X#X$X*XJ.j o ",
"o j J.*X$X#X#X$X*XH.h h H.*X=X/.g.q.q.g./.%X#X#X#X#X%X/.g.w.w.$.q % s h h h h s $ q $.y.y.t.y.y.y.4.B F {.-X$X#X#X#X#X$X-X{.G G {.-X$X#X#X$X*XJ.j o ",
"o j J.*X$X#X#X$X*XH.h h H.*X=X/.g.q.q.g./.%X#X#X#X#X%X/.f.q.w...e a v.K.J.J.K.v.a 0 ..y.y.t.t.t.t.p.G.'.oX$X$X#X#X#X#X$X*XoX[.[.oX*X$X#X#X$X*XJ.j o ",
"o j J.*X$X#X#X$X*XH.h h H.-X=X!.s.| | s.!.%X#X#X#X#X%X(.j.i.r.5.y V E.;X-X-X;X[.l.B 4.t.t.e.e.e.6.f.(.=X%X#X#X#X#X#X#XXX`.J.K.K.J.`.XX#X#X$X*XJ.j o ",
"o j J.*X$X#X#X$X*XH.h h H.;X-XT.V 7 7 V T.*X$X#X#X#X#XOX.XU.i.9.5.s.~.*X*X$X*XXX[.G.p.t.e.e.e.e.6.f./.*X%X#X#X#X#X$X$X`.F h m m h F `.$X$X$X*XJ.j o ",
"o j J.*X$X#X#X$X*XH.h h H.;X-XT.V 7 7 V T.*X$X#X#X#X#X%X%X/.f.0.q.g./.%X#X#X#X%X=X(.f.0.e.e.e.r.i.j.(.%X#X#X#X#X#X$X-X{.;.i $ $ i ;.{.-X$X$X*XJ.j o ",
"o j J.*X$X#X#X$X*XH.h h H.-X*X!.s.| | s.!.%X#X#X#X#X#X%X%X/.f.6.q.f./.%X%X#X#X%X&X/.f.0.e.t.e.i.U..XOX#X#X#X#X#X#X$X*XOX[.v.i i v.[.OX*X$X$X*XJ.j o ",
"o j J.*X$X#X#X$X*XH.h h H.*X=X/.g.q.q.g./.%X#X#X#X#X#X#X%X(.j.i.y.f./.%X%X#X#X%X%X/.f.q.t.q.q.f./.%X%X#X#X#X#X#X#XXX{.K.T.B.d d B.T.K.{.XX*X-XJ.j o ",
"o j J.*X$X#X#X$X*XH.h h H.*X*X/.g.q.q.g./.%X#X#X#X#X#X#X#XOX.XU.i.f./.%X%X#X#X%X%X/.g.q.y.q.0.f./.%X%X#X#X#X#X$X$X{.G j m d & & d m j G {.-X-XJ.j o ",
"o j J.*X$X#X#X$X*XH.h h H.-X*X!.s.| | s.!.%X#X#X#X#X#X#X#X%X%X!.d.d.!.*X*X&X&X@X.XY.u.....4.p.k..X&X%X#X#X#X#X$X*XJ.h . . @ @ @ @ . . h J.;X;XJ.j o ",
"o j J.*X$X#X#X$X*XH.h h H.;X-XT.V 7 7 V T.*X$X#X#X#X#X#X#X$X*XT.C C E.;X;X*X=X.Xk.u.y e e C G..X@X*X#X#X#X#X#X$X*XJ.h . o @ @ @ @ o . h J.;X;XJ.j o ",
"o j J.*X$X#X#X$X*XH.h h H.-X-XT.V 7 7 V T.*X$X#X#X#X#X#X#X$X-XJ.h a v.L.L.K.K.F.u.{ 9 X X f b.).L.{.XX#X#X#X#X$X$X{.;.s & @ @ @ @ & s ;.{.-X-XJ.j o ",
"o j J.*X$X#X#X$X*XH.h h H.-X=X!.s.| | s.!.%X#X#X#X#X#X#X#X*X;XL.h $ s m n n A k r 8 + X X % f A j G {.$X$X#X#X#X#XoX[.b.d @ @ @ @ d b.[.oX*X*XJ.j o ",
"o j J.*X$X#X#X$X*XH.h h H.*X=X/.g.q.q.g./.%X#X#X#X#X#X$X$XoX[.N.v - O O - > > - = = 3 < < < > ; O h J.*X$X#X#X#X#X*X;XL.m . o o . j L.;X*X$X*XJ.j o ",
"o j J.*X$X#X#X$X*XH.h h H.*X=X/.g.q.q.g./.%X#X#X#X#X#X$X;X[.l.v P K - - J ! ! J 3 3 K ! ! ! ! J ; h J.*X$X#X#X#X#X*X-XK.h . . . . h K.-X$X$X*XJ.j o ",
"o j J.*X$X#X#X$X*XH.h h H.-X*X!.s. . .s.!.%X#X#X#X#X#XXX].N.z H ^ ! < , ! ` ` ! , , ! ` ` ` ` ! : h J.*X$X#X#X#X#X$X-X{.x.m m m m x.{.-X$X$X*XJ.j o ",
"o j J.*X$X#X#X$X*XH.h h H.-X-XE.V 0 0 V E.*X$X#X#X$X$X{.G z L / _ ! < , ! ) ) ! , , ! ` ` ) ) ! 1 h Z.*X$X#X#X#X#X$X*XoX[.L.L.L.L.[.oX*X$X$X*XJ.j o ",
"o j J.*X$X#X#X$X*XH.h h H.;X;XJ.j . . j J.*X$X#X#X$X*XZ.g 1 ! ` ` ~ , , ! ) ` ^ H 5 K ! ! / E ( x l.{.$X$X#X#X#X#XXX{.K.L.L.K.K.K.K.H.`.XX*X-XJ.j o ",
"o j J.*X$X#X#X$X*XH.h h H.;X;XJ.j . . j J.*X$X#X#X$X*XZ.g 1 ! ` ) ~ , , ! ) ` _ / K 5 : : H U =.D.].XX#X#X#X#X$X$X{.G h m m m j j h g F `.-X-XJ.j o ",
"o j J.*X$X#X#X$X*XH.h h H.;X;XK.m . . m K.*X$X#X#X$X$X{.l.z L / E / H 5 K ! ! ( =.:.Z M M c :.1. X-X#X#X#X#X#X$X*XJ.h . . % s h h h g F `.-X-XJ.j o ",
"o j J.*X$X#X#X$X*XH.h h H.;X;XK.m . . m K.*X$X#X#X#X#XoX].N.z 5 U E U K 5 1 1 x D.Q.L.Z.Z.L.Q. X+X$X#X#X#X#X#X$X*XK.h . . d v.K.K.H.H.`.XX*X-XJ.j o ",
"o j J.*X$X#X#X$X*XH.h h J.;X;XK.m . . j J.-X*X$X$X$X$X-X;X}.z.Z :.,.,.:.-.n n z.[.;X;X;X;X;X-X*X*X$X$X$X$X$X$X*X-XK.m . . m L.;X;X*X*X$X#X$X*XJ.j o ",
"o j J.*X$X#X#X$X*XH.h h K.;X;XK.m . . h J.-X-X*X*X*X*X-X;X,X[.L.Q.W.W.Q.E.L.L.[.,X;X;X;X;X;X-X*X*X*X*X*X*X*X*X-X-XK.m . . m K.;X-X$X$X$X#X$X*XJ.j o ",
"o j J.*X$X#X#X$X*XH.h i n.[.OXK.j $ i x.{.oX{.H.H.H.H.H.H.J.K.K.K.K.K.K.K.K.K.K.J.H.H.H.H.H.H.H.H.H.H.H.H.H.H.{.oXK.m . . m K.*X$X#X#X#X#X$X*XJ.j o ",
"o j J.*X$X#X#X$X*XJ.h # u G [.K.h u v.[.OX{.G g g h h h h h h j j j j j j j j j h h h h h h h h h h h h h h g G [.L.S . . m K.*X$X#X#X#X#X$X*XJ.j o ",
"o j J.*X$X#X#X$X$X{.G h d G {.{.G G {.;X-X`.F g g h h h h h h h h h h h h h h h h h h h h h h h h h h h h h g G [.L.m . . j J.*X$X#X#X#X#X$X*XJ.j o ",
"o j J.*X$X#X#X#X#XXX{.H.H.`.XXXX{.{.XX*X$XXX`.H.H.H.H.H.H.H.H.H.H.H.H.H.H.H.H.H.H.H.H.H.H.H.H.H.H.H.H.H.H.H.H.{.oXK.h . . h J.*X$X#X#X#X#X$X*XJ.j o ",
"o m K.-X$X#X#X#X#X#X$X*X*X$X#X#X$X$X#X#X#X#X$X*X*X*X*X*X*X*X*X*X*X*X*X*X*X*X*X*X*X*X*X*X*X*X*X*X*X*X*X*X*X*X*X-X*X{.G h h G {.$X$X#X#X#X#X$X-XK.m o ",
"o m K.;X*X#X#X#X#X#X$X$X$X$X#X#X$X$X#X#X#X#X$X$X$X$X$X$X$X$X$X$X$X$X$X$X$X$X$X$X$X$X$X$X$X$X$X$X$X$X$X$X$X$X$X$X$XXX{.J.J.{.XX#X#X#X#X#X#X*X;XK.m o ",
"o d v.[.oX*X$X$X$X$X$X$X$X$X$X$X$X$X$X$X$X$X$X$X$X$X$X$X$X$X$X$X$X$X$X$X$X$X$X$X$X$X$X$X$X$X$X$X$X$X$X$X$X$X$X$X$X*X-X;X;X-X*X$X$X$X$X$X*XoX[.v.d o ",
"@ & s x.[.;X-X*X*X*X*X*X*X*X*X*X*X*X*X*X*X*X*X*X*X*X*X*X*X*X*X*X*X*X*X*X*X*X*X*X*X*X*X*X*X*X*X*X*X*X*X*X*X*X*X*X*X-X-X;X;X-X-X*X*X*X*X-X;X[.x.s & @ ",
"# o . s v.K.K.J.J.J.J.J.J.J.J.J.J.J.J.J.J.J.J.J.J.J.J.J.J.J.J.J.J.J.J.J.J.J.J.J.J.J.J.J.J.J.J.J.J.J.J.J.J.J.J.J.J.J.J.J.J.J.J.J.J.J.J.K.K.v.s . o # ",
"    o & d m m j j j j j j j m j j j j j j j j j j j j j j j j j j j j j j j j j j j j j j j j j j j j j j j j j j j j j j j j j j j j m m d & o     ",
"    # @ o o o o o o o o o o o o o o o o o o o o o o o o o o o o o o o o o o o o o o o o o o o o o o o o o o o o o o o o o o o o o o o o o o @ #     "
};
