/* XPM */
static char *clubs_4[] = {
/* columns rows colors chars-per-pixel */
"74 104 147 2 ",
"   c None",
".  c #1A0028",
"X  c #1B0029",
"o  c #1C0029",
"O  c #1C002A",
"+  c #1D002A",
"@  c #1D002B",
"#  c #1E002B",
"$  c #1E002C",
"%  c #1F002C",
"&  c #20002D",
"*  c #20012D",
"=  c #21012D",
"-  c #21012E",
";  c #21022E",
":  c #22032F",
">  c #23032F",
",  c #230430",
"<  c #250531",
"1  c #250631",
"2  c #250632",
"3  c #260732",
"4  c #270833",
"5  c #2B0C36",
"6  c #2B0D37",
"7  c #2F113A",
"8  c #30123B",
"9  c #30133B",
"0  c #31133B",
"q  c #31133C",
"w  c #32143C",
"e  c #32153D",
"r  c #33153D",
"t  c #43284B",
"y  c #452A4D",
"u  c #462B4D",
"i  c #462C4E",
"p  c #482E50",
"a  c #492F50",
"s  c #4A2F51",
"d  c #4A3051",
"f  c #4B3152",
"g  c #4C3253",
"h  c #4E3555",
"j  c #4F3555",
"k  c #523857",
"l  c #533A58",
"z  c #533A59",
"x  c #543B59",
"c  c #553C5A",
"v  c #553C5B",
"b  c #553D5B",
"n  c #563D5B",
"m  c #563E5B",
"M  c #573E5C",
"N  c #573F5C",
"B  c #583F5D",
"V  c #58405D",
"C  c #59405D",
"Z  c #59415E",
"A  c #5A425F",
"S  c #5B435F",
"D  c #766277",
"F  c #7B677B",
"G  c #7D6A7D",
"H  c #7F6C7E",
"J  c #806C7F",
"K  c #806D7F",
"L  c #816E80",
"P  c #826F81",
"I  c #837182",
"U  c #847282",
"Y  c #978893",
"T  c #9B8B96",
"R  c #9B8C96",
"E  c #9C8D97",
"W  c #9D8E98",
"Q  c #9E8F99",
"!  c #9F9099",
"~  c #A0919A",
"^  c #A1939B",
"/  c #A2949C",
"(  c #AC9FA4",
")  c #B2A5AA",
"_  c #C1B6B6",
"`  c #C2B8B7",
"'  c #C2B8B8",
"]  c #C3B9B8",
"[  c #C3B9B9",
"{  c #C3BAB9",
"}  c #C4BAB9",
"|  c #C4BBBA",
" . c #C5BCBA",
".. c #C6BCBB",
"X. c #C6BDBB",
"o. c #C7BDBB",
"O. c #C7BEBC",
"+. c #C8BFBD",
"@. c #CAC1BF",
"#. c #CBC2BF",
"$. c #CCC3C0",
"%. c #CEC5C2",
"&. c #CFC7C3",
"*. c #D0C8C3",
"=. c #D0C8C4",
"-. c #D1C9C4",
";. c #D2CAC5",
":. c #D3CBC6",
">. c #D3CCC6",
",. c #D4CCC7",
"<. c #D5CDC7",
"1. c #D5CEC8",
"2. c #D6CEC8",
"3. c #D7CFC9",
"4. c #D7D0C9",
"5. c #DBD5CD",
"6. c #E9E4D9",
"7. c #EAE5DA",
"8. c #EBE7DB",
"9. c #ECE8DC",
"0. c #EFEADE",
"q. c #EFEBDE",
"w. c #F1EDDF",
"e. c #F1EEE0",
"r. c #F5F2E3",
"t. c #F6F3E4",
"y. c #F7F4E5",
"u. c #F8F5E6",
"i. c #F8F6E6",
"p. c #F9F6E7",
"a. c #F9F7E7",
"s. c #FAF7E7",
"d. c #FAF8E8",
"f. c #FBF8E8",
"g. c #FBF9E8",
"h. c #FBF9E9",
"j. c #FCF9E9",
"k. c #FCFAE9",
"l. c #FDFBEA",
"z. c #FEFCEA",
"x. c #FEFCEB",
"c. c #FFFDEB",
"v. c #FFFDEC",
"b. c #FFFEEC",
"n. c #FFFEED",
"m. c #FFFFED",
"M. c #FFFFEE",
/* pixels */
"    4 2 > > > > > > > > > > > > > > > > > > > > > > > > > > > > > > > > > > > > > > > > > > > > > > > > > > > > > > > > > > > > > > > > > > 2 4     ",
"    > 9 f Z Z B B B B N B B B B B B B B B B B N B B B B B B B B B B B N B B B B B B B B B B B N B B B B B B B B B B B N B B B B B B B Z Z f 9 >     ",
"4 > % p T  .} ` ` _ _ _ _ _ ` _ ` ` ` ` _ _ _ _ _ _ _ _ ` ` ` ` _ _ _ _ _ _ _ _ ` ` ` ` _ _ _ _ _ _ _ _ ` ` ` ` _ _ _ _ _ _ _ _ ` ` ` }  .T p % > 4 ",
"2 9 p L <.b.b.x.x.l.h.h.l.x.x.l.l.h.h.h.h.h.h.h.h.h.h.h.h.h.h.h.h.h.h.h.h.h.h.h.h.h.h.h.h.h.h.h.h.h.h.h.h.h.h.h.h.h.h.h.h.h.h.h.h.h.h.l.x.<.L p 9 2 ",
"> f T <.0.h.l.x.x.l.d.d.l.x.x.l.h.a.a.a.a.a.a.a.a.a.a.a.a.a.a.a.a.a.a.a.a.a.a.a.a.a.a.a.a.a.a.a.a.a.a.a.a.a.a.a.a.a.a.a.a.a.a.a.a.a.a.a.h.0.<.T f > ",
"> Z  .b.h.6.=.] ] =.6.6.=.` ] =.6.y.y.t.t.t.t.t.t.t.t.t.t.t.t.t.t.t.t.t.t.t.t.t.t.t.t.t.t.t.t.t.t.t.t.t.t.t.t.t.t.t.t.t.t.t.t.t.t.t.t.t.t.h.x. .Z > ",
"> Z } b.l.*.H z z L <.<.L z z H =.a.a.t.t.t.t.t.t.t.t.t.t.t.t.t.t.t.t.t.t.t.t.t.t.t.t.t.t.t.t.t.t.t.t.t.t.t.t.t.t.t.t.t.t.t.t.t.t.t.t.t.t.a.l.} Z > ",
"> B ` x.x.] v . . Z @.@.Z . . v ] h.a.t.t.t.t.t.t.t.t.t.t.t.t.t.t.t.t.t.t.t.t.t.t.t.t.t.t.t.t.t.t.t.t.t.t.t.t.t.t.t.t.t.t.t.t.t.t.t.t.t.t.a.h.` B > ",
"> B ` x.x.] N o o Z $.$.S o o N ] h.a.t.t.t.t.t.t.t.t.t.t.t.t.t.t.t.t.t.t.t.t.t.t.t.t.t.t.t.t.t.t.t.t.t.t.t.t.t.t.t.t.t.t.t.t.t.t.t.t.t.t.a.h.` N > ",
"> B ` x.x.] N o o g ! ~ j > > Z } h.a.t.t.y.a.a.a.a.a.a.y.t.t.t.t.t.t.t.t.t.t.t.t.t.t.t.t.y.a.a.a.a.a.a.y.t.t.t.t.t.t.t.t.t.t.t.t.t.t.t.t.a.h.` N > ",
"> B ` x.x.] v o o 7 p f r > > Z } h.a.t.t.y.a.h.h.h.h.a.y.t.t.t.t.t.t.t.t.t.t.t.t.t.t.t.t.y.a.h.h.h.h.a.y.t.t.t.t.t.t.t.t.t.t.t.t.t.t.t.t.a.h.` N > ",
"> B ` l.l.=.H v N Z v p r > > Z } h.a.y.y.6.=.] ] ] ] =.6.y.y.t.t.t.t.t.t.t.t.t.t.t.t.y.y.6.=.] ] ] ] =.6.y.y.t.t.t.t.t.t.t.t.t.t.t.t.t.t.a.h.` N > ",
"> B _ h.h.6.*.] ]  . .E g > > Z } h.a.a.a.*.H v N N v H =.a.a.t.t.t.t.t.t.t.t.t.t.t.t.a.a.=.H v N N v H =.a.a.t.t.t.t.t.t.t.t.t.t.t.t.t.t.a.h._ N > ",
"> B _ h.a.y.a.h.h.x.b.O.B o o v ] h.a.a.h.] v o % % o v ] h.a.t.t.t.t.t.t.t.t.t.t.t.t.a.h.] v o % % o v ] h.a.t.t.t.t.t.t.t.t.t.t.t.t.t.t.a.h._ N > ",
"> B _ h.a.y.a.a.a.l.x.} v . . v ] h.a.a.h.] N % > > % N ] h.a.t.t.t.t.t.t.t.t.t.t.t.t.a.h.] N % > > % N ] h.a.t.t.t.t.t.t.t.t.t.t.t.t.t.t.a.h._ N > ",
"> N _ h.a.t.t.y.a.l.l.=.L v x H *.h.h.l.x. .N > , , > N  .x.l.a.y.t.t.t.t.t.t.t.t.y.a.l.x. .N > , , > N  .x.l.a.y.t.t.t.t.t.t.t.t.t.t.t.t.a.h._ N > ",
"> B _ h.a.t.t.y.a.h.l.0.3. .] *.6.a.h.x.b. .v % > > % v  .b.x.a.y.t.t.t.t.t.t.t.t.y.a.x.b. .v % > > % v  .b.x.a.y.t.t.t.t.t.t.t.t.t.t.t.t.a.h.` B > ",
"> B _ h.a.y.y.6.*.] ] }  .3.0.l.a.6.=.}  .( D g q 9 g D (  .} =.6.y.y.t.t.t.t.y.y.6.=.}  .( D g 9 9 g D (  .} =.6.y.y.t.t.t.t.t.t.t.t.t.t.a.h.` B > ",
"> B _ h.a.a.a.=.H v N N B L >.x.l.=.H x x D ) / g g / ) D x x H =.a.a.t.t.t.t.a.a.=.H x x D ) / g g / ) D x z H =.a.a.t.t.t.t.t.t.t.t.t.t.a.h.` B > ",
"> B _ h.a.a.l. .v o % % o v  .b.b.] v . . g / ~ g g ~ / g . . v ] h.a.t.t.t.t.a.h.] v . . g / ~ g g ~ / g . . v ] h.a.t.t.t.t.t.t.t.t.t.t.a.h.` B > ",
"> B ` h.a.h.x.O.B % > > % B O.b.b.] N % > r g g r r g g 9 > % N ] h.a.t.t.t.t.a.h.] N % > q g g r r g g 9 > o N ] h.a.t.t.t.t.t.t.t.t.t.t.a.h.` B > ",
"> B ` l.h.0.<.W g , 2 2 , g W 4.e.} B % > 9 p p r r p p 9 > % N ] h.a.t.t.t.t.a.h.] N % > 9 p p r r p p 9 > o N ] h.a.t.t.t.t.t.t.t.t.t.t.a.h.` B > ",
"> B _ l.l.=.K p 9 2 2 2 2 9 p I 3. .B . . f W W f f W W f . . v ] h.a.t.t.t.t.a.h.] v . . f W W f f W W f . . v ] h.a.t.t.t.t.t.t.t.t.t.t.a.h.` B > ",
"> B _ x.x.] z . > 2 2 2 2 > . v  .3.L z z U 5.@.Z Z @.5.U z z H =.a.a.t.t.t.t.a.a.=.H z z U 5.@.Z Z @.5.U z z H =.a.a.t.t.t.t.t.t.t.t.t.t.a.h.` B > ",
"> B _ x.x.] z . o , 2 2 2 % . x ] 0.>.] ` 3.r.+.N N +.r.3.` ` =.6.y.y.t.t.t.t.y.y.6.=.` ` 3.r.+.N N +.r.3.` ] =.6.y.y.t.t.t.t.t.t.t.t.t.t.a.h.` N > ",
"> B _ l.l.=.H N Z j r r j Z N H *.h.l.l.l.0.=.Y u u Y =.0.l.l.a.y.t.t.t.t.t.t.t.t.y.a.l.l.0.=.Y u u Y =.0.l.l.a.y.t.t.t.t.t.t.t.t.t.t.t.t.a.h.` N > ",
"> B _ h.h.6.*. .@.~ f f ~ @. .*.6.a.a.l.l.=.H t 6 6 t H =.l.l.a.y.t.t.t.t.t.t.t.t.y.a.l.l.=.H t 6 6 t H =.l.l.a.y.t.t.t.t.t.t.t.t.t.t.t.t.a.h.` N > ",
"> N _ h.a.a.h.w.3.R i i R 3.w.h.a.t.t.a.a.&.F k v v k F &.a.a.t.t.t.t.t.t.t.t.t.t.t.t.a.a.&.F k v v k F &.a.a.t.t.t.t.t.t.t.t.t.t.t.t.t.t.a.h.` N > ",
"> B _ h.a.a.l.=.K u 6 6 u H =.l.a.t.t.y.y.6.&._ ] ] _ &.6.y.y.t.t.t.t.t.t.t.t.t.t.t.t.y.y.6.&._ ] ] _ &.6.y.y.t.t.t.t.t.t.t.t.t.t.t.t.t.t.a.h._ N > ",
"> B _ h.a.a.a.&.F k v v k F &.a.a.t.t.t.t.y.a.h.h.h.h.a.y.t.t.t.t.t.t.t.t.t.t.t.t.t.t.t.t.y.a.h.h.h.h.a.y.t.t.t.t.t.t.t.t.t.t.t.t.t.t.t.t.a.h._ N > ",
"> B ` h.a.y.y.6.&._ ] ] _ &.6.y.y.t.t.t.t.y.a.a.a.a.a.a.y.t.t.t.t.t.t.t.t.t.t.t.t.t.t.t.t.y.a.a.a.a.a.a.y.t.t.t.t.t.t.t.t.t.t.t.t.t.t.t.t.a.h._ N > ",
"> B _ h.a.t.t.y.a.h.h.h.h.a.y.t.t.t.t.t.t.t.t.t.t.t.t.t.t.t.t.t.t.t.t.t.t.t.t.t.t.t.t.t.t.t.t.t.t.t.t.t.t.t.t.t.t.t.t.t.t.t.t.t.t.t.t.t.t.a.h._ N > ",
"> B ` h.a.t.t.y.a.a.a.a.a.a.y.t.t.t.t.t.t.t.t.t.t.t.t.t.t.t.t.t.t.t.t.t.t.t.t.t.t.t.t.t.t.t.t.t.t.t.t.t.t.t.t.t.t.t.t.t.t.t.t.t.t.t.t.t.t.a.h.` B > ",
"> B ` h.a.t.t.t.t.t.t.t.t.t.t.t.t.t.t.t.t.t.t.t.t.t.t.t.t.t.t.t.t.t.t.t.t.t.t.t.t.t.t.t.t.t.t.t.t.t.t.t.t.t.t.t.t.t.t.t.t.t.t.t.t.t.t.t.t.a.h.` B > ",
"> B ` h.a.t.t.t.t.t.t.t.t.t.t.t.t.t.t.t.t.t.t.t.t.t.t.t.t.t.t.t.t.t.t.t.t.t.t.t.t.t.t.t.t.t.t.t.t.t.t.t.t.t.t.t.t.t.t.t.t.t.t.t.t.t.t.t.t.a.h.` B > ",
"> B ` h.a.t.t.t.t.t.t.t.t.t.t.t.t.t.t.t.t.t.t.t.t.t.t.t.t.t.t.t.t.t.t.t.t.t.t.t.t.t.t.t.t.t.t.t.t.t.t.t.t.t.t.t.t.t.t.t.t.t.t.t.t.t.t.t.t.a.h.` B > ",
"> B _ h.a.t.t.t.t.t.t.t.t.t.t.t.t.t.t.t.t.t.t.t.t.t.t.t.t.t.t.t.t.t.t.t.t.t.t.t.t.t.t.t.t.t.t.t.t.t.t.t.t.t.t.t.t.t.t.t.t.t.t.t.t.t.t.t.t.a.h.` B > ",
"> B _ h.a.t.t.t.t.t.t.t.t.t.t.t.t.t.t.t.t.t.t.t.t.t.t.t.t.t.t.t.t.t.t.t.t.t.t.t.t.t.t.t.t.t.t.t.t.t.t.t.t.t.t.t.t.t.t.t.t.t.t.t.t.t.t.t.t.a.h.` B > ",
"> B _ h.a.t.t.t.t.t.t.t.t.t.t.t.t.t.t.t.t.t.t.t.t.t.t.t.t.t.t.t.t.t.t.t.t.t.t.t.t.t.t.t.t.t.t.t.t.t.t.t.t.t.t.t.t.t.t.t.t.t.t.t.t.t.t.t.t.a.h.` B > ",
"> N _ h.a.t.t.t.t.t.t.t.t.t.t.t.t.t.t.t.t.t.t.t.t.t.t.t.t.t.t.t.t.t.t.t.t.t.t.t.t.t.t.t.t.t.t.t.t.t.t.t.t.t.t.t.t.t.t.t.t.t.t.t.t.t.t.t.t.a.h.` B > ",
"> B _ h.a.t.t.t.t.t.t.t.t.t.t.t.t.t.t.t.t.t.t.t.t.t.t.t.t.t.t.t.t.t.t.t.t.t.t.t.t.t.t.t.t.t.t.t.t.t.t.t.t.t.t.t.t.t.t.t.t.t.t.t.t.t.t.t.t.a.h.` N > ",
"> B _ h.a.t.t.t.t.t.t.t.t.t.t.t.t.t.t.t.t.t.t.t.t.t.t.t.t.t.t.t.t.t.t.t.t.t.t.t.t.t.t.t.t.t.t.t.t.t.t.t.t.t.t.t.t.t.t.t.t.t.t.t.t.t.t.t.t.a.h.` N > ",
"> B _ h.a.t.t.t.t.t.t.t.t.t.t.t.t.t.t.t.t.t.t.t.t.t.t.t.t.t.t.t.t.t.t.t.t.t.t.t.t.t.t.t.t.t.t.t.t.t.t.t.t.t.t.t.t.t.t.t.t.t.t.t.t.t.t.t.t.a.h.` N > ",
"> B _ h.a.t.t.t.t.t.t.t.t.t.t.t.t.t.t.t.t.t.t.t.t.t.t.t.t.t.t.t.t.t.t.t.t.t.t.t.t.t.t.t.t.t.t.t.t.t.t.t.t.t.t.t.t.t.t.t.t.t.t.t.t.t.t.t.t.a.h.` N > ",
"> B ` h.a.t.t.t.t.t.t.t.t.t.t.t.t.t.t.t.t.t.t.t.t.t.t.t.t.t.t.t.t.t.t.t.t.t.t.t.t.t.t.t.t.t.t.t.t.t.t.t.t.t.t.t.t.t.t.t.t.t.t.t.t.t.t.t.t.a.h._ N > ",
"> B ` h.a.t.t.t.t.t.t.t.t.t.t.t.t.t.t.t.t.t.t.t.t.t.t.t.t.t.t.t.t.t.t.t.t.t.t.t.t.t.t.t.t.t.t.t.t.t.t.t.t.t.t.t.t.t.t.t.t.t.t.t.t.t.t.t.t.a.h._ N > ",
"> B ` h.a.t.t.t.t.t.t.t.t.t.t.t.t.t.t.t.t.t.t.t.t.t.t.t.t.t.t.t.t.t.t.t.t.t.t.t.t.t.t.t.t.t.t.t.t.t.t.t.t.t.t.t.t.t.t.t.t.t.t.t.t.t.t.t.t.a.h._ N > ",
"> B ` h.a.t.t.t.t.t.t.t.t.t.t.t.t.t.t.t.t.t.t.t.t.t.t.t.t.t.t.t.t.t.t.t.t.t.t.t.t.t.t.t.t.t.t.t.t.t.t.t.t.t.t.t.t.t.t.t.t.t.t.t.t.t.t.t.t.a.h._ N > ",
"> B _ h.a.t.t.t.t.t.t.t.t.t.t.t.t.t.t.t.t.t.t.t.t.t.t.t.t.t.t.t.t.t.t.t.t.t.t.t.t.t.t.t.t.t.t.t.t.t.t.t.t.t.t.t.t.t.t.t.t.t.t.t.t.t.t.t.t.a.h.` B > ",
"> B _ h.a.t.t.t.t.t.t.t.t.t.t.t.t.t.t.t.t.t.t.t.t.t.t.t.t.t.t.t.t.t.t.t.t.t.t.t.t.t.t.t.t.t.t.t.t.t.t.t.t.t.t.t.t.t.t.t.t.t.t.t.t.t.t.t.t.a.h.` B > ",
"> B _ h.a.t.t.t.t.t.t.t.t.t.t.t.t.t.t.t.t.t.t.t.t.t.t.t.t.t.t.t.t.t.t.t.t.t.t.t.t.t.t.t.t.t.t.t.t.t.t.t.t.t.t.t.t.t.t.t.t.t.t.t.t.t.t.t.t.a.h.` B > ",
"> N _ h.a.t.t.t.t.t.t.t.t.t.t.t.t.t.t.t.t.t.t.t.t.t.t.t.t.t.t.t.t.t.t.t.t.t.t.t.t.t.t.t.t.t.t.t.t.t.t.t.t.t.t.t.t.t.t.t.t.t.t.t.t.t.t.t.t.a.h.` B > ",
"> B _ h.a.t.t.t.t.t.t.t.t.t.t.t.t.t.t.t.t.t.t.t.t.t.t.t.t.t.t.t.t.t.t.t.t.t.t.t.t.t.t.t.t.t.t.t.t.t.t.t.t.t.t.t.t.t.t.t.t.t.t.t.t.t.t.t.t.a.h.` B > ",
"> B _ h.a.t.t.t.t.t.t.t.t.t.t.t.t.t.t.t.t.t.t.t.t.t.t.t.t.t.t.t.t.t.t.t.t.t.t.t.t.t.t.t.t.t.t.t.t.t.t.t.t.t.t.t.t.t.t.t.t.t.t.t.t.t.t.t.t.a.h.` B > ",
"> B _ h.a.t.t.t.t.t.t.t.t.t.t.t.t.t.t.t.t.t.t.t.t.t.t.t.t.t.t.t.t.t.t.t.t.t.t.t.t.t.t.t.t.t.t.t.t.t.t.t.t.t.t.t.t.t.t.t.t.t.t.t.t.t.t.t.t.a.h.` B > ",
"> B _ h.a.t.t.t.t.t.t.t.t.t.t.t.t.t.t.t.t.t.t.t.t.t.t.t.t.t.t.t.t.t.t.t.t.t.t.t.t.t.t.t.t.t.t.t.t.t.t.t.t.t.t.t.t.t.t.t.t.t.t.t.t.t.t.t.t.a.h.` B > ",
"> B ` h.a.t.t.t.t.t.t.t.t.t.t.t.t.t.t.t.t.t.t.t.t.t.t.t.t.t.t.t.t.t.t.t.t.t.t.t.t.t.t.t.t.t.t.t.t.t.t.t.t.t.t.t.t.t.t.t.t.t.t.t.t.t.t.t.t.a.h.` B > ",
"> B ` h.a.t.t.t.t.t.t.t.t.t.t.t.t.t.t.t.t.t.t.t.t.t.t.t.t.t.t.t.t.t.t.t.t.t.t.t.t.t.t.t.t.t.t.t.t.t.t.t.t.t.t.t.t.t.t.t.t.t.t.t.t.t.t.t.t.a.h.` B > ",
"> B ` h.a.t.t.t.t.t.t.t.t.t.t.t.t.t.t.t.t.t.t.t.t.t.t.t.t.t.t.t.t.t.t.t.t.t.t.t.t.t.t.t.t.t.t.t.t.t.t.t.t.t.t.t.t.t.t.t.t.t.t.t.t.t.t.t.t.a.h.` B > ",
"> B ` h.a.t.t.t.t.t.t.t.t.t.t.t.t.t.t.t.t.t.t.t.t.t.t.t.t.t.t.t.t.t.t.t.t.t.t.t.t.t.t.t.t.t.t.t.t.t.t.t.t.t.t.t.t.t.t.t.t.t.t.t.t.t.t.t.t.a.h.` B > ",
"> B _ h.a.t.t.t.t.t.t.t.t.t.t.t.t.t.t.t.t.t.t.t.t.t.t.t.t.t.t.t.t.t.t.t.t.t.t.t.t.t.t.t.t.t.t.t.t.t.t.t.t.t.t.t.t.t.t.t.t.t.t.t.t.t.t.t.t.a.h._ B > ",
"> B _ h.a.t.t.t.t.t.t.t.t.t.t.t.t.t.t.t.t.t.t.t.t.t.t.t.t.t.t.t.t.t.t.t.t.t.t.t.t.t.t.t.t.t.t.t.t.t.t.t.t.t.t.t.t.t.t.t.t.t.t.t.t.t.t.t.t.a.h._ B > ",
"> B _ h.a.t.t.t.t.t.t.t.t.t.t.t.t.t.t.t.t.t.t.t.t.t.t.t.t.t.t.t.t.t.t.t.t.t.t.t.t.t.t.t.t.t.t.t.t.t.t.t.t.t.t.t.t.t.t.t.t.t.t.t.t.t.t.t.t.a.h._ N > ",
"> N _ h.a.t.t.t.t.t.t.t.t.t.t.t.t.t.t.t.t.t.t.t.t.t.t.t.t.t.t.t.t.t.t.t.t.t.t.t.t.t.t.t.t.t.t.t.t.t.t.t.t.t.t.t.t.t.t.t.t.t.t.t.t.t.t.t.t.a.h._ N > ",
"> B _ h.a.t.t.t.t.t.t.t.t.t.t.t.t.t.t.t.t.t.t.t.t.t.t.t.t.t.t.t.t.t.t.t.t.t.t.t.t.t.t.t.t.t.t.t.t.t.t.t.t.t.t.t.t.t.t.t.t.t.t.t.t.t.t.t.t.a.h.` N > ",
"> B _ h.a.t.t.t.t.t.t.t.t.t.t.t.t.t.t.t.t.t.t.t.t.t.t.t.t.t.t.t.t.t.t.t.t.t.t.t.t.t.t.t.t.t.t.t.t.t.t.t.t.t.t.t.t.t.t.t.t.t.t.t.t.t.t.t.t.a.h.` N > ",
"> B _ h.a.t.t.t.t.t.t.t.t.t.t.t.t.t.t.t.t.t.t.t.t.t.t.t.t.t.t.t.t.t.t.t.t.t.t.t.t.t.t.t.t.t.t.t.t.t.t.t.t.t.t.t.t.t.t.t.t.t.t.t.t.t.t.t.t.a.h.` N > ",
"> B _ h.a.t.t.t.t.t.t.t.t.t.t.t.t.t.t.t.t.t.t.t.t.t.t.t.t.t.t.t.t.t.t.t.t.t.t.t.t.t.t.t.t.t.t.t.t.t.t.t.t.t.t.t.t.t.t.t.t.t.t.t.t.t.t.t.t.a.h.` N > ",
"> B ` h.a.t.t.t.t.t.t.t.t.t.t.t.t.t.t.t.t.t.t.t.t.t.t.t.t.t.t.t.t.t.t.t.t.t.t.t.t.t.t.t.t.t.t.t.t.t.t.t.t.t.t.t.t.t.t.t.t.t.t.t.t.t.t.t.t.a.h.` N > ",
"> B ` h.a.t.t.t.t.t.t.t.t.t.t.t.t.t.t.t.t.t.t.t.t.t.t.t.t.t.t.t.t.t.t.t.t.t.t.t.t.t.t.t.t.t.t.t.t.t.t.t.t.t.t.t.t.t.t.t.t.t.t.t.t.t.t.t.t.a.h.` N > ",
"> B ` h.a.t.t.t.t.t.t.t.t.t.t.t.t.t.t.t.t.t.t.t.t.t.t.t.t.t.t.t.t.t.t.t.t.t.t.t.t.t.t.t.t.t.t.t.t.t.t.t.t.t.t.t.t.t.t.t.t.t.t.t.t.t.t.t.t.a.h.` N > ",
"> B ` h.a.t.t.t.t.t.t.t.t.t.t.t.t.t.t.t.t.t.t.t.t.t.t.t.t.t.t.t.t.t.t.t.t.t.t.t.t.t.t.t.t.t.t.t.t.t.t.t.t.t.t.t.t.t.t.y.a.a.a.a.a.a.y.t.t.a.h.` N > ",
"> B _ h.a.t.t.t.t.t.t.t.t.t.t.t.t.t.t.t.t.t.t.t.t.t.t.t.t.t.t.t.t.t.t.t.t.t.t.t.t.t.t.t.t.t.t.t.t.t.t.t.t.t.t.t.t.t.t.y.a.h.h.h.h.a.y.t.t.a.h.` B > ",
"> B _ h.a.t.t.t.t.t.t.t.t.t.t.t.t.t.t.t.t.y.a.a.a.a.a.a.y.t.t.t.t.t.t.t.t.t.t.t.t.t.t.t.t.y.a.a.a.a.a.a.y.t.t.t.t.y.y.6.&._ ] ] _ &.6.y.y.a.h.` B > ",
"> B _ h.a.t.t.t.t.t.t.t.t.t.t.t.t.t.t.t.t.y.a.h.h.h.h.a.y.t.t.t.t.t.t.t.t.t.t.t.t.t.t.t.t.y.a.h.h.h.h.a.y.t.t.t.t.a.a.&.F k v v k F &.a.a.a.h.` B > ",
"> N _ h.a.t.t.t.t.t.t.t.t.t.t.t.t.t.t.y.y.6.&._ ] ] _ &.6.y.y.t.t.t.t.t.t.t.t.t.t.t.t.y.y.6.&._ ] ] _ &.6.y.y.t.t.a.l.=.K u 6 6 u H =.l.a.a.h.` B > ",
"> B _ h.a.t.t.t.t.t.t.t.t.t.t.t.t.t.t.a.a.&.F k v v k F &.a.a.t.t.t.t.t.t.t.t.t.t.t.t.a.a.&.F k v v k F &.a.a.t.t.a.h.w.3.R i i R 3.w.h.a.a.h.` B > ",
"> B _ h.a.t.t.t.t.t.t.t.t.t.t.t.t.y.a.l.l.=.H t 6 6 t H =.l.l.a.y.t.t.t.t.t.t.t.t.y.a.l.l.=.H t 6 6 t H =.l.l.a.a.6.*. .@.~ f f ~ @. .=.6.h.l.` B > ",
"> B _ h.a.t.t.t.t.t.t.t.t.t.t.t.t.y.a.l.l.0.=.Y u u Y =.0.l.l.a.y.t.t.t.t.t.t.t.t.y.a.l.l.0.=.Y u u Y =.0.l.l.l.h.=.H N Z j r r j Z N H =.l.l.` B > ",
"> B _ h.a.t.t.t.t.t.t.t.t.t.t.y.y.6.=.] ` 3.r.+.N N +.r.3.] ] =.6.y.y.t.t.t.t.y.y.6.=.] ` 3.r.+.N N +.r.3.` ] >.0.] x . o 2 2 2 2 o . z ] x.x.` B > ",
"> B ` h.a.t.t.t.t.t.t.t.t.t.t.a.a.*.H z z U 5.@.Z Z @.5.U z z H =.a.a.t.t.t.t.a.a.=.H z z U 5.@.Z Z @.5.U z z L 3. .v . > 2 2 2 2 % . z ] x.x.` N > ",
"> B ` h.a.t.t.t.t.t.t.t.t.t.t.a.h.] v . . f W W f f W W f . . v ] h.a.t.t.t.t.a.h.] v . . f W W f f W W f . . B  .3.I p 9 2 2 2 2 9 p K =.l.l.` N > ",
"> B ` h.a.t.t.t.t.t.t.t.t.t.t.a.h.] N o > 9 p p r r p p 9 > % N ] h.a.t.t.t.t.a.h.] N % > 9 p p r r p p 9 > % N } e.4.W g , 2 2 , g W <.0.h.h.` N > ",
"> B ` h.a.t.t.t.t.t.t.t.t.t.t.a.h.] N % > r g g r r g g q > % N ] h.a.t.t.t.t.a.h.] N % > r g g r r g g q > % N ] b.b.O.B % > > % B O.x.h.a.h.` N > ",
"> B _ h.a.t.t.t.t.t.t.t.t.t.t.a.h.] v . . g / ~ g g ~ / g . . v ] h.a.t.t.t.t.a.h.] v . . g / ~ g g ~ / g . . v ] b.b. .v o % % o v  .l.a.a.h.` N > ",
"> B _ h.a.t.t.t.t.t.t.t.t.t.t.a.a.=.H x x D ) / g g / ) D x z H =.a.a.t.t.t.t.a.a.=.H x x D ) / g g / ) D x x H =.l.x.>.L B N N v H =.a.a.a.h.` N > ",
"> B _ h.a.t.t.t.t.t.t.t.t.t.t.y.y.6.=.}  .( D g q q g D (  .} *.6.y.y.t.t.t.t.y.y.6.*.}  .( D g q 9 g D (  .} =.6.a.l.0.3. .} ] ] =.6.y.t.a.h._ N > ",
"> N _ h.a.t.t.t.t.t.t.t.t.t.t.t.t.y.a.x.b. .N % > > % N  .b.x.a.y.t.t.t.t.t.t.t.t.y.a.x.b. .N % > > o v  .b.x.h.a.6.=.]  .3.0.l.l.a.y.t.t.a.h._ N > ",
"> B _ h.a.t.t.t.t.t.t.t.t.t.t.t.t.y.a.l.x. .N > , , > N  .x.l.a.y.t.t.t.t.t.t.t.t.y.a.l.x. .N > , , > N  .x.l.h.h.*.H z v L >.l.l.a.y.t.t.a.h.` N > ",
"> B _ h.a.t.t.t.t.t.t.t.t.t.t.t.t.t.t.a.h.] N % > > % N ] h.a.t.t.t.t.t.t.t.t.t.t.t.t.a.h.] N % > > % N ] h.a.a.h.] v . . v  .x.l.a.a.a.y.a.h.` N > ",
"> B _ h.a.t.t.t.t.t.t.t.t.t.t.t.t.t.t.a.h.] v o % % o v ] h.a.t.t.t.t.t.t.t.t.t.t.t.t.a.h.] v o % % o v ] h.a.a.h.] N o o B O.b.x.h.h.a.y.a.h.` N > ",
"> B _ h.a.t.t.t.t.t.t.t.t.t.t.t.t.t.t.a.a.=.H v N N v H =.a.a.t.t.t.t.t.t.t.t.t.t.t.t.a.a.=.H v N N v H =.a.a.a.h.} Z > > g E  . .] ] =.6.h.l.` N > ",
"> B ` h.a.t.t.t.t.t.t.t.t.t.t.t.t.t.t.y.y.6.=.] ] ] ] =.6.y.y.t.t.t.t.t.t.t.t.t.t.t.t.y.y.6.=.] ] ] ] =.6.y.y.a.h.} Z > > r p v Z N v H =.l.l.` N > ",
"> B ` h.a.t.t.t.t.t.t.t.t.t.t.t.t.t.t.t.t.y.a.h.h.h.h.a.y.t.t.t.t.t.t.t.t.t.t.t.t.t.t.t.t.y.a.h.h.h.h.a.y.t.t.a.h.} Z > > r f p 7 o o v ] x.x.` N > ",
"> B ` h.a.t.t.t.t.t.t.t.t.t.t.t.t.t.t.t.t.y.a.a.a.a.a.a.y.t.t.t.t.t.t.t.t.t.t.t.t.t.t.t.t.y.a.a.a.a.a.a.y.t.t.a.h.} Z > > j ~ ! g o o N ] x.x.` N > ",
"> B ` h.a.t.t.t.t.t.t.t.t.t.t.t.t.t.t.t.t.t.t.t.t.t.t.t.t.t.t.t.t.t.t.t.t.t.t.t.t.t.t.t.t.t.t.t.t.t.t.t.t.t.t.a.h.] N o o Z &.&.Z o o N ] x.x.` N > ",
"> B _ h.a.t.t.t.t.t.t.t.t.t.t.t.t.t.t.t.t.t.t.t.t.t.t.t.t.t.t.t.t.t.t.t.t.t.t.t.t.t.t.t.t.t.t.t.t.t.t.t.t.t.t.a.h.] v . . Z @.@.Z . . v ] x.x.` B > ",
"> Z } l.a.t.t.t.t.t.t.t.t.t.t.t.t.t.t.t.t.t.t.t.t.t.t.t.t.t.t.t.t.t.t.t.t.t.t.t.t.t.t.t.t.t.t.t.t.t.t.t.t.t.t.a.a.=.H z z L <.<.L z z H *.l.b.} Z > ",
"> Z  .x.d.t.t.t.t.t.t.t.t.t.t.t.t.t.t.t.t.t.t.t.t.t.t.t.t.t.t.t.t.t.t.t.t.t.t.t.t.t.t.t.t.t.t.t.t.t.t.t.t.t.t.y.y.6.=.] ` =.6.6.=.] ] =.6.h.b. .Z > ",
"> f T <.0.d.a.a.a.a.a.a.a.a.a.a.a.a.a.a.a.a.a.a.a.a.a.a.a.a.a.a.a.a.a.a.a.a.a.a.a.a.a.a.a.a.a.a.a.a.a.a.a.a.a.a.a.h.l.x.x.l.a.d.l.x.x.x.h.0.<.T f > ",
"2 9 p L <.x.l.h.h.h.h.h.h.h.h.h.h.h.h.h.h.h.h.h.h.h.h.h.h.h.h.h.h.h.h.h.h.h.h.h.h.h.h.h.h.h.h.h.h.h.h.h.h.h.h.h.h.l.l.x.x.l.h.h.l.x.x.b.b.<.L p 9 2 ",
"4 > % p T  .} ` _ _ _ _ ` ` ` ` _ ` _ _ _ _ ` ` ` ` ` ` _ _ _ ` ` ` ` ` _ _ _ ` _ _ _ _ ` ` ` ` _ ` _ _ _ _ ` ` ` ` ` ` _ _ ` ` ` ` ` }  .T p % > 4 ",
"    > 9 f Z Z B N B B B B B B B B B B B N N B B B B B B N B B B B B B B N B B B N B B B B B B B B B B B N N B B B B B B N B B B B B B Z Z f 9 >     ",
"    4 2 > > > > > > > > > > > > > > > > > > > > > > > > > > > > > > > > > > > > > > > > > > > > > > > > > > > > > > > > > > > > > > > > > > 2 4     "
};
