/* XPM */
static char *diamonds_6[] = {
/* columns rows colors chars-per-pixel */
"74 104 138 2 ",
"   c None",
".  c #1F002C",
"X  c #20012D",
"o  c #21012D",
"O  c #21012E",
"+  c #22032F",
"@  c #23032F",
"#  c #250632",
"$  c #270833",
"%  c #30133B",
"&  c #482E50",
"*  c #4B3152",
"=  c #583F5D",
"-  c #59405D",
";  c #59415E",
":  c #FF0317",
">  c #FF0417",
",  c #FF0418",
"<  c #FF0518",
"1  c #FF071A",
"2  c #FF081B",
"3  c #FF091C",
"4  c #FF0A1D",
"5  c #FF0B1E",
"6  c #FF0D20",
"7  c #FF0F21",
"8  c #FF1224",
"9  c #FF1627",
"0  c #FF1728",
"q  c #FF1828",
"w  c #FE1C2C",
"e  c #FE303D",
"r  c #FE313E",
"t  c #FE333F",
"y  c #FE3340",
"u  c #FE3440",
"i  c #FD3642",
"p  c #FD3743",
"a  c #FD3945",
"s  c #FD3C48",
"d  c #FD3E49",
"f  c #FD3F4A",
"g  c #FD404B",
"h  c #FD414B",
"j  c #FD414C",
"k  c #FD424D",
"l  c #FD434D",
"z  c #FD434E",
"x  c #FD444E",
"c  c #FD454F",
"v  c #FD4550",
"b  c #FD4650",
"n  c #FB6C70",
"m  c #FB6D71",
"M  c #FB6E72",
"N  c #FB7074",
"B  c #FB7175",
"V  c #FB7276",
"C  c #FB7376",
"Z  c #816E80",
"A  c #9B8B96",
"S  c #FA8D8D",
"D  c #FA8F8F",
"F  c #FA908F",
"G  c #FA9392",
"H  c #FA9493",
"J  c #C2B8B7",
"K  c #C4BAB9",
"L  c #C6BCBB",
"P  c #F8B7B1",
"I  c #F8B8B1",
"U  c #F8B8B2",
"Y  c #F8B9B2",
"T  c #F8B9B3",
"R  c #F8BAB3",
"E  c #F8BBB4",
"W  c #F8BCB5",
"Q  c #F8BDB5",
"!  c #F8BDB6",
"~  c #F8BEB6",
"^  c #F8BEB7",
"/  c #F8BFB8",
"(  c #F8C0B9",
")  c #F8C1B9",
"_  c #F8C2BA",
"`  c #F8C5BC",
"'  c #F8C7BE",
"]  c #F8C8BF",
"[  c #D5CDC7",
"{  c #F7CDC4",
"}  c #F7CEC4",
"|  c #F7CEC5",
" . c #F8C9C0",
".. c #F8CAC1",
"X. c #F8CBC2",
"o. c #F7D0C6",
"O. c #EFEBDE",
"+. c #F7E5D8",
"@. c #F6E6D9",
"#. c #F7E6D9",
"$. c #F6E7DA",
"%. c #F6E8DB",
"&. c #F6EBDD",
"*. c #F6ECDE",
"=. c #F6EDDF",
"-. c #F6F3E4",
";. c #F6F4E5",
":. c #F6F5E5",
">. c #F6F5E6",
",. c #F6F6E6",
"<. c #F6F6E7",
"1. c #F6F7E7",
"2. c #F9F6E7",
"3. c #FAF7E7",
"4. c #F6F7E8",
"5. c #F6F8E8",
"6. c #F6F8E9",
"7. c #F6F9E9",
"8. c #F6F9EA",
"9. c #F6FAEA",
"0. c #F6FBEB",
"q. c #F6FCEC",
"w. c #F6FFEE",
"e. c #F9F8E8",
"r. c #FAF8E8",
"t. c #FBF8E8",
"y. c #FBF9E8",
"u. c #FAF9E9",
"i. c #FBF9E9",
"p. c #F9FBEA",
"a. c #FBFBEA",
"s. c #FAFBEB",
"d. c #FDFBEA",
"f. c #F9FCEB",
"g. c #FBFCEB",
"h. c #FFFDEB",
"j. c #FDFEEC",
"k. c #FFFEEC",
/* pixels */
"    $ # @ @ @ @ @ @ @ @ @ @ @ @ @ @ @ @ @ @ @ @ @ @ @ @ @ @ @ @ @ @ @ @ @ @ @ @ @ @ @ @ @ @ @ @ @ @ @ @ @ @ @ @ @ @ @ @ @ @ @ @ @ @ @ @ @ @ # $     ",
"    @ % * ; ; ; = = = = = = = = = = = = = = = = = = = = = = = = = = = = = = = = = = = = = = = = = = = = = = = = = = = = = = = = = = = ; ; * % @     ",
"$ @ . & A L K J J J J J J J J J J J J J J J J J J J J J J J J J J J J J J J J J J J J J J J J J J J J J J J J J J J J J J J J J J J J K L A & . @ $ ",
"# % & Z [ j.j.g.g.g.u.u.u.u.g.u.u.u.u.u.u.u.u.u.u.u.u.u.u.u.u.u.u.u.u.u.u.u.u.u.u.u.u.u.u.u.u.u.u.u.u.u.u.u.u.u.u.u.u.u.u.u.u.u.u.u.u.d.h.[ Z & % # ",
"@ * A [ O.u.u.g.g.g.g.g.u.g.g.u.u.2.2.2.2.2.2.2.2.2.2.2.2.2.2.2.2.2.2.2.2.2.2.2.2.2.2.2.2.2.2.2.2.2.2.2.2.2.2.2.2.2.2.2.2.2.2.2.2.2.2.2.u.O.[ A * @ ",
"@ ; L j.u.@. .E E E U U U P P ' @.;.;.-.-.-.-.-.-.-.-.-.-.-.-.-.-.-.-.-.-.-.-.-.-.-.-.-.-.-.-.-.-.-.-.-.-.-.-.-.-.-.-.-.-.-.-.-.-.-.-.-.-.u.h.L ; @ ",
"@ ; K j.u. .N k c c k k k s s n ] 4.;.-.-.-.-.-.-.-.-.-.-.-.-.-.-.-.-.-.-.-.-.-.-.-.-.-.-.-.-.-.-.-.-.-.-.-.-.-.-.-.-.-.-.-.-.-.-.-.-.-.-.2.d.K ; @ ",
"@ = J g.g.E k : < q i v c k g n  .4.;.-.-.-.-.-.-.-.-.-.-.-.-.-.-.-.-.-.-.-.-.-.-.-.-.-.-.-.-.-.-.-.-.-.-.-.-.-.-.-.-.-.-.-.-.-.-.-.-.-.-.2.u.J = @ ",
"@ = J g.g.E k > < i G _ _ ^ ^  .@.;.;.-.-.-.-.-.-.-.-.-.-.-.-.-.-.-.-.-.-.-.-.-.-.-.-.-.-.-.-.-.-.-.-.-.-.-.-.-.-.-.-.-.-.-.-.-.-.-.-.-.-.2.u.J = @ ",
"@ = J g.g.^ v < 2 a H _ _ ^ / { @.;.;.-.-.-.-.;.;.;.;.-.-.-.-.-.-.-.-.-.-.-.-.-.-.-.-.-.-.-.-.;.;.;.;.-.-.-.-.-.-.-.-.-.-.-.-.-.-.-.-.-.-.2.u.J = @ ",
"@ = J g.g.^ v 4 4 w i c c k c N  .;.;.-.-.-.-.;.4.4.;.-.-.-.-.-.-.-.-.-.-.-.-.-.-.-.-.-.-.-.-.;.4.4.;.-.-.-.-.-.-.-.-.-.-.-.-.-.-.-.-.-.-.2.u.J = @ ",
"@ = J g.g.^ v 4 4 w i v v t 8 g U 9.;.-.-.;.4.%. . .%.;.;.-.-.-.-.-.-.-.-.-.-.-.-.-.-.-.-.;.4.%. . .%.;.;.-.-.-.-.-.-.-.-.-.-.-.-.-.-.-.-.2.u.J = @ ",
"@ = J g.g.^ v < 2 a H ' ' F t s U 9.;.-.-.4.9. .n n  .9.4.-.-.-.-.-.-.-.-.-.-.-.-.-.-.-.-.;.0. .n n  .9.;.-.-.-.-.-.-.-.-.-.-.-.-.-.-.-.-.2.u.J = @ ",
"@ = J g.g.E c > < i G ' ' F t s U 9.;.;.4.&.{ S t t S { &.;.;.-.-.-.-.-.-.-.-.-.-.-.-.;.;.&.{ S t t S { &.;.;.-.-.-.-.-.-.-.-.-.-.-.-.-.-.2.u.J = @ ",
"@ = J u.g.E k : < q i v v t 8 k U 9.;.;.9.{ N y 9 9 y N { 9.;.-.-.-.-.-.-.-.-.-.-.-.-.;.9.{ N y 9 9 y N { 9.;.-.-.-.-.-.-.-.-.-.-.-.-.-.-.2.u.J = @ ",
"@ = J u.u. .N k k v c k k s g N  .9.9.&.{ F i < 4 4 < i S { &.;.;.-.-.-.-.-.-.-.-.;.;.&.{ F i < 4 4 < i F { &.;.;.-.-.-.-.-.-.-.-.-.-.-.-.2.u.J = @ ",
"@ = J u.2.@. .E E ^ ^ ^ U U U  .@.9.w.{ N i 0 4 7 7 4 0 i N { 9.;.-.-.-.-.-.-.-.-.;.9.{ N i 0 4 7 7 4 0 i N { 0.;.-.-.-.-.-.-.-.-.-.-.-.-.2.u.J = @ ",
"@ = J u.2.;.;.9.w.=.{ { =.w.9.9.;.%.{ S i < 4 7 7 7 7 4 < i F { %.;.;.-.-.-.-.;.;.%.{ F i < 4 7 7 7 7 4 < i F { %.;.;.-.-.-.-.-.-.-.-.-.-.2.u.J = @ ",
"@ = J u.2.;.;.9.w.{ N N { w.9.9.9. .N i 0 4 7 7 7 7 7 7 4 0 i N  .4.;.-.-.-.-.;.4. .N i 0 4 7 7 7 7 7 7 4 0 i N  .4.;.-.-.-.-.-.-.-.-.-.-.2.u.J = @ ",
"@ = J u.2.;.;.&.{ S t t S { &.9.9.U s : 4 7 7 7 7 7 7 7 7 4 : s U 9.;.-.-.-.-.;.9.U s : 4 7 7 7 7 7 7 7 7 4 : s U 9.;.-.-.-.-.-.-.-.-.-.-.2.u.J = @ ",
"@ ; J u.2.;.9.{ N y 9 9 y N { w.w.U s : 4 7 7 7 7 7 7 7 7 4 : g U 9.;.-.-.-.-.;.9.U s : 4 7 7 7 7 7 7 7 7 4 : s U 9.;.-.-.-.-.-.-.-.-.-.-.2.u.J = @ ",
"@ ; J u.u.%.{ F i < 4 4 < i F o.=. .N i 0 4 7 7 7 7 7 7 4 0 i N  .4.;.-.-.-.-.;.4. .N i 0 4 7 7 7 7 7 7 4 0 i N  .;.;.-.-.-.-.-.-.-.-.-.-.2.u.J = @ ",
"@ ; J u.u. .N i 0 4 7 7 4 0 i N  .=.o.F i < 4 7 7 7 7 4 < i F { %.;.;.-.-.-.-.;.;.%.{ F i < 5 7 7 7 7 4 < i F { %.;.;.-.-.-.-.-.-.-.-.-.-.2.u.J = @ ",
"@ ; J g.g.U s : 4 7 7 7 7 4 : s U w.w.{ N i 0 4 7 7 4 0 i N { 9.4.-.-.-.-.-.-.-.-.;.9.{ N i 0 4 7 7 4 0 i N { 9.;.-.-.-.-.-.-.-.-.-.-.-.-.2.u.J = @ ",
"@ = J g.f.U g : 4 7 7 7 7 4 : g U 9.9.&.{ F i < 5 5 < i F { &.4.;.-.-.-.-.-.-.-.-.;.;.&.{ F i < 5 5 < i F { &.;.;.-.-.-.-.-.-.-.-.-.-.-.-.2.u.J = @ ",
"@ = J u.u. .N i 0 4 7 7 4 0 i N  .;.;.4.9.{ N y 9 9 y N { 9.;.-.-.-.-.-.-.-.-.-.-.-.-.;.9.{ N y 9 9 y N { 9.;.-.-.-.-.-.-.-.-.-.-.-.-.-.-.2.u.J = @ ",
"@ = J u.u.%.{ F i < 4 4 < i F { %.;.;.;.;.&.{ S t t S { &.;.;.-.-.-.-.-.-.-.-.-.-.-.-.;.;.&.{ S t t S { &.;.;.-.-.-.-.-.-.-.-.-.-.-.-.-.-.2.u.J = @ ",
"@ = J u.2.;.9.{ N y 9 9 y N { 9.4.-.-.-.-.;.9. .n n  .9.;.-.-.-.-.-.-.-.-.-.-.-.-.-.-.-.-.;.0. .n n  .9.;.-.-.-.-.-.-.-.-.-.-.-.-.-.-.-.-.2.u.J = @ ",
"@ = J u.2.;.;.&.{ S t t S { &.;.;.-.-.-.-.;.;.%. . .@.4.;.-.-.-.-.-.-.-.-.-.-.-.-.-.-.-.-.;.;.%. . .%.;.;.-.-.-.-.-.-.-.-.-.-.-.-.-.-.-.-.2.u.J = @ ",
"@ = J u.2.-.-.;.9. .n n  .0.;.-.-.-.-.-.-.-.-.;.4.4.;.-.-.-.-.-.-.-.-.-.-.-.-.-.-.-.-.-.-.-.-.;.9.4.;.-.-.-.-.-.-.-.-.-.-.-.-.-.-.-.-.-.-.2.u.J = @ ",
"@ = J u.2.-.-.;.;.%. . .%.;.;.-.-.-.-.-.-.-.-.;.;.;.;.-.-.-.-.-.-.-.-.-.-.-.-.-.-.-.-.-.-.-.-.;.;.;.;.-.-.-.-.-.-.-.-.-.-.-.-.-.-.-.-.-.-.2.u.J = @ ",
"@ = J u.2.-.-.-.-.;.4.4.;.-.-.-.-.-.-.-.-.-.-.-.-.-.-.-.-.-.-.-.-.-.-.-.-.-.-.-.-.-.-.-.-.-.-.-.-.-.-.-.-.-.-.-.-.-.-.-.-.-.-.-.-.-.-.-.-.2.u.J = @ ",
"@ = J u.2.-.-.-.-.;.;.;.;.-.-.-.-.-.-.-.-.-.-.-.-.-.-.-.-.-.-.-.-.-.-.-.-.-.-.-.-.-.-.-.-.-.-.-.-.-.-.-.-.-.-.-.-.-.-.-.-.-.-.-.-.-.-.-.-.2.u.J = @ ",
"@ = J u.2.-.-.-.-.-.-.-.-.-.-.-.-.-.-.-.-.-.-.-.-.-.-.-.-.-.-.-.-.-.-.-.-.-.-.-.-.-.-.-.-.-.-.-.-.-.-.-.-.-.-.-.-.-.-.-.-.-.-.-.-.-.-.-.-.2.u.J = @ ",
"@ = J u.2.-.-.-.-.-.-.-.-.-.-.-.-.-.-.-.-.-.-.-.-.-.-.-.-.-.-.-.-.-.-.-.-.-.-.-.-.-.-.-.-.-.-.-.-.-.-.-.-.-.-.-.-.-.-.-.-.-.-.-.-.-.-.-.-.2.u.J = @ ",
"@ = J u.2.-.-.-.-.-.-.-.-.-.-.-.-.-.-.-.-.-.-.-.-.-.-.-.-.-.-.-.-.-.-.-.-.-.-.-.-.-.-.-.-.-.-.-.-.-.-.-.-.-.-.-.-.-.-.-.-.-.-.-.-.-.-.-.-.2.u.J = @ ",
"@ = J u.2.-.-.-.-.-.-.-.-.-.-.-.-.-.-.-.-.-.-.-.-.-.-.-.-.-.-.-.-.-.-.-.-.-.-.-.-.-.-.-.-.-.-.-.-.-.-.-.-.-.-.-.-.-.-.-.-.-.-.-.-.-.-.-.-.2.u.J = @ ",
"@ = J u.2.-.-.-.-.-.-.-.-.-.-.-.-.-.-.-.-.-.-.-.-.-.-.-.-.-.-.-.-.-.-.-.-.-.-.-.-.-.-.-.-.-.-.-.-.-.-.-.-.-.-.-.-.-.-.-.-.-.-.-.-.-.-.-.-.2.u.J = @ ",
"@ = J u.2.-.-.-.-.-.-.-.-.-.-.-.-.-.-.-.-.-.-.-.-.-.-.-.-.-.-.-.-.-.-.-.-.-.-.-.-.-.-.-.-.-.-.-.-.-.-.-.-.-.-.-.-.-.-.-.-.-.-.-.-.-.-.-.-.2.u.J = @ ",
"@ = J u.2.-.-.-.-.-.-.-.-.-.-.-.-.-.-.-.-.-.-.-.-.-.-.-.-.-.-.-.-.-.-.-.-.-.-.-.-.-.-.-.-.-.-.-.-.-.-.-.-.-.-.-.-.-.-.-.-.-.-.-.-.-.-.-.-.2.u.J = @ ",
"@ = J u.2.-.-.-.-.-.-.-.-.-.-.-.-.-.-.-.-.-.-.-.-.-.-.-.-.-.-.-.-.-.-.-.-.-.-.-.-.-.-.-.-.-.-.-.-.-.-.-.-.-.-.-.-.-.-.-.-.-.-.-.-.-.-.-.-.2.u.J = @ ",
"@ = J u.2.-.-.-.-.-.-.-.-.-.-.-.-.-.-.-.-.-.-.;.;.;.;.-.-.-.-.-.-.-.-.-.-.-.-.-.-.-.-.-.-.-.-.;.;.;.;.-.-.-.-.-.-.-.-.-.-.-.-.-.-.-.-.-.-.2.u.J = @ ",
"@ = J u.2.-.-.-.-.-.-.-.-.-.-.-.-.-.-.-.-.-.-.;.4.4.;.-.-.-.-.-.-.-.-.-.-.-.-.-.-.-.-.-.-.-.-.;.4.4.;.-.-.-.-.-.-.-.-.-.-.-.-.-.-.-.-.-.-.2.u.J = @ ",
"@ = J u.2.-.-.-.-.-.-.-.-.-.-.-.-.-.-.-.-.;.;.@. . .%.;.;.-.-.-.-.-.-.-.-.-.-.-.-.-.-.-.-.;.4.%. . .%.;.;.-.-.-.-.-.-.-.-.-.-.-.-.-.-.-.-.2.u.J = @ ",
"@ = J u.2.-.-.-.-.-.-.-.-.-.-.-.-.-.-.-.-.;.9. .n n  .9.4.-.-.-.-.-.-.-.-.-.-.-.-.-.-.-.-.;.0. .n n  .9.;.-.-.-.-.-.-.-.-.-.-.-.-.-.-.-.-.2.u.J = @ ",
"@ = J u.2.-.-.-.-.-.-.-.-.-.-.-.-.-.-.;.;.&.{ S t t S { &.;.;.-.-.-.-.-.-.-.-.-.-.-.-.;.;.&.{ S t t S { &.;.;.-.-.-.-.-.-.-.-.-.-.-.-.-.-.2.u.J = @ ",
"@ = J u.2.-.-.-.-.-.-.-.-.-.-.-.-.-.-.4.0.{ N y 9 9 y N { 9.;.-.-.-.-.-.-.-.-.-.-.-.-.;.9.{ N y 9 9 y N { 9.;.-.-.-.-.-.-.-.-.-.-.-.-.-.-.2.u.J = @ ",
"@ = J u.2.-.-.-.-.-.-.-.-.-.-.-.-.;.4.&.{ F i < 4 4 < i F { &.;.;.-.-.-.-.-.-.-.-.;.;.&.{ F i < 4 4 < i F { &.;.;.-.-.-.-.-.-.-.-.-.-.-.-.2.u.J = @ ",
"@ = J u.2.-.-.-.-.-.-.-.-.-.-.-.-.4.9.{ N i 0 4 7 7 4 0 i N { 0.;.-.-.-.-.-.-.-.-.;.9.{ N i 0 4 7 7 4 0 i N { 0.;.-.-.-.-.-.-.-.-.-.-.-.-.2.u.J = @ ",
"@ = J u.2.-.-.-.-.-.-.-.-.-.-.;.;.%.{ F i < 4 7 7 7 7 4 < i F { %.;.;.-.-.-.-.;.;.%.{ F i < 4 7 7 7 7 4 < i F { %.;.;.-.-.-.-.-.-.-.-.-.-.2.u.J = @ ",
"@ = J u.2.-.-.-.-.-.-.-.-.-.-.;.4. .N i 0 4 7 7 7 7 7 7 4 0 i N  .4.;.-.-.-.-.;.4. .N i 0 4 7 7 7 7 7 7 4 0 i N  .4.;.-.-.-.-.-.-.-.-.-.-.2.u.J = @ ",
"@ = J u.2.-.-.-.-.-.-.-.-.-.-.;.9.U s : 4 7 7 7 7 7 7 7 7 4 : s U 9.;.-.-.-.-.;.9.U s : 4 7 7 7 7 7 7 7 7 4 : s U 9.;.-.-.-.-.-.-.-.-.-.-.2.u.J = @ ",
"@ = J u.2.-.-.-.-.-.-.-.-.-.-.;.9.U s : 4 7 8 7 7 7 7 7 7 4 : s U 9.;.-.-.-.-.;.9.U s : 4 7 7 7 7 7 7 7 7 4 : s U 9.;.-.-.-.-.-.-.-.-.-.-.2.u.J = @ ",
"@ = J u.2.-.-.-.-.-.-.-.-.-.-.;.4. .N i 0 4 7 8 7 7 7 7 4 0 i N  .4.;.-.-.-.-.;.4. .N i 0 4 7 7 7 7 7 7 4 0 i N  .;.;.-.-.-.-.-.-.-.-.-.-.2.u.J = @ ",
"@ = J u.2.-.-.-.-.-.-.-.-.-.-.;.;.%.{ S i < 5 8 7 7 7 4 < i F { %.;.;.-.-.-.-.;.;.%.{ F i < 5 7 7 7 7 4 < i F { %.;.;.-.-.-.-.-.-.-.-.-.-.2.u.J = @ ",
"@ = J u.2.-.-.-.-.-.-.-.-.-.-.-.-.;.9.{ N i 0 4 7 7 4 0 y N { 9.4.-.-.-.-.-.-.-.-.;.9.{ N i 0 4 7 7 4 0 i N { 9.;.-.-.-.-.-.-.-.-.-.-.-.-.2.u.J = @ ",
"@ = J u.2.-.-.-.-.-.-.-.-.-.-.-.-.;.;.&.{ F i < 5 5 < i F { &.;.;.-.-.-.-.-.-.-.-.;.;.&.{ F i < 5 5 < i F { &.;.;.-.-.-.-.-.-.-.-.-.-.-.-.2.u.J = @ ",
"@ = J u.2.-.-.-.-.-.-.-.-.-.-.-.-.-.-.;.9.{ N y 9 9 y N { 9.;.-.-.-.-.-.-.-.-.-.-.-.-.;.9.{ N y 9 9 y N { 9.;.-.-.-.-.-.-.-.-.-.-.-.-.-.-.2.u.J = @ ",
"@ = J u.2.-.-.-.-.-.-.-.-.-.-.-.-.-.-.;.;.&.{ S t t S { &.;.;.-.-.-.-.-.-.-.-.-.-.-.-.;.;.&.{ S t t S { &.;.;.-.-.-.-.-.-.-.-.-.-.-.-.-.-.2.u.J = @ ",
"@ = J u.2.-.-.-.-.-.-.-.-.-.-.-.-.-.-.-.-.;.0. .n n  .9.;.-.-.-.-.-.-.-.-.-.-.-.-.-.-.-.-.;.0. .n n  .9.;.-.-.-.-.-.-.-.-.-.-.-.-.-.-.-.-.2.u.J = @ ",
"@ = J u.2.-.-.-.-.-.-.-.-.-.-.-.-.-.-.-.-.;.;.%. . .%.;.;.-.-.-.-.-.-.-.-.-.-.-.-.-.-.-.-.;.;.%. . .%.;.;.-.-.-.-.-.-.-.-.-.-.-.-.-.-.-.-.2.u.J = @ ",
"@ = J u.2.-.-.-.-.-.-.-.-.-.-.-.-.-.-.-.-.-.-.;.9.4.;.-.-.-.-.-.-.-.-.-.-.-.-.-.-.-.-.-.-.-.-.;.9.4.;.-.-.-.-.-.-.-.-.-.-.-.-.-.-.-.-.-.-.2.u.J = @ ",
"@ = J u.2.-.-.-.-.-.-.-.-.-.-.-.-.-.-.-.-.-.-.;.;.;.;.-.-.-.-.-.-.-.-.-.-.-.-.-.-.-.-.-.-.-.-.;.;.;.;.-.-.-.-.-.-.-.-.-.-.-.-.-.-.-.-.-.-.2.u.J = @ ",
"@ = J u.2.-.-.-.-.-.-.-.-.-.-.-.-.-.-.-.-.-.-.-.-.-.-.-.-.-.-.-.-.-.-.-.-.-.-.-.-.-.-.-.-.-.-.-.-.-.-.-.-.-.-.-.-.-.-.-.-.-.-.-.-.-.-.-.-.2.u.J = @ ",
"@ = J u.2.-.-.-.-.-.-.-.-.-.-.-.-.-.-.-.-.-.-.-.-.-.-.-.-.-.-.-.-.-.-.-.-.-.-.-.-.-.-.-.-.-.-.-.-.-.-.-.-.-.-.-.-.-.-.-.-.-.-.-.-.-.-.-.-.2.u.J = @ ",
"@ = J u.2.-.-.-.-.-.-.-.-.-.-.-.-.-.-.-.-.-.-.-.-.-.-.-.-.-.-.-.-.-.-.-.-.-.-.-.-.-.-.-.-.-.-.-.-.-.-.-.-.-.-.-.-.-.-.-.-.-.-.-.-.-.-.-.-.2.u.J = @ ",
"@ = J u.2.-.-.-.-.-.-.-.-.-.-.-.-.-.-.-.-.-.-.-.-.-.-.-.-.-.-.-.-.-.-.-.-.-.-.-.-.-.-.-.-.-.-.-.-.-.-.-.-.-.-.-.-.-.-.-.-.-.-.-.-.-.-.-.-.2.u.J = @ ",
"@ = J u.2.-.-.-.-.-.-.-.-.-.-.-.-.-.-.-.-.-.-.-.-.-.-.-.-.-.-.-.-.-.-.-.-.-.-.-.-.-.-.-.-.-.-.-.-.-.-.-.-.-.-.-.-.-.-.-.-.-.-.-.-.-.-.-.-.2.u.J = @ ",
"@ = J u.2.-.-.-.-.-.-.-.-.-.-.-.-.-.-.-.-.-.-.-.-.-.-.-.-.-.-.-.-.-.-.-.-.-.-.-.-.-.-.-.-.-.-.-.-.-.-.-.-.-.-.-.-.-.-.-.-.-.-.-.-.-.-.-.-.2.u.J = @ ",
"@ = J u.2.-.-.-.-.-.-.-.-.-.-.-.-.-.-.-.-.-.-.-.-.-.-.-.-.-.-.-.-.-.-.-.-.-.-.-.-.-.-.-.-.-.-.-.-.-.-.-.-.-.-.-.-.-.-.-.-.-.-.-.-.-.-.-.-.2.u.J = @ ",
"@ = J u.2.-.-.-.-.-.-.-.-.-.-.-.-.-.-.-.-.-.-.-.-.-.-.-.-.-.-.-.-.-.-.-.-.-.-.-.-.-.-.-.-.-.-.-.-.-.-.-.-.-.-.-.-.-.-.-.-.-.-.-.-.-.-.-.-.2.u.J = @ ",
"@ = J u.2.-.-.-.-.-.-.-.-.-.-.-.-.-.-.-.-.-.-.-.-.-.-.-.-.-.-.-.-.-.-.-.-.-.-.-.-.-.-.-.-.-.-.-.-.-.-.-.-.-.-.-.-.-.-.-.-.;.;.;.;.-.-.-.-.2.u.J = @ ",
"@ = J u.2.-.-.-.-.-.-.-.-.-.-.-.-.-.-.-.-.-.-.-.-.-.-.-.-.-.-.-.-.-.-.-.-.-.-.-.-.-.-.-.-.-.-.-.-.-.-.-.-.-.-.-.-.-.-.-.-.;.4.4.;.-.-.-.-.2.u.J = @ ",
"@ = J u.2.-.-.-.-.-.-.-.-.-.-.-.-.-.-.-.-.-.-.;.;.;.;.-.-.-.-.-.-.-.-.-.-.-.-.-.-.-.-.-.-.-.-.;.;.;.;.-.-.-.-.-.-.-.-.;.;.@. . .@.;.;.-.-.2.u.J = @ ",
"@ = J u.2.-.-.-.-.-.-.-.-.-.-.-.-.-.-.-.-.-.-.;.4.4.;.-.-.-.-.-.-.-.-.-.-.-.-.-.-.-.-.-.-.-.-.;.4.4.;.-.-.-.-.-.-.-.-.;.9. .n n  .9.;.-.-.2.u.J = @ ",
"@ = J u.2.-.-.-.-.-.-.-.-.-.-.-.-.-.-.-.-.;.4.%. . .%.;.;.-.-.-.-.-.-.-.-.-.-.-.-.-.-.-.-.;.4.%. . .%.;.;.-.-.-.-.;.;.&.{ S t t S { &.;.;.2.u.J = @ ",
"@ = J u.2.-.-.-.-.-.-.-.-.-.-.-.-.-.-.-.-.;.9. .n n  .0.;.-.-.-.-.-.-.-.-.-.-.-.-.-.-.-.-.;.9. .n n  .9.;.-.-.-.-.;.9.{ N y 9 9 y N { 9.4.2.u.J = @ ",
"@ = J u.2.-.-.-.-.-.-.-.-.-.-.-.-.-.-.;.4.&.{ S t t S { &.;.;.-.-.-.-.-.-.-.-.-.-.-.-.;.;.&.{ S t t S { &.;.;.;.;.%.{ F i < 4 4 < i F { %.u.u.J = @ ",
"@ = J u.2.-.-.-.-.-.-.-.-.-.-.-.-.-.-.;.9.{ N y 9 9 y N { 9.;.-.-.-.-.-.-.-.-.-.-.-.-.;.9.{ N y 9 9 y N { 9.4.;.4. .N i 0 4 7 7 4 q i N  .u.u.J = @ ",
"@ = J u.2.-.-.-.-.-.-.-.-.-.-.-.-.;.;.&.{ F i < 4 4 < i F { &.;.;.-.-.-.-.-.-.-.-.;.;.&.{ F i < 4 4 < i F { &.9.9.U g : 4 7 7 7 7 4 : g U g.g.J = @ ",
"@ = J u.2.-.-.-.-.-.-.-.-.-.-.-.-.;.9.{ N i 0 4 7 7 4 0 i N { 9.4.-.-.-.-.-.-.-.-.;.9.{ N i 0 4 7 7 4 0 i N { w.w.U s : 4 7 7 7 7 4 : s U g.g.J = @ ",
"@ = J u.2.-.-.-.-.-.-.-.-.-.-.;.;.%.{ F i < 4 7 7 7 7 4 < i F { %.;.;.-.-.-.-.;.;.%.{ F i < 4 7 7 7 7 4 < i S o.=.X.N i 0 4 7 7 4 0 i N  .u.u.J = @ ",
"@ = J u.2.-.-.-.-.-.-.-.-.-.-.;.4. .N i 0 4 7 7 7 7 7 5 4 0 i N  .4.;.-.-.-.-.;.4. .N i 0 4 7 7 7 7 7 7 4 0 i N X.=.o.F y < 4 4 < i F { %.u.u.J = @ ",
"@ = J u.2.-.-.-.-.-.-.-.-.-.-.;.9.U g : 4 7 7 7 7 7 7 7 7 4 : s U 9.;.-.-.-.-.;.9.U s : 4 7 7 7 7 7 7 7 8 4 : s U w.w.{ N y 9 9 y N { 9.;.2.u.J = @ ",
"@ = J u.2.-.-.-.-.-.-.-.-.-.-.;.9.U s : 4 8 7 7 7 7 7 7 7 4 : s U 9.;.-.-.-.-.;.9.U s : 4 8 7 7 7 7 7 7 7 4 : s U 9.9.&.{ S t t S { &.4.;.2.u.J = @ ",
"@ = J u.2.-.-.-.-.-.-.-.-.-.-.;.4. .N i 0 4 7 7 7 7 7 7 4 0 i N  .;.;.-.-.-.-.;.4. .N i 0 4 7 7 7 7 7 7 4 0 i N  .9.9.9.w.{ N N { w.9.;.-.2.u.J = @ ",
"@ = J u.2.-.-.-.-.-.-.-.-.-.-.;.;.%.{ F i < 4 7 7 7 7 4 < i F { %.;.;.-.-.-.-.;.;.%.{ F i < 4 7 7 7 7 4 < i S { %.;.9.9.w.=.{ { =.w.9.4.;.2.u.J = @ ",
"@ = J u.2.-.-.-.-.-.-.-.-.-.-.-.-.;.9.{ N i 0 4 7 7 4 0 i N { 9.;.-.-.-.-.-.-.-.-.;.9.{ N i 0 4 7 7 4 0 i N { w.9.@. .U U U ^ ^ ^ E E  .@.2.u.J = @ ",
"@ = J u.2.-.-.-.-.-.-.-.-.-.-.-.-.;.4.&.{ F i < 4 4 < i F { &.;.;.-.-.-.-.-.-.-.-.;.4.&.{ F i < 4 4 < i F { &.9.9. .N g s k k c v c k N  .u.u.J = @ ",
"@ = J u.2.-.-.-.-.-.-.-.-.-.-.-.-.-.-.4.9.{ N y 9 9 y N { 9.;.-.-.-.-.-.-.-.-.-.-.-.-.4.9.{ N y 9 9 y N { 9.;.;.9.U g 8 t v v i q < : k E g.g.J = @ ",
"@ = J u.2.-.-.-.-.-.-.-.-.-.-.-.-.-.-.;.;.&.{ S t t S { &.;.;.-.-.-.-.-.-.-.-.-.-.-.-.;.;.&.{ S t t S { &.;.;.;.9.U g t S ' ' G i < > k E g.g.J = @ ",
"@ = J u.2.-.-.-.-.-.-.-.-.-.-.-.-.-.-.-.-.4.9. .n n  .9.;.-.-.-.-.-.-.-.-.-.-.-.-.-.-.-.-.4.9. .n n  .9.;.-.-.;.9.U g t S ' ' H a 2 < v ^ g.g.J = @ ",
"@ = J u.2.-.-.-.-.-.-.-.-.-.-.-.-.-.-.-.-.;.4.%. . .%.;.;.-.-.-.-.-.-.-.-.-.-.-.-.-.-.-.-.;.4.%. . .%.4.;.-.-.;.9.U g 8 t v v p w 4 4 v ^ g.g.J = @ ",
"@ = J u.2.-.-.-.-.-.-.-.-.-.-.-.-.-.-.-.-.-.-.;.4.4.;.-.-.-.-.-.-.-.-.-.-.-.-.-.-.-.-.-.-.-.-.;.4.4.;.-.-.-.;.;.;. .N c k c c a w 4 4 v ^ g.g.J = @ ",
"@ = J u.2.-.-.-.-.-.-.-.-.-.-.-.-.-.-.-.-.-.-.;.;.;.;.-.-.-.-.-.-.-.-.-.-.-.-.-.-.-.-.-.-.-.-.;.;.;.;.-.-.-.-.;.;.@.{ / ^ _ _ H a 2 < v ^ g.g.J = @ ",
"@ = J u.2.-.-.-.-.-.-.-.-.-.-.-.-.-.-.-.-.-.-.-.-.-.-.-.-.-.-.-.-.-.-.-.-.-.-.-.-.-.-.-.-.-.-.-.-.-.-.-.-.-.-.;.;.@. .^ ^ _ _ G i < : k E g.g.J = @ ",
"@ = J u.2.-.-.-.-.-.-.-.-.-.-.-.-.-.-.-.-.-.-.-.-.-.-.-.-.-.-.-.-.-.-.-.-.-.-.-.-.-.-.-.-.-.-.-.-.-.-.-.-.-.-.;.;. .n g k c v i q < : k E g.g.J = @ ",
"@ ; K d.2.-.-.-.-.-.-.-.-.-.-.-.-.-.-.-.-.-.-.-.-.-.-.-.-.-.-.-.-.-.-.-.-.-.-.-.-.-.-.-.-.-.-.-.-.-.-.-.-.-.-.;.4.] n s s g g k c c k N  .u.j.K ; @ ",
"@ ; L h.2.-.-.-.-.-.-.-.-.-.-.-.-.-.-.-.-.-.-.-.-.-.-.-.-.-.-.-.-.-.-.-.-.-.-.-.-.-.-.-.-.-.-.-.-.-.-.-.-.-.-.;.;.@.' P P U U U E E E  .@.u.j.L ; @ ",
"@ * A [ O.3.2.2.2.2.2.2.2.2.2.2.2.2.2.2.2.2.2.2.2.2.2.2.2.2.2.2.2.2.2.2.2.2.2.2.2.2.2.2.2.2.2.2.2.2.2.2.2.2.2.2.2.u.u.g.u.u.u.g.g.g.g.u.u.O.[ A * @ ",
"# % & Z [ h.d.u.u.u.u.u.u.u.u.u.u.u.u.u.u.u.u.u.u.u.u.u.u.u.u.u.u.u.u.u.u.u.u.u.u.u.u.u.u.u.u.u.u.u.u.u.u.u.u.u.u.u.u.g.g.g.g.g.g.g.g.j.j.[ Z & % # ",
"$ @ . & A L K J J J J J J J J J J J J J J J J J J J J J J J J J J J J J J J J J J J J J J J J J J J J J J J J J J J J J J J J J J J J K L A & . @ $ ",
"    @ % * ; ; = = = = = = = = = = = = = = = = = = = = = = = = = = = = = = = = = = = = = = = = = = = = = = = = = ; = = = = = = = = = = ; ; * % @     ",
"    $ # @ @ @ @ @ @ @ @ @ @ @ @ @ @ @ @ @ @ @ @ @ @ @ @ @ @ @ @ @ @ @ @ @ @ @ @ @ @ @ @ @ @ @ @ @ @ @ @ @ @ @ @ @ @ @ @ @ @ @ @ @ @ @ @ @ @ # $     "
};
