/* XPM */
static char *diamonds_k[] = {
/* columns rows colors chars-per-pixel */
"74 104 216 2 ",
"   c None",
".  c #1E012E",
"X  c #1E0531",
"o  c #1E0834",
"O  c #21012E",
"+  c #2D022E",
"@  c #230531",
"#  c #240834",
"$  c #2B0B35",
"%  c #2C0733",
"&  c #2B123B",
"*  c #31143C",
"=  c #320731",
"-  c #4A042C",
";  c #4B082F",
":  c #46002D",
">  c #57042B",
",  c #59052B",
"<  c #57092E",
"1  c #5C092E",
"2  c #540025",
"3  c #4D0930",
"4  c #470331",
"5  c #56143A",
"6  c #5A1639",
"7  c #561539",
"8  c #4E152E",
"9  c #750528",
"0  c #6D1E27",
"q  c #522B29",
"w  c #512627",
"e  c #50292E",
"r  c #77282A",
"t  c #603A3C",
"y  c #774724",
"u  c #79441E",
"i  c #462B4E",
"p  c #422648",
"a  c #583747",
"s  c #442C51",
"d  c #482E50",
"f  c #4B3253",
"g  c #493456",
"h  c #543354",
"j  c #543B5A",
"k  c #583F5D",
"l  c #583653",
"z  c #542D4F",
"x  c #78314D",
"c  c #743551",
"v  c #6F2F4C",
"b  c #533F61",
"n  c #59415E",
"m  c #55415E",
"M  c #7B5549",
"N  c #644857",
"B  c #765155",
"V  c #544361",
"C  c #594461",
"Z  c #624B66",
"A  c #705B72",
"S  c #7C6A7D",
"D  c #77647A",
"F  c #6F6176",
"G  c #8A0929",
"H  c #A20926",
"J  c #A20C29",
"K  c #A40625",
"L  c #AE152E",
"P  c #802C26",
"I  c #9F001E",
"U  c #CB021B",
"Y  c #FF0215",
"T  c #FF071A",
"R  c #FF0A1D",
"E  c #CC0B24",
"W  c #C90720",
"Q  c #D10C24",
"!  c #DC0C23",
"~  c #DB162B",
"^  c #FF0F20",
"/  c #F60D20",
"(  c #FF1223",
")  c #FF192A",
"_  c #D42D21",
"`  c #FE303D",
"'  c #DA2F1E",
"]  c #BC7A16",
"[  c #BC7B1A",
"{  c #9D6426",
"}  c #A46A29",
"|  c #9E5C1E",
" . c #CE7E1A",
".. c #C1611E",
"X. c #EA7F17",
"o. c #82334D",
"O. c #C63448",
"+. c #C93548",
"@. c #FD3541",
"#. c #FD3F4A",
"$. c #FB3845",
"%. c #82455E",
"&. c #816C7B",
"*. c #81666A",
"=. c #D74655",
"-. c #FF454E",
";. c #FD4650",
":. c #FF4952",
">. c #FC7276",
",. c #FF7679",
"<. c #FF797A",
"1. c #FB6E72",
"2. c #BC863B",
"3. c #CA8616",
"4. c #C8800F",
"5. c #EF9F0B",
"6. c #E8990B",
"7. c #E49A13",
"8. c #EE8B13",
"9. c #EFA00F",
"0. c #F3A20D",
"q. c #EFA113",
"w. c #EFA61D",
"e. c #F3A513",
"r. c #F5A918",
"t. c #CC8A23",
"y. c #CC8F31",
"u. c #E7A93A",
"i. c #F2B33A",
"p. c #F3B136",
"a. c #F1AD2F",
"s. c #CA974A",
"d. c #F1B645",
"f. c #F5BA49",
"g. c #F5B946",
"h. c #F2BF5F",
"j. c #F3C56B",
"k. c #F6C972",
"l. c #F2C772",
"z. c #EFC16A",
"x. c #7C6D81",
"c. c #7D7284",
"v. c #816E81",
"b. c #827183",
"n. c #9B8585",
"m. c #9A8B96",
"M. c #9B8D99",
"N. c #9C919B",
"B. c #A98D96",
"V. c #AA9797",
"C. c #B29E94",
"Z. c #B8A498",
"A. c #A699A2",
"S. c #B8AFB1",
"D. c #C48F95",
"F. c #C39197",
"G. c #C59499",
"H. c #D49094",
"J. c #FA8D8D",
"K. c #FA908F",
"L. c #FA9594",
"P. c #CBB191",
"I. c #C5B5A9",
"U. c #C1B7B7",
"Y. c #C2B8B7",
"T. c #C1B7B8",
"R. c #C3BBBB",
"E. c #C9BFBD",
"W. c #FABCB5",
"Q. c #FBBFB8",
"!. c #EDBEB8",
"~. c #F4D28C",
"^. c #EDCD91",
"/. c #C2C0BE",
"(. c #CAC1BE",
"). c #D4C7BC",
"_. c #D1C1AE",
"`. c #FEC4BB",
"'. c #F9C6BD",
"]. c #EAD8B5",
"[. c #F4DFB2",
"{. c #EEC2BC",
"}. c #F6E1B3",
"|. c #F9E4B4",
" X c #F5E4BC",
".X c #FBE8BA",
"XX c #F7E1AF",
"oX c #C4BFC1",
"OX c #CEC6C3",
"+X c #CFCAC6",
"@X c #CCC8C6",
"#X c #D2CBC6",
"$X c #D3CDC9",
"%X c #D6C4C1",
"&X c #D8D2CA",
"*X c #F7CEC4",
"=X c #F8CBC2",
"-X c #FDD1C7",
";X c #FAD2C8",
":X c #FAEBC3",
">X c #F6E9C6",
",X c #EAE6DB",
"<X c #EEEADD",
"1X c #EEE8D7",
"2X c #F6EBDC",
"3X c #F8E9DB",
"4X c #FAF3DC",
"5X c #F9EFE0",
"6X c #F6F3E4",
"7X c #F9F6E6",
"8X c #F6F5E9",
"9X c #F6FBEB",
"0X c #FBF9E9",
"qX c #FAF7E8",
"wX c #F2F3EB",
"eX c #BFC1BF",
/* pixels */
"    # @ O O O O O O O O O O O O O O O O O O O O O O O O O O O O O O O O O O O O O O O O O O O O O O O O O O O O O O O O O O O O O O O O O O @ #     ",
"    O * f n n n n n k k k k k k k k k k k k k k k k k k k k k k k k k k k k k k k k k k k k k k k k k k k k k k k k k k k k k k k k k n n f * O     ",
"# O . d m.R.R.Y.Y.Y.Y.Y.Y.Y.Y.Y.U.U.Y.Y.Y.Y.Y.Y.Y.Y.Y.Y.U.U.U.U.Y.Y.Y.Y.Y.Y.Y.Y.U.U.U.U.Y.Y.Y.Y.Y.Y.Y.Y.U.U.U.U.Y.Y.Y.Y.Y.Y.Y.Y.U.Y.U.R.R.m.d . O # ",
"@ * d v.$X0X0X0X0X0X0X0X0X0X0X0X0X0X0X0X0X0X0X0X0X0X0X0X0X0X0X0X0X0X0X0X0X0X0X0X0X0X0X0X0X0X0X0X0X0X0X0X0X0X0X0X0X0X0X0X0X0X0X0X0X0X0X0X0X$Xv.d * @ ",
"O f m.$X<X0X0X0X0X0XqXqX0X0X0X0XqXqXqXqXqXqXqXqXqXqXqXqXqXqXqXqXqXqXqXqXqXqXqXqXqXqXqXqXqXqXqXqXqXqXqXqXqXqXqXqXqXqXqXqXqXqXqXqXqXqXqXqX0X<X$Xm.f O ",
"O n R.0X0X3X=XW.W.=X3X2X=XW.W.=X3X6XqXqXqXqXqXqXqXqXqXqXqXqXqXqXqXqXqXqXqXqXqXqXqXqXqXqXqXqXqXqXqXqXqXqXqXqXqXqXqXqXqXqXqXqXqXqX6X6X6X6X6XqX0XR.n O ",
"O n R.0X0X=X>.-.#.>.;X;X>.#.-.>.=X9X0X0X0X0X0X0X0X0X0X0X0X0X0X0X0X0X0X0X0X0X0X0X0X0X0X0X0X0X0X0X0X0X0X0X0X0X0X0X0X0X0X0X0X0X0XqXqX6X6X6X6XqX0XR.n O ",
"O k Y.0X0XW.-.Y Y $.L.L.$.Y Y -.W.,X+XU.U.U.U.U.U.U.U.U.U.U.U.U.U.U.U.U.U.U.U.U.U.U.U.U.U.U.U.U.U.U.U.U.U.U.U.U.U.U.U.U.U.U.Y.#X,XqX6X6X6XqX0XU.k O ",
"O n Y.0X0XW.-.T T ) $.$.) T Y -.Q.+XS h j j j j j j j j j j j j j j j j j j j j j j j j j j j j j j j j j j j j j j j j j j j S #XqXqX6X6XqX0XU.k O ",
"O n Y.0X0XW.;.R R R T T R ) $.,.*X+XS h j j j j j j k k k k k k j j j k k k j j k k k k j j j j j j j j j j j j j j j j j i $ j Y.0XqX6X6XqX0XU.k O ",
"O n Y.0X0XW.;.R R R T T R $.L.;X2X,XOXU.U.U.U.U.U.T.Y.R.Y.Y.R.Y.T.T.Y.Y.R.Y.T.T.Y.R.R.Y.T.U.U.U.U.U.U.U.U.U.U.U.U.U.U.Y.R.m.i j U.0XqX6X6XqX0XU.k O ",
"O n Y.0X0XW.;.R R ) $.$.) $.L.;X3X6X0X0X0X0X0X0X0X4X:X|.|.|.|.:X6X4X:X|.|.:X6X4X:X|.|.:X4X0X0X0X0X0X0X0X0X0X0X0X0X0X0X0X0XR.j j U.0XqX6X6XqX0XU.k O ",
"O n Y.0X0XW.;.T T $.L.L.$.) $.>.=X9X0XqXqXqXqX0X0X:Xk.g.g.g.g.k.>X>Xk.d.d.k.>X>Xk.d.d.k.:X0X0XqXqXqXqXqXqXqXqX0X0X0XqX0X0XY.j j U.0XqX6X6XqX0XY.k O ",
"O n Y.0X0XW.-.Y Y :.'.'.:.Y Y #.W.9X6X6X6X6X6X,X+XP.u.6.3.4.7.i.~.~.i.5.5.i.~.~.i.5.5.u.P.+X,X6X6X6XqXqX6X2X X[.[. X2XqX0XU.j j U.0XqX6X6XqX0XY.k O ",
"O k Y.0X0XW.-.Y Y ;.'.'.;.Y Y #.W.9X6X6X6XqXqXOXx.M t.3.y y 3.r.i.i.w.9.9.w.i.i.w.0.0.t.M x.OXqXqX6XqX0X8X Xj.d.d.j. X0X0XU.j j U.0XqX6X6XqX0XY.k O ",
"O k Y.0X0X=X1.#.#.>.;X;X>.#.#.>.=X6X6X6X6XqX0XT.j 8 | } r 0 | 3.7.e.e.e.e.q.q.q.q.e.e.] w j T.0X0X,XOX+X,X}.d.5.5.d.[.0X0XU.j j U.0XqX6X6XqX0XY.k O ",
"O k Y.0X0X3X=XW.W.=X2X2X=XW.W.=X3X6X6X6X6XqX0XT.j O 8 r L L r y 3.e.e.e.e.q.q.q.q.e.e.] w j T.0X0XOXS S OX|.g.5.5.d.[.0X0XU.j j U.0XqX6X6XqX0XU.k O ",
"O k Y.0XqX6X6X9X9X2X=X=X2X9X9X8X6X6X6X6X6XqXqX#X&.s & , Q Q < e ..8. .3.7.e.e.e.q.e.r.[ w j Y.qX2XS.f j R..Xf.5.5.d.[.0X0XU.j j U.0XqX6X6XqX0XU.k O ",
"O n Y.0XqX6X6X9X9X*X1.1.*X9X9X6X6X6X6X6X6X6X6X<X$Xm.s 2 Q Q < < _ ' P y 3.r.r.e.e.e.r.] w j R.2X).n.p j E..Xf.5.5.d.[.0X0XU.j j U.0XqX6X6XqX0XU.k O ",
"O n Y.0XqX6X6X2X*XJ.` ` J.*X2X6X6X6X6X6X6X6X6XqX0X$Xx.x L H - - K K : w ..8. . .X.X. .} B D R.&XI.n.N Z A.P.u.0.0.d.[.0X0XU.j j U.0XqX6X6XqX0XU.k O ",
"O k Y.0XqX6X9X*X>.@.) ) @.>.*X9X6X6X6X6X6X6X6X6XqX<X$XB.c - + + - : + < _ ' r r ' ' P B V.R.Y.I.Z.V.n.&.Z M t.0.0.d.[.0X0XU.j j U.0XqX6X6XqX0XY.k O ",
"O k Y.0X0X3X*XK.$.T R R T $.J.*X3X6X6X6X6X6X6X6X6X0X0X(.k $ d n n V V c L H 4 4 H K : b E.1XI.C.Z.Z.Z.n.n t { 3.7.d.}.0X0XU.j j U.0XqX6X6XqX0XU.k O ",
"O n Y.0X0X=X>.$.) R R R R ) $.>.=X6X6X6X6X6X6X6X6X0X0XE.j i m.E.R.R.E.B.c : + % 4 : + b E.1XI.C.Z.Z.Z.C.n.*.a y 3.g.}.0X0XU.j j U.0XqX6X6XqX0XU.k O ",
"O n Y.0X0XW.#.Y R ^ ^ ^ ^ R Y #.W.9X6X6X6X6X6X6X6X,X#XA.A &.#X0X0X0X0X).B w q q q q w B ).,XI.C.Z.Z.Z.C.n.*.a y 3.g.}.0X0XU.j j U.0XqX6X6XqX0XU.k O ",
"O k Y.0X9XW.-.Y R ^ ^ ^ ^ R Y #.W.9X6X6X6X6X6XqXqXOXS A A.&X<XqXqX0X0X].s.] ] [ [ ] ] s.].,XI.C.Z.Z.Z.n.N t { 3.7.d.}.0X0XU.j j U.0XqX6X6XqX0XU.k O ",
"O k Y.0X0X=X>.$.) R R R R ) $.>.=X8X6X6X6X6X6XqX0XU.f p m.&X<X8X8X8X8X Xj.p.r.e.e.e.0.i.~.]._.I.Z.V.n.&.Z M t.0.0.d.[.0X0XU.j j U.0XqX6X6XqX0XU.k O ",
"O k Y.0X0X3X*XK.@.T R R T $.K.*X3X6X6X6X6X6X6XqX0XU.j @ i b.$X0X0X8X6X4X>X~.i.e.e.e.e.w.p.z.].&XI.n.N Z A.P.u.0.0.d.[.0X0XU.j j U.0XqX6X6XqX0XU.k O ",
"O k Y.0XqX6X9X*X>.` ) ) @.>.*X9X6X6X6X6X6X6X6XqXqX#Xv.s # h P.|.XX X2X8X9X Xd.9.q.q.q.q.5.d.}.<X).n.p j E..Xf.5.5.d.[.0X0XU.j j U.0XqX6X6XqX0XU.k O ",
"O k Y.0XqX6X6X2X*XJ.` ` J.*X2X8X6X6X6X6X6X6X6X6X6X<X$XM.s e 2.d.i.z. X8X9X Xd.9.q.q.q.q.9.d.}.8X<XS.f j R..Xf.5.5.d.[.0X0XU.j j U.0XqX6X6XqX0XY.k O ",
"O n Y.0XqX6X6X6X9X=X>.>.=X9X6X6X6X6X6X6X6X6X6X8X8X4X:XP.M y y.d.d.j.>X6X>X~.i.q.q.q.q.q.q.d.}.0X0X#XS S OX|.f.5.5.d.[.0X0XU.j j U.0XqX6X6XqX0XY.k O ",
"O k Y.0XqX6X6X6X6X3X=X=X3X6X6X6X6X6X6X6X6X6X8X8X8X>Xk.u.3.y.^.}.}.>X6X>Xl.p.w.q.q.q.q.q.q.f.|.0X0X<X#XOX,X}.d.5.5.d.[.0X0XU.j j U.0XqX6X6XqX0XY.k O ",
"O k Y.0XqX6X6X6X6X,X+X+X,X6X6X6X6X6X6X6XqX4X X}.}.~.p.e.p.k.>X6X>X}.}.~.p.5.q.q.q.q.q.e.e.u.P.S.S.+X<X0X0X[.d.5.5.d.[.0X0XU.j j U.0XqX6X6XqX0XY.k O ",
"O k U.0XqX6X6XqXqXOXS S OXqXqX6X6X6X6X6X0X:Xk.d.d.p.w.p.~.>X6X>Xl.d.d.i.w.q.q.q.q.q.q.e.e.t.M j j x.$X0X0X[.d.5.5.d.[.0X0XU.j j U.0XqX6X6XqX0XU.k O ",
"O k U.0XqX6X6XqX0XU.h h U.0XqX6X6X6X6X,X#XP.2.4.7.0.0.i.~.|.|.~.p.0.0.e.e.e.e.e.e.e.e.7.3.} B z 3 v B.$X<X}.d.5.5.d.[.0X0XU.j j U.0XqX6X6XqX0XU.k O ",
"O k U.0XqX6X6XqX0XU.j j U.0XqX6X6XqXqX#XS h e u 3.e.e.w.i.f.f.i.r.0.0.e.e.e.e.e.e.e.r.3.y N V.F.+.L v x.+X|.f.5.5.d.[.0X0XU.j j U.0XqX6X6XqX0XU.k O ",
"O k U.0XqX6X6XqX0XU.j j U.0XqX6X6XqX0XR.j $ s B } [ [ [ ] ] ] ] ] [ [ [ [ [ ] ] [ [ [ | 0 B %X`.:.U 2 j R..Xf.0.0.d.}.0X0XU.j j U.0XqX6X6XqX0XU.k O ",
"O k Y.0XqX6X6XqX0XU.j j U.0XqX6X6X0X0XR.j i M.V.B q w q q q w w q q q q q q q q q q q 0 K =.{.`.:.U 2 V OX.Xf.0.0.g.}.0X0XU.j j U.0XqX6X6XqX0XY.k O ",
"O k Y.0XqX6X6XqX0XU.j j U.0XqXqXqX<X$Xm.i n OX%X%.3 z h 5 5 h h 5 5 h h 5 5 h h 5 5 h x ~ :.`.{.=.K - g N.P.s.] ] s.].0X0XU.j j U.0XqX6X6XqX0XU.k O ",
"O k Y.0XqX6X6XqX0XU.j j U.0XqXqX0X$Xv.i $ C OX'.=.O.F.F.O.O.F.F.O.O.F.F.O.O.F.F.O.O.F.H.$.;.`.%X%.- + * f l t q w B ).0X0XU.j j U.0XqX6X6XqX0XU.k O ",
"O k Y.0XqX6X6XqX0XU.j j U.0X0X<X$Xm.s . . f N.H.$.:.`.`.;.;.`.`.-.-.`.`.;.;.`.`.-.;.`.`.:.$.H.N.g o @ @ @ O @ . . s M.&X5XY.j j U.0XqX6X6XqX0XU.k O ",
"O k Y.0XqX6X6XqX0XU.j j U.0X0X$Xx.s & X @ * g o.~ :.`.`.;.;.`.`.;.-.`.`.-.-.`.`.-.;.`.`.:.~ o.g & @ @ @ @ @ @ . . $ d b.$XR.k j U.0XqX6X6XqX0XU.k O ",
"O k Y.0XqX6X6XqX0XU.j j R.6X&XB.v 2 , 3 = @ X - K +.G.F.O.O.F.F.+.+.F.F.O.O.F.F.+.+.F.G.+.K 9 < < 3 = @ @ * f C C d $ n E.R.k j U.0XqX6X6XqX0XU.k O ",
"O k Y.0XqX6X6XqX0XU.j k E.&Xc.v L E Q J 3 @ @ + - 7 l h 7 7 l l 6 6 h h 7 7 h h 6 6 l l 7 9 K E Q J 3 @ @ f N.(.(.m.i j R.R.k j U.0XqX6X6XqX0XU.k O ",
"O k Y.0XqX6X6XqX0XU.j f N.V.v 9 ! ( ( E 1 # # = 3 < > > < ; + @ @ % - < < < , ; = @ @ + ; G ! ^ ^ Q 1 o X n E.0X0XR.j n E.E.n j U.0XqX6X6XqX0XU.k O ",
"O k U.0XqX6X6XqX0XY.k & d c L ! / ^ ^ E 1 # # 3 J E E E E J - o o ; H E E E E H ; o o ; J ! ^ ^ ^ Q 1 o X n E.0X0XY.j n (.(.n j U.0XqX6X6XqX0XY.k O ",
"O k U.0XqX6X6XqX0XR.n . . , Q ( ^ ^ ^ E 1 o o 1 Q ( ^ ^ ^ Q 1 o o 1 Q ( ^ ^ ! H ; o o ; H Q E E E J ; . . n R.0X0XY.j d N.N.f j U.0XqX6X6XqX0XY.k O ",
"O k U.0XqX6X6XqX0XR.n . . < Q ( ^ ^ ^ E 1 o o 1 Q ( ^ ^ ^ Q 1 o o 1 Q ( ^ ! G - % # # % ; , < < < ; + . O n E.0X0XE.n & d d & k Y.0XqX6X6XqX0XY.k O ",
"O k U.0XqX6X6XqX0XR.n . o ; H E E E E H - o o 3 J E E E E H - o o ; J E E L c h 6 , , 6 h l 7 < < 7 l f & d m.E.E.B.c , 2 - + n Y.0XqX6X6XqX0XY.k O ",
"O k Y.0XqX6X6XqX0XR.n O o % - > > > > - + @ @ % 3 < , , > - + O O + ; < < c V.G.+.U U +.F.G.+.W W +.G.N.f $ i j j x L E E H - n Y.0XqX6X6XqX0XY.k O ",
"O k Y.0XqX6X6XqX0XY.n + - 6 h V V V V V n l 6 , , 7 h V V V V C n l 5 2 2 B ).-X,.-.-.<.;X`.;.Y Y :.`.&Xb.k j j j x ~ R R E 2 m Y.0XqX6X6XqX0XU.k O ",
"O k Y.0XqX6X6XqX0XY.n - I +.D.R./././././.D.+.U U O.F.R./././.(.E.D.O.U U =.!.5X-XQ.'.;X5XW.-.Y Y -.Q.<X$XR.R.R.S.H.$.T T U 2 n Y.0XqX6X6XqX0XU.k O ",
"O k Y.0XqX6X6XqX0XY.k 5 +.,.-X4X-X`.`.-X7X-X,.-.-.,.*X5X-X`.`.-X5X*X,.-.-.,.*X4X;XQ.W.;X4X*X,.-.-.,.*X4X-XQ.Q.-X7X-X,.;.:.+.7 k Y.0XqX6X6XqX0XY.k O ",
"O k Y.0XqX6X6XqX0XU.j z D.;X7X*X,.-.-.,.-X7X-XW.W.;X4X*X,.-.-.,.*X4X;XQ.Q.-X5X*X,.-.-.,.*X5X-XQ.`.-X5X*X,.-.-.,.-X7X-X`.`.F.z j U.0XqX6X6XqX0XY.k O ",
"O k Y.0XqX6X6XqX0XU.j z F.;X7X!.+.U U O.D.).{.`.`.;X5XW.-.Y Y -.W.5X-X{.E.eXR.D.+.U U +.F./././././.R.D.+.U U O.F././.OXOXM.d j U.0XqX6X6XqX0XU.k O ",
"O k Y.0XqX6X6XqXqXY.k 7 +.<.;X).c 2 2 7 h %.=.;.-.,.;X`.:.Y Y ;.`.;X,.=.B V V h 6 , , 6 h V V V V V C l 6 , , 7 h V V V C f & k Y.0XqX6X6XqX0XU.k O ",
"O k Y.0XqX6X6XqX0XY.n - I +.D.A.F j n d & - K U U O.F.G.+.W W +.G.G.+.K 9 > 2 - % # # % - > > > > - + @ @ % 3 < > > > - + . O n R.0XqX6X6XqX0XU.k O ",
"O k U.0XqX6X6XqX0XY.n + - < z F A.(.(.M.f + - , , 7 h l 7 < < 7 l h 7 9 K E E H ; o o ; H E E E E H - o o 3 J E E E E H - . . n R.0XqX6X6XqX0XU.k O ",
"O k U.0XqX6X6XqX0XR.k & d s $ j R.0X0XE.n @ o % 3 < < < < 3 % @ @ + ; G ! R ^ Q 1 o o 1 Q ^ ^ ^ ^ Q 1 o o 1 E ( ^ ^ ^ Q < . . n R.0XqX6X6XqX0XU.k O ",
"O k U.0XqX6X6XqX0XY.j f N.M.i j R.0X0XE.n X o 3 J E E E E J 3 o o ; J ! ^ ( ( Q 1 o o 1 Q ^ ^ ^ ^ Q 1 o o 1 E ^ ^ ^ ^ Q , . . n R.0XqX6X6XqX0XU.k O ",
"O k U.0XqX6X6XqX0XU.j n (.(.n j R.0X0XR.n X o 1 Q ^ ( ^ ! J ; o o ; H Q E E E H ; o o ; J E E E E J 3 # # 1 E ^ ^ / ! L c d & n Y.0XqX6X6XqX0XU.k O ",
"O k Y.0XqX6X6XqX0XU.j n E.E.n j R.0X0XE.n . o 1 Q ^ ^ ! G ; + @ @ = ; , < < > - % @ @ + ; < > > < 3 = # # 1 E ( ( ! 9 v V.N.f j U.0XqX6X6XqX0XY.k O ",
"O k Y.0XqX6X6XqX0XU.j k R.R.j i m.(.(.N.f @ @ 3 J E E K 9 7 l l 6 6 h h 7 7 h h 6 6 l l 7 7 h l 7 - + @ @ 3 J Q E L v c.&XE.k j U.0XqX6X6XqX0XY.k O ",
"O k Y.0XqX6X6XqX0XU.j k R.E.k $ d C n f * @ @ = 3 < < 9 K +.G.F.+.+.F.F.O.O.F.F.+.+.F.F.O.O.F.G.+.K - o @ = 3 , 2 v B.&X6XR.j j U.0XqX6X6XqX0XY.k O ",
"O k Y.0XqX6X6XqX0XU.j k R.$Xb.i $ . . @ @ @ @ @ @ & g o.~ :.`.`.-.-.`.`.;.-.`.`.;.;.`.`.;.;.`.`.:.~ o.g * @ X & s x.$X0X0XU.j j U.0XqX6X6XqX0XY.k O ",
"O k Y.0XqX6X6XqX0XU.j j Y.5X&XM.s . . @ @ @ @ @ X g N.H.$.:.`.`.;.;.`.`.;.;.`.`.-.;.`.`.-.;.`.`.:.$.H.N.f . . s m.$X<X0X0XU.j j U.0XqX6X6XqX0XU.k O ",
"O k Y.0XqX6X6XqX0XU.j j U.0X0X).B w q t l f * + - %.%X`.;.$.H.F.O.O.F.F.O.O.F.F.O.O.F.F.O.O.F.F.O.=.'.OXC $ i v.$X0XqXqX0XU.j j U.0XqX6X6XqX0XU.k O ",
"O k Y.0XqX6X6XqX0XU.j j U.0X0X].s.] ] s.P.N.g - I =.{.`.:.~ x h 5 5 h h 5 5 h h 5 5 h h 5 5 h z 3 %.%XOXn i m.$X<XqX6XqX0XU.j j U.0XqX6X6XqX0XU.k O ",
"O k Y.0XqX6X6XqX0XU.j j U.0X0X}.g.0.0.f..XOXV 2 U :.`.{.=.K 0 q q q q q q q q q q q w w q q q w q B V.M.s j R.0XqX6X6XqX0XU.j j U.0XqX6X6XqX0XU.k O ",
"O k U.0XqX6X6XqX0XU.j j U.0X0X}.g.0.0.f..XR.j 2 U :.`.%XB 0 | [ [ [ [ [ [ [ [ [ [ [ ] ] ] ] [ [ [ } B s $ j R.0XqX6X6XqX0XU.j j U.0XqX6X6XqX0XY.k O ",
"O k U.0XqX6X6XqX0XU.j j U.0X0X[.d.5.5.f.|.+Xx.v L +.F.V.N y 3.e.e.e.e.e.e.e.e.e.e.r.i.f.f.i.w.e.e.3.u e h S #XqXqX6X6XqX0XU.j j U.0XqX6X6XqX0XY.k O ",
"O k U.0XqX6X6XqX0XU.j j U.0X0X[.d.5.5.d.}.<X$XB.v 3 z B } 3.7.e.e.e.e.e.e.e.e.e.0.p.~.|.|.~.i.0.0.7.4.2.P.#X,XqX6X6X6XqX0XU.h h U.0XqX6X6XqX0XY.k O ",
"O k U.0XqX6X6XqX0XU.j j U.0X0X[.d.5.5.d.[.0X0X$Xx.j j M t.e.e.q.q.q.q.q.q.q.q.w.i.l.>X6X>X~.p.w.p.d.d.k.:X0XqX6X6X6X6XqXqXOXS S OXqXqX6X6XqX0XY.k O ",
"O k Y.0XqX6X6XqX0XU.j j U.0X0X[.d.5.5.d.[.0X0X<X+XS.S.P.u.e.e.q.q.q.q.q.q.5.5.p.~.>X6X>Xk.p.e.p.~.}.}. X4XqX6X6X6X6X6X6X6X,X+X+X,X6X6X6X6XqX0XY.k O ",
"O k Y.0XqX6X6XqX0XU.j j U.0X0X[.d.5.5.d.}.,XOX#X<X0X0X|.d.9.q.q.q.q.q.w.i.d.d.z.^. X}.^.y.3.u.k.>X8X8X6X6X6X6X6X6X6X6X6X6X3X=X=X3X6X6X6X6XqX0XY.k O ",
"O k Y.0XqX6X6XqX0XU.j j U.0X0X[.d.5.5.f.|.OXS S #X0X0X}.d.q.q.q.q.q.q.i.~.}.}.^.h.d.d.y.y M P.:X4X8X8X6X6X6X6X6X6X6X6X6X9X=X1.1.=X9X6X6X6XqX0XY.k O ",
"O k Y.0XqX6X6XqX0XU.j j U.0X0X[.d.5.5.f..XR.j f S.2X8X}.d.9.q.q.q.q.9.d. X9X9X>Xz.i.d.2.e s M.$X<X6X6X6X6X6X6X6X6X6X6X2X*XJ.` ` J.*X2X6X6XqX0XY.k O ",
"O k Y.0XqX6X6XqX0XU.j j U.0X0X[.d.5.5.f..XE.j p n.).<X}.d.5.q.q.q.q.9.d. X9X8X2X X}.|.P.h # s v.#XqXqX6X6X6X6X6X6X6X9X*X>.@.) ) @.>.*X9X6XqX0XY.k O ",
"O k Y.0XqX6X6XqX0XU.j j U.0X0X[.d.0.0.u.P.A.Z N n.I.&X].z.p.w.e.e.e.e.i.~.>X4X6X8XqX0X$Xb.i # j U.0XqX6X6X6X6X6X6X3X*XK.$.T R R T $.J.*X3XqX0XY.k O ",
"O k Y.0XqX6X6XqX0XU.j j U.0X0X[.d.0.0.t.M Z &.n.V.Z.I._.].~.i.e.e.e.e.r.p.j. X8X8X8X8X<X&Xm.p f U.0XqX6X6X6X6X6X8X=X>.$.) R R R R ) $.>.=X0X0XY.k O ",
"O k Y.0XqX6X6XqX0XU.j j U.0X0X}.d.7.3.{ t N n.Z.Z.Z.C.I.,X].s.] ] [ [ ] ] s.].0X0XqX0X<X&XA.A S OXqXqX6X6X6X6X6X9XW.-.Y R ^ ^ ^ ^ R Y #.W.0X0XY.k O ",
"O k U.0XqX6X6XqX0XU.j j U.0X0X}.g.3.y a *.n.C.Z.Z.Z.C.I.,X).B w q q q q w B ).0X0X0X0X#XS A A.#X,X6X6X6X6X6X6X6X9XW.#.Y R ^ ^ ^ ^ R Y #.W.0X0XU.k O ",
"O k U.0XqX6X6XqX0XU.j j U.0X0X}.g.3.y a *.n.C.Z.Z.Z.C.I.1XE.b + : ; % + : c B.E.R.E.E.m.i j E.0X0X6X6X6X6X6X6X6X6X=X>.$.) R ^ ^ R ) $.>.=X0X0XU.k O ",
"O k U.0XqX6X6XqX0XU.j j U.0X0X}.d.7.3.{ t n n.Z.Z.Z.C.I.1XE.b : K H 4 4 H L c V m n n d $ j E.0X0X6X6X6X6X6X6X6X6X3X*XJ.@.T R R T $.K.*X3X0X0XU.k O ",
"O k U.0XqX6X6XqX0XU.j j U.0X0X[.d.0.0.t.M Z &.n.V.Z.I.Y.R.V.B P ' ' r r ' _ < + : - + + - c B.$X<XqX6X6X6X6X6X6X6X8X9X*X>.` ) ) @.>.*X9X6XqX0XU.k O ",
"O k Y.0XqX6X6XqX0XU.j j U.0X0X[.d.0.0.u.P.A.Z N n.I.&XY.D B }  .X.X. . .8...w : K K - - H L x x.$X0XqX6X6X6X6X6X6X6X6X2X*XJ.` ` J.*X2X6X6XqX0XY.k O ",
"O k Y.0XqX6X6XqX0XU.j j U.0X0X[.d.5.5.f..XE.j p n.).2XY.j w ] r.e.q.e.e.e.3.y P ' _ < < Q Q 2 s m.$X<X6X6X6X6X6X6X6X6X9X9X*X1.1.*X9X9X6X6XqX0XY.k O ",
"O k Y.0XqX6X6XqX0XU.j j U.0X0X}.d.5.5.f..XR.j f S.2XqXY.j w [ r.e.q.e.e.e.7.3. .8...e , Q Q , & s &.#XqXqX6X6X6X6X6X6X9X9X2X=X=X2X9X9X6X6XqX0XY.k O ",
"O k Y.0XqX6X6XqX0XU.j j U.0X0X[.d.5.5.d.|.OXS S OX0X0XT.j w ] e.e.q.q.q.q.e.e.e.e.3.y r L L r 8 O j U.0XqX6X6X6X6X3X=XW.W.=X2X2X=XW.W.=X3X0X0XY.k O ",
"O k Y.0XqX6X6XqX0XU.j j U.0X0X[.d.5.5.d.}.,X+XOX,X0X0XT.j w ] e.e.q.q.q.q.e.e.e.e.7.3.| 0 r } | 8 j U.qXqX6X6X6X6X=X1.#.#.>.;X;X>.-.#.>.=X0X0XY.k O ",
"O k Y.0XqX6X6XqX0XU.j j U.0X0X Xj.d.d.j. X8X0XqX6XqXqXOXx.M t.0.0.w.i.i.w.9.9.w.i.i.r.3.y y 3.t.M x.OXqXqX6X6X6X9XW.#.Y Y ;.'.'.;.Y Y -.W.0X0XY.k O ",
"O k Y.0XqX6X6XqX0XU.j j U.0XqX2X X[.[. X2X6XqXqX6X6X6X,X+XP.u.5.5.i.~.~.i.5.5.i.~.~.p.7.4.3.7.u.P.+X,X6X6X6X6X6X9XW.#.Y Y :.'.'.:.Y Y -.W.0X0XY.k O ",
"O k Y.0XqX6X6XqX0XU.j j Y.0X0XqX0X0X0X0XqXqXqXqXqXqXqX0X0X:Xk.d.d.k.>X>Xk.d.d.k.>X>Xk.g.g.g.g.k.:X0X0XqXqXqXqX0X9X=X>.$.) $.L.L.$.T T ;.W.0X0XU.k O ",
"O k U.0XqX6X6XqX0XU.j j R.0X0X0X0X0X0X0X0X0X0X0X0X0X0X0X0X4X:X|.|.:X6X6X:X|.|.:X4X4X:X|.|.|.|.:X4X0X0X0X0X0X0X0XqX2X;XL.$.) $.$.) R R ;.W.9X0XY.k O ",
"O k U.0XqX6X6XqX0XU.j i m.R.Y.U.U.U.U.U.U.U.U.U.U.U.U.U.U.T.Y.Y.R.Y.T.T.Y.R.R.Y.T.T.Y.R.R.R.Y.Y.T.U.U.U.U.U.U.OX,X2X;XL.$.R T T R R R ;.W.9X0XY.k O ",
"O k U.0XqX6X6XqX0XY.j $ i j j j j j j j j j j j j j j j j j k k k k j j k k k k j j k k k k k k j j j j j j h S +X*X,.$.) R T T R R R ;.W.0X0XY.k O ",
"O k U.0XqX6X6XqXqX#XS j j j j j j j j j j j j j j j j j j j j j j j j j j j j j j j j j j j j j j j j j j j h S +XQ.-.Y T ) $.$.) T T -.W.9X0XY.k O ",
"O k Y.0XqX6X6X6X6X,X#XY.U.U.U.U.U.U.U.U.U.U.U.U.U.U.U.U.U.U.U.U.U.U.U.U.U.U.U.U.U.U.U.U.U.U.U.U.U.U.U.U.U.U.U.+X,XW.-.Y Y $.L.L.$.Y Y -.W.0X0XY.n O ",
"O n R.0XqX6X6X6X6X6XqX0X0X0X0X0X0X0X0X0X0X0X0X0X0X0X0X0X0X0X0X0X0X0X0X0X0X0X0X0X0X0X0X0X0X0X0X0X0X0X0X0X0X0X0X0X9X=X1.#.#.>.;X;X>.#.-.>.=X0X0XR.n O ",
"O n R.0X0X6X6X6X6X6XqXqXqXqXqXqXqXqXqXqXqXqXqXqXqXqXqXqXqXqXqXqXqXqXqXqXqXqXqXqXqXqXqXqXqXqXqXqXqXqXqXqXqXqXqXqX6X3X=XW.W.=X2X2X=XW.W.=X3X0X0XR.n O ",
"O f m.$X<X0XqXqXqXqXqXqXqXqXqXqXqXqXqXqXqXqXqXqXqXqXqXqXqXqXqXqXqXqXqXqXqXqXqXqXqXqXqXqXqXqXqXqXqXqXqXqXqXqXqXqXqXqX0X0X0X0X0X0X0X9X9X0X0X<X$Xm.f O ",
"@ * d v.$X0X0X0X0X0X0X0X0X0X0X0X0X0X0X0X0X0X0X0X0X0X0X0X0X0X0X0X0X0X0X0X0X0X0X0X0X0X0X0X0X0X0X0X0X0X0X0X0X0X0X0X0X0X0X0X0X0X0X0X0X0X0X0X0X$Xv.d * @ ",
"# O O d m.R.R.Y.Y.Y.Y.Y.U.U.U.U.Y.Y.Y.Y.Y.Y.Y.Y.U.U.U.U.Y.Y.Y.Y.U.U.U.U.Y.Y.Y.Y.Y.Y.Y.Y.U.U.U.U.Y.Y.Y.Y.Y.Y.Y.Y.U.U.U.U.Y.Y.Y.Y.U.Y.Y.R.R.m.d O @ # ",
"    O * f n n k k k k k k k k k k k k k k k k k k k k k k k k k k k k k k k k k k k k k k k k k k k k k k k k k k k k k k n n n k k n n n f * O     ",
"    # @ O O O O O O O O O O O O O O O O O O O O O O O O O O O O O O O O O O O O O O O O O O O O O O O O O O O O O O O O O O O O O O O O O O @ #     "
};
