/* XPM */
static char *diamonds_ace[] = {
/* columns rows colors chars-per-pixel */
"74 104 127 2 ",
"   c None",
".  c #1F002C",
"X  c #20012D",
"o  c #21012D",
"O  c #21012E",
"+  c #22032F",
"@  c #23032F",
"#  c #250632",
"$  c #270833",
"%  c #30133B",
"&  c #482E50",
"*  c #4B3152",
"=  c #583F5D",
"-  c #59405D",
";  c #59415E",
":  c #FF0115",
">  c #FF0316",
",  c #FF0317",
"<  c #FF0417",
"1  c #FF0418",
"2  c #FF0518",
"3  c #FF071A",
"4  c #FF081B",
"5  c #FF091C",
"6  c #FF0A1D",
"7  c #FF0B1E",
"8  c #FF0D20",
"9  c #FF0F21",
"0  c #FF1224",
"q  c #FF1627",
"w  c #FF1728",
"e  c #FF1828",
"r  c #FF1B2B",
"t  c #FE1C2C",
"y  c #FE303D",
"u  c #FE313E",
"i  c #FE333F",
"p  c #FE3340",
"a  c #FE3440",
"s  c #FE3441",
"d  c #FE3541",
"f  c #FD3642",
"g  c #FD3743",
"h  c #FD3844",
"j  c #FD3945",
"k  c #FD3C48",
"l  c #FD3D49",
"z  c #FD3E49",
"x  c #FD3F4A",
"c  c #FD404B",
"v  c #FD414B",
"b  c #FD424D",
"n  c #FD434D",
"m  c #FD434E",
"M  c #FD444E",
"N  c #FD454F",
"B  c #FD4650",
"V  c #FB6C70",
"C  c #FB6D71",
"Z  c #FB6E72",
"A  c #FB7074",
"S  c #FB7174",
"D  c #FB7175",
"F  c #FB7376",
"G  c #816E80",
"H  c #9B8B96",
"J  c #FA8C8C",
"K  c #FA8D8D",
"L  c #FA8F8F",
"P  c #FA908F",
"I  c #FA9090",
"U  c #FA9392",
"Y  c #FA9493",
"T  c #C2B8B7",
"R  c #C4BAB9",
"E  c #C6BCBB",
"W  c #F8B7B1",
"Q  c #F8B8B1",
"!  c #F8B8B2",
"~  c #F8B9B2",
"^  c #F8B9B3",
"/  c #F8BAB3",
"(  c #F8BBB4",
")  c #F8BCB5",
"_  c #F8BDB6",
"`  c #F8BFB8",
"'  c #F8C5BC",
"]  c #F8C7BE",
"[  c #F8C8BF",
"{  c #D5CDC7",
"}  c #F7CDC4",
"|  c #F7CEC5",
" . c #F8C9C0",
".. c #F8CAC1",
"X. c #F8CBC1",
"o. c #F8CBC2",
"O. c #F8CCC3",
"+. c #EFEBDE",
"@. c #F7E5D8",
"#. c #F7E6D9",
"$. c #F6E7DA",
"%. c #F6E8DB",
"&. c #F6EADC",
"*. c #F6EBDD",
"=. c #F6ECDE",
"-. c #F6F3E4",
";. c #F6F4E5",
":. c #F6F5E5",
">. c #F6F5E6",
",. c #F6F6E6",
"<. c #F6F6E7",
"1. c #F6F7E7",
"2. c #F9F6E7",
"3. c #FAF7E7",
"4. c #F6F7E8",
"5. c #F6F8E9",
"6. c #F6F9E9",
"7. c #F6FAEA",
"8. c #F6FBEB",
"9. c #F6FCEC",
"0. c #F6FFEE",
"q. c #F6FFEF",
"w. c #FAF8E8",
"e. c #FBF9E8",
"r. c #FDFBEA",
"t. c #FFFDEB",
"y. c #F5FFF0",
/* pixels */
"    $ # @ @ @ @ @ @ @ @ @ @ @ @ @ @ @ @ @ @ @ @ @ @ @ @ @ @ @ @ @ @ @ @ @ @ @ @ @ @ @ @ @ @ @ @ @ @ @ @ @ @ @ @ @ @ @ @ @ @ @ @ @ @ @ @ @ @ # $     ",
"    @ % * ; ; = = = = = = = = = = ; = = = = = = = = = = = = = = = = = = = = = = = = = = = = = = = = = = = = = = = = = = = = = = = = = ; ; * % @     ",
"$ @ . & H E R T T T T T T T T T T T T T T T T T T T T T T T T T T T T T T T T T T T T T T T T T T T T T T T T T T T T T T T T T T T T R E H & . @ $ ",
"# % & G { t.r.e.e.e.e.e.e.e.e.e.e.e.e.e.e.e.e.e.e.e.e.e.e.e.e.e.e.e.e.e.e.e.e.e.e.e.e.e.e.e.e.e.e.e.e.e.e.e.e.e.e.e.e.e.e.e.e.e.e.e.e.r.t.{ G & % # ",
"@ * H { +.3.3.3.3.3.3.3.3.3.3.3.3.3.3.3.3.3.3.3.3.3.3.3.3.3.3.3.3.3.3.3.3.3.3.3.3.3.3.3.3.3.3.3.3.3.3.3.3.3.3.3.3.3.3.3.3.3.3.3.3.3.3.3.e.+.{ H * @ ",
"@ ; E t.3.-.-.;.;.;.;.;.;.;.;.;.;.;.;.-.-.-.-.-.-.-.-.-.-.-.-.-.-.-.-.-.-.-.-.-.-.-.-.-.-.-.-.-.-.-.-.-.-.-.-.-.-.-.-.-.-.-.-.-.-.-.-.-.-.e.t.E ; @ ",
"@ ; R r.3.-.-.;.;.5.5.5.5.5.5.5.5.;.;.-.-.-.-.-.-.-.-.-.-.-.-.-.-.-.-.-.-.-.-.-.-.-.-.-.-.-.-.-.-.-.-.-.-.-.-.-.-.-.-.-.-.-.-.-.-.-.-.-.-.3.r.R ; @ ",
"@ = T e.3.;.;.#. .^ ^ ^ ^ ^ ( ( (  .#.;.;.-.-.-.-.-.-.-.-.-.-.-.-.-.-.-.-.-.-.-.-.-.-.-.-.-.-.-.-.-.-.-.-.-.-.-.-.-.-.-.-.-.-.-.-.-.-.-.-.3.e.T = @ ",
"@ ; T e.3.;.4. .A v c c c v N N v A  .4.;.-.-.-.-.-.-.-.-.-.-.-.-.-.-.-.-.-.-.-.-.-.-.-.-.-.-.-.-.-.-.-.-.-.-.-.-.-.-.-.-.-.-.-.-.-.-.-.-.3.e.T = @ ",
"@ ; T e.3.;.5.^ v 0 u B B s e 2 , v ( 5.;.-.-.-.-.-.-.-.-.-.-.-.-.-.-.-.-.-.-.-.-.-.-.-.-.-.-.-.-.-.-.-.-.-.-.-.-.-.-.-.-.-.-.-.-.-.-.-.-.3.e.T = @ ",
"@ ; T e.3.;.5.^ c u P ' ' I s 2 < v ( 5.;.-.-.-.-.-.-.-.-.-.-.-.-.-.-.-.-.-.-.-.-.-.-.-.-.-.-.-.-.-.-.-.-.-.-.-.-.-.-.-.-.-.-.-.-.-.-.-.-.3.e.T = @ ",
"@ = T e.3.;.5.^ v s I ' ' Y j 4 2 B ) 5.;.-.-.-.-.-.-.-.-.-.-.-.-.-.-.-.-.-.-.-.-.-.-.-.-.-.-.-.-.-.-.-.-.-.-.-.-.-.-.-.-.-.-.-.-.-.-.-.-.3.e.T = @ ",
"@ = T e.3.;.5.( N q s B B g t 6 6 B ) 5.;.-.-.-.-.-.-.-.-.-.-.-.-.-.-.-.-.-.-.-.-.-.-.-.-.-.-.-.-.-.-.-.-.-.-.-.-.-.-.-.-.-.-.-.-.-.-.-.-.3.e.T = @ ",
"@ = T e.3.;.5.( N q u v v s e 6 6 B ) 5.;.-.-.-.-.-.-.-.-.-.-.-.-.-.-.-.-.-.-.-.-.-.-.-.-.-.-.-.-.-.-.-.-.-.-.-.-.-.-.-.-.-.-.-.-.-.-.-.-.3.e.T = @ ",
"@ = T e.3.;.5.^ v p J ` ` P j 4 2 B ) 5.;.-.-.-.-.-.-.-.-.-.-.-.-.-.-.-.-.-.-.-.-.-.-.-.-.-.-.-.-.-.-.-.-.-.-.-.-.-.-.-.-.-.-.-.-.-.-.-.-.3.e.T = @ ",
"@ = T e.3.;.5.^ x x ) y.y.` N , , N ( 5.;.-.-.-.-.-.-.-.-.-.-.-.-.-.-.-.-.-.-.-.-.-.-.-.-.-.-.-.-.-.-.-.-.-.-.-.-.-.-.-.-.-.-.-.-.-.-.-.-.3.e.T = @ ",
"@ = T e.3.;.5.W x x ^ 0.0.) v , , v ( 5.;.-.-.-.-.-.-.-.-.-.-.-.-.-.-.-.-.-.-.-.-.-.-.-.-.-.-.-.-.-.-.-.-.-.-.-.-.-.-.-.-.-.-.-.-.-.-.-.-.3.e.T = @ ",
"@ = T e.3.;.;.' Z Z ' 5.0.O.A c x A  .4.;.-.-.-.-.-.-.-.-.-.-.-.-.-.-.-.-.-.-.-.-.-.-.-.-.-.-.-.-.-.-.-.-.-.-.-.-.-.-.-.-.-.-.-.-.-.-.-.-.3.e.T = @ ",
"@ = T e.3.;.;.#. .[ #.;.5.*. .^ ^  .#.;.;.-.-.-.-.-.-.-.-.-.-.-.-.-.-.-.-.-.-.-.-.-.-.-.-.-.-.-.-.-.-.-.-.-.-.-.-.-.-.-.-.-.-.-.-.-.-.-.-.3.e.T = @ ",
"@ = T e.3.-.-.;.4.5.5.%. . .*.0.5.;.;.-.-.-.-.-.-.-.-.-.-.-.-.-.-.-.-.-.-.-.-.-.-.-.-.-.-.-.-.-.-.-.-.-.-.-.-.-.-.-.-.-.-.-.-.-.-.-.-.-.-.3.e.T = @ ",
"@ ; T e.3.-.-.;.;.5.0. .Z Z } 0.5.;.;.-.-.-.-.-.-.-.-.-.-.-.-.-.-.-.-.-.-.-.-.-.-.-.-.-.-.-.-.-.-.-.-.-.-.-.-.-.-.-.-.-.-.-.-.-.-.-.-.-.-.3.e.T = @ ",
"@ = T e.3.-.-.;.;.*.} J u y J } *.;.;.-.-.-.-.-.-.-.-.-.-.-.-.-.-.-.-.-.-.-.-.-.-.-.-.-.-.-.-.-.-.-.-.-.-.-.-.-.-.-.-.-.-.-.-.-.-.-.-.-.-.3.e.T = @ ",
"@ = T e.3.-.-.;.5.} A p q q p A } 5.;.-.-.-.-.-.-.-.-.-.-.-.-.-.-.-.-.-.-.-.-.-.-.-.-.-.-.-.-.-.-.-.-.-.-.-.-.-.-.-.-.-.-.-.-.-.-.-.-.-.-.3.e.T = @ ",
"@ = T e.3.;.;.%.} P s 2 6 6 2 s P } %.;.;.-.-.-.-.-.-.-.-.-.-.-.-.-.-.-.-.-.-.-.-.-.-.-.-.-.-.-.-.-.-.-.-.-.-.-.-.-.-.-.-.-.-.-.-.-.-.-.-.3.e.T = @ ",
"@ = T e.3.;.4. .A s w 6 9 9 6 w s A  .4.;.-.-.-.-.-.-.-.-.-.-.-.-.-.-.-.-.-.-.-.-.-.-.-.-.-.-.-.-.-.-.-.-.-.-.-.-.-.-.-.-.-.-.-.-.-.-.-.-.3.e.T = @ ",
"@ = T e.3.;.5.^ x , 6 9 9 0 9 6 , c ^ 5.;.-.-.-.-.-.-.-.-.-.-.-.-.-.-.-.-.-.-.-.-.-.-.-.-.-.-.-.-.-.-.-.-.-.-.-.-.-.-.-.-.-.-.-.-.-.-.-.-.3.e.T = @ ",
"@ = T e.3.;.5.^ x , 6 9 9 9 9 6 , x ^ 5.;.-.-.-.-.-.-.-.-.-.-.-.-.-.-.-.-.-.-.-.-.-.-.-.-.-.-.-.-.-.-.-.-.-.-.-.-.-.-.-.-.-.-.-.-.-.-.-.-.3.e.T = @ ",
"@ = T e.3.;.;. .A s w 6 9 9 6 w s A  .4.;.-.-.-.-.-.-.-.-.-.-.-.-.-.-.-.-.-.-.-.-.-.-.-.-.-.-.-.-.-.-.-.-.-.-.-.-.-.-.-.-.-.-.-.-.-.-.-.-.3.e.T = @ ",
"@ = T e.3.-.;.%.} P s 2 7 7 2 s P } %.;.;.-.-.-.-.-.-.-.-.-.-.-.-.-.-.-.-.-.-.-.-.-.-.-.-.-.-.-.-.-.-.-.-.-.-.-.-.-.-.-.-.-.-.-.-.-.-.-.-.3.e.T = @ ",
"@ = T e.3.-.-.;.5.} A p q q p A } 5.;.-.-.-.-.-.-.-.-.-.-.-.-.-.-.-.-.-.-.-.-.-.-.-.-.-.-.-.-.-.-.-.-.-.-.-.-.-.-.-.-.-.-.-.-.-.-.-.-.-.-.3.e.T = @ ",
"@ = T e.3.-.-.;.;.*.} J u u J } *.4.;.-.-.-.-.-.-.-.-.-.-.-.-.-.-.-.-.-.-.-.-.-.-.-.-.-.-.-.-.-.-.-.-.-.-.-.-.-.-.-.-.-.-.-.-.-.-.-.-.-.-.3.e.T = @ ",
"@ = T e.3.-.-.-.-.;.5. .Z Z  .8.4.-.-.-.-.-.-.-.-.-.-.-.-.-.-.-.-.-.-.-.-.-.-.-.-.-.-.-.-.-.-.-.-.-.-.-.-.-.-.-.-.-.-.-.-.-.-.-.-.-.-.-.-.3.e.T = @ ",
"@ = T e.3.-.-.-.-.;.;.%. . .%.;.;.-.-.-.-.-.-.-.-.-.-.-.-.-.-.-.-.-.-.-.-.-.-.-.-.-.-.-.-.-.-.-.-.-.-.-.-.-.-.-.-.-.-.-.-.-.-.-.-.-.-.-.-.3.e.T = @ ",
"@ = T e.3.-.-.-.-.-.-.;.4.4.;.-.-.-.-.-.-.-.-.-.-.-.-.-.-.-.-.-.-.-.-.-.-.-.-.-.-.-.-.-.-.-.-.-.-.-.-.-.-.-.-.-.-.-.-.-.-.-.-.-.-.-.-.-.-.3.e.T = @ ",
"@ = T e.3.-.-.-.-.-.-.;.;.;.;.-.-.-.-.-.-.-.-.-.-.-.-.-.-.-.-.-.-.-.-.-.-.-.-.-.-.-.-.-.-.-.-.-.-.-.-.-.-.-.-.-.-.-.-.-.-.-.-.-.-.-.-.-.-.3.e.T = @ ",
"@ = T e.3.-.-.-.-.-.-.-.-.-.-.-.-.-.-.-.-.-.-.-.-.-.-.-.-.-.-.-.-.-.-.-.-.-.-.-.-.-.-.-.-.-.-.-.-.-.-.-.-.-.-.-.-.-.-.-.-.-.-.-.-.-.-.-.-.3.e.T = @ ",
"@ = T e.3.-.-.-.-.-.-.-.-.-.-.-.-.-.-.-.-.-.-.-.-.-.-.-.-.-.-.-.-.-.-.-.-.-.-.-.-.-.-.-.-.-.-.-.-.-.-.-.-.-.-.-.-.-.-.-.-.-.-.-.-.-.-.-.-.3.e.T = @ ",
"@ = T e.3.-.-.-.-.-.-.-.-.-.-.-.-.-.-.-.-.-.-.-.-.-.-.-.-.-.-.-.-.-.-.;.;.;.;.-.-.-.-.-.-.-.-.-.-.-.-.-.-.-.-.-.-.-.-.-.-.-.-.-.-.-.-.-.-.3.e.T = @ ",
"@ = T e.3.-.-.-.-.-.-.-.-.-.-.-.-.-.-.-.-.-.-.-.-.-.-.-.-.-.-.-.-.-.-.;.4.4.;.-.-.-.-.-.-.-.-.-.-.-.-.-.-.-.-.-.-.-.-.-.-.-.-.-.-.-.-.-.-.3.e.T = @ ",
"@ = T e.3.-.-.-.-.-.-.-.-.-.-.-.-.-.-.-.-.-.-.-.-.-.-.-.-.-.-.-.-.;.4.%. . .%.;.;.-.-.-.-.-.-.-.-.-.-.-.-.-.-.-.-.-.-.-.-.-.-.-.-.-.-.-.-.3.e.T = @ ",
"@ = T e.3.-.-.-.-.-.-.-.-.-.-.-.-.-.-.-.-.-.-.-.-.-.-.-.-.-.-.-.-.;.5. .Z Z  .5.4.-.-.-.-.-.-.-.-.-.-.-.-.-.-.-.-.-.-.-.-.-.-.-.-.-.-.-.-.3.e.T = @ ",
"@ = T e.3.-.-.-.-.-.-.-.-.-.-.-.-.-.-.-.-.-.-.-.-.-.-.-.-.-.-.;.;.*.} J u u J } *.;.;.-.-.-.-.-.-.-.-.-.-.-.-.-.-.-.-.-.-.-.-.-.-.-.-.-.-.3.e.T = @ ",
"@ = T e.3.-.-.-.-.-.-.-.-.-.-.-.-.-.-.-.-.-.-.-.-.-.-.-.-.-.-.;.8.} A p q q p A } 8.;.-.-.-.-.-.-.-.-.-.-.-.-.-.-.-.-.-.-.-.-.-.-.-.-.-.-.3.e.T = @ ",
"@ = T e.3.-.-.-.-.-.-.-.-.-.-.-.-.-.-.-.-.-.-.-.-.-.-.-.-.;.;.*.} P s 2 6 6 2 s P } *.4.;.-.-.-.-.-.-.-.-.-.-.-.-.-.-.-.-.-.-.-.-.-.-.-.-.3.e.T = @ ",
"@ = T e.3.-.-.-.-.-.-.-.-.-.-.-.-.-.-.-.-.-.-.-.-.-.-.-.-.4.8.} A s w 6 9 9 6 w s A } 8.4.-.-.-.-.-.-.-.-.-.-.-.-.-.-.-.-.-.-.-.-.-.-.-.-.3.e.T = @ ",
"@ = T e.3.-.-.-.-.-.-.-.-.-.-.-.-.-.-.-.-.-.-.-.-.-.-.;.;.*.} J s 2 6 9 9 9 9 6 2 s P } *.4.;.-.-.-.-.-.-.-.-.-.-.-.-.-.-.-.-.-.-.-.-.-.-.3.e.T = @ ",
"@ = T e.3.-.-.-.-.-.-.-.-.-.-.-.-.-.-.-.-.-.-.-.-.-.-.4.5.} A s e 6 9 9 9 9 9 9 6 w s A } 8.4.-.-.-.-.-.-.-.-.-.-.-.-.-.-.-.-.-.-.-.-.-.-.3.e.T = @ ",
"@ = T e.3.-.-.-.-.-.-.-.-.-.-.-.-.-.-.-.-.-.-.-.-.;.4.*.} P s 2 7 0 9 9 9 9 9 9 9 6 2 s P } *.4.;.-.-.-.-.-.-.-.-.-.-.-.-.-.-.-.-.-.-.-.-.3.e.T = @ ",
"@ = T e.3.-.-.-.-.-.-.-.-.-.-.-.-.-.-.-.-.-.-.-.-.;.5.} A s w 6 9 9 9 9 9 9 9 9 9 9 6 w s A } 5.;.-.-.-.-.-.-.-.-.-.-.-.-.-.-.-.-.-.-.-.-.3.e.T = @ ",
"@ = T e.3.-.-.-.-.-.-.-.-.-.-.-.-.-.-.-.-.-.-.;.;.%.} P s 2 6 9 9 9 9 9 9 9 9 9 9 9 9 6 2 s P } %.;.;.-.-.-.-.-.-.-.-.-.-.-.-.-.-.-.-.-.-.3.e.T = @ ",
"@ = T e.3.-.-.-.-.-.-.-.-.-.-.-.-.-.-.-.-.-.-.;.4. .A s w 6 9 9 9 9 9 9 9 9 9 9 9 9 9 9 6 w s A  .4.;.-.-.-.-.-.-.-.-.-.-.-.-.-.-.-.-.-.-.3.e.T = @ ",
"@ = T e.3.-.-.-.-.-.-.-.-.-.-.-.-.-.-.-.-.-.-.;.5.^ x , 6 0 9 9 9 9 9 9 9 9 9 9 9 9 9 9 9 6 , c ^ 5.;.-.-.-.-.-.-.-.-.-.-.-.-.-.-.-.-.-.-.3.e.T = @ ",
"@ = T e.3.-.-.-.-.-.-.-.-.-.-.-.-.-.-.-.-.-.-.;.5.^ x , 6 9 9 9 9 9 9 9 9 9 9 9 9 9 9 9 9 6 , c ^ 5.;.-.-.-.-.-.-.-.-.-.-.-.-.-.-.-.-.-.-.3.e.T = @ ",
"@ = T e.3.-.-.-.-.-.-.-.-.-.-.-.-.-.-.-.-.-.-.;.5. .A s w 6 9 9 9 9 9 9 9 9 9 9 9 9 9 9 6 w s A  .4.;.-.-.-.-.-.-.-.-.-.-.-.-.-.-.-.-.-.-.3.e.T = @ ",
"@ = T e.3.-.-.-.-.-.-.-.-.-.-.-.-.-.-.-.-.-.-.;.;.%.} P s 2 6 9 9 9 9 9 9 9 9 9 9 9 9 6 2 s P } %.;.;.-.-.-.-.-.-.-.-.-.-.-.-.-.-.-.-.-.-.3.e.T = @ ",
"@ = T e.3.-.-.-.-.-.-.-.-.-.-.-.-.-.-.-.-.-.-.-.-.;.5.} A s w 6 9 9 9 9 9 9 9 9 9 9 6 w s A } 5.;.-.-.-.-.-.-.-.-.-.-.-.-.-.-.-.-.-.-.-.-.3.e.T = @ ",
"@ = T e.3.-.-.-.-.-.-.-.-.-.-.-.-.-.-.-.-.-.-.-.-.;.4.*.} P s 2 6 9 9 9 9 9 9 9 9 6 2 s P } *.4.;.-.-.-.-.-.-.-.-.-.-.-.-.-.-.-.-.-.-.-.-.3.e.T = @ ",
"@ = T e.3.-.-.-.-.-.-.-.-.-.-.-.-.-.-.-.-.-.-.-.-.-.-.4.8.} A s w 6 9 9 9 9 9 9 6 w s A } 8.4.-.-.-.-.-.-.-.-.-.-.-.-.-.-.-.-.-.-.-.-.-.-.3.e.T = @ ",
"@ = T e.3.-.-.-.-.-.-.-.-.-.-.-.-.-.-.-.-.-.-.-.-.-.-.;.4.*.} P s 2 6 9 9 9 9 6 2 s P } *.4.;.-.-.-.-.-.-.-.-.-.-.-.-.-.-.-.-.-.-.-.-.-.-.3.e.T = @ ",
"@ = T e.3.-.-.-.-.-.-.-.-.-.-.-.-.-.-.-.-.-.-.-.-.-.-.-.-.4.5.} A s w 6 9 9 6 w s A } 5.4.-.-.-.-.-.-.-.-.-.-.-.-.-.-.-.-.-.-.-.-.-.-.-.-.3.e.T = @ ",
"@ = T e.3.-.-.-.-.-.-.-.-.-.-.-.-.-.-.-.-.-.-.-.-.-.-.-.-.;.4.*.} P s 2 6 6 2 s P } *.4.;.-.-.-.-.-.-.-.-.-.-.-.-.-.-.-.-.-.-.-.-.-.-.-.-.3.e.T = @ ",
"@ = T e.3.-.-.-.-.-.-.-.-.-.-.-.-.-.-.-.-.-.-.-.-.-.-.-.-.-.-.;.5.} A p q q p A } 5.;.-.-.-.-.-.-.-.-.-.-.-.-.-.-.-.-.-.-.-.-.-.-.-.-.-.-.3.e.T = @ ",
"@ = T e.3.-.-.-.-.-.-.-.-.-.-.-.-.-.-.-.-.-.-.-.-.-.-.-.-.-.-.;.;.*.} J u u J } *.;.;.-.-.-.-.-.-.-.-.-.-.-.-.-.-.-.-.-.-.-.-.-.-.-.-.-.-.3.e.T = @ ",
"@ = T e.3.-.-.-.-.-.-.-.-.-.-.-.-.-.-.-.-.-.-.-.-.-.-.-.-.-.-.-.-.4.5. .Z Z  .5.;.-.-.-.-.-.-.-.-.-.-.-.-.-.-.-.-.-.-.-.-.-.-.-.-.-.-.-.-.3.e.T = @ ",
"@ = T e.3.-.-.-.-.-.-.-.-.-.-.-.-.-.-.-.-.-.-.-.-.-.-.-.-.-.-.-.-.;.;.%. . .%.;.;.-.-.-.-.-.-.-.-.-.-.-.-.-.-.-.-.-.-.-.-.-.-.-.-.-.-.-.-.3.e.T = @ ",
"@ = T e.3.-.-.-.-.-.-.-.-.-.-.-.-.-.-.-.-.-.-.-.-.-.-.-.-.-.-.-.-.-.-.;.4.4.;.-.-.-.-.-.-.-.-.-.-.-.-.-.-.-.-.-.-.-.-.-.-.-.-.-.-.-.-.-.-.3.e.T = @ ",
"@ = T e.3.-.-.-.-.-.-.-.-.-.-.-.-.-.-.-.-.-.-.-.-.-.-.-.-.-.-.-.-.-.-.;.;.;.;.-.-.-.-.-.-.-.-.-.-.-.-.-.-.-.-.-.-.-.-.-.-.-.-.-.-.-.-.-.-.3.e.T = @ ",
"@ = T e.3.-.-.-.-.-.-.-.-.-.-.-.-.-.-.-.-.-.-.-.-.-.-.-.-.-.-.-.-.-.-.-.-.-.-.-.-.-.-.-.-.-.-.-.-.-.-.-.-.-.-.-.-.-.-.-.-.-.-.-.-.-.-.-.-.3.e.T = @ ",
"@ = T e.3.-.-.-.-.-.-.-.-.-.-.-.-.-.-.-.-.-.-.-.-.-.-.-.-.-.-.-.-.-.-.-.-.-.-.-.-.-.-.-.-.-.-.-.-.-.-.-.-.-.-.-.-.-.-.-.-.-.-.-.-.-.-.-.-.3.e.T = @ ",
"@ = T e.3.-.-.-.-.-.-.-.-.-.-.-.-.-.-.-.-.-.-.-.-.-.-.-.-.-.-.-.-.-.-.-.-.-.-.-.-.-.-.-.-.-.-.-.-.-.-.-.-.-.-.-.-.-.-.;.;.;.;.-.-.-.-.-.-.3.e.T = @ ",
"@ = T e.3.-.-.-.-.-.-.-.-.-.-.-.-.-.-.-.-.-.-.-.-.-.-.-.-.-.-.-.-.-.-.-.-.-.-.-.-.-.-.-.-.-.-.-.-.-.-.-.-.-.-.-.-.-.-.;.4.4.;.-.-.-.-.-.-.3.e.T = @ ",
"@ = T e.3.-.-.-.-.-.-.-.-.-.-.-.-.-.-.-.-.-.-.-.-.-.-.-.-.-.-.-.-.-.-.-.-.-.-.-.-.-.-.-.-.-.-.-.-.-.-.-.-.-.-.-.-.;.;.%. . .%.4.;.-.-.-.-.3.e.T = @ ",
"@ = T e.3.-.-.-.-.-.-.-.-.-.-.-.-.-.-.-.-.-.-.-.-.-.-.-.-.-.-.-.-.-.-.-.-.-.-.-.-.-.-.-.-.-.-.-.-.-.-.-.-.-.-.-.-.;.5. .Z Z  .5.;.-.-.-.-.3.e.T = @ ",
"@ = T e.3.-.-.-.-.-.-.-.-.-.-.-.-.-.-.-.-.-.-.-.-.-.-.-.-.-.-.-.-.-.-.-.-.-.-.-.-.-.-.-.-.-.-.-.-.-.-.-.-.-.-.;.;.*.} J u u J } *.;.;.-.-.3.e.T = @ ",
"@ = T e.3.-.-.-.-.-.-.-.-.-.-.-.-.-.-.-.-.-.-.-.-.-.-.-.-.-.-.-.-.-.-.-.-.-.-.-.-.-.-.-.-.-.-.-.-.-.-.-.-.-.-.4.8.} A p q q p A } 5.;.-.-.3.e.T = @ ",
"@ = T e.3.-.-.-.-.-.-.-.-.-.-.-.-.-.-.-.-.-.-.-.-.-.-.-.-.-.-.-.-.-.-.-.-.-.-.-.-.-.-.-.-.-.-.-.-.-.-.-.-.;.;.%.} P s 2 6 6 2 s P } %.;.;.3.e.T = @ ",
"@ = T e.3.-.-.-.-.-.-.-.-.-.-.-.-.-.-.-.-.-.-.-.-.-.-.-.-.-.-.-.-.-.-.-.-.-.-.-.-.-.-.-.-.-.-.-.-.-.-.-.-.;.4. .A s w 6 9 9 6 w s A  .4.;.3.e.T = @ ",
"@ = T e.3.-.-.-.-.-.-.-.-.-.-.-.-.-.-.-.-.-.-.-.-.-.-.-.-.-.-.-.-.-.-.-.-.-.-.-.-.-.-.-.-.-.-.-.-.-.-.-.-.;.5.^ c , 6 9 9 9 9 6 , c ^ 5.;.3.e.T = @ ",
"@ = T e.3.-.-.-.-.-.-.-.-.-.-.-.-.-.-.-.-.-.-.-.-.-.-.-.-.-.-.-.-.-.-.-.-.-.-.-.-.-.-.-.-.-.-.-.-.-.-.-.-.;.5.^ c , 6 9 9 9 9 6 , c ^ 5.;.3.e.T = @ ",
"@ = T e.3.-.-.-.-.-.-.-.-.-.-.-.-.-.-.-.-.-.-.-.-.-.-.-.-.-.-.-.-.-.-.-.-.-.-.-.-.-.-.-.-.-.-.-.-.-.-.-.-.;.4. .A s w 6 9 9 6 w s A  .4.;.3.e.T = @ ",
"@ = T e.3.-.-.-.-.-.-.-.-.-.-.-.-.-.-.-.-.-.-.-.-.-.-.-.-.-.-.-.-.-.-.-.-.-.-.-.-.-.-.-.-.-.-.-.-.-.-.-.-.;.;.%.} P s 2 6 6 2 s J } %.;.;.3.e.T = @ ",
"@ = T e.3.-.-.-.-.-.-.-.-.-.-.-.-.-.-.-.-.-.-.-.-.-.-.-.-.-.-.-.-.-.-.-.-.-.-.-.-.-.-.-.-.-.-.-.-.-.-.-.-.-.-.4.5.} A p q q p A } 5.;.-.-.3.e.T = @ ",
"@ = T e.3.-.-.-.-.-.-.-.-.-.-.-.-.-.-.-.-.-.-.-.-.-.-.-.-.-.-.-.-.-.-.-.-.-.-.-.-.-.-.-.-.-.-.-.-.-.-.-.-.-.-.;.;.*.} J u u J } *.;.;.-.-.3.e.T = @ ",
"@ = T e.3.-.-.-.-.-.-.-.-.-.-.-.-.-.-.-.-.-.-.-.-.-.-.-.-.-.-.-.-.-.-.-.-.-.-.-.-.-.-.-.-.-.-.-.-.-.-.-.-.-.-.;.;.5.0.} Z Z  .0.5.;.;.-.-.3.e.T = @ ",
"@ = T e.3.-.-.-.-.-.-.-.-.-.-.-.-.-.-.-.-.-.-.-.-.-.-.-.-.-.-.-.-.-.-.-.-.-.-.-.-.-.-.-.-.-.-.-.-.-.-.-.-.-.-.;.4.5.0.=. . .#.5.5.4.;.-.-.3.e.T = @ ",
"@ = T e.3.-.-.-.-.-.-.-.-.-.-.-.-.-.-.-.-.-.-.-.-.-.-.-.-.-.-.-.-.-.-.-.-.-.-.-.-.-.-.-.-.-.-.-.-.-.-.-.-.;.;.#. .^ ^  .*.5.;.#.[ [ #.;.-.3.e.T = @ ",
"@ = T e.3.-.-.-.-.-.-.-.-.-.-.-.-.-.-.-.-.-.-.-.-.-.-.-.-.-.-.-.-.-.-.-.-.-.-.-.-.-.-.-.-.-.-.-.-.-.-.-.-.;.4. .A c c A O.0.5.' Z Z ' 4.;.3.e.T = @ ",
"@ = T e.3.-.-.-.-.-.-.-.-.-.-.-.-.-.-.-.-.-.-.-.-.-.-.-.-.-.-.-.-.-.-.-.-.-.-.-.-.-.-.-.-.-.-.-.-.-.-.-.-.;.5.( v , , v ) 0.0.^ x x ^ 5.;.3.e.T = @ ",
"@ = T e.3.-.-.-.-.-.-.-.-.-.-.-.-.-.-.-.-.-.-.-.-.-.-.-.-.-.-.-.-.-.-.-.-.-.-.-.-.-.-.-.-.-.-.-.-.-.-.-.-.;.5.( N , , N ` y.y.) x x W 5.;.3.e.T = @ ",
"@ = T e.3.-.-.-.-.-.-.-.-.-.-.-.-.-.-.-.-.-.-.-.-.-.-.-.-.-.-.-.-.-.-.-.-.-.-.-.-.-.-.-.-.-.-.-.-.-.-.-.-.;.5.) B 2 4 j P ` ` J u v ^ 5.;.3.e.T = @ ",
"@ = T e.3.-.-.-.-.-.-.-.-.-.-.-.-.-.-.-.-.-.-.-.-.-.-.-.-.-.-.-.-.-.-.-.-.-.-.-.-.-.-.-.-.-.-.-.-.-.-.-.-.;.5.) B 6 6 e s v v u q N ( 5.;.3.e.T = @ ",
"@ = T e.3.-.-.-.-.-.-.-.-.-.-.-.-.-.-.-.-.-.-.-.-.-.-.-.-.-.-.-.-.-.-.-.-.-.-.-.-.-.-.-.-.-.-.-.-.-.-.-.-.;.5.) B 6 6 t s B B s q N ( 5.;.3.e.T = @ ",
"@ = T e.3.-.-.-.-.-.-.-.-.-.-.-.-.-.-.-.-.-.-.-.-.-.-.-.-.-.-.-.-.-.-.-.-.-.-.-.-.-.-.-.-.-.-.-.-.-.-.-.-.;.5.) B 2 4 j Y ' ' I s v ^ 5.;.3.e.T = @ ",
"@ = T e.3.-.-.-.-.-.-.-.-.-.-.-.-.-.-.-.-.-.-.-.-.-.-.-.-.-.-.-.-.-.-.-.-.-.-.-.-.-.-.-.-.-.-.-.-.-.-.-.-.;.5.( N < 2 s I ' ' J u x ^ 5.;.3.e.T = @ ",
"@ = T e.3.-.-.-.-.-.-.-.-.-.-.-.-.-.-.-.-.-.-.-.-.-.-.-.-.-.-.-.-.-.-.-.-.-.-.-.-.-.-.-.-.-.-.-.-.-.-.-.-.;.5.( v , 2 e s B B u 0 v ^ 5.;.3.e.T = @ ",
"@ = T e.3.-.-.-.-.-.-.-.-.-.-.-.-.-.-.-.-.-.-.-.-.-.-.-.-.-.-.-.-.-.-.-.-.-.-.-.-.-.-.-.-.-.-.-.-.-.-.-.-.;.4. .A v N N v c c x v A  .4.;.3.e.T = @ ",
"@ = T e.3.-.-.-.-.-.-.-.-.-.-.-.-.-.-.-.-.-.-.-.-.-.-.-.-.-.-.-.-.-.-.-.-.-.-.-.-.-.-.-.-.-.-.-.-.-.-.-.-.;.;.#. .( ( ( ^ ^ ^ ^ ^  .#.;.;.3.e.T = @ ",
"@ ; R r.3.-.-.-.-.-.-.-.-.-.-.-.-.-.-.-.-.-.-.-.-.-.-.-.-.-.-.-.-.-.-.-.-.-.-.-.-.-.-.-.-.-.-.-.-.-.-.-.-.-.-.;.;.5.5.5.5.5.5.5.5.4.;.-.-.3.r.R ; @ ",
"@ ; E t.3.-.-.-.-.-.-.-.-.-.-.-.-.-.-.-.-.-.-.-.-.-.-.-.-.-.-.-.-.-.-.-.-.-.-.-.-.-.-.-.-.-.-.-.-.-.-.-.-.-.-.;.;.;.;.;.;.;.;.;.;.;.;.-.-.e.t.E ; @ ",
"@ * H { +.3.3.3.3.3.3.3.3.3.3.3.3.3.3.3.3.3.3.3.3.3.3.3.3.3.3.3.3.3.3.3.3.3.3.3.3.3.3.3.3.3.3.3.3.3.3.3.3.3.3.3.3.3.3.3.3.3.3.3.3.3.3.3.3.+.{ H * @ ",
"# % & G { t.r.e.e.e.e.e.e.e.e.e.e.e.e.e.e.e.e.e.e.e.e.e.e.e.e.e.e.e.e.e.e.e.e.e.e.e.e.e.e.e.e.e.e.e.e.e.e.e.e.e.e.e.e.e.e.e.e.e.e.e.e.r.t.{ G & % # ",
"$ @ . & H E R T T T T T T T T T T T T T T T T T T T T T T T T T T T T T T T T T T T T T T T T T T T T T T T T T T T T T T T T T T T T R E H & . @ $ ",
"    @ % * ; ; = = = = = = = = = = = = = = = = = = = = = = = = = = = = = = = = = = = = = = = = = = = = = = = = = ; ; ; = = = = = = = = ; ; * % @     ",
"    $ # @ @ @ @ @ @ @ @ @ @ @ @ @ @ @ @ @ @ @ @ @ @ @ @ @ @ @ @ @ @ @ @ @ @ @ @ @ @ @ @ @ @ @ @ @ @ @ @ @ @ @ @ @ @ @ @ @ @ @ @ @ @ @ @ @ @ # $     "
};
