/* XPM */
static char *diamonds_q[] = {
/* columns rows colors chars-per-pixel */
"74 104 209 2 ",
"   c None",
".  c #1E012D",
"X  c #1D0432",
"o  c #1E0834",
"O  c #21012E",
"+  c #2D022E",
"@  c #27072B",
"#  c #220532",
"$  c #2D0631",
"%  c #240833",
"&  c #2A0C34",
"*  c #2A0D38",
"=  c #320932",
"-  c #2C123C",
";  c #2D1132",
":  c #31133C",
">  c #380D29",
",  c #4B042C",
"<  c #4B082F",
"1  c #45022B",
"2  c #56052B",
"3  c #5A052B",
"4  c #56092E",
"5  c #5C092E",
"6  c #540027",
"7  c #4C0930",
"8  c #490630",
"9  c #571639",
"0  c #4B152F",
"q  c #7B0527",
"w  c #600A2E",
"e  c #49242D",
"r  c #46232C",
"t  c #552A28",
"y  c #583238",
"u  c #6B222B",
"i  c #72262A",
"p  c #7A4D26",
"a  c #774523",
"s  c #6D4428",
"d  c #77421C",
"f  c #462B4D",
"g  c #452A4F",
"h  c #492E50",
"j  c #452F52",
"k  c #463153",
"l  c #4B3253",
"z  c #4F3759",
"x  c #543454",
"c  c #543C5A",
"v  c #583F5D",
"b  c #593552",
"n  c #552E50",
"m  c #6B2F4D",
"M  c #763853",
"N  c #73324E",
"B  c #543F60",
"V  c #54415E",
"C  c #59415E",
"Z  c #6A4749",
"A  c #7A4F53",
"S  c #544361",
"D  c #594360",
"F  c #6C5C76",
"G  c #7C6A7D",
"H  c #79677D",
"J  c #82062B",
"K  c #870B2B",
"L  c #9E0725",
"P  c #A20927",
"I  c #A30B28",
"U  c #A60724",
"Y  c #A8122A",
"T  c #AC1327",
"R  c #B1132C",
"E  c #A1001F",
"W  c #CA021C",
"Q  c #FF0316",
"!  c #FF061A",
"~  c #FF0A1C",
"^  c #FD221B",
"/  c #CD0C24",
"(  c #C90720",
")  c #D10D24",
"_  c #DD0B23",
"`  c #D10720",
"'  c #DA162D",
"]  c #E10E23",
"[  c #FE0F20",
"{  c #FF1526",
"}  c #FF1829",
"|  c #E11C30",
" . c #FE303D",
".. c #FE3134",
"X. c #BE7C19",
"o. c #A96F1F",
"O. c #9B5F21",
"+. c #804C25",
"@. c #A25F21",
"#. c #9C6422",
"$. c #A56724",
"%. c #945A1B",
"&. c #F85118",
"*. c #C17E18",
"=. c #FB593F",
"-. c #83344F",
";. c #C83648",
":. c #FE3441",
">. c #FB3C48",
",. c #83465E",
"<. c #825C4C",
"1. c #806D7F",
"2. c #D64553",
"3. c #FE434D",
"4. c #FF4347",
"5. c #FD4651",
"6. c #FE4953",
"7. c #F95E44",
"8. c #FB624F",
"9. c #FB6D71",
"0. c #FC7276",
"q. c #FF7779",
"w. c #CF8C19",
"e. c #CA8416",
"r. c #D18C18",
"t. c #D28B17",
"y. c #EE9E0D",
"u. c #F28616",
"i. c #EC9910",
"p. c #EFA10E",
"a. c #F4A50E",
"s. c #EFA112",
"d. c #EFA61E",
"f. c #F3A511",
"g. c #F5A816",
"h. c #CE8E25",
"j. c #F1AA39",
"k. c #F1B43A",
"l. c #EBAB32",
"z. c #F28F23",
"x. c #CA9648",
"c. c #F69948",
"v. c #F4BA49",
"b. c #F3B846",
"n. c #F4C76F",
"m. c #7A6D81",
"M. c #7E7182",
"N. c #816E80",
"B. c #837183",
"V. c #9A8A95",
"C. c #9C8E99",
"Z. c #978B98",
"A. c #9B919B",
"S. c #A58D96",
"D. c #A69499",
"F. c #A59DA6",
"G. c #C58F95",
"H. c #C49499",
"J. c #C69297",
"K. c #D59397",
"L. c #FA8D8D",
"P. c #FA908F",
"I. c #FA9493",
"U. c #CDB694",
"Y. c #F9B691",
"T. c #C1B7B7",
"R. c #C2B8B7",
"E. c #C3BABA",
"W. c #CABEBC",
"Q. c #C0B7B8",
"!. c #F9BCB5",
"~. c #FABFB8",
"^. c #EBBDB7",
"/. c #F4D48D",
"(. c #C2C0BF",
"). c #CAC1BE",
"_. c #D3C2BD",
"`. c #EDC0BA",
"'. c #FDC3BB",
"]. c #F6C8BD",
"[. c #F0DDB4",
"{. c #F9E5B6",
"}. c #F8E3B8",
"|. c #CEC6C3",
" X c #C9C5C3",
".X c #D2CAC5",
"XX c #D2CDC8",
"oX c #D6C4C0",
"OX c #D7D2CB",
"+X c #F7CEC4",
"@X c #F9CBC2",
"#X c #FCC2C0",
"$X c #FCD1C6",
"%X c #FED4C9",
"&X c #EAE5DA",
"*X c #EDEADD",
"=X c #F6E6D9",
"-X c #F6EADC",
";X c #F9ECDE",
":X c #F8EBCA",
">X c #FBEFE0",
",X c #F6F4E4",
"<X c #F9F6E7",
"1X c #F6F7E8",
"2X c #F6FBEA",
"3X c #FBFAE9",
"4X c #F9F7E8",
"5X c #FFFFF1",
"6X c #EFEDE3",
/* pixels */
"    % % O O O O O O O O O O O O O O O O O O O O O O O O O O O O O O O O O O O O O O O O O O O O O O O O O O O O O O O O O O O O O O O O O O % %     ",
"    O : l C C C C C v v C C C C v v v v v v v v v v v v v v v v v v v v v v v v v v v v v v v v v v v v v v v v v v v v v v v v v v v C C l : O     ",
"% O . h V.E.E.R.R.R.R.R.R.R.R.R.R.R.R.R.R.R.R.R.R.R.R.R.R.R.R.R.R.R.R.R.R.R.R.R.R.R.R.R.R.R.R.R.R.R.R.R.R.R.R.R.R.R.R.R.R.R.R.R.R.R.R.E.E.V.h . O % ",
"% : h N.XX3X3X3X3X3X3X3X3X3X3X3X3X3X3X3X3X3X3X3X3X3X3X3X3X3X3X3X3X3X3X3X3X3X3X3X3X3X3X3X3X3X3X3X3X3X3X3X3X3X3X3X3X3X3X3X3X3X3X3X3X3X3X3X3XXXN.h : % ",
"O l V.XX*X3X3X3X3X3X3X3X3X3X3X<X<X<X<X<X<X<X<X<X<X<X<X<X<X<X<X<X<X<X<X<X<X<X<X<X<X<X<X<X<X<X<X<X<X<X<X<X<X<X<X<X<X<X<X<X<X<X<X<X<X<X<X<X3X*XXXV.l O ",
"O C E.3X3X=X@X!.!.!.!.!.!.@X=X,X,X,X<X<X<X<X<X<X<X<X<X<X<X<X<X<X<X<X<X<X<X<X<X<X<X<X<X<X<X<X<X<X<X<X<X<X<X<X<X<X<X<X<X<X<X<X<X<X,X,X,X,X,X4X3XE.C O ",
"O C E.3X3X@X0.3.3.3.3.>.3.0.@X,X,X,X<X3X3X3X3X3X3X3X3X3X3X3X3X3X3X3X3X3X3X3X3X3X3X3X3X3X3X3X3X3X3X3X3X3X3X3X3X3X3X3X3X3X3X3X3X<X<X,X,X,X,X<X3XE.C O ",
"O v R.3X3X!.3.Q ! } :. .{ 3.!.2X2X&X|.R.R.R.R.R.R.R.R.R.R.R.R.R.R.R.R.R.R.R.R.R.R.R.R.R.R.R.R.R.R.R.R.R.R.R.R.R.R.R.R.R.R.R.R..X&X<X,X,X,X<X3XR.v O ",
"O C R.3X3X!.3.! ! :.I.P.:.3.!.3X3X|.H x z c c c c c c c c c c c c c c c c c c c c c c c c c c c c c c c c c c c c c c c c c c G .X<X<X,X,X<X3XR.v O ",
"O C R.3X3X!.5.! ! 6.@X].5.3.!.3X3X|.H x z c c c c c v v v v v v v v v v v v v v v v c v v c c c c c c c c c c c c c c c c f & c R.3X<X,X,X<X3XR.v O ",
"O C R.3X3X!.5.! ! 6.@X].5.3.!.2X2X&X|.R.R.R.R.R.R.R.E.E.R.R.R.E.R.R.R.R.R.E.R.R.E.E.E.E.R.R.R.R.R.R.R.R.R.R.R.R.R.R.R.R.E.V.f c R.3X<X,X,X<X3XR.v O ",
"O C R.3X3X!.5.! ! :.I.I.:.3.!.2X1X,X<X3X3X3X3X3X3X*X.X_.[.{.{.{.{.{.{.{.{.{.{.{.{.{.{.{.{.:X>X2X2X3X3X3X3X3X3X3X3X3X3X3X3XE.c c R.3X<X,X,X<X3XR.v O ",
"O C R.3X3X!.5.~ ~ } :.:.} 5.~.2X2X,X<X<X<X<X<X3X3X.XH A x.v.v.v.v.v.v.v.v.v.v.v.v.v.v.b.b.n.:X2X2X3X3X3X4X<X<X<X<X<X<X3X3XR.c c R.3X<X,X,X<X3XR.v O ",
"O C R.3X2X!.3.! ! ~ ! ! ! :.L.@X=X,X,X,X,X,X,X<X<X|.H Z #.e.i.a.a.i.u.u.i.p.p.y.y.p.p.y.y.k./.}.}.[.[.}.-X1X<X<X,X,X,X<X3XR.c c R.3X<X,X,X<X3XR.v O ",
"O v R.3X2X!.3.! ! ~ ! ! ! {  .9.@X,X,X,X,X,X,X,X,X&X.XS.Z d e.a.a.u.&.&.u.p.p.y.s.s.s.s.s.d.k.b.b.b.b.n.:X2X3X<X,X,X,X<X3XR.c c R.3X<X,X,X<X3XR.v O ",
"O v R.3X3X@X0.3.3.5.6.6.5.3.>.9.].,X,X,X,X,X,X,X,X<X3XXXm.Z #.h.j.c...^ &.z.j.k.d.s.s.s.s.s.s.p.p.y.y.k./.[.).|.&X,X,X<X3XR.c c R.3X<X,X,X<X3XR.v O ",
"O v R.3X3X=X@X!.!.!.'.'.!.!.!.].=X,X,X,X,X,X,X,X,X<X<X*XXXS.Z A U.Y.4.~ ^ 7.Y./.k.s.p.s.s.s.s.s.s.s.s.d.k.x.A H |.<X<X<X3XR.c c R.3X<X,X,X<X3XR.v O ",
"O v R.3X<X,X,X2X2X;X+X+X;X2X2X,X,X,X,X,X,X,X,X,X,X,X,X<X3X.XH F F.K.>.! ! 6.#X}.c.u.j.k.d.s.s.f.f.f.f.i.e.%.> z Q.3X<X4X3XR.c c R.3X<X,X,X<X3XR.v O ",
"O C R.3X<X,X,X2X2X+X0.0.+X2X2X,X,X,X,X,X1X1X,X,X,X,X,X<X<X*X.XF.F -.' ~ ! 6.'.].8.7.Y./.k.p.p.f.f.g.g.e.a > @ c R.3X<X4X3XR.c c R.3X<X,X,X<X3XR.v O ",
"O C R.3X<X,X,X-X+XL. . .L.+X-X,X,X,X1X-X@X@X-X,X,X,X,X,X,X3X3XE.c 1 L / / ;.H.K.:.5.~.}.c.u.j.l.h.X.X.$.Z c c G .X4X<X4X3XR.c c R.3X<X,X,X<X3XR.v O ",
"O C R.3X<X,X2X+X0.:.{ { :.0.+X2X,X,X2X@X9.9.@X2X,X,X,X,X,X<X3XE.v + , 5 5 9 x -.' 6.'.].8.=.Y.U.A t t Z D.E.E..X&X,X,X<X3XR.c c R.3X<X,X,X<X3XR.v O ",
"O C R.3X3X-X+XP.:.! ~ ~ ! :.P.+X-X-X+XL. . .L.+X-X,X,X,X,X<X3XE.C O . X X X X , P ;.H.K.:.5.'. XS * g m.XX3X3X<X,X,X,X<X3XR.c c R.3X<X,X,X<X3XR.v O ",
"O C R.3X3X@X0.:.} ~ [ [ ~ } :.0.+X+X0.:.{ { :.0.@X,X,X,X,X3X3XW.C O . X . . # = < 9 x M ' 6.'. XS f V..X*X3X<X<X,X,X,X<X3XR.c c R.3X<X,X,X<X3XR.v O ",
"O C R.3X3X!.>.Q ~ [ [ [ [ ~ Q 3.~.~.3.Q ~ ~ Q >.!.2X,X,X<X*XXXC.l - l D C l : # # $ , q U ;.J.A.k v E.3X3X,X,X,X,X,X,X<X3XR.c c R.3X<X,X,X<X3XR.v O ",
"O v R.3X2X!.3.Q ~ [ [ [ [ ~ Q 3.~.~.3.Q ~ ~ Q >.!.2X,X<X<X.X1.f * l C.).).C.h . X < U R q 9 x k - C E.3X<X,X,X,X,X,X,X<X3XR.c c R.3X<X,X,X<X3XR.v O ",
"O v R.3X3X@X0.:.} ~ [ ~ ~ } :.0.+X+X0.:.} } :.0.@X,X,X<X3XR.c . . D ).5X5XXXN.j - < I R q 4 2 1 + C E.3X<X,X,X,X,X,X,X<X3XR.c c R.3X<X,X,X<X3XR.v O ",
"O v R.3X3X-X+XP.:.! ~ ~ ! :.P.+X-X-X+XL.:.:.L.+X-X,X,X<X3XE.c . . D E.5X3X6XXXC.k + , q R ) / L 1 S E.3X3X,X,X,X,X,X,X<X3XR.c c R.3X<X,X,X<X3XR.v O ",
"O v R.3X<X,X2X+X0.:.{ { :.0.+X2X,X2X2X^.2.2.^.2X2X,X,X<X3XE.C . . b U.{.}.{.{.U.<.r & 8 I ] [ _ J N S.XX*X<X<X,X,X,X,X<X3XR.c c R.3X<X,X,X<X3XR.v O ",
"O v R.3X<X,X,X-X+XL. . .L.+X-X,X,X<X3XW.M M W.3X<X,X,X4X3XW.C . X y x.b.b.b.v.j.h.#.e $ 8 K ] [ _ Y m m.XX3X<X,X,X,X,X<X3XR.c c R.3X<X,X,X<X3XR.v O ",
"O v R.3X<X,X,X,X2X@X0.0.@X2X,X,X<X3X3XR.c c R.3X<X,X,X*XXXC.l # X t *.a.a.a.a.i.t.#.e o o 8 L _ [ _ q m S.XX*X<X,X,X,X<X3XR.c c R.3X<X,X,X<X3XR.v O ",
"O v R.3X<X,X,X,X1X-X@X@X-X,X,X,X<X3X3XE.c c E.3X3X<X<X.X1.h : # X t *.a.g.g.a.w.+.e ; # % $ 8 J _ [ _ Y m m.XX3X<X,X,X<X3XR.c c R.3X<X,X,X<X3XR.v O ",
"O v R.3X<X,X,X,X,X&X.X.X&X<X<X&X.XE.E.V.f f V.XX*X3X3XR.c . . - l A $.X.X.X.*.O.r $ < 7 = ; e i T _ [ _ q m S.XX*X<X,X<X3XR.c c R.3X<X,X,X<X3XR.v O ",
"O v R.3X<X,X,X<X<X|.G H |.3X3X.XG c c f * * h N..X3X3XR.v . . l D.D.A t t t t r & , U I < e #.$.u J _ [ _ Y m m.XX3X<X<X3XR.c c R.3X<X,X,X<X3XR.v O ",
"O v R.3X<X,X,X<X3XR.x x R.3X3XR.c & f v C h * c R.3X3XE.C + , ,._._.,.9 n k - - k -.| ) 3 e #.o.s u Y _ [ _ q m S.XX*X3X3XR.c c R.3X<X,X,X<X3XR.v O ",
"O v R.3X<X,X,X<X3XR.c c R.3X3XR.c f V.W.).V.f c R.3X3XE.C , L 2.`.`.2.;.G.Z.j j A.K.>./ 3 ; e a o.$.u J _ [ _ Y m m.XX3X3XR.c c R.3X<X,X,X<X3XR.v O ",
"O v R.3X<X,X,X<X3XR.c c R.3X3XR.c c E.3X3XE.c c E.,XOXC.k 6 W 6.'.!.3.3.'._.A A _.'.6./ 3 o X t e.r.p u Y _ [ _ q m S.OX,XE.c c R.3X<X,X,X<X3XR.v O ",
"O v R.3X<X,X,X<X3XR.c c R.3X3XR.c c R.3X3XE.c v ).OXB.j - 3 ) 6.'.!.3.3.'.`.2.2.`.'.6./ 3 o X t e.s.w.O.u q _ [ _ Y m M.OXW.v c R.3X<X,X,X<X3XR.v O ",
"O v R.3X<X,X,X<X3XR.c c R.3X3XR.c c R.3X3XE.c l D.D.l . X , P 2.`.'.3.3.'.'.3.3.'.`.2.P < # # e #.r.s.w.p u Y _ [ _ q m D.A.l c R.3X<X,X,X<X3XR.v O ",
"O v R.3X<X,X,X<X3XR.c c R.3X3XR.c c E.3X3XE.C - l l : # # $ , ,.oX'.3.3.'.'.3.3.'.oX,., = % % ; r +.r.s.w.O.u J _ ~ _ Y M k - v R.3X<X,X,X<X3XR.v O ",
"O v R.3X<X,X,X<X3XR.c c R.3X3XR.c f V.W.).A.l O O # # = 7 , + k A.J.;.;.H.H.;.;.J.A.l # % % % # X r O.r.s.w.p u Y _ [ _ J 1 + C R.3X<X,X,X<X3XR.v O ",
"O v R.3X<X,X,X<X3XR.c c R.3X3XR.c & f v C l : % % # X 7 I I < - l b 9 9 x x 9 9 x l - # % % # # o & r p r.s.w.O.u J _ [ _ L , C R.3X<X,X,X<X3XR.v O ",
"O v R.3X<X,X,X<X3XR.c c R.3X3X.XN.C v l - O % % % = 8 K ] ] K < + # # $ , 2 4 4 2 , = % % = < 5 5 2 4 u @.w.s.w.p u Y _ [ / 2 C R.3X<X,X,X<X3XR.v O ",
"O v R.3X<X,X,X<X3XR.c c R.3X<X&XXX).).A.k . # % # 7 I _ [ [ _ I < X X < P / / / / P < # % 7 I / / / / Y u p w.s.w.O.u J ] ) 2 C R.3X<X,X,X<X3XR.v O ",
"O v R.3X<X,X,X<X3XR.c c R.3X3X*XXX(. XD.M < = # % 5 / [ [ [ [ / 5 o o 5 / { { { { ) 5 o o 5 ) { [ [ [ _ J u @.r.s.w.p i T P , C R.3X<X,X,X<X3XR.v O ",
"O v R.3X<X,X,X<X3XR.c c E.3X3XXXM.V S M R U 4 # o 5 / [ [ [ [ / 5 o o 5 / [ { { { ) 5 X o 5 ) { [ [ [ [ _ T u p r.s.r.$.i , + C R.3X<X,X,X<X3XR.v O ",
"O v R.3X<X,X,X<X3XR.c h V.).).S.N 6 2 J ] ) w o o 5 / [ [ [ [ / 5 o o 5 / [ _ / / I 8 X X , I / / / / / / I 8 r O.*.e.#.e X . C E.3X<X,X,X<X3XR.v O ",
"O v R.3X<X,X,X<X3XR.C - l D C N R / / _ [ ) 5 o o 5 / [ [ [ [ / 5 o o 5 ) ] J 2 4 8 $ # # + < 4 4 4 4 2 5 8 $ & r t t e ; X . C E.3X<X,X,X<X3XR.v O ",
"O v R.3X<X,X,X<X3XE.C O . . . , P ) ) / / P < o o < P / / / / P < X X < I R M x 9 2 2 9 b b 9 4 4 9 x x 9 2 2 9 x x 9 2 5 < + C R.3X<X,X,X<X3XR.v O ",
"O v R.3X<X,X,X<X3XE.C O . . . + , 5 5 5 2 , $ % % $ , 2 2 2 2 , + # # $ , M D.J.;.W W ;.J.H.;.( ( ;.H.H.;.W W ;.H.H.;./ / P , C R.3X<X,X,X<X3XR.v O ",
"O v R.3X<X,X,X<X3XR.C + , 9 b b 9 4 4 9 x x 9 2 3 9 x S D D D D D b 9 6 6 A _.%Xq.3.3.q.%X'.6.Q Q 5.'.%Xq.3.3.q.%X'.5.! ! / 2 C R.3X<X,X,X<X3XR.v O ",
"O v R.3X<X,X,X<X3XR.C , E ;.J.H.;.( ( ;.H.H.;.W W ;.G.(.(.(.(.(.E.G.;.W W 2.^.>X$X'.!.$X,X!.3.Q Q 3.!.>X$X!.!.$X,X!.3.Q ! W 2 C R.3X<X,X,X<X3XR.v O ",
"O v R.3X<X,X,X<X3XR.v 9 ;.q.%X'.5.Q Q 6.'.%Xq.3.3.0.$X>X$X'.'.$X>X+Xq.3.3.0.+X;X$X~.'.$X;X+X0.3.3.0.+X;X$X!.!.$X;X+X0.5.6.;.9 v R.3X<X,X,X<X3XR.v O ",
"O v R.3X<X,X,X<X3XR.c n J.%X,X!.3.Q Q 3.!.>X$X~.!.$X;X+X0.3.3.0.+X;X$X~.~.$X>X+X0.3.3.0.$X>X$X~.'.$X>X$X0.3.3.0.$X>X$X'.'.J.n c R.3X<X,X,X<X3XR.v O ",
"O v R.3X<X,X,X<X4XR.c n J.%X,X+X0.3.3.0.+X;X$X~.!.$X>X~.3.Q Q 3.!.>X$X`.W.(.E.G.;.W W ;.G.(.(.E.(.(.(.G.;.W W ;.G.(.(. X XC.h c R.3X<X,X,X<X3XR.v O ",
"O v R.3X<X,X,X<X4XR.v 9 ;.q.$X>X$X'.'.$X>X+X0.3.3.q.%X'.5.Q Q 6.'.%Xq.2.A S S b 9 2 2 9 x S S D D D D b 9 2 2 9 x S D D D l - v R.3X<X,X,X<X3XR.v O ",
"O v R.3X<X,X,X<X3XR.C , E ;.G.E.(.E.E.(.(.G.;.W W ;.H.H.;.( ( ;.H.H.;.U q 1 + # # $ 8 4 4 2 2 , + O O + < 5 5 5 2 , + . . . O C E.3X<X,X,X<X3XR.v O ",
"O v R.3X<X,X,X<X3XR.C + , 9 x B S S D D S x 9 2 2 9 x x 9 5 5 9 x x 9 q U P < X X 8 I / / / / P < X X , I / / ) ) P , . . . O C E.3X<X,X,X<X3XR.v O ",
"O v R.3X<X,X,X<X3XE.C . X ; r t t r & + , 2 5 4 4 4 2 , $ % % $ , 4 4 K _ ) 5 o o 5 / [ { { [ / 5 o o 5 ) [ _ / / R N C D l - C R.3X<X,X,X<X3XR.v O ",
"O v R.3X<X,X,X<X3XE.C . X e O.e.*.%.r 1 P ) / / / / / P < o o < P / / _ [ / 5 o o 5 / { [ [ [ / 5 o X w ) ] K 2 6 N S.).).V.h c R.3X<X,X,X<X3XR.v O ",
"O v R.3X<X,X,X<X3XR.C + , i $.r.s.w.p u T _ [ [ [ [ { ) 5 o o 5 ) [ [ [ { / 5 o o 5 / { [ [ [ / 5 o # 4 U R M S V m.XX3X3XE.c c R.3X<X,X,X<X3XR.v O ",
"O v R.3X<X,X,X<X3XR.C , P T i p w.s.r.@.u J _ { [ [ { ) 5 o o 5 ) { { { { / 5 o o 5 / { [ [ [ / 5 % # = < M D. X(.XX*X3X3XE.c c R.3X<X,X,X<X3XR.v O ",
"O v R.3X<X,X,X<X3XR.C 2 ) ] J u O.w.s.w.p u Y / / / / I < # % < P / / / / P < X X , I _ [ [ _ I 7 % % # . k A.).).XX&X4X3XR.c c R.3X<X,X,X<X3XR.v O ",
"O v R.3X<X,X,X<X3XR.C 2 / [ _ Y u p w.s.w.@.u 4 2 5 5 7 = % % = , 2 4 4 2 , $ # # + < K ] ] K 8 = % % % O - l v C N..X3X3XR.c c R.3X<X,X,X<X3XR.v O ",
"O v R.3X<X,X,X<X3XR.C , L _ [ _ J u O.w.s.r.p r & o # # % % # - l x 9 9 x x 9 9 b l - < I I 7 X # % % : l C v f & c R.3X3XR.c c R.3X<X,X,X<X3XR.v O ",
"O v R.3X<X,X,X<X3XR.C + 1 J _ [ _ Y u p w.s.r.O.r X # % % # X l A.J.;.;.H.H.;.;.J.A.k + < 7 = # # O O l C.).W.V.f c R.3X3XR.c c R.3X<X,X,X<X3XR.v O ",
"O v R.3X<X,X,X<X3XR.v - k M Y _ ~ _ J u O.w.s.r.+.r ; % % = , ,.oX'.3.3.'.'.3.3.'.oX,., $ # # : l l - C E.3X3XE.c c R.3X3XR.c c R.3X<X,X,X<X3XR.v O ",
"O v R.3X<X,X,X<X3XR.c l A.D.m q _ [ _ Y u p w.s.r.#.r # # < P 2.`.'.3.3.'.'.3.3.'.`.2.P < X . l D.A.l c E.3X3XE.c c R.3X3XR.c c R.3X<X,X,X<X3XR.v O ",
"O v R.3X<X,X,X<X3XR.c v W.OXM.m Y _ [ _ J u O.w.s.e.t X o 3 / 6.'.`.2.2.`.'.3.3.!.'.6.) 3 - j B.OXW.v c E.3X3XE.c c R.3X3XR.c c R.3X<X,X,X<X3XR.v O ",
"O v R.3X<X,X,X<X3XR.c c E.,XOXS.m q _ [ _ Y u p r.e.t X o 3 / 6.'._.A A _.'.3.3.!.'.6.` 6 k C.OX,XE.c c E.3X5XE.c c R.3X3XR.c c R.3X<X,X,X<X3XR.v O ",
"O v R.3X<X,X,X<X3XR.c c R.3X3XXXm.m Y _ [ _ J u $.o.a e ; 3 / >.K.A.j j Z.G.;.2.`.`.2.U , S E.3X3XR.c f V.).).V.f c R.3X3XR.c c R.3X<X,X,X<X3XR.v O ",
"O v R.3X<X,X,X<X3XR.c c R.3X3X*XXXS.m q _ [ _ Y u s o.#.e 2 ) | -.k - - k n 9 ,._.oX,., + C E.3X3XR.c * h C C f & c R.3X3XR.x x R.3X<X,X,X<X3XR.v O ",
"O v R.3X<X,X,X<X3XR.c c R.3X<X<X3XXXm.m Y _ [ _ J u $.#.e < I U , & r t t t t A D.D.l . . v R.3X3X.X1.h * * h c c G .X3X3X|.H H |.<X<X,X,X<X3XR.v O ",
"O v R.3X<X,X,X<X3XR.c c R.3X<X,X<X*XXXS.m J _ [ _ T i e ; = 7 < $ r O.*.X.X.X.$.A l - . . c R.3X3X*XXXV.f f V.E.E..X&X<X<X&X.X.X&X,X,X,X,X<X3XR.v O ",
"O v R.3X<X,X,X<X3XR.c c R.3X<X,X,X<X3XXXm.m Y _ [ _ J 8 $ % # ; r +.w.g.g.g.a.*.t X # : h 1..X<X<X3X3XE.c c E.3X3X4X,X,X,X-X@X@X-X,X,X,X,X<X3XR.v O ",
"O v R.3X<X,X,X<X3XR.c c R.3X<X,X,X<X<X*XXXS.N J _ [ _ L 8 o o e #.r.i.a.a.a.a.*.t X # l C.XX*X,X,X<X3XR.c c R.3X3X<X,X,X2X@X0.0.@X2X,X,X,X<X3XR.v O ",
"O v R.3X<X,X,X<X3XR.c c R.3X<X,X,X,X,X3X3XE.c 1 L ] [ ] K 8 $ e #.h.j.v.b.b.b.x.y X . C W.3X3X,X,X<X3XW.M M W.3X4X,X,X-X+XL. . .L.+X-X,X,X<X3XR.v O ",
"O v R.3X<X,X,X<X3XR.c c R.3X<X,X,X,X,X4X3XE.c O 1 K ] [ ] I 8 & r <.U.{.{.}.{.U.b . . C E.3X4X,X,X2X2X^.2.2.^.2X2X,X2X+X0.:.{ { :.0.+X2X,X<X3XR.v O ",
"O v R.3X<X,X,X<X3XR.c c R.3X<X,X,X,X,X<X<X.X1.j - , L / ) R q , + k C.XX6X3X5XE.C . . C E.3X<X,X,X-X+XL.:.:.L.+X-X-X+XP.:.! ~ ~ ! :.P.+X-X3X3XR.v O ",
"O v R.3X<X,X,X<X3XR.c c R.3X<X,X,X,X,X,X,X*XXXC.l + , 2 4 q R I < - j B.XX5X5XW.C . . C E.3X<X,X,X@X0.:.} } :.0.+X+X0.:.} ~ [ [ ~ } :.0.@X3X3XR.v O ",
"O v R.3X<X,X,X<X3XR.c c R.3X<X,X,X,X,X,X,X3X3X).C - k x 9 q R U < X . h C.).).A.l O . c R.3X<X,X2X!.>.Q ~ ~ Q 3.'.'.3.Q ~ [ [ [ [ ~ Q >.!.3X3XR.v O ",
"O v R.3X<X,X,X<X3XR.c c R.3X<X,X,X,X,X,X,X3X3XW.v k C.J.;.U q , $ # # : l C C l : O . c R.3X<X,X2X!.>.Q ~ ~ Q 3.~.~.3.Q ~ [ [ [ [ ~ Q >.!.3X3XR.v O ",
"O v R.3X<X,X,X<X3XR.c c R.3X<X,X,X,X<X<X3X*XXXV.f S  X'.6.' M x 9 < = # X . . O % : h 1..X<X<X,X1X@X0.:.{ { :.0.+X+X0.:.} ~ [ [ ~ } :.0.@X3X3XR.v O ",
"O v R.3X<X,X,X<X3XR.c c R.3X<X,X,X,X<X3X3XXXm.g * S  X'.5.:.K.H.;.P , X X X X . O l C.XX*X,X,X,X,X-X+XL. . .L.+X-X-X+XP.:.! ~ ~ ! :.P.+X-X3X3XR.v O ",
"O v R.3X<X,X,X<X3XR.c c R.3X<X,X,X&X.XE.E.D.Z t t A U.Y.=.8.].'.6.' -.x 9 5 5 , + C ).3X3X,X,X,X,X,X2X@X9.9.@X2X,X,X2X+X0.:.{ { :.0.+X2X,X<X3XR.v O ",
"O v R.3X<X,X,X<X3XR.c c R.3X<X<X<X.XG c c Z $.X.X.h.l.j.u.c.}.~.5.:.K.H.;./ / L 1 v (.3X3X,X,X,X,X,X,X-X@X@X-X,X,X,X,X-X+XL. . .L.+X-X1X,X<X3XR.v O ",
"O v R.3X<X,X,X<X3XR.c c R.3X<X<X3XQ.c @ > a w.a.g.f.f.p.p.k./.Y.=.8.].'.6.! ~ ' -.F F..X*X4X<X,X,X,X,X,X1X,X,X,X,X,X,X2X2X+X0.0.+X2X2X,X,X<X3XR.v O ",
"O v R.3X<X,X,X<X3XR.c c R.3X<X<X3XQ.z > %.e.i.g.f.f.s.s.s.d.k.j.u.c.}.#X6.! ! >.K.F.F H .X3X<X,X,X,X,X,X,X,X,X,X,X,X1X2X2X;X+X+X;X2X2X1X,X<X3XR.v O ",
"O v R.3X<X,X,X<X3XR.c c R.3X<X<X<X|.H A x.k.d.p.s.s.s.s.s.s.s.p.p.k./.Y.7.^ ~ 4.Y.U.A Z S.XX*X<X<X,X,X,X,X,X,X,X,X=X].!.!.!.'.'.!.!.!.@X=X3X3XR.v O ",
"O v R.3X<X,X,X<X3XR.c c R.3X<X,X,X&X|.).[./.k.y.y.p.p.s.s.s.s.s.s.d.k.j.z.&.^ ..c.j.h.#.Z m.XX3X<X,X,X,X,X,X,X,X1X].9.>.3.5.6.6.5.3.3.0.@X3X3XR.v O ",
"O v R.3X<X,X,X<X3XR.c c R.3X<X,X,X,X<X3X1X:Xn.b.b.b.b.k.d.s.s.s.s.s.y.p.p.u.&.&.u.a.a.e.d Z S..X&X,X,X,X,X,X,X,X1X@X9. .{ ! ! ! ~ ! ! 3.!.3X3XR.v O ",
"O v R.3X<X,X,X<X3XR.c c R.3X<X,X,X,X<X<X1X-X}.[.[.}.}./.k.y.y.y.y.y.y.p.p.i.u.u.i.a.a.i.e.#.Z H |.<X<X,X,X,X,X,X,X=X@XL.:.! ! ! ~ ! ! 3.!.3X3XR.v O ",
"O v R.3X<X,X,X<X3XR.c c R.3X3X<X<X<X<X<X<X4X3X3X2X2X2X:Xn.b.b.v.v.v.v.v.v.v.v.v.v.v.v.v.v.x.A H .X3X3X<X<X<X<X<X,X2X2X~.5.} :.:.} ~ ~ 5.!.3X3XR.v O ",
"O v R.3X<X,X,X<X3XR.c c E.3X3X3X3X3X3X3X3X3X3X3X3X2X2X>X:X{.{.{.{.{.{.{.{.{.{.{.{.{.{.{.{.[._..X*X3X3X3X3X3X3X<X,X,X2X!.3.:.I.I.>.! ! 5.!.2X3XR.v O ",
"O v R.3X<X,X,X<X3XR.c f V.E.R.R.R.R.R.R.R.R.R.R.R.R.R.Q.R.R.R.R.E.E.E.E.E.R.E.E.R.R.R.R.R.R.E.E.R.R.R.R.R.R.R.|.&X2X2X!.3.5.].].6.! ! 5.!.2X3XR.v O ",
"O v R.3X<X,X,X<X3XR.c & f c c c c c c c c c c c c c c c v v v v v v c v v c v v v v v v v v v c c c c c c z x H |.3X3X!.3.5.].].6.! ! 5.!.2X3XR.v O ",
"O v R.3X<X,X,X<X<X.XG c c c c c c c c c c c c c c c c c c c c c c c c c c c c c c c c c c c c c c c c c c z x H |.3X3X!.>. .L.I.:.! ! 3.!.2X2XR.v O ",
"O v R.3X<X,X,X,X,X&X.XR.R.R.R.R.R.R.R.R.R.R.R.R.R.R.R.R.R.R.R.R.R.R.R.R.R.R.R.R.R.R.R.R.R.R.R.R.R.R.R.R.R.R.R.|.&X2X2X!.3.{  .:.} ! Q 3.!.3X3XR.C O ",
"O C E.3X<X,X,X,X,X,X<X3X3X3X3X3X3X3X3X3X3X3X3X3X3X3X3X3X3X3X3X3X3X3X3X3X3X3X3X3X3X3X3X3X3X3X3X3X3X3X3X3X3X3X3X<X,X,X,X@X0.3.>.3.3.3.3.0.@X3X3XE.C O ",
"O C E.3X3X,X,X,X,X,X<X<X<X<X<X<X<X<X<X<X<X<X<X<X<X<X<X<X<X<X<X<X<X<X<X<X<X<X<X<X<X<X<X<X<X<X<X<X<X<X<X<X<X<X<X<X,X,X,X=X@X!.!.!.!.!.!.@X=X3X3XE.C O ",
"O l V.XX*X3X<X<X<X<X<X<X<X<X<X<X<X<X<X<X<X<X<X<X<X<X<X<X<X<X<X<X<X<X<X<X<X<X<X<X<X<X<X<X<X<X<X<X<X<X<X<X<X<X<X<X<X<X<X<X3X3X3X3X3X3X2X3X3X*XXXV.l O ",
"% : h N.XX3X3X3X3X3X3X3X3X3X3X3X3X3X3X3X3X3X3X3X3X3X3X3X3X3X3X3X3X3X3X3X3X3X3X3X3X3X3X3X3X3X3X3X3X3X3X3X3X3X3X3X3X3X3X3X3X3X3X3X3X3X3X3X3XXXN.h : % ",
"% O O h V.E.E.R.R.R.R.R.R.R.R.R.R.R.R.R.R.R.R.R.R.R.R.R.R.R.R.R.R.R.R.R.R.R.R.R.R.R.R.R.R.R.R.R.R.R.R.R.R.R.R.R.R.R.R.R.R.R.R.R.R.R.R.E.E.V.h O # % ",
"    O : l C C v v v v v v v v v v v v v v v v v v v v v v v v v v v v v v v v v v v v v v v v v v v v v v v v v v C v v v v v v v C C C C l : #     ",
"    % % O O O O O O O O O O O O O O O O O O O O O O O O O O O O O O O O O O O O O O O O O O O O O O O O O O O O O O O O O O O O O O O O O O % %     "
};
