/* XPM */
static char *diamonds_7[] = {
/* columns rows colors chars-per-pixel */
"74 104 136 2 ",
"   c None",
".  c #1F002C",
"X  c #20012D",
"o  c #21012D",
"O  c #21012E",
"+  c #22032F",
"@  c #23032F",
"#  c #250632",
"$  c #270833",
"%  c #30133B",
"&  c #482E50",
"*  c #4B3152",
"=  c #583F5D",
"-  c #59405D",
";  c #59415E",
":  c #FF0013",
">  c #FF0014",
",  c #FF0115",
"<  c #FF0316",
"1  c #FF0317",
"2  c #FF0418",
"3  c #FF071A",
"4  c #FF091C",
"5  c #FF0B1E",
"6  c #FF0D20",
"7  c #FF0F21",
"8  c #FF1123",
"9  c #FF1224",
"0  c #FF1324",
"q  c #FF1627",
"w  c #FF1728",
"e  c #FF1829",
"r  c #FE303D",
"t  c #FE313E",
"y  c #FE323F",
"u  c #FE3340",
"i  c #FE3440",
"p  c #FE3441",
"a  c #FD3542",
"s  c #FD3642",
"d  c #FD3743",
"f  c #FD3C48",
"g  c #FD3E49",
"h  c #FD3F4A",
"j  c #FD404B",
"k  c #FD414B",
"l  c #FD424D",
"z  c #FD434D",
"x  c #FD444E",
"c  c #FD454F",
"v  c #FB6C70",
"b  c #FB6D71",
"n  c #FB7074",
"m  c #FB7175",
"M  c #FB7276",
"N  c #FB7376",
"B  c #FB7679",
"V  c #816E80",
"C  c #9B8B96",
"Z  c #FA8D8D",
"A  c #FA8F8E",
"S  c #FA8F8F",
"D  c #FA908F",
"F  c #FA9392",
"G  c #C2B8B7",
"H  c #C4BAB9",
"J  c #C6BCBB",
"K  c #F8B7B1",
"L  c #F8B8B1",
"P  c #F8B9B2",
"I  c #F8B9B3",
"U  c #F8BAB3",
"Y  c #F8BBB4",
"T  c #F8BDB5",
"R  c #F8BDB6",
"E  c #F8BEB7",
"W  c #F8BFB8",
"Q  c #F8C1B9",
"!  c #F8C7BE",
"~  c #F8C8BF",
"^  c #D5CDC7",
"/  c #F7CDC4",
"(  c #F7CEC5",
")  c #F8C9C0",
"_  c #F8CAC1",
"`  c #F8CBC2",
"'  c #F8CCC2",
"]  c #F8CDC3",
"[  c #F7D0C6",
"{  c #F7D2C8",
"}  c #F7D4C9",
"|  c #EFEBDE",
" . c #F6E5D8",
".. c #F7E5D8",
"X. c #F7E6D9",
"o. c #F6E7DA",
"O. c #F6E8DB",
"+. c #F6E9DB",
"@. c #F6EBDD",
"#. c #F6ECDE",
"$. c #F6EDDF",
"%. c #F6F0E2",
"&. c #F6F3E4",
"*. c #F6F4E5",
"=. c #F6F5E5",
"-. c #F6F5E6",
";. c #F6F6E6",
":. c #F6F6E7",
">. c #F6F7E7",
",. c #F9F6E7",
"<. c #FAF7E7",
"1. c #F6F7E8",
"2. c #F6F8E8",
"3. c #F6F9E9",
"4. c #F6FAEA",
"5. c #F6FBEB",
"6. c #F6FCEC",
"7. c #F6FDEC",
"8. c #F6FEED",
"9. c #F6FFEE",
"0. c #F9F8E8",
"q. c #FAF8E8",
"w. c #FBF8E8",
"e. c #FBF9E8",
"r. c #FAF9E9",
"t. c #FBF9E9",
"y. c #F9FBEA",
"u. c #FBFBEA",
"i. c #FAFBEB",
"p. c #FDFBEA",
"a. c #F9FCEB",
"s. c #FAFCEB",
"d. c #FBFCEB",
"f. c #FFFDEB",
"g. c #FDFEEC",
"h. c #FFFEEC",
/* pixels */
"    $ # @ @ @ @ @ @ @ @ @ @ @ @ @ @ @ @ @ @ @ @ @ @ @ @ @ @ @ @ @ @ @ @ @ @ @ @ @ @ @ @ @ @ @ @ @ @ @ @ @ @ @ @ @ @ @ @ @ @ @ @ @ @ @ @ @ @ # $     ",
"    @ % * ; ; = = = = = = = = = = = = = = = = = = = = = = = = = = = = = = = = = = = = = = = = = = = = = = = = = = = = = = = = = = = = ; ; * % @     ",
"$ @ . & C J H G G G G G G G G G G G G G G G G G G G G G G G G G G G G G G G G G G G G G G G G G G G G G G G G G G G G G G G G G G G G H H C & . @ $ ",
"# % & V ^ g.g.a.a.a.u.u.u.u.a.u.u.u.u.u.u.u.u.u.u.u.u.u.u.u.u.u.u.u.u.u.u.u.u.u.u.u.u.u.u.u.u.u.u.u.u.u.u.u.u.u.u.u.u.u.u.u.u.u.u.u.u.p.f.^ V & % # ",
"@ * C ^ | u.u.a.a.a.a.a.u.u.a.u.u.,.,.,.,.,.,.,.,.,.,.,.,.,.,.,.,.,.,.,.,.,.,.,.,.,.,.,.,.,.,.,.,.,.,.,.,.,.,.,.,.,.,.,.,.,.,.,.,.,.,.,.<.| ^ C * @ ",
"@ ; J g.u. .! K I I I I Y Y Y )  .;.;.&.&.&.&.&.%.%.&.&.&.&.&.&.&.&.&.&.&.%.&.&.&.&.&.&.&.&.&.&.%.%.&.&.&.&.&.&.&.&.&.&.&.%.&.&.&.&.&.&.&.,.f.J ; @ ",
"@ ; H g.u.~ v f f k k l x x l n ) ;.;.&.&.&.&.&.%.&.&.&.&.&.&.&.&.&.&.&.&.&.&.&.&.&.&.&.&.&.&.&.%.&.&.&.&.&.&.&.&.&.&.&.&.&.&.&.&.&.&.&.&.,.p.H ; @ ",
"@ = G u.u.~ v f f l x s e 2 , f I 5.;.&.&.&.&.&.&.&.&.&.&.&.&.&.&.&.&.&.&.&.&.%.&.&.&.&.&.&.&.&.&.&.&.&.&.&.&.&.&.&.&.&.&.&.&.%.&.&.&.&.&.,.u.G = @ ",
"@ = G u.u. .! K I T Q F s , , f I 5.;.&.&.&.&.&.&.&.&.&.&.&.&.&.&.&.&.&.&.&.&.&.&.&.&.&.&.&.&.&.&.&.&.&.&.&.&.&.&.&.&.&.&.&.&.&.&.&.&.&.&.,.u.G = @ ",
"@ = G u.,.;.;.5.6.%.} F s 0 y n ) ;.;.&.&.&.&.;.;.;.;.&.&.&.&.&.&.&.&.&.&.&.&.&.&.&.&.&.&.&.&.;.;.;.;.&.&.&.&.&.&.&.&.&.&.&.&.&.&.&.&.&.&.,.u.G = @ ",
"@ = G u.,.;.;.5.6.[ B u 0 y A / O.;.;.&.&.&.&.;.1.1.;.&.&.&.&.&.&.&.&.&.&.&.&.&.&.&.&.&.&.&.&.;.1.1.;.&.&.&.&.&.&.&.&.&.&.&.&.&.&.&.&.&.&.,.u.G = @ ",
"@ = G u.,.;.;.O./ A y 8 y n / 5.;.&.&.&.&.;.;. .) ) O.;.;.&.&.&.&.&.&.&.&.&.&.&.&.&.&.&.&.;.1.O.) ) O.;.;.&.&.&.&.&.&.&.&.&.&.&.&.&.&.&.&.,.u.G = @ ",
"@ = G u.,.;.;.) n y 0 s A / @.1.;.&.&.&.&.1.5.) v v ) 5.1.&.&.&.&.&.&.&.&.&.&.&.&.&.&.&.&.;.5.) v v ) 5.;.&.&.&.&.&.&.&.&.&.&.&.&.&.&.&.%.,.u.G = @ ",
"@ = G u.,.;.5.I f : , x Q 6.5.&.&.&.&.;.1.@./ A r y A / @.1.;.&.&.&.&.&.&.&.&.&.&.&.&.;.;.@./ A r y A / @.;.;.&.&.&.&.&.&.&.&.&.&.&.&.&.%.,.u.G = @ ",
"@ = G u.,.;.5.I k : , l T 5.1.&.&.&.&.;.5./ n u q q u n / 5.;.&.&.&.&.&.&.&.&.&.&.&.&.;.5./ n u q q u n / 5.;.&.&.&.&.&.&.&.&.&.&.&.&.&.%.,.u.G = @ ",
"@ = G u.,.;.1.) n k l n ) ;.;.&.&.;.;.@./ D s 2 4 4 2 s D / @.;.;.&.&.&.&.&.&.&.&.;.;.@./ D s 2 4 4 2 s D / @.;.;.&.&.&.&.&.&.&.&.&.&.&.&.,.u.G = @ ",
"@ = G u.,.&.;. .) Y T /  .;.;.&.&.;.5./ n s w 4 7 7 4 w s n / 5.;.&.&.&.&.&.&.&.&.;.5./ n s w 4 7 7 4 w s n / 5.1.&.&.&.&.&.&.&.&.&.&.&.&.,.u.G = @ ",
"@ = G u.,.%.%.;.5.$./ ] O.;.;.;.;.O./ A s 2 4 7 7 7 7 4 2 s D / O.;.;.&.&.&.&.;.;.O./ D s 2 4 7 7 7 7 4 2 s D / O.;.;.&.&.&.&.&.&.&.&.&.&.,.u.G = @ ",
"@ = G u.,.&.%.1.6./ n b ] 5.;.;.;.) n s w 4 7 7 7 7 7 7 4 w s n ) ;.;.&.&.&.&.;.1.) n s w 4 7 7 7 7 7 7 4 w s n ) 1.;.&.&.&.&.&.&.&.&.&.&.,.u.G = @ ",
"@ = G u.,.;.;.@./ A y y A / @.5.5.I f , 4 7 7 7 7 7 7 7 7 4 , f I 5.;.&.&.&.&.;.5.I f , 4 7 7 7 7 7 7 7 7 4 , f I 5.;.&.&.&.&.&.&.&.&.&.&.,.u.G = @ ",
"@ = G u.,.;.5./ n u q q u n / 6.6.I f , 4 7 7 7 7 7 7 7 7 4 , f I 5.;.&.&.&.&.;.5.I f , 4 7 7 7 7 7 7 7 7 4 , f I 5.;.&.&.&.&.&.&.&.&.&.&.,.u.G = @ ",
"@ ; G u.u.O./ D s 2 4 4 2 s D [ $.] n s w 4 7 7 7 7 7 7 4 w s n ) ;.;.&.&.&.&.;.1.) n s w 4 7 7 7 7 7 7 4 w s n ) ;.;.&.&.&.&.&.&.&.&.&.&.,.u.G = @ ",
"@ = G u.u.) n s w 4 7 7 5 w s n ] $.[ D s 2 4 7 7 7 7 4 2 s D / O.;.;.&.&.&.&.;.;.O./ D s 2 4 7 7 7 7 4 2 s D / O.;.;.&.&.&.&.&.&.&.&.&.&.,.u.G = @ ",
"@ = G a.a.I f , 4 7 7 8 8 4 , f I 6.6./ n s w 4 7 7 4 w s n / 5.;.&.&.&.&.&.&.&.&.;.5./ n s w 4 7 7 4 w s n / 5.;.&.&.&.&.&.&.&.&.&.&.&.&.,.u.G = @ ",
"@ = G a.a.I f , 4 7 7 7 7 4 , f I 5.5.@./ A s 2 4 4 2 s A / @.;.;.&.&.&.&.&.&.&.&.;.;.@./ A s 2 4 4 2 s A / @.;.;.&.&.&.&.&.&.&.&.&.&.&.&.,.u.G = @ ",
"@ = G u.u.) n s w 4 7 7 4 w s n ) ;.;.1.5./ n u q q u n / 5.;.&.&.&.&.&.&.&.&.&.&.&.&.;.5./ n u q q u n / 5.;.&.&.&.&.&.&.&.&.&.&.&.&.&.&.,.u.G = @ ",
"@ = G u.u.O./ D s 2 4 4 2 s D / O.;.;.;.;.@./ A y y A / @.;.;.&.&.&.&.&.&.&.&.&.&.&.&.;.;.@./ A y y A / @.;.;.&.&.&.&.&.&.&.&.&.&.&.&.&.&.,.u.G = @ ",
"@ = G u.,.;.5./ n u q q u n / 5.;.&.&.&.&.;.5.) v v ) 5.;.&.&.&.&.&.&.;.;.;.;.&.&.&.&.&.&.;.5.) v v ) 5.;.&.&.&.&.&.&.&.&.&.&.&.&.&.&.&.&.,.u.G = @ ",
"@ = G u.,.;.;.@./ A y y A / @.;.;.&.&.&.&.;.;. .) )  .;.;.&.&.&.&.&.&.;.1.1.;.&.&.&.&.&.&.;.;. .) ) O.;.;.&.&.&.&.&.&.&.&.&.&.&.&.&.&.&.%.,.u.G = @ ",
"@ = G u.,.%.&.;.5.) v v ) 5.;.&.&.&.&.&.&.&.&.;.1.1.;.&.&.&.&.&.&.;.;.O.) )  .;.;.&.&.&.&.&.&.;.1.1.;.&.&.&.&.&.&.&.&.&.&.&.&.&.&.&.&.&.%.,.u.G = @ ",
"@ = G u.,.&.&.;.;.O.) ) O.;.;.&.&.&.&.&.&.&.&.;.;.;.;.&.&.&.&.&.&.;.5.) v v ) 5.;.&.&.&.&.&.&.;.;.;.;.&.&.&.&.&.&.&.&.&.&.&.&.&.&.&.&.&.%.,.u.G = @ ",
"@ = G u.,.&.&.%.&.;.1.1.;.&.&.&.&.&.&.&.&.&.&.&.&.&.&.&.&.&.&.;.;.@./ A y y A / @.;.;.&.&.&.&.&.&.&.&.&.&.&.&.&.&.&.&.&.&.&.&.&.&.&.&.&.&.,.u.G = @ ",
"@ = G u.,.&.&.&.&.;.;.;.;.&.&.&.&.&.&.&.&.&.&.&.&.&.&.&.&.&.&.;.5./ n u q q u n / 5.;.&.&.&.&.&.&.&.&.&.&.&.&.&.&.&.&.&.&.&.&.&.&.&.&.&.&.,.u.G = @ ",
"@ = G u.,.&.&.&.&.&.&.&.&.&.&.&.&.&.&.&.&.&.&.&.&.&.&.&.&.;.;.@./ D s 2 4 4 2 s D / @.;.;.&.&.&.&.&.&.&.&.&.&.&.&.&.&.&.&.&.&.&.&.&.&.&.&.,.u.G = @ ",
"@ = G u.,.&.&.&.&.&.&.&.&.&.&.&.&.&.&.&.&.&.&.&.&.&.&.&.&.1.5./ n s w 4 7 7 4 w s n / 5.;.&.&.&.&.&.&.&.&.&.&.&.&.&.&.&.&.&.&.&.&.&.&.&.&.,.u.G = @ ",
"@ = G u.,.&.&.&.&.&.&.&.&.&.&.&.&.&.&.&.&.&.&.&.&.&.&.;.;.O./ D s 2 4 7 7 7 8 4 2 s D / O.;.;.&.&.&.&.&.&.&.&.&.&.&.&.&.&.&.&.&.&.&.&.&.&.,.u.G = @ ",
"@ = G u.,.&.&.&.&.&.&.&.&.&.&.&.&.&.&.&.&.&.&.&.&.&.&.;.1.) n s w 4 7 7 7 7 7 7 4 w s n ) ;.;.&.&.&.&.&.&.&.&.&.&.&.&.&.&.&.&.&.&.&.&.&.&.,.u.G = @ ",
"@ = G u.,.&.&.&.&.&.&.&.&.&.&.&.&.&.&.&.&.&.&.&.&.&.&.;.5.I f , 4 7 7 7 7 7 7 7 7 4 , k I 5.;.&.&.&.&.&.&.&.&.&.&.&.&.&.&.&.&.&.&.&.&.&.&.,.u.G = @ ",
"@ = G u.,.&.&.&.&.&.&.&.&.&.&.&.&.&.&.&.&.&.&.&.&.&.&.;.5.I f , 4 7 7 7 7 7 7 7 7 4 , f I 5.;.&.&.&.&.&.&.&.&.&.&.&.&.&.&.&.&.&.&.&.&.&.&.,.u.G = @ ",
"@ = G u.,.&.&.&.&.&.&.&.&.&.&.&.&.&.&.&.&.&.&.&.&.&.&.;.;.) n s w 4 7 7 7 7 7 7 4 w s n ) ;.;.&.&.&.&.&.&.&.&.&.&.&.&.&.&.&.&.&.&.&.&.&.&.,.u.G = @ ",
"@ = G u.,.%.%.&.&.&.&.&.&.&.&.&.&.&.&.&.&.&.&.&.&.&.&.;.;.O./ A s 2 4 7 7 7 7 4 2 s D / O.;.;.&.&.&.&.&.&.&.&.&.&.&.&.&.&.&.&.&.&.&.&.&.&.,.u.G = @ ",
"@ = G u.,.%.&.&.&.&.&.&.&.&.&.&.&.&.&.&.&.&.&.;.;.;.;.&.&.;.5./ n s w 4 7 7 4 w s n / 5.;.&.&.;.;.;.;.&.&.&.&.&.&.&.&.&.&.&.&.&.&.&.&.&.&.,.u.G = @ ",
"@ = G u.,.&.&.&.&.&.&.&.&.&.&.&.&.&.&.&.&.&.&.;.1.;.;.&.&.;.;.@./ D s 2 4 4 2 s D / @.;.;.&.&.;.1.1.;.&.&.&.&.&.&.&.&.&.&.&.&.&.&.&.&.&.&.,.u.G = @ ",
"@ = G u.,.&.&.&.&.&.&.&.&.&.&.&.&.&.&.&.&.;.;. .) ) O.1.;.&.&.;.5./ n u q q u n / 5.1.&.&.;.1.O.) ) O.;.;.&.&.&.&.&.&.&.&.&.&.&.&.&.&.&.&.,.u.G = @ ",
"@ = G u.,.&.&.&.&.&.&.&.&.&.&.&.&.&.&.&.&.;.5.) v v ) 5.;.&.&.;.;.@./ A y y A / @.;.;.&.&.;.5.) v v ) 5.;.&.&.&.&.&.&.&.&.&.&.&.&.&.&.&.%.,.u.G = @ ",
"@ = G u.,.&.&.&.&.&.&.&.&.&.&.&.&.&.&.;.;.@./ A y y A / @.;.;.&.&.1.5.) v v ) 5.;.&.&.;.;.@./ A r y A / @.;.;.&.&.&.&.&.&.&.&.&.&.&.&.&.%.,.u.G = @ ",
"@ = G u.,.&.&.&.&.&.&.&.&.&.&.&.&.&.&.1.5./ n u q q u n / 5.;.&.&.;.1.O.) )  .;.;.&.&.;.5./ n u q q u n / 5.;.&.&.&.&.&.&.&.&.&.&.&.&.&.%.,.u.G = @ ",
"@ = G u.,.&.&.&.&.&.&.&.&.&.&.&.&.;.1.@./ D s 2 4 4 2 s D / @.1.;.&.&.;.;.1.;.&.&.;.1.@./ A s 2 4 4 2 s D / @.;.;.&.&.&.&.&.&.&.&.&.&.&.&.,.u.G = @ ",
"@ = G u.,.&.&.&.&.&.&.&.&.&.&.&.&.1.5./ n s w 4 7 7 4 w s n / 5.;.&.&.;.;.;.;.&.&.;.5./ n s w 4 7 7 4 w s n / 5.1.&.&.&.&.&.&.&.&.&.&.&.&.,.u.G = @ ",
"@ = G u.,.&.&.&.&.&.&.&.&.&.&.;.;.O./ D s 2 4 7 7 7 7 4 2 s D / O.;.;.&.&.&.&.;.;.O./ D s 2 4 7 7 7 7 4 2 s D / O.;.;.&.&.&.&.&.&.&.&.&.&.,.u.G = @ ",
"@ = G u.,.&.&.&.&.&.&.&.&.&.&.;.;.) n s w 4 7 7 7 7 7 7 4 w s n ) ;.;.&.&.&.&.;.1.) n s w 4 7 7 7 7 7 7 4 w s n ) 1.;.&.&.&.&.&.&.&.&.&.&.,.u.G = @ ",
"@ = G u.,.&.&.&.&.&.&.&.&.&.&.;.5.I f , 4 7 7 7 7 7 7 7 7 4 , f I 5.;.&.&.&.&.;.5.I f , 4 7 7 7 7 7 7 7 7 4 , f I 5.;.&.&.&.&.&.&.&.&.&.&.,.u.G = @ ",
"@ = G u.,.&.&.&.&.&.&.&.&.&.&.;.5.I f , 4 7 7 7 7 7 7 7 7 4 , f I 5.;.&.&.&.&.;.5.I f , 4 7 7 7 7 7 7 7 7 4 , f I 5.;.&.&.&.&.&.&.&.&.&.&.,.u.G = @ ",
"@ = G u.,.%.&.&.&.&.&.&.&.&.&.;.1.) n s w 4 7 7 7 7 7 7 4 w s n ) ;.;.&.&.&.&.;.1.) n s w 4 7 7 7 7 7 7 4 w s n ) ;.;.&.&.&.&.&.&.&.&.&.&.,.u.G = @ ",
"@ = G u.,.&.&.&.&.&.&.&.&.&.&.;.;.O./ D s 2 4 7 7 7 7 4 2 s D / O.;.;.&.&.&.&.;.;.O./ D s 2 4 7 7 7 7 4 2 s D / O.;.;.&.&.&.&.&.&.&.&.&.&.,.u.G = @ ",
"@ = G u.,.&.&.%.&.&.&.&.&.&.&.&.&.;.5./ n s w 4 7 7 4 w s n / 5.;.&.&.&.&.&.&.&.&.;.5./ n s w 4 7 7 4 w s n / 5.;.&.&.&.&.&.&.&.&.&.&.&.&.,.u.G = @ ",
"@ = G u.,.&.&.&.&.&.&.&.&.&.&.&.&.;.;.@./ A s 2 4 4 2 s A / @.;.;.&.&.&.&.&.&.&.&.;.;.@./ A s 2 4 4 2 s A / @.;.;.&.&.&.&.&.&.&.&.&.&.&.&.,.u.G = @ ",
"@ = G u.,.&.&.&.&.&.&.&.&.&.&.&.&.&.&.;.5./ n u q q u n / 5.;.&.&.&.&.&.&.&.&.&.&.&.&.;.5./ n u q q u n / 5.;.&.&.&.&.&.&.&.&.&.&.&.&.&.&.,.u.G = @ ",
"@ = G u.,.&.&.&.&.&.&.&.&.&.&.&.&.&.&.;.;.@./ A y y A / @.;.;.&.&.&.&.&.&.&.&.&.&.&.&.;.;.@./ A y y A / @.;.;.&.&.&.&.&.&.&.&.&.&.&.&.&.&.,.u.G = @ ",
"@ = G u.,.&.&.&.&.&.&.&.&.&.&.&.&.&.&.&.&.;.5.) v v ) 5.;.&.&.&.&.&.&.&.&.&.&.&.&.&.&.&.&.;.5.) v v ) 5.;.&.&.&.&.&.&.&.&.&.&.&.&.&.&.&.&.,.u.G = @ ",
"@ = G u.,.&.&.&.&.&.&.&.&.&.&.&.&.&.&.&.&.;.;. .) ) O.;.;.&.&.&.&.&.&.&.&.&.&.&.&.&.&.&.&.;.;. .) ) O.;.;.&.&.&.&.&.&.&.&.&.&.&.&.&.&.&.%.,.u.G = @ ",
"@ = G u.,.&.&.&.&.&.&.&.&.&.&.&.&.&.&.&.&.&.&.;.1.1.;.&.&.&.&.&.&.&.&.&.&.&.&.&.&.&.&.&.&.&.&.;.1.1.;.&.&.&.&.&.&.&.&.&.&.&.&.&.&.&.&.&.&.,.u.G = @ ",
"@ = G u.,.&.&.&.&.&.&.&.&.&.&.&.&.&.&.&.&.&.&.;.;.;.;.&.&.&.&.&.&.&.&.&.&.&.&.&.&.&.&.&.&.&.&.;.;.;.;.&.&.&.&.&.&.&.&.&.&.&.&.&.&.&.&.&.&.,.u.G = @ ",
"@ = G u.,.&.&.&.&.&.&.&.&.&.&.&.&.&.&.&.&.&.&.&.&.&.&.&.&.&.&.&.&.&.&.&.&.&.&.&.&.&.&.&.&.&.&.&.&.&.&.&.&.&.&.&.&.&.&.&.&.&.&.&.&.&.&.&.&.,.u.G = @ ",
"@ = G u.,.%.%.&.&.&.&.&.&.&.&.&.&.&.&.&.&.&.&.&.&.&.&.&.&.&.&.&.&.&.&.&.&.&.&.&.&.&.&.&.&.&.&.&.&.&.&.&.&.&.&.&.&.&.&.&.&.&.&.&.&.&.&.&.&.,.u.G = @ ",
"@ = G u.,.%.&.&.&.&.&.&.&.&.&.&.&.&.&.&.&.&.&.&.&.&.&.&.&.&.&.&.&.&.&.&.&.&.&.&.&.&.&.&.&.&.&.&.&.&.&.&.&.&.&.&.&.&.&.&.&.&.&.&.&.&.&.&.&.,.u.G = @ ",
"@ = G u.,.&.&.&.&.&.&.&.&.&.&.&.&.&.&.&.&.&.&.&.&.&.&.&.&.&.&.&.&.&.&.&.&.&.&.&.&.&.&.&.&.&.&.&.&.&.&.&.&.&.&.&.&.&.&.&.&.&.&.&.&.&.&.&.&.,.u.G = @ ",
"@ = G u.,.&.&.&.&.&.&.&.&.&.&.&.&.&.&.&.&.&.&.&.&.&.&.&.&.&.&.&.&.&.&.&.&.&.&.&.&.&.&.&.&.&.&.&.&.&.&.&.&.&.&.&.&.&.&.&.&.&.&.&.&.&.&.&.&.,.u.G = @ ",
"@ = G u.,.&.&.&.&.&.&.&.&.&.&.&.&.&.&.&.&.&.&.&.&.&.&.&.&.&.&.&.&.&.&.&.&.&.&.&.&.&.&.&.&.&.&.&.&.&.&.&.&.&.&.&.&.&.&.&.&.&.&.&.&.&.&.&.&.,.u.G = @ ",
"@ = G u.,.&.&.&.&.&.&.&.&.&.&.&.&.&.&.&.&.&.&.&.&.&.&.&.&.&.&.&.&.&.&.&.&.&.&.&.&.&.&.&.&.&.&.&.&.&.&.&.&.&.&.&.&.&.&.&.&.&.&.&.&.&.&.&.&.,.u.G = @ ",
"@ = G u.,.&.&.&.&.&.&.&.&.&.&.&.&.&.&.&.&.&.&.&.&.&.&.&.&.&.&.&.&.&.&.&.&.&.&.&.&.&.&.&.&.&.&.&.&.&.&.&.&.&.&.&.&.&.&.&.&.&.&.&.&.&.&.&.&.,.u.G = @ ",
"@ = G u.,.&.&.&.&.&.&.&.&.&.&.&.&.&.&.&.&.&.&.&.&.&.&.&.&.&.&.&.&.&.&.&.&.&.&.&.&.&.&.&.&.&.&.&.&.&.&.&.&.&.&.&.&.&.&.&.&.;.;.;.;.&.&.&.&.,.u.G = @ ",
"@ = G u.,.&.&.&.&.&.&.&.&.&.&.&.&.&.&.&.&.&.&.&.&.&.&.&.&.&.&.&.&.&.&.&.&.&.&.&.&.&.&.&.&.&.&.&.&.&.&.&.&.&.&.&.&.&.&.&.&.;.1.1.;.&.&.&.&.,.u.G = @ ",
"@ = G u.,.&.&.&.&.&.&.&.&.&.&.&.&.&.&.&.&.&.&.;.;.;.;.&.&.&.&.&.&.&.&.&.&.&.&.&.&.&.&.&.&.&.&.;.;.;.;.&.&.&.&.&.&.&.&.;.;. .) )  .;.;.&.&.,.u.G = @ ",
"@ = G u.,.&.&.&.&.&.&.&.&.&.&.&.&.&.&.&.&.&.&.;.1.1.;.&.&.&.&.&.&.&.&.&.&.&.&.&.&.&.&.&.&.&.&.;.1.1.;.&.&.&.&.&.&.&.&.;.5.) v v ) 5.;.&.&.,.u.G = @ ",
"@ = G u.,.&.&.&.&.&.&.&.&.&.&.&.&.&.&.&.&.;.;.O.) )  .;.;.&.&.&.&.&.&.&.&.&.&.&.&.&.&.&.&.;.;.O.) )  .;.;.&.&.&.&.;.;.@./ A y y A / @.;.;.,.u.G = @ ",
"@ = G u.,.&.&.&.&.&.&.&.&.&.&.&.&.&.&.&.&.;.5.) v v ) 5.;.&.&.&.&.&.&.&.&.&.&.&.&.&.&.&.&.;.5.) v v ) 5.;.&.&.&.&.;.5./ n u q q u n / 5.1.,.u.G = @ ",
"@ = G u.,.%.&.&.&.&.&.&.&.&.&.&.&.&.&.;.1.@./ A y y A / @.;.;.&.&.&.&.&.&.&.&.&.&.&.&.;.;.@./ A y y A / @.;.;.;.;.O./ D s 2 4 4 2 s D / O.u.u.G = @ ",
"@ = G u.,.&.&.&.&.&.&.&.&.&.&.&.&.&.&.;.5./ n u q q u n / 5.;.&.&.&.&.&.&.&.&.&.&.&.&.;.5./ n u q q u n / 5.1.;.;.) n s w 4 7 7 4 w s n ) u.u.G = @ ",
"@ = G u.,.&.&.%.&.&.&.&.&.&.&.&.&.;.;.@./ D s 2 4 4 2 s D / @.;.;.&.&.&.&.&.&.&.&.;.;.@./ D s 2 4 4 2 s D / @.5.5.I f , 4 8 7 7 7 4 , f I a.a.G = @ ",
"@ = G u.,.&.&.&.&.&.&.&.&.&.&.&.&.;.5./ n s w 4 7 7 4 w s n / 5.;.&.&.&.&.&.&.&.&.;.5./ n s w 4 7 7 4 w s n / 6.6.I f , 4 7 7 7 7 4 , f I a.a.G = @ ",
"@ = G u.,.&.&.&.&.&.&.&.&.&.&.;.;.O./ D s 2 4 7 7 7 7 4 2 s D / O.;.;.&.&.&.&.;.;.O./ D s 2 4 7 7 7 7 4 2 s D [ $.] n s w 4 7 7 4 w s n ) u.u.G = @ ",
"@ = G u.,.&.&.&.&.&.&.&.&.&.&.;.;.) n s w 4 7 7 7 7 7 5 4 w s n ) ;.;.&.&.&.&.;.;.) n s w 4 7 7 7 7 7 7 4 w s n ] $.[ D s 2 4 4 2 s A / O.,.u.G = @ ",
"@ = G u.,.&.&.&.&.&.&.&.&.&.&.;.5.I f , 4 7 7 7 7 7 7 7 7 4 , f I 5.;.&.&.&.&.;.5.I f , 4 7 7 7 7 7 7 7 8 4 , f I 6.6./ n u q q u n / 5.;.,.u.G = @ ",
"@ = G u.,.&.&.&.&.&.&.&.&.&.&.;.5.I f , 4 7 7 7 7 7 7 7 7 4 , f I 5.;.&.&.&.&.;.5.I f , 4 7 7 7 7 7 7 7 7 4 , f I 5.5.@./ A y y A / @.1.;.,.u.G = @ ",
"@ = G u.,.&.&.&.&.&.&.&.&.&.&.;.1.) n s w 4 7 7 7 7 7 7 4 w s n ) ;.;.&.&.&.&.;.1.) n s w 4 7 7 7 7 7 7 4 w s n ) ;.;.1.5.] n n / 6.5.&.%.,.u.G = @ ",
"@ = G u.,.&.&.&.&.&.&.&.&.&.&.;.;.O./ D s 2 4 7 7 7 7 4 2 s D / O.;.;.&.&.&.&.;.;.O./ D s 2 4 7 7 7 7 4 2 s D / O.;.;.;.;.O.] / $.5.;.&.%.,.u.G = @ ",
"@ = G u.,.&.&.&.&.&.&.&.&.&.&.&.&.;.5./ n s w 4 7 7 4 w s n / 5.;.&.&.&.&.&.&.&.&.;.5./ n s w 4 7 7 4 w s n / 5.;.&.&.;.;. ./ T Y )  .;.&.,.u.G = @ ",
"@ = G u.,.%.%.&.&.&.&.&.&.&.&.&.&.;.;.@./ D s 2 4 4 2 s D / @.;.;.&.&.&.&.&.&.&.&.;.;.@./ D s 2 4 4 2 s D / @.;.;.&.&.;.;.) n l k n ) 1.;.,.u.G = @ ",
"@ = G u.,.%.&.&.&.&.&.&.&.&.&.&.&.&.&.1.5./ n u q q u n / 5.;.&.&.&.&.&.&.&.&.&.&.&.&.1.5./ n u q q u n / 5.;.&.&.&.&.1.5.T l , : f I 5.;.,.u.G = @ ",
"@ = G u.,.&.&.&.&.&.&.&.&.&.&.&.&.&.&.;.1.@./ A y y A / @.;.;.&.&.&.&.&.&.&.&.&.&.&.&.;.1.@./ A y y A / @.;.;.&.&.&.&.5.6.W x , : f I 5.;.,.u.G = @ ",
"@ = G u.,.&.&.&.&.&.&.&.&.&.&.&.&.&.&.&.&.1.5.) v v ) 5.;.&.&.&.&.&.&.&.&.&.&.&.&.&.&.&.&.1.5.) v v ) 5.;.&.&.&.&.;.;.@./ A s 0 y n ) 1.;.,.u.G = @ ",
"@ = G u.,.&.&.&.&.&.&.&.&.&.&.&.&.&.&.&.&.;.;. .) ) O.;.;.&.&.&.&.&.&.&.&.&.&.&.&.&.&.&.&.;.;. .) )  .;.;.&.&.&.&.;.5./ n y 8 y A / O.;.;.,.u.G = @ ",
"@ = G u.,.&.&.&.&.&.&.&.&.&.&.&.&.&.&.&.&.&.&.;.1.1.;.&.&.&.&.&.&.&.&.&.&.&.&.&.&.&.&.&.&.&.&.;.1.1.;.&.&.&.&.;.;.O./ A y 0 u B [ 6.5.;.;.,.u.G = @ ",
"@ = G u.,.&.&.&.&.&.&.&.&.&.&.&.&.&.&.&.&.&.&.;.;.;.;.&.&.&.&.&.&.&.&.&.&.&.&.&.&.&.&.&.&.&.&.;.;.;.;.&.&.&.&.;.;.) n y 0 s F } %.6.5.;.;.,.u.G = @ ",
"@ = G u.,.&.&.&.&.&.&.&.&.&.&.&.&.&.&.&.&.&.&.&.&.&.&.&.&.&.&.&.&.&.&.&.&.&.&.&.&.&.&.&.&.&.&.&.&.&.&.&.&.&.&.;.5.I f , , s F Q T K K !  .u.u.G = @ ",
"@ = G u.,.&.&.&.&.&.&.&.&.&.&.&.%.&.&.&.&.&.&.&.&.&.&.&.&.&.&.&.&.&.&.&.&.&.&.&.&.&.&.&.&.&.&.&.%.&.&.&.&.&.&.;.5.I f , 2 e s x l f f v ~ u.u.G = @ ",
"@ ; H p.,.&.&.&.&.&.&.&.&.&.&.&.&.&.&.&.&.&.&.&.&.&.&.&.&.&.&.&.&.&.&.&.&.&.&.&.&.&.&.&.&.&.&.&.&.&.&.&.&.&.&.;.;.) n l l x l k k f f v ~ u.g.H ; @ ",
"@ ; H f.,.&.&.&.&.&.&.&.&.&.&.&.&.&.%.&.&.&.&.&.&.&.&.&.&.&.&.&.&.&.&.&.&.&.&.&.&.&.&.&.&.&.&.&.&.&.%.&.&.&.&.;.;. .) Y Y Y I I I I K !  .u.g.J ; @ ",
"@ * C ^ | <.,.,.,.,.,.,.,.,.,.,.,.,.,.,.,.,.,.,.,.,.,.,.,.,.,.,.,.,.,.,.,.,.,.,.,.,.,.,.,.,.,.,.,.,.,.,.,.,.,.,.,.u.u.a.u.u.u.a.a.a.a.u.u.| ^ C * @ ",
"# % & V ^ f.p.u.u.u.u.u.u.u.u.u.u.u.u.u.u.u.u.u.u.u.u.u.u.u.u.u.u.u.u.u.u.u.u.u.u.u.u.u.u.u.u.u.u.u.u.u.u.u.u.u.u.u.u.a.u.a.a.a.a.a.a.g.g.^ V & % # ",
"$ @ . & C J H G G G G G G G G G G G G G G G G G G G G G G G G G G G G G G G G G G G G G G G G G G G G G G G G G G G G G G G G G G G G H J C & . @ $ ",
"    @ % * ; ; = = = = = = = = = = = = = = = = = = = = = = = = = = = = = = = = = = = = = = = = = = = = = = = = = = = = = = = = = = = = ; ; * % @     ",
"    $ # @ @ @ @ @ @ @ @ @ @ @ @ @ @ @ @ @ @ @ @ @ @ @ @ @ @ @ @ @ @ @ @ @ @ @ @ @ @ @ @ @ @ @ @ @ @ @ @ @ @ @ @ @ @ @ @ @ @ @ @ @ @ @ @ @ @ # $     "
};
