/* XPM */
static char *diamonds_4[] = {
/* columns rows colors chars-per-pixel */
"74 104 126 2 ",
"   c None",
".  c #1F002C",
"X  c #20012D",
"o  c #21012D",
"O  c #21012E",
"+  c #22032F",
"@  c #23032F",
"#  c #250632",
"$  c #270833",
"%  c #30133B",
"&  c #482E50",
"*  c #4B3152",
"=  c #583F5D",
"-  c #59405D",
";  c #59415E",
":  c #FF0115",
">  c #FF0316",
",  c #FF0317",
"<  c #FF0417",
"1  c #FF0418",
"2  c #FF0518",
"3  c #FF071A",
"4  c #FF081B",
"5  c #FF091C",
"6  c #FF0A1D",
"7  c #FF0B1E",
"8  c #FF0D20",
"9  c #FF0F21",
"0  c #FF1627",
"q  c #FF1728",
"w  c #FF1828",
"e  c #FF1B2B",
"r  c #FE1C2C",
"t  c #FE303D",
"y  c #FE3340",
"u  c #FE3440",
"i  c #FE3541",
"p  c #FD3642",
"a  c #FD3844",
"s  c #FD3A46",
"d  c #FD3F4A",
"f  c #FD424D",
"g  c #FD434D",
"h  c #FD434E",
"j  c #FD444E",
"k  c #FD454F",
"l  c #FD4550",
"z  c #FD4650",
"x  c #FD4852",
"c  c #FB6D71",
"v  c #FB6E72",
"b  c #FB7074",
"n  c #FB7174",
"m  c #FB7175",
"M  c #FB7276",
"N  c #FB7376",
"B  c #816E80",
"V  c #9B8B96",
"C  c #FA8D8D",
"Z  c #FA8F8F",
"A  c #FA908F",
"S  c #FA9392",
"D  c #FA9493",
"F  c #C2B8B7",
"G  c #C4BAB9",
"H  c #C6BCBB",
"J  c #F8BAB3",
"K  c #F8BBB4",
"L  c #F8BCB5",
"P  c #F8BDB6",
"I  c #F8BEB6",
"U  c #F8BFB8",
"Y  c #F8C3BB",
"T  c #F8C5BC",
"R  c #D5CDC7",
"E  c #F7CDC4",
"W  c #F7CEC5",
"Q  c #F8C9C0",
"!  c #F8CAC1",
"~  c #F8CBC1",
"^  c #F8CBC2",
"/  c #F8CCC3",
"(  c #F7D0C6",
")  c #EFEBDE",
"_  c #F6E6D9",
"`  c #F7E6D9",
"'  c #F6E7DA",
"]  c #F6E8DB",
"[  c #F6EADC",
"{  c #F6EBDD",
"}  c #F6ECDE",
"|  c #F6F3E4",
" . c #F6F4E5",
".. c #F6F5E5",
"X. c #F6F5E6",
"o. c #F6F6E6",
"O. c #F6F6E7",
"+. c #F6F7E7",
"@. c #F9F6E7",
"#. c #FAF7E7",
"$. c #F6F7E8",
"%. c #F6F8E8",
"&. c #F6F8E9",
"*. c #F6F9E9",
"=. c #F6F9EA",
"-. c #F6FAEA",
";. c #F6FBEB",
":. c #F6FCEC",
">. c #F6FEED",
",. c #F6FFEE",
"<. c #F9F8E8",
"1. c #FAF8E8",
"2. c #FBF8E8",
"3. c #FBF9E8",
"4. c #FAF9E9",
"5. c #FBF9E9",
"6. c #F9FAEA",
"7. c #F9FBEA",
"8. c #FBFBEA",
"9. c #FAFBEB",
"0. c #FDFBEA",
"q. c #F9FCEB",
"w. c #FBFCEB",
"e. c #FFFDEB",
"r. c #FDFEEC",
"t. c #FFFEEC",
/* pixels */
"    $ # @ @ @ @ @ @ @ @ @ @ @ @ @ @ @ @ @ @ @ @ @ @ @ @ @ @ @ @ @ @ @ @ @ @ @ @ @ @ @ @ @ @ @ @ @ @ @ @ @ @ @ @ @ @ @ @ @ @ @ @ @ @ @ @ @ @ # $     ",
"    @ % * ; ; ; = = = = = = = = = = = = = = = = = = = = = = = = = = = = = = = = = = = = = = = = = = = = = = = = = = = = = = = = = = = ; ; * % @     ",
"$ @ . & V H G F F F F F F F F F F F F F F F F F F F F F F F F F F F F F F F F F F F F F F F F F F F F F F F F F F F F F F F F F F F F G H V & . @ $ ",
"# % & B R r.r.w.w.4.4.4.4.w.w.4.4.4.4.4.4.4.4.4.4.4.4.4.4.4.4.4.4.4.4.4.4.4.4.4.4.4.4.4.4.4.4.4.4.4.4.4.4.4.4.4.4.4.4.4.4.4.4.4.4.4.4.0.e.R B & % # ",
"@ * V R ) 4.4.w.w.4.4.4.4.w.w.4.4.@.@.@.@.@.@.@.@.@.@.@.@.@.@.@.@.@.@.@.@.@.@.@.@.@.@.@.@.@.@.@.@.@.@.@.@.@.@.@.@.@.@.@.@.@.@.@.@.@.@.@.4.) R V * @ ",
"@ ; H r.4._ Q J J Q _ _ Q J J Q _ O.O.| | | | | | | | | | | | | | | | | | | | | | | | | | | | | | | | | | | | | | | | | | | | | | | | | | 4.e.H ; @ ",
"@ ; G r.4.Q b d f b E E b d d b Q O.O.| | | | | | | | | | | | | | | | | | | | | | | | | | | | | | | | | | | | | | | | | | | | | | | | | | @.0.G ; @ ",
"@ = F w.w.K f : : z Y Y z : : f K -.O.| | | | | | | | | | | | | | | | | | | | | | | | | | | | | | | | | | | | | | | | | | | | | | | | | | @.4.F = @ ",
"@ ; F w.w.K f : : x T T x : : j K -.O.| | | | | | | | | | | | | | | | | | | | | | | | | | | | | | | | | | | | | | | | | | | | | | | | | | @.4.F = @ ",
"@ = F w.w.K f : 1 a S D a 4 1 z I -.O.| | | | O.O.O.O.| | | | | | | | | | | | | | | | | | | | O.O.O.O.| | | | | | | | | | | | | | | | | | @.4.F = @ ",
"@ ; F w.w.K f : 1 w i i r 5 5 z I -.O.| | | | O.O.O.O.| | | | | | | | | | | | | | | | | | | | O.O.O.O.| | | | | | | | | | | | | | | | | | @.4.F = @ ",
"@ ; F 4.4.Q b f j z f i w 5 5 z I -.O.| | O.O._ Q Q ] O.O.| | | | | | | | | | | | | | | | O.$.] Q Q ] O.O.| | | | | | | | | | | | | | | | @.4.F = @ ",
"@ = F 4.4._ Q K K I I A a 4 1 z I -.O.| | $.-.Q c c Q -.$.| | | | | | | | | | | | | | | | O.-.Q c c Q -.O.| | | | | | | | | | | | | | | | @.4.F = @ ",
"@ = F 4.@.O.O.-.-.:.:.Y j : : j K -.O.O.$.{ E Z t t Z E { $.O.| | | | | | | | | | | | O.O.{ E Z t t Z E { O.O.| | | | | | | | | | | | | | @.4.F = @ ",
"@ = F 4.@.O.O.O.O.-.:.I f : : f K -.O.$.;.E b y 0 0 y b E -.$.| | | | | | | | | | | | O.-.E b y 0 0 y b E -.O.| | | | | | | | | | | | | | @.4.F = @ ",
"@ = F 4.@.| | | | O.-./ b f f b Q -.-.{ E A i 1 5 5 1 i A E { $.O.| | | | | | | | O.O.{ E Z i 1 5 5 1 i Z E { O.O.| | | | | | | | | | | | @.4.F = @ ",
"@ = F 4.@.| | | | O.-.{ Q J J Q _ -.:.E b i q 5 9 9 5 q i b E -.O.| | | | | | | | $.;.E b i q 5 9 9 5 q i b E -.$.| | | | | | | | | | | | @.4.F = @ ",
"@ = F 4.@.| | O.O.] Q Q } :.-.-.O.] E Z i 1 5 9 9 9 9 5 1 i A E ] O.O.| | | | O.O.] E A y 1 5 9 9 9 9 5 1 i A E ] O.O.| | | | | | | | | | @.4.F = @ ",
"@ = F 4.@.| | O.;.Q c c E :.-.-.-.Q b i q 5 9 9 9 9 9 9 5 q i b Q O.O.| | | | O.$.Q b i q 5 9 9 9 9 9 9 5 q i b Q $.O.| | | | | | | | | | @.4.F = @ ",
"@ = F 4.@.O.O.{ E Z t t Z E { -.-.J d : 5 9 9 9 9 9 9 9 9 5 : d J -.O.| | | | O.-.J d : 5 9 9 9 9 9 9 9 9 5 : d J -.O.| | | | | | | | | | @.4.F = @ ",
"@ ; F 4.@.O.-.E b y 0 0 y b E :.:.J d : 5 9 9 9 9 9 9 9 9 5 : d J -.O.| | | | O.-.J d : 5 9 0 9 9 9 9 9 9 5 : d J -.O.| | | | | | | | | | @.4.F = @ ",
"@ ; F 4.4.] E Z i 1 5 5 1 i A ( } / b i q 5 9 9 9 9 9 9 5 q i b Q O.O.| | | | O.$.Q b i q 5 9 9 9 9 9 9 5 q i b Q O.O.| | | | | | | | | | @.4.F = @ ",
"@ ; F 4.4.Q b i q 5 9 9 7 q i b / } ( A i 1 5 9 9 9 9 5 1 i A E ] O.O.| | | | O.O.] E A i 1 5 9 9 9 9 5 1 i A E ] O.O.| | | | | | | | | | @.4.F = @ ",
"@ = F w.w.J d : 5 9 0 9 0 5 : d J :.:.E b i q 5 9 9 5 q i b E -.O.| | | | | | | | O.-.E b i q 5 9 9 5 q i b E -.O.| | | | | | | | | | | | @.4.F = @ ",
"@ = F w.w.J d : 5 9 9 9 9 5 : d J -.-.{ E Z i 1 5 5 1 i Z E { O.O.| | | | | | | | O.O.{ E Z i 1 5 5 1 i Z E { O.O.| | | | | | | | | | | | @.4.F = @ ",
"@ = F 4.4.Q b i q 5 9 9 5 q i b Q $.O.$.-.E b y 0 0 y b E -.O.| | | | | | | | | | | | O.-.E b y 0 0 y b E -.O.| | | | | | | | | | | | | | @.4.F = @ ",
"@ = F 4.4.] E Z i 1 5 5 1 i A E ] O.O.O.O.{ E Z t t Z E { O.O.| | | | | | | | | | | | O.O.{ E Z t t Z E { O.O.| | | | | | | | | | | | | | @.4.F = @ ",
"@ = F 4.@.O.-.E b y 0 0 y b E -.O.| | | | O.-.Q c c Q ;.O.| | | | | | | | | | | | | | | | O.-.Q c c Q -.O.| | | | | | | | | | | | | | | | @.4.F = @ ",
"@ = F 4.@.O.O.{ E Z t t Z E { O.O.| | | | O.O._ Q Q _ O.O.| | | | | | | | | | | | | | | | O.O._ Q Q ] $.O.| | | | | | | | | | | | | | | | @.4.F = @ ",
"@ = F 4.@.| | O.-.Q c c Q -.O.| | | | | | | | O.-.-.O.| | | | | | | | | | | | | | | | | | | | O.$.$.O.| | | | | | | | | | | | | | | | | | @.4.F = @ ",
"@ = F 4.@.| | O.O.] Q Q _ O.O.| | | | | | | | O.O.O.O.| | | | | | | | | | | | | | | | | | | | O.O.O.O.| | | | | | | | | | | | | | | | | | @.4.F = @ ",
"@ = F 4.@.| | | | O.$.$.O.| | | | | | | | | | | | | | | | | | | | | | | | | | | | | | | | | | | | | | | | | | | | | | | | | | | | | | | | @.4.F = @ ",
"@ = F 4.@.| | | | O.O.O.O.| | | | | | | | | | | | | | | | | | | | | | | | | | | | | | | | | | | | | | | | | | | | | | | | | | | | | | | | @.4.F = @ ",
"@ = F 4.@.| | | | | | | | | | | | | | | | | | | | | | | | | | | | | | | | | | | | | | | | | | | | | | | | | | | | | | | | | | | | | | | | @.4.F = @ ",
"@ = F 4.@.| | | | | | | | | | | | | | | | | | | | | | | | | | | | | | | | | | | | | | | | | | | | | | | | | | | | | | | | | | | | | | | | @.4.F = @ ",
"@ = F 4.@.| | | | | | | | | | | | | | | | | | | | | | | | | | | | | | | | | | | | | | | | | | | | | | | | | | | | | | | | | | | | | | | | @.4.F = @ ",
"@ = F 4.@.| | | | | | | | | | | | | | | | | | | | | | | | | | | | | | | | | | | | | | | | | | | | | | | | | | | | | | | | | | | | | | | | @.4.F = @ ",
"@ = F 4.@.| | | | | | | | | | | | | | | | | | | | | | | | | | | | | | | | | | | | | | | | | | | | | | | | | | | | | | | | | | | | | | | | @.4.F = @ ",
"@ = F 4.@.| | | | | | | | | | | | | | | | | | | | | | | | | | | | | | | | | | | | | | | | | | | | | | | | | | | | | | | | | | | | | | | | @.4.F = @ ",
"@ = F 4.@.| | | | | | | | | | | | | | | | | | | | | | | | | | | | | | | | | | | | | | | | | | | | | | | | | | | | | | | | | | | | | | | | @.4.F = @ ",
"@ = F 4.@.| | | | | | | | | | | | | | | | | | | | | | | | | | | | | | | | | | | | | | | | | | | | | | | | | | | | | | | | | | | | | | | | @.4.F = @ ",
"@ = F 4.@.| | | | | | | | | | | | | | | | | | | | | | | | | | | | | | | | | | | | | | | | | | | | | | | | | | | | | | | | | | | | | | | | @.4.F = @ ",
"@ = F 4.@.| | | | | | | | | | | | | | | | | | | | | | | | | | | | | | | | | | | | | | | | | | | | | | | | | | | | | | | | | | | | | | | | @.4.F = @ ",
"@ = F 4.@.| | | | | | | | | | | | | | | | | | | | | | | | | | | | | | | | | | | | | | | | | | | | | | | | | | | | | | | | | | | | | | | | @.4.F = @ ",
"@ = F 4.@.| | | | | | | | | | | | | | | | | | | | | | | | | | | | | | | | | | | | | | | | | | | | | | | | | | | | | | | | | | | | | | | | @.4.F = @ ",
"@ = F 4.@.| | | | | | | | | | | | | | | | | | | | | | | | | | | | | | | | | | | | | | | | | | | | | | | | | | | | | | | | | | | | | | | | @.4.F = @ ",
"@ = F 4.@.| | | | | | | | | | | | | | | | | | | | | | | | | | | | | | | | | | | | | | | | | | | | | | | | | | | | | | | | | | | | | | | | @.4.F = @ ",
"@ = F 4.@.| | | | | | | | | | | | | | | | | | | | | | | | | | | | | | | | | | | | | | | | | | | | | | | | | | | | | | | | | | | | | | | | @.4.F = @ ",
"@ = F 4.@.| | | | | | | | | | | | | | | | | | | | | | | | | | | | | | | | | | | | | | | | | | | | | | | | | | | | | | | | | | | | | | | | @.4.F = @ ",
"@ = F 4.@.| | | | | | | | | | | | | | | | | | | | | | | | | | | | | | | | | | | | | | | | | | | | | | | | | | | | | | | | | | | | | | | | @.4.F = @ ",
"@ = F 4.@.| | | | | | | | | | | | | | | | | | | | | | | | | | | | | | | | | | | | | | | | | | | | | | | | | | | | | | | | | | | | | | | | @.4.F = @ ",
"@ = F 4.@.| | | | | | | | | | | | | | | | | | | | | | | | | | | | | | | | | | | | | | | | | | | | | | | | | | | | | | | | | | | | | | | | @.4.F = @ ",
"@ = F 4.@.| | | | | | | | | | | | | | | | | | | | | | | | | | | | | | | | | | | | | | | | | | | | | | | | | | | | | | | | | | | | | | | | @.4.F = @ ",
"@ = F 4.@.| | | | | | | | | | | | | | | | | | | | | | | | | | | | | | | | | | | | | | | | | | | | | | | | | | | | | | | | | | | | | | | | @.4.F = @ ",
"@ = F 4.@.| | | | | | | | | | | | | | | | | | | | | | | | | | | | | | | | | | | | | | | | | | | | | | | | | | | | | | | | | | | | | | | | @.4.F = @ ",
"@ = F 4.@.| | | | | | | | | | | | | | | | | | | | | | | | | | | | | | | | | | | | | | | | | | | | | | | | | | | | | | | | | | | | | | | | @.4.F = @ ",
"@ = F 4.@.| | | | | | | | | | | | | | | | | | | | | | | | | | | | | | | | | | | | | | | | | | | | | | | | | | | | | | | | | | | | | | | | @.4.F = @ ",
"@ = F 4.@.| | | | | | | | | | | | | | | | | | | | | | | | | | | | | | | | | | | | | | | | | | | | | | | | | | | | | | | | | | | | | | | | @.4.F = @ ",
"@ = F 4.@.| | | | | | | | | | | | | | | | | | | | | | | | | | | | | | | | | | | | | | | | | | | | | | | | | | | | | | | | | | | | | | | | @.4.F = @ ",
"@ = F 4.@.| | | | | | | | | | | | | | | | | | | | | | | | | | | | | | | | | | | | | | | | | | | | | | | | | | | | | | | | | | | | | | | | @.4.F = @ ",
"@ = F 4.@.| | | | | | | | | | | | | | | | | | | | | | | | | | | | | | | | | | | | | | | | | | | | | | | | | | | | | | | | | | | | | | | | @.4.F = @ ",
"@ = F 4.@.| | | | | | | | | | | | | | | | | | | | | | | | | | | | | | | | | | | | | | | | | | | | | | | | | | | | | | | | | | | | | | | | @.4.F = @ ",
"@ = F 4.@.| | | | | | | | | | | | | | | | | | | | | | | | | | | | | | | | | | | | | | | | | | | | | | | | | | | | | | | | | | | | | | | | @.4.F = @ ",
"@ = F 4.@.| | | | | | | | | | | | | | | | | | | | | | | | | | | | | | | | | | | | | | | | | | | | | | | | | | | | | | | | | | | | | | | | @.4.F = @ ",
"@ = F 4.@.| | | | | | | | | | | | | | | | | | | | | | | | | | | | | | | | | | | | | | | | | | | | | | | | | | | | | | | | | | | | | | | | @.4.F = @ ",
"@ = F 4.@.| | | | | | | | | | | | | | | | | | | | | | | | | | | | | | | | | | | | | | | | | | | | | | | | | | | | | | | | | | | | | | | | @.4.F = @ ",
"@ = F 4.@.| | | | | | | | | | | | | | | | | | | | | | | | | | | | | | | | | | | | | | | | | | | | | | | | | | | | | | | | | | | | | | | | @.4.F = @ ",
"@ = F 4.@.| | | | | | | | | | | | | | | | | | | | | | | | | | | | | | | | | | | | | | | | | | | | | | | | | | | | | | | | | | | | | | | | @.4.F = @ ",
"@ = F 4.@.| | | | | | | | | | | | | | | | | | | | | | | | | | | | | | | | | | | | | | | | | | | | | | | | | | | | | | | | | | | | | | | | @.4.F = @ ",
"@ = F 4.@.| | | | | | | | | | | | | | | | | | | | | | | | | | | | | | | | | | | | | | | | | | | | | | | | | | | | | | | | | | | | | | | | @.4.F = @ ",
"@ = F 4.@.| | | | | | | | | | | | | | | | | | | | | | | | | | | | | | | | | | | | | | | | | | | | | | | | | | | | | | | | | | | | | | | | @.4.F = @ ",
"@ = F 4.@.| | | | | | | | | | | | | | | | | | | | | | | | | | | | | | | | | | | | | | | | | | | | | | | | | | | | | | | | O.O.O.O.| | | | @.4.F = @ ",
"@ = F 4.@.| | | | | | | | | | | | | | | | | | | | | | | | | | | | | | | | | | | | | | | | | | | | | | | | | | | | | | | | O.$.$.O.| | | | @.4.F = @ ",
"@ = F 4.@.| | | | | | | | | | | | | | | | | | O.O.O.O.| | | | | | | | | | | | | | | | | | | | O.O.O.O.| | | | | | | | O.O.] Q Q _ O.O.| | @.4.F = @ ",
"@ = F 4.@.| | | | | | | | | | | | | | | | | | O.$.$.O.| | | | | | | | | | | | | | | | | | | | O.O.$.O.| | | | | | | | O.-.Q c c Q -.O.| | @.4.F = @ ",
"@ = F 4.@.| | | | | | | | | | | | | | | | O.$.] Q Q _ O.O.| | | | | | | | | | | | | | | | O.$.] Q Q _ O.O.| | | | O.O.{ E Z t t Z E { O.O.@.4.F = @ ",
"@ = F 4.@.| | | | | | | | | | | | | | | | $.;.Q c c Q -.O.| | | | | | | | | | | | | | | | $.;.Q c c Q -.O.| | | | O.-.E b y 0 0 y b E -.$.@.4.F = @ ",
"@ = F 4.@.| | | | | | | | | | | | | | O.$.{ E Z t t Z E { O.O.| | | | | | | | | | | | O.$.{ E Z t t Z E { O.O.O.O.] E Z i 1 5 5 1 i A E ] 4.4.F = @ ",
"@ = F 4.@.| | | | | | | | | | | | | | O.-.E b y 0 0 y b E -.O.| | | | | | | | | | | | O.;.E b y 0 0 y b E -.$.O.O.Q b i q 5 9 9 5 q i b Q 4.4.F = @ ",
"@ = F 4.@.| | | | | | | | | | | | O.O.{ E A i 1 5 5 1 i Z E { O.O.| | | | | | | | O.O.{ E A i 1 5 5 1 i A E { -.-.J d : 5 9 9 9 9 5 : d J w.w.F = @ ",
"@ = F 4.@.| | | | | | | | | | | | O.-.E b i q 5 9 9 5 q i b E -.O.| | | | | | | | O.-.E b i q 5 9 9 5 q i b E :.:.J d : 5 9 9 9 9 5 : d J w.w.F = @ ",
"@ = F 4.@.| | | | | | | | | | O.O.] E Z i 1 5 9 9 9 9 5 1 i A E ] O.O.| | | | O.O.] E Z i 1 5 9 9 9 9 5 1 i A ( } / b i q 5 9 9 5 q i b Q 4.4.F = @ ",
"@ = F 4.@.| | | | | | | | | | O.O.Q b i q 5 9 9 9 9 9 9 5 q i b Q O.O.| | | | O.O.Q b i q 5 9 9 9 9 9 9 5 q i b / } ( A i 1 5 5 1 i A E ] 4.4.F = @ ",
"@ = F 4.@.| | | | | | | | | | O.-.J d : 5 9 9 9 9 9 9 9 9 5 : d J -.O.| | | | O.-.J d : 5 9 9 9 9 9 9 9 9 5 : d J :.:.E b y 0 0 y b E -.O.@.4.F = @ ",
"@ = F 4.@.| | | | | | | | | | O.-.J d : 5 9 9 9 9 9 9 9 9 5 : d J -.O.| | | | O.-.J d : 5 9 9 9 9 9 9 9 9 5 : d J -.-.{ E Z t t Z E { $.O.@.4.F = @ ",
"@ = F 4.@.| | | | | | | | | | O.$.Q b i q 5 9 9 9 9 9 9 5 q i b Q O.O.| | | | O.$.Q b i q 5 9 9 9 9 9 9 5 q i b Q -.-.-.:.E c c Q -.O.| | @.4.F = @ ",
"@ = F 4.@.| | | | | | | | | | O.O.] E A i 1 5 9 9 9 9 5 1 i A E ] O.O.| | | | O.O.] E A i 1 5 9 9 9 9 5 1 i Z E ] O.-.-.:.} Q Q ] O.O.| | @.4.F = @ ",
"@ = F 4.@.| | | | | | | | | | | | O.-.E b i q 5 9 9 5 q i b E ;.O.| | | | | | | | O.-.E b i q 5 9 9 5 q i b E :.-._ Q J J Q { -.O.| | | | @.4.F = @ ",
"@ = F 4.@.| | | | | | | | | | | | O.$.{ E Z i 1 5 5 1 i A E { O.O.| | | | | | | | O.$.{ E Z i 1 5 5 1 i A E { -.-.Q b d d b / -.O.| | | | @.4.F = @ ",
"@ = F 4.@.| | | | | | | | | | | | | | $.-.E b y 0 0 y b E -.O.| | | | | | | | | | | | $.-.E b y 0 0 y b E -.O.O.-.K f : : f I :.-.O.O.O.O.@.4.F = @ ",
"@ = F 4.@.| | | | | | | | | | | | | | O.O.{ E Z t t Z E { $.O.| | | | | | | | | | | | O.O.{ E Z t t Z E { $.O.O.-.K f : : j U :.:.-.-.O.O.@.4.F = @ ",
"@ = F 4.@.| | | | | | | | | | | | | | | | O.-.Q c c Q -.O.| | | | | | | | | | | | | | | | O.-.Q c c Q -.O.| | O.-.I z 1 1 a Z I I K K Q _ 4.4.F = @ ",
"@ = F 4.@.| | | | | | | | | | | | | | | | O.O._ Q Q _ O.O.| | | | | | | | | | | | | | | | O.O._ Q Q _ O.O.| | O.-.I z 5 5 w i f z j f b Q 4.4.F = @ ",
"@ = F 4.@.| | | | | | | | | | | | | | | | | | O.$.$.O.| | | | | | | | | | | | | | | | | | | | O.$.$.O.| | | | O.-.I z 5 5 r i i w 1 : f K w.w.F = @ ",
"@ = F 4.@.| | | | | | | | | | | | | | | | | | O.O.O.O.| | | | | | | | | | | | | | | | | | | | O.O.O.O.| | | | O.-.I z 1 4 a D S a 1 < j K w.w.F = @ ",
"@ = F 4.@.| | | | | | | | | | | | | | | | | | | | | | | | | | | | | | | | | | | | | | | | | | | | | | | | | | O.-.I j : : x T T x : : j K w.w.F = @ ",
"@ = F 4.@.| | | | | | | | | | | | | | | | | | | | | | | | | | | | | | | | | | | | | | | | | | | | | | | | | | O.-.K f : : z Y Y z : : f K w.w.F = @ ",
"@ ; G 0.@.| | | | | | | | | | | | | | | | | | | | | | | | | | | | | | | | | | | | | | | | | | | | | | | | | | O.O.Q b d d b E E b f f b Q 4.r.G ; @ ",
"@ ; H e.@.| | | | | | | | | | | | | | | | | | | | | | | | | | | | | | | | | | | | | | | | | | | | | | | | | | O.O._ Q J J Q _ _ Q J J Q _ 4.r.H ; @ ",
"@ * V R ) #.@.@.@.@.@.@.@.@.@.@.@.@.@.@.@.@.@.@.@.@.@.@.@.@.@.@.@.@.@.@.@.@.@.@.@.@.@.@.@.@.@.@.@.@.@.@.@.@.@.@.@.4.4.w.w.4.@.@.4.w.w.4.4.) R V * @ ",
"# % & B R e.0.4.4.4.4.4.4.4.4.4.4.4.4.4.4.4.4.4.4.4.4.4.4.4.4.4.4.4.4.4.4.4.4.4.4.4.4.4.4.4.4.4.4.4.4.4.4.4.4.4.4.4.4.w.w.4.4.4.4.w.w.r.r.R B & % # ",
"$ @ . & V H G F F F F F F F F F F F F F F F F F F F F F F F F F F F F F F F F F F F F F F F F F F F F F F F F F F F F F F F F F F F F G H V & . @ $ ",
"    @ % * ; ; = = = = = = = = = = = = = = = = = = = = = = = = = = = = = = = = = = = = = = = = = = = = = = = = = = = = = = = = = = = ; ; ; * % @     ",
"    $ # @ @ @ @ @ @ @ @ @ @ @ @ @ @ @ @ @ @ @ @ @ @ @ @ @ @ @ @ @ @ @ @ @ @ @ @ @ @ @ @ @ @ @ @ @ @ @ @ @ @ @ @ @ @ @ @ @ @ @ @ @ @ @ @ @ @ # $     "
};
