/* XPM */
static char *diamonds_2[] = {
/* columns rows colors chars-per-pixel */
"74 104 125 2 ",
"   c None",
".  c #1F002C",
"X  c #20012D",
"o  c #21012D",
"O  c #21012E",
"+  c #22032F",
"@  c #23032F",
"#  c #250632",
"$  c #270833",
"%  c #30133B",
"&  c #482E50",
"*  c #4B3152",
"=  c #583F5D",
"-  c #59405D",
";  c #59415E",
":  c #FF0317",
">  c #FF0417",
",  c #FF0418",
"<  c #FF0518",
"1  c #FF071A",
"2  c #FF091C",
"3  c #FF0B1E",
"4  c #FF0D20",
"5  c #FF0F21",
"6  c #FF1627",
"7  c #FF1728",
"8  c #FF1828",
"9  c #FE303D",
"0  c #FE3340",
"q  c #FE3440",
"w  c #FD3642",
"e  c #FD3743",
"r  c #FD3C48",
"t  c #FD3E49",
"y  c #FD3F4A",
"u  c #FD404B",
"i  c #FD414B",
"p  c #FD414C",
"a  c #FD424D",
"s  c #FD434E",
"d  c #FD444E",
"f  c #FD454F",
"g  c #FD4550",
"h  c #FD4650",
"j  c #FD4751",
"k  c #FD4953",
"l  c #FB6C70",
"z  c #FB6D71",
"x  c #FB6E72",
"c  c #FB7074",
"v  c #FB7175",
"b  c #FB7276",
"n  c #FB7376",
"m  c #816E80",
"M  c #9B8B96",
"N  c #FA8D8D",
"B  c #FA8F8F",
"V  c #FA908F",
"C  c #FA9392",
"Z  c #C2B8B7",
"A  c #C4BAB9",
"S  c #C6BCBB",
"D  c #F8B7B1",
"F  c #F8B8B1",
"G  c #F8B9B2",
"H  c #F8B9B3",
"J  c #F8BAB3",
"K  c #F8BBB4",
"L  c #F8BDB5",
"P  c #F8BDB6",
"I  c #F8BEB6",
"U  c #F8C0B9",
"Y  c #F8C1B9",
"T  c #F8C2BA",
"R  c #F8C3BB",
"E  c #F8C7BE",
"W  c #F8C8BF",
"Q  c #D5CDC7",
"!  c #F7CDC4",
"~  c #F7CEC4",
"^  c #F7CEC5",
"/  c #F8C9C0",
"(  c #F8CAC1",
")  c #F8CBC2",
"_  c #EFEBDE",
"`  c #F6E5D8",
"'  c #F7E5D8",
"]  c #F7E6D9",
"[  c #F6E7DA",
"{  c #F6E8DB",
"}  c #F6EBDD",
"|  c #F6EDDF",
" . c #F6F3E4",
".. c #F6F4E5",
"X. c #F6F5E5",
"o. c #F6F5E6",
"O. c #F6F6E6",
"+. c #F6F6E7",
"@. c #F6F7E7",
"#. c #F9F6E7",
"$. c #FAF7E7",
"%. c #F6F7E8",
"&. c #F6F8E9",
"*. c #F6F9E9",
"=. c #F6FAEA",
"-. c #F6FBEB",
";. c #F6FCEC",
":. c #F6FFEE",
">. c #F9F8E8",
",. c #FAF8E8",
"<. c #FBF8E8",
"1. c #FBF9E8",
"2. c #FAF9E9",
"3. c #FBF9E9",
"4. c #F9FAEA",
"5. c #F9FBEA",
"6. c #FBFBEA",
"7. c #FAFBEB",
"8. c #FDFBEA",
"9. c #F9FCEB",
"0. c #FAFCEB",
"q. c #FBFCEB",
"w. c #FFFDEB",
"e. c #FDFEEC",
"r. c #FFFEEC",
/* pixels */
"    $ # @ @ @ @ @ @ @ @ @ @ @ @ @ @ @ @ @ @ @ @ @ @ @ @ @ @ @ @ @ @ @ @ @ @ @ @ @ @ @ @ @ @ @ @ @ @ @ @ @ @ @ @ @ @ @ @ @ @ @ @ @ @ @ @ @ @ # $     ",
"    @ % * ; ; = = = = = = = = = = = = = = = = = = = = = = = = = = = = = = = = = = = = = = = = = = = = = = = = = = = = = = = = = = = = ; ; * % @     ",
"$ @ . & M S A Z Z Z Z Z Z Z Z Z Z Z Z Z Z Z Z Z Z Z Z Z Z Z Z Z Z Z Z Z Z Z Z Z Z Z Z Z Z Z Z Z Z Z Z Z Z Z Z Z Z Z Z Z Z Z Z Z Z Z Z A A M & . @ $ ",
"# % & m Q e.e.9.9.9.6.6.6.6.9.6.6.6.6.6.6.6.6.6.6.6.6.6.6.6.6.6.6.6.6.6.6.6.6.6.6.6.6.6.6.6.6.6.6.6.6.6.6.6.6.6.6.6.6.6.6.6.6.6.6.6.6.8.w.Q m & % # ",
"@ * M Q _ 6.6.9.9.9.9.9.6.6.9.6.6.#.#.#.#.#.#.#.#.#.#.#.#.#.#.#.#.#.#.#.#.#.#.#.#.#.#.#.#.#.#.#.#.#.#.#.#.#.#.#.#.#.#.#.#.#.#.#.#.#.#.#.$._ Q M * @ ",
"@ ; S e.6.` E D H H H H K K K / ` .... . . . . . . . . . . . . . . . . . . . . . . . . . . . . . . . . . . . . . . . . . . . . . . . . . .#.w.S ; @ ",
"@ ; A e.6.W l r r u u a d d a c / .... . . . . . . . . . . . . . . . . . . . . . . . . . . . . . . . . . . . . . . . . . . . . . . . . . .#.8.A ; @ ",
"@ = Z 6.6./ l u a d g w 8 < : a K =... . . . . . . . . . . . . . . . . . . . . . . . . . . . . . . . . . . . . . . . . . . . . . . . . . .#.6.Z = @ ",
"@ = Z 6.6.` / P P Y Y C w < > d K =... . . . . . . . . . . . . . . . . . . . . . . . . . . . . . . . . . . . . . . . . . . . . . . . . . .#.6.Z = @ ",
"@ = Z 6.6.` ! Y Y Y Y C w < > d K =... . . . . . . . . . . . . . . . ......... . . . . . . . . . . . . . . . . . . . . . . . . . . . . . .#.6.Z = @ ",
"@ = Z 6.6./ c g g k g w 8 < > a K =... . . . . . . . . . . . . . . . ...%.%... . . . . . . . . . . . . . . . . . . . . . . . . . . . . . .#.6.Z = @ ",
"@ = Z 9.9.K a : < 8 w g k g g c / .... . . . . . . . . . . . . . .....` / / { %... . . . . . . . . . . . . . . . . . . . . . . . . . . . .#.6.Z = @ ",
"@ = Z 9.9.K d > < w C Y Y Y Y ! ` .... . . . . . . . . . . . . . ...=./ l l / -... . . . . . . . . . . . . . . . . . . . . . . . . . . . .#.6.Z = @ ",
"@ = Z 9.9.K d > < w C Y Y P P / ` .... . . . . . . . . . . . .....} ! B 9 9 B ! } .... . . . . . . . . . . . . . . . . . . . . . . . . . .#.6.Z = @ ",
"@ = Z 6.9.K a > < 8 w g d a u l / %... . . . . . . . . . . . .%.=.! c 0 6 6 0 c ! =... . . . . . . . . . . . . . . . . . . . . . . . . . .#.6.Z = @ ",
"@ = Z 6.6./ c a d g d a a r r l W %... . . . . . . . . . .....} ! V w < 2 2 < w V ! } .... . . . . . . . . . . . . . . . . . . . . . . . .#.6.Z = @ ",
"@ = Z 6.#.` / H K P P P H H D E ` .... . . . . . . . . . ...=.! c 0 7 2 5 5 2 7 w c ! =.%. . . . . . . . . . . . . . . . . . . . . . . . .#.6.Z = @ ",
"@ = Z 6.#.....=.:.| ! ! | :.=..... . . . . . . . . . .....{ ! V w < 2 5 5 5 5 2 < w V ! { .... . . . . . . . . . . . . . . . . . . . . . .#.6.Z = @ ",
"@ = Z 6.#.....=.:.! c c ! :.=..... . . . . . . . . . ...%./ c w 7 2 5 5 5 5 5 5 2 7 w c / %... . . . . . . . . . . . . . . . . . . . . . .#.6.Z = @ ",
"@ = Z 6.#.....} ! B 9 9 B ! } .... . . . . . . . . . ...=.H r : 2 5 5 5 5 5 5 5 5 2 : r H =... . . . . . . . . . . . . . . . . . . . . . .#.6.Z = @ ",
"@ = Z 6.#...=.! c 0 6 6 0 c ! =... . . . . . . . . . ...=.H r : 2 5 5 5 5 5 5 5 5 2 : r H =... . . . . . . . . . . . . . . . . . . . . . .#.6.Z = @ ",
"@ = Z 6.6.{ ! V w < 2 2 < w V ! { .... . . . . . . . ...%./ c w 7 2 5 5 5 5 5 5 2 7 w c / %... . . . . . . . . . . . . . . . . . . . . . .#.6.Z = @ ",
"@ = Z 6.6./ c w 7 2 5 5 2 7 w c / %... . . . . . . . .....{ ! V w < 2 5 5 5 5 2 < w V ! { .... . . . . . . . . . . . . . . . . . . . . . .#.6.Z = @ ",
"@ = Z 9.9.H r : 2 5 5 5 5 2 : r H =... . . . . . . . . . .%.=.! c w 7 2 5 5 2 7 w c ! =... . . . . . . . . . . . . . . . . . . . . . . . .#.6.Z = @ ",
"@ = Z 9.9.H r : 2 5 5 5 5 2 : u H =... . . . . . . . . . .....} ! V w < 3 3 < w V ! } .... . . . . . . . . . . . . . . . . . . . . . . . .#.6.Z = @ ",
"@ = Z 6.6./ c w 7 2 5 5 2 7 w c / %... . . . . . . . . . . . ...=.! c 0 6 6 0 c ! =... . . . . . . . . . . . . . . . . . . . . . . . . . .#.6.Z = @ ",
"@ = Z 6.6.{ ! B w < 2 2 < w V ! { .... . . . . . . . . . . . .....} ! B 9 9 B ! } .... . . . . . . . . . . . . . . . . . . . . . . . . . .#.6.Z = @ ",
"@ = Z 6.#...=.! c 0 6 6 0 c ! =.%. . . . . . . . . . . . . . . . ...=./ l l / =... . . . . . . . . . . . . . . . . . . . . . . . . . . . .#.6.Z = @ ",
"@ = Z 6.#.....} ! B 9 9 B ! } .... . . . . . . . . . . . . . . . .....{ / / { .... . . . . . . . . . . . . . . . . . . . . . . . . . . . .#.6.Z = @ ",
"@ = Z 6.#. . ...=./ l l / -... . . . . . . . . . . . . . . . . . . . ...%.%... . . . . . . . . . . . . . . . . . . . . . . . . . . . . . .#.6.Z = @ ",
"@ = Z 6.#. . .....{ / / { .... . . . . . . . . . . . . . . . . . . . ......... . . . . . . . . . . . . . . . . . . . . . . . . . . . . . .#.6.Z = @ ",
"@ = Z 6.#. . . . ...%.%... . . . . . . . . . . . . . . . . . . . . . . . . . . . . . . . . . . . . . . . . . . . . . . . . . . . . . . . .#.6.Z = @ ",
"@ = Z 6.#. . . . ......... . . . . . . . . . . . . . . . . . . . . . . . . . . . . . . . . . . . . . . . . . . . . . . . . . . . . . . . .#.6.Z = @ ",
"@ = Z 6.#. . . . . . . . . . . . . . . . . . . . . . . . . . . . . . . . . . . . . . . . . . . . . . . . . . . . . . . . . . . . . . . . .#.6.Z = @ ",
"@ = Z 6.#. . . . . . . . . . . . . . . . . . . . . . . . . . . . . . . . . . . . . . . . . . . . . . . . . . . . . . . . . . . . . . . . .#.6.Z = @ ",
"@ = Z 6.#. . . . . . . . . . . . . . . . . . . . . . . . . . . . . . . . . . . . . . . . . . . . . . . . . . . . . . . . . . . . . . . . .#.6.Z = @ ",
"@ = Z 6.#. . . . . . . . . . . . . . . . . . . . . . . . . . . . . . . . . . . . . . . . . . . . . . . . . . . . . . . . . . . . . . . . .#.6.Z = @ ",
"@ = Z 6.#. . . . . . . . . . . . . . . . . . . . . . . . . . . . . . . . . . . . . . . . . . . . . . . . . . . . . . . . . . . . . . . . .#.6.Z = @ ",
"@ = Z 6.#. . . . . . . . . . . . . . . . . . . . . . . . . . . . . . . . . . . . . . . . . . . . . . . . . . . . . . . . . . . . . . . . .#.6.Z = @ ",
"@ = Z 6.#. . . . . . . . . . . . . . . . . . . . . . . . . . . . . . . . . . . . . . . . . . . . . . . . . . . . . . . . . . . . . . . . .#.6.Z = @ ",
"@ = Z 6.#. . . . . . . . . . . . . . . . . . . . . . . . . . . . . . . . . . . . . . . . . . . . . . . . . . . . . . . . . . . . . . . . .#.6.Z = @ ",
"@ = Z 6.#. . . . . . . . . . . . . . . . . . . . . . . . . . . . . . . . . . . . . . . . . . . . . . . . . . . . . . . . . . . . . . . . .#.6.Z = @ ",
"@ = Z 6.#. . . . . . . . . . . . . . . . . . . . . . . . . . . . . . . . . . . . . . . . . . . . . . . . . . . . . . . . . . . . . . . . .#.6.Z = @ ",
"@ = Z 6.#. . . . . . . . . . . . . . . . . . . . . . . . . . . . . . . . . . . . . . . . . . . . . . . . . . . . . . . . . . . . . . . . .#.6.Z = @ ",
"@ = Z 6.#. . . . . . . . . . . . . . . . . . . . . . . . . . . . . . . . . . . . . . . . . . . . . . . . . . . . . . . . . . . . . . . . .#.6.Z = @ ",
"@ = Z 6.#. . . . . . . . . . . . . . . . . . . . . . . . . . . . . . . . . . . . . . . . . . . . . . . . . . . . . . . . . . . . . . . . .#.6.Z = @ ",
"@ = Z 6.#. . . . . . . . . . . . . . . . . . . . . . . . . . . . . . . . . . . . . . . . . . . . . . . . . . . . . . . . . . . . . . . . .#.6.Z = @ ",
"@ = Z 6.#. . . . . . . . . . . . . . . . . . . . . . . . . . . . . . . . . . . . . . . . . . . . . . . . . . . . . . . . . . . . . . . . .#.6.Z = @ ",
"@ = Z 6.#. . . . . . . . . . . . . . . . . . . . . . . . . . . . . . . . . . . . . . . . . . . . . . . . . . . . . . . . . . . . . . . . .#.6.Z = @ ",
"@ = Z 6.#. . . . . . . . . . . . . . . . . . . . . . . . . . . . . . . . . . . . . . . . . . . . . . . . . . . . . . . . . . . . . . . . .#.6.Z = @ ",
"@ = Z 6.#. . . . . . . . . . . . . . . . . . . . . . . . . . . . . . . . . . . . . . . . . . . . . . . . . . . . . . . . . . . . . . . . .#.6.Z = @ ",
"@ = Z 6.#. . . . . . . . . . . . . . . . . . . . . . . . . . . . . . . . . . . . . . . . . . . . . . . . . . . . . . . . . . . . . . . . .#.6.Z = @ ",
"@ = Z 6.#. . . . . . . . . . . . . . . . . . . . . . . . . . . . . . . . . . . . . . . . . . . . . . . . . . . . . . . . . . . . . . . . .#.6.Z = @ ",
"@ = Z 6.#. . . . . . . . . . . . . . . . . . . . . . . . . . . . . . . . . . . . . . . . . . . . . . . . . . . . . . . . . . . . . . . . .#.6.Z = @ ",
"@ = Z 6.#. . . . . . . . . . . . . . . . . . . . . . . . . . . . . . . . . . . . . . . . . . . . . . . . . . . . . . . . . . . . . . . . .#.6.Z = @ ",
"@ = Z 6.#. . . . . . . . . . . . . . . . . . . . . . . . . . . . . . . . . . . . . . . . . . . . . . . . . . . . . . . . . . . . . . . . .#.6.Z = @ ",
"@ = Z 6.#. . . . . . . . . . . . . . . . . . . . . . . . . . . . . . . . . . . . . . . . . . . . . . . . . . . . . . . . . . . . . . . . .#.6.Z = @ ",
"@ = Z 6.#. . . . . . . . . . . . . . . . . . . . . . . . . . . . . . . . . . . . . . . . . . . . . . . . . . . . . . . . . . . . . . . . .#.6.Z = @ ",
"@ = Z 6.#. . . . . . . . . . . . . . . . . . . . . . . . . . . . . . . . . . . . . . . . . . . . . . . . . . . . . . . . . . . . . . . . .#.6.Z = @ ",
"@ = Z 6.#. . . . . . . . . . . . . . . . . . . . . . . . . . . . . . . . . . . . . . . . . . . . . . . . . . . . . . . . . . . . . . . . .#.6.Z = @ ",
"@ = Z 6.#. . . . . . . . . . . . . . . . . . . . . . . . . . . . . . . . . . . . . . . . . . . . . . . . . . . . . . . . . . . . . . . . .#.6.Z = @ ",
"@ = Z 6.#. . . . . . . . . . . . . . . . . . . . . . . . . . . . . . . . . . . . . . . . . . . . . . . . . . . . . . . . . . . . . . . . .#.6.Z = @ ",
"@ = Z 6.#. . . . . . . . . . . . . . . . . . . . . . . . . . . . . . . . . . . . . . . . . . . . . . . . . . . . . . . . . . . . . . . . .#.6.Z = @ ",
"@ = Z 6.#. . . . . . . . . . . . . . . . . . . . . . . . . . . . . . . . . . . . . . . . . . . . . . . . . . . . . . . . . . . . . . . . .#.6.Z = @ ",
"@ = Z 6.#. . . . . . . . . . . . . . . . . . . . . . . . . . . . . . . . . . . . . . . . . . . . . . . . . . . . . . . . . . . . . . . . .#.6.Z = @ ",
"@ = Z 6.#. . . . . . . . . . . . . . . . . . . . . . . . . . . . . . . . . . . . . . . . . . . . . . . . . . . . . . . . . . . . . . . . .#.6.Z = @ ",
"@ = Z 6.#. . . . . . . . . . . . . . . . . . . . . . . . . . . . . . . . . . . . . . . . . . . . . . . . . . . . . . . . . . . . . . . . .#.6.Z = @ ",
"@ = Z 6.#. . . . . . . . . . . . . . . . . . . . . . . . . . . . . . . . . . . . . . . . . . . . . . . . . . . . . . . . . . . . . . . . .#.6.Z = @ ",
"@ = Z 6.#. . . . . . . . . . . . . . . . . . . . . . . . . . . . . . . . . . . . . . . . . . . . . . . . . . . . . . . . . . . . . . . . .#.6.Z = @ ",
"@ = Z 6.#. . . . . . . . . . . . . . . . . . . . . . . . . . . . . . . . . . . . . . . . . . . . . . . . . . . . . . . . . . . . . . . . .#.6.Z = @ ",
"@ = Z 6.#. . . . . . . . . . . . . . . . . . . . . . . . . . . . . . . . . . . . . . . . . . . . . . . . . . . . . . . . . . . . . . . . .#.6.Z = @ ",
"@ = Z 6.#. . . . . . . . . . . . . . . . . . . . . . . . . . . . . . . . . . . . . . . . . . . . . . . . . . . . . . . . ......... . . . .#.6.Z = @ ",
"@ = Z 6.#. . . . . . . . . . . . . . . . . . . . . . . . . . . . . . . . . . . . . . . . . . . . . . . . . . . . . . . . ...=.%... . . . .#.6.Z = @ ",
"@ = Z 6.#. . . . . . . . . . . . . . . . . . . . . . . . . . . . . . ......... . . . . . . . . . . . . . . . . . . . .....` / / ` .... . .#.6.Z = @ ",
"@ = Z 6.#. . . . . . . . . . . . . . . . . . . . . . . . . . . . . . ...%.%... . . . . . . . . . . . . . . . . . . . ...=./ l l / =... . .#.6.Z = @ ",
"@ = Z 6.#. . . . . . . . . . . . . . . . . . . . . . . . . . . . .....{ / / { .... . . . . . . . . . . . . . . . .....} ! B 9 9 B ! } ....#.6.Z = @ ",
"@ = Z 6.#. . . . . . . . . . . . . . . . . . . . . . . . . . . . .%.-./ l l / -... . . . . . . . . . . . . . . . ...=.! c 0 6 6 0 c ! =.%.#.6.Z = @ ",
"@ = Z 6.#. . . . . . . . . . . . . . . . . . . . . . . . . . ...%.} ! B 9 9 B ! } .... . . . . . . . . . . . .....{ ! V w < 2 2 < w V ! { 6.6.Z = @ ",
"@ = Z 6.#. . . . . . . . . . . . . . . . . . . . . . . . . . ...=.! c 0 6 6 0 c ! =... . . . . . . . . . . . ...%./ c w 7 2 5 5 2 7 w c / 6.6.Z = @ ",
"@ = Z 6.#. . . . . . . . . . . . . . . . . . . . . . . . .....} ! V w < 2 2 < w V ! } .... . . . . . . . . . ...=.H u : 2 5 5 5 5 2 : u H 9.9.Z = @ ",
"@ = Z 6.#. . . . . . . . . . . . . . . . . . . . . . . . ...=.! c w 7 2 5 5 2 7 w c ! =.%. . . . . . . . . . ...=.H r : 2 5 5 5 5 2 : r H 9.9.Z = @ ",
"@ = Z 6.#. . . . . . . . . . . . . . . . . . . . . . .....{ ! V w < 2 5 5 5 5 2 < w V ! { .... . . . . . . . ...%./ c w 7 2 5 5 2 7 w c / 6.6.Z = @ ",
"@ = Z 6.#. . . . . . . . . . . . . . . . . . . . . . ...%./ c w 7 2 5 5 5 5 5 3 2 7 w c / %... . . . . . . . .....{ ! V w < 2 2 < w B ! { #.6.Z = @ ",
"@ = Z 6.#. . . . . . . . . . . . . . . . . . . . . . ...=.H r : 2 5 5 5 5 5 5 5 5 2 : r H =... . . . . . . . . . .%.=.! c 0 6 6 0 c ! =...#.6.Z = @ ",
"@ = Z 6.#. . . . . . . . . . . . . . . . . . . . . . ...=.H r : 2 5 5 5 5 5 5 5 5 2 : r H =... . . . . . . . . . .....} ! B 9 9 B ! } ....#.6.Z = @ ",
"@ = Z 6.#. . . . . . . . . . . . . . . . . . . . . . ...%./ c w 7 2 5 5 5 5 5 5 2 7 w c / %... . . . . . . . . . .....=.:.! c c ! :.=... .#.6.Z = @ ",
"@ = Z 6.#. . . . . . . . . . . . . . . . . . . . . . .....{ ! V w < 2 5 5 5 5 2 < w V ! { .... . . . . . . . . . .....=.:.| ! ! | :.=.%...#.6.Z = @ ",
"@ = Z 6.#. . . . . . . . . . . . . . . . . . . . . . . . ...=.! c w 7 2 5 5 2 7 w c ! -... . . . . . . . . . .....` E D H H P P P K K / ` #.6.Z = @ ",
"@ = Z 6.#. . . . . . . . . . . . . . . . . . . . . . . . .....} ! V w < 2 2 < w V ! } .... . . . . . . . . . ...%.W l r r a a d g d a c / 6.6.Z = @ ",
"@ = Z 6.#. . . . . . . . . . . . . . . . . . . . . . . . . . ...=.! c 0 6 6 0 c ! =... . . . . . . . . . . . ...%./ l u a d g w 8 < : a K 9.9.Z = @ ",
"@ = Z 6.#. . . . . . . . . . . . . . . . . . . . . . . . . . .....} ! B 9 9 B ! } .... . . . . . . . . . . . .....` / P P Y Y C w < > a K 9.9.Z = @ ",
"@ = Z 6.#. . . . . . . . . . . . . . . . . . . . . . . . . . . . ...=./ l l / =... . . . . . . . . . . . . . .....` ! Y Y Y Y C w < > a K 9.9.Z = @ ",
"@ = Z 6.#. . . . . . . . . . . . . . . . . . . . . . . . . . . . ...%.{ / / { .... . . . . . . . . . . . . . ...%./ c g g k g w 7 < : a K 9.9.Z = @ ",
"@ = Z 6.#. . . . . . . . . . . . . . . . . . . . . . . . . . . . . . ...%.%... . . . . . . . . . . . . . . . ...=.K a : < 8 w g k g d c / 6.6.Z = @ ",
"@ = Z 6.#. . . . . . . . . . . . . . . . . . . . . . . . . . . . . . ......... . . . . . . . . . . . . . . . ...=.K d > < w C Y Y Y Y ! ` 6.6.Z = @ ",
"@ = Z 6.#. . . . . . . . . . . . . . . . . . . . . . . . . . . . . . . . . . . . . . . . . . . . . . . . . . ...=.K d > < w C Y Y P P / ` 6.6.Z = @ ",
"@ = Z 6.#. . . . . . . . . . . . . . . . . . . . . . . . . . . . . . . . . . . . . . . . . . . . . . . . . . ...=.K a : < 8 w d d a u l / 6.6.Z = @ ",
"@ ; A 8.#. . . . . . . . . . . . . . . . . . . . . . . . . . . . . . . . . . . . . . . . . . . . . . . . . . ...../ c a a d a u a r r l W 6.e.A ; @ ",
"@ ; A w.#. . . . . . . . . . . . . . . . . . . . . . . . . . . . . . . . . . . . . . . . . . . . . . . . . . .....` / K K K H H H H D E ` 6.e.S ; @ ",
"@ * M Q _ $.#.#.#.#.#.#.#.#.#.#.#.#.#.#.#.#.#.#.#.#.#.#.#.#.#.#.#.#.#.#.#.#.#.#.#.#.#.#.#.#.#.#.#.#.#.#.#.#.#.#.#.6.6.9.6.6.6.9.9.9.9.9.6._ Q M * @ ",
"# % & m Q w.8.6.6.6.6.6.6.6.6.6.6.6.6.6.6.6.6.6.6.6.6.6.6.6.6.6.6.6.6.6.6.6.6.6.6.6.6.6.6.6.6.6.6.6.6.6.6.6.6.6.6.6.6.9.6.9.9.9.9.9.9.e.e.Q m & % # ",
"$ @ . & M S A Z Z Z Z Z Z Z Z Z Z Z Z Z Z Z Z Z Z Z Z Z Z Z Z Z Z Z Z Z Z Z Z Z Z Z Z Z Z Z Z Z Z Z Z Z Z Z Z Z Z Z Z Z Z Z Z Z Z Z Z A S M & . @ $ ",
"    @ % * ; ; = = = = = = = = = = = = = = = = = = = = = = = = = = = = = = = = = = = = = = = = = = = = = = = = = = = = = = = = = ; = = ; ; * % @     ",
"    $ # @ @ @ @ @ @ @ @ @ @ @ @ @ @ @ @ @ @ @ @ @ @ @ @ @ @ @ @ @ @ @ @ @ @ @ @ @ @ @ @ @ @ @ @ @ @ @ @ @ @ @ @ @ @ @ @ @ @ @ @ @ @ @ @ @ @ # $     "
};
