/* XPM */
static char *diamonds_j[] = {
/* columns rows colors chars-per-pixel */
"74 104 209 2 ",
"   c None",
".  c #1D002C",
"X  c #1B0332",
"o  c #21012E",
"O  c #2C022D",
"+  c #2C0C2D",
"@  c #290934",
"#  c #2D123C",
"$  c #30133B",
"%  c #49042C",
"&  c #46012A",
"*  c #56042B",
"=  c #59042A",
"-  c #550A2F",
";  c #57052A",
":  c #451E28",
">  c #480830",
",  c #571438",
"<  c #55122E",
"1  c #770427",
"2  c #7B1E22",
"3  c #4D2225",
"4  c #48222B",
"5  c #512625",
"6  c #552A27",
"7  c #552C2B",
"8  c #52262A",
"9  c #542F31",
"0  c #772526",
"q  c #7B4928",
"w  c #44294C",
"e  c #462D51",
"r  c #482E50",
"t  c #463254",
"y  c #4B3153",
"u  c #4E3A59",
"i  c #533454",
"p  c #543C5A",
"a  c #583F5D",
"s  c #583652",
"d  c #55314E",
"f  c #6C2E4C",
"g  c #7F304B",
"h  c #743350",
"j  c #553F60",
"k  c #54415E",
"l  c #59415E",
"z  c #4D405F",
"x  c #6A4B4B",
"c  c #7B5B59",
"v  c #7B5955",
"b  c #7C4B52",
"n  c #544261",
"m  c #5A4361",
"M  c #6C5B74",
"N  c #7C6A7D",
"B  c #7C657B",
"V  c #830728",
"C  c #9E0826",
"Z  c #A70925",
"A  c #A9132E",
"S  c #AD152F",
"D  c #812427",
"F  c #A5011E",
"G  c #C9021C",
"H  c #D9091E",
"J  c #FF0216",
"K  c #FF0619",
"L  c #FF0A1D",
"P  c #F70A1E",
"I  c #F7291E",
"U  c #FD351D",
"Y  c #CB0B23",
"T  c #C80923",
"R  c #DB0B22",
"E  c #D50A22",
"W  c #D81627",
"Q  c #DB1C30",
"!  c #FF0E21",
"~  c #F60C21",
"^  c #FF1423",
"/  c #FF1828",
"(  c #E00D24",
")  c #C62922",
"_  c #FE303D",
"`  c #F02A20",
"'  c #D5301D",
"]  c #975D1D",
"[  c #96601E",
"{  c #BA7614",
"}  c #BD7A19",
"|  c #BD7915",
" . c #BF641E",
".. c #A16624",
"X. c #F9471C",
"o. c #C17E19",
"O. c #CC7F16",
"+. c #CE631B",
"@. c #F56A19",
"#. c #C83548",
"$. c #FE3440",
"%. c #FD3E4A",
"&. c #F73744",
"*. c #82455D",
"=. c #D74554",
"-. c #FE434D",
";. c #FE4650",
":. c #FF4953",
">. c #FD7275",
",. c #FF7779",
"<. c #FF787A",
"1. c #F86A6F",
"2. c #823650",
"3. c #BE831B",
"4. c #BD883F",
"5. c #C38119",
"6. c #C88215",
"7. c #EC9C0C",
"8. c #F48416",
"9. c #FD8616",
"0. c #EE950E",
"q. c #EFA00E",
"w. c #F6A40B",
"e. c #F8A80F",
"r. c #EFA112",
"t. c #EFA61E",
"y. c #F3A412",
"u. c #F6A815",
"i. c #CA8E30",
"p. c #F2B137",
"a. c #EAAB38",
"s. c #BE8940",
"d. c #CA984C",
"f. c #CB9748",
"g. c #F2B644",
"h. c #F6BA46",
"j. c #F8BB46",
"k. c #F4C76D",
"l. c #F6C970",
"z. c #7B6D81",
"x. c #7D7082",
"c. c #816E80",
"v. c #827082",
"b. c #998A96",
"n. c #998B98",
"m. c #9C909B",
"M. c #A58C96",
"N. c #A69599",
"B. c #A59CA4",
"V. c #BFB9B9",
"C. c #C48F95",
"Z. c #C49398",
"A. c #D59194",
"S. c #FA8D8D",
"D. c #FA908F",
"F. c #FD9593",
"G. c #C8AF91",
"H. c #C1B7B7",
"J. c #C2B8B7",
"K. c #C4BCBB",
"L. c #CABEBC",
"P. c #D3B1B1",
"I. c #F9BCB5",
"U. c #FBBFB8",
"Y. c #F8B7B1",
"T. c #ECBCB6",
"R. c #F1CE8A",
"E. c #C2C0BF",
"W. c #CDC2B9",
"Q. c #CDC1B7",
"!. c #D2C3BA",
"~. c #FCC3BA",
"^. c #F4C4BC",
"/. c #E8D6B4",
"(. c #EAD8B5",
"). c #F0CBB6",
"_. c #F6E1B2",
"`. c #F7E4B8",
"'. c #C2BFC0",
"]. c #BFC0C1",
"[. c #CCC4C2",
"{. c #CECAC6",
"}. c #C5C2C1",
"|. c #D2CBC6",
" X c #D2CDC8",
".X c #D0C7C3",
"XX c #D4D0CB",
"oX c #F7CEC4",
"OX c #F9CBC2",
"+X c #FCD1C6",
"@X c #FED5C9",
"#X c #F8E9C2",
"$X c #EAE6DA",
"%X c #ECEADD",
"&X c #F5ECDC",
"*X c #F8E9DB",
"=X c #FBF5DD",
"-X c #FBEFE0",
";X c #F0EDE0",
":X c #F6F3E4",
">X c #F9F6E7",
",X c #F6F5E9",
"<X c #F6FAEA",
"1X c #FBF9E8",
"2X c #FBFAE9",
"3X c #F9F7E8",
"4X c #FFFFF2",
"5X c #EEEDE0",
"6X c #BFC1BF",
/* pixels */
"    @ @ o o o o o o o o o o o o o o o o o o o o o o o o o o o o o o o o o o o o o o o o o o o o o o o o o o o o o o o o o o o o o o o o o o @ @     ",
"    o $ y l l l l l a a a a a a a a a a a a a a a a a a a a a a a a a a a a a a a a a a a a a a a a a a a a a a a a a a a a a a a a a l l y $ o     ",
"@ o . r b.K.K.J.J.J.J.J.J.J.J.J.H.H.J.J.J.J.J.J.J.J.J.J.J.J.J.J.J.J.J.J.J.J.J.J.J.J.J.J.J.J.J.J.J.J.J.J.J.J.H.H.J.J.J.J.J.J.J.J.H.J.H.K.K.b.r . o @ ",
"@ $ r c. X2X2X1X1X1X1X1X1X2X2X1X1X1X1X1X1X1X1X1X1X1X1X1X1X1X1X1X1X1X1X1X1X1X1X1X1X1X1X1X1X1X1X1X1X1X1X1X1X1X3X1X1X1X1X1X1X1X1X1X1X1X1X2X2X Xc.r $ @ ",
"o y b. X%X1X>X>X>X>X>X>X1X2X2X1X1X>X>X>X>X>X>X>X>X>X>X>X>X>X>X>X>X>X>X>X>X>X>X>X>X>X>X>X>X>X>X>X>X>X>X>X>X>X>X>X>X>X>X>X>X>X>X>X>X>X>X>X1X%X Xb.y o ",
"o l K.2X1X:X:X:X:X:X,X*XOXI.I.OX*X,X>X>X>X>X>X>X>X>X>X>X>X>X>X>X>X>X>X>X>X>X>X>X>X>X>X>X>X>X>X>X>X>X>X>X,X:X:X,X>X>X,X,X>X>X>X>X,X:X:X:X:X1X2XK.l o ",
"o l K.2X>X:X:X:X:X,X,XOX>.-.-.>.OX<X1X1X1X1X1X1X1X1X1X1X1X1X1X1X1X1X1X1X1X1X1X1X1X1X1X1X1X1X1X1X1X1X1X>X,X:X:X,X>X>X,X,X>X1X1X>X>X:X:X:X:X>X2XK.l o ",
"o l J.1X>X:X:X:X:X,X<XI.-.J J -.I.$X{.H.H.H.H.H.H.H.H.H.H.H.H.H.H.H.H.H.H.H.H.H.H.H.H.H.H.H.H.H.H.H.H.[.$X>X1X$X.X.X$X$X[.H.H..X$X>X,X:X:X>X1XJ.a o ",
"o a J.1X>X:X:X:X:X,X<XI.-.J J -.U.{.N i u p p p p p p p p p p p p p p p p p p p p p p p p p p p p p u N [.2X2X.XN N .X.XN u p N .X>X>X:X:X>X1XJ.a o ",
"o a J.1X>X:X:X:X:X,X<XI.-.K K :.~.{.N i p p p p p p p p p p p p p p a a a a a a p a a p p p p p p p i N .X&X Xb.w p K. X*.w @ p J.1X>X:X:X>X1XJ.a o ",
"o a J.1X>X:X:X:X:X,X<XI.;.K K ;.I.$X{.H.H.H.H.H.H.H.H.H.H.H.H.H.H.J.K.K.K.K.K.K.K.K.K.K.J.H.H.H.H.H.H..X%X.Xc.w @ p K.&X Xb.w p H.1X>X:X:X>X1XJ.a o ",
"o a J.1X>X,X,X,X,X<X<XI.;.K K ;.I.<X1X1X1X1X1X1X1X1X1X2X2X2X2X2X2X5X XK.K.!.^.~.~.^.L. X;X2X2X1X1X1X1X2X2XJ.p . . l K.2X2XK.p p H.1X>X:X:X>X1XJ.a o ",
"o a J.1X>X,X,X<X<X<X<X~.:.K K ;.I.<X1X>X>X>X>X>X>X1X1X2X2X2X2X2X2X Xx.k k *.=.:.:.=.b x. X2X2X>X>X>X>X1X2XJ.a . . l K.2X2XK.p p H.1X>X:X:X>X1XJ.a o ",
"o a J.1X3X*X^.Y.I.I.I.D.$.K J -.I.<X,X:X:X:X:X,X>X*XOXT.L.V.V.L.^.A.g * * 1 Z H P H 1 f M.|.%X>X,X:X:X>X1XK.l . o l K.2X2XH.p p H.1X>X:X:X>X1XJ.a o ",
"o a J.1X1X^.1.%.%.-.-.$./ K J -.I.<X,X:X:X:X:X,X1XOX>.=.b z z b =.&.Q Y Y Z 1 V E P E A f N {.>X>X:X:X>X1XK.l . o l K.2X2XH.p p H.1X>X:X:X>X1XJ.a o ",
"o a J.1X1X^.1.%.%.-.-.-.;.-.-.>.OX,X,X:X:X,X,X$X{.A.&.H V * * 1 Z R ~ ^ ! Y - - T ^ ^ Y * u V.1X>X:X:X>X1XK.a . . l K.2X2XH.p p H.1X>X:X:X>X1XJ.a o ",
"o a J.1X1X*X^.Y.I.I.I.I.I.I.I.OX*X,X:X:X:X>X>X{.z.g W P E Y Y Z 1 V R ! ^ Y - - T ! ^ Y * u V.1X>X:X:X>X1XJ.a . . a J.2X2XH.p p H.1X>X:X:X>X1XJ.a o ",
"o a J.1X>X,X,X<X<X&XoXoX&X<X<X,X,X:X:X:X:X>X1XV.p * Y ^ ^ ! L Y - - Y ! ^ Y - - Y ~ R A f N {.>X>X:X:X>X1XQ.c 5 5 c Q.2X2XH.p p H.1X>X:X:X>X1XJ.a o ",
"o l J.1X>X,X,X<X<XoX>.>.oX<X<X,X,X:X:X:X:X>X1XJ.p * Y ^ ^ ! ! Y - - Y ^ ^ Y - - Y R V f M.|.%X,X,X:X:X,X,X/.d.| | d./.1X2XH.p p H.1X>X:X:X>X1XJ.a o ",
"o l J.1X>X,X,X&XoXD._ _ D.oX&X,X,X:X:X:X:X>X1XJ.p & C Y Y Y Y Z > > C Y Y C % % Z S f z.|.2X>X:X:X:X:X,X,X_.h.w.w.h._.2X1XH.p p H.1X>X:X:X>X1XJ.a o ",
"o l J.1X>X,X<XoX>.$./ / $.>.oX<X,X:X:X:X:X>X1XJ.p O & = - - - > @ @ % = = % O O % h M.|.%X>X,X:X:X:X:X,X,X_.h.w.w.h._.1X1XH.p p H.1X>X:X:X>X1XJ.a o ",
"o a J.1X3X*XoXD.$.K L L K $.D.oX*X,X,X:X:X>X>X.X*.a n t # X X + 4 9 s n l l l r # p K.2X3X:X:X:X:X:X:X,X,X/.d.{ { d./.1X2XH.p p H.1X>X:X:X>X1XJ.a o ",
"o l J.1X1XOX>.$./ L ! ! L / $.>.OX,X,X:X:X,X,X$X.XK.'.m.t X X 4 ] i.G.K.K.K.K.b.e p J.2X>X:X:X:X:X:X:X>X3XQ.c 3 3 c Q.2X2XH.p p H.1X>X:X:X>X1XJ.a o ",
"o l J.2X2XI.%.J L ! ! ! ! L J %.I.<X,X:X:X:X:X,X1X=X#XG.v 8 8 q i.l.#X2X1X2X2X!.v v Q.1X>X:X:X:X:X:X:X>X3XQ.c 3 3 c Q.2X2XH.p p H.1X>X:X:X>X1XJ.a o ",
"o l J.2X2XI.%.J L ! ! ! ! L J %.I.<X,X:X:X:X:X,X3X#Xl.a.5.} } i.R.#X=X3X3X1X2X/.f.f./.,X,X:X:X:X:X:X:X,X,X/.d.{ { d./.1X2XH.p p H.1X>X:X:X>X1XJ.a o ",
"o l J.1X1XOX>.$./ L ! L L / $.>.OX,X,X:X:X:X:X,X,X_.g.q.y.u.w.h._.,X,X:X:X,X,X_.g.p.R.#X&X:X:X:X:X:X:X,X,X_.h.w.w.h._.2X1XH.p p H.1X>X:X:X>X1XJ.a o ",
"o a J.1X3X*XoXD.$.K L L K $.D.oX*X,X,X:X:X:X:X,X,X_.g.q.y.y.w.g._.,X,X:X:X,X,X_.g.u.p.k.`.,X,X:X:X:X:X,X,X_.h.w.w.h._.2X2XH.p p H.1X>X:X:X>X1XJ.a o ",
"o a J.1X>X,X<XoX>.$./ / _ >.oX<X,X:X:X:X:X:X:X&X#XR.p.r.r.r.r.g._.1X,X:X:X,X,X_.g.w.7.g._.,X,X:X:X:X:X,X,X/.d.{ { d./.1X2XH.p p H.1X>X:X:X>X1XJ.a o ",
"o a J.1X>X,X,X&XoXD._ _ D.oX&X,X,X:X:X:X:X,X,X`.k.p.t.r.r.r.q.g.`.2X3X:X:X,X,X_.h.w.q.g._.,X,X:X:X:X:X>X1XQ.c 3 3 c Q.2X2XH.p p H.1X>X:X:X>X1XJ.a o ",
"o a J.1X>X:X:X,X<XOX>.>.OX<X,X:X:X:X:X:X:X,X3X_.g.7.r.r.r.y.y.a.G. X%X1X>X1X1X(.d.6.0.p.R.#X&X:X:X:X:X>X1XQ.c 3 3 c Q.2X2XH.p p H.1X>X:X:X>X1XJ.a o ",
"o a J.1X>X:X:X,X,X*XOXOX*X,X,X:X:X:X:X:X:X,X2X_.g.7.r.r.r.y.y.5.b z. X2X2X2X2X!.c q 6.t.p.k.`.,X,X:X:X,X,X/.d.{ { d./.1X2XH.p p H.1X>X:X:X>X1XJ.a o ",
"o l J.1X>X:X:X,X,X$X{.{.$X,X,X:X:X:X:X,X>X%X{.G.a.w.y.y.y.u.u.} 5 e b.K.J.J.K.n.e 8 } e.w.g._.,X,X:X:X,X,X_.h.w.w.h._.2X2XH.p p H.1X>X:X:X>X1XJ.a o ",
"o a J.1X>X:X:X>X>X[.N N [.>X>X:X:X:X:X>X2X.XB b 5.u.u.u.y.u.u.o.6 # e p p p p e # 6 o.e.e.g._.,X,X:X:X,X,X_.h.w.w.h._.2X1XH.p p H.1X>X:X:X>X1XJ.a o ",
"o a J.1X>X:X:X>X1XH.i i H.1X>X:X:X>X>X%X|.B.M x ..| } } } } o.] 4 # r l a a l y $ 4 ] | | d.(.1X3X:X:X,X3X/.d.{ { d./.1X2XH.p p H.1X>X:X:X>X1XJ.a o ",
"o a J.1X>X:X:X>X1XH.u u H.1X>X:X:X>X2X.XN M B.N.x 5 5 6 6 6 6 : + y m.W.L.L.W.m.y + : 5 5 v !.2X3X:X:X>X1XQ.c 3 3 c Q.2X2XH.p p H.1X>X:X:X>X1XJ.a o ",
"o a J.1X>X:X:X>X1XH.p p H.1X>X,X>X%X XM.f g A.P.B p j n n n j e # y m.[.[.[.[.m.y # e a j M B..X%X>X>X>X1XQ.c 3 3 c Q.2X2XH.p p H.1X>X:X:X>X1XJ.a o ",
"o a J.1X>X:X:X>X1XH.p p H.1X>X>X2X Xz.f A W &.1.P.].'.K.K.'.K.n.y # y m m m m y # y n.'.}.B.M N .X2X>X,X3X/.d.{ { d./.1X2XH.p p H.1X>X:X:X>X1XJ.a o ",
"o a J.1X>X:X:X>X1XH.p p H.2X2X%X XM.f 1 E L K $.F.~.~.~.~.+X>XK.m + : : + + : : + m K.>X@XA.g f M. X%X1X2X_.h.w.w.h.`.2X2XH.p p H.1X>X:X:X>X1XJ.a o ",
"o a J.1X>X:X:X>X1XH.p p H.2X2X Xz.f A R ~ ! L / %.:.:.;.-.,.+XK.n : ] ] 4 4 ] ] : n K.@X<.&.W A f z. X2X2X`.j.w.w.j.`.2X2XH.p p H.1X>X:X:X>X1XJ.a o ",
"o a J.1X>X:X:X>X1XH.p p K.:XXXN.x 0 ' U U I ^ ! L L L K K -.~.K.n 6 5.5.7 7 5.5.6 n K.~.-.K L E 1 f M.K.K.G.s.{ { 4.G. X5XJ.p p H.1X>X:X:X>X1XJ.a o ",
"o a J.1X>X:X:X>X1XH.p a L.XXz.x ..O.8.8.8.@.I ! L L L L K ;.~.K.n 6 o.5.7 7 5.o.6 n K.~.;.K L ~ E S h n n s 9 5 5 9 s v. XK.a p H.1X>X:X:X>X1XJ.a o ",
"o a J.1X>X:X:X>X1XJ.p y m.N.h 2 +.9.8.8.8.@.X.I ^ ! ! L L :.~.K.n 6 o.o.7 7 o.o.6 n K.~.:.L L ! ! W 0 : + # r n n e @ a K.K.a p H.1X>X:X:X>X1XJ.a o ",
"o a J.1X>X:X:X>X1XJ.l # t h S W I U U U U X.@.@.I ! ! L L :.~.K.n 6 o.o.7 7 o.o.6 n K.~.:.L L ! ! I +.] : e n.K.K.b.w p K.K.a p H.1X>X:X:X>X1XJ.a o ",
"o a J.1X>X:X:X>X1XJ.l O & V R ! ! ! ! ! ! U 8.8.U ! ! L L :.~.K.n 6 o.o.7 7 5.o.6 n }.~.:.L L ! ! U 9.5.6 j K.4X4XK.p a L.L.l p H.1X>X:X:X>X1XJ.a o ",
"o a J.1X>X:X:X>X1XJ.l & Z R ~ ! ! ! ! ! ! U 8.8.U ! ! L L :.~.K.n 6 o.o.7 7 5.5.6 n }.~.:.L L ! ! U 9.5.6 j K.4X4XK.p l W.W.l p H.1X>X:X:X>X1XJ.a o ",
"o a J.1X>X:X:X>X1XJ.l % Z ( ~ ! ! ! ! ! ! U 8.8.U ! ! L L :.~.}.n 6 o.5.7 4 ] ] 4 t m.Z.#.T Y Y T ) +.] 4 t n.E.K.b.e y m.m.y p J.1X>X:X:X>X1XJ.a o ",
"o a J.1X>X:X:X>X1XJ.l O % V R ! ! ! ! ! ! U 8.8.U ! ! L L :.~.}.n 6 5.5.7 + : 4 + # t i , ; - - - < 8 4 + # t l a e # # y t # a J.1X>X:X:X>X1XJ.a o ",
"o a J.1X>X:X:X>X1XK.l . X > C Y Y Y Y T T )  . .) T T Y G #.Z.n.e : [ [ 4 # t s , = = , i i , - - , i i , = = , d i , = = & O l J.1X>X:X:X>X1XJ.a o ",
"o a J.1X>X:X:X>X1XK.l . X @ % ; ; ; ; ; * - 8 8 < - ; * * , d e # + 4 4 + t m.Z.#.G G #.C.Z.#.T T #.Z.Z.#.G G #.C.C.#.Y Y C & l J.1X>X:X:X>X1XJ.a o ",
"o a J.1X>X:X:X>X1XJ.l O % , i n n n n n n i , * * , i n n n l l l s , * * *.!.@X,.-.-.,.@X~.;.J J ;.~.@X,.-.-.,.@X~.:.K K Y = l J.1X>X:X:X>X1XJ.a o ",
"o a J.1X>X:X:X>X1XJ.l & F #.C.K.E.E.E.E.E.C.#.G G #.C.E.}.K.K.K.K.C.#.G G =.T.-X+XU.~.+X-XI.-.J J -.I.-X+XI.U.+X-XU.-.J K G * l J.1X>X:X:X>X1XJ.a o ",
"o a J.1X>X:X:X>X1XJ.a , #.,.+X-X+X~.~.+X:X+X>.-.-.>.oX-X+X~.~.+X-XoX,.-.-.>.oX&X+XU.~.+X&XoX>.-.-.>.oX&X+XU.U.+X&XoX>.-.:.#., a J.1X>X:X:X>X1XJ.a o ",
"o a J.1X>X:X:X>X1XH.p d Z.@X>XoX>.-.-.>.oX&X+XU.I.+X&XoX>.-.-.>.oX&X+XU.~.+X-XoX>.-.-.>.+X:X+X~.U.+X-X+X>.-.-.>.+X:X+X~.~.Z.d p H.1X>X:X:X>X1XJ.a o ",
"o a J.1X>X:X:X>X1XH.p d Z.@X>XU.-.J J -.I.-X+X~.I.+X-XI.-.J J -.I.-X+X^.W.E.K.C.#.G G #.C.E.E.E.E.}.E.C.#.G G #.C.E.E.}.}.m.r p H.1X>X:X:X>X1XJ.a o ",
"o a J.1X>X:X:X>X1XJ.a , #.<.@X~.:.J J ;.~.@X,.-.-.,.@X~.:.J J :.~.@X,.=.b n n i , = = , i n n n n n m s , = = , i n n n m y # a J.1X>X:X:X>X1XJ.a o ",
"o a J.1X>X:X:X>X1XJ.l & F #.Z.Z.#.G G #.Z.Z.#.G G #.Z.Z.#.G G #.Z.Z.#.F 1 ; ; % @ X X O % ; ; ; = % O X X @ > - - ; = % O . o l K.1X>X:X:X>X1XJ.a o ",
"o a J.1X>X:X:X>X1XJ.l O & , s s , * * , s s , * * , i i , - * , i i , 1 Z E Y C > X X % C Y Y Y Y C % X X > C Y Y Y Y C % . . l K.1X>X:X:X>X1XJ.a o ",
"o a J.1X>X:X:X>X1XJ.l # t y # # y n n y # + 4 8 < - - ; - , i i , & @ > Z ( ! R V , i 2.Q ! ! ! ! W D 8 < V R ! ! ! ! R V % O l J.1X>X:X:X>X1XJ.a o ",
"o a J.1X>X:X:X>X1XJ.p y m.m.r e n.E.E.n.e : [ +.) T T Y Y #.Z.Z.#.C & @ > V R P E #.Z.A.&.L L ! ! ` +. .) R ~ ! ! ! ! ~ ( Z % l J.1X>X:X:X>X1XJ.a o ",
"o a J.1X>X:X:X>X1XH.p l W.W.l p K.4X4XK.j 6 5.9.U ! ! L L :.~.~.:.R D 7 9 0 W L L :.~.^.:.L L ! ! U 8.8.U ! ! ! ! ! ! ~ R Z % l J.1X>X:X:X>X1XJ.a o ",
"o a J.1X>X:X:X>X1XH.p l L.L.a p K.4X4XK.j 6 5.9.U ! ! L L :.~.~.:.I +.5.3.+.` L L :.~.~.:.L L ! ! U 8.8.U ! ! ! ! ! ! R V & O l J.1X>X:X:X>X1XJ.a o ",
"o a J.1X>X:X:X>X1XH.p a K.K.p w b.K.K.n.e : ] +.I ! ! L L :.~.~.;.I +.3.3.+.` L L :.~.~.:.L L ! ! I @.@.X.U U U U I W S h t # l J.1X>X:X:X>X1XJ.a o ",
"o a J.1X>X:X:X>X1XH.p a K.K.a @ e j j e # + : 0 W ! ! L L :.~.~.:.R D 7 7 D W L L :.~.~.:.L L ! ! ^ I X.@.8.8.8.9.+.2 f N.m.y p J.1X>X:X:X>X1XJ.a o ",
"o a J.1X>X:X:X>X1XH.p a K. Xv.s 9 5 5 9 s n j h S E ~ L K ;.~.^.=.Z 0 7 7 0 S E P :.~.~.;.K K L L L ! I @.8.8.8.6...x z.XXL.a p H.1X>X:X:X>X1XJ.a o ",
"o a J.1X>X:X:X>X1XH.p p J.5X XG.4.{ { s.G.K.K.M.f 1 E L K -.~.L.b 0 ..5.5...0 V R :.~.~.-.K K L L L ! ^ I U U ' 0 x N.XX:XK.p p H.1X>X:X:X>X1XJ.a o ",
"o a J.1X>X:X:X>X1XH.p p H.2X2X`.j.w.w.j.`.2X2X Xz.f A W &.<.@XK.n : ] 5.6.] 4 & C =.^.@X,.-.;.:.:.%./ L L ~ R A f z. X2X2XH.p p H.1X>X:X:X>X1XJ.a o ",
"o a J.1X>X:X:X>X1XH.p p H.2X2X`.h.w.w.h._.2X1X%X XM.f g A.@X>XK.n + : 6 6 : + O & *.!.>X+X~.~.~.~.F.$.K L E 1 f M. X%X2X2XH.p p H.1X>X:X:X>X1XJ.a o ",
"o a J.1X>X:X:X>X1XH.p p H.2X1X/.d.{ { d./.,X,X>X2X.XN M B.}.K.n.y # y m m m m y # t n.K.K.K.K.'.}.P.1.&.W A f z. X2X>X>X1XH.p p H.1X>X:X:X>X1XJ.a o ",
"o a J.1X>X:X:X>X1XH.p p H.2X2XQ.c 3 3 c Q.1X>X>X>X%X|.B.M p a r # y m.[.[.[.[.m.y # e j n n n j p B P.A.g f M. X%X>X>X>X1XH.p p H.1X>X:X:X>X1XJ.a o ",
"o a J.1X>X:X:X>X1XH.p p H.2X2XQ.c 3 3 c Q.1X>X:X:X3X2X!.v 5 5 : + y m.W.L.L.W.m.y + : 6 6 8 5 5 5 x N.B.M N .X2X>X:X:X>X1XH.u u H.1X>X:X:X>X1XJ.a o ",
"o a J.1X>X:X:X>X1XH.p p H.2X2X/.d.{ { d./.,X,X:X:X3X1X(.d.| | ] 4 # y l a l l y # 4 ] } } } } } | ..x M B..X%X>X>X:X:X>X1XH.i i H.1X>X:X:X>X1XJ.a o ",
"o a J.1X>X:X:X>X1XH.p p H.2X2X_.h.w.w.h._.,X,X:X:X,X,X_.g.e.e.o.6 # e p p p p e # 6 o.u.u.u.u.u.u.5.b B .X2X>X:X:X:X:X>X>X[.N N [.>X>X:X:X>X1XJ.a o ",
"o a J.1X>X:X:X>X1XH.p p H.2X2X_.h.w.w.h._.,X,X:X:X,X,X_.g.w.e.} 8 e n.K.J.J.K.b.e 5 } u.u.y.y.y.w.a.G.{.%X>X,X:X:X:X:X,X,X$X{.{.$X,X,X:X:X>X1XJ.a o ",
"o a J.1X>X:X:X>X1XH.p p H.2X2X/.d.{ { d./.,X,X:X:X,X,X`.k.p.t.6.q c !.2X2X2X2X Xz.b 5.y.y.r.r.q.7.g.`.2X,X:X:X:X:X:X:X,X,X*XOXOX*X,X,X:X:X>X1XJ.a o ",
"o a J.1X>X:X:X>X1XH.p p H.2X2XQ.c 3 3 c Q.3X>X:X:X:X:X&X#XR.p.0.6.d.(.1X1X>X1X%X XG.a.y.r.r.r.q.7.g._.2X,X:X:X:X:X:X:X,X<XOX>.>.OX<X,X:X:X>X1XJ.a o ",
"o a J.1X>X:X:X>X1XH.p p H.2X2XQ.c 3 3 c Q.1X>X:X:X:X:X,X,X_.g.q.w.h._.,X,X:X:X,X2X`.g.q.r.r.r.t.p.k.`.,X,X:X:X:X:X,X,X&XoXD._ _ D.oX&X,X,X>X1XJ.a o ",
"o a J.1X>X:X:X>X1XH.p p H.2X1X/.d.{ { d./.,X,X:X:X:X:X,X,X_.g.7.w.g._.,X,X:X:X,X1X_.g.q.y.y.y.p.R.#X&X:X:X:X:X:X:X,X<XoX>._ / / _ >.oX<X,X>X1XJ.a o ",
"o a J.1X>X:X:X>X1XH.p p H.1X2X_.h.w.w.h._.,X,X:X:X:X:X,X,X`.k.p.u.g._.,X,X:X:X,X,X_.g.w.y.w.w.g._.,X,X:X:X:X:X,X,X*XoXD.$.K L L K $.D.oX*X1X1XJ.a o ",
"o a J.1X>X:X:X>X1XH.p p H.1X1X_.h.w.w.h._.,X,X:X:X:X:X:X:X&X#XR.p.g._.,X,X:X:X,X,X_.h.e.u.w.q.g._.,X,X:X:X:X:X,X,XOX>.$./ L ! ! L / $.>.OX1X1XJ.a o ",
"o a J.1X>X:X:X>X1XH.p p H.2X1X/.d.{ { d./.,X,X:X:X:X:X:X:X,X,X/.f.f./.1X1X3X3X=X#XR.i.| } i.a.l.#X3X,X:X:X:X:X,X<XI.%.J L ! ! ! ! L J %.I.2X2XJ.a o ",
"o a J.1X>X:X:X>X1XH.p p H.2X2XQ.c 3 3 c Q.1X>X:X:X:X:X:X:X>X1XQ.v v !.2X2X1X2X#Xl.i.q 8 8 v G.#X=X3X,X:X:X:X:X,X<XI.%.J L ! ! ! ! L J -.I.2X2XH.a o ",
"o a J.1X>X:X:X>X1XH.p p H.2X2XQ.c 3 3 c Q.1X>X:X:X:X:X:X:X>X2XJ.p e b.K.K.K.K.G.i.] 4 X X t m.'.K..X$X,X,X:X:X,X,XOX>.$./ L ! ! L / $.>.OX1X1XH.a o ",
"o a J.1X>X:X:X>X1XH.p p H.2X2X/.d.{ { d./.,X,X:X:X:X:X:X:X1X2XK.a # r l l k n s 9 4 + X X # t l a N .X>X>X:X:X,X,X*XoXD.$.K L L K $.D.oX*X1X1XH.a o ",
"o a J.1X>X:X:X>X1XH.p p H.2X2X_.h.w.w.h._.,X,X:X:X:X:X>X>X%X XM.h % O O % = = % @ @ > - - - = & O p J.1X>X:X:X:X:X,X<XoX>.$./ / $.>.oX<X,X>X1XJ.a o ",
"o a J.1X>X:X:X>X1XH.p p H.1X2X_.h.w.w.h._.,X,X:X:X:X:X>X2X Xz.f S Z % % C Y Y C > > Z Y Y Y Y C & p J.1X>X:X:X:X:X,X,X&XoXD._ _ D.oX&X,X,X>X1XJ.a o ",
"o a J.1X>X:X:X>X1XH.p p H.2X2X/.d.| | d./.,X,X:X:X,X,X%X|.M.f V R Y - - Y ! L Y - - Y ! ^ ^ ^ Y * p J.1X>X:X:X:X:X,X,X<X<XoX>.>.oX<X<X,X,X>X1XJ.a o ",
"o a J.1X>X:X:X>X1XH.p p J.2X2X!.c 5 5 c Q.1X>X:X:X>X>X{.z.f A R ~ Y - - Y ^ ! Y - - Y ! ^ ^ ^ Y * p J.1X>X:X:X:X:X,X,X<X<X&XoXoX&X<X<X,X,X>X1XJ.a o ",
"o a J.1X>X:X:X>X1XH.p p J.2X2XJ.a . . a J.1X>X:X:X>X1XV.u * Y ^ ^ T - - Y ^ ! R V 1 Z Y Y E P W g N {.>X>X:X:X,X,X*XOXI.I.I.I.I.I.I.Y.^.*X1X1XJ.a o ",
"o a J.1X>X:X:X>X1XH.p p H.2X2XK.a . . a K.1X>X:X:X>X1XV.u * Y L ! T - - Y ! ^ ~ R Z 1 * * V H &.A.{.$X,X,X:X:X,X,XOX>.-.-.;.-.-.-.%.%.1.^.1X1XJ.a o ",
"o a J.1X>X:X:X>X1XH.p p H.2X2XK.l . . l K.1X>X:X:X>X>X{.N f A H P E V 1 Z Y T Q &.=.b z z h =.>.OX2X,X:X:X:X:X,X<XI.-.J K / $.-.-.%.%.1.^.1X1XH.a o ",
"o a J.1X>X:X:X>X1XH.p p H.2X2XK.l . . l K.1X>X:X:X,X,X%X|.M.f 1 H P H Z 1 * * g A.^.L.V.V.L.T.OX*X>X,X:X:X:X:X,X<XI.-.J J $.D.I.I.I.Y.^.*X1X1XJ.a o ",
"o a J.1X>X:X:X>X1XH.p p J.2X2XK.l . . a J.2X1X>X>X>X>X2X2X Xx.b =.:.:.=.*.k k x.XX2X2X2X2X2X2X1X1X>X>X>X>X>X>X1X<XI.;.K K ;.~.<X<X<X<X,X,X>X1XJ.a o ",
"o a J.1X>X:X:X>X1XJ.p p K.2X2XK.l . . p J.2X2X1X1X1X1X2X2X;X XL.^.~.~.^.!.K.K. X5X2X2X2X2X2X2X1X1X1X1X1X1X1X1X1X<XI.;.K K ;.I.<X<X,X,X,X,X>X1XJ.a o ",
"o a J.1X>X:X:X>X1XJ.p w b. X&XK.p @ w c..X%X.XH.H.H.H.H.H.J.K.K.K.K.K.K.K.K.K.K.J.H.H.H.H.H.H.H.H.H.H.H.H.H.H.{.$XI.;.K K ;.I.<X,X:X:X:X,X>X1XJ.a o ",
"o a J.1X>X:X:X>X1XJ.p @ w *. XK.p w b. X&X.XN i u p p p p p a a a a a a a a a a p p p p p p p p p p p p p u i N {.~.:.K K ;.I.<X,X:X:X:X:X>X1XJ.a o ",
"o a J.1X>X:X:X>X1X.XN p i N .X.XN N .X2X2X[.B i u p p p p p p p p p p p p p p p p p p p p p p p p p p p p u i N {.U.;.J J -.I.<X,X:X:X:X:X>X1XJ.a o ",
"o a J.1X>X:X:X,X,X$X.XH.H.[.$X$X.X.X$X3X>X$X[.H.H.H.H.H.H.H.H.H.H.H.H.H.H.H.H.H.H.H.H.H.H.H.H.H.H.H.H.H.H.H.H.{.$XI.-.J J -.I.<X,X:X:X:X:X>X1XJ.l o ",
"o l K.2X>X:X:X:X:X,X>X1X1X>X,X,X>X>X,X:X:X,X>X1X1X1X1X1X1X1X1X1X1X1X1X1X1X1X1X1X1X1X1X1X1X1X1X1X1X1X1X1X1X1X1X1X<XOX>.%.%.>.OX,X,X:X:X:X:X>X2XK.l o ",
"o l K.2X1X:X:X:X:X,X>X>X>X>X,X,X>X>X,X:X:X,X>X>X>X>X>X>X>X>X>X>X>X>X>X>X>X>X>X>X>X>X>X>X>X>X>X>X>X>X>X>X>X>X>X>X,X*XOXI.I.OX*X,X,X:X:X:X:X3X2XK.l o ",
"o y b. X%X1X>X>X>X>X>X>X>X>X>X>X>X>X>X>X>X>X>X>X>X>X>X>X>X>X>X>X>X>X>X>X>X>X>X>X>X>X>X>X>X>X>X>X>X>X>X>X>X>X>X>X>X1X1X2X2X1X1X>X>X>X>X>X1X%X Xn.y o ",
"@ $ r c. X2X2X1X1X1X1X1X1X1X3X3X1X1X1X1X1X1X1X1X1X1X1X1X1X1X1X1X1X1X1X1X1X1X1X1X1X1X1X1X1X1X1X1X1X1X1X1X1X1X1X1X1X1X1X2X2X1X1X1X1X1X1X2X2X Xc.r $ @ ",
"@ o . r b.K.K.J.J.J.J.J.J.J.H.H.J.J.J.J.J.J.J.J.J.J.J.J.J.J.J.J.J.J.J.J.J.J.J.J.J.J.J.J.J.J.J.J.J.J.J.J.J.J.J.J.J.H.H.H.J.J.J.J.J.J.J.K.K.b.r o o @ ",
"    o $ y l l a a a l l a a a a a a a a a a a a a a a a a a a a a a a a a a a a a a a a a a a a a a a a a a a a a a a a a l l l a a a l l y $ o     ",
"    @ @ o o o o o o o o o o o o o o o o o o o o o o o o o o o o o o o o o o o o o o o o o o o o o o o o o o o o o o o o o o o o o o o o o o @ @     "
};
