/* XPM */
static char *diamonds_5[] = {
/* columns rows colors chars-per-pixel */
"74 104 128 2 ",
"   c None",
".  c #1F002C",
"X  c #20012D",
"o  c #21012D",
"O  c #21012E",
"+  c #22032F",
"@  c #23032F",
"#  c #250632",
"$  c #270833",
"%  c #30133B",
"&  c #482E50",
"*  c #4B3152",
"=  c #583F5D",
"-  c #59405D",
";  c #59415E",
":  c #FF0317",
">  c #FF0417",
",  c #FF0418",
"<  c #FF0518",
"1  c #FF071A",
"2  c #FF091C",
"3  c #FF0B1E",
"4  c #FF0D20",
"5  c #FF0F21",
"6  c #FF1627",
"7  c #FF1728",
"8  c #FF1828",
"9  c #FE303D",
"0  c #FE3340",
"q  c #FE3440",
"w  c #FD3642",
"e  c #FD3743",
"r  c #FD3C48",
"t  c #FD3E49",
"y  c #FD3F4A",
"u  c #FD404B",
"i  c #FD414B",
"p  c #FD414C",
"a  c #FD424D",
"s  c #FD434E",
"d  c #FD444E",
"f  c #FD454F",
"g  c #FD4550",
"h  c #FD4650",
"j  c #FD4751",
"k  c #FD4953",
"l  c #FB6C70",
"z  c #FB6D71",
"x  c #FB6E72",
"c  c #FB7074",
"v  c #FB7175",
"b  c #FB7276",
"n  c #FB7376",
"m  c #816E80",
"M  c #9B8B96",
"N  c #FA8D8D",
"B  c #FA8F8F",
"V  c #FA908F",
"C  c #FA9392",
"Z  c #C2B8B7",
"A  c #C4BAB9",
"S  c #C6BCBB",
"D  c #F8B7B1",
"F  c #F8B8B1",
"G  c #F8B9B2",
"H  c #F8B9B3",
"J  c #F8BAB3",
"K  c #F8BBB4",
"L  c #F8BDB5",
"P  c #F8BDB6",
"I  c #F8BEB6",
"U  c #F8C0B9",
"Y  c #F8C1B9",
"T  c #F8C2BA",
"R  c #F8C3BB",
"E  c #F8C7BE",
"W  c #F8C8BF",
"Q  c #D5CDC7",
"!  c #F7CDC4",
"~  c #F7CEC4",
"^  c #F7CEC5",
"/  c #F8C9C0",
"(  c #F8CAC1",
")  c #F8CBC2",
"_  c #F7D0C6",
"`  c #EFEBDE",
"'  c #F7E5D8",
"]  c #F6E6D9",
"[  c #F7E6D9",
"{  c #F6E7DA",
"}  c #F6E8DB",
"|  c #F6EBDD",
" . c #F6ECDE",
".. c #F6EDDF",
"X. c #F6F3E4",
"o. c #F6F4E5",
"O. c #F6F5E5",
"+. c #F6F5E6",
"@. c #F6F6E6",
"#. c #F6F6E7",
"$. c #F6F7E7",
"%. c #F9F6E7",
"&. c #FAF7E7",
"*. c #F6F7E8",
"=. c #F6F8E8",
"-. c #F6F8E9",
";. c #F6F9E9",
":. c #F6F9EA",
">. c #F6FAEA",
",. c #F6FBEB",
"<. c #F6FCEC",
"1. c #F6FFEE",
"2. c #F9F8E8",
"3. c #FAF8E8",
"4. c #FBF8E8",
"5. c #FBF9E8",
"6. c #FAF9E9",
"7. c #FBF9E9",
"8. c #F9FAEA",
"9. c #F9FBEA",
"0. c #FBFBEA",
"q. c #FAFBEB",
"w. c #FDFBEA",
"e. c #F9FCEB",
"r. c #FBFCEB",
"t. c #FFFDEB",
"y. c #FDFEEC",
"u. c #FFFEEC",
/* pixels */
"    $ # @ @ @ @ @ @ @ @ @ @ @ @ @ @ @ @ @ @ @ @ @ @ @ @ @ @ @ @ @ @ @ @ @ @ @ @ @ @ @ @ @ @ @ @ @ @ @ @ @ @ @ @ @ @ @ @ @ @ @ @ @ @ @ @ @ @ # $     ",
"    @ % * ; ; ; = = = = = = = = = = = = = = = = = = = = = = = = = = = = = = = = = = = = = = = = = = = = = = = = = = = = = = = = = = = ; ; * % @     ",
"$ @ . & M S A Z Z Z Z Z Z Z Z Z Z Z Z Z Z Z Z Z Z Z Z Z Z Z Z Z Z Z Z Z Z Z Z Z Z Z Z Z Z Z Z Z Z Z Z Z Z Z Z Z Z Z Z Z Z Z Z Z Z Z Z A S M & . @ $ ",
"# % & m Q y.y.r.r.r.6.6.6.6.r.6.6.6.6.6.6.6.6.6.6.6.6.6.6.6.6.6.6.6.6.6.6.6.6.6.6.6.6.6.6.6.6.6.6.6.6.6.6.6.6.6.6.6.6.6.6.6.6.6.6.6.6.w.t.Q m & % # ",
"@ * M Q ` 6.6.r.r.r.r.r.6.r.r.6.6.&.&.&.&.&.&.&.&.&.&.&.&.&.&.&.&.&.&.&.&.&.&.&.&.&.&.&.&.&.&.&.&.&.&.&.&.&.&.&.&.&.&.&.&.&.&.&.&.&.&.&.6.` Q M * @ ",
"@ ; S y.6.] / K K K G G G D D E ] o.o.X.X.X.X.X.X.X.X.X.X.X.X.X.X.X.X.X.X.X.X.X.X.X.X.X.X.X.X.X.X.X.X.X.X.X.X.X.X.X.X.X.X.X.X.X.X.X.X.X.X.6.t.S ; @ ",
"@ ; A y.6./ c a f f a a a r r l W *.o.X.X.X.X.X.X.X.X.X.X.X.X.X.X.X.X.X.X.X.X.X.X.X.X.X.X.X.X.X.X.X.X.X.X.X.X.X.X.X.X.X.X.X.X.X.X.X.X.X.X.&.w.A ; @ ",
"@ = Z r.r.K a : < 8 w h f a u l / o.o.X.X.X.X.X.X.X.X.X.X.X.X.X.X.X.X.X.X.X.X.X.X.X.X.X.X.X.X.X.X.X.X.X.X.X.X.X.X.X.X.X.X.X.X.X.X.X.X.X.X.&.6.Z = @ ",
"@ ; Z r.r.K f > < w C R R P P / ] o.o.X.X.X.X.X.X.X.X.X.X.X.X.X.X.X.X.X.X.X.X.X.X.X.X.X.X.X.X.X.X.X.X.X.X.X.X.X.X.X.X.X.X.X.X.X.X.X.X.X.X.&.6.Z = @ ",
"@ ; Z r.r.K a > < w C R R R R ! ] o.o.X.X.X.X.o.o.o.o.X.X.X.X.X.X.X.X.X.X.X.X.X.X.X.X.X.X.X.X.o.o.o.o.X.X.X.X.X.X.X.X.X.X.X.X.X.X.X.X.X.X.&.6.Z = @ ",
"@ ; Z r.r.K a : < 8 w h k h h c / o.o.X.X.X.X.o.*.*.o.X.X.X.X.X.X.X.X.X.X.X.X.X.X.X.X.X.X.X.X.o.*.*.o.X.X.X.X.X.X.X.X.X.X.X.X.X.X.X.X.X.X.&.6.Z = @ ",
"@ ; Z 6.6./ c h h k h w 7 < : a K >.o.X.X.o.*.} / / } o.o.X.X.X.X.X.X.X.X.X.X.X.X.X.X.X.X.o.*.} / / } o.o.X.X.X.X.X.X.X.X.X.X.X.X.X.X.X.X.&.6.Z = @ ",
"@ = Z 6.6.] ! R R R R C w < > f K >.o.X.X.*.>./ l l / >.*.X.X.X.X.X.X.X.X.X.X.X.X.X.X.X.X.o.>./ l l / >.o.X.X.X.X.X.X.X.X.X.X.X.X.X.X.X.X.&.6.Z = @ ",
"@ = Z 6.6.] / P P R R C w < > a K >.o.o.*.| ! B 9 9 B ! | o.o.X.X.X.X.X.X.X.X.X.X.X.X.o.o.| ! B 9 9 B ! | o.o.X.X.X.X.X.X.X.X.X.X.X.X.X.X.&.6.Z = @ ",
"@ = Z 6.6./ l u a f f w 8 < : a K >.o.o.,.! c 0 6 6 0 c ! >.o.X.X.X.X.X.X.X.X.X.X.X.X.o.>.! c 0 6 6 0 c ! >.o.X.X.X.X.X.X.X.X.X.X.X.X.X.X.&.6.Z = @ ",
"@ = Z 6.6.W l r r a a f h f a c / >.>.| ! V w < 2 2 < w V ! | o.o.X.X.X.X.X.X.X.X.o.o.| ! V w < 2 2 < w V ! | o.o.X.X.X.X.X.X.X.X.X.X.X.X.&.6.Z = @ ",
"@ = Z 6.&.] E D G G P P P K K / ] >.1.! c w 7 2 5 5 2 7 w c ! >.o.X.X.X.X.X.X.X.X.o.>.! c w 7 2 5 5 2 7 w c ! ,.*.X.X.X.X.X.X.X.X.X.X.X.X.&.6.Z = @ ",
"@ = Z 6.&.o.o.>.1...! ! ..1.>.>.o.} ! B w < 2 5 5 5 5 2 < w V ! } o.o.X.X.X.X.o.o.} ! V w < 2 5 5 5 5 2 < w V ! } o.o.X.X.X.X.X.X.X.X.X.X.&.6.Z = @ ",
"@ = Z 6.&.o.o.>.1.! c c ! 1.>.>.>./ c w 7 2 5 5 5 5 5 5 2 7 w c / *.o.X.X.X.X.o.*./ c w 7 2 5 5 5 5 5 5 2 7 w c / *.o.X.X.X.X.X.X.X.X.X.X.&.6.Z = @ ",
"@ = Z 6.&.o.o.| ! B 9 9 B ! | >.>.G r : 2 5 5 5 5 5 5 5 5 2 : r G >.o.X.X.X.X.o.>.G r : 2 5 5 5 5 5 5 5 5 2 : r G >.o.X.X.X.X.X.X.X.X.X.X.&.6.Z = @ ",
"@ ; Z 6.&.o.>.! c 0 6 6 0 c ! 1.1.G r : 2 5 5 5 5 5 5 5 5 2 : u G >.o.X.X.X.X.o.>.G r : 2 5 5 5 5 5 5 5 5 2 : r G >.o.X.X.X.X.X.X.X.X.X.X.&.6.Z = @ ",
"@ ; Z 6.6.} ! V w < 2 2 < w V _ ..) c w 7 2 5 5 5 5 5 5 2 7 w c / *.o.X.X.X.X.o.*./ c w 7 2 5 5 5 5 5 5 2 7 w c / o.o.X.X.X.X.X.X.X.X.X.X.&.6.Z = @ ",
"@ ; Z 6.6./ c w 7 2 5 5 2 7 w c / .._ V w < 2 5 5 5 5 2 < w V ! } o.o.X.X.X.X.o.o.} ! V w < 2 5 5 5 5 2 < w V ! } o.o.X.X.X.X.X.X.X.X.X.X.&.6.Z = @ ",
"@ ; Z r.r.G r : 2 5 5 5 5 2 : r G 1.1.! c w 7 2 5 5 2 7 w c ! >.*.X.X.X.X.X.X.X.X.o.>.! c w 7 2 5 5 2 7 w c ! >.o.X.X.X.X.X.X.X.X.X.X.X.X.&.6.Z = @ ",
"@ = Z r.e.G u : 2 5 5 5 5 2 : u G >.>.| ! V w < 2 3 < w V ! | *.o.X.X.X.X.X.X.X.X.o.o.| ! V w < 3 3 < w V ! | o.o.X.X.X.X.X.X.X.X.X.X.X.X.&.6.Z = @ ",
"@ = Z 6.6./ c w 7 2 5 5 2 7 w c / o.o.*.>.! c 0 6 6 0 c ! >.o.X.X.X.X.X.X.X.X.X.X.X.X.o.>.! c 0 6 6 0 c ! >.o.X.X.X.X.X.X.X.X.X.X.X.X.X.X.&.6.Z = @ ",
"@ = Z 6.6.} ! B w < 2 2 < w V ! } o.o.o.o.| ! B 9 9 B ! | o.o.X.X.X.X.X.X.X.X.X.X.X.X.o.o.| ! B 9 9 B ! | o.o.X.X.X.X.X.X.X.X.X.X.X.X.X.X.&.6.Z = @ ",
"@ = Z 6.&.o.>.! c 0 6 6 0 c ! >.*.X.X.X.X.o.>./ l l / >.o.X.X.X.X.X.X.X.X.X.X.X.X.X.X.X.X.o.,./ l l / >.o.X.X.X.X.X.X.X.X.X.X.X.X.X.X.X.X.&.6.Z = @ ",
"@ = Z 6.&.o.o.| ! B 9 9 B ! | o.o.X.X.X.X.o.o.} / / } *.o.X.X.X.X.X.X.X.X.X.X.X.X.X.X.X.X.o.o.} / / } o.o.X.X.X.X.X.X.X.X.X.X.X.X.X.X.X.X.&.6.Z = @ ",
"@ = Z 6.&.X.X.o.>./ l l / ,.o.X.X.X.X.X.X.X.X.o.*.*.o.X.X.X.X.X.X.X.X.X.X.X.X.X.X.X.X.X.X.X.X.o.*.*.o.X.X.X.X.X.X.X.X.X.X.X.X.X.X.X.X.X.X.&.6.Z = @ ",
"@ = Z 6.&.X.X.o.o.} / / } o.o.X.X.X.X.X.X.X.X.o.o.o.o.X.X.X.X.X.X.X.X.X.X.X.X.X.X.X.X.X.X.X.X.o.o.o.o.X.X.X.X.X.X.X.X.X.X.X.X.X.X.X.X.X.X.&.6.Z = @ ",
"@ = Z 6.&.X.X.X.X.o.*.*.o.X.X.X.X.X.X.X.X.X.X.X.X.X.X.X.X.X.X.X.X.X.X.X.X.X.X.X.X.X.X.X.X.X.X.X.X.X.X.X.X.X.X.X.X.X.X.X.X.X.X.X.X.X.X.X.X.&.6.Z = @ ",
"@ = Z 6.&.X.X.X.X.o.o.o.o.X.X.X.X.X.X.X.X.X.X.X.X.X.X.X.X.X.X.X.X.X.X.X.X.X.X.X.X.X.X.X.X.X.X.X.X.X.X.X.X.X.X.X.X.X.X.X.X.X.X.X.X.X.X.X.X.&.6.Z = @ ",
"@ = Z 6.&.X.X.X.X.X.X.X.X.X.X.X.X.X.X.X.X.X.X.X.X.X.X.X.X.X.X.X.X.X.X.X.X.X.X.X.X.X.X.X.X.X.X.X.X.X.X.X.X.X.X.X.X.X.X.X.X.X.X.X.X.X.X.X.X.&.6.Z = @ ",
"@ = Z 6.&.X.X.X.X.X.X.X.X.X.X.X.X.X.X.X.X.X.X.X.X.X.X.X.X.X.X.X.X.X.X.X.X.X.X.X.X.X.X.X.X.X.X.X.X.X.X.X.X.X.X.X.X.X.X.X.X.X.X.X.X.X.X.X.X.&.6.Z = @ ",
"@ = Z 6.&.X.X.X.X.X.X.X.X.X.X.X.X.X.X.X.X.X.X.X.X.X.X.X.X.X.X.X.X.X.X.X.X.X.X.X.X.X.X.X.X.X.X.X.X.X.X.X.X.X.X.X.X.X.X.X.X.X.X.X.X.X.X.X.X.&.6.Z = @ ",
"@ = Z 6.&.X.X.X.X.X.X.X.X.X.X.X.X.X.X.X.X.X.X.X.X.X.X.X.X.X.X.X.X.X.X.X.X.X.X.X.X.X.X.X.X.X.X.X.X.X.X.X.X.X.X.X.X.X.X.X.X.X.X.X.X.X.X.X.X.&.6.Z = @ ",
"@ = Z 6.&.X.X.X.X.X.X.X.X.X.X.X.X.X.X.X.X.X.X.X.X.X.X.X.X.X.X.X.X.X.X.X.X.X.X.X.X.X.X.X.X.X.X.X.X.X.X.X.X.X.X.X.X.X.X.X.X.X.X.X.X.X.X.X.X.&.6.Z = @ ",
"@ = Z 6.&.X.X.X.X.X.X.X.X.X.X.X.X.X.X.X.X.X.X.X.X.X.X.X.X.X.X.X.X.X.X.X.X.X.X.X.X.X.X.X.X.X.X.X.X.X.X.X.X.X.X.X.X.X.X.X.X.X.X.X.X.X.X.X.X.&.6.Z = @ ",
"@ = Z 6.&.X.X.X.X.X.X.X.X.X.X.X.X.X.X.X.X.X.X.X.X.X.X.X.X.X.X.X.X.X.X.X.X.X.X.X.X.X.X.X.X.X.X.X.X.X.X.X.X.X.X.X.X.X.X.X.X.X.X.X.X.X.X.X.X.&.6.Z = @ ",
"@ = Z 6.&.X.X.X.X.X.X.X.X.X.X.X.X.X.X.X.X.X.X.X.X.X.X.X.X.X.X.X.X.X.X.X.X.X.X.X.X.X.X.X.X.X.X.X.X.X.X.X.X.X.X.X.X.X.X.X.X.X.X.X.X.X.X.X.X.&.6.Z = @ ",
"@ = Z 6.&.X.X.X.X.X.X.X.X.X.X.X.X.X.X.X.X.X.X.X.X.X.X.X.X.X.X.X.X.X.X.o.o.o.o.X.X.X.X.X.X.X.X.X.X.X.X.X.X.X.X.X.X.X.X.X.X.X.X.X.X.X.X.X.X.&.6.Z = @ ",
"@ = Z 6.&.X.X.X.X.X.X.X.X.X.X.X.X.X.X.X.X.X.X.X.X.X.X.X.X.X.X.X.X.X.X.o.*.*.o.X.X.X.X.X.X.X.X.X.X.X.X.X.X.X.X.X.X.X.X.X.X.X.X.X.X.X.X.X.X.&.6.Z = @ ",
"@ = Z 6.&.X.X.X.X.X.X.X.X.X.X.X.X.X.X.X.X.X.X.X.X.X.X.X.X.X.X.X.X.o.o.] / / } *.o.X.X.X.X.X.X.X.X.X.X.X.X.X.X.X.X.X.X.X.X.X.X.X.X.X.X.X.X.&.6.Z = @ ",
"@ = Z 6.&.X.X.X.X.X.X.X.X.X.X.X.X.X.X.X.X.X.X.X.X.X.X.X.X.X.X.X.X.o.>./ l l / ,.o.X.X.X.X.X.X.X.X.X.X.X.X.X.X.X.X.X.X.X.X.X.X.X.X.X.X.X.X.&.6.Z = @ ",
"@ = Z 6.&.X.X.X.X.X.X.X.X.X.X.X.X.X.X.X.X.X.X.X.X.X.X.X.X.X.X.o.o.| ! B 9 9 B ! | o.o.X.X.X.X.X.X.X.X.X.X.X.X.X.X.X.X.X.X.X.X.X.X.X.X.X.X.&.6.Z = @ ",
"@ = Z 6.&.X.X.X.X.X.X.X.X.X.X.X.X.X.X.X.X.X.X.X.X.X.X.X.X.X.X.*.>.! c 0 6 6 0 c ! >.o.X.X.X.X.X.X.X.X.X.X.X.X.X.X.X.X.X.X.X.X.X.X.X.X.X.X.&.6.Z = @ ",
"@ = Z 6.&.X.X.X.X.X.X.X.X.X.X.X.X.X.X.X.X.X.X.X.X.X.X.X.X.o.*.| ! V w < 2 2 < w V ! | o.o.X.X.X.X.X.X.X.X.X.X.X.X.X.X.X.X.X.X.X.X.X.X.X.X.&.6.Z = @ ",
"@ = Z 6.&.X.X.X.X.X.X.X.X.X.X.X.X.X.X.X.X.X.X.X.X.X.X.X.X.o.>.! c 0 7 2 5 5 2 7 w c ! >.*.X.X.X.X.X.X.X.X.X.X.X.X.X.X.X.X.X.X.X.X.X.X.X.X.&.6.Z = @ ",
"@ = Z 6.&.X.X.X.X.X.X.X.X.X.X.X.X.X.X.X.X.X.X.X.X.X.X.o.o.} ! V w < 2 5 5 5 5 2 < w V ! } o.o.X.X.X.X.X.X.X.X.X.X.X.X.X.X.X.X.X.X.X.X.X.X.&.6.Z = @ ",
"@ = Z 6.&.X.X.X.X.X.X.X.X.X.X.X.X.X.X.X.X.X.X.X.X.X.X.o.*./ c w 7 2 5 5 5 5 5 5 2 7 w c / *.o.X.X.X.X.X.X.X.X.X.X.X.X.X.X.X.X.X.X.X.X.X.X.&.6.Z = @ ",
"@ = Z 6.&.X.X.X.X.X.X.X.X.X.X.X.X.X.X.X.X.X.X.X.X.X.X.o.>.G r : 2 5 5 5 5 5 5 5 5 2 : r G >.o.X.X.X.X.X.X.X.X.X.X.X.X.X.X.X.X.X.X.X.X.X.X.&.6.Z = @ ",
"@ = Z 6.&.X.X.X.X.X.X.X.X.X.X.X.X.X.X.X.X.X.X.X.X.X.X.o.>.G r : 2 5 5 5 5 5 5 5 5 2 : r G >.o.X.X.X.X.X.X.X.X.X.X.X.X.X.X.X.X.X.X.X.X.X.X.&.6.Z = @ ",
"@ = Z 6.&.X.X.X.X.X.X.X.X.X.X.X.X.X.X.X.X.X.X.X.X.X.X.o.*./ c w 7 2 5 5 5 5 5 5 2 7 w c / *.o.X.X.X.X.X.X.X.X.X.X.X.X.X.X.X.X.X.X.X.X.X.X.&.6.Z = @ ",
"@ = Z 6.&.X.X.X.X.X.X.X.X.X.X.X.X.X.X.X.X.X.X.X.X.X.X.o.o.} ! V w < 2 5 5 5 5 2 < w V ! } o.o.X.X.X.X.X.X.X.X.X.X.X.X.X.X.X.X.X.X.X.X.X.X.&.6.Z = @ ",
"@ = Z 6.&.X.X.X.X.X.X.X.X.X.X.X.X.X.X.X.X.X.X.X.X.X.X.X.X.o.>.! c w 7 2 5 5 2 7 w c ! >.o.X.X.X.X.X.X.X.X.X.X.X.X.X.X.X.X.X.X.X.X.X.X.X.X.&.6.Z = @ ",
"@ = Z 6.&.X.X.X.X.X.X.X.X.X.X.X.X.X.X.X.X.X.X.X.X.X.X.X.X.o.o.| ! V w < 3 3 < w V ! | o.o.X.X.X.X.X.X.X.X.X.X.X.X.X.X.X.X.X.X.X.X.X.X.X.X.&.6.Z = @ ",
"@ = Z 6.&.X.X.X.X.X.X.X.X.X.X.X.X.X.X.X.X.X.X.X.X.X.X.X.X.X.X.o.>.! c 0 6 6 0 c ! >.o.X.X.X.X.X.X.X.X.X.X.X.X.X.X.X.X.X.X.X.X.X.X.X.X.X.X.&.6.Z = @ ",
"@ = Z 6.&.X.X.X.X.X.X.X.X.X.X.X.X.X.X.X.X.X.X.X.X.X.X.X.X.X.X.o.o.| ! B 9 9 B ! | o.o.X.X.X.X.X.X.X.X.X.X.X.X.X.X.X.X.X.X.X.X.X.X.X.X.X.X.&.6.Z = @ ",
"@ = Z 6.&.X.X.X.X.X.X.X.X.X.X.X.X.X.X.X.X.X.X.X.X.X.X.X.X.X.X.X.X.o.>./ l l / >.o.X.X.X.X.X.X.X.X.X.X.X.X.X.X.X.X.X.X.X.X.X.X.X.X.X.X.X.X.&.6.Z = @ ",
"@ = Z 6.&.X.X.X.X.X.X.X.X.X.X.X.X.X.X.X.X.X.X.X.X.X.X.X.X.X.X.X.X.o.o.} / / } o.o.X.X.X.X.X.X.X.X.X.X.X.X.X.X.X.X.X.X.X.X.X.X.X.X.X.X.X.X.&.6.Z = @ ",
"@ = Z 6.&.X.X.X.X.X.X.X.X.X.X.X.X.X.X.X.X.X.X.X.X.X.X.X.X.X.X.X.X.X.X.o.*.*.o.X.X.X.X.X.X.X.X.X.X.X.X.X.X.X.X.X.X.X.X.X.X.X.X.X.X.X.X.X.X.&.6.Z = @ ",
"@ = Z 6.&.X.X.X.X.X.X.X.X.X.X.X.X.X.X.X.X.X.X.X.X.X.X.X.X.X.X.X.X.X.X.o.o.o.o.X.X.X.X.X.X.X.X.X.X.X.X.X.X.X.X.X.X.X.X.X.X.X.X.X.X.X.X.X.X.&.6.Z = @ ",
"@ = Z 6.&.X.X.X.X.X.X.X.X.X.X.X.X.X.X.X.X.X.X.X.X.X.X.X.X.X.X.X.X.X.X.X.X.X.X.X.X.X.X.X.X.X.X.X.X.X.X.X.X.X.X.X.X.X.X.X.X.X.X.X.X.X.X.X.X.&.6.Z = @ ",
"@ = Z 6.&.X.X.X.X.X.X.X.X.X.X.X.X.X.X.X.X.X.X.X.X.X.X.X.X.X.X.X.X.X.X.X.X.X.X.X.X.X.X.X.X.X.X.X.X.X.X.X.X.X.X.X.X.X.X.X.X.X.X.X.X.X.X.X.X.&.6.Z = @ ",
"@ = Z 6.&.X.X.X.X.X.X.X.X.X.X.X.X.X.X.X.X.X.X.X.X.X.X.X.X.X.X.X.X.X.X.X.X.X.X.X.X.X.X.X.X.X.X.X.X.X.X.X.X.X.X.X.X.X.X.X.X.X.X.X.X.X.X.X.X.&.6.Z = @ ",
"@ = Z 6.&.X.X.X.X.X.X.X.X.X.X.X.X.X.X.X.X.X.X.X.X.X.X.X.X.X.X.X.X.X.X.X.X.X.X.X.X.X.X.X.X.X.X.X.X.X.X.X.X.X.X.X.X.X.X.X.X.X.X.X.X.X.X.X.X.&.6.Z = @ ",
"@ = Z 6.&.X.X.X.X.X.X.X.X.X.X.X.X.X.X.X.X.X.X.X.X.X.X.X.X.X.X.X.X.X.X.X.X.X.X.X.X.X.X.X.X.X.X.X.X.X.X.X.X.X.X.X.X.X.X.X.X.X.X.X.X.X.X.X.X.&.6.Z = @ ",
"@ = Z 6.&.X.X.X.X.X.X.X.X.X.X.X.X.X.X.X.X.X.X.X.X.X.X.X.X.X.X.X.X.X.X.X.X.X.X.X.X.X.X.X.X.X.X.X.X.X.X.X.X.X.X.X.X.X.X.X.X.X.X.X.X.X.X.X.X.&.6.Z = @ ",
"@ = Z 6.&.X.X.X.X.X.X.X.X.X.X.X.X.X.X.X.X.X.X.X.X.X.X.X.X.X.X.X.X.X.X.X.X.X.X.X.X.X.X.X.X.X.X.X.X.X.X.X.X.X.X.X.X.X.X.X.X.X.X.X.X.X.X.X.X.&.6.Z = @ ",
"@ = Z 6.&.X.X.X.X.X.X.X.X.X.X.X.X.X.X.X.X.X.X.X.X.X.X.X.X.X.X.X.X.X.X.X.X.X.X.X.X.X.X.X.X.X.X.X.X.X.X.X.X.X.X.X.X.X.X.X.X.X.X.X.X.X.X.X.X.&.6.Z = @ ",
"@ = Z 6.&.X.X.X.X.X.X.X.X.X.X.X.X.X.X.X.X.X.X.X.X.X.X.X.X.X.X.X.X.X.X.X.X.X.X.X.X.X.X.X.X.X.X.X.X.X.X.X.X.X.X.X.X.X.X.X.X.o.o.o.o.X.X.X.X.&.6.Z = @ ",
"@ = Z 6.&.X.X.X.X.X.X.X.X.X.X.X.X.X.X.X.X.X.X.X.X.X.X.X.X.X.X.X.X.X.X.X.X.X.X.X.X.X.X.X.X.X.X.X.X.X.X.X.X.X.X.X.X.X.X.X.X.o.>.*.o.X.X.X.X.&.6.Z = @ ",
"@ = Z 6.&.X.X.X.X.X.X.X.X.X.X.X.X.X.X.X.X.X.X.o.o.o.o.X.X.X.X.X.X.X.X.X.X.X.X.X.X.X.X.X.X.X.X.o.o.o.o.X.X.X.X.X.X.X.X.o.o.} / / ] o.o.X.X.&.6.Z = @ ",
"@ = Z 6.&.X.X.X.X.X.X.X.X.X.X.X.X.X.X.X.X.X.X.o.*.*.o.X.X.X.X.X.X.X.X.X.X.X.X.X.X.X.X.X.X.X.X.o.*.*.o.X.X.X.X.X.X.X.X.o.>./ l l / >.o.X.X.&.6.Z = @ ",
"@ = Z 6.&.X.X.X.X.X.X.X.X.X.X.X.X.X.X.X.X.o.*.} / / } o.o.X.X.X.X.X.X.X.X.X.X.X.X.X.X.X.X.o.*.} / / } o.o.X.X.X.X.o.o.| ! B 9 9 B ! | o.o.&.6.Z = @ ",
"@ = Z 6.&.X.X.X.X.X.X.X.X.X.X.X.X.X.X.X.X.*.,./ l l / ,.o.X.X.X.X.X.X.X.X.X.X.X.X.X.X.X.X.o.,./ l l / >.*.X.X.X.X.o.>.! c 0 6 6 0 c ! >.*.&.6.Z = @ ",
"@ = Z 6.&.X.X.X.X.X.X.X.X.X.X.X.X.X.X.o.*.| ! B 9 9 B ! | o.o.X.X.X.X.X.X.X.X.X.X.X.X.o.o.| ! B 9 9 B ! | *.o.o.o.} ! V w < 2 2 < w V ! } 6.6.Z = @ ",
"@ = Z 6.&.X.X.X.X.X.X.X.X.X.X.X.X.X.X.o.,.! c 0 6 6 0 c ! >.o.X.X.X.X.X.X.X.X.X.X.X.X.o.>.! c 0 6 6 0 c ! >.*.o.*./ c w 7 2 5 5 2 7 w c / 6.6.Z = @ ",
"@ = Z 6.&.X.X.X.X.X.X.X.X.X.X.X.X.o.o.| ! V w < 2 2 < w V ! | o.o.X.X.X.X.X.X.X.X.o.o.| ! V w < 2 2 < w V ! | >.>.G u : 2 5 5 5 5 2 : u G r.r.Z = @ ",
"@ = Z 6.&.X.X.X.X.X.X.X.X.X.X.X.X.o.>.! c w 7 2 5 5 2 7 w c ! >.*.X.X.X.X.X.X.X.X.o.>.! c w 7 2 5 5 2 7 w c ! 1.1.G r : 2 5 5 5 5 2 : r G r.r.Z = @ ",
"@ = Z 6.&.X.X.X.X.X.X.X.X.X.X.o.o.} ! V w < 2 5 5 5 5 2 < w V ! } o.o.X.X.X.X.o.o.} ! V w < 2 5 5 5 5 2 < w V _ ..) c w 7 2 5 5 2 7 w c / 6.6.Z = @ ",
"@ = Z 6.&.X.X.X.X.X.X.X.X.X.X.o.*./ c w 7 2 5 5 5 5 5 3 2 7 w c / *.o.X.X.X.X.o.*./ c w 7 2 5 5 5 5 5 5 2 7 w c ) .._ V w < 2 2 < w V ! } 6.6.Z = @ ",
"@ = Z 6.&.X.X.X.X.X.X.X.X.X.X.o.>.G u : 2 5 5 5 5 5 5 5 5 2 : r G >.o.X.X.X.X.o.>.G r : 2 5 5 5 5 5 5 5 6 2 : r G 1.1.! c 0 6 6 0 c ! >.o.&.6.Z = @ ",
"@ = Z 6.&.X.X.X.X.X.X.X.X.X.X.o.>.G r : 2 6 5 5 5 5 5 5 5 2 : r G >.o.X.X.X.X.o.>.G r : 2 6 5 5 5 5 5 5 5 2 : r G >.>.| ! B 9 9 B ! | *.o.&.6.Z = @ ",
"@ = Z 6.&.X.X.X.X.X.X.X.X.X.X.o.*./ c w 7 2 5 5 5 5 5 5 2 7 w c / o.o.X.X.X.X.o.*./ c w 7 2 5 5 5 5 5 5 2 7 w c / >.>.>.1.! c c ! 1.>.o.X.&.6.Z = @ ",
"@ = Z 6.&.X.X.X.X.X.X.X.X.X.X.o.o.} ! V w < 2 5 5 5 5 2 < w V ! } o.o.X.X.X.X.o.o.} ! V w < 2 5 5 5 5 2 < 0 B ! } o.>.>.1...! ! ..1.>.*.o.&.6.Z = @ ",
"@ = Z 6.&.X.X.X.X.X.X.X.X.X.X.X.X.o.>.! c w 7 2 5 5 2 7 w c ! ,.o.X.X.X.X.X.X.X.X.o.>.! c w 7 2 5 5 2 7 w c ! 1.>.] / K K P P P G G D E ' &.6.Z = @ ",
"@ = Z 6.&.X.X.X.X.X.X.X.X.X.X.X.X.o.*.| ! V w < 2 2 < w V ! | *.o.X.X.X.X.X.X.X.X.o.*.| ! V w < 2 2 < w V ! | >.>./ c a a h f a a r r l W 6.6.Z = @ ",
"@ = Z 6.&.X.X.X.X.X.X.X.X.X.X.X.X.X.X.*.>.! c 0 6 6 0 c ! >.o.X.X.X.X.X.X.X.X.X.X.X.X.*.>.! c 0 6 6 0 c ! >.o.o.>.K a : < 7 w h f a u l / 6.6.Z = @ ",
"@ = Z 6.&.X.X.X.X.X.X.X.X.X.X.X.X.X.X.o.o.| ! B 9 9 B ! | o.o.X.X.X.X.X.X.X.X.X.X.X.X.o.o.| ! B 9 9 B ! | *.o.o.>.K f > > w C R R P P / ] 6.6.Z = @ ",
"@ = Z 6.&.X.X.X.X.X.X.X.X.X.X.X.X.X.X.X.X.o.>./ l l / >.o.X.X.X.X.X.X.X.X.X.X.X.X.X.X.X.X.o.>./ l l / >.o.X.X.o.>.K f > > w C R R R R ! ] 6.6.Z = @ ",
"@ = Z 6.&.X.X.X.X.X.X.X.X.X.X.X.X.X.X.X.X.o.*.} / / } o.o.X.X.X.X.X.X.X.X.X.X.X.X.X.X.X.X.o.*.} / / } *.o.X.X.o.>.K a : < 8 w h k h h c / 6.6.Z = @ ",
"@ = Z 6.&.X.X.X.X.X.X.X.X.X.X.X.X.X.X.X.X.X.X.o.*.*.o.X.X.X.X.X.X.X.X.X.X.X.X.X.X.X.X.X.X.X.X.o.*.*.o.X.X.X.o.o.o./ c f h k h w 8 < : a K e.r.Z = @ ",
"@ = Z 6.&.X.X.X.X.X.X.X.X.X.X.X.X.X.X.X.X.X.X.o.o.o.o.X.X.X.X.X.X.X.X.X.X.X.X.X.X.X.X.X.X.X.X.o.o.o.o.X.X.X.X.o.o.] ! R R R R C w < > f K r.r.Z = @ ",
"@ = Z 6.&.X.X.X.X.X.X.X.X.X.X.X.X.X.X.X.X.X.X.X.X.X.X.X.X.X.X.X.X.X.X.X.X.X.X.X.X.X.X.X.X.X.X.X.X.X.X.X.X.X.X.o.o.] / P P R R C w < > f K r.r.Z = @ ",
"@ = Z 6.&.X.X.X.X.X.X.X.X.X.X.X.X.X.X.X.X.X.X.X.X.X.X.X.X.X.X.X.X.X.X.X.X.X.X.X.X.X.X.X.X.X.X.X.X.X.X.X.X.X.X.o.o./ l u a f h w 8 < > a K r.r.Z = @ ",
"@ ; A w.&.X.X.X.X.X.X.X.X.X.X.X.X.X.X.X.X.X.X.X.X.X.X.X.X.X.X.X.X.X.X.X.X.X.X.X.X.X.X.X.X.X.X.X.X.X.X.X.X.X.X.o.o.W l r r u u a f f a c / 6.y.A ; @ ",
"@ ; A t.&.X.X.X.X.X.X.X.X.X.X.X.X.X.X.X.X.X.X.X.X.X.X.X.X.X.X.X.X.X.X.X.X.X.X.X.X.X.X.X.X.X.X.X.X.X.X.X.X.X.X.o.o.] E D D G G G K K K / ] 6.y.S ; @ ",
"@ * M Q ` &.&.&.&.&.&.&.&.&.&.&.&.&.&.&.&.&.&.&.&.&.&.&.&.&.&.&.&.&.&.&.&.&.&.&.&.&.&.&.&.&.&.&.&.&.&.&.&.&.&.&.&.6.6.r.6.6.6.r.r.r.r.6.6.` Q M * @ ",
"# % & m Q t.w.6.6.6.6.6.6.6.6.6.6.6.6.6.6.6.6.6.6.6.6.6.6.6.6.6.6.6.6.6.6.6.6.6.6.6.6.6.6.6.6.6.6.6.6.6.6.6.6.6.6.6.6.r.r.r.r.r.r.r.r.y.y.Q m & % # ",
"$ @ . & M S A Z Z Z Z Z Z Z Z Z Z Z Z Z Z Z Z Z Z Z Z Z Z Z Z Z Z Z Z Z Z Z Z Z Z Z Z Z Z Z Z Z Z Z Z Z Z Z Z Z Z Z Z Z Z Z Z Z Z Z Z A S M & . @ $ ",
"    @ % * ; ; = = = = = = = = = = = = = = = = = = = = = = = = = = = = = = = = = = = = = = = = = = = = = = = = = ; = = = = = = = = = ; ; ; * % @     ",
"    $ # @ @ @ @ @ @ @ @ @ @ @ @ @ @ @ @ @ @ @ @ @ @ @ @ @ @ @ @ @ @ @ @ @ @ @ @ @ @ @ @ @ @ @ @ @ @ @ @ @ @ @ @ @ @ @ @ @ @ @ @ @ @ @ @ @ @ # $     "
};
