/* XPM */
static char *diamonds_3[] = {
/* columns rows colors chars-per-pixel */
"74 104 125 2 ",
"   c None",
".  c #1F002C",
"X  c #20012D",
"o  c #21012D",
"O  c #21012E",
"+  c #22032F",
"@  c #23032F",
"#  c #250632",
"$  c #270833",
"%  c #30133B",
"&  c #482E50",
"*  c #4B3152",
"=  c #583F5D",
"-  c #59405D",
";  c #59415E",
":  c #FF0317",
">  c #FF0417",
",  c #FF0418",
"<  c #FF0518",
"1  c #FF071A",
"2  c #FF081B",
"3  c #FF091C",
"4  c #FF0A1D",
"5  c #FF0B1E",
"6  c #FF0D20",
"7  c #FF0F21",
"8  c #FF1627",
"9  c #FF1728",
"0  c #FF1828",
"q  c #FE1C2C",
"w  c #FE303D",
"e  c #FE3340",
"r  c #FE3440",
"t  c #FD3642",
"y  c #FD3743",
"u  c #FD3945",
"i  c #FD3C48",
"p  c #FD3E49",
"a  c #FD3F4A",
"s  c #FD404B",
"d  c #FD414B",
"f  c #FD414C",
"g  c #FD424D",
"h  c #FD434E",
"j  c #FD444E",
"k  c #FD454F",
"l  c #FD4550",
"z  c #FD4650",
"x  c #FB6C70",
"c  c #FB6D71",
"v  c #FB6E72",
"b  c #FB7074",
"n  c #FB7175",
"m  c #FB7376",
"M  c #816E80",
"N  c #9B8B96",
"B  c #FA8D8D",
"V  c #FA8F8F",
"C  c #FA908F",
"Z  c #FA9392",
"A  c #FA9493",
"S  c #C2B8B7",
"D  c #C4BAB9",
"F  c #C6BCBB",
"G  c #F8B7B1",
"H  c #F8B8B1",
"J  c #F8B9B2",
"K  c #F8B9B3",
"L  c #F8BAB3",
"P  c #F8BBB4",
"I  c #F8BCB5",
"U  c #F8BDB5",
"Y  c #F8BDB6",
"T  c #F8BEB6",
"R  c #F8C1B9",
"E  c #F8C2BA",
"W  c #F8C7BE",
"Q  c #F8C8BF",
"!  c #D5CDC7",
"~  c #F7CDC4",
"^  c #F7CEC4",
"/  c #F7CEC5",
"(  c #F8C9C0",
")  c #F8CAC1",
"_  c #F8CBC2",
"`  c #EFEBDE",
"'  c #F6E5D8",
"]  c #F7E5D8",
"[  c #F7E6D9",
"{  c #F6E7DA",
"}  c #F6E8DB",
"|  c #F6EBDD",
" . c #F6EDDF",
".. c #F6F3E4",
"X. c #F6F4E5",
"o. c #F6F5E5",
"O. c #F6F5E6",
"+. c #F6F6E6",
"@. c #F6F6E7",
"#. c #F6F7E7",
"$. c #F9F6E7",
"%. c #FAF7E7",
"&. c #F6F7E8",
"*. c #F6F8E9",
"=. c #F6F9E9",
"-. c #F6FAEA",
";. c #F6FBEB",
":. c #F6FCEC",
">. c #F6FFEE",
",. c #F9F8E8",
"<. c #FAF8E8",
"1. c #FBF8E8",
"2. c #FBF9E8",
"3. c #FAF9E9",
"4. c #FBF9E9",
"5. c #F9FBEA",
"6. c #FBFBEA",
"7. c #FAFBEB",
"8. c #FDFBEA",
"9. c #F9FCEB",
"0. c #FAFCEB",
"q. c #FBFCEB",
"w. c #FFFDEB",
"e. c #FDFEEC",
"r. c #FFFEEC",
/* pixels */
"    $ # @ @ @ @ @ @ @ @ @ @ @ @ @ @ @ @ @ @ @ @ @ @ @ @ @ @ @ @ @ @ @ @ @ @ @ @ @ @ @ @ @ @ @ @ @ @ @ @ @ @ @ @ @ @ @ @ @ @ @ @ @ @ @ @ @ @ # $     ",
"    @ % * ; ; = = = = = = = = = = = = = = = = = = = = = = = = = = = = = = = = = = = = = = = = = = = = = = = = = = = = = = = = = = = = ; ; * % @     ",
"$ @ . & N F D S S S S S S S S S S S S S S S S S S S S S S S S S S S S S S S S S S S S S S S S S S S S S S S S S S S S S S S S S S S S D D N & . @ $ ",
"# % & M ! e.e.9.9.9.6.6.6.6.9.6.6.6.6.6.6.6.6.6.6.6.6.6.6.6.6.6.6.6.6.6.6.6.6.6.6.6.6.6.6.6.6.6.6.6.6.6.6.6.6.6.6.6.6.6.6.6.6.6.6.6.6.8.w.! M & % # ",
"@ * N ! ` 6.6.9.9.9.9.9.6.6.9.6.6.$.$.$.$.$.$.$.$.$.$.$.$.$.$.$.$.$.$.$.$.$.$.$.$.$.$.$.$.$.$.$.$.$.$.$.$.$.$.$.$.$.$.$.$.$.$.$.$.$.$.$.%.` ! N * @ ",
"@ ; F e.6.' W G K K K K P P P ( ' X.X.....................................................................................................$.w.F ; @ ",
"@ ; D e.6.Q x i i s s g j j g b ( X.X.....................................................................................................$.8.D ; @ ",
"@ = S 6.6.( x s g j l t 0 < : g P -.X.....................................................................................................$.6.S = @ ",
"@ = S 6.6.' _ Y Y R R Z t < > j P -.X.....................................................................................................$.6.S = @ ",
"@ = S 6.6.' _ Y Y R R A u 2 < l Y -.X.................................X.X.X.X.............................................................$.6.S = @ ",
"@ = S 6.6.( x s g j j t q 3 3 l Y -.X.................................X.&.&.X.............................................................$.6.S = @ ",
"@ = S 6.6.( x s g j j t q 3 3 l Y -.X.............................X.X.' ( ( } &.X.........................................................$.6.S = @ ",
"@ = S 6.6.' ( Y Y R R A u 2 < l Y -.X.............................X.-.( x x ( ;.X.........................................................$.6.S = @ ",
"@ = S 6.6.' ( Y Y R R Z t < < j P -.X.........................X.X.| / V w w V / | X.X.....................................................$.6.S = @ ",
"@ = S 6.6.( x s g j l t 0 < > g P -.X.........................&.-./ b e 8 8 e b / -.X.....................................................$.6.S = @ ",
"@ = S 6.6.Q x i i g g j l j g b ( X.X.....................X.X.| / C t < 3 3 < t C / | X.X.................................................$.6.S = @ ",
"@ = S 6.$.' W G K K Y Y Y P P ( ' X.X.....................X.-./ b e 9 3 7 7 3 9 t b / -.&.................................................$.6.S = @ ",
"@ = S 6.$.X.X.-.>. ./ /  .>.-.X.X.....................X.X.} / C t < 3 7 7 7 7 3 < t C / } X.X.............................................$.6.S = @ ",
"@ = S 6.$.X.X.-.>./ b b / >.-.X.X.....................X.&.( b t 9 3 7 7 7 7 7 7 3 9 t b ( &.X.............................................$.6.S = @ ",
"@ = S 6.$.X.X.| / V w w V / | X.X.....................X.-.K i : 3 7 7 7 7 7 7 7 7 3 : i K -.X.............................................$.6.S = @ ",
"@ = S 6.$.X.-./ b e 8 8 e b / -.X.....................X.-.K i : 3 7 7 7 7 7 7 7 7 3 : i K -.X.............................................$.6.S = @ ",
"@ = S 6.6.} / C t < 3 3 < t C / } X.X.................X.&.( b t 9 3 7 7 7 7 7 7 3 9 t b ( &.X.............................................$.6.S = @ ",
"@ = S 6.6.( b t 9 3 7 7 3 9 t b ( &.X.................X.X.} / C t < 3 7 7 7 7 3 < t C / } X.X.............................................$.6.S = @ ",
"@ = S 9.9.K i : 3 7 7 7 7 3 : i K -.X.....................&.-./ b t 9 3 7 7 3 9 t b / -.X.................................................$.6.S = @ ",
"@ = S 9.9.K i : 3 7 7 7 7 3 : s K -.X.....................X.X.| / C t < 3 5 < t C / | X.X.................................................$.6.S = @ ",
"@ = S 6.6.( b t 9 3 7 7 3 9 t b ( &.X.........................X.-./ b e 8 8 e b / -.X.....................................................$.6.S = @ ",
"@ = S 6.6.} / V t < 3 3 < t C / } X.X.........................X.X.| / V w w V / | X.X.....................................................$.6.S = @ ",
"@ = S 6.$.X.-./ b e 8 8 e b / -.&.................................X.-.( x x ( -.X.........................................................$.6.S = @ ",
"@ = S 6.$.X.X.| / V w w V / | X.X.................................X.X.} ( ( } X.X.........................................................$.6.S = @ ",
"@ = S 6.$.....X.-.( x x ( ;.X.........................................X.&.&.X.............................................................$.6.S = @ ",
"@ = S 6.$.....X.X.} ( ( } X.X.........................................X.X.X.X.............................................................$.6.S = @ ",
"@ = S 6.$.........X.&.&.X.................................................................................................................$.6.S = @ ",
"@ = S 6.$.........X.X.X.X.................................................................................................................$.6.S = @ ",
"@ = S 6.$.................................................................................................................................$.6.S = @ ",
"@ = S 6.$.................................................................................................................................$.6.S = @ ",
"@ = S 6.$.................................................................................................................................$.6.S = @ ",
"@ = S 6.$.................................................................................................................................$.6.S = @ ",
"@ = S 6.$.................................................................................................................................$.6.S = @ ",
"@ = S 6.$.................................................................................................................................$.6.S = @ ",
"@ = S 6.$.................................................................................................................................$.6.S = @ ",
"@ = S 6.$.................................................................................................................................$.6.S = @ ",
"@ = S 6.$.............................................................X.X.X.X.............................................................$.6.S = @ ",
"@ = S 6.$.............................................................X.&.&.X.............................................................$.6.S = @ ",
"@ = S 6.$.........................................................X.X.' ( ( } &.X.........................................................$.6.S = @ ",
"@ = S 6.$.........................................................X.-.( x x ( ;.X.........................................................$.6.S = @ ",
"@ = S 6.$.....................................................X.X.| / V w w V / | X.X.....................................................$.6.S = @ ",
"@ = S 6.$.....................................................&.-./ b e 8 8 e b / -.X.....................................................$.6.S = @ ",
"@ = S 6.$.................................................X.X.| / C t < 3 3 < t C / | X.X.................................................$.6.S = @ ",
"@ = S 6.$.................................................X.-./ b e 9 3 7 7 3 9 t b / -.&.................................................$.6.S = @ ",
"@ = S 6.$.............................................X.X.} / C t < 3 7 7 7 7 3 < t C / } X.X.............................................$.6.S = @ ",
"@ = S 6.$.............................................X.&.( b t 9 3 7 7 7 7 7 7 3 9 t b ( &.X.............................................$.6.S = @ ",
"@ = S 6.$.............................................X.-.K i : 3 7 7 7 7 7 7 7 7 3 : i K -.X.............................................$.6.S = @ ",
"@ = S 6.$.............................................X.-.K i : 3 7 7 7 7 7 7 7 7 3 : i K -.X.............................................$.6.S = @ ",
"@ = S 6.$.............................................X.&.( b t 9 3 7 7 7 7 7 7 3 9 t b ( &.X.............................................$.6.S = @ ",
"@ = S 6.$.............................................X.X.} / C t < 3 7 7 7 7 3 < t C / } X.X.............................................$.6.S = @ ",
"@ = S 6.$.................................................X.-./ b t 9 3 7 7 3 9 t b / -.X.................................................$.6.S = @ ",
"@ = S 6.$.................................................X.X.| / C t < 3 5 < t C / | X.X.................................................$.6.S = @ ",
"@ = S 6.$.....................................................X.-./ b e 8 8 e b / -.X.....................................................$.6.S = @ ",
"@ = S 6.$.....................................................X.X.| / V w w V / | X.X.....................................................$.6.S = @ ",
"@ = S 6.$.........................................................X.-.( x x ( -.X.........................................................$.6.S = @ ",
"@ = S 6.$.........................................................X.X.} ( ( } X.X.........................................................$.6.S = @ ",
"@ = S 6.$.............................................................X.&.&.X.............................................................$.6.S = @ ",
"@ = S 6.$.............................................................X.X.X.X.............................................................$.6.S = @ ",
"@ = S 6.$.................................................................................................................................$.6.S = @ ",
"@ = S 6.$.................................................................................................................................$.6.S = @ ",
"@ = S 6.$.................................................................................................................................$.6.S = @ ",
"@ = S 6.$.................................................................................................................................$.6.S = @ ",
"@ = S 6.$.................................................................................................................................$.6.S = @ ",
"@ = S 6.$.................................................................................................................................$.6.S = @ ",
"@ = S 6.$.................................................................................................................................$.6.S = @ ",
"@ = S 6.$.................................................................................................................................$.6.S = @ ",
"@ = S 6.$.................................................................................................................X.X.X.X.........$.6.S = @ ",
"@ = S 6.$.................................................................................................................X.-.&.X.........$.6.S = @ ",
"@ = S 6.$.............................................................X.X.X.X.........................................X.X.' ( ( ' X.X.....$.6.S = @ ",
"@ = S 6.$.............................................................X.&.&.X.........................................X.-.( x x ( -.X.....$.6.S = @ ",
"@ = S 6.$.........................................................X.X.} ( ( } X.X.................................X.X.| / V w w V / | X.X.$.6.S = @ ",
"@ = S 6.$.........................................................&.;.( x x ( -.X.................................X.-./ b e 8 8 e b / -.&.$.6.S = @ ",
"@ = S 6.$.....................................................X.&.| / V w w V / | X.X.........................X.X.} / C t < 3 3 < t C / } 6.6.S = @ ",
"@ = S 6.$.....................................................X.-./ b e 8 8 e b / -.X.........................X.&.( b t 9 3 7 7 3 9 t b ( 6.6.S = @ ",
"@ = S 6.$.................................................X.X.| / C t < 3 3 < t C / | X.X.....................X.-.K s : 3 7 7 7 7 3 : s K 9.9.S = @ ",
"@ = S 6.$.................................................X.-./ b t 9 3 7 7 3 9 t b / -.&.....................X.-.K i : 3 7 7 7 7 3 : i K 9.9.S = @ ",
"@ = S 6.$.............................................X.X.} / C t < 3 7 7 7 7 3 < t C / } X.X.................X.&.( b t 9 3 7 7 3 9 t b ( 6.6.S = @ ",
"@ = S 6.$.............................................X.&.( b t 9 3 7 7 7 7 7 5 3 9 t b ( &.X.................X.X.} / C t < 3 3 < t V / } $.6.S = @ ",
"@ = S 6.$.............................................X.-.K i : 3 7 7 7 7 7 7 7 7 3 : i K -.X.....................&.-./ b e 8 8 e b / -.X.$.6.S = @ ",
"@ = S 6.$.............................................X.-.K i : 3 7 7 7 7 7 7 7 7 3 : i K -.X.....................X.X.| / V w w V / | X.X.$.6.S = @ ",
"@ = S 6.$.............................................X.&.( b t 9 3 7 7 7 7 7 7 3 9 t b ( &.X.....................X.X.-.>./ b b / >.-.X...$.6.S = @ ",
"@ = S 6.$.............................................X.X.} / C t < 3 7 7 7 7 3 < t C / } X.X.....................X.X.-.>. ./ /  .>.-.&.X.$.6.S = @ ",
"@ = S 6.$.................................................X.-./ b t 9 3 7 7 3 9 t b / ;.X.....................X.X.' ( P P Y Y Y K K G W ' $.6.S = @ ",
"@ = S 6.$.................................................X.X.| / C t < 3 3 < t C / | X.X.....................X.X.( b g j l j g g i i x Q 6.6.S = @ ",
"@ = S 6.$.....................................................X.-./ b e 8 8 e b / -.X.........................X.-.P g : < 0 t l j g s x ( 6.6.S = @ ",
"@ = S 6.$.....................................................X.X.| / V w w V / | X.X.........................X.-.P g > > t Z R R Y Y ( ' 6.6.S = @ ",
"@ = S 6.$.........................................................X.-.( x x ( -.X.............................X.-.Y l < < u A R R Y Y ( ' 6.6.S = @ ",
"@ = S 6.$.........................................................X.&.} ( ( } X.X.............................X.-.Y l 3 3 q y l j g s x _ 6.6.S = @ ",
"@ = S 6.$.............................................................X.&.&.X.................................X.-.Y l 3 3 q y l j g s x _ 6.6.S = @ ",
"@ = S 6.$.............................................................X.X.X.X.................................X.-.Y l < 2 u A R R Y Y _ ' $.6.S = @ ",
"@ = S 6.$.....................................................................................................X.-.P j > < t Z R R Y Y _ ' $.6.S = @ ",
"@ = S 6.$.....................................................................................................X.-.P g : < 0 t j j g s x ( 6.6.S = @ ",
"@ ; D 8.$.....................................................................................................X.X.( b g g j g s g i i x Q 6.e.D ; @ ",
"@ ; D w.$.....................................................................................................X.X.' ( P P P K K K K G W ' 6.e.F ; @ ",
"@ * N ! ` %.$.$.$.$.$.$.$.$.$.$.$.$.$.$.$.$.$.$.$.$.$.$.$.$.$.$.$.$.$.$.$.$.$.$.$.$.$.$.$.$.$.$.$.$.$.$.$.$.$.$.$.6.6.9.6.6.6.9.9.9.9.9.6.` ! N * @ ",
"# % & M ! w.8.6.6.6.6.6.6.6.6.6.6.6.6.6.6.6.6.6.6.6.6.6.6.6.6.6.6.6.6.6.6.6.6.6.6.6.6.6.6.6.6.6.6.6.6.6.6.6.6.6.6.6.6.9.6.9.9.9.9.9.9.e.e.! M & % # ",
"$ @ . & N F D S S S S S S S S S S S S S S S S S S S S S S S S S S S S S S S S S S S S S S S S S S S S S S S S S S S S S S S S S S S S D F N & . @ $ ",
"    @ % * ; ; = = = = = = = = = = = = = = = = = = = = = = = = = = = = = = = = = = = = = = = = = = = = = = = = = = = = = = = = = ; = = ; ; * % @     ",
"    $ # @ @ @ @ @ @ @ @ @ @ @ @ @ @ @ @ @ @ @ @ @ @ @ @ @ @ @ @ @ @ @ @ @ @ @ @ @ @ @ @ @ @ @ @ @ @ @ @ @ @ @ @ @ @ @ @ @ @ @ @ @ @ @ @ @ @ # $     "
};
