/* XPM */
static char *hearts_ace[] = {
/* columns rows colors chars-per-pixel */
"74 104 152 2 ",
"   c None",
".  c #1F002C",
"X  c #20012D",
"o  c #21012D",
"O  c #21012E",
"+  c #22032F",
"@  c #23032F",
"#  c #250632",
"$  c #270833",
"%  c #30133B",
"&  c #482E50",
"*  c #4B3152",
"=  c #583F5D",
"-  c #59405D",
";  c #59415E",
":  c #FF0115",
">  c #FF0216",
",  c #FF0316",
"<  c #FF0317",
"1  c #FF0417",
"2  c #FF0418",
"3  c #FF0518",
"4  c #FF0519",
"5  c #FF0619",
"6  c #FF071A",
"7  c #FF081B",
"8  c #FF091C",
"9  c #FF0A1C",
"0  c #FF0A1D",
"q  c #FF0B1D",
"w  c #FF0B1E",
"e  c #FF0C1E",
"r  c #FF0C1F",
"t  c #FF0D20",
"y  c #FF0E20",
"u  c #FF0F21",
"i  c #FF1224",
"p  c #FF1627",
"a  c #FF1728",
"s  c #FF1828",
"d  c #FF1B2B",
"f  c #FE1C2C",
"g  c #FE303D",
"h  c #FE313E",
"j  c #FE333F",
"k  c #FE3340",
"l  c #FE3440",
"z  c #FE3441",
"x  c #FE3541",
"c  c #FD3642",
"v  c #FD3743",
"b  c #FD3844",
"n  c #FD3945",
"m  c #FD3C48",
"M  c #FD3D49",
"N  c #FD3E49",
"B  c #FD3F4A",
"V  c #FD404B",
"C  c #FD414B",
"Z  c #FD424C",
"A  c #FD424D",
"S  c #FD434D",
"D  c #FD434E",
"F  c #FD444E",
"G  c #FD454F",
"H  c #FD4650",
"J  c #FB6C70",
"K  c #FB6D71",
"L  c #FB7074",
"P  c #FB7175",
"I  c #FB7376",
"U  c #FB7477",
"Y  c #FB7578",
"T  c #816E80",
"R  c #9B8B96",
"E  c #FA8C8C",
"W  c #FA8D8D",
"Q  c #FA8F8F",
"!  c #FA908F",
"~  c #FA9090",
"^  c #FA9392",
"/  c #FA9493",
"(  c #FA9594",
")  c #C2B8B7",
"_  c #C4BAB9",
"`  c #C6BCBB",
"'  c #F8B7B1",
"]  c #F8B8B1",
"[  c #F8B8B2",
"{  c #F8B9B2",
"}  c #F8B9B3",
"|  c #F8BAB3",
" . c #F8BBB4",
".. c #F8BCB5",
"X. c #F8BDB6",
"o. c #F8BFB8",
"O. c #F8C5BC",
"+. c #F8C7BE",
"@. c #F8C8BF",
"#. c #D5CDC7",
"$. c #F7CDC4",
"%. c #F7CEC5",
"&. c #F7CFC5",
"*. c #F8C9C0",
"=. c #F8CAC1",
"-. c #F8CBC2",
";. c #F7D1C7",
":. c #F7D2C8",
">. c #EFEBDE",
",. c #F7E5D8",
"<. c #F6E6D9",
"1. c #F7E6D9",
"2. c #F6E7DA",
"3. c #F6E8DB",
"4. c #F6EADC",
"5. c #F6EBDD",
"6. c #F6ECDE",
"7. c #F6F3E4",
"8. c #F6F4E4",
"9. c #F6F4E5",
"0. c #F6F5E5",
"q. c #F6F5E6",
"w. c #F6F6E6",
"e. c #F6F6E7",
"r. c #F6F7E7",
"t. c #F9F6E6",
"y. c #F9F6E7",
"u. c #FAF7E7",
"i. c #F6F7E8",
"p. c #F6F8E8",
"a. c #F6F8E9",
"s. c #F6F9E9",
"d. c #F6FAEA",
"f. c #F6FBEB",
"g. c #F6FCEC",
"h. c #F6FFEF",
"j. c #F9F8E8",
"k. c #FAF8E8",
"l. c #FBF8E8",
"z. c #FBF9E8",
"x. c #FAF9E9",
"c. c #FBF9E9",
"v. c #F9FBEA",
"b. c #FBFBEA",
"n. c #FAFBEB",
"m. c #FDFBEA",
"M. c #F9FCEB",
"N. c #FBFCEB",
"B. c #FFFDEB",
"V. c #FDFEEC",
"C. c #FFFEEC",
"Z. c #F5FFF0",
/* pixels */
"    $ # @ @ @ @ @ @ @ @ @ @ @ @ @ @ @ @ @ @ @ @ @ @ @ @ @ @ @ @ @ @ @ @ @ @ @ @ @ @ @ @ @ @ @ @ @ @ @ @ @ @ @ @ @ @ @ @ @ @ @ @ @ @ @ @ @ @ # $     ",
"    @ % * ; ; ; = = = = = = = = = = = = = = = = = = = = = = = = = = = = = = = = = = = = = = = = = = = = = = = = = = = = = = = = = = = ; ; * % @     ",
"$ @ . & R ` _ ) ) ) ) ) ) ) ) ) ) ) ) ) ) ) ) ) ) ) ) ) ) ) ) ) ) ) ) ) ) ) ) ) ) ) ) ) ) ) ) ) ) ) ) ) ) ) ) ) ) ) ) ) ) ) ) ) ) ) ) _ ` R & . @ $ ",
"# % & T #.V.V.N.N.N.x.x.x.x.N.x.x.x.x.x.x.x.x.x.x.x.x.x.x.x.x.x.x.x.x.x.x.x.x.x.x.x.x.x.x.x.x.x.x.x.x.x.x.x.x.x.x.x.x.x.x.x.x.x.x.x.x.m.B.#.T & % # ",
"@ * R #.>.x.x.N.N.N.N.N.x.N.N.x.x.y.y.y.y.y.y.y.y.y.y.y.y.y.y.y.y.y.y.y.y.y.y.y.y.y.y.y.y.y.y.y.y.y.y.y.y.y.y.y.y.y.y.y.y.y.y.y.y.y.y.y.x.>.#.R * @ ",
"@ ; ` V.x.<.*.| | | | |  . . .*.<.0.0.7.7.7.7.7.7.7.7.7.7.7.7.7.7.7.7.7.7.7.7.7.7.7.7.7.7.7.7.7.7.7.7.7.7.7.7.7.7.7.7.7.7.7.7.7.7.7.7.7.7.x.B.` ; @ ",
"@ ; _ V.x.*.L C B C C A F F A L *.0.0.7.7.7.7.7.7.7.7.7.7.7.7.7.7.7.7.7.7.7.7.7.7.7.7.7.7.7.7.7.7.7.7.7.7.7.7.7.7.7.7.7.7.7.7.7.7.7.7.7.7.y.m._ ; @ ",
"@ = ) N.N.| C i j H H c s 3 1 A  .d.0.7.7.7.7.7.7.7.7.7.7.7.7.7.7.7.7.7.7.7.7.7.7.7.7.7.7.7.7.7.7.7.7.7.7.7.7.7.7.7.7.7.7.7.7.7.7.7.7.7.7.y.x.) = @ ",
"@ = ) N.N.| B j Q O.O.~ c 3 < A  .d.0.7.7.7.7.7.7.7.7.7.7.7.7.7.7.7.7.7.7.7.7.7.7.7.7.7.7.7.7.7.7.7.7.7.7.7.7.7.7.7.7.7.7.7.7.7.7.7.7.7.7.y.x.) = @ ",
"@ = ) N.N.| A c ~ O.O./ n 3 3 H X.d.0.7.7.7.7.7.7.7.7.7.7.7.7.7.7.7.7.7.7.7.7.7.7.7.7.7.7.7.7.7.7.7.7.7.7.7.7.7.7.7.7.7.7.7.7.7.7.7.7.7.7.y.x.) = @ ",
"@ = ) N.N. .F a c H H c f 8 8 H X.d.0.7.7.7.7.7.7.7.7.7.7.7.7.7.7.7.7.7.7.7.7.7.7.7.7.7.7.7.7.7.7.7.7.7.7.7.7.7.7.7.7.7.7.7.7.7.7.7.7.7.7.y.x.) = @ ",
"@ = ) N.N. .F p j A A c f 8 8 H X.d.0.7.7.7.7.7.7.7.7.7.7.7.7.7.7.7.7.7.7.7.7.7.7.7.7.7.7.7.7.7.7.7.7.7.7.7.7.7.7.7.7.7.7.7.7.7.7.7.7.7.7.y.x.) = @ ",
"@ = ) N.N.| A j Q o.X.! n 7 3 H X.d.0.7.7.7.7.7.7.7.7.7.7.7.7.7.7.7.7.7.7.7.7.7.7.7.7.7.7.7.7.7.7.7.7.7.7.7.7.7.7.7.7.7.7.7.7.7.7.7.7.7.7.y.x.) = @ ",
"@ = ) N.N.' B B X.Z.Z.o.F < < F  .d.0.7.7.7.7.7.7.7.7.7.7.7.7.7.7.7.7.7.7.7.7.7.7.7.7.7.7.7.7.7.7.7.7.7.7.7.7.7.7.7.7.7.7.7.7.7.7.7.7.7.7.y.x.) = @ ",
"@ = ) x.N.' B B | h.h.X.A < < A  .d.0.7.7.7.7.7.7.7.7.7.7.7.7.7.7.7.7.7.7.7.7.7.7.7.7.7.7.7.7.7.7.7.7.7.7.7.7.7.7.7.7.7.7.7.7.7.7.7.7.7.7.y.x.) = @ ",
"@ = ) x.x.O.J J O.d.d.*.L C C L *.0.0.7.7.7.7.7.7.7.7.7.7.7.7.7.7.7.7.7.7.7.7.7.7.7.7.7.7.7.7.7.7.7.7.7.7.7.7.7.7.7.7.7.7.7.7.7.7.7.7.7.7.y.x.) = @ ",
"@ = ) x.y.<.@.@.<.0.0.<.*.| | *.<.0.0.7.7.7.7.7.7.7.7.7.7.7.7.7.7.7.7.7.7.7.7.7.7.7.7.7.7.7.7.7.7.7.7.7.7.7.7.7.7.7.7.7.7.7.7.7.7.7.7.7.7.y.x.) = @ ",
"@ = ) x.y.0.d.d.d.0.0.0.d.h.h.d.0.7.7.7.7.7.7.7.7.7.7.7.7.7.7.7.7.7.7.7.7.7.7.7.7.7.7.7.7.7.7.7.7.7.7.7.7.7.7.7.7.7.7.7.7.7.7.7.7.7.7.7.7.y.x.) = @ ",
"@ = ) x.y.0.d.d.d.0.0.0.d.h.h.d.0.7.7.7.7.7.7.7.7.7.7.7.7.7.7.7.7.7.7.7.7.7.7.7.7.7.7.7.7.7.7.7.7.7.7.7.7.7.7.7.7.7.7.7.7.7.7.7.7.7.7.7.7.y.x.) = @ ",
"@ = ) x.x.<.*.| | *.5.5.*.| | *.<.0.0.7.7.7.7.7.7.7.7.7.7.7.7.7.7.7.7.7.7.7.7.7.7.7.7.7.7.7.7.7.7.7.7.7.7.7.7.7.7.7.7.7.7.7.7.7.7.7.7.7.7.y.x.) = @ ",
"@ ; ) x.x.*.L B C U :.;.U C C L *.i.0.7.7.7.7.7.7.7.7.7.7.7.7.7.7.7.7.7.7.7.7.7.7.7.7.7.7.7.7.7.7.7.7.7.7.7.7.7.7.7.7.7.7.7.7.7.7.7.7.7.7.y.x.) = @ ",
"@ ; ) N.N. .A < < v ( ( v < < A  .d.0.7.7.7.7.7.7.7.7.7.7.7.7.7.7.7.7.7.7.7.7.7.7.7.7.7.7.7.7.7.7.7.7.7.7.7.7.7.7.7.7.7.7.7.7.7.7.7.7.7.7.y.x.) = @ ",
"@ = ) N.N. .F 3 3 s n n s 3 3 F  .d.0.7.7.7.7.7.7.7.7.7.7.7.7.7.7.7.7.7.7.7.7.7.7.7.7.7.7.7.7.7.7.7.7.7.7.7.7.7.7.7.7.7.7.7.7.7.7.7.7.7.7.y.x.) = @ ",
"@ = ) N.N. .A 3 8 u 8 8 u 8 3 F  .d.0.7.7.7.7.7.7.7.7.7.7.7.7.7.7.7.7.7.7.7.7.7.7.7.7.7.7.7.7.7.7.7.7.7.7.7.7.7.7.7.7.7.7.7.7.7.7.7.7.7.7.y.x.) = @ ",
"@ = ) N.N. .A 3 8 u r r u 8 3 A  .d.0.7.7.7.7.7.7.7.7.7.7.7.7.7.7.7.7.7.7.7.7.7.7.7.7.7.7.7.7.7.7.7.7.7.7.7.7.7.7.7.7.7.7.7.7.7.7.7.7.7.7.y.x.) = @ ",
"@ = ) x.x.*.L c a 8 u u 8 a c L *.i.0.7.7.7.7.7.7.7.7.7.7.7.7.7.7.7.7.7.7.7.7.7.7.7.7.7.7.7.7.7.7.7.7.7.7.7.7.7.7.7.7.7.7.7.7.7.7.7.7.7.7.y.x.) = @ ",
"@ = ) x.x.3.%.Q c 3 8 8 3 c ! %.3.0.0.7.7.7.7.7.7.7.7.7.7.7.7.7.7.7.7.7.7.7.7.7.7.7.7.7.7.7.7.7.7.7.7.7.7.7.7.7.7.7.7.7.7.7.7.7.7.7.7.7.7.y.x.) = @ ",
"@ = ) x.y.0.d.%.L k p p k L %.d.0.7.7.7.7.7.7.7.7.7.7.7.7.7.7.7.7.7.7.7.7.7.7.7.7.7.7.7.7.7.7.7.7.7.7.7.7.7.7.7.7.7.7.7.7.7.7.7.7.7.7.7.7.y.x.) = @ ",
"@ = ) x.y.0.0.5.%.Q j j Q %.5.0.0.7.7.7.7.7.7.7.7.7.7.7.7.7.7.7.7.7.7.7.7.7.7.7.7.7.7.7.7.7.7.7.7.7.7.7.7.7.7.7.7.7.7.7.7.7.7.7.7.7.7.7.7.y.x.) = @ ",
"@ = ) x.y.7.7.0.d.*.J J *.d.0.7.7.7.7.7.7.7.7.7.7.7.7.7.7.7.7.7.7.7.7.7.7.7.7.7.7.7.7.7.7.7.7.7.7.7.7.7.7.7.7.7.7.7.7.7.7.7.7.7.7.7.7.7.7.y.x.) = @ ",
"@ = ) x.y.7.7.0.0.3.*.*.3.0.0.7.7.7.7.7.7.7.7.7.7.7.7.7.7.7.7.7.7.7.7.7.7.7.7.7.7.7.7.7.7.7.7.7.7.7.7.7.7.7.7.7.7.7.7.7.7.7.7.7.7.7.7.7.7.y.x.) = @ ",
"@ = ) x.y.7.7.7.7.0.i.i.0.7.7.7.7.7.7.7.7.7.7.7.7.7.7.7.7.7.7.7.7.7.7.7.7.7.7.7.7.7.7.7.7.7.7.7.7.7.7.7.7.7.7.7.7.7.7.7.7.7.7.7.7.7.7.7.7.y.x.) = @ ",
"@ = ) x.y.7.7.7.7.0.0.0.0.7.7.7.7.7.7.7.7.7.7.7.7.7.7.7.7.7.7.7.7.7.7.7.7.7.7.7.7.7.7.7.7.7.7.7.7.7.7.7.7.7.7.7.7.7.7.7.7.7.7.7.7.7.7.7.7.y.x.) = @ ",
"@ = ) x.y.7.7.7.7.7.7.7.7.7.7.7.7.7.7.7.7.7.7.7.7.7.7.7.7.7.7.7.7.7.7.7.7.7.7.7.7.7.7.7.7.7.7.7.7.7.7.7.7.7.7.7.7.7.7.7.7.7.7.7.7.7.7.7.7.y.x.) = @ ",
"@ = ) x.y.7.7.7.7.7.7.7.7.7.7.7.7.7.7.7.7.7.7.7.7.7.7.7.7.7.7.7.7.7.7.7.7.7.7.7.7.7.7.7.7.7.7.7.7.7.7.7.7.7.7.7.7.7.7.7.7.7.7.7.7.7.7.7.7.y.x.) = @ ",
"@ = ) x.y.7.7.7.7.7.7.7.7.7.7.7.7.7.7.7.7.7.7.7.7.7.7.7.7.7.7.7.7.7.7.7.7.7.7.7.7.7.7.7.7.7.7.7.7.7.7.7.7.7.7.7.7.7.7.7.7.7.7.7.7.7.7.7.7.y.x.) = @ ",
"@ = ) x.y.7.7.7.7.7.7.7.7.7.7.7.7.7.7.7.7.7.7.7.7.7.7.7.7.7.7.7.7.7.7.7.7.7.7.7.7.7.7.7.7.7.7.7.7.7.7.7.7.7.7.7.7.7.7.7.7.7.7.7.7.7.7.7.7.y.x.) = @ ",
"@ = ) x.y.7.7.7.7.7.7.7.7.7.7.7.7.7.7.7.7.7.7.7.7.7.7.7.7.7.7.7.7.7.7.7.7.7.7.7.7.7.7.7.7.7.7.7.7.7.7.7.7.7.7.7.7.7.7.7.7.7.7.7.7.7.7.7.7.y.x.) = @ ",
"@ = ) x.y.7.7.7.7.7.7.7.7.7.7.7.7.7.7.7.7.7.7.7.7.7.7.7.7.7.7.7.7.7.7.7.7.7.7.7.7.7.7.7.7.7.7.7.7.7.7.7.7.7.7.7.7.7.7.7.7.7.7.7.7.7.7.7.7.y.x.) = @ ",
"@ = ) x.y.7.7.7.7.7.7.7.7.7.7.7.7.7.7.7.7.7.7.7.7.7.7.0.0.0.0.0.0.0.0.7.7.7.7.0.0.0.0.0.0.0.0.7.7.7.7.7.7.7.7.7.7.7.7.7.7.7.7.7.7.7.7.7.7.y.x.) = @ ",
"@ = ) x.y.7.7.7.7.7.7.7.7.7.7.7.7.7.7.7.7.7.7.7.7.7.7.0.0.d.d.d.d.0.0.7.7.7.7.0.i.d.d.d.d.i.0.7.7.7.7.7.7.7.7.7.7.7.7.7.7.7.7.7.7.7.7.7.7.y.x.) = @ ",
"@ = ) x.y.7.7.7.7.7.7.7.7.7.7.7.7.7.7.7.7.7.7.7.7.0.0.3.*. . . . .*.3.0.0.0.0.3.*. . . . .*.3.0.0.7.7.7.7.7.7.7.7.7.7.7.7.7.7.7.7.7.7.7.7.y.x.) = @ ",
"@ = ) x.y.7.7.7.7.7.7.7.7.7.7.7.7.7.7.7.7.7.7.7.7.0.d.%.L A A F A L %.d.i.0.d.%.L A A A A L %.d.0.7.7.7.7.7.7.7.7.7.7.7.7.7.7.7.7.7.7.7.7.y.x.) = @ ",
"@ = ) x.y.7.7.7.7.7.7.7.7.7.7.7.7.7.7.7.7.7.7.0.0.3.%.! c 3 3 3 3 c ! %.6.6.%.! c 3 3 3 3 c ! %.3.0.0.7.7.7.7.7.7.7.7.7.7.7.7.7.7.7.7.7.7.y.x.) = @ ",
"@ = ) x.y.7.7.7.7.7.7.7.7.7.7.7.7.7.7.7.7.7.7.0.i.*.L c a 8 8 8 8 a c Y :.:.Y c a 8 8 8 8 a c L *.0.0.7.7.7.7.7.7.7.7.7.7.7.7.7.7.7.7.7.7.y.x.) = @ ",
"@ = ) x.y.7.7.7.7.7.7.7.7.7.7.7.7.7.7.7.7.7.7.0.d. .A 3 8 u u u u 8 3 c ( ( v 3 8 u u u u 8 3 A  .d.0.7.7.7.7.7.7.7.7.7.7.7.7.7.7.7.7.7.7.y.x.) = @ ",
"@ = ) x.y.7.7.7.7.7.7.7.7.7.7.7.7.7.7.7.7.7.7.0.d. .F 3 8 u u u u u 8 s n n s 8 u u u u u 8 3 F  .d.0.7.7.7.7.7.7.7.7.7.7.7.7.7.7.7.7.7.7.y.x.) = @ ",
"@ = ) x.y.7.7.7.7.7.7.7.7.7.7.7.7.7.7.7.7.7.7.0.d.X.H 8 r u u u u u u u 8 8 u u u u u u u r 8 H X.d.0.7.7.7.7.7.7.7.7.7.7.7.7.7.7.7.7.7.7.y.x.) = @ ",
"@ = ) x.y.7.7.7.7.7.7.7.7.7.7.7.7.7.7.7.7.7.7.0.d.X.H 8 r u u u u u u u r r u u u u u u u r 8 H X.d.0.7.7.7.7.7.7.7.7.7.7.7.7.7.7.7.7.7.7.y.x.) = @ ",
"@ = ) x.y.7.7.7.7.7.7.7.7.7.7.7.7.7.7.7.7.7.7.0.d.X.H 8 r u u u u u u u u u u u u u u u u r 8 H X.d.0.7.7.7.7.7.7.7.7.7.7.7.7.7.7.7.7.7.7.y.x.) = @ ",
"@ = ) x.y.7.7.7.7.7.7.7.7.7.7.7.7.7.7.7.7.7.7.0.d.X.H 8 r u u u u u u u u u u u u u u u u r 8 H X.d.0.7.7.7.7.7.7.7.7.7.7.7.7.7.7.7.7.7.7.y.x.) = @ ",
"@ = ) x.y.7.7.7.7.7.7.7.7.7.7.7.7.7.7.7.7.7.7.0.d. .F 3 8 u u u u u u u u u u u u u u u u 8 3 F  .d.0.7.7.7.7.7.7.7.7.7.7.7.7.7.7.7.7.7.7.y.x.) = @ ",
"@ = ) x.y.7.7.7.7.7.7.7.7.7.7.7.7.7.7.7.7.7.7.0.d. .A 3 8 u u u u u u u u u u u u u u u u 8 3 A  .d.0.7.7.7.7.7.7.7.7.7.7.7.7.7.7.7.7.7.7.y.x.) = @ ",
"@ = ) x.y.7.7.7.7.7.7.7.7.7.7.7.7.7.7.7.7.7.7.0.0.*.L c a 8 u u u u u u u u u u u u u u 8 a c L *.0.0.7.7.7.7.7.7.7.7.7.7.7.7.7.7.7.7.7.7.y.x.) = @ ",
"@ = ) x.y.7.7.7.7.7.7.7.7.7.7.7.7.7.7.7.7.7.7.0.0.3.%.Q c 3 8 u u u u u u u u u u u u 8 3 c ! %.3.0.0.7.7.7.7.7.7.7.7.7.7.7.7.7.7.7.7.7.7.y.x.) = @ ",
"@ = ) x.y.7.7.7.7.7.7.7.7.7.7.7.7.7.7.7.7.7.7.7.7.0.d.%.L c a 8 u u u u u u u u u u 8 a c L %.d.0.7.7.7.7.7.7.7.7.7.7.7.7.7.7.7.7.7.7.7.7.y.x.) = @ ",
"@ = ) x.y.7.7.7.7.7.7.7.7.7.7.7.7.7.7.7.7.7.7.7.7.0.0.5.%.! c 3 8 u u u u u u u u 8 3 c ! %.5.0.0.7.7.7.7.7.7.7.7.7.7.7.7.7.7.7.7.7.7.7.7.y.x.) = @ ",
"@ = ) x.y.7.7.7.7.7.7.7.7.7.7.7.7.7.7.7.7.7.7.7.7.7.7.0.d.%.L c a 8 u u u u u u 8 a c L %.d.0.7.7.7.7.7.7.7.7.7.7.7.7.7.7.7.7.7.7.7.7.7.7.y.x.) = @ ",
"@ = ) x.y.7.7.7.7.7.7.7.7.7.7.7.7.7.7.7.7.7.7.7.7.7.7.0.0.5.%.! c 3 8 u u u u 8 3 c ! %.5.0.0.7.7.7.7.7.7.7.7.7.7.7.7.7.7.7.7.7.7.7.7.7.7.y.x.) = @ ",
"@ = ) x.y.7.7.7.7.7.7.7.7.7.7.7.7.7.7.7.7.7.7.7.7.7.7.7.7.0.d.%.L c a 8 u u 8 a c L %.d.0.7.7.7.7.7.7.7.7.7.7.7.7.7.7.7.7.7.7.7.7.7.7.7.7.y.x.) = @ ",
"@ = ) x.y.7.7.7.7.7.7.7.7.7.7.7.7.7.7.7.7.7.7.7.7.7.7.7.7.0.i.5.%.! c 3 8 8 3 c ! %.5.0.0.7.7.7.7.7.7.7.7.7.7.7.7.7.7.7.7.7.7.7.7.7.7.7.7.y.x.) = @ ",
"@ = ) x.y.7.7.7.7.7.7.7.7.7.7.7.7.7.7.7.7.7.7.7.7.7.7.7.7.7.7.i.d.%.L k p p k L %.d.0.7.7.7.7.7.7.7.7.7.7.7.7.7.7.7.7.7.7.7.7.7.7.7.7.7.7.y.x.) = @ ",
"@ = ) x.y.7.7.7.7.7.7.7.7.7.7.7.7.7.7.7.7.7.7.7.7.7.7.7.7.7.7.0.0.5.%.Q j j Q %.5.0.0.7.7.7.7.7.7.7.7.7.7.7.7.7.7.7.7.7.7.7.7.7.7.7.7.7.7.y.x.) = @ ",
"@ = ) x.y.7.7.7.7.7.7.7.7.7.7.7.7.7.7.7.7.7.7.7.7.7.7.7.7.7.7.7.7.0.d.*.J J *.d.0.7.7.7.7.7.7.7.7.7.7.7.7.7.7.7.7.7.7.7.7.7.7.7.7.7.7.7.7.y.x.) = @ ",
"@ = ) x.y.7.7.7.7.7.7.7.7.7.7.7.7.7.7.7.7.7.7.7.7.7.7.7.7.7.7.7.7.0.0.<.*.*.3.0.0.7.7.7.7.7.7.7.7.7.7.7.7.7.7.7.7.7.7.7.7.7.7.7.7.7.7.7.7.y.x.) = @ ",
"@ = ) x.y.7.7.7.7.7.7.7.7.7.7.7.7.7.7.7.7.7.7.7.7.7.7.7.7.7.7.7.7.7.7.0.i.i.0.7.7.7.7.7.7.7.7.7.7.7.7.7.7.7.7.7.7.7.7.7.7.7.7.7.7.7.7.7.7.y.x.) = @ ",
"@ = ) x.y.7.7.7.7.7.7.7.7.7.7.7.7.7.7.7.7.7.7.7.7.7.7.7.7.7.7.7.7.7.7.0.0.0.0.7.7.7.7.7.7.7.7.7.7.7.7.7.7.7.7.7.7.7.7.7.7.7.7.7.7.7.7.7.7.y.x.) = @ ",
"@ = ) x.y.7.7.7.7.7.7.7.7.7.7.7.7.7.7.7.7.7.7.7.7.7.7.7.7.7.7.7.7.7.7.7.7.7.7.7.7.7.7.7.7.7.7.7.7.7.7.7.7.7.7.7.7.7.7.7.7.7.7.7.7.7.7.7.7.y.x.) = @ ",
"@ = ) x.y.7.7.7.7.7.7.7.7.7.7.7.7.7.7.7.7.7.7.7.7.7.7.7.7.7.7.7.7.7.7.7.7.7.7.7.7.7.7.7.7.7.7.7.7.7.7.7.7.7.7.7.7.7.7.7.7.7.7.7.7.7.7.7.7.y.x.) = @ ",
"@ = ) x.y.7.7.7.7.7.7.7.7.7.7.7.7.7.7.7.7.7.7.7.7.7.7.7.7.7.7.7.7.7.7.7.7.7.7.7.7.7.7.7.7.7.7.7.7.7.7.7.7.7.7.7.7.7.7.7.7.7.7.7.7.7.7.7.7.y.x.) = @ ",
"@ = ) x.y.7.7.7.7.7.7.7.7.7.7.7.7.7.7.7.7.7.7.7.7.7.7.7.7.7.7.7.7.7.7.7.7.7.7.7.7.7.7.7.7.7.7.7.7.7.7.7.7.7.7.7.7.7.7.7.7.7.7.7.7.7.7.7.7.y.x.) = @ ",
"@ = ) x.y.7.7.7.7.7.7.7.7.7.7.7.7.7.7.7.7.7.7.7.7.7.7.7.7.7.7.7.7.7.7.7.7.7.7.7.7.7.7.7.7.7.7.7.7.7.7.7.7.7.7.7.7.7.7.7.7.0.0.0.0.7.7.7.7.y.x.) = @ ",
"@ = ) x.y.7.7.7.7.7.7.7.7.7.7.7.7.7.7.7.7.7.7.7.7.7.7.7.7.7.7.7.7.7.7.7.7.7.7.7.7.7.7.7.7.7.7.7.7.7.7.7.7.7.7.7.7.7.7.7.7.0.i.i.0.7.7.7.7.y.x.) = @ ",
"@ = ) x.y.7.7.7.7.7.7.7.7.7.7.7.7.7.7.7.7.7.7.7.7.7.7.7.7.7.7.7.7.7.7.7.7.7.7.7.7.7.7.7.7.7.7.7.7.7.7.7.7.7.7.7.7.7.7.0.0.<.*.*.<.0.0.7.7.y.x.) = @ ",
"@ = ) x.y.7.7.7.7.7.7.7.7.7.7.7.7.7.7.7.7.7.7.7.7.7.7.7.7.7.7.7.7.7.7.7.7.7.7.7.7.7.7.7.7.7.7.7.7.7.7.7.7.7.7.7.7.7.7.0.d.*.J J *.d.0.7.7.y.x.) = @ ",
"@ = ) x.y.7.7.7.7.7.7.7.7.7.7.7.7.7.7.7.7.7.7.7.7.7.7.7.7.7.7.7.7.7.7.7.7.7.7.7.7.7.7.7.7.7.7.7.7.7.7.7.7.7.7.7.7.0.0.5.%.Q j j Q %.5.0.0.y.x.) = @ ",
"@ = ) x.y.7.7.7.7.7.7.7.7.7.7.7.7.7.7.7.7.7.7.7.7.7.7.7.7.7.7.7.7.7.7.7.7.7.7.7.7.7.7.7.7.7.7.7.7.7.7.7.7.7.7.7.7.0.d.%.L k p p k L %.d.i.y.x.) = @ ",
"@ = ) x.y.7.7.7.7.7.7.7.7.7.7.7.7.7.7.7.7.7.7.7.7.7.7.7.7.7.7.7.7.7.7.7.7.7.7.7.7.7.7.7.7.7.7.7.7.7.7.7.7.7.7.0.0.3.%.! c 3 8 8 3 c ! %.3.x.x.) = @ ",
"@ = ) x.y.7.7.7.7.7.7.7.7.7.7.7.7.7.7.7.7.7.7.7.7.7.7.7.7.7.7.7.7.7.7.7.7.7.7.7.7.7.7.7.7.7.7.7.7.7.7.7.7.7.7.0.i.*.L c a 8 u u 8 a c L *.x.x.) = @ ",
"@ = ) x.y.7.7.7.7.7.7.7.7.7.7.7.7.7.7.7.7.7.7.7.7.7.7.7.7.7.7.7.7.7.7.7.7.7.7.7.7.7.7.7.7.7.7.7.7.7.7.7.7.7.7.0.d. .A 3 8 u r r u 8 3 A  .N.N.) = @ ",
"@ = ) x.y.7.7.7.7.7.7.7.7.7.7.7.7.7.7.7.7.7.7.7.7.7.7.7.7.7.7.7.7.7.7.7.7.7.7.7.7.7.7.7.7.7.7.7.7.7.7.7.7.7.7.0.d. .F 3 8 u 8 8 u 8 3 A  .N.N.) = @ ",
"@ = ) x.y.7.7.7.7.7.7.7.7.7.7.7.7.7.7.7.7.7.7.7.7.7.7.7.7.7.7.7.7.7.7.7.7.7.7.7.7.7.7.7.7.7.7.7.7.7.7.7.7.7.7.0.d. .F 3 3 s n n s 3 3 A  .N.N.) = @ ",
"@ = ) x.y.7.7.7.7.7.7.7.7.7.7.7.7.7.7.7.7.7.7.7.7.7.7.7.7.7.7.7.7.7.7.7.7.7.7.7.7.7.7.7.7.7.7.7.7.7.7.7.7.7.7.0.d. .A < < c ( ( v < < A  .N.N.) = @ ",
"@ = ) x.y.7.7.7.7.7.7.7.7.7.7.7.7.7.7.7.7.7.7.7.7.7.7.7.7.7.7.7.7.7.7.7.7.7.7.7.7.7.7.7.7.7.7.7.7.7.7.7.7.7.7.0.0.*.L B B U ;.;.U B B L *.x.x.) = @ ",
"@ = ) x.y.7.7.7.7.7.7.7.7.7.7.7.7.7.7.7.7.7.7.7.7.7.7.7.7.7.7.7.7.7.7.7.7.7.7.7.7.7.7.7.7.7.7.7.7.7.7.7.7.7.7.0.0.<.*.| | *.5.5.*.| | *.<.y.x.) = @ ",
"@ = ) x.y.7.7.7.7.7.7.7.7.7.7.7.7.7.7.7.7.7.7.7.7.7.7.7.7.7.7.7.7.7.7.7.7.7.7.7.7.7.7.7.7.7.7.7.7.7.7.7.7.7.7.7.7.0.d.h.h.d.0.0.0.d.d.d.0.y.x.) = @ ",
"@ = ) x.y.7.7.7.7.7.7.7.7.7.7.7.7.7.7.7.7.7.7.7.7.7.7.7.7.7.7.7.7.7.7.7.7.7.7.7.7.7.7.7.7.7.7.7.7.7.7.7.7.7.7.7.7.0.d.h.h.d.0.7.0.d.d.d.0.y.x.) = @ ",
"@ = ) x.y.7.7.7.7.7.7.7.7.7.7.7.7.7.7.7.7.7.7.7.7.7.7.7.7.7.7.7.7.7.7.7.7.7.7.7.7.7.7.7.7.7.7.7.7.7.7.7.7.7.7.0.0.<.*.| | *.<.0.0.<.@.@.,.y.x.) = @ ",
"@ = ) x.y.7.7.7.7.7.7.7.7.7.7.7.7.7.7.7.7.7.7.7.7.7.7.7.7.7.7.7.7.7.7.7.7.7.7.7.7.7.7.7.7.7.7.7.7.7.7.7.7.7.7.0.0.*.L B B L *.d.d.O.J J O.x.x.) = @ ",
"@ = ) x.y.7.7.7.7.7.7.7.7.7.7.7.7.7.7.7.7.7.7.7.7.7.7.7.7.7.7.7.7.7.7.7.7.7.7.7.7.7.7.7.7.7.7.7.7.7.7.7.7.7.7.0.d. .A < < A X.h.h.| B B ' N.N.) = @ ",
"@ = ) x.y.7.7.7.7.7.7.7.7.7.7.7.7.7.7.7.7.7.7.7.7.7.7.7.7.7.7.7.7.7.7.7.7.7.7.7.7.7.7.7.7.7.7.7.7.7.7.7.7.7.7.0.d. .A < < F o.Z.Z.X.B B | N.N.) = @ ",
"@ = ) x.y.7.7.7.7.7.7.7.7.7.7.7.7.7.7.7.7.7.7.7.7.7.7.7.7.7.7.7.7.7.7.7.7.7.7.7.7.7.7.7.7.7.7.7.7.7.7.7.7.7.7.0.d.X.H 3 3 n ! o.o.Q j A | N.N.) = @ ",
"@ = ) x.y.7.7.7.7.7.7.7.7.7.7.7.7.7.7.7.7.7.7.7.7.7.7.7.7.7.7.7.7.7.7.7.7.7.7.7.7.7.7.7.7.7.7.7.7.7.7.7.7.7.7.0.d.X.H 8 8 s c A A j p F  .N.N.) = @ ",
"@ = ) x.y.7.7.7.7.7.7.7.7.7.7.7.7.7.7.7.7.7.7.7.7.7.7.7.7.7.7.7.7.7.7.7.7.7.7.7.7.7.7.7.7.7.7.7.7.7.7.7.7.7.7.0.d.X.H 8 8 f v H H c p F  .N.N.) = @ ",
"@ = ) x.y.7.7.7.7.7.7.7.7.7.7.7.7.7.7.7.7.7.7.7.7.7.7.7.7.7.7.7.7.7.7.7.7.7.7.7.7.7.7.7.7.7.7.7.7.7.7.7.7.7.7.0.d.X.H 3 7 n / O.O.~ c A | N.N.) = @ ",
"@ = ) x.y.7.7.7.7.7.7.7.7.7.7.7.7.7.7.7.7.7.7.7.7.7.7.7.7.7.7.7.7.7.7.7.7.7.7.7.7.7.7.7.7.7.7.7.7.7.7.7.7.7.7.0.d. .F 1 3 c ~ O.O.Q j B | N.N.) = @ ",
"@ = ) x.y.7.7.7.7.7.7.7.7.7.7.7.7.7.7.7.7.7.7.7.7.7.7.7.7.7.7.7.7.7.7.7.7.7.7.7.7.7.7.7.7.7.7.7.7.7.7.7.7.7.7.0.d. .A < 3 s c H H j i C | N.N.) = @ ",
"@ ; _ m.y.7.7.7.7.7.7.7.7.7.7.7.7.7.7.7.7.7.7.7.7.7.7.7.7.7.7.7.7.7.7.7.7.7.7.7.7.7.7.7.7.7.7.7.7.7.7.7.7.7.7.0.0.*.L A A F A C C B C L *.x.V._ ; @ ",
"@ ; ` B.y.7.7.7.7.7.7.7.7.7.7.7.7.7.7.7.7.7.7.7.7.7.7.7.7.7.7.7.7.7.7.7.7.7.7.7.7.7.7.7.7.7.7.7.7.7.7.7.7.7.7.0.0.<.*. . . .| | | | | *.<.x.V.` ; @ ",
"@ * R #.>.u.y.y.y.y.y.y.y.y.y.y.y.y.y.y.y.y.y.y.y.y.y.y.y.y.y.y.y.y.y.y.y.y.y.y.y.y.y.y.y.y.y.y.y.y.y.y.y.y.y.y.y.x.x.N.x.x.x.N.N.N.N.x.x.>.#.R * @ ",
"# % & T #.B.m.x.x.x.x.x.x.x.x.x.x.x.x.x.x.x.x.x.x.x.x.x.x.x.x.x.x.x.x.x.x.x.x.x.x.x.x.x.x.x.x.x.x.x.x.x.x.x.x.x.x.x.x.N.N.N.N.N.N.N.N.V.V.#.T & % # ",
"$ @ . & R ` _ ) ) ) ) ) ) ) ) ) ) ) ) ) ) ) ) ) ) ) ) ) ) ) ) ) ) ) ) ) ) ) ) ) ) ) ) ) ) ) ) ) ) ) ) ) ) ) ) ) ) ) ) ) ) ) ) ) ) ) ) _ ` R & . @ $ ",
"    @ % * ; ; = = = = = = = = = = = = = = = = = = = = = = = = = = = = = = = = = = = = = = = = = = = = = = = = = = = = = = = = = = = = ; ; * % @     ",
"    $ # @ @ @ @ @ @ @ @ @ @ @ @ @ @ @ @ @ @ @ @ @ @ @ @ @ @ @ @ @ @ @ @ @ @ @ @ @ @ @ @ @ @ @ @ @ @ @ @ @ @ @ @ @ @ @ @ @ @ @ @ @ @ @ @ @ @ # $     "
};
