/* XPM */
static char *hearts_2[] = {
/* columns rows colors chars-per-pixel */
"74 104 140 2 ",
"   c None",
".  c #1F002C",
"X  c #20012D",
"o  c #21012D",
"O  c #21012E",
"+  c #22032F",
"@  c #23032F",
"#  c #250632",
"$  c #270833",
"%  c #30133B",
"&  c #482E50",
"*  c #4B3152",
"=  c #583F5D",
"-  c #59405D",
";  c #59415E",
":  c #FF0216",
">  c #FF0317",
",  c #FF0417",
"<  c #FF0418",
"1  c #FF0518",
"2  c #FF0519",
"3  c #FF0619",
"4  c #FF071A",
"5  c #FF091C",
"6  c #FF0A1C",
"7  c #FF0A1D",
"8  c #FF0B1D",
"9  c #FF0B1E",
"0  c #FF0C1E",
"q  c #FF0C1F",
"w  c #FF0D20",
"e  c #FF0E20",
"r  c #FF0F21",
"t  c #FF1627",
"y  c #FF1728",
"u  c #FF1828",
"i  c #FF1B2B",
"p  c #FE303D",
"a  c #FE3340",
"s  c #FE3440",
"d  c #FE3441",
"f  c #FD3642",
"g  c #FD3743",
"h  c #FD3945",
"j  c #FD3C48",
"k  c #FD3E49",
"l  c #FD3F4A",
"z  c #FD404B",
"x  c #FD414B",
"c  c #FD414C",
"v  c #FD424C",
"b  c #FD424D",
"n  c #FD434E",
"m  c #FD444E",
"M  c #FD454F",
"N  c #FD4550",
"B  c #FD4650",
"V  c #FD4751",
"C  c #FD4953",
"Z  c #FB6C70",
"A  c #FB6D71",
"S  c #FB6E72",
"D  c #FB7074",
"F  c #FB7175",
"G  c #FB7276",
"H  c #FB7376",
"J  c #FB7477",
"K  c #816E80",
"L  c #9B8B96",
"P  c #FA8D8D",
"I  c #FA8F8F",
"U  c #FA908F",
"Y  c #FA9392",
"T  c #FA9594",
"R  c #C2B8B7",
"E  c #C4BAB9",
"W  c #C6BCBB",
"Q  c #F8B7B1",
"!  c #F8B8B1",
"~  c #F8B9B2",
"^  c #F8B9B3",
"/  c #F8BAB3",
"(  c #F8BBB4",
")  c #F8BCB5",
"_  c #F8BDB6",
"`  c #F8C0B9",
"'  c #F8C1B9",
"]  c #F8C2BA",
"[  c #F8C3BB",
"{  c #F8C7BE",
"}  c #F8C8BF",
"|  c #D5CDC7",
" . c #F7CDC4",
".. c #F7CEC5",
"X. c #F8C9C0",
"o. c #F8CAC1",
"O. c #F8CBC2",
"+. c #F7D1C7",
"@. c #EFEBDE",
"#. c #F6E5D8",
"$. c #F7E5D8",
"%. c #F7E6D9",
"&. c #F6E7DA",
"*. c #F6E8DB",
"=. c #F6EADC",
"-. c #F6EBDD",
";. c #F6F3E4",
":. c #F6F4E5",
">. c #F6F5E5",
",. c #F6F5E6",
"<. c #F6F6E6",
"1. c #F6F6E7",
"2. c #F6F7E7",
"3. c #F9F6E6",
"4. c #F9F6E7",
"5. c #FAF7E7",
"6. c #F6F7E8",
"7. c #F6F8E8",
"8. c #F6F8E9",
"9. c #F6F9E9",
"0. c #F6FAEA",
"q. c #F6FBEB",
"w. c #F6FCEC",
"e. c #F9F8E8",
"r. c #FAF8E8",
"t. c #FBF8E8",
"y. c #FBF9E8",
"u. c #FAF9E9",
"i. c #FBF9E9",
"p. c #F9FAEA",
"a. c #F9FBEA",
"s. c #FBFBEA",
"d. c #FAFBEB",
"f. c #FDFBEA",
"g. c #F9FCEB",
"h. c #FAFCEB",
"j. c #FBFCEB",
"k. c #FFFDEB",
"l. c #FDFEEC",
"z. c #FFFEEC",
/* pixels */
"    $ # @ @ @ @ @ @ @ @ @ @ @ @ @ @ @ @ @ @ @ @ @ @ @ @ @ @ @ @ @ @ @ @ @ @ @ @ @ @ @ @ @ @ @ @ @ @ @ @ @ @ @ @ @ @ @ @ @ @ @ @ @ @ @ @ @ @ # $     ",
"    @ % * ; ; = = = = = = = = = = = = = = = = = = = = = = = = = = = = = = = = = = = = = = = = = = = = = = = = = = = = = = = = = = = = ; ; * % @     ",
"$ @ . & L W E R R R R R R R R R R R R R R R R R R R R R R R R R R R R R R R R R R R R R R R R R R R R R R R R R R R R R R R R R R R R E E L & . @ $ ",
"# % & K | l.l.g.g.g.s.s.s.s.g.s.s.s.s.s.s.s.s.s.s.s.s.s.s.s.s.s.s.s.s.s.s.s.s.s.s.s.s.s.s.s.s.s.s.s.s.s.s.s.s.s.s.s.s.s.s.s.s.s.s.s.s.f.k.| K & % # ",
"@ * L | @.s.s.g.g.g.g.g.s.s.g.s.s.4.4.4.4.4.4.4.4.4.4.4.4.4.4.4.4.4.4.4.4.4.4.4.4.4.4.4.4.4.4.4.4.4.4.4.4.4.4.4.4.4.4.4.4.4.4.4.4.4.4.4.5.@.| L * @ ",
"@ ; W l.s.#.{ Q ^ ^ ^ ^ ( ( ( X.#.>.>.;.;.;.;.;.;.;.;.;.;.;.;.;.;.;.;.;.;.;.;.;.;.;.;.;.;.;.;.;.;.;.;.;.;.;.;.;.;.;.;.;.;.;.;.;.;.;.;.;.;.4.k.W ; @ ",
"@ ; E l.s.} Z j j z z b m m b D X.>.>.;.;.;.;.;.;.;.;.;.;.;.;.;.;.;.;.;.;.;.;.;.;.;.;.;.;.;.;.;.;.;.;.;.;.;.;.;.;.;.;.;.;.;.;.;.;.;.;.;.;.4.f.E ; @ ",
"@ = R s.s.X.Z z b m N f u 1 > b ( 9.>.;.;.;.;.;.;.;.;.;.;.;.;.;.;.;.;.;.;.;.;.;.;.;.;.;.;.;.;.;.;.;.;.;.;.;.;.;.;.;.;.;.;.;.;.;.;.;.;.;.;.4.s.R = @ ",
"@ = R s.s.#.X._ _ ' ' Y f 1 , m ( 9.>.;.;.;.;.;.;.;.;.;.;.;.;.;.;.;.;.;.;.;.;.;.;.;.;.;.;.;.;.;.;.;.;.;.;.;.;.;.;.;.;.;.;.;.;.;.;.;.;.;.;.4.s.R = @ ",
"@ = R s.s.#. .' ' ' ' Y f 1 , m ( 9.>.;.;.;.;.;.;.;.;.;.;.;.;.>.>.>.>.>.>.>.>.>.>.>.>.;.;.;.;.;.;.;.;.;.;.;.;.;.;.;.;.;.;.;.;.;.;.;.;.;.;.4.s.R = @ ",
"@ = R s.s.X.D N N C N f u 1 , b ( 9.>.;.;.;.;.;.;.;.;.;.;.;.;.>.6.9.9.>.>.>.>.9.9.6.>.;.;.;.;.;.;.;.;.;.;.;.;.;.;.;.;.;.;.;.;.;.;.;.;.;.;.4.s.R = @ ",
"@ = R g.g.( b > 1 u f N C N N D X.>.>.;.;.;.;.;.;.;.;.;.;.>.>.*.X.^ ^ X.-.-.X.^ ^ X.*.>.>.;.;.;.;.;.;.;.;.;.;.;.;.;.;.;.;.;.;.;.;.;.;.;.;.4.s.R = @ ",
"@ = R g.g.( m , 1 f Y ' ' ' '  .#.>.>.;.;.;.;.;.;.;.;.;.;.>.9. .D j j J +.+.J j j D  .9.6.;.;.;.;.;.;.;.;.;.;.;.;.;.;.;.;.;.;.;.;.;.;.;.;.4.s.R = @ ",
"@ = R g.g.( m , 1 f Y ' ' _ _ X.#.>.>.;.;.;.;.;.;.;.;.>.>.*. .U f > > g T T g > > f U  .*.>.>.;.;.;.;.;.;.;.;.;.;.;.;.;.;.;.;.;.;.;.;.;.;.4.s.R = @ ",
"@ = R s.g.( b , 1 u f N m b z Z X.6.>.;.;.;.;.;.;.;.;.>.6.X.D f y 7 7 u h h u 7 7 y f D X.6.>.;.;.;.;.;.;.;.;.;.;.;.;.;.;.;.;.;.;.;.;.;.;.4.s.R = @ ",
"@ = R s.s.X.D b m m b b b j j Z } 6.>.;.;.;.;.;.;.;.;.>.9.( b 1 7 t t e 7 7 e e e 7 1 b ( 9.>.;.;.;.;.;.;.;.;.;.;.;.;.;.;.;.;.;.;.;.;.;.;.4.s.R = @ ",
"@ = R s.4.#.X.( ( ( ^ ^ ^ ^ Q { #.>.>.;.;.;.;.;.;.;.;.>.9.( m 1 7 e t e q q e e e 7 1 m ( 9.>.;.;.;.;.;.;.;.;.;.;.;.;.;.;.;.;.;.;.;.;.;.;.4.s.R = @ ",
"@ = R s.4.>.9.w.w.9.9.9.9.w.w.9.>.;.;.;.;.;.;.;.;.;.;.>.9._ N 7 q e e e e e e e e q 7 N _ 9.>.;.;.;.;.;.;.;.;.;.;.;.;.;.;.;.;.;.;.;.;.;.;.4.s.R = @ ",
"@ = R s.4.>.9.w.w.9.9.9.9.w.w.9.>.;.;.;.;.;.;.;.;.;.;.>.9._ N 7 q e e e e e e e e q 7 N _ 9.>.;.;.;.;.;.;.;.;.;.;.;.;.;.;.;.;.;.;.;.;.;.;.4.s.R = @ ",
"@ = R s.s.#.X.^ ^ X.-.-.X.^ ^ X.#.>.>.;.;.;.;.;.;.;.;.>.9.( m 1 7 e e e e e e e e 7 1 m ( 9.>.;.;.;.;.;.;.;.;.;.;.;.;.;.;.;.;.;.;.;.;.;.;.4.s.R = @ ",
"@ ; R s.s.X.D j z J +.+.J j z D X.6.>.;.;.;.;.;.;.;.;.>.9.( b 1 7 e e e e e e e e 7 1 b ( 9.>.;.;.;.;.;.;.;.;.;.;.;.;.;.;.;.;.;.;.;.;.;.;.4.s.R = @ ",
"@ ; R g.g.( b > > h T T g > > b ( 9.>.;.;.;.;.;.;.;.;.>.6.X.D f y 7 e e e e e e 7 y f D X.6.>.;.;.;.;.;.;.;.;.;.;.;.;.;.;.;.;.;.;.;.;.;.;.4.s.R = @ ",
"@ = R g.g.( b 1 1 u h h u 1 1 m ( 9.>.;.;.;.;.;.;.;.;.>.>.*. .U f 1 7 e e e e 7 1 f U  .*.>.>.;.;.;.;.;.;.;.;.;.;.;.;.;.;.;.;.;.;.;.;.;.;.4.s.R = @ ",
"@ = R g.g.( b 1 7 e 7 7 e 7 1 m ( 9.>.;.;.;.;.;.;.;.;.;.;.6.9. .D f y 7 e e 7 y f D  .w.>.;.;.;.;.;.;.;.;.;.;.;.;.;.;.;.;.;.;.;.;.;.;.;.;.4.s.R = @ ",
"@ = R g.g.( b 1 7 e q q e 7 1 b ( 9.>.;.;.;.;.;.;.;.;.;.;.>.>.-. .U f 1 7 7 1 f U  .-.>.>.;.;.;.;.;.;.;.;.;.;.;.;.;.;.;.;.;.;.;.;.;.;.;.;.4.s.R = @ ",
"@ = R s.s.X.D f y 7 e e 7 y f D X.6.>.;.;.;.;.;.;.;.;.;.;.;.;.>.w. .D a t t a D  .9.>.;.;.;.;.;.;.;.;.;.;.;.;.;.;.;.;.;.;.;.;.;.;.;.;.;.;.4.s.R = @ ",
"@ = R s.s.*. .I f 1 7 7 1 f U  .*.>.>.;.;.;.;.;.;.;.;.;.;.;.;.>.6.-. .I p p I  .-.>.>.;.;.;.;.;.;.;.;.;.;.;.;.;.;.;.;.;.;.;.;.;.;.;.;.;.;.4.s.R = @ ",
"@ = R s.4.>.9. .D a t t a D  .9.>.;.;.;.;.;.;.;.;.;.;.;.;.;.;.;.;.6.9.X.Z Z X.9.>.;.;.;.;.;.;.;.;.;.;.;.;.;.;.;.;.;.;.;.;.;.;.;.;.;.;.;.;.4.s.R = @ ",
"@ = R s.4.>.>.-. .I p p I  .-.>.>.;.;.;.;.;.;.;.;.;.;.;.;.;.;.;.;.>.>.*.X.X.*.>.>.;.;.;.;.;.;.;.;.;.;.;.;.;.;.;.;.;.;.;.;.;.;.;.;.;.;.;.;.4.s.R = @ ",
"@ = R s.4.;.;.>.9.X.Z Z X.w.>.;.;.;.;.;.;.;.;.;.;.;.;.;.;.;.;.;.;.;.;.>.6.6.>.;.;.;.;.;.;.;.;.;.;.;.;.;.;.;.;.;.;.;.;.;.;.;.;.;.;.;.;.;.;.4.s.R = @ ",
"@ = R s.4.;.;.>.>.*.X.X.*.>.>.;.;.;.;.;.;.;.;.;.;.;.;.;.;.;.;.;.;.;.;.>.>.>.>.;.;.;.;.;.;.;.;.;.;.;.;.;.;.;.;.;.;.;.;.;.;.;.;.;.;.;.;.;.;.4.s.R = @ ",
"@ = R s.4.;.;.;.;.>.6.6.>.;.;.;.;.;.;.;.;.;.;.;.;.;.;.;.;.;.;.;.;.;.;.;.;.;.;.;.;.;.;.;.;.;.;.;.;.;.;.;.;.;.;.;.;.;.;.;.;.;.;.;.;.;.;.;.;.4.s.R = @ ",
"@ = R s.4.;.;.;.;.>.>.>.>.;.;.;.;.;.;.;.;.;.;.;.;.;.;.;.;.;.;.;.;.;.;.;.;.;.;.;.;.;.;.;.;.;.;.;.;.;.;.;.;.;.;.;.;.;.;.;.;.;.;.;.;.;.;.;.;.4.s.R = @ ",
"@ = R s.4.;.;.;.;.;.;.;.;.;.;.;.;.;.;.;.;.;.;.;.;.;.;.;.;.;.;.;.;.;.;.;.;.;.;.;.;.;.;.;.;.;.;.;.;.;.;.;.;.;.;.;.;.;.;.;.;.;.;.;.;.;.;.;.;.4.s.R = @ ",
"@ = R s.4.;.;.;.;.;.;.;.;.;.;.;.;.;.;.;.;.;.;.;.;.;.;.;.;.;.;.;.;.;.;.;.;.;.;.;.;.;.;.;.;.;.;.;.;.;.;.;.;.;.;.;.;.;.;.;.;.;.;.;.;.;.;.;.;.4.s.R = @ ",
"@ = R s.4.;.;.;.;.;.;.;.;.;.;.;.;.;.;.;.;.;.;.;.;.;.;.;.;.;.;.;.;.;.;.;.;.;.;.;.;.;.;.;.;.;.;.;.;.;.;.;.;.;.;.;.;.;.;.;.;.;.;.;.;.;.;.;.;.4.s.R = @ ",
"@ = R s.4.;.;.;.;.;.;.;.;.;.;.;.;.;.;.;.;.;.;.;.;.;.;.;.;.;.;.;.;.;.;.;.;.;.;.;.;.;.;.;.;.;.;.;.;.;.;.;.;.;.;.;.;.;.;.;.;.;.;.;.;.;.;.;.;.4.s.R = @ ",
"@ = R s.4.;.;.;.;.;.;.;.;.;.;.;.;.;.;.;.;.;.;.;.;.;.;.;.;.;.;.;.;.;.;.;.;.;.;.;.;.;.;.;.;.;.;.;.;.;.;.;.;.;.;.;.;.;.;.;.;.;.;.;.;.;.;.;.;.4.s.R = @ ",
"@ = R s.4.;.;.;.;.;.;.;.;.;.;.;.;.;.;.;.;.;.;.;.;.;.;.;.;.;.;.;.;.;.;.;.;.;.;.;.;.;.;.;.;.;.;.;.;.;.;.;.;.;.;.;.;.;.;.;.;.;.;.;.;.;.;.;.;.4.s.R = @ ",
"@ = R s.4.;.;.;.;.;.;.;.;.;.;.;.;.;.;.;.;.;.;.;.;.;.;.;.;.;.;.;.;.;.;.;.;.;.;.;.;.;.;.;.;.;.;.;.;.;.;.;.;.;.;.;.;.;.;.;.;.;.;.;.;.;.;.;.;.4.s.R = @ ",
"@ = R s.4.;.;.;.;.;.;.;.;.;.;.;.;.;.;.;.;.;.;.;.;.;.;.;.;.;.;.;.;.;.;.;.;.;.;.;.;.;.;.;.;.;.;.;.;.;.;.;.;.;.;.;.;.;.;.;.;.;.;.;.;.;.;.;.;.4.s.R = @ ",
"@ = R s.4.;.;.;.;.;.;.;.;.;.;.;.;.;.;.;.;.;.;.;.;.;.;.;.;.;.;.;.;.;.;.;.;.;.;.;.;.;.;.;.;.;.;.;.;.;.;.;.;.;.;.;.;.;.;.;.;.;.;.;.;.;.;.;.;.4.s.R = @ ",
"@ = R s.4.;.;.;.;.;.;.;.;.;.;.;.;.;.;.;.;.;.;.;.;.;.;.;.;.;.;.;.;.;.;.;.;.;.;.;.;.;.;.;.;.;.;.;.;.;.;.;.;.;.;.;.;.;.;.;.;.;.;.;.;.;.;.;.;.4.s.R = @ ",
"@ = R s.4.;.;.;.;.;.;.;.;.;.;.;.;.;.;.;.;.;.;.;.;.;.;.;.;.;.;.;.;.;.;.;.;.;.;.;.;.;.;.;.;.;.;.;.;.;.;.;.;.;.;.;.;.;.;.;.;.;.;.;.;.;.;.;.;.4.s.R = @ ",
"@ = R s.4.;.;.;.;.;.;.;.;.;.;.;.;.;.;.;.;.;.;.;.;.;.;.;.;.;.;.;.;.;.;.;.;.;.;.;.;.;.;.;.;.;.;.;.;.;.;.;.;.;.;.;.;.;.;.;.;.;.;.;.;.;.;.;.;.4.s.R = @ ",
"@ = R s.4.;.;.;.;.;.;.;.;.;.;.;.;.;.;.;.;.;.;.;.;.;.;.;.;.;.;.;.;.;.;.;.;.;.;.;.;.;.;.;.;.;.;.;.;.;.;.;.;.;.;.;.;.;.;.;.;.;.;.;.;.;.;.;.;.4.s.R = @ ",
"@ = R s.4.;.;.;.;.;.;.;.;.;.;.;.;.;.;.;.;.;.;.;.;.;.;.;.;.;.;.;.;.;.;.;.;.;.;.;.;.;.;.;.;.;.;.;.;.;.;.;.;.;.;.;.;.;.;.;.;.;.;.;.;.;.;.;.;.4.s.R = @ ",
"@ = R s.4.;.;.;.;.;.;.;.;.;.;.;.;.;.;.;.;.;.;.;.;.;.;.;.;.;.;.;.;.;.;.;.;.;.;.;.;.;.;.;.;.;.;.;.;.;.;.;.;.;.;.;.;.;.;.;.;.;.;.;.;.;.;.;.;.4.s.R = @ ",
"@ = R s.4.;.;.;.;.;.;.;.;.;.;.;.;.;.;.;.;.;.;.;.;.;.;.;.;.;.;.;.;.;.;.;.;.;.;.;.;.;.;.;.;.;.;.;.;.;.;.;.;.;.;.;.;.;.;.;.;.;.;.;.;.;.;.;.;.4.s.R = @ ",
"@ = R s.4.;.;.;.;.;.;.;.;.;.;.;.;.;.;.;.;.;.;.;.;.;.;.;.;.;.;.;.;.;.;.;.;.;.;.;.;.;.;.;.;.;.;.;.;.;.;.;.;.;.;.;.;.;.;.;.;.;.;.;.;.;.;.;.;.4.s.R = @ ",
"@ = R s.4.;.;.;.;.;.;.;.;.;.;.;.;.;.;.;.;.;.;.;.;.;.;.;.;.;.;.;.;.;.;.;.;.;.;.;.;.;.;.;.;.;.;.;.;.;.;.;.;.;.;.;.;.;.;.;.;.;.;.;.;.;.;.;.;.4.s.R = @ ",
"@ = R s.4.;.;.;.;.;.;.;.;.;.;.;.;.;.;.;.;.;.;.;.;.;.;.;.;.;.;.;.;.;.;.;.;.;.;.;.;.;.;.;.;.;.;.;.;.;.;.;.;.;.;.;.;.;.;.;.;.;.;.;.;.;.;.;.;.4.s.R = @ ",
"@ = R s.4.;.;.;.;.;.;.;.;.;.;.;.;.;.;.;.;.;.;.;.;.;.;.;.;.;.;.;.;.;.;.;.;.;.;.;.;.;.;.;.;.;.;.;.;.;.;.;.;.;.;.;.;.;.;.;.;.;.;.;.;.;.;.;.;.4.s.R = @ ",
"@ = R s.4.;.;.;.;.;.;.;.;.;.;.;.;.;.;.;.;.;.;.;.;.;.;.;.;.;.;.;.;.;.;.;.;.;.;.;.;.;.;.;.;.;.;.;.;.;.;.;.;.;.;.;.;.;.;.;.;.;.;.;.;.;.;.;.;.4.s.R = @ ",
"@ = R s.4.;.;.;.;.;.;.;.;.;.;.;.;.;.;.;.;.;.;.;.;.;.;.;.;.;.;.;.;.;.;.;.;.;.;.;.;.;.;.;.;.;.;.;.;.;.;.;.;.;.;.;.;.;.;.;.;.;.;.;.;.;.;.;.;.4.s.R = @ ",
"@ = R s.4.;.;.;.;.;.;.;.;.;.;.;.;.;.;.;.;.;.;.;.;.;.;.;.;.;.;.;.;.;.;.;.;.;.;.;.;.;.;.;.;.;.;.;.;.;.;.;.;.;.;.;.;.;.;.;.;.;.;.;.;.;.;.;.;.4.s.R = @ ",
"@ = R s.4.;.;.;.;.;.;.;.;.;.;.;.;.;.;.;.;.;.;.;.;.;.;.;.;.;.;.;.;.;.;.;.;.;.;.;.;.;.;.;.;.;.;.;.;.;.;.;.;.;.;.;.;.;.;.;.;.;.;.;.;.;.;.;.;.4.s.R = @ ",
"@ = R s.4.;.;.;.;.;.;.;.;.;.;.;.;.;.;.;.;.;.;.;.;.;.;.;.;.;.;.;.;.;.;.;.;.;.;.;.;.;.;.;.;.;.;.;.;.;.;.;.;.;.;.;.;.;.;.;.;.;.;.;.;.;.;.;.;.4.s.R = @ ",
"@ = R s.4.;.;.;.;.;.;.;.;.;.;.;.;.;.;.;.;.;.;.;.;.;.;.;.;.;.;.;.;.;.;.;.;.;.;.;.;.;.;.;.;.;.;.;.;.;.;.;.;.;.;.;.;.;.;.;.;.;.;.;.;.;.;.;.;.4.s.R = @ ",
"@ = R s.4.;.;.;.;.;.;.;.;.;.;.;.;.;.;.;.;.;.;.;.;.;.;.;.;.;.;.;.;.;.;.;.;.;.;.;.;.;.;.;.;.;.;.;.;.;.;.;.;.;.;.;.;.;.;.;.;.;.;.;.;.;.;.;.;.4.s.R = @ ",
"@ = R s.4.;.;.;.;.;.;.;.;.;.;.;.;.;.;.;.;.;.;.;.;.;.;.;.;.;.;.;.;.;.;.;.;.;.;.;.;.;.;.;.;.;.;.;.;.;.;.;.;.;.;.;.;.;.;.;.;.;.;.;.;.;.;.;.;.4.s.R = @ ",
"@ = R s.4.;.;.;.;.;.;.;.;.;.;.;.;.;.;.;.;.;.;.;.;.;.;.;.;.;.;.;.;.;.;.;.;.;.;.;.;.;.;.;.;.;.;.;.;.;.;.;.;.;.;.;.;.;.;.;.;.;.;.;.;.;.;.;.;.4.s.R = @ ",
"@ = R s.4.;.;.;.;.;.;.;.;.;.;.;.;.;.;.;.;.;.;.;.;.;.;.;.;.;.;.;.;.;.;.;.;.;.;.;.;.;.;.;.;.;.;.;.;.;.;.;.;.;.;.;.;.;.;.;.;.;.;.;.;.;.;.;.;.4.s.R = @ ",
"@ = R s.4.;.;.;.;.;.;.;.;.;.;.;.;.;.;.;.;.;.;.;.;.;.;.;.;.;.;.;.;.;.;.;.;.;.;.;.;.;.;.;.;.;.;.;.;.;.;.;.;.;.;.;.;.;.;.;.;.;.;.;.;.;.;.;.;.4.s.R = @ ",
"@ = R s.4.;.;.;.;.;.;.;.;.;.;.;.;.;.;.;.;.;.;.;.;.;.;.;.;.;.;.;.;.;.;.;.;.;.;.;.;.;.;.;.;.;.;.;.;.;.;.;.;.;.;.;.;.;.;.;.;.;.;.;.;.;.;.;.;.4.s.R = @ ",
"@ = R s.4.;.;.;.;.;.;.;.;.;.;.;.;.;.;.;.;.;.;.;.;.;.;.;.;.;.;.;.;.;.;.;.;.;.;.;.;.;.;.;.;.;.;.;.;.;.;.;.;.;.;.;.;.;.;.;.;.;.;.;.;.;.;.;.;.4.s.R = @ ",
"@ = R s.4.;.;.;.;.;.;.;.;.;.;.;.;.;.;.;.;.;.;.;.;.;.;.;.;.;.;.;.;.;.;.;.;.;.;.;.;.;.;.;.;.;.;.;.;.;.;.;.;.;.;.;.;.;.;.;.;.;.;.;.;.;.;.;.;.4.s.R = @ ",
"@ = R s.4.;.;.;.;.;.;.;.;.;.;.;.;.;.;.;.;.;.;.;.;.;.;.;.;.;.;.;.;.;.;.;.;.;.;.;.;.;.;.;.;.;.;.;.;.;.;.;.;.;.;.;.;.;.;.;.;.;.;.;.;.;.;.;.;.4.s.R = @ ",
"@ = R s.4.;.;.;.;.;.;.;.;.;.;.;.;.;.;.;.;.;.;.;.;.;.;.;.;.;.;.;.;.;.;.;.;.;.;.;.;.;.;.;.;.;.;.;.;.;.;.;.;.;.;.;.;.;.;.;.;.;.;.;.;.;.;.;.;.4.s.R = @ ",
"@ = R s.4.;.;.;.;.;.;.;.;.;.;.;.;.;.;.;.;.;.;.;.;.;.;.;.;.;.;.;.;.;.;.;.;.;.;.;.;.;.;.;.;.;.;.;.;.;.;.;.;.;.;.;.;.;.;.;.;.;.;.;.;.;.;.;.;.4.s.R = @ ",
"@ = R s.4.;.;.;.;.;.;.;.;.;.;.;.;.;.;.;.;.;.;.;.;.;.;.;.;.;.;.;.;.;.;.;.;.;.;.;.;.;.;.;.;.;.;.;.;.;.;.;.;.;.;.;.;.;.;.;.;.;.;.;.;.;.;.;.;.4.s.R = @ ",
"@ = R s.4.;.;.;.;.;.;.;.;.;.;.;.;.;.;.;.;.;.;.;.;.;.;.;.;.;.;.;.;.;.;.;.;.;.;.;.;.;.;.;.;.;.;.;.;.;.;.;.;.;.;.;.;.;.;.;.;.>.>.>.>.;.;.;.;.4.s.R = @ ",
"@ = R s.4.;.;.;.;.;.;.;.;.;.;.;.;.;.;.;.;.;.;.;.;.;.;.;.;.;.;.;.;.;.;.;.;.;.;.;.;.;.;.;.;.;.;.;.;.;.;.;.;.;.;.;.;.;.;.;.;.>.6.6.>.;.;.;.;.4.s.R = @ ",
"@ = R s.4.;.;.;.;.;.;.;.;.;.;.;.;.;.;.;.;.;.;.;.;.;.;.;.;.;.;.;.;.;.;.>.>.>.>.;.;.;.;.;.;.;.;.;.;.;.;.;.;.;.;.;.;.;.;.>.>.*.X.X.#.>.>.;.;.4.s.R = @ ",
"@ = R s.4.;.;.;.;.;.;.;.;.;.;.;.;.;.;.;.;.;.;.;.;.;.;.;.;.;.;.;.;.;.;.>.6.6.>.;.;.;.;.;.;.;.;.;.;.;.;.;.;.;.;.;.;.;.;.>.9.X.Z Z X.9.>.;.;.4.s.R = @ ",
"@ = R s.4.;.;.;.;.;.;.;.;.;.;.;.;.;.;.;.;.;.;.;.;.;.;.;.;.;.;.;.;.>.>.*.X.X.*.>.>.;.;.;.;.;.;.;.;.;.;.;.;.;.;.;.;.>.>.-. .I p p I  .-.>.>.4.s.R = @ ",
"@ = R s.4.;.;.;.;.;.;.;.;.;.;.;.;.;.;.;.;.;.;.;.;.;.;.;.;.;.;.;.;.6.w.X.Z Z X.9.>.;.;.;.;.;.;.;.;.;.;.;.;.;.;.;.;.>.9. .D a t t a D  .9.6.4.s.R = @ ",
"@ = R s.4.;.;.;.;.;.;.;.;.;.;.;.;.;.;.;.;.;.;.;.;.;.;.;.;.;.;.>.6.-. .I p p I  .-.>.>.;.;.;.;.;.;.;.;.;.;.;.;.>.>.*. .U f 1 q 7 1 f U  .*.s.s.R = @ ",
"@ = R s.4.;.;.;.;.;.;.;.;.;.;.;.;.;.;.;.;.;.;.;.;.;.;.;.;.;.;.>.9. .D a t t a D  .9.>.;.;.;.;.;.;.;.;.;.;.;.;.>.6.X.D f y 7 e e 7 y f D X.s.s.R = @ ",
"@ = R s.4.;.;.;.;.;.;.;.;.;.;.;.;.;.;.;.;.;.;.;.;.;.;.;.;.>.>.-. .U f 1 7 7 1 f U  .-.>.>.;.;.;.;.;.;.;.;.;.;.>.9.( b 1 7 e q q e 7 1 b ( g.g.R = @ ",
"@ = R s.4.;.;.;.;.;.;.;.;.;.;.;.;.;.;.;.;.;.;.;.;.;.;.;.;.>.9. .D f y 7 e e 7 y f D  .w.6.;.;.;.;.;.;.;.;.;.;.>.9.( m 1 7 e 7 7 e 7 1 b ( g.g.R = @ ",
"@ = R s.4.;.;.;.;.;.;.;.;.;.;.;.;.;.;.;.;.;.;.;.;.;.;.>.>.*. .U f 1 7 e e e e 7 1 f U  .*.>.>.;.;.;.;.;.;.;.;.>.9._ m 1 1 u h h u 1 1 b ( g.g.R = @ ",
"@ = R s.4.;.;.;.;.;.;.;.;.;.;.;.;.;.;.;.;.;.;.;.;.;.;.>.6.X.D f y 7 q e e e e e 7 y f D X.6.>.;.;.;.;.;.;.;.;.>.9.( b > > f T T g > > b ( g.g.R = @ ",
"@ = R s.4.;.;.;.;.;.;.;.;.;.;.;.;.;.;.;.;.;.;.;.;.;.;.>.9.( b 1 7 e e e e e e e e 7 1 b ( 9.>.;.;.;.;.;.;.;.;.>.6.X.D j j J +.+.J j j D X.s.s.R = @ ",
"@ = R s.4.;.;.;.;.;.;.;.;.;.;.;.;.;.;.;.;.;.;.;.;.;.;.>.9.( m 1 7 e e e e e e e e 7 1 m ( 9.>.;.;.;.;.;.;.;.;.>.>.#.X.^ ^ X.-.-.X.^ ^ X.#.4.s.R = @ ",
"@ = R s.4.;.;.;.;.;.;.;.;.;.;.;.;.;.;.;.;.;.;.;.;.;.;.>.9._ N 7 q e e e e e e e e q 7 N _ 9.>.;.;.;.;.;.;.;.;.;.;.>.9.w.w.9.9.9.9.w.w.9.>.4.s.R = @ ",
"@ = R s.4.;.;.;.;.;.;.;.;.;.;.;.;.;.;.;.;.;.;.;.;.;.;.>.9._ N 7 q e e e e e e e e q 7 N _ 9.>.;.;.;.;.;.;.;.;.;.;.>.9.w.w.9.9.9.9.w.w.9.>.4.s.R = @ ",
"@ = R s.4.;.;.;.;.;.;.;.;.;.;.;.;.;.;.;.;.;.;.;.;.;.;.>.9.( b 1 7 t t e q q e e e 7 1 m ( 9.>.;.;.;.;.;.;.;.;.>.>.#.{ Q ^ ^ ^ ^ ( _ ( X.#.4.s.R = @ ",
"@ = R s.4.;.;.;.;.;.;.;.;.;.;.;.;.;.;.;.;.;.;.;.;.;.;.>.9.( b 1 7 e e e 7 7 e e e 7 1 b ( 9.>.;.;.;.;.;.;.;.;.>.6.} Z j j b b b m m b D X.s.s.R = @ ",
"@ = R s.4.;.;.;.;.;.;.;.;.;.;.;.;.;.;.;.;.;.;.;.;.;.;.>.6.X.D f y 7 7 u h h u 7 7 y f D X.>.>.;.;.;.;.;.;.;.;.>.6.X.Z z b m N f u 1 , b ( g.g.R = @ ",
"@ = R s.4.;.;.;.;.;.;.;.;.;.;.;.;.;.;.;.;.;.;.;.;.;.;.>.>.*. .U f > > h T T g > > f U  .*.>.>.;.;.;.;.;.;.;.;.>.>.#.X._ _ ' ' Y f 1 , m ( g.g.R = @ ",
"@ = R s.4.;.;.;.;.;.;.;.;.;.;.;.;.;.;.;.;.;.;.;.;.;.;.;.;.>.9. .D j j J +.+.J j z D  .9.>.;.;.;.;.;.;.;.;.;.;.>.>.#. .' ' ' ' Y f 1 , m ( g.g.R = @ ",
"@ = R s.4.;.;.;.;.;.;.;.;.;.;.;.;.;.;.;.;.;.;.;.;.;.;.;.;.>.>.*.X.^ ^ X.-.-.X.^ ^ X.*.>.>.;.;.;.;.;.;.;.;.;.;.>.6.X.D N N C N f y 1 > b ( g.g.R = @ ",
"@ = R s.4.;.;.;.;.;.;.;.;.;.;.;.;.;.;.;.;.;.;.;.;.;.;.;.;.;.;.>.>.9.9.6.>.>.>.9.9.6.>.;.;.;.;.;.;.;.;.;.;.;.;.>.9.( b > 1 u f N C N m D X.s.s.R = @ ",
"@ = R s.4.;.;.;.;.;.;.;.;.;.;.;.;.;.;.;.;.;.;.;.;.;.;.;.;.;.;.>.>.>.>.>.>.>.>.>.>.>.>.;.;.;.;.;.;.;.;.;.;.;.;.>.9.( m , 1 f Y ' ' ' '  .#.s.s.R = @ ",
"@ = R s.4.;.;.;.;.;.;.;.;.;.;.;.;.;.;.;.;.;.;.;.;.;.;.;.;.;.;.;.;.;.;.;.;.;.;.;.;.;.;.;.;.;.;.;.;.;.;.;.;.;.;.>.9.( m , 1 f Y ' ' _ _ X.#.s.s.R = @ ",
"@ = R s.4.;.;.;.;.;.;.;.;.;.;.;.;.;.;.;.;.;.;.;.;.;.;.;.;.;.;.;.;.;.;.;.;.;.;.;.;.;.;.;.;.;.;.;.;.;.;.;.;.;.;.>.9.( b > 1 u f N m b z Z X.s.s.R = @ ",
"@ ; E f.4.;.;.;.;.;.;.;.;.;.;.;.;.;.;.;.;.;.;.;.;.;.;.;.;.;.;.;.;.;.;.;.;.;.;.;.;.;.;.;.;.;.;.;.;.;.;.;.;.;.;.>.>.X.D b b m b z b j j Z } s.l.E ; @ ",
"@ ; E k.4.;.;.;.;.;.;.;.;.;.;.;.;.;.;.;.;.;.;.;.;.;.;.;.;.;.;.;.;.;.;.;.;.;.;.;.;.;.;.;.;.;.;.;.;.;.;.;.;.;.;.>.>.#.X.( ( ( ^ ^ ^ ^ Q { #.s.l.W ; @ ",
"@ * L | @.5.4.4.4.4.4.4.4.4.4.4.4.4.4.4.4.4.4.4.4.4.4.4.4.4.4.4.4.4.4.4.4.4.4.4.4.4.4.4.4.4.4.4.4.4.4.4.4.4.4.4.4.s.s.g.s.s.s.g.g.g.g.g.s.@.| L * @ ",
"# % & K | k.f.s.s.s.s.s.s.s.s.s.s.s.s.s.s.s.s.s.s.s.s.s.s.s.s.s.s.s.s.s.s.s.s.s.s.s.s.s.s.s.s.s.s.s.s.s.s.s.s.s.s.s.s.g.s.g.g.g.g.g.g.l.l.| K & % # ",
"$ @ . & L W E R R R R R R R R R R R R R R R R R R R R R R R R R R R R R R R R R R R R R R R R R R R R R R R R R R R R R R R R R R R R E W L & . @ $ ",
"    @ % * ; ; = = = = = = = = = = = = = = = = = = = = = = = = = = = = = = = = = = = = = = = = = = = = = = = = = = = = = = = = = ; = = ; ; * % @     ",
"    $ # @ @ @ @ @ @ @ @ @ @ @ @ @ @ @ @ @ @ @ @ @ @ @ @ @ @ @ @ @ @ @ @ @ @ @ @ @ @ @ @ @ @ @ @ @ @ @ @ @ @ @ @ @ @ @ @ @ @ @ @ @ @ @ @ @ @ # $     "
};
