/* XPM */
static char *hearts_5[] = {
/* columns rows colors chars-per-pixel */
"74 104 149 2 ",
"   c None",
".  c #1F002C",
"X  c #20012D",
"o  c #21012D",
"O  c #21012E",
"+  c #22032F",
"@  c #23032F",
"#  c #250632",
"$  c #270833",
"%  c #30133B",
"&  c #482E50",
"*  c #4B3152",
"=  c #583F5D",
"-  c #59405D",
";  c #59415E",
":  c #FF0216",
">  c #FF0317",
",  c #FF0417",
"<  c #FF0418",
"1  c #FF0518",
"2  c #FF0519",
"3  c #FF0619",
"4  c #FF071A",
"5  c #FF091C",
"6  c #FF0A1C",
"7  c #FF0A1D",
"8  c #FF0B1D",
"9  c #FF0B1E",
"0  c #FF0C1E",
"q  c #FF0C1F",
"w  c #FF0D20",
"e  c #FF0E20",
"r  c #FF0F21",
"t  c #FF1627",
"y  c #FF1728",
"u  c #FF1828",
"i  c #FF1B2B",
"p  c #FE303D",
"a  c #FE3340",
"s  c #FE3440",
"d  c #FE3441",
"f  c #FD3642",
"g  c #FD3743",
"h  c #FD3945",
"j  c #FD3C48",
"k  c #FD3E49",
"l  c #FD3F4A",
"z  c #FD404B",
"x  c #FD414B",
"c  c #FD414C",
"v  c #FD424C",
"b  c #FD424D",
"n  c #FD434E",
"m  c #FD444E",
"M  c #FD444F",
"N  c #FD454F",
"B  c #FD4550",
"V  c #FD4650",
"C  c #FD4751",
"Z  c #FD4953",
"A  c #FB6C70",
"S  c #FB6D71",
"D  c #FB6E72",
"F  c #FB7074",
"G  c #FB7175",
"H  c #FB7276",
"J  c #FB7376",
"K  c #FB7377",
"L  c #FB7477",
"P  c #FB7578",
"I  c #816E80",
"U  c #9B8B96",
"Y  c #FA8D8D",
"T  c #FA8F8F",
"R  c #FA908F",
"E  c #FA9392",
"W  c #FA9594",
"Q  c #C2B8B7",
"!  c #C4BAB9",
"~  c #C6BCBB",
"^  c #F8B7B1",
"/  c #F8B8B1",
"(  c #F8B9B2",
")  c #F8B9B3",
"_  c #F8BAB3",
"`  c #F8BBB4",
"'  c #F8BCB5",
"]  c #F8BDB6",
"[  c #F8BFB7",
"{  c #F8C0B9",
"}  c #F8C1B9",
"|  c #F8C2BA",
" . c #F8C3BB",
".. c #F8C7BE",
"X. c #F8C8BF",
"o. c #D5CDC7",
"O. c #F7CDC4",
"+. c #F7CEC5",
"@. c #F7CFC5",
"#. c #F8C9C0",
"$. c #F8CAC1",
"%. c #F8CBC2",
"&. c #F8CDC3",
"*. c #F7D0C6",
"=. c #F7D1C7",
"-. c #EFEBDE",
";. c #F7E5D8",
":. c #F6E6D9",
">. c #F7E6D9",
",. c #F6E7DA",
"<. c #F6E8DB",
"1. c #F6EADC",
"2. c #F6EBDD",
"3. c #F6EEE0",
"4. c #F6F3E4",
"5. c #F6F4E5",
"6. c #F6F5E5",
"7. c #F6F5E6",
"8. c #F6F6E6",
"9. c #F6F6E7",
"0. c #F6F7E7",
"q. c #F9F6E6",
"w. c #F9F6E7",
"e. c #FAF7E7",
"r. c #F6F7E8",
"t. c #F6F8E8",
"y. c #F6F8E9",
"u. c #F6F9E9",
"i. c #F6FAEA",
"p. c #F6FBEB",
"a. c #F6FCEC",
"s. c #F6FDED",
"d. c #F6FFEE",
"f. c #F9F8E8",
"g. c #FAF8E8",
"h. c #FBF8E8",
"j. c #FBF9E8",
"k. c #FAF9E9",
"l. c #FBF9E9",
"z. c #F9FAEA",
"x. c #F9FBEA",
"c. c #FBFBEA",
"v. c #FAFBEB",
"b. c #FDFBEA",
"n. c #F9FCEB",
"m. c #FBFCEB",
"M. c #FFFDEB",
"N. c #FDFEEC",
"B. c #FFFEEC",
/* pixels */
"    $ # @ @ @ @ @ @ @ @ @ @ @ @ @ @ @ @ @ @ @ @ @ @ @ @ @ @ @ @ @ @ @ @ @ @ @ @ @ @ @ @ @ @ @ @ @ @ @ @ @ @ @ @ @ @ @ @ @ @ @ @ @ @ @ @ @ @ # $     ",
"    @ % * ; ; ; = = = = = = = = = = = = = = = = = = = = = = = = = = = = = = = = = = = = = = = = = = = = = = = = = = = = = = = = = = = ; ; * % @     ",
"$ @ . & U ~ ! Q Q Q Q Q Q Q Q Q Q Q Q Q Q Q Q Q Q Q Q Q Q Q Q Q Q Q Q Q Q Q Q Q Q Q Q Q Q Q Q Q Q Q Q Q Q Q Q Q Q Q Q Q Q Q Q Q Q Q Q ! ~ U & . @ $ ",
"# % & I o.N.N.m.m.m.k.k.k.k.m.k.k.k.k.k.k.k.k.k.k.k.k.k.k.k.k.k.k.k.k.k.k.k.k.k.k.k.k.k.k.k.k.k.k.k.k.k.k.k.k.k.k.k.k.k.k.k.k.k.k.k.k.b.M.o.I & % # ",
"@ * U o.-.k.k.m.m.m.m.m.k.m.m.k.k.e.e.e.e.e.e.e.e.e.e.e.e.e.e.e.e.e.e.e.e.e.e.e.e.e.e.e.e.e.e.e.e.e.e.e.e.e.e.e.e.e.e.e.e.e.e.e.e.e.e.e.k.-.o.U * @ ",
"@ ; ~ N.k.:.#.` ` ` ( ( ( ^ ^ ..:.6.6.4.4.4.4.4.4.4.4.4.4.4.4.4.4.4.4.4.4.4.4.4.4.4.4.4.4.4.4.4.4.4.4.4.4.4.4.4.4.4.4.4.4.4.4.4.4.4.4.4.4.k.M.~ ; @ ",
"@ ; ! N.k.#.F b N N b b b j j A X.r.6.4.4.4.4.4.4.4.4.4.4.4.4.4.4.4.4.4.4.4.4.4.4.4.4.4.4.4.4.4.4.4.4.4.4.4.4.4.4.4.4.4.4.4.4.4.4.4.4.4.4.e.b.! ; @ ",
"@ = Q m.m.` b > 1 u f B N b z A #.6.6.4.4.4.4.4.4.4.4.4.4.4.4.4.4.4.4.4.4.4.4.4.4.4.4.4.4.4.4.4.4.4.4.4.4.4.4.4.4.4.4.4.4.4.4.4.4.4.4.4.4.e.k.Q = @ ",
"@ ; Q m.m.` N , 1 f E  . .] ] #.:.6.6.4.4.4.4.4.4.4.4.4.4.4.4.4.4.4.4.4.4.4.4.4.4.4.4.4.4.4.4.4.4.4.4.4.4.4.4.4.4.4.4.4.4.4.4.4.4.4.4.4.4.e.k.Q = @ ",
"@ ; Q m.m.` b , 1 f E  . . . .O.:.6.6.6.6.6.6.6.6.6.6.6.6.6.6.4.4.4.4.4.4.4.4.4.4.4.4.6.6.6.6.6.6.6.6.6.6.6.6.4.4.4.4.4.4.4.4.4.4.4.4.4.4.e.k.Q = @ ",
"@ ; Q m.m.` b > 1 u f B Z B B F #.6.6.6.r.i.i.6.6.6.6.i.i.r.6.4.4.4.4.4.4.4.4.4.4.4.4.6.r.i.i.r.6.6.6.i.i.r.6.4.4.4.4.4.4.4.4.4.4.4.4.4.4.e.k.Q = @ ",
"@ ; Q k.k.#.F B B Z B f y 1 > b ` i.i.<.#.( ( #.2.2.#.( ( #.<.6.6.4.4.4.4.4.4.4.4.6.6.<.#.( ( #.2.2.#.( ( #.<.6.6.4.4.4.4.4.4.4.4.4.4.4.4.e.k.Q = @ ",
"@ = Q k.k.:.O. . . . .E f 1 , b ` a.a.O.F j j L =.=.L j j F O.i.6.4.4.4.4.4.4.4.4.6.i.O.F j j L =.=.L j j F O.i.6.4.4.4.4.4.4.4.4.4.4.4.4.e.k.Q = @ ",
"@ = Q k.k.:.#.] ]  . .E f 1 , N ] 3.=.R f > > h W W f > > f R O.<.6.6.4.4.4.4.6.6.<.O.R f > > g W W f > > f R O.<.6.6.4.4.4.4.4.4.4.4.4.4.e.k.Q = @ ",
"@ = Q k.k.#.A z b N B f u 1 , N [ =.P f y 7 7 u h h u 7 7 y f F #.6.6.4.4.4.4.6.6.#.F f y 7 7 u h h u 7 7 y f F #.r.6.4.4.4.4.4.4.4.4.4.4.e.k.Q = @ ",
"@ = Q k.k.X.A j j z z b N N b F O.] N 1 7 e e e 7 7 e e e 7 1 b ` i.6.4.4.4.4.6.i.` b 1 7 e e e 7 7 e e e 7 1 b ` i.6.4.4.4.4.4.4.4.4.4.4.e.k.Q = @ ",
"@ = Q k.e.:...^ ( ( ( ( ` ` ` &.2.] N 1 7 e e e q q e t t 7 1 b ` i.6.4.4.4.4.6.i.` N 1 7 e e e q q e e e 7 1 b ` i.6.4.4.4.4.4.4.4.4.4.4.e.k.Q = @ ",
"@ = Q k.e.6.i.a.a.i.i.i.i.a.a.a.i.] B 7 q e e e e e e e e q 7 B ] i.6.4.4.4.4.6.i.] B 7 q e e e e e e e e q 7 B ] i.6.4.4.4.4.4.4.4.4.4.4.e.k.Q = @ ",
"@ = Q k.e.6.i.a.a.i.i.i.i.a.a.a.i.] B 7 q e e e e e e e e q 7 B ] i.6.4.4.4.4.6.i.] B 7 q e e e e e e e e q 7 B ] i.6.4.4.4.4.4.4.4.4.4.4.e.k.Q = @ ",
"@ = Q k.k.:.#.( ( #.2.2.#.( ( &.2.] N 1 7 e e e e e e e e 7 1 b ` i.6.4.4.4.4.6.i.` N 1 7 t e e e e e e e 7 1 N ` i.6.4.4.4.4.4.4.4.4.4.4.e.k.Q = @ ",
"@ ; Q k.k.#.F j z L =.=.L j j F O.] N 1 7 e e e e e e e e 7 1 b ` i.6.4.4.4.4.6.i.` b 1 7 e e e e e e e e 7 1 b ` i.6.4.4.4.4.4.4.4.4.4.4.e.k.Q = @ ",
"@ ; Q m.m.` b > > h W W g > > N ] =.P f y 7 e e e e e e 7 y f F #.r.6.4.4.4.4.6.6.#.F f y 7 e e e e e e 7 y f F #.6.6.4.4.4.4.4.4.4.4.4.4.e.k.Q = @ ",
"@ = Q m.m.` b 1 1 u h h u 1 1 N ] 3.=.R f 1 7 e e e e 7 1 f R O.<.6.6.4.4.4.4.6.6.<.O.T f 1 7 e t e t 7 1 f T O.<.6.6.4.4.4.4.4.4.4.4.4.4.e.k.Q = @ ",
"@ = Q m.m.` b 1 7 e 7 7 e 7 1 N ` a.a.O.F f y 7 e e 7 y f F O.i.6.4.4.4.4.4.4.4.4.6.i.O.F f y 7 e e 7 y f F O.i.6.4.4.4.4.4.4.4.4.4.4.4.4.e.k.Q = @ ",
"@ = Q m.m.` b 1 7 e q q e 7 1 b ` i.i.2.O.R f 1 7 q 1 f R O.2.6.6.4.4.4.4.4.4.4.4.6.6.2.O.R f 1 7 7 1 f R O.2.6.6.4.4.4.4.4.4.4.4.4.4.4.4.e.k.Q = @ ",
"@ = Q k.k.#.F f y 7 e e 7 y f F #.6.6.6.i.O.F a t t a F O.i.6.4.4.4.4.4.4.4.4.4.4.4.4.6.i.O.F a t t a F O.i.6.4.4.4.4.4.4.4.4.4.4.4.4.4.4.e.k.Q = @ ",
"@ = Q k.k.<.O.T f 1 7 7 1 f R O.<.6.6.6.6.2.O.T p p T O.2.6.6.4.4.4.4.4.4.4.4.4.4.4.4.6.6.2.O.T p p T O.2.6.6.4.4.4.4.4.4.4.4.4.4.4.4.4.4.e.k.Q = @ ",
"@ = Q k.e.6.i.O.F a t t a F O.i.r.4.4.4.4.6.i.#.A A #.i.6.4.4.4.4.4.4.4.4.4.4.4.4.4.4.4.4.6.i.#.A A #.i.6.4.4.4.4.4.4.4.4.4.4.4.4.4.4.4.4.e.k.Q = @ ",
"@ = Q k.e.6.6.2.O.T p p T O.2.6.6.4.4.4.4.6.6.:.#.#.<.6.6.4.4.4.4.4.4.4.4.4.4.4.4.4.4.4.4.6.6.<.#.#.<.6.6.4.4.4.4.4.4.4.4.4.4.4.4.4.4.4.4.e.k.Q = @ ",
"@ = Q k.e.4.4.6.i.#.A A #.p.6.4.4.4.4.4.4.4.4.6.r.r.6.4.4.4.4.4.4.4.4.4.4.4.4.4.4.4.4.4.4.4.4.6.r.r.6.4.4.4.4.4.4.4.4.4.4.4.4.4.4.4.4.4.4.e.k.Q = @ ",
"@ = Q k.e.4.4.6.6.<.#.#.<.6.6.4.4.4.4.4.4.4.4.6.6.6.6.4.4.4.4.4.4.4.4.4.4.4.4.4.4.4.4.4.4.4.4.6.6.6.6.4.4.4.4.4.4.4.4.4.4.4.4.4.4.4.4.4.4.e.k.Q = @ ",
"@ = Q k.e.4.4.4.4.6.r.r.6.4.4.4.4.4.4.4.4.4.4.4.4.4.4.4.4.4.4.4.4.4.4.4.4.4.4.4.4.4.4.4.4.4.4.4.4.4.4.4.4.4.4.4.4.4.4.4.4.4.4.4.4.4.4.4.4.e.k.Q = @ ",
"@ = Q k.e.4.4.4.4.6.6.6.6.4.4.4.4.4.4.4.4.4.4.4.4.4.4.4.4.4.4.4.4.4.4.4.4.4.4.4.4.4.4.4.4.4.4.4.4.4.4.4.4.4.4.4.4.4.4.4.4.4.4.4.4.4.4.4.4.e.k.Q = @ ",
"@ = Q k.e.4.4.4.4.4.4.4.4.4.4.4.4.4.4.4.4.4.4.4.4.4.4.4.4.4.4.4.4.4.4.4.4.4.4.4.4.4.4.4.4.4.4.4.4.4.4.4.4.4.4.4.4.4.4.4.4.4.4.4.4.4.4.4.4.e.k.Q = @ ",
"@ = Q k.e.4.4.4.4.4.4.4.4.4.4.4.4.4.4.4.4.4.4.4.4.4.4.4.4.4.4.4.4.4.4.4.4.4.4.4.4.4.4.4.4.4.4.4.4.4.4.4.4.4.4.4.4.4.4.4.4.4.4.4.4.4.4.4.4.e.k.Q = @ ",
"@ = Q k.e.4.4.4.4.4.4.4.4.4.4.4.4.4.4.4.4.4.4.4.4.4.4.4.4.4.4.4.4.4.4.4.4.4.4.4.4.4.4.4.4.4.4.4.4.4.4.4.4.4.4.4.4.4.4.4.4.4.4.4.4.4.4.4.4.e.k.Q = @ ",
"@ = Q k.e.4.4.4.4.4.4.4.4.4.4.4.4.4.4.4.4.4.4.4.4.4.4.4.4.4.4.4.4.4.4.4.4.4.4.4.4.4.4.4.4.4.4.4.4.4.4.4.4.4.4.4.4.4.4.4.4.4.4.4.4.4.4.4.4.e.k.Q = @ ",
"@ = Q k.e.4.4.4.4.4.4.4.4.4.4.4.4.4.4.4.4.4.4.4.4.4.4.4.4.4.4.4.4.4.4.4.4.4.4.4.4.4.4.4.4.4.4.4.4.4.4.4.4.4.4.4.4.4.4.4.4.4.4.4.4.4.4.4.4.e.k.Q = @ ",
"@ = Q k.e.4.4.4.4.4.4.4.4.4.4.4.4.4.4.4.4.4.4.4.4.4.4.4.4.4.4.4.4.4.4.4.4.4.4.4.4.4.4.4.4.4.4.4.4.4.4.4.4.4.4.4.4.4.4.4.4.4.4.4.4.4.4.4.4.e.k.Q = @ ",
"@ = Q k.e.4.4.4.4.4.4.4.4.4.4.4.4.4.4.4.4.4.4.4.4.4.4.4.4.4.4.4.4.4.4.4.4.4.4.4.4.4.4.4.4.4.4.4.4.4.4.4.4.4.4.4.4.4.4.4.4.4.4.4.4.4.4.4.4.e.k.Q = @ ",
"@ = Q k.e.4.4.4.4.4.4.4.4.4.4.4.4.4.4.4.4.4.4.4.4.4.4.4.4.4.4.4.4.4.4.4.4.4.4.4.4.4.4.4.4.4.4.4.4.4.4.4.4.4.4.4.4.4.4.4.4.4.4.4.4.4.4.4.4.e.k.Q = @ ",
"@ = Q k.e.4.4.4.4.4.4.4.4.4.4.4.4.4.4.4.4.4.4.4.4.4.4.4.4.4.4.6.6.6.6.6.6.6.6.6.6.6.6.4.4.4.4.4.4.4.4.4.4.4.4.4.4.4.4.4.4.4.4.4.4.4.4.4.4.e.k.Q = @ ",
"@ = Q k.e.4.4.4.4.4.4.4.4.4.4.4.4.4.4.4.4.4.4.4.4.4.4.4.4.4.4.6.r.i.i.6.6.6.6.i.i.r.6.4.4.4.4.4.4.4.4.4.4.4.4.4.4.4.4.4.4.4.4.4.4.4.4.4.4.e.k.Q = @ ",
"@ = Q k.e.4.4.4.4.4.4.4.4.4.4.4.4.4.4.4.4.4.4.4.4.4.4.4.4.6.6.<.#.( ( #.2.2.#.( ( #.<.6.6.4.4.4.4.4.4.4.4.4.4.4.4.4.4.4.4.4.4.4.4.4.4.4.4.e.k.Q = @ ",
"@ = Q k.e.4.4.4.4.4.4.4.4.4.4.4.4.4.4.4.4.4.4.4.4.4.4.4.4.6.i.O.F j j L =.=.L j j F O.i.r.4.4.4.4.4.4.4.4.4.4.4.4.4.4.4.4.4.4.4.4.4.4.4.4.e.k.Q = @ ",
"@ = Q k.e.4.4.4.4.4.4.4.4.4.4.4.4.4.4.4.4.4.4.4.4.4.4.6.6.<.O.T f > > g W W g > > f R O.<.6.6.4.4.4.4.4.4.4.4.4.4.4.4.4.4.4.4.4.4.4.4.4.4.e.k.Q = @ ",
"@ = Q k.e.4.4.4.4.4.4.4.4.4.4.4.4.4.4.4.4.4.4.4.4.4.4.6.r.#.F f y 7 7 u h h u 7 7 y f F #.6.6.4.4.4.4.4.4.4.4.4.4.4.4.4.4.4.4.4.4.4.4.4.4.e.k.Q = @ ",
"@ = Q k.e.4.4.4.4.4.4.4.4.4.4.4.4.4.4.4.4.4.4.4.4.4.4.6.i.` b 1 7 t t e 7 7 e e e 7 1 b ` i.6.4.4.4.4.4.4.4.4.4.4.4.4.4.4.4.4.4.4.4.4.4.4.e.k.Q = @ ",
"@ = Q k.e.4.4.4.4.4.4.4.4.4.4.4.4.4.4.4.4.4.4.4.4.4.4.6.i.` b 1 7 e e e q q e e e 7 1 b ` i.6.4.4.4.4.4.4.4.4.4.4.4.4.4.4.4.4.4.4.4.4.4.4.e.k.Q = @ ",
"@ = Q k.e.4.4.4.4.4.4.4.4.4.4.4.4.4.4.4.4.4.4.4.4.4.4.6.i.] B 7 q e e e e e e e e 7 7 B ] i.6.4.4.4.4.4.4.4.4.4.4.4.4.4.4.4.4.4.4.4.4.4.4.e.k.Q = @ ",
"@ = Q k.e.4.4.4.4.4.4.4.4.4.4.4.4.4.4.4.4.4.4.4.4.4.4.6.i.] B 7 q e e e e e e e e q 7 B ] i.6.4.4.4.4.4.4.4.4.4.4.4.4.4.4.4.4.4.4.4.4.4.4.e.k.Q = @ ",
"@ = Q k.e.4.4.4.4.4.4.4.4.4.4.4.4.4.4.4.4.4.4.4.4.4.4.6.i.` N 1 7 e t e e e e e e 7 1 N ` i.6.4.4.4.4.4.4.4.4.4.4.4.4.4.4.4.4.4.4.4.4.4.4.e.k.Q = @ ",
"@ = Q k.e.4.4.4.4.4.4.4.4.4.4.4.4.4.4.4.4.4.4.4.4.4.4.6.i.` b 1 7 t e e e e e e e 7 1 b ` i.6.4.4.4.4.4.4.4.4.4.4.4.4.4.4.4.4.4.4.4.4.4.4.e.k.Q = @ ",
"@ = Q k.e.4.4.4.4.4.4.4.4.4.4.4.4.4.4.4.4.4.4.4.4.4.4.6.r.#.F f y 7 e e e e e e 7 y f F #.r.6.4.4.4.4.4.4.4.4.4.4.4.4.4.4.4.4.4.4.4.4.4.4.e.k.Q = @ ",
"@ = Q k.e.4.4.4.4.4.4.4.4.4.4.4.4.4.4.4.4.4.4.4.4.4.4.6.6.<.O.R f 1 7 e e e e 7 1 f R O.<.6.6.4.4.4.4.4.4.4.4.4.4.4.4.4.4.4.4.4.4.4.4.4.4.e.k.Q = @ ",
"@ = Q k.e.4.4.4.4.4.4.4.4.4.4.4.4.4.4.4.4.4.4.4.4.4.4.4.4.6.i.O.F f y 7 e e 7 y f F O.i.6.4.4.4.4.4.4.4.4.4.4.4.4.4.4.4.4.4.4.4.4.4.4.4.4.e.k.Q = @ ",
"@ = Q k.e.4.4.4.4.4.4.4.4.4.4.4.4.4.4.4.4.4.4.4.4.4.4.4.4.6.6.2.O.T f 1 7 7 1 f R O.2.6.6.4.4.4.4.4.4.4.4.4.4.4.4.4.4.4.4.4.4.4.4.4.4.4.4.e.k.Q = @ ",
"@ = Q k.e.4.4.4.4.4.4.4.4.4.4.4.4.4.4.4.4.4.4.4.4.4.4.4.4.4.4.6.i.O.F a t t a F O.i.6.4.4.4.4.4.4.4.4.4.4.4.4.4.4.4.4.4.4.4.4.4.4.4.4.4.4.e.k.Q = @ ",
"@ = Q k.e.4.4.4.4.4.4.4.4.4.4.4.4.4.4.4.4.4.4.4.4.4.4.4.4.4.4.6.r.2.O.T p p T O.2.6.6.4.4.4.4.4.4.4.4.4.4.4.4.4.4.4.4.4.4.4.4.4.4.4.4.4.4.e.k.Q = @ ",
"@ = Q k.e.4.4.4.4.4.4.4.4.4.4.4.4.4.4.4.4.4.4.4.4.4.4.4.4.4.4.4.4.r.i.#.A A #.i.6.4.4.4.4.4.4.4.4.4.4.4.4.4.4.4.4.4.4.4.4.4.4.4.4.4.4.4.4.e.k.Q = @ ",
"@ = Q k.e.4.4.4.4.4.4.4.4.4.4.4.4.4.4.4.4.4.4.4.4.4.4.4.4.4.4.4.4.6.6.<.#.#.<.6.6.4.4.4.4.4.4.4.4.4.4.4.4.4.4.4.4.4.4.4.4.4.4.4.4.4.4.4.4.e.k.Q = @ ",
"@ = Q k.e.4.4.4.4.4.4.4.4.4.4.4.4.4.4.4.4.4.4.4.4.4.4.4.4.4.4.4.4.4.4.6.r.r.6.4.4.4.4.4.4.4.4.4.4.4.4.4.4.4.4.4.4.4.4.4.4.4.4.4.4.4.4.4.4.e.k.Q = @ ",
"@ = Q k.e.4.4.4.4.4.4.4.4.4.4.4.4.4.4.4.4.4.4.4.4.4.4.4.4.4.4.4.4.4.4.6.6.6.6.4.4.4.4.4.4.4.4.4.4.4.4.4.4.4.4.4.4.4.4.4.4.4.4.4.4.4.4.4.4.e.k.Q = @ ",
"@ = Q k.e.4.4.4.4.4.4.4.4.4.4.4.4.4.4.4.4.4.4.4.4.4.4.4.4.4.4.4.4.4.4.4.4.4.4.4.4.4.4.4.4.4.4.4.4.4.4.4.4.4.4.4.4.4.4.4.4.4.4.4.4.4.4.4.4.e.k.Q = @ ",
"@ = Q k.e.4.4.4.4.4.4.4.4.4.4.4.4.4.4.4.4.4.4.4.4.4.4.4.4.4.4.4.4.4.4.4.4.4.4.4.4.4.4.4.4.4.4.4.4.4.4.4.4.4.4.4.4.4.4.4.4.4.4.4.4.4.4.4.4.e.k.Q = @ ",
"@ = Q k.e.4.4.4.4.4.4.4.4.4.4.4.4.4.4.4.4.4.4.4.4.4.4.4.4.4.4.4.4.4.4.4.4.4.4.4.4.4.4.4.4.4.4.4.4.4.4.4.4.4.4.4.4.4.4.4.4.4.4.4.4.4.4.4.4.e.k.Q = @ ",
"@ = Q k.e.4.4.4.4.4.4.4.4.4.4.4.4.4.4.4.4.4.4.4.4.4.4.4.4.4.4.4.4.4.4.4.4.4.4.4.4.4.4.4.4.4.4.4.4.4.4.4.4.4.4.4.4.4.4.4.4.4.4.4.4.4.4.4.4.e.k.Q = @ ",
"@ = Q k.e.4.4.4.4.4.4.4.4.4.4.4.4.4.4.4.4.4.4.4.4.4.4.4.4.4.4.4.4.4.4.4.4.4.4.4.4.4.4.4.4.4.4.4.4.4.4.4.4.4.4.4.4.4.4.4.4.4.4.4.4.4.4.4.4.e.k.Q = @ ",
"@ = Q k.e.4.4.4.4.4.4.4.4.4.4.4.4.4.4.4.4.4.4.4.4.4.4.4.4.4.4.4.4.4.4.4.4.4.4.4.4.4.4.4.4.4.4.4.4.4.4.4.4.4.4.4.4.4.4.4.4.4.4.4.4.4.4.4.4.e.k.Q = @ ",
"@ = Q k.e.4.4.4.4.4.4.4.4.4.4.4.4.4.4.4.4.4.4.4.4.4.4.4.4.4.4.4.4.4.4.4.4.4.4.4.4.4.4.4.4.4.4.4.4.4.4.4.4.4.4.4.4.4.4.4.4.4.4.4.4.4.4.4.4.e.k.Q = @ ",
"@ = Q k.e.4.4.4.4.4.4.4.4.4.4.4.4.4.4.4.4.4.4.4.4.4.4.4.4.4.4.4.4.4.4.4.4.4.4.4.4.4.4.4.4.4.4.4.4.4.4.4.4.4.4.4.4.4.4.4.4.4.4.4.4.4.4.4.4.e.k.Q = @ ",
"@ = Q k.e.4.4.4.4.4.4.4.4.4.4.4.4.4.4.4.4.4.4.4.4.4.4.4.4.4.4.4.4.4.4.4.4.4.4.4.4.4.4.4.4.4.4.4.4.4.4.4.4.4.4.4.4.4.4.4.4.6.6.6.6.4.4.4.4.e.k.Q = @ ",
"@ = Q k.e.4.4.4.4.4.4.4.4.4.4.4.4.4.4.4.4.4.4.4.4.4.4.4.4.4.4.4.4.4.4.4.4.4.4.4.4.4.4.4.4.4.4.4.4.4.4.4.4.4.4.4.4.4.4.4.4.6.r.r.6.4.4.4.4.e.k.Q = @ ",
"@ = Q k.e.4.4.4.4.4.4.4.4.4.4.4.4.4.4.4.4.4.4.6.6.6.6.4.4.4.4.4.4.4.4.4.4.4.4.4.4.4.4.4.4.4.4.6.6.6.6.4.4.4.4.4.4.4.4.6.6.<.#.#.:.6.6.4.4.e.k.Q = @ ",
"@ = Q k.e.4.4.4.4.4.4.4.4.4.4.4.4.4.4.4.4.4.4.6.r.r.6.4.4.4.4.4.4.4.4.4.4.4.4.4.4.4.4.4.4.4.4.6.r.r.6.4.4.4.4.4.4.4.4.6.i.#.A A #.i.6.4.4.e.k.Q = @ ",
"@ = Q k.e.4.4.4.4.4.4.4.4.4.4.4.4.4.4.4.4.6.r.<.#.#.<.6.6.4.4.4.4.4.4.4.4.4.4.4.4.4.4.4.4.6.r.<.#.#.<.6.6.4.4.4.4.6.6.2.O.T p p T O.2.6.6.e.k.Q = @ ",
"@ = Q k.e.4.4.4.4.4.4.4.4.4.4.4.4.4.4.4.4.r.p.#.A A #.i.6.4.4.4.4.4.4.4.4.4.4.4.4.4.4.4.4.6.i.#.A A #.i.r.4.4.4.4.6.i.O.F a t t a F O.i.r.e.k.Q = @ ",
"@ = Q k.e.4.4.4.4.4.4.4.4.4.4.4.4.4.4.6.r.2.O.T p p T O.2.6.6.4.4.4.4.4.4.4.4.4.4.4.4.6.6.2.O.T p p T O.2.6.6.6.6.<.O.R f 1 7 7 1 f R O.<.k.k.Q = @ ",
"@ = Q k.e.4.4.4.4.4.4.4.4.4.4.4.4.4.4.6.i.O.F a t t a F O.i.6.4.4.4.4.4.4.4.4.4.4.4.4.6.i.O.F a t t a F O.i.r.6.6.#.F f y 7 e e 7 y f F #.k.k.Q = @ ",
"@ = Q k.e.4.4.4.4.4.4.4.4.4.4.4.4.6.6.2.O.R f 1 7 7 1 f R O.2.6.6.4.4.4.4.4.4.4.4.6.6.2.O.R f 1 7 7 1 f R O.2.i.i.` b 1 7 e q q e 7 1 b ` m.m.Q = @ ",
"@ = Q k.e.4.4.4.4.4.4.4.4.4.4.4.4.6.i.O.F f y 7 e e 7 y f F O.p.6.4.4.4.4.4.4.4.4.6.i.O.F f y 7 e e 7 y f F O.a.a.` N 1 7 e 7 7 e 7 1 b ` m.m.Q = @ ",
"@ = Q k.e.4.4.4.4.4.4.4.4.4.4.6.6.<.O.R f 1 7 t e e e 7 1 f R O.<.6.6.4.4.4.4.6.6.<.O.R f 1 7 t e e e 7 1 f R =.3.] N 1 1 u h h u 1 1 b ` m.m.Q = @ ",
"@ = Q k.e.4.4.4.4.4.4.4.4.4.4.6.r.#.F f u 7 e e e e e q 7 y f F #.6.6.4.4.4.4.6.r.#.F f u 7 e e e e e e 7 y f P =.[ N > > f W W h > > b ` m.m.Q = @ ",
"@ = Q k.e.4.4.4.4.4.4.4.4.4.4.6.i.` b 1 7 e e e e e e e e 7 1 b ` i.6.4.4.4.4.6.i.` b 1 7 e e e e e e e e 7 1 N [ O.F j j L =.=.L z j F #.k.k.Q = @ ",
"@ = Q k.e.4.4.4.4.4.4.4.4.4.4.6.i.` b 1 7 e e e e e e e e 7 1 N ` i.6.4.4.4.4.6.i.` b 1 7 e e e e e e e e 7 1 N ] 2.&.( ( #.2.2.#.( ( #.:.e.k.Q = @ ",
"@ = Q k.e.4.4.4.4.4.4.4.4.4.4.6.i.] B 7 7 e e e e e e e e q 7 B ] i.6.4.4.4.4.6.i.] B 7 7 e e e e e e e e q 7 B ] i.a.a.a.i.i.i.i.a.a.i.6.e.k.Q = @ ",
"@ = Q k.e.4.4.4.4.4.4.4.4.4.4.6.i.] B 7 q e e e e e e e e q 7 B ] i.6.4.4.4.4.6.i.] B 7 q e e e e e e e e q 7 B ] i.a.a.a.i.i.i.i.a.a.i.6.e.k.Q = @ ",
"@ = Q k.e.4.4.4.4.4.4.4.4.4.4.6.i.` b 1 7 e e e q q e e e 7 1 N ` i.6.4.4.4.4.6.i.` b 1 7 e e e q q e t e 7 1 N ] 2.&.` ` ` ( ( ( ( ^ ..;.e.k.Q = @ ",
"@ = Q k.e.4.4.4.4.4.4.4.4.4.4.6.i.` b 1 7 t e e 7 7 e e e 7 1 b ` i.6.4.4.4.4.6.i.` b 1 7 t e e 7 7 e e e 7 1 N ] O.F b N N b z b j j A X.k.k.Q = @ ",
"@ = Q k.e.4.4.4.4.4.4.4.4.4.4.6.r.#.F f y 7 7 u h h u 7 7 y f F #.6.6.4.4.4.4.6.r.#.F f y 7 7 u h h u 7 7 y f P =.[ N > 1 u f B N b z A #.k.k.Q = @ ",
"@ = Q k.e.4.4.4.4.4.4.4.4.4.4.6.6.<.O.R f > > h W W h > > f R O.<.6.6.4.4.4.4.6.6.<.O.R f > > h W W g > > f R =.3.] N , 1 f E  . .] ] #.:.k.k.Q = @ ",
"@ = Q k.e.4.4.4.4.4.4.4.4.4.4.4.4.r.i.O.F j j L =.=.L z j F O.i.6.4.4.4.4.4.4.4.4.r.i.O.F j j L =.=.L j j F O.a.a.` N , 1 f E  . . . .O.:.k.k.Q = @ ",
"@ = Q k.e.4.4.4.4.4.4.4.4.4.4.4.4.6.6.<.#.( ( #.2.2.#.( ( #.<.6.6.4.4.4.4.4.4.4.4.6.6.<.#.( ( #.2.2.#.( ( #.<.i.i.` b > 1 u f B Z B B F #.k.k.Q = @ ",
"@ = Q k.e.4.4.4.4.4.4.4.4.4.4.4.4.4.4.6.6.i.i.r.6.6.6.i.i.r.6.4.4.4.4.4.4.4.4.4.4.4.4.6.6.i.i.r.6.6.6.i.i.r.6.6.6.#.F N B Z B f u 1 > b ` n.m.Q = @ ",
"@ = Q k.e.4.4.4.4.4.4.4.4.4.4.4.4.4.4.6.6.6.6.6.6.6.6.6.6.6.6.4.4.4.4.4.4.4.4.4.4.4.4.6.6.6.6.6.6.6.6.6.6.6.6.6.6.:.O. . . . .E f 1 , N ` m.m.Q = @ ",
"@ = Q k.e.4.4.4.4.4.4.4.4.4.4.4.4.4.4.4.4.4.4.4.4.4.4.4.4.4.4.4.4.4.4.4.4.4.4.4.4.4.4.4.4.4.4.4.4.4.4.4.4.4.4.6.6.:.#.] ]  . .E f 1 , N ` m.m.Q = @ ",
"@ = Q k.e.4.4.4.4.4.4.4.4.4.4.4.4.4.4.4.4.4.4.4.4.4.4.4.4.4.4.4.4.4.4.4.4.4.4.4.4.4.4.4.4.4.4.4.4.4.4.4.4.4.4.6.6.#.A z b N B f u 1 , b ` m.m.Q = @ ",
"@ ; ! b.e.4.4.4.4.4.4.4.4.4.4.4.4.4.4.4.4.4.4.4.4.4.4.4.4.4.4.4.4.4.4.4.4.4.4.4.4.4.4.4.4.4.4.4.4.4.4.4.4.4.4.6.6.X.A j j z z b N N b F #.k.N.! ; @ ",
"@ ; ! M.e.4.4.4.4.4.4.4.4.4.4.4.4.4.4.4.4.4.4.4.4.4.4.4.4.4.4.4.4.4.4.4.4.4.4.4.4.4.4.4.4.4.4.4.4.4.4.4.4.4.4.6.6.:...^ ^ ( ( ( ` ` ` #.:.k.N.~ ; @ ",
"@ * U o.-.e.e.e.e.e.e.e.e.e.e.e.e.e.e.e.e.e.e.e.e.e.e.e.e.e.e.e.e.e.e.e.e.e.e.e.e.e.e.e.e.e.e.e.e.e.e.e.e.e.e.e.e.k.k.m.k.k.k.m.m.m.m.k.k.-.o.U * @ ",
"# % & I o.M.b.k.k.k.k.k.k.k.k.k.k.k.k.k.k.k.k.k.k.k.k.k.k.k.k.k.k.k.k.k.k.k.k.k.k.k.k.k.k.k.k.k.k.k.k.k.k.k.k.k.k.k.k.m.m.m.m.m.m.m.m.N.N.o.I & % # ",
"$ @ . & U ~ ! Q Q Q Q Q Q Q Q Q Q Q Q Q Q Q Q Q Q Q Q Q Q Q Q Q Q Q Q Q Q Q Q Q Q Q Q Q Q Q Q Q Q Q Q Q Q Q Q Q Q Q Q Q Q Q Q Q Q Q Q ! ~ U & . @ $ ",
"    @ % * ; ; = = = = = = = = = = = = = = = = = = = = = = = = = = = = = = = = = = = = = = = = = = = = = = = = = ; = = = = = = = = ; ; ; ; * % @     ",
"    $ # @ @ @ @ @ @ @ @ @ @ @ @ @ @ @ @ @ @ @ @ @ @ @ @ @ @ @ @ @ @ @ @ @ @ @ @ @ @ @ @ @ @ @ @ @ @ @ @ @ @ @ @ @ @ @ @ @ @ @ @ @ @ @ @ @ @ # $     "
};
