/* XPM */
static char *hearts_k[] = {
/* columns rows colors chars-per-pixel */
"74 104 207 2 ",
"   c None",
".  c #1D002C",
"X  c #1E0334",
"o  c #21012E",
"O  c #2D072E",
"+  c #3F192A",
"@  c #240532",
"#  c #270833",
"$  c #2B0E33",
"%  c #2C0B37",
"&  c #310732",
"*  c #2D1132",
"=  c #2D123B",
"-  c #32143D",
";  c #311031",
":  c #30092F",
">  c #4A042D",
",  c #46032C",
"<  c #56052B",
"1  c #59062E",
"2  c #56092E",
"3  c #5A092F",
"4  c #471E2B",
"5  c #490630",
"6  c #4B0830",
"7  c #540530",
"8  c #500930",
"9  c #57163A",
"0  c #521C26",
"q  c #721629",
"w  c #46222D",
"e  c #49232C",
"r  c #4E2527",
"t  c #552927",
"y  c #552D2B",
"u  c #552A29",
"i  c #57312B",
"p  c #542F36",
"a  c #6F232B",
"s  c #74262A",
"d  c #693C2E",
"f  c #7A4925",
"g  c #774524",
"h  c #764B31",
"j  c #3B1E43",
"k  c #45294B",
"l  c #452D51",
"z  c #492F50",
"x  c #4C3254",
"c  c #493356",
"v  c #533555",
"b  c #543C5A",
"n  c #583F5D",
"m  c #563954",
"M  c #50314E",
"N  c #743551",
"B  c #6C334B",
"V  c #563F61",
"C  c #54415E",
"Z  c #59415E",
"A  c #7B564B",
"S  c #73514F",
"D  c #554363",
"F  c #5A4461",
"G  c #7C6B7E",
"H  c #7A626E",
"J  c #83082A",
"K  c #9E0827",
"L  c #A30927",
"P  c #AC1229",
"I  c #AF182F",
"U  c #802F28",
"Y  c #CA051E",
"T  c #FF0115",
"R  c #FF0619",
"E  c #FF0A1D",
"W  c #F5081C",
"Q  c #FF331D",
"!  c #C90620",
"~  c #CB0B24",
"^  c #C70B26",
"/  c #D40C25",
"(  c #DB0B23",
")  c #FF0F21",
"_  c #F40D22",
"`  c #FF1323",
"'  c #FF1A2A",
"]  c #FF1728",
"[  c #E10D23",
"{  c #CE2C22",
"}  c #FE303D",
"|  c #955C1E",
" . c #B15D1E",
".. c #9A611E",
"X. c #A6691E",
"o. c #BD7915",
"O. c #BD7C1B",
"+. c #955E21",
"@. c #996221",
"#. c #966022",
"$. c #A46422",
"%. c #AD742B",
"&. c #A35E21",
"*. c #C17E1A",
"=. c #CB7D1A",
"-. c #F47F17",
";. c #E67E18",
":. c #C15E1B",
">. c #C7374A",
",. c #FD3542",
"<. c #FF3945",
"1. c #FD3F4A",
"2. c #826971",
"3. c #FD424D",
"4. c #FF4B54",
"5. c #FD4650",
"6. c #FB7175",
"7. c #FD7679",
"8. c #C4821A",
"9. c #CA861A",
"0. c #CB8517",
"q. c #C7810F",
"w. c #EA9B0B",
"e. c #F98116",
"r. c #E59A15",
"t. c #E89D15",
"y. c #ED950F",
"u. c #EFA00E",
"i. c #F3A30E",
"p. c #EFA212",
"a. c #EFA61F",
"s. c #F3A512",
"d. c #F6A813",
"f. c #FCAC12",
"g. c #F3A81C",
"h. c #CB8A23",
"j. c #C9943F",
"k. c #E6A83A",
"l. c #F3B339",
"z. c #F3B236",
"x. c #F1AF33",
"c. c #BF8B41",
"v. c #CC9846",
"b. c #F5B945",
"n. c #F3B746",
"m. c #E7B864",
"M. c #F6CA71",
"N. c #F4C76E",
"B. c #7D6C81",
"V. c #7D7284",
"C. c #816F80",
"Z. c #9A8B96",
"A. c #9B8D99",
"S. c #9C909B",
"D. c #9A8484",
"F. c #A5949A",
"G. c #A78D96",
"H. c #BFB6B8",
"J. c #BFA893",
"K. c #C39499",
"L. c #C49197",
"P. c #FD9594",
"I. c #FA8E8E",
"U. c #D1B893",
"Y. c #C9B192",
"T. c #C1B7B7",
"R. c #C2B8B7",
"E. c #C1B7B8",
"W. c #C4BBBA",
"Q. c #C8BFBD",
"!. c #D1BDA2",
"~. c #F8BBB4",
"^. c #F5D38C",
"/. c #EECD8C",
"(. c #C9C1BE",
"). c #D3C8BB",
"_. c #FDC8BF",
"`. c #F8C4BC",
"'. c #EBD9B6",
"]. c #F6E2B3",
"[. c #F9E4B5",
"{. c #F9E8BD",
"}. c #C6BFC3",
"|. c #C2C5C3",
" X c #CCC4C2",
".X c #CFCAC7",
"XX c #D3CBC6",
"oX c #D3CCC8",
"OX c #D5D2CB",
"+X c #F7CEC4",
"@X c #F8CAC1",
"#X c #F7D2C7",
"$X c #FAEBC3",
"%X c #F7E9C6",
"&X c #EAE6DB",
"*X c #EEEADE",
"=X c #F6E6D9",
"-X c #F6EADC",
";X c #F8EADC",
":X c #FAF4DD",
">X c #F6F3E4",
",X c #F9F6E7",
"<X c #F6F5EA",
"1X c #F6FAEA",
"2X c #FBFAE9",
"3X c #F9F7E8",
"4X c #F5F5EB",
/* pixels */
"    # @ o o o o o o o o o o o o o o o o o o o o o o o o o o o o o o o o o o o o o o o o o o o o o o o o o o o o o o o o o o o o o o o o o o @ #     ",
"    o - x Z Z Z Z Z n n n n n n n n n n n n n n n n n n n n n n n n n n n n n n n n n n n n n n n n n n n n n n n n n n n n n n n n n Z Z x - o     ",
"# o . z Z.W.W.R.R.R.R.R.R.R.R.R.R.R.R.R.R.R.R.R.R.R.R.R.T.T.R.R.R.R.R.R.R.R.R.R.T.R.R.T.R.R.R.R.R.R.R.R.T.T.R.R.R.R.R.R.R.R.R.R.T.R.R.W.W.Z.z . o # ",
"@ - z C.oX2X2X2X2X2X2X2X2X2X2X2X2X2X2X2X2X2X2X2X2X2X2X2X2X2X2X2X2X2X2X2X2X2X2X2X2X2X2X2X2X2X2X2X2X2X2X2X2X2X2X2X2X2X2X2X2X2X2X2X2X2X2X2X2XoXC.z - @ ",
"o x Z.oX*X2X2X2X2X2X3X3X2X2X2X2X,X3X3X3X3X3X3X3X3X3X3X3X3X3X3X3X3X3X3X3X3X3X3X3X3X3X3X3X3X3X3X3X3X3X3X3X3X3X3X3X3X3X3X3X3X3X3X3X3X3X3X3X2X*XoXZ.x o ",
"o Z W.2X2X=X@X~.~.@X-X-X@X~.~.@X=X>X3X3X3X3X3X3X3X3X3X3X3X3X3X3X3X3X3X3X3X3X3X3X3X3X3X3X3X3X3X3X3X3X3X3X3X3X3X3X3X3X3X3X3X3X3X3X>X>X>X>X>X,X2XW.Z o ",
"o Z W.2X2X@X6.3.1.6.#X#X6.1.3.6.@X1X2X2X2X2X2X2X2X2X2X2X2X2X2X2X2X2X2X2X2X2X2X2X2X2X2X2X2X2X2X2X2X2X2X2X2X2X2X2X2X2X2X2X2X2X2X3X3X>X>X>X>X3X2XW.Z o ",
"o n R.2X2X~.3.T T <.P.P.<.T T 3.~.&X.XT.T.T.T.T.T.T.T.T.T.T.T.T.T.T.T.T.T.T.T.T.T.T.T.T.T.T.T.T.T.T.T.T.T.T.T.T.T.T.T.T.T.T.R.XX&X3X>X>X>X3X2XR.n o ",
"o Z R.2X1X~.3.R R ' <.<.' R T 3.~..XG v v b b b b b b b b b b b b b b b b b b b b b b b b b b b b b b b b b b b b b b b b b b G XX3X3X>X>X3X2XR.n o ",
"o Z R.2X2X~.5.E E E E E E ' <.7.+X.XG v b b b b b b n n n n b b b n n b b b n n n n n n b b b b b b b b b b b b b b b b b k % b R.2X3X>X>X3X2XT.n o ",
"o Z R.2X2X~.5.E E E E R E <.P.#X;X&X XT.T.T.T.T.T.E.R.W.W.R.E.E.R.W.R.R.E.E.R.W.W.R.W.R.E.T.T.T.T.T.T.T.T.T.T.T.T.T.T.R.W.Z.k b T.2X3X>X>X3X2XR.n o ",
"o Z R.2X2X~.5.E E ' <.<.' <.P.#X-X>X2X2X2X2X2X2X2X:X%X[.[.%X:X:X$X[.[.%X:X>X%X[.[.[.[.%X:X2X2X2X2X2X2X2X2X2X2X2X,X2X2X2X2XW.b b T.2X3X>X>X3X2XT.n o ",
"o Z R.2X2X~.5.R R <.P.P.<.] ,.6.@X1X2X3X3X3X3X2X2X%XM.n.b.M.%X%XM.b.b.M.%X%XM.b.n.n.n.M.$X2X2X2X2X2X2X2X,X3X3X3X3X3X3X2X2XR.b b T.2X3X>X>X3X2XR.n o ",
"o Z R.2X1X~.3.T T 5.`.`.5.T T 1.~.1X>X>X>X>X>X&X.XY.k.w.u.l.^./.j.q.w.l.^.^.l.w.w.w.u.k.Y.oX&X&XXXR.R.XX&X>X>X>X>X>X>X3X2XT.b b T.2X3X>X>X3X2XR.n o ",
"o n R.2X1X~.3.T T 5.`.`.5.T T 1.~.1X>X>X>X3X3X.XB.A h.i.i.g.l.v.h g 0.g.l.l.a.p.p.s.i.h.A B.oXoXC.b b G XX3X3X>X>X>X>X3X2XT.b b T.2X3X>X>X3X2XR.n o ",
"o n R.2X2X@X6.1.1.6.+X+X6.1.1.6.@X>X>X>X>X3X2XH.c r o.f.d.t.0.&.a a &.0.r.i.s.s.s.d.d.o.r n Q.(.Z . . b W.2X2X3X3X3X3X2X2XT.b b T.2X3X>X>X3X2XR.n o ",
"o Z R.2X2X=X@X~.~.@X=X=X@X~.~.@X=X>X>X>X>X3X2XH.c r o.f.f.0.f a P P a f 0.d.d.d.d.d.f.o.r V  X XZ . . n Q.2X2X2X2X2X2X2X2XT.b b T.2X3X>X>X3X2XR.n o ",
"o Z R.2X3X>X1X1X1X1X>X>X1X1X1X1X>X>X>X>X>X3X3X.XB.S $.*.8.+.w 1 / / 1 w +.*.*.O.O.*.*.| 4 x S.F.x o o x Z.W.W.T.T.T.R.XX*XR.b b T.2X3X>X>X3X2XR.n o ",
"o Z R.2X3X>X1X1X1X1X>X>X1X1X1X1X>X>X>X>X>X>X>X&XXXF.S r u w $ 3 / / 3 $ w i i y y i i w : - x x - @ @ - x b b b b b b C.oXW.b b T.2X3X>X>X3X2XT.n o ",
"o Z R.2X2X=X@X~.~.@X-X-X@X~.~.@X=X>X>X>X>X>X>X3X2XoXB.l = X X > L L > X X X X X X X @ = k k % o @ @ @ - x b b b b k % n Q.W.n b T.2X3X>X>X3X2XR.n o ",
"o Z R.2X2X@X6.1.1.6.#X#X6.1.1.6.@X>X>X>X>X>X>X3X3X*XoXZ.l X X & > > & @ X @ @ @ X X @ k H H k o @ @ @ x Z.W.W.W.W.Z.k b W.W.n b T.2X3X>X>X3X2XR.n o ",
"o Z R.2X2X~.3.T T <.P.P.<.T T 3.~.1X>X>X>X>X>X>X>X3X2X).A t t p m m p t t y i i i w : z D.D.M @ @ @ o Z (.2X2X2X2XQ.b n W.W.n b T.2X3X>X>X3X2XR.n o ",
"o Z R.2X2X~.3.R R ' <.<.' R R 3.~.1X>X>X>X>X>X>X>X3X2X'.v.o.o.c.Y.Y.c.o.o.O.O.*.*.+.4 k D.D.M @ @ @ o Z (.2X2X2X2XQ.b n W.W.n b T.2X3X>X>X3X2XT.n o ",
"o Z R.2X2X~.3.R E ) E E ) E R 3.~.1X>X>X>X>X>X>X>X<X<X].b.g.z.M.%X%XM.b.b.l.g.d.d.0.f B 2.H k @ @ @ @ x Z.W.W.W.Q.Z.z Z W.W.n b T.2X3X>X>X3X2XR.n o ",
"o Z R.2X1X~.3.R E ) E E ) E R 3.~.1X>X>X>X>X>X>X>X<X<X].n.z.^.%X:X:X{.].].^.l.s.s.t.0.$.d j = # # @ @ - z b b b Z x = Z Q.W.n b T.2X3X>X>X3X2XR.n o ",
"o Z R.2X2X@X6.,.] E ) ) E ] ,.6.@X<X>X>X>X>X>X>X>X-X%X^.z.n.[.2X<X>X<X2X1X[.n.p.p.s.d.h.A l - @ @ @ @ - x Z Z z = . o F (.W.n b T.2X3X>X>X3X2XR.n o ",
"o n R.2X2X;X+XI.,.R E E R ,.I.+X;X>X>X>X>X>X>X>X<X{.N.x.g.b.[.2X<X>X2X2X2X[.n.p.p.s.s.k.U.A.c @ @ @ @ x S. X XS.l . . F (.W.n b T.2X3X>X>X3X2XT.n o ",
"o n R.2X3X>X1X+X6.,.] ] ,.6.+X1X>X>X>X>X>X>X>X>X<X].n.w.q.c.J..X*X&X.XE.W.U.k.s.p.p.u.n.{. XF . o o o x F. X XF.S 4 O F Q.W.n b T.2X3X>X>X3X2XR.n o ",
"o n R.2X3X>X>X-X+XI.} } I.+X-X>X>X>X>X>X>X>X>X>X<X].b.q.f p M B.oXoXB.b b A h.s.s.p.u.n.{.}.V . . o @ - c D V S %...e F Q.W.n b T.2X3X>X>X3X2XR.n o ",
"o n R.2X3X>X>X>X1X@X6.6.@X1X>X>X>X>X>X>X>X>X>X<X<X].b.o.r @ + A U.U.A + o r O.s.s.p.p.l.^.!.2.Z F x - ; e t t g X...w D  XQ.n b T.2X3X>X>X3X2XR.n o ",
"o n R.2X3X>X>X>X>X;X@X@X;X>X>X>X>X>X>X>X>X>X>X<X<X].b.o.r + | h.k.k.h.| + e O.s.s.p.p.a.l.m.!. X XF.x e | 0.0.X.g w O F  X(.Z b T.2X3X>X>X3X2XR.n o ",
"o n R.2X3X>X>X>X>X&X.X.X&X>X>X>X>X>X>X>X>X>X3X:X%X^.l.0.g g 9.d.d.d.d.0.f g 9.s.s.p.p.s.i.k.U. X XS.x e ..8.8.$.a < < N F.S.x b T.2X3X>X>X3X2XR.n o ",
"o n R.2X3X>X>X3X3X XG G  X3X3X>X>X>X>X>X>X>X2X%XN.z.a.r.9.9.r.d.d.d.s.r.9.9.r.s.s.p.p.s.i.h.A V D c - ; e i i s P ~ ~ I N z = n R.2X3X>X>X3X2XR.n o ",
"o n R.2X3X>X>X3X2XT.v v T.2X3X>X>X>X>X3X3X&XoXY.k.u.p.s.s.d.s.r.9.9.r.d.d.s.s.p.p.p.s.t.0.X.d r r e ; & 5 7 7 J ( ` ` ~ < . . Z W.2X3X>X>X3X2XR.n o ",
"o n R.2X3X>X>X3X2XT.v v T.2X3X>X>X>X>X3X2XoXB.A h.s.s.p.s.d.d.0.g g 0.f.f.d.s.p.p.s.s.9.f d X.*.*.| w 5 K ~ ~ / _ ) ` ~ 2 . . Z W.2X3X>X>X3X2XR.n o ",
"o n R.2X3X>X>X3X2XT.b b T.2X3X>X>X3X3X*XoXZ.l 0 :.e.e.-.-.e.9.+.4 4 +.8.*.=.;.-.-.e.e. .4 e O.f.f.8.y 2 ~ ) ) ) ) ) ) ( J > O Z R.2X3X>X>X3X2XR.n o ",
"o n R.2X3X>X>X3X2XT.b b T.2X3X>X>X3X2XoXC.l = 3 { Q Q Q Q { U w $ $ w y y s { Q Q Q Q { 8 e O.f.f.8.y 7 ~ ) ) ) ) ) ) _ ( K > Z R.2X3X>X>X3X2XR.n o ",
"o n R.2X3X>X>X3X2XT.b b T.2X3X3X3X*XoXZ.z . @ 8 L ( _ ) ) ~ 1 X @ @ @ X X 7 ~ ) ) _ ( P a f 9.t.0.$.a J / ) ) ) ) ) ) ) ) ~ < Z R.2X3X>X>X3X2XR.n o ",
"o n R.2X3X>X>X3X2XT.b b T.2X3X3X2XoXC.z = @ @ & 5 J ( ) ) ~ 1 X @ @ @ X X 3 ~ ) ) / J a $.0.t.9.f a P ( _ ) ) ) ) ) ) ) ) ~ < Z R.2X3X>X>X3X2XR.n o ",
"o n R.2X3X>X>X3X2XT.b b T.2X2X*XXXZ.l . @ # # @ X , K ( ) ~ 3 * e i i e * 3 ~ ) ` ^ 7 y 8.f.f.O.e 7 ~ ) ` ) ) ) ) ) ) ) ) ^ < Z R.2X3X>X>X3X2XR.n o ",
"o n R.2X3X>X>X3X2XT.b b T.2X2XoXB.l = @ @ # # @ @ O , J [ / 1 w @.9.9.@.e 1 ~ ) ) ^ 7 y 8.f.f.O.y 7 ~ ) ) ) ) ) ) ) ) ) ) ~ < Z R.2X3X>X>X3X2XR.n o ",
"o n R.2X3X>X>X3X2XT.b b W.>XOXG.B < 1 8 & @ @ - c F D N I L > e @.8.8.@.w 1 ~ ) ) ~ 7 w +.*.*.+.w 1 ~ ) ) ) ) ) ) ) ) ) ) ~ < Z R.2X3X>X>X3X2XR.n o ",
"o n R.2X3X>X>X3X2XT.b n Q.OXV.B I ~ / L 6 X @ x S.(.(.G.N , O ; w i y w * 3 ~ ) ) ~ 3 * w y y w * 3 ~ ) ) ) ) ) ) ) ) ) ) ~ < Z R.2X3X>X>X3X2XR.n o ",
"o n R.2X3X>X>X3X2XR.b x A.F.B q ( ) [ P s w : Z Q.2X2XoXB.l = ; w y y w * 3 ~ ) ` ~ 3 * w y y w * 3 ~ ) ) ) ) ) ) ) ) ) ) ~ < Z R.2X3X>X>X3X2XR.n o ",
"o n R.2X3X>X>X3X2XR.n = l N I ( ) ( J s $...e n Q.2X2X*XoXA.z 4 +.*.*.+.w 1 ~ ` ` ~ 1 w @.8.8.@.w 1 ~ ) ) ) ) ) ) ) ) ) ) ~ < C R.2X3X>X>X3X2XR.n o ",
"o n R.2X3X>X>X3X2XR.Z O , J ( ` ) ~ 7 i 8.0.t n W.2X2X2X2XQ.V t *.f.f.8.y 5 K ~ ~ K > w ..8.8.@.w 5 K ~ ~ ~ ~ ~ ^ ^ ~ ~ ~ K > Z R.2X3X>X>X3X2XR.n o ",
"o n R.2X3X>X>X3X2XR.Z > L ( ) ` ) ~ 7 i 8.0.t n Q.2X2X2X2XQ.V t *.f.f.8.i & 5 3 3 > O : e y y e * & > < < < 2 2 2 2 < < < > O Z R.2X3X>X>X3X2XR.n o ",
"o n R.2X3X>X>X3X2XR.Z > L ~ ~ ~ ~ K > w @...w l Z.W.R.R.Q.A.l 4 | *.*.+.w & 5 2 2 9 m F D v 9 1 1 9 v D D v 9 2 2 9 v D D z = n R.2X3X>X>X3X2XR.n o ",
"o n R.2X3X>X>X3X2XR.Z O > 3 2 2 1 > O : w w * = l b b b Z l = : 4 t t w $ 6 K ~ ~ >.K.|.|.K.>.! ! >.K.|.|.K.>.! ! >.K.|.|.A.l b R.2X3X>X>X3X2XR.n o ",
"o n R.2X3X>X>X3X2XR.Z O > 2 2 9 v D F m 9 1 1 9 v Z Z v 9 < 1 9 v D D v 9 J ( E E <.P._._.P.,.R R <.P._._.P.<.R R <.P._._.L.M b R.2X3X>X>X3X2XR.n o ",
"o n R.2X3X>X>X3X2XR.Z > K ~ ~ >.K.|.|.K.>.! ! >.L.|.|.L.>.Y Y >.K.|.|.K.>.( W E E ' <.4.4.<.' R R ' <.4.4.<.' R R ' <.4.4.>.9 n R.2X3X>X>X3X2XR.n o ",
"o n R.2X3X>X>X3X2XR.Z < ! E R ,.P._._.P.<.R R ,.P._._.P.<.R R <.P._._.P.<.' <.4.4.<.' R R ' <.4.4.<.' E R ' <.4.4.<.' E E Y < Z R.2X3X>X>X3X2XR.n o ",
"o n R.2X3X>X>X3X2XR.Z < Y E E ' <.4.4.<.' R R ' <.4.4.<.' R R ' <.4.4.<.' <.P._._.P.<.R R <.P._._.P.<.R R <.P._._.P.,.R E ~ < Z R.2X3X>X>X3X2XR.n o ",
"o n R.2X3X>X>X3X2XR.n 9 >.4.4.<.' E R ' <.4.4.<.' R R ' <.4.4.<.' E E W ( >.K.|.|.K.>.Y Y >.L.|.|.L.>.! ! >.K.|.|.K.>.~ ~ K > Z R.2X3X>X>X3X2XR.n o ",
"o n R.2X3X>X>X3X2XR.b M L._._.P.<.R R <.P._._.P.,.R R <.P._._.P.<.R E ( J 9 v D D v 9 < < 9 v Z Z v 9 1 1 9 m F D v 9 2 2 > O Z R.2X3X>X>X3X2XR.n o ",
"o n R.2X3X>X>X3X2XR.b l A.|.|.K.>.! ! >.K.|.|.K.>.Y ! >.K.|.|.K.>.~ ~ K 6 $ w t t 4 : = l Z n b b l = * w w : O > < 2 2 3 > O Z R.2X3X>X>X3X2XR.n o ",
"o n R.2X3X>X>X3X2XW.n = z D D v 9 2 2 9 v D D v 9 1 1 9 v D F m 9 2 2 6 & w | *.*.| 4 l A.Q.R.R.W.Z.l w ..@.w > K ~ ~ ~ ~ L > Z R.2X3X>X>X3X2XR.n o ",
"o n R.2X3X>X>X3X2XR.Z O > < < 2 2 2 2 2 2 < < > & * e y y e : O > 3 3 5 & i 8.f.f.*.t V Q.2X2X2X2XQ.n t 0.8.i 2 ~ ) ) ) ( L > Z R.2X3X>X>X3X2XR.n o ",
"o n R.2X3X>X>X3X2XR.Z > K ~ ~ ^ ~ ~ ~ ~ ~ ~ ~ K 5 w @.8.8...w , K ~ ~ K 5 y 8.f.f.*.t V Q.2X2X2X2XW.n t 0.8.i 7 ~ ` ` ( J , O Z R.2X3X>X>X3X2XR.n o ",
"o n R.2X3X>X>X3X2XR.Z < ~ ) ) ) ) ) ) ) ) ` ) ~ 1 w @.8.8.@.w 1 ~ ) ) ~ 1 w +.*.*.+.e x A.XX*X2X2XW.n e ..$.s J ( ) ( I N l = n R.2X3X>X>X3X2XR.n o ",
"o n R.2X3X>X>X3X2XR.Z < ~ ) ) ) ) ) ) ) ) ) ) ~ 3 * w y y w * 3 ~ ` ) ~ 3 * w y y w ; = l B.XX2X2XQ.Z : w s P [ ) ( q B F.A.x b T.2X3X>X>X3X2XR.n o ",
"o n R.2X3X>X>X3X2XR.Z < ~ ) ) ) ) ) ) ) ) ) ) ~ 3 * w y y w * 3 ~ ) ) ~ 3 * w i y w ; O > N G.(.(.S.c @ X 6 L / ~ I B V.OXQ.n b T.2X3X>X>X3X2XR.n o ",
"o n R.2X3X>X>X3X2XR.Z < ~ ) ) ) ) ) ) ) ) ) ) ~ 1 w +.*.*.+.w 1 ~ ` ) ~ 1 w @.8.8.@.e > L I N D F c - @ @ & 8 1 < B G.OX>XW.b b T.2X3X>X>X3X2XR.n o ",
"o n R.2X3X>X>X3X2XR.Z < ~ ) ) ) ) ) ) ) ) ) ) ~ 7 y O.f.f.8.y 7 ^ ) ) ~ 1 e @.9.9.@.w 1 / [ J , O @ @ % # @ @ = l B.XX2X2XT.b b T.2X3X>X>X3X2XR.n o ",
"o n R.2X3X>X>X3X2XR.Z < ^ ) ) ) ) ) ) ) ) ) ` ~ 7 e O.f.f.8.y 7 ^ ) ) ~ 3 * e i i e * 3 ~ ) ( K , X @ # # @ . l Z.XX*X2X2XT.b b T.2X3X>X>X3X2XR.n o ",
"o n R.2X3X>X>X3X2XR.Z < ~ ) ) ) ) ) ) ) ) _ ( P a f 9.t.0.$.a J / ) ) ~ 1 X X @ @ @ X 3 ~ ) ) ( J 5 & @ @ = z C.oX2X3X3X2XT.b b T.2X3X>X>X3X2XT.n o ",
"o n R.2X3X>X>X3X2XR.Z < ~ ` ) ) ) ) ) ) ) / J a $.0.t.9.f a P ( _ ) ) ~ 1 X X @ @ @ X 1 ~ ) ) _ ( L 8 @ . z Z.oX*X3X>X3X2XT.b b T.2X3X>X>X3X2XR.n o ",
"o n R.2X3X>X>X3X2XR.Z > K ( _ ) ) ) ) ) ) ~ 7 y 8.f.f.O.e 8 { Q Q Q Q { s y y w ; $ w U { Q Q Q Q { 3 = l C.oX2X3X>X>X3X2XT.b b T.2X3X>X>X3X2XR.n o ",
"o n R.2X3X>X>X3X2XR.Z O > J ( ) ) ) ) ) ) ~ 7 y 8.f.f.O.e 4  .e.e.-.-.;.=.*.*.+.4 4 +.9.e.-.-.e.e.:.0 l Z.oX*X3X3X>X>X3X2XT.b b T.2X3X>X>X3X2XR.n o ",
"o n R.2X3X>X>X3X2XW.Z . . 2 ~ ) ) _ / ~ ~ K 5 w +.*.*.X.d f 9.s.s.p.p.s.d.f.f.0.f f 9.d.d.s.p.s.i.h.A B.oX2X3X>X>X>X>X3X2XT.b b T.2X3X>X>X3X2XR.n o ",
"o n R.2X3X>X>X3X2XW.Z . . 2 ~ ) ` ( J 7 2 5 & ; e r r d X.0.t.s.p.p.p.s.d.d.s.r.9.9.r.s.d.s.s.p.i.k.Y.oX*X3X3X>X>X>X>X3X2XT.v v T.2X3X>X>X3X2XR.n o ",
"o n R.2X3X>X>X3X2XR.Z = z N I ~ ~ P s i i e ; - c D V A h.i.s.p.p.p.s.r.9.9.r.d.d.d.s.r.9.9.r.a.z.N.%X2X>X>X>X>X>X>X>X3X3X XG G  X3X3X>X>X3X2XR.n o ",
"o n R.2X3X>X>X3X2XT.b x S.F.N < < a $.8.8...e x S. X XU.k.i.s.p.p.s.s.9.g g 0.d.d.i.d.0.g g 0.l.^.%X:X3X>X>X>X>X>X>X>X>X>X&X.X.X&X>X>X>X>X3X2XR.n o ",
"o n R.2X3X>X>X3X2XT.b Z (. XF O w g X.0.0.| e x F. X X!.m.l.a.p.p.s.d.O.r + | h.k.k.h.| + r o.b.[.<X<X>X>X>X>X>X>X>X>X>X>X;X+X+X;X>X>X>X>X3X2XR.n o ",
"o n R.2X3X>X>X3X2XT.b n Q. XD w ..X.g t t e ; - x F Z 2.!.^.l.p.p.s.d.O.r o + A U.U.A + @ r o.b.].<X<X>X>X>X>X>X>X>X>X>X1X@X6.6.@X1X>X>X>X3X2XR.n o ",
"o n R.2X3X>X>X3X2XT.b n W.Q.F e ..%.S D D c - @ o . . V }.{.n.u.p.s.s.h.A b b B.oXoXB.x p f q.b.].<X>X>X>X>X>X>X>X>X>X-X+XI.} } I.+X-X>X>X3X2XR.n o ",
"o n R.2X3X>X>X3X2XT.b n W.Q.F O 4 S F. X XF.x o @ o . F  X{.n.u.p.s.s.k.U.W.E..X&X*X.XJ.c.q.w.n.].<X>X>X>X>X>X>X>X>X1X+X6.,.] ] ,.6.+X1X>X3X2XR.n o ",
"o n R.2X3X>X>X3X2XT.b n W.(.F . . l S. X XF.x @ @ @ @ c A.U.k.s.s.p.p.n.[.2X2X2X>X<X2X[.b.g.x.N.{.>X>X>X>X>X>X>X>X;X+XI.,.R E E R ,.I.+X;X2X2XR.n o ",
"o n R.2X3X>X>X3X2XT.b n W.(.F . . = z Z Z x - @ # @ @ - l A h.d.s.p.p.n.[.1X2X3X>X<X2X[.b.z.^.%X-X>X>X>X>X>X>X>X<X@X6.,.] E ) ) E ] ,.6.@X2X2XR.n o ",
"o n R.2X3X>X>X3X2XT.b n W.Q.Z = x Z b b b z - @ @ @ # = j d $.0.t.s.s.l.^.].].{.:X:X%X^.z.n.].<X<X>X>X>X>X>X>X>X1X~.3.R E ) E E ) E R 3.~.2X2XR.n o ",
"o n R.2X3X>X>X3X2XT.b n W.W.Z z Z.Q.W.R.W.Z.x @ @ @ @ k H 2.B f 0.d.d.g.l.b.b.M.%X%XM.z.g.b.].<X<X>X>X>X>X>X>X>X1X~.3.R E ) E E ) E E 3.~.2X2XR.n o ",
"o n R.2X3X>X>X3X2XT.b n W.W.n b Q.2X2X2X2X(.Z o @ @ @ M D.D.k 4 +.*.*.O.O.o.o.c.Y.Y.c.o.o.v.'.2X3X>X>X>X>X>X>X>X1X~.3.R R ' <.<.' R R 3.~.2X2XR.n o ",
"o n R.2X3X>X>X3X2XT.b n W.W.n b Q.2X2X2X2X(.Z o @ @ @ M D.D.z : w i i y i u t p m m p t t A ).2X3X>X>X>X>X>X>X>X1X~.3.T T <.P.P.<.T T 3.~.2X2XR.n o ",
"o n R.2X3X>X>X3X2XT.b n W.W.b k Z.W.W.W.W.Z.x @ @ @ @ k H H k @ X X X @ @ @ @ & > > & X X l Z.oX*X3X3X>X>X>X>X>X>X@X6.1.1.6.#X#X6.1.3.6.@X2X2XR.n o ",
"o n R.2X3X>X>X3X2XT.b n W.Q.n % k b b b b z - @ @ @ o % k k = @ @ @ @ @ X X X > L L > X X = l B.XX2X3X>X>X>X>X>X>X=X@X~.~.@X-X-X@X~.~.@X=X2X2XR.n o ",
"o n R.2X3X>X>X3X2XT.b b W.oXC.b b b b b b z - @ @ - x c - : w i i i i i i w $ 3 / / 3 $ w u r S F.XX&X>X>X>X>X>X>X>X1X1X1X1X>X>X1X1X1X1X>X3X2XR.n o ",
"o n R.2X3X>X>X3X2XT.b b R.*XXXR.R.R.T.R.W.Z.x o o x F.S.x 4 | *.*.O.O.*.8.#.w 1 / / 1 w +.*.*.$.S G .X3X3X>X>X>X>X>X1X1X1X1X>X>X1X1X1X1X>X3X2XR.n o ",
"o n R.2X3X>X>X3X2XT.b b T.2X2X2X2X2X2X2X2XQ.Z . . Z  X Xn r o.f.d.s.s.d.d.0.f a P P a f 0.f.f.o.r c H.2X3X>X>X>X>X=X@X~.~.@X=X=X@X~.~.@X=X2X2XR.n o ",
"o n R.2X3X>X>X3X2XT.b b T.2X2X3X3X3X3X2X2XW.b . . Z (.Q.n r O.d.d.s.s.s.s.r.0.&.a a &.0.t.d.d.o.r c H.2X3X>X>X>X<X@X6.1.1.6.+X+X6.1.1.6.@X2X2XR.n o ",
"o n R.2X3X>X>X3X2XT.b b T.2X3X>X>X>X>X3X3XXXG b b C.oXoXB.A h.i.s.p.p.a.l.l.g.0.g h v.l.g.i.i.h.A B..X3X3X>X>X>X1X~.1.T T 5.`.`.5.T T 3.~.2X2XR.n o ",
"o n R.2X3X>X>X3X2XT.b b T.2X3X>X>X>X>X>X>X&XXXR.R.XX&X&XoXY.k.u.w.w.w.l.^.^.l.w.q.j./.^.l.w.w.k.Y..X&X>X>X>X>X>X1X~.3.T T 5.`.`.5.T T 3.~.2X2XR.n o ",
"o n R.2X3X>X>X3X2XT.b b R.2X2X3X3X3X3X3X3X2X2X2X2X2X,X2X2X$XM.n.n.n.n.M.%X%XM.b.b.M.%X%XM.n.n.M.$X2X2X3X3X3X3X2X1X@X6.,.] <.P.P.<.E R 5.~.2X2XR.n o ",
"o n R.2X3X>X>X3X2XT.b b W.2X2X2X2X2X2X2X2X2X2X2X2X2X2X2X2X:X%X[.[.[.[.%X:X:X%X[.[.$X:X:X%X[.[.%X:X2X2X2X2X2X2X2X>X-X#XP.<.' <.<.' E E 5.~.1X2XR.n o ",
"o n T.2X3X>X>X3X2XT.b k Z.W.R.T.T.T.T.T.T.T.T.T.T.T.T.T.T.T.R.R.W.W.W.R.E.E.R.W.W.R.T.T.R.W.W.R.R.T.T.T.T.T.T. X&X-X#XP.<.E R E ) E E 5.~.1X1XR.n o ",
"o n R.2X3X>X>X3X2XR.b % k b b b b b b b b b b b b b b b b b n n n n n n b b n n n n b b n n n n b b b b b v v G .X+X7.<.' E R E E E E 5.~.1X2XR.n o ",
"o n R.2X3X>X>X3X3XXXG b b b b b b b b b b b b b b b b b b b b b b b b b b b b b b b b b b b b b b b b b b v v G .X~.3.T R ' <.<.' R R 3.~.1X1XR.n o ",
"o n R.2X3X>X>X>X>X&XXXR.T.T.T.T.T.T.T.T.T.T.T.T.T.T.T.T.T.T.T.T.T.T.T.T.T.T.T.T.T.T.T.T.T.T.T.T.T.T.T.T.T.T.T..X&X~.3.T T ,.P.P.<.T T 3.~.2X2XR.Z o ",
"o Z W.2X3X>X>X>X>X>X3X2X2X2X2X2X2X2X2X2X2X2X2X2X2X2X2X2X2X2X2X2X2X2X2X2X2X2X2X2X2X2X2X2X2X2X2X2X2X2X2X2X2X2X2X2X1X@X6.1.1.6.#X#X6.3.3.6.@X2X2XW.Z o ",
"o Z W.2X2X>X>X>X>X>X3X3X3X3X3X3X3X3X3X3X3X3X3X3X3X3X3X3X3X3X3X3X3X3X3X3X3X3X3X3X3X3X3X3X3X3X3X3X3X3X3X3X3X3X3X3X>X=X@X~.~.@X-X-X@X~.~.@X=X2X2XW.Z o ",
"o x Z.oX*X2X3X3X3X3X3X3X3X3X3X3X3X3X3X3X3X3X3X3X3X3X3X3X3X3X3X3X3X3X3X3X3X3X3X3X3X3X3X3X3X3X3X3X3X3X3X3X3X3X3X3X3X,X2X2X2X2X2X2X2X1X1X2X2X*XoXZ.x o ",
"@ - z C.oX2X2X2X2X2X2X2X2X2X2X2X2X2X2X2X2X2X2X2X2X2X2X2X2X2X2X2X2X2X2X2X2X2X2X2X2X2X2X2X2X2X2X2X2X2X2X2X2X2X2X2X2X2X2X2X2X2X2X2X2X2X2X2X2XoXC.z - @ ",
"# o . z Z.W.W.R.R.R.R.R.T.R.R.T.R.R.R.R.R.R.R.R.R.R.R.R.R.R.T.R.R.R.R.R.R.R.T.R.R.R.R.R.T.R.R.T.R.R.R.R.R.R.R.R.T.T.R.R.R.R.R.R.R.R.R.W.W.Z.z o @ # ",
"    o - x Z Z n n n n n n n n n n n n n n n n n n n n n n n n n n n n n n n n n n n n n n n n n n n n n n n n n n n n Z n n n Z n n Z Z Z x - @     ",
"    # @ o o o o o o o o o o o o o o o o o o o o o o o o o o o o o o o o o o o o o o o o o o o o o o o o o o o o o o o o o o o o o o o o o o @ #     "
};
