/* XPM */
static char *hearts_j[] = {
/* columns rows colors chars-per-pixel */
"74 104 208 2 ",
"   c None",
".  c #1E002C",
"X  c #1B0433",
"o  c #21012E",
"O  c #2C022D",
"+  c #2D0B2C",
"@  c #2A0934",
"#  c #2D113B",
"$  c #2C1031",
"%  c #30133B",
"&  c #49052C",
"*  c #47022A",
"=  c #56042B",
"-  c #59052B",
";  c #55092F",
":  c #5A092E",
">  c #520026",
",  c #461E28",
"<  c #490830",
"1  c #56163A",
"2  c #55122E",
"3  c #770427",
"4  c #7B1E22",
"5  c #4D2225",
"6  c #48232B",
"7  c #512625",
"8  c #552A27",
"9  c #552C2B",
"0  c #53262A",
"q  c #542F32",
"w  c #762426",
"e  c #7B4928",
"r  c #452A4D",
"t  c #462D51",
"y  c #492E50",
"u  c #463154",
"i  c #4B3153",
"p  c #4E3A59",
"a  c #533555",
"s  c #543C5A",
"d  c #583F5D",
"f  c #583853",
"g  c #55324F",
"h  c #6C2E4C",
"j  c #7F304B",
"k  c #763853",
"l  c #722F4D",
"z  c #553F60",
"x  c #54415F",
"c  c #59415E",
"v  c #4D405F",
"b  c #6A4B4B",
"n  c #7B5B59",
"m  c #7B5955",
"M  c #7C4C51",
"N  c #554262",
"B  c #594462",
"V  c #6C5B74",
"C  c #7C6A7D",
"Z  c #7C657B",
"A  c #830728",
"S  c #9E0827",
"D  c #A60925",
"F  c #A9132E",
"G  c #AC1731",
"H  c #812528",
"J  c #C9041E",
"K  c #D9091E",
"L  c #FF0216",
"P  c #FF0619",
"I  c #FF0A1D",
"U  c #F6091D",
"Y  c #F7291E",
"T  c #FD351D",
"R  c #C90620",
"E  c #CB0B23",
"W  c #C60D26",
"Q  c #DB0A21",
"!  c #D50A22",
"~  c #D81627",
"^  c #DB1C30",
"/  c #FF0E21",
"(  c #F60C21",
")  c #FF1422",
"_  c #FF192A",
"`  c #FF1728",
"'  c #E00E23",
"]  c #C62922",
"[  c #FE303D",
"{  c #D5301D",
"}  c #975D1D",
"|  c #98601F",
" . c #BA7614",
".. c #BD7A19",
"X. c #BD7915",
"o. c #BF641E",
"O. c #A36725",
"+. c #9F6623",
"@. c #F9471C",
"#. c #C17E19",
"$. c #CC7F16",
"%. c #CE621B",
"&. c #F56A19",
"*. c #C7374A",
"=. c #FE3541",
"-. c #FF3944",
";. c #FD3F4A",
":. c #F43643",
">. c #82455D",
",. c #D84654",
"<. c #FD434D",
"1. c #FE4750",
"2. c #FF4B54",
"3. c #FC7175",
"4. c #FF777A",
"5. c #F86A6F",
"6. c #823650",
"7. c #BD852D",
"8. c #C38119",
"9. c #C88215",
"0. c #EC9C0C",
"q. c #F48416",
"w. c #FD8616",
"e. c #EE950E",
"r. c #EFA00E",
"t. c #F6A40B",
"y. c #F8A80F",
"u. c #EFA112",
"i. c #EFA61E",
"p. c #F3A412",
"a. c #F6A815",
"s. c #CA8E30",
"d. c #F2B137",
"f. c #EAAB38",
"g. c #BE8940",
"h. c #CA984C",
"j. c #CB9748",
"k. c #F2B644",
"l. c #F6BA46",
"z. c #F8BB46",
"x. c #F4C76D",
"c. c #F6C970",
"v. c #7B6D81",
"b. c #7D7082",
"n. c #816E80",
"m. c #827082",
"M. c #9A8B96",
"N. c #998B98",
"B. c #9D909B",
"V. c #A58C96",
"C. c #A69599",
"Z. c #A59CA4",
"A. c #BFB9B9",
"S. c #C39499",
"D. c #C59297",
"F. c #D59295",
"G. c #D48E92",
"H. c #FE9694",
"J. c #FA8E8E",
"K. c #C8AF91",
"L. c #C1B7B7",
"P. c #C2B8B7",
"I. c #C4BBBB",
"U. c #CABEBC",
"Y. c #D3B1B1",
"T. c #F8BBB4",
"R. c #F8B7B1",
"E. c #EBBAB5",
"W. c #F1CE8A",
"Q. c #CDC2B9",
"!. c #C9C1BC",
"~. c #D2C4BA",
"^. c #FCC2BA",
"/. c #FCC8BF",
"(. c #F1C1BA",
"). c #E8D6B4",
"_. c #EAD8B5",
"`. c #F1CDB6",
"'. c #F6E1B2",
"]. c #F7E4B8",
"[. c #C2BFC0",
"{. c #BFC0C1",
"}. c #C2C5C3",
"|. c #CCC4C2",
" X c #CECAC6",
".X c #D2CBC6",
"XX c #D2CDC8",
"oX c #D0C7C3",
"OX c #D4D0CB",
"+X c #F7CEC4",
"@X c #F9CAC1",
"#X c #FCD3C8",
"$X c #F8E9C2",
"%X c #EAE6DA",
"&X c #ECEADD",
"*X c #F7E5D8",
"=X c #F5ECDC",
"-X c #F8E9DB",
";X c #FBF5DD",
":X c #F6F3E4",
">X c #F9F6E7",
",X c #F6F5E9",
"<X c #F6FAEA",
"1X c #FBF9E8",
"2X c #FBFAE9",
"3X c #F9F7E8",
"4X c #FFFFF2",
"5X c #EFEDE0",
/* pixels */
"    @ @ o o o o o o o o o o o o o o o o o o o o o o o o o o o o o o o o o o o o o o o o o o o o o o o o o o o o o o o o o o o o o o o o o o @ @     ",
"    o % i c c c c c d d d d d d d d d d d d d d d d d d d d d d d d d d d d d d d d d d d d d d d d d d d d d d d d d d d d d d d d d c c i % o     ",
"@ o . y M.I.I.P.P.P.P.P.P.P.P.P.P.P.P.P.P.P.P.P.P.P.P.P.P.P.P.P.P.P.P.P.P.P.P.P.P.P.P.P.P.P.P.P.P.P.P.P.P.P.P.P.P.P.P.P.P.P.P.P.P.P.P.I.I.M.y . o @ ",
"@ % y n.XX2X2X1X1X1X1X1X1X2X2X1X1X1X1X1X1X1X1X1X1X1X1X1X1X1X1X1X1X1X1X1X1X1X1X1X1X1X1X1X1X1X1X1X1X1X1X1X1X1X1X1X1X1X1X1X1X1X1X1X1X1X1X2X2XXXn.y % @ ",
"o i M.XX&X1X>X>X>X>X>X1X1X2X2X1X1X>X>X>X>X>X>X>X>X>X>X>X>X>X>X>X>X>X>X>X>X>X>X>X>X>X>X>X>X>X>X>X>X>X>X>X>X>X>X>X>X>X>X>X>X>X>X>X>X>X>X>X1X&XXXM.i o ",
"o c I.2X1X:X:X:X:X:X:X*X@XT.T.@X*X:X>X>X>X>X>X>X>X>X>X>X>X>X>X>X>X>X>X>X>X>X>X>X>X>X>X>X>X>X>X>X>X>X>X>X:X:X:X:X>X>X:X:X>X>X>X>X:X:X:X:X:X1X2XI.c o ",
"o c I.2X>X:X:X:X:X:X,X@X3.<.<.3.@X<X1X1X1X1X1X1X1X1X1X1X1X1X1X1X1X1X1X1X1X1X1X1X1X1X1X1X1X1X1X1X1X1X1X>X:X:X:X:X>X>X:X:X>X1X1X>X>X:X:X:X:X>X2XI.c o ",
"o c P.1X>X:X:X:X:X:X<XT.<.L L <.T.%X XL.L.L.L.L.L.L.L.L.L.L.L.L.L.L.L.L.L.L.L.L.L.L.L.L.L.L.L.L.L.L.L.|.%X>X1X%XoXoX%X%X|.L.L.oX%X>X:X:X:X>X1XP.d o ",
"o d P.1X>X:X:X:X:X:X<XT.<.L L 1.^. XC a a s s s s s s s s s s s s s s s s s s s s s s s s s s s s a a Z |.2X2XoXC C oXoXC p a C oX>X>X:X:X>X1XP.d o ",
"o d P.1X>X:X:X:X:X:X<XT.1.P P 2.^. XC a a s s s s s s s s s s s s s d d d d d d d d d s s s s s s a a C oX=XXXM.r s I.XX>.r @ s P.1X>X:X:X>X1XP.d o ",
"o d P.1X>X:X:X:X:X:X<XT.1.P P 1.T.%X XL.L.L.L.L.L.L.L.L.L.L.L.L.L.P.I.I.I.I.I.I.I.I.I.I.P.L.L.L.L.L.L.oX&XoXn.r @ s I.=XXXM.r a L.1X>X:X:X>X1XP.d o ",
"o d P.1X>X:X:X:X:X<X<XT.1.P P 1.T.<X1X1X1X1X1X1X1X1X1X2X2X2X2X2X2X5XXXI.I.~.(.^.^.(.U.XX5X2X2X1X1X1X1X2X2XP.s . . c I.2X2XI.s s L.1X>X:X:X>X1XP.d o ",
"o d P.1X>X:X:X<X<X<X<X^.1.P P 1.T.<X1X>X>X>X>X>X>X1X1X2X2X2X2X2X2XXXb.x x >.,.2.2.,.M b.XX2X2X>X>X>X>X1X2XP.d . . c I.2X2XI.s s L.1X>X:X:X>X1XP.d o ",
"o d P.1X1X*X/.R.T.T.T.J.=.P L <.T.<X:X:X:X:X:X:X>X-X@XE.U.A.A.U.(.G.j > > 3 D Q U K 3 h V..X&X>X:X:X:X>X1XI.c . o c I.2X2XL.s s L.1X>X:X:X>X1XP.d o ",
"o d P.1X1X/.5.;.;.<.<.=.` P L <.T.<X:X:X:X:X:X:X1X+X3.,.M v v M ,.:.^ E E D 3 A ! U ! F l C  X>X>X:X:X>X1XI.c . o c I.2X2XL.s s L.1X>X:X:X>X1XP.d o ",
"o d P.1X1X/.5.;.;.<.<.<.<.<.<.3.@X:X:X:X:X:X:X%X XG.:.K A = = 3 D Q ( ) / E ; ; W ) ) R > p A.2X>X:X:X>X1XI.d . . c I.2X2XL.s s L.1X>X:X:X>X1XP.d o ",
"o d P.1X1X*X/.R.T.T.T.T.T.T.T.@X*X:X:X:X:X>X>X Xv.j ~ U ! E E D 3 A Q / ) E ; ; W ) ) R > p A.1X>X:X:X>X1XP.d . . d P.2X2XL.s s L.1X>X:X:X>X1XP.d o ",
"o d P.1X>X:X<X<X<X<X<X<X<X<X<X<X:X:X:X:X:X>X1XP.s > E / / / ) E ; ; E / ) E ; : E ( Q F h C  X>X>X:X:X>X1X~.n 7 7 n ~.2X2XL.s s L.1X>X:X:X>X1XP.d o ",
"o c P.1X>X:X<X<X<X<X<X<X<X<X<X<X:X:X:X:X:X>X1XP.s = E ) / / / E ; ; E ) ) E ; : E Q A h V..X&X:X:X:X:X:X,X).h.X.X.h.).1X2XL.s s L.1X>X:X:X>X1XP.d o ",
"o c P.1X1X*X@XT.T.@X=X=X@XT.T.@X*X:X:X:X:X>X1XP.s * S E E E E D < < S R R S & & D G l v.XX2X>X:X:X:X:X:X,X'.l.t.t.l.'.2X1XL.s s L.1X>X:X:X>X1XP.d o ",
"o c P.1X1X@X3.;.<.3.+X+X3.;.;.3.@X:X:X:X:X>X1XP.s O * - : : : < @ @ & - - & O O & k V.XX&X>X:X:X:X:X:X:X,X'.l.t.t.l.'.1X1XL.s s L.1X>X:X:X>X1XP.d o ",
"o c P.2X2XT.<.L L -.H.H.-.L L <.T.<X:X:X:X>X>XoXC d c u # X X $ 6 q f N c c c y # s I.2X1X:X:X:X:X:X:X:X,X).h. . .h.).1X2XL.s s L.1X>X:X:X>X1XP.d o ",
"o c P.2X2XT.<.P P _ -.-._ P P <.T.<X:X:X:X:X:X%XoXI.[.B.u X X 6 } s.K.I.I.I.I.M.t s P.2X>X:X:X:X:X:X:X>X1XQ.n 5 5 n Q.2X2XL.s s L.1X>X:X:X>X1XP.d o ",
"o c P.2X2XT.<.P I / I I / I P <.T.<X:X:X:X:X:X:X1X;X$XK.m 0 0 e s.c.$X2X1X2X2X~.m m Q.1X3X:X:X:X:X:X:X>X1XQ.n 5 5 n Q.2X2XL.s s L.1X>X:X:X>X1XP.d o ",
"o c P.2X<XT.<.P I / I I / I P <.T.<X:X:X:X:X:X:X3X$Xc.f.8.....s.W.$X;X3X3X1X2X).j.j.).,X,X:X:X:X:X:X:X:X,X).h. . .h.).1X2XL.s s L.1X>X:X:X>X1XP.d o ",
"o c P.1X1X@X3.=.` I / / I ` =.3.@X,X:X:X:X:X:X,X,X'.k.r.p.a.t.l.'.,X,X:X:X,X,X'.k.d.W.$X=X:X:X:X:X:X:X:X,X'.l.t.t.l.'.2X1XL.s s L.1X>X:X:X>X1XP.d o ",
"o d P.1X1X-X+XJ.=.P I I P =.J.+X-X:X:X:X:X:X:X,X,X'.k.r.p.p.t.k.'.,X,X:X:X:X,X'.k.a.d.x.].,X:X:X:X:X:X:X,X'.l.t.t.l.'.2X2XL.s s L.1X>X:X:X>X1XP.d o ",
"o d P.1X>X:X<X+X3.=.` ` =.3.+X<X:X:X:X:X:X:X:X=X$XW.d.u.u.u.u.k.'.1X,X:X:X:X,X'.k.t.0.k.'.,X,X:X:X:X:X:X,X).h. . .h.).1X2XL.s s L.1X>X:X:X>X1XP.d o ",
"o d P.1X>X:X:X=X+XJ.[ [ J.+X=X,X:X:X:X:X:X:X,X].x.d.i.u.u.u.r.k.].2X3X:X:X:X,X'.l.t.r.k.'.,X,X:X:X:X:X>X1XQ.n 5 5 n Q.2X2XL.s s L.1X>X:X:X>X1XP.d o ",
"o c P.1X>X:X:X:X<X@X3.3.@X<X:X:X:X:X:X:X:X,X1X'.k.0.u.u.u.p.p.f.K.XX&X1X>X1X1X_.h.9.e.d.W.$X=X:X:X:X:X>X1XQ.n 5 5 n Q.2X2XL.s s L.1X>X:X:X>X1XP.d o ",
"o d P.1X>X:X:X:X:X-X@X@X-X:X:X:X:X:X:X:X:X,X2X].k.0.u.u.u.p.p.8.M v.XX2X2X2X2X~.n e 9.i.d.x.].,X:X:X:X:X,X).h. . .h.).1X2XL.s s L.1X>X:X:X>X1XP.d o ",
"o c P.1X>X:X:X:X:X%X X X%X:X:X:X:X:X:X:X>X&X XK.f.p.p.p.p.a.a...7 t M.I.P.P.I.N.t 0 ..y.t.k.'.,X:X:X:X:X,X'.l.t.t.l.'.2X2XL.s s L.1X>X:X:X>X1XP.d o ",
"o d P.1X>X:X:X>X>X|.C C |.>X>X:X:X:X:X>X2XoXZ M 8.a.a.a.p.a.a.#.8 # t s s s s t # 8 #.y.y.k.'.,X:X:X:X:X,X'.l.t.t.l.'.1X1XL.s s L.1X>X:X:X>X1XP.d o ",
"o d P.1X>X:X:X>X1XL.a a L.1X>X:X:X>X>X&X.XZ.V b O.X...........} 6 # y c d c c i % 6 } X.X.h._.1X3X:X:X:X3X).h. . .h.).1X2XL.s s L.1X>X:X:X>X1XP.d o ",
"o d P.1X>X:X:X>X1XL.a a L.1X>X:X:X>X2XoXC V Z.C.b 7 7 0 0 8 8 , + i B.!.U.U.!.B.i + , 7 5 m ~.2X3X:X:X>X1XQ.n 5 5 n Q.2X2XL.s s L.1X>X:X:X>X1XP.d o ",
"o d P.1X>X:X:X>X1XL.s s L.1X>X:X>X&XXXV.h j F.Y.Z s z N N N z t # i B.|.|.|.|.B.i # t d z V Z..X&X>X>X>X1XQ.n 5 5 n Q.2X2XL.s s L.1X>X:X:X>X1XP.d o ",
"o d P.1X>X:X:X>X1XL.s s L.1X>X>X2XXXv.h F ~ :.5.Y.{.[.I.I.[.I.B.i # i B B B B i # i B.[.}.Z.V C oX2X>X:X3X).h. . .h.).1X2XL.s s L.1X>X:X:X>X1XP.d o ",
"o d P.1X>X:X:X>X1XL.s s L.2X2X&XXXV.h 3 ! I P =.H././.^.^.#X>XI.B + , , + + , , + B I.>X#XG.j h V.XX&X1X2X].l.t.t.l.].2X2XL.s s L.1X>X:X:X>X1XP.d o ",
"o d P.1X>X:X:X>X1XL.s s L.2X2XXXv.h F Q ( I I _ -.2.2.1.<.4.#XI.N , } } 6 6 } } , N I.#X4.:.~ F h v.XX2X2X].z.t.t.z.].2X2XL.s s L.1X>X:X:X>X1XP.d o ",
"o d P.1X>X:X:X>X1XL.s s I.:XOXC.b w { T T Y ) I I I I P P <.^.I.N 8 8.8.9 9 8.8.8 N I.^.<.P I ! 3 h V.I.[.K.g. . .g.K.XX5XP.s s L.1X>X:X:X>X1XP.d o ",
"o d P.1X>X:X:X>X1XL.s d U.OXv.b O.$.q.q.q.&.Y / I I I P P 1.^.I.N 8 #.8.9 9 8.#.8 N I.^.1.P I ( ! G l N N f q 7 7 q g m.XXI.d s L.1X>X:X:X>X1XP.d o ",
"o d P.1X>X:X:X>X1XP.s i B.C.l 4 %.w.q.q.q.&.@.Y ) / / I I 2.^.I.N 8 #.#.9 9 #.#.8 N I.^.2.I I / / ~ w , + # t z N t @ d I.I.d s L.1X>X:X:X>X1XP.d o ",
"o d P.1X>X:X:X>X1XP.c # u k G ~ Y T T T T @.&.&.Y / / I I 2.^.I.N 8 #.#.9 9 #.#.8 N I.^.2.I I / / Y %.} , t N.I.I.M.r s I.I.d s L.1X>X:X:X>X1XP.d o ",
"o d P.1X>X:X:X>X1XP.c O * A Q / / / / / / T q.q.T / / I I 2.^.I.N 8 #.#.9 9 8.#.8 N }.^.2.I I / / T w.8.8 z I.4X4XI.s d U.U.c s L.1X>X:X:X>X1XP.d o ",
"o d P.1X>X:X:X>X1XP.c & D Q ( / / / / / / T q.q.T / / I I 2.^.I.N 8 #.#.9 9 8.8.8 N }./.2.I I / / T w.8.8 z I.4X4XI.s c !.!.c s L.1X>X:X:X>X1XP.d o ",
"o d P.1X>X:X:X>X1XP.c & D ' ( / / / / / / T q.q.T / / I I 2.^.}.N 8 #.8.9 6 | | 6 u B.D.*.R E W W ] %.} , t B.!.!.M.r y M.M.y s P.1X>X:X:X>X1XP.d o ",
"o d P.1X>X:X:X>X1XP.c O & A Q / / / / / / T q.q.T / / I I 2./.}.N 8 #.8.9 $ 6 6 $ # t g 1 = ; ; ; 2 0 , + # u N N u # # y y # c P.1X>X:X:X>X1XP.d o ",
"o d P.1X>X:X:X>X1XI.c X X < S E E E E W W ] o.o.] R E E E *.S.B.u , } | 6 @ < : : 1 f c N a 1 ; ; 1 a N B f 1 = = 1 f B c t # c P.1X>X:X:X>X1XP.d o ",
"o d P.1X>X:X:X>X1XI.c . X @ < ; ; = = ; ; 2 0 0 ; = = = ; 1 a u # + , 6 $ < S R R *.D.}.}.S.*.R R *.S.}.}.S.*.J J *.S.}.}.B.t s P.1X>X:X:X>X1XP.d o ",
"o d P.1X>X:X:X>X1XP.c O & : : 1 a N N a 1 ; ; 1 a N N a 1 ; = 1 f B N a 1 A Q P P -.H././.H.-.P P -.H././.H.-.P P -.H././.D.g s P.1X>X:X:X>X1XP.d o ",
"o d P.1X>X:X:X>X1XP.c & D R E *.S.}.}.S.*.R R *.S.}.}.S.*.J J *.S.}.}.S.*.! U P P _ -.2.2.-._ P P _ -.2.2.-._ P P _ -.2.2.*.1 d P.1X>X:X:X>X1XP.d o ",
"o d P.1X>X:X:X>X1XP.c = R P P -.H././.H.-.P P =.H././.H.-.P P -.H././.H.-._ -.2.2.-._ P P _ -.2.2.-._ P P _ -.2.2.-._ P P J = c P.1X>X:X:X>X1XP.d o ",
"o d P.1X>X:X:X>X1XP.c = J P P _ -.2.2.-._ P P _ -.2.2.-._ P P _ -.2.2.-._ -.H././.H.-.P P -.H././.H.-.P P -.H././.H.-.P P R = c P.1X>X:X:X>X1XP.d o ",
"o d P.1X>X:X:X>X1XP.d 1 *.2.2.-._ P P _ -.2.2.-._ P P _ -.2.2.-._ P P U K *.S.}.}.S.*.R R *.S.}.}.S.*.R R *.S.}.}.S.*.E R D & c P.1X>X:X:X>X1XP.d o ",
"o d P.1X>X:X:X>X1XL.s g D././.H.-.P P -.H././.H.-.P P -.H././.H.-.P P Q A 1 a N B f 1 : : 1 a N N a 1 : : 1 a N N a 1 : : & O c P.1X>X:X:X>X1XP.d o ",
"o d P.1X>X:X:X>X1XL.s y B.}.}.S.*.J J *.S.}.}.S.*.R R *.S.}.}.D.*.E R D < @ & & O X X @ < ; ; = - & @ X X @ & - = = ; < @ X o c I.1X>X:X:X>X1XP.d o ",
"o d P.1X>X:X:X>X1XP.c # t c B f 1 = = 1 f B N a 1 ; ; 1 a N x f 1 : : < @ < D D & X X & S E W E R S < X X < S E E E E S < X . c I.1X>X:X:X>X1XP.d o ",
"o d P.1X>X:X:X>X1XP.c # y y # # u N N u # + , 0 2 ; ; ; = 1 g f 1 < @ X X : E ' A 1 a 6.^ I / / / ~ H 0 2 A Q / / / ) Q A & O c P.1X>X:X:X>X1XP.d o ",
"o d P.1X>X:X:X>X1XP.s y M.M.y r M.!.!.B.t , } %.] W W R R *.D.D.*.S & X X : E I ! *.S.F.:.I I / / Y %.o.] ! ( / / / / ( ' D & c P.1X>X:X:X>X1XP.d o ",
"o d P.1X>X:X:X>X1XL.s c !.!.c s I.4X4XI.z 8 8.w.T / / I I 2././.2.' H 9 9 H ~ I I 2././.2.I I / / T q.q.T / / / / / / ( Q D & c P.1X>X:X:X>X1XP.d o ",
"o d P.1X>X:X:X>X1XL.s c U.U.d s I.4X4XI.z 8 8.w.T / / I I 2.^.^.2.Y %.8.8.%.Y I I 2.^.^.2.I I / / T q.q.T / / / / / / Q A * O c P.1X>X:X:X>X1XP.d o ",
"o d P.1X>X:X:X>X1XL.s d I.I.s r M.I.I.N.t , } %.Y / / I I 2.^.^.1.Y %.8.8.%.Y I I 2.^.^.2.I I / / Y &.&.@.T T T T Y ~ G k u # d P.1X>X:X:X>X1XP.d o ",
"o d P.1X>X:X:X>X1XL.s d I.I.d @ t z z t # + , w ~ / / I I 2.^.^.2.' H 9 9 w ~ I I 2.^.^.2.I I / / ) Y @.&.q.q.q.w.%.4 l C.B.i s P.1X>X:X:X>X1XP.d o ",
"o d P.1X>X:X:X>X1XL.s d I.XXm.g q 7 7 q f N z l G ! ( I P 1.^.(.,.D w 9 9 w F ! U 2.^.^.1.P P I I I / Y &.q.q.q.9.O.b v.OXU.d a L.1X>X:X:X>X1XP.d o ",
"o d P.1X>X:X:X>X1XL.s s P.5XXXK.g. . .g.K.I.I.V.h 3 ! I P <.^.U.M w +.8.8.O.w A Q 2.^.T.<.P P I I I / ) Y T T { w b C.OX:XI.s s L.1X>X:X:X>X1XP.d o ",
"o d P.1X>X:X:X>X1XL.s s L.2X2X].z.t.t.z.].2X2XXXv.h F ~ :.4.#XI.N , } 9.9.} 6 * S ,.(.#X4.<.1.2.2.-._ I I ( Q F h v.XX2X2XL.s s L.1X>X:X:X>X1XP.d o ",
"o d P.1X>X:X:X>X1XL.s s L.2X2X].l.t.t.l.].2X1X&XXXV.h j G.#X>XI.N + , 8 8 6 + O & >.~.>X#X^.^.^./.H.=.P I ! 3 h V.XX&X2X2XL.s s L.1X>X:X:X>X1XP.d o ",
"o d P.1X>X:X:X>X1XL.s s L.2X1X).h. . .h.).,X:X>X2XoXC V Z.}.[.B.i # i B B B B i # u B.I.I.I.I.[.}.Y.5.:.~ F h v.XX2X>X>X1XL.s s L.1X>X:X:X>X1XP.d o ",
"o d P.1X>X:X:X>X1XL.s s L.2X2XQ.n 5 5 n Q.1X>X>X>X&X.XZ.V s d y # i B.|.|.|.|.B.i # t z N N N z s Z Y.F.j h V.XX&X>X>X>X1XL.s s L.1X>X:X:X>X1XP.d o ",
"o d P.1X>X:X:X>X1XL.s s L.2X2XQ.n 5 5 n Q.1X>X:X:X3X2X~.m 7 7 , + i B.!.U.U.!.B.i + , 0 0 0 0 7 7 b C.Z.V C oX2X>X:X:X>X1XL.a a L.1X>X:X:X>X1XP.d o ",
"o d P.1X>X:X:X>X1XL.s s L.2X2X).h. . .h.).,X:X:X:X3X1X_.h.X.X.} 6 # i c d c c i # 6 } ..........X.O.b V Z.oX&X>X>X:X:X>X1XL.a a L.1X>X:X:X>X1XP.d o ",
"o d P.1X>X:X:X>X1XL.s s L.1X2X'.l.t.t.l.'.,X:X:X:X:X,X'.k.y.y.#.8 # t s s s s t # 8 #.a.a.a.a.a.a.8.M Z oX2X>X:X:X:X:X>X>X|.C C |.>X>X:X:X>X1XP.d o ",
"o d P.1X>X:X:X>X1XL.s s L.1X2X'.l.t.t.l.'.,X:X:X:X:X,X'.k.t.y...0 t M.I.P.P.I.M.t 7 ..a.a.p.p.p.t.f.K. X%X>X>X:X:X:X:X:X:X%X X X%X:X:X:X:X>X1XP.d o ",
"o d P.1X>X:X:X>X1XL.s s L.2X2X).h. . .h.).,X:X:X:X:X,X].x.d.i.9.e n ~.2X2X2X2XXXv.M 8.p.p.u.u.r.0.k.].2X,X:X:X:X:X:X:X:X:X-X+X+X-X:X:X:X:X>X1XP.d o ",
"o d P.1X>X:X:X>X1XL.s s L.2X2XQ.n 5 5 n Q.1X>X:X:X:X:X=X$XW.d.e.9.h._.1X1X>X1X&X XK.f.p.p.u.u.r.0.k.'.1X,X:X:X:X:X:X:X:X<X@X3.3.@X<X:X:X:X>X1XP.d o ",
"o d P.1X>X:X:X>X1XL.s s L.2X2XQ.n 5 5 n Q.1X>X:X:X:X:X,X,X'.k.r.t.l.'.,X:X:X:X,X2X].k.r.u.u.u.i.d.x.].,X:X:X:X:X:X:X:X=X+XJ.[ [ J.+X=X:X:X>X1XP.d o ",
"o d P.1X>X:X:X>X1XL.s s L.2X1X).h. . .h.).,X:X:X:X:X:X,X,X'.k.0.t.k.'.,X,X:X:X,X1X'.k.r.u.p.u.d.W.$X=X:X:X:X:X:X:X:X<X+X3.=.` ` =.3.+X<X:X>X1XP.d o ",
"o d P.1X>X:X:X>X1XL.s s L.1X2X'.l.t.t.l.'.,X:X:X:X:X:X:X,X].x.d.a.k.'.,X,X:X:X,X,X'.l.t.p.t.0.k.'.,X,X:X:X:X:X:X:X-X+XJ.=.P I I P =.J.+X-X1X1XP.d o ",
"o d P.1X>X:X:X>X1XL.s s L.1X1X'.l.t.t.l.'.,X:X:X:X:X:X:X:X=X$XW.d.k.'.,X,X:X:X,X,X'.l.y.a.t.t.k.'.,X,X:X:X:X:X:X,X@X3.=.` I / / I ` =.3.@X1X1XP.d o ",
"o d P.1X>X:X:X>X1XL.s s L.2X1X).h. . .h.).,X:X:X:X:X:X:X:X,X,X).j.j.).1X1X3X3X;X$XW.s.....s.f.c.$X3X,X:X:X:X:X:X<XT.<.P I / I I / I P <.T.2X2XP.d o ",
"o d P.1X>X:X:X>X1XL.s s L.2X2XQ.n 5 5 n Q.1X>X:X:X:X:X:X:X>X1XQ.m m ~.2X2X1X2X$Xc.s.e 0 0 m K.$X;X1X:X:X:X:X:X:X<XT.<.P I / I I / I P <.T.2X2XP.d o ",
"o d P.1X>X:X:X>X1XL.s s L.2X2XQ.n 5 5 n Q.1X>X:X:X:X:X:X:X>X2XP.s t M.I.I.I.I.K.s.} 6 X X u B.[.I.oX%X:X:X:X:X:X<XT.<.P P _ -.-._ P P <.T.2X2XP.d o ",
"o d P.1X>X:X:X>X1XL.s s L.2X2X).h. . .h.).,X:X:X:X:X:X:X:X1X2XI.d # y c c x N f q 6 $ X X # u c d C oX1X>X:X:X:X<XT.<.L L -.H.H.-.L L <.T.2X2XP.d o ",
"o d P.1X>X:X:X>X1XL.s s L.1X2X'.l.t.t.l.'.,X:X:X:X:X:X>X>X&XXXV.k & O O & = - & @ @ < : : : - * O s P.1X>X:X:X:X:X@X3.<.<.3.+X+X3.;.<.3.@X1X1XP.d o ",
"o d P.1X>X:X:X>X1XL.s s L.1X2X'.l.t.t.l.'.,X:X:X:X:X:X>X2XXXv.l G D & & S R R S < < D E E E R S * s P.1X>X:X:X:X:X*X@XT.T.@X=X=X@XT.T.@X*X1X1XP.d o ",
"o d P.1X>X:X:X>X1XL.s s L.2X2X).h.X.X.h.).,X:X:X:X:X>X%X.XV.h A Q E : ; E / / E ; ; E / ) ) ) E = s P.1X>X:X:X:X:X:X<X<X<X<X,X,X<X<X<X<X:X>X1XP.d o ",
"o d P.1X>X:X:X>X1XL.s s P.2X2X~.n 7 7 n ~.1X>X:X:X>X>X Xv.h F Q ( E : ; E ) / E ; ; E / ) ) ) E > s P.1X>X:X:X:X:X:X<X<X<X<X<X<X<X<X<X<X:X>X1XP.d o ",
"o d P.1X>X:X:X>X1XL.s s P.2X2XP.d . . d P.1X>X:X:X>X1XA.p > R ) ) W ; ; E ) / Q A 3 D E E ! U ~ j v. X>X>X:X:X:X:X*X@XT.T.T.T.T.T.T.R./.*X1X1XP.d o ",
"o d P.1X>X:X:X>X1XL.s s L.2X2XI.d . . d P.1X>X:X:X>X1XA.p > R ) / W ; ; E / ) ( Q D 3 > = A K :.G. X%X:X:X:X:X:X,X@X3.<.<.<.<.<.<.;.;.5./.1X1XP.d o ",
"o d P.1X>X:X:X>X1XL.s s L.2X2XI.c . . c I.1X>X:X:X>X>X XC h F ! U ! A 3 D E E ^ :.,.M p v M ,.3.+X2X:X:X:X:X:X:X<XT.<.L P ` =.<.<.;.;.5./.1X1XL.d o ",
"o d P.1X>X:X:X>X1XL.s s L.2X2XI.c . . c I.1X>X:X:X:X:X&X.XV.h 3 K U K D 3 > > j F.(.U.A.A.U.E.@X-X>X:X:X:X:X:X:X<XT.<.L P =.J.T.T.T.R./.*X1X1XP.d o ",
"o d P.1X>X:X:X>X1XL.s s P.2X2XI.c . . d P.2X1X>X>X>X>X2X2XOXb.M ,.2.2.,.>.x x b.OX2X2X2X2X2X2X1X1X>X>X>X>X>X>X1X<XT.1.P P 1.^.<X<X<X<X:X:X>X1XP.d o ",
"o d P.1X>X:X:X>X1XP.s s I.2X2XI.c . . s P.2X2X1X1X1X1X2X2X5XXXU.(.^.^.(.~.I.I.XX5X2X2X2X2X2X2X1X1X1X1X1X1X1X1X1X<XT.1.P P 1.T.<X<X:X:X:X:X>X1XP.d o ",
"o d P.1X>X:X:X>X1XP.s r M.XX=XI.s @ r n.oX&XoXL.L.L.L.L.L.P.I.I.I.I.I.I.I.I.I.I.P.L.L.L.L.L.L.L.L.L.L.L.L.L.L. X%XT.1.P P 1.T.<X:X:X:X:X:X>X1XP.d o ",
"o d P.1X>X:X:X>X1XP.s @ r >.XXI.s r M.XX=XoXC a a s s s s s d d d d d d d d d d s s s s s s s s s s s s s a a C  X^.2.P P 1.T.<X:X:X:X:X:X>X1XP.d o ",
"o d P.1X>X:X:X>X1XoXC a a C oXoXC C oX2X2X|.Z a a s s s s s s s s s s s s s s s s s s s s s s s s s s s s a a C  X^.1.L L <.T.<X:X:X:X:X:X>X1XP.d o ",
"o d P.1X>X:X:X:X:X%XoXL.L.|.%X%XoXoX%X1X>X%X|.L.L.L.L.L.L.L.L.L.L.L.L.L.L.L.L.L.L.L.L.L.L.L.L.L.L.L.L.L.L.L.L. X%XT.<.L L <.T.<X:X:X:X:X:X>X1XP.c o ",
"o c I.2X>X:X:X:X:X:X>X1X1X>X:X:X>X>X:X:X:X:X>X1X1X1X1X1X1X1X1X1X1X1X1X1X1X1X1X1X1X1X1X1X1X1X1X1X1X1X1X1X1X1X1X1X<X@X3.;.;.3.@X,X:X:X:X:X:X>X2XI.c o ",
"o c I.2X1X:X:X:X:X:X>X>X>X>X:X:X>X>X:X:X:X:X>X>X>X>X>X>X>X>X>X>X>X>X>X>X>X>X>X>X>X>X>X>X>X>X>X>X>X>X>X>X>X>X>X>X:X*X@XT.T.@X*X:X:X:X:X:X:X1X2XI.c o ",
"o i M.XX&X1X>X>X>X>X>X>X>X>X>X>X>X>X>X>X>X>X>X>X>X>X>X>X>X>X>X>X>X>X>X>X>X>X>X>X>X>X>X>X>X>X>X>X>X>X>X>X>X>X>X>X>X1X1X2X2X1X1X>X>X>X>X1X1X&XXXM.i o ",
"@ % y n.XX2X2X1X1X1X1X1X1X1X1X1X1X1X1X1X1X1X1X1X1X1X1X1X1X1X1X1X1X1X1X1X1X1X1X1X1X1X1X1X1X1X1X1X1X1X1X1X1X1X1X1X1X1X1X2X2X1X1X1X1X1X1X2X2XXXn.y % @ ",
"@ o . y M.I.I.P.P.P.P.P.P.P.P.P.P.P.P.P.P.P.P.P.P.P.P.P.P.P.P.P.P.P.P.P.P.P.P.P.P.P.P.P.P.P.P.P.P.P.P.P.P.P.P.P.P.P.P.P.P.P.P.P.P.P.P.I.I.M.y o o @ ",
"    o % i c c d d d d d d d d d d d d d d d d d d d d d d d d d d d d d d d d d d d d d d d d d d d d d d d d d d d d c d c c c d d d c c i % o     ",
"    @ @ o o o o o o o o o o o o o o o o o o o o o o o o o o o o o o o o o o o o o o o o o o o o o o o o o o o o o o o o o o o o o o o o o o @ @     "
};
