/* XPM */
static char *hearts_4[] = {
/* columns rows colors chars-per-pixel */
"74 104 142 2 ",
"   c None",
".  c #1F002C",
"X  c #20012D",
"o  c #21012D",
"O  c #21012E",
"+  c #22032F",
"@  c #23032F",
"#  c #250632",
"$  c #270833",
"%  c #30133B",
"&  c #482E50",
"*  c #4B3152",
"=  c #583F5D",
"-  c #59405D",
";  c #59415E",
":  c #FF0115",
">  c #FF0216",
",  c #FF0316",
"<  c #FF0317",
"1  c #FF0417",
"2  c #FF0418",
"3  c #FF0518",
"4  c #FF0519",
"5  c #FF0619",
"6  c #FF071A",
"7  c #FF081B",
"8  c #FF091C",
"9  c #FF0A1C",
"0  c #FF0A1D",
"q  c #FF0B1D",
"w  c #FF0B1E",
"e  c #FF0C1E",
"r  c #FF0C1F",
"t  c #FF0D20",
"y  c #FF0E20",
"u  c #FF0F21",
"i  c #FF1627",
"p  c #FF1728",
"a  c #FF1828",
"s  c #FF1B2B",
"d  c #FE1C2C",
"f  c #FE303D",
"g  c #FE3340",
"h  c #FE3440",
"j  c #FE3441",
"k  c #FE3541",
"l  c #FD3642",
"z  c #FD3743",
"x  c #FD3844",
"c  c #FD3945",
"v  c #FD3A46",
"b  c #FD3F4A",
"n  c #FD424C",
"m  c #FD424D",
"M  c #FD434D",
"N  c #FD434E",
"B  c #FD444E",
"V  c #FD444F",
"C  c #FD454F",
"Z  c #FD4550",
"A  c #FD4650",
"S  c #FD4852",
"D  c #FB6D71",
"F  c #FB7074",
"G  c #FB7175",
"H  c #FB7276",
"J  c #FB7376",
"K  c #FB7377",
"L  c #FB7477",
"P  c #FB7578",
"I  c #816E80",
"U  c #9B8B96",
"Y  c #FA8D8D",
"T  c #FA8F8F",
"R  c #FA908F",
"E  c #FA9392",
"W  c #FA9493",
"Q  c #FA9594",
"!  c #C2B8B7",
"~  c #C4BAB9",
"^  c #C6BCBB",
"/  c #F8BAB3",
"(  c #F8BBB4",
")  c #F8BCB5",
"_  c #F8BDB6",
"`  c #F8BEB6",
"'  c #F8BFB7",
"]  c #F8BFB8",
"[  c #F8C3BB",
"{  c #F8C5BC",
"}  c #D5CDC7",
"|  c #F7CDC4",
" . c #F7CEC5",
".. c #F7CFC5",
"X. c #F8C9C0",
"o. c #F8CAC1",
"O. c #F8CBC2",
"+. c #F8CDC3",
"@. c #F7D0C6",
"#. c #F7D1C7",
"$. c #EFEBDE",
"%. c #F6E6D9",
"&. c #F7E6D9",
"*. c #F6E7DA",
"=. c #F6E8DB",
"-. c #F6EADC",
";. c #F6EBDD",
":. c #F6EEE0",
">. c #F6F3E4",
",. c #F6F4E5",
"<. c #F6F5E5",
"1. c #F6F5E6",
"2. c #F6F6E6",
"3. c #F6F6E7",
"4. c #F6F7E7",
"5. c #F9F6E7",
"6. c #FAF7E7",
"7. c #F6F7E8",
"8. c #F6F8E9",
"9. c #F6F9E9",
"0. c #F6FAEA",
"q. c #F6FBEB",
"w. c #F6FCEC",
"e. c #F6FDED",
"r. c #F6FEED",
"t. c #F6FFEE",
"y. c #F9F8E8",
"u. c #FAF8E8",
"i. c #FBF8E8",
"p. c #FBF9E8",
"a. c #FAF9E9",
"s. c #FBF9E9",
"d. c #F9FAEA",
"f. c #F9FBEA",
"g. c #FBFBEA",
"h. c #FAFBEB",
"j. c #FDFBEA",
"k. c #F9FCEB",
"l. c #FBFCEB",
"z. c #FFFDEB",
"x. c #FDFEEC",
"c. c #FFFEEC",
/* pixels */
"    $ # @ @ @ @ @ @ @ @ @ @ @ @ @ @ @ @ @ @ @ @ @ @ @ @ @ @ @ @ @ @ @ @ @ @ @ @ @ @ @ @ @ @ @ @ @ @ @ @ @ @ @ @ @ @ @ @ @ @ @ @ @ @ @ @ @ @ # $     ",
"    @ % * ; ; ; = = = = = = = = = = = = = = = = = = = = = = = = = = = = = = = = = = = = = = = = = = = = = = = = = = = = = = = = = = = ; ; * % @     ",
"$ @ . & U ^ ~ ! ! ! ! ! ! ! ! ! ! ! ! ! ! ! ! ! ! ! ! ! ! ! ! ! ! ! ! ! ! ! ! ! ! ! ! ! ! ! ! ! ! ! ! ! ! ! ! ! ! ! ! ! ! ! ! ! ! ! ! ~ ^ U & . @ $ ",
"# % & I } x.x.l.l.a.a.a.a.l.l.a.a.a.a.a.a.a.a.a.a.a.a.a.a.a.a.a.a.a.a.a.a.a.a.a.a.a.a.a.a.a.a.a.a.a.a.a.a.a.a.a.a.a.a.a.a.a.a.a.a.a.a.j.z.} I & % # ",
"@ * U } $.a.a.l.l.a.a.a.a.l.l.a.a.5.5.5.5.5.5.5.5.5.5.5.5.5.5.5.5.5.5.5.5.5.5.5.5.5.5.5.5.5.5.5.5.5.5.5.5.5.5.5.5.5.5.5.5.5.5.5.5.5.5.5.a.$.} U * @ ",
"@ ; ^ x.a.%.X./ / X.%.%.X./ / X.%.3.3.>.>.>.>.>.>.>.>.>.>.>.>.>.>.>.>.>.>.>.>.>.>.>.>.>.>.>.>.>.>.>.>.>.>.>.>.>.>.>.>.>.>.>.>.>.>.>.>.>.>.a.z.^ ; @ ",
"@ ; ~ x.a.X.F b n F | | F b b F X.3.3.>.>.>.>.>.>.>.>.>.>.>.>.>.>.>.>.>.>.>.>.>.>.>.>.>.>.>.>.>.>.>.>.>.>.>.>.>.>.>.>.>.>.>.>.>.>.>.>.>.>.5.j.~ ; @ ",
"@ = ! l.l.( m : : A [ [ A : : m ( 8.3.>.>.>.>.>.>.>.>.>.>.>.>.>.>.>.>.>.>.>.>.>.>.>.>.>.>.>.>.>.>.>.>.>.>.>.>.>.>.>.>.>.>.>.>.>.>.>.>.>.>.5.a.! = @ ",
"@ ; ! l.l.( m : : S { { S : : B ( 8.3.>.>.>.>.>.>.>.>.>.>.>.>.>.>.>.>.>.>.>.>.>.>.>.>.>.>.>.>.>.>.>.>.>.>.>.>.>.>.>.>.>.>.>.>.>.>.>.>.>.>.5.a.! = @ ",
"@ ; ! l.l.( m 1 2 x E W x 7 2 A _ 8.3.3.3.3.3.3.3.3.3.3.3.3.3.>.>.>.>.>.>.>.>.>.>.>.>.3.3.3.3.3.3.3.3.3.3.3.3.>.>.>.>.>.>.>.>.>.>.>.>.>.>.5.a.! = @ ",
"@ ; ! l.l.( m : 2 a k k d 8 8 A _ 8.3.3.3.8.8.3.3.3.3.8.8.7.3.>.>.>.>.>.>.>.>.>.>.>.>.3.7.8.8.7.3.3.3.8.8.7.3.>.>.>.>.>.>.>.>.>.>.>.>.>.>.5.a.! = @ ",
"@ ; ! a.a.X.F m B A m k a 8 8 A _ 8.8.=.X./ / X.;.;.X./ / X.=.3.3.>.>.>.>.>.>.>.>.3.3.=.X./ / X.;.;.X./ / X.=.3.3.>.>.>.>.>.>.>.>.>.>.>.>.5.a.! = @ ",
"@ = ! a.a.%.X.( ( _ _ R x 7 7 A _ w.w.| F b n L #.#.F b b F | 8.3.>.>.>.>.>.>.>.>.3.8.| F b n L #.#.F b b F | 8.3.>.>.>.>.>.>.>.>.>.>.>.>.5.a.! = @ ",
"@ = ! a.5.3.3.8.8.w.w.] B : : B _ :.#.T k : : x Q Q k : : k R | =.3.3.>.>.>.>.3.3.=.| R k : : x Q Q k : : k R | =.3.3.>.>.>.>.>.>.>.>.>.>.5.a.! = @ ",
"@ = ! a.5.3.3.3.3.8.w._ m : : B _ #.P k a 8 8 a x x a 8 8 p k F X.3.3.>.>.>.>.3.3.X.F k p 8 8 a x x a 8 8 p k F X.3.3.>.>.>.>.>.>.>.>.>.>.5.a.! = @ ",
"@ = ! a.5.>.>.>.>.3.7.X.F n n L | _ B 2 8 i y y 8 8 y y i 8 2 m ( 8.3.>.>.>.>.3.8.( m 2 8 y y y 8 8 y y y 8 2 m ( 8.3.>.>.>.>.>.>.>.>.>.>.5.a.! = @ ",
"@ = ! a.5.>.>.>.>.3.3.%.X./ / +.;._ B 2 8 y y y r r y i i 8 2 m ( 8.3.>.>.>.>.3.8._ B 2 8 y y y r r y y y 8 2 B ( 8.3.>.>.>.>.>.>.>.>.>.>.5.a.! = @ ",
"@ = ! a.5.>.3.3.3.3.3.3.8.w.w.w.8._ A 8 r y y y y y y y y r 8 A _ 8.3.>.>.>.>.3.8._ A 8 8 y y y y y y y y r 8 A _ 8.3.>.>.>.>.>.>.>.>.>.>.5.a.! = @ ",
"@ = ! a.5.3.3.8.8.7.3.3.8.w.w.w.8._ A 8 r y y y y y y y y r 8 A _ 8.3.>.>.>.>.3.8._ A 8 8 y y y y y y y y r 8 A _ 8.3.>.>.>.>.>.>.>.>.>.>.5.a.! = @ ",
"@ = ! a.a.%.X./ / X.;.;.X./ / +.;._ B 2 8 y y y y y y y y 8 2 m ( 8.3.>.>.>.>.3.8._ B 2 8 y y y y y y y y 8 2 B ( 8.3.>.>.>.>.>.>.>.>.>.>.5.a.! = @ ",
"@ ; ! a.a.X.F b n P #.#.L n n F | ] B 2 8 i y y y y y y y 8 2 m ( 8.3.>.>.>.>.3.8.( m 2 8 y i i y y y y y 8 2 m ( 8.3.>.>.>.>.>.>.>.>.>.>.5.a.! = @ ",
"@ ; ! l.l.( m : : x Q Q x : : B ] #.P k p r y y i y y y 8 p k F X.3.3.>.>.>.>.3.7.X.F k a 8 y y y y y y 8 p k F X.3.3.>.>.>.>.>.>.>.>.>.>.5.a.! = @ ",
"@ = ! l.l.( m 2 2 a x x a 2 2 B _ :.#.R k 2 8 y y y y 8 2 k R | =.3.3.>.>.>.>.3.3.=.| R k 2 8 y i i i 8 2 g R | =.3.3.>.>.>.>.>.>.>.>.>.>.5.a.! = @ ",
"@ = ! l.l.( m 2 8 y 8 8 y 8 2 B ( w.w.| F k p 8 y y 8 p k F | 8.3.>.>.>.>.>.>.>.>.3.8.| F k p 8 y y 8 p g F | w.3.>.>.>.>.>.>.>.>.>.>.>.>.5.a.! = @ ",
"@ = ! l.l.( m 2 8 y r r y 8 2 m ( 8.8.;.| T k 2 8 r 2 k T | ;.3.3.>.>.>.>.>.>.>.>.3.3.;.| T k 2 8 8 2 k T | ;.3.3.>.>.>.>.>.>.>.>.>.>.>.>.5.a.! = @ ",
"@ = ! a.a.X.F k p 8 y y 8 p k F X.3.3.3.8.| F g i i g F | 8.3.>.>.>.>.>.>.>.>.>.>.>.>.3.8.| F g i i g F | 8.3.>.>.>.>.>.>.>.>.>.>.>.>.>.>.5.a.! = @ ",
"@ = ! a.a.=.| T k 2 8 8 2 k R | =.3.3.3.3.;.| T f f T | ;.3.3.>.>.>.>.>.>.>.>.>.>.>.>.3.3.;.| T f f T | ;.3.3.>.>.>.>.>.>.>.>.>.>.>.>.>.>.5.a.! = @ ",
"@ = ! a.5.3.8.| F g i i g F | 8.3.>.>.>.>.3.8.X.D D X.8.3.>.>.>.>.>.>.>.>.>.>.>.>.>.>.>.>.3.8.X.D D X.8.3.>.>.>.>.>.>.>.>.>.>.>.>.>.>.>.>.5.a.! = @ ",
"@ = ! a.5.3.3.;.| T f f T | ;.3.3.>.>.>.>.3.3.%.X.X.=.3.3.>.>.>.>.>.>.>.>.>.>.>.>.>.>.>.>.3.3.%.X.X.=.7.3.>.>.>.>.>.>.>.>.>.>.>.>.>.>.>.>.5.a.! = @ ",
"@ = ! a.5.>.>.3.8.X.D D X.8.3.>.>.>.>.>.>.>.>.3.7.7.3.>.>.>.>.>.>.>.>.>.>.>.>.>.>.>.>.>.>.>.>.3.7.7.3.>.>.>.>.>.>.>.>.>.>.>.>.>.>.>.>.>.>.5.a.! = @ ",
"@ = ! a.5.>.>.3.7.=.X.X.%.3.3.>.>.>.>.>.>.>.>.3.3.3.3.>.>.>.>.>.>.>.>.>.>.>.>.>.>.>.>.>.>.>.>.3.3.3.3.>.>.>.>.>.>.>.>.>.>.>.>.>.>.>.>.>.>.5.a.! = @ ",
"@ = ! a.5.>.>.>.>.3.7.7.3.>.>.>.>.>.>.>.>.>.>.>.>.>.>.>.>.>.>.>.>.>.>.>.>.>.>.>.>.>.>.>.>.>.>.>.>.>.>.>.>.>.>.>.>.>.>.>.>.>.>.>.>.>.>.>.>.5.a.! = @ ",
"@ = ! a.5.>.>.>.>.3.3.3.3.>.>.>.>.>.>.>.>.>.>.>.>.>.>.>.>.>.>.>.>.>.>.>.>.>.>.>.>.>.>.>.>.>.>.>.>.>.>.>.>.>.>.>.>.>.>.>.>.>.>.>.>.>.>.>.>.5.a.! = @ ",
"@ = ! a.5.>.>.>.>.>.>.>.>.>.>.>.>.>.>.>.>.>.>.>.>.>.>.>.>.>.>.>.>.>.>.>.>.>.>.>.>.>.>.>.>.>.>.>.>.>.>.>.>.>.>.>.>.>.>.>.>.>.>.>.>.>.>.>.>.5.a.! = @ ",
"@ = ! a.5.>.>.>.>.>.>.>.>.>.>.>.>.>.>.>.>.>.>.>.>.>.>.>.>.>.>.>.>.>.>.>.>.>.>.>.>.>.>.>.>.>.>.>.>.>.>.>.>.>.>.>.>.>.>.>.>.>.>.>.>.>.>.>.>.5.a.! = @ ",
"@ = ! a.5.>.>.>.>.>.>.>.>.>.>.>.>.>.>.>.>.>.>.>.>.>.>.>.>.>.>.>.>.>.>.>.>.>.>.>.>.>.>.>.>.>.>.>.>.>.>.>.>.>.>.>.>.>.>.>.>.>.>.>.>.>.>.>.>.5.a.! = @ ",
"@ = ! a.5.>.>.>.>.>.>.>.>.>.>.>.>.>.>.>.>.>.>.>.>.>.>.>.>.>.>.>.>.>.>.>.>.>.>.>.>.>.>.>.>.>.>.>.>.>.>.>.>.>.>.>.>.>.>.>.>.>.>.>.>.>.>.>.>.5.a.! = @ ",
"@ = ! a.5.>.>.>.>.>.>.>.>.>.>.>.>.>.>.>.>.>.>.>.>.>.>.>.>.>.>.>.>.>.>.>.>.>.>.>.>.>.>.>.>.>.>.>.>.>.>.>.>.>.>.>.>.>.>.>.>.>.>.>.>.>.>.>.>.5.a.! = @ ",
"@ = ! a.5.>.>.>.>.>.>.>.>.>.>.>.>.>.>.>.>.>.>.>.>.>.>.>.>.>.>.>.>.>.>.>.>.>.>.>.>.>.>.>.>.>.>.>.>.>.>.>.>.>.>.>.>.>.>.>.>.>.>.>.>.>.>.>.>.5.a.! = @ ",
"@ = ! a.5.>.>.>.>.>.>.>.>.>.>.>.>.>.>.>.>.>.>.>.>.>.>.>.>.>.>.>.>.>.>.>.>.>.>.>.>.>.>.>.>.>.>.>.>.>.>.>.>.>.>.>.>.>.>.>.>.>.>.>.>.>.>.>.>.5.a.! = @ ",
"@ = ! a.5.>.>.>.>.>.>.>.>.>.>.>.>.>.>.>.>.>.>.>.>.>.>.>.>.>.>.>.>.>.>.>.>.>.>.>.>.>.>.>.>.>.>.>.>.>.>.>.>.>.>.>.>.>.>.>.>.>.>.>.>.>.>.>.>.5.a.! = @ ",
"@ = ! a.5.>.>.>.>.>.>.>.>.>.>.>.>.>.>.>.>.>.>.>.>.>.>.>.>.>.>.>.>.>.>.>.>.>.>.>.>.>.>.>.>.>.>.>.>.>.>.>.>.>.>.>.>.>.>.>.>.>.>.>.>.>.>.>.>.5.a.! = @ ",
"@ = ! a.5.>.>.>.>.>.>.>.>.>.>.>.>.>.>.>.>.>.>.>.>.>.>.>.>.>.>.>.>.>.>.>.>.>.>.>.>.>.>.>.>.>.>.>.>.>.>.>.>.>.>.>.>.>.>.>.>.>.>.>.>.>.>.>.>.5.a.! = @ ",
"@ = ! a.5.>.>.>.>.>.>.>.>.>.>.>.>.>.>.>.>.>.>.>.>.>.>.>.>.>.>.>.>.>.>.>.>.>.>.>.>.>.>.>.>.>.>.>.>.>.>.>.>.>.>.>.>.>.>.>.>.>.>.>.>.>.>.>.>.5.a.! = @ ",
"@ = ! a.5.>.>.>.>.>.>.>.>.>.>.>.>.>.>.>.>.>.>.>.>.>.>.>.>.>.>.>.>.>.>.>.>.>.>.>.>.>.>.>.>.>.>.>.>.>.>.>.>.>.>.>.>.>.>.>.>.>.>.>.>.>.>.>.>.5.a.! = @ ",
"@ = ! a.5.>.>.>.>.>.>.>.>.>.>.>.>.>.>.>.>.>.>.>.>.>.>.>.>.>.>.>.>.>.>.>.>.>.>.>.>.>.>.>.>.>.>.>.>.>.>.>.>.>.>.>.>.>.>.>.>.>.>.>.>.>.>.>.>.5.a.! = @ ",
"@ = ! a.5.>.>.>.>.>.>.>.>.>.>.>.>.>.>.>.>.>.>.>.>.>.>.>.>.>.>.>.>.>.>.>.>.>.>.>.>.>.>.>.>.>.>.>.>.>.>.>.>.>.>.>.>.>.>.>.>.>.>.>.>.>.>.>.>.5.a.! = @ ",
"@ = ! a.5.>.>.>.>.>.>.>.>.>.>.>.>.>.>.>.>.>.>.>.>.>.>.>.>.>.>.>.>.>.>.>.>.>.>.>.>.>.>.>.>.>.>.>.>.>.>.>.>.>.>.>.>.>.>.>.>.>.>.>.>.>.>.>.>.5.a.! = @ ",
"@ = ! a.5.>.>.>.>.>.>.>.>.>.>.>.>.>.>.>.>.>.>.>.>.>.>.>.>.>.>.>.>.>.>.>.>.>.>.>.>.>.>.>.>.>.>.>.>.>.>.>.>.>.>.>.>.>.>.>.>.>.>.>.>.>.>.>.>.5.a.! = @ ",
"@ = ! a.5.>.>.>.>.>.>.>.>.>.>.>.>.>.>.>.>.>.>.>.>.>.>.>.>.>.>.>.>.>.>.>.>.>.>.>.>.>.>.>.>.>.>.>.>.>.>.>.>.>.>.>.>.>.>.>.>.>.>.>.>.>.>.>.>.5.a.! = @ ",
"@ = ! a.5.>.>.>.>.>.>.>.>.>.>.>.>.>.>.>.>.>.>.>.>.>.>.>.>.>.>.>.>.>.>.>.>.>.>.>.>.>.>.>.>.>.>.>.>.>.>.>.>.>.>.>.>.>.>.>.>.>.>.>.>.>.>.>.>.5.a.! = @ ",
"@ = ! a.5.>.>.>.>.>.>.>.>.>.>.>.>.>.>.>.>.>.>.>.>.>.>.>.>.>.>.>.>.>.>.>.>.>.>.>.>.>.>.>.>.>.>.>.>.>.>.>.>.>.>.>.>.>.>.>.>.>.>.>.>.>.>.>.>.5.a.! = @ ",
"@ = ! a.5.>.>.>.>.>.>.>.>.>.>.>.>.>.>.>.>.>.>.>.>.>.>.>.>.>.>.>.>.>.>.>.>.>.>.>.>.>.>.>.>.>.>.>.>.>.>.>.>.>.>.>.>.>.>.>.>.>.>.>.>.>.>.>.>.5.a.! = @ ",
"@ = ! a.5.>.>.>.>.>.>.>.>.>.>.>.>.>.>.>.>.>.>.>.>.>.>.>.>.>.>.>.>.>.>.>.>.>.>.>.>.>.>.>.>.>.>.>.>.>.>.>.>.>.>.>.>.>.>.>.>.>.>.>.>.>.>.>.>.5.a.! = @ ",
"@ = ! a.5.>.>.>.>.>.>.>.>.>.>.>.>.>.>.>.>.>.>.>.>.>.>.>.>.>.>.>.>.>.>.>.>.>.>.>.>.>.>.>.>.>.>.>.>.>.>.>.>.>.>.>.>.>.>.>.>.>.>.>.>.>.>.>.>.5.a.! = @ ",
"@ = ! a.5.>.>.>.>.>.>.>.>.>.>.>.>.>.>.>.>.>.>.>.>.>.>.>.>.>.>.>.>.>.>.>.>.>.>.>.>.>.>.>.>.>.>.>.>.>.>.>.>.>.>.>.>.>.>.>.>.>.>.>.>.>.>.>.>.5.a.! = @ ",
"@ = ! a.5.>.>.>.>.>.>.>.>.>.>.>.>.>.>.>.>.>.>.>.>.>.>.>.>.>.>.>.>.>.>.>.>.>.>.>.>.>.>.>.>.>.>.>.>.>.>.>.>.>.>.>.>.>.>.>.>.>.>.>.>.>.>.>.>.5.a.! = @ ",
"@ = ! a.5.>.>.>.>.>.>.>.>.>.>.>.>.>.>.>.>.>.>.>.>.>.>.>.>.>.>.>.>.>.>.>.>.>.>.>.>.>.>.>.>.>.>.>.>.>.>.>.>.>.>.>.>.>.>.>.>.>.>.>.>.>.>.>.>.5.a.! = @ ",
"@ = ! a.5.>.>.>.>.>.>.>.>.>.>.>.>.>.>.>.>.>.>.>.>.>.>.>.>.>.>.>.>.>.>.>.>.>.>.>.>.>.>.>.>.>.>.>.>.>.>.>.>.>.>.>.>.>.>.>.>.>.>.>.>.>.>.>.>.5.a.! = @ ",
"@ = ! a.5.>.>.>.>.>.>.>.>.>.>.>.>.>.>.>.>.>.>.>.>.>.>.>.>.>.>.>.>.>.>.>.>.>.>.>.>.>.>.>.>.>.>.>.>.>.>.>.>.>.>.>.>.>.>.>.>.>.>.>.>.>.>.>.>.5.a.! = @ ",
"@ = ! a.5.>.>.>.>.>.>.>.>.>.>.>.>.>.>.>.>.>.>.>.>.>.>.>.>.>.>.>.>.>.>.>.>.>.>.>.>.>.>.>.>.>.>.>.>.>.>.>.>.>.>.>.>.>.>.>.>.>.>.>.>.>.>.>.>.5.a.! = @ ",
"@ = ! a.5.>.>.>.>.>.>.>.>.>.>.>.>.>.>.>.>.>.>.>.>.>.>.>.>.>.>.>.>.>.>.>.>.>.>.>.>.>.>.>.>.>.>.>.>.>.>.>.>.>.>.>.>.>.>.>.>.>.>.>.>.>.>.>.>.5.a.! = @ ",
"@ = ! a.5.>.>.>.>.>.>.>.>.>.>.>.>.>.>.>.>.>.>.>.>.>.>.>.>.>.>.>.>.>.>.>.>.>.>.>.>.>.>.>.>.>.>.>.>.>.>.>.>.>.>.>.>.>.>.>.>.>.>.>.>.>.>.>.>.5.a.! = @ ",
"@ = ! a.5.>.>.>.>.>.>.>.>.>.>.>.>.>.>.>.>.>.>.>.>.>.>.>.>.>.>.>.>.>.>.>.>.>.>.>.>.>.>.>.>.>.>.>.>.>.>.>.>.>.>.>.>.>.>.>.>.>.>.>.>.>.>.>.>.5.a.! = @ ",
"@ = ! a.5.>.>.>.>.>.>.>.>.>.>.>.>.>.>.>.>.>.>.>.>.>.>.>.>.>.>.>.>.>.>.>.>.>.>.>.>.>.>.>.>.>.>.>.>.>.>.>.>.>.>.>.>.>.>.>.>.>.>.>.>.>.>.>.>.5.a.! = @ ",
"@ = ! a.5.>.>.>.>.>.>.>.>.>.>.>.>.>.>.>.>.>.>.>.>.>.>.>.>.>.>.>.>.>.>.>.>.>.>.>.>.>.>.>.>.>.>.>.>.>.>.>.>.>.>.>.>.>.>.>.>.>.>.>.>.>.>.>.>.5.a.! = @ ",
"@ = ! a.5.>.>.>.>.>.>.>.>.>.>.>.>.>.>.>.>.>.>.>.>.>.>.>.>.>.>.>.>.>.>.>.>.>.>.>.>.>.>.>.>.>.>.>.>.>.>.>.>.>.>.>.>.>.>.>.>.>.>.>.>.>.>.>.>.5.a.! = @ ",
"@ = ! a.5.>.>.>.>.>.>.>.>.>.>.>.>.>.>.>.>.>.>.>.>.>.>.>.>.>.>.>.>.>.>.>.>.>.>.>.>.>.>.>.>.>.>.>.>.>.>.>.>.>.>.>.>.>.>.>.>.>.>.>.>.>.>.>.>.5.a.! = @ ",
"@ = ! a.5.>.>.>.>.>.>.>.>.>.>.>.>.>.>.>.>.>.>.>.>.>.>.>.>.>.>.>.>.>.>.>.>.>.>.>.>.>.>.>.>.>.>.>.>.>.>.>.>.>.>.>.>.>.>.>.>.>.>.>.>.>.>.>.>.5.a.! = @ ",
"@ = ! a.5.>.>.>.>.>.>.>.>.>.>.>.>.>.>.>.>.>.>.>.>.>.>.>.>.>.>.>.>.>.>.>.>.>.>.>.>.>.>.>.>.>.>.>.>.>.>.>.>.>.>.>.>.>.>.>.>.>.>.>.>.>.>.>.>.5.a.! = @ ",
"@ = ! a.5.>.>.>.>.>.>.>.>.>.>.>.>.>.>.>.>.>.>.>.>.>.>.>.>.>.>.>.>.>.>.>.>.>.>.>.>.>.>.>.>.>.>.>.>.>.>.>.>.>.>.>.>.>.>.>.>.>.>.>.>.>.>.>.>.5.a.! = @ ",
"@ = ! a.5.>.>.>.>.>.>.>.>.>.>.>.>.>.>.>.>.>.>.>.>.>.>.>.>.>.>.>.>.>.>.>.>.>.>.>.>.>.>.>.>.>.>.>.>.>.>.>.>.>.>.>.>.>.>.>.>.3.3.3.3.>.>.>.>.5.a.! = @ ",
"@ = ! a.5.>.>.>.>.>.>.>.>.>.>.>.>.>.>.>.>.>.>.>.>.>.>.>.>.>.>.>.>.>.>.>.>.>.>.>.>.>.>.>.>.>.>.>.>.>.>.>.>.>.>.>.>.>.>.>.>.3.7.7.3.>.>.>.>.5.a.! = @ ",
"@ = ! a.5.>.>.>.>.>.>.>.>.>.>.>.>.>.>.>.>.>.>.3.3.3.3.>.>.>.>.>.>.>.>.>.>.>.>.>.>.>.>.>.>.>.>.3.3.3.3.>.>.>.>.>.>.>.>.3.3.%.X.X.%.3.3.>.>.5.a.! = @ ",
"@ = ! a.5.>.>.>.>.>.>.>.>.>.>.>.>.>.>.>.>.>.>.3.7.7.3.>.>.>.>.>.>.>.>.>.>.>.>.>.>.>.>.>.>.>.>.3.3.7.3.>.>.>.>.>.>.>.>.3.8.X.D D X.8.3.>.>.5.a.! = @ ",
"@ = ! a.5.>.>.>.>.>.>.>.>.>.>.>.>.>.>.>.>.3.7.=.X.X.%.3.3.>.>.>.>.>.>.>.>.>.>.>.>.>.>.>.>.3.7.=.X.X.%.3.3.>.>.>.>.3.3.;.| T f f T | ;.3.3.5.a.! = @ ",
"@ = ! a.5.>.>.>.>.>.>.>.>.>.>.>.>.>.>.>.>.7.w.X.D D X.8.3.>.>.>.>.>.>.>.>.>.>.>.>.>.>.>.>.3.8.X.D D X.8.3.>.>.>.>.3.8.| F g i i g F | 8.7.5.a.! = @ ",
"@ = ! a.5.>.>.>.>.>.>.>.>.>.>.>.>.>.>.3.7.;.| T f f T | ;.3.3.>.>.>.>.>.>.>.>.>.>.>.>.3.3.;.| T f f T | ;.7.3.3.3.=.| T k 2 r r 2 k R | =.a.a.! = @ ",
"@ = ! a.5.>.>.>.>.>.>.>.>.>.>.>.>.>.>.3.8.| F g i i g F | 8.3.>.>.>.>.>.>.>.>.>.>.>.>.3.8.| F g i i g F | 8.7.3.3.X.F k p 8 y y 8 p k F X.a.a.! = @ ",
"@ = ! a.5.>.>.>.>.>.>.>.>.>.>.>.>.3.3.;.| R k 2 8 8 2 k T | ;.3.3.>.>.>.>.>.>.>.>.3.3.;.| R k 2 8 8 2 k R | ;.8.8.( m 2 8 y r r y 8 2 m ( l.l.! = @ ",
"@ = ! a.5.>.>.>.>.>.>.>.>.>.>.>.>.3.8.| F k p 8 y y 8 p k F | w.3.>.>.>.>.>.>.>.>.3.8.| F k p 8 y y 8 p k F | w.w.( B 7 8 y 8 8 y 8 2 m ( l.l.! = @ ",
"@ = ! a.5.>.>.>.>.>.>.>.>.>.>.3.3.=.| T k 2 r i y y y 8 2 k R | =.3.3.>.>.>.>.3.3.=.| T k 2 r i i i y 8 2 k R #.:._ B 2 2 a x x a 2 2 m ( l.l.! = @ ",
"@ = ! a.5.>.>.>.>.>.>.>.>.>.>.3.3.X.F k p 8 y y y y y r 8 p k F X.3.3.>.>.>.>.3.3.X.F k p 8 y y y y y y 8 p k P #.] B : : k Q Q z : : m ( l.l.! = @ ",
"@ = ! a.5.>.>.>.>.>.>.>.>.>.>.3.8.( m 2 8 y y y y y y y y 8 2 m ( 8.3.>.>.>.>.3.8.( m 2 8 y y y y y y y y 8 2 B _ | F n b L #.#.L n b F X.a.a.! = @ ",
"@ = ! a.5.>.>.>.>.>.>.>.>.>.>.3.8.( m 2 8 y y y y y y y y 8 2 B ( 8.3.>.>.>.>.3.8.( m 2 8 y y y y y y y y 8 2 B _ ;.+./ / X.;.;.X./ ( X.%.5.a.! = @ ",
"@ = ! a.5.>.>.>.>.>.>.>.>.>.>.3.8._ A 8 r y y y y y y y y r 8 A _ 8.3.>.>.>.>.3.8._ A 8 r y y y y y y y y r 8 A _ 8.w.w.w.8.3.3.7.8.8.8.3.5.a.! = @ ",
"@ = ! a.5.>.>.>.>.>.>.>.>.>.>.3.8._ A 8 r y y y y y y y y r 8 A _ 8.3.>.>.>.>.3.8._ A 8 r y y y y y y y y r 8 A _ 8.w.w.w.8.3.3.3.3.3.3.>.5.a.! = @ ",
"@ = ! a.5.>.>.>.>.>.>.>.>.>.>.3.8.( m 2 8 y i y r r y y i 8 2 B ( 8.3.>.>.>.>.3.8.( m 2 8 y i y r r y y y 8 2 B _ ;.+./ / X.%.3.3.>.>.>.>.5.a.! = @ ",
"@ = ! a.5.>.>.>.>.>.>.>.>.>.>.3.8.( m 2 8 y y y 8 8 y i i 8 2 m ( 8.3.>.>.>.>.3.8.( m 2 8 y y y 8 8 y i i 8 2 B _ | F n n F X.3.3.>.>.>.>.5.a.! = @ ",
"@ = ! a.5.>.>.>.>.>.>.>.>.>.>.3.7.X.F k p 8 8 a x x a 8 8 p k F X.3.3.>.>.>.>.3.7.X.F k p 8 8 a x x a 8 8 p k P #._ B : : m _ w.8.3.3.3.3.5.a.! = @ ",
"@ = ! a.5.>.>.>.>.>.>.>.>.>.>.3.3.=.| R k : : k Q Q x : : k R | =.3.3.>.>.>.>.3.3.=.| R k : : k Q Q x : : k R #.:._ B : : B ] w.w.8.8.3.3.5.a.! = @ ",
"@ = ! a.5.>.>.>.>.>.>.>.>.>.>.>.>.3.w.| F n b L #.#.L n b F | 8.3.>.>.>.>.>.>.>.>.3.w.| F n b L #.#.L n b F | w.w._ A 2 7 x R _ _ ( ( X.%.a.a.! = @ ",
"@ = ! a.5.>.>.>.>.>.>.>.>.>.>.>.>.3.3.=.X./ / X.;.;.X./ / X.=.3.3.>.>.>.>.>.>.>.>.3.3.=.X./ / X.;.;.X./ / X.=.8.8._ A 8 8 a k m A B m F X.a.a.! = @ ",
"@ = ! a.5.>.>.>.>.>.>.>.>.>.>.>.>.>.>.3.3.8.8.3.3.3.3.8.8.7.3.>.>.>.>.>.>.>.>.>.>.>.>.3.3.8.8.3.3.3.3.8.8.7.3.3.8._ A 8 8 d k k a 2 : m ( l.l.! = @ ",
"@ = ! a.5.>.>.>.>.>.>.>.>.>.>.>.>.>.>.3.3.3.3.3.3.3.3.3.3.3.3.>.>.>.>.>.>.>.>.>.>.>.>.3.3.3.3.3.3.3.3.3.3.3.3.3.8._ A 2 7 x W E x 2 1 B ( l.l.! = @ ",
"@ = ! a.5.>.>.>.>.>.>.>.>.>.>.>.>.>.>.>.>.>.>.>.>.>.>.>.>.>.>.>.>.>.>.>.>.>.>.>.>.>.>.>.>.>.>.>.>.>.>.>.>.>.>.3.8._ B : : S { { S : : B ( l.l.! = @ ",
"@ = ! a.5.>.>.>.>.>.>.>.>.>.>.>.>.>.>.>.>.>.>.>.>.>.>.>.>.>.>.>.>.>.>.>.>.>.>.>.>.>.>.>.>.>.>.>.>.>.>.>.>.>.>.3.8.( m : : A [ [ A : : m ( l.l.! = @ ",
"@ ; ~ j.5.>.>.>.>.>.>.>.>.>.>.>.>.>.>.>.>.>.>.>.>.>.>.>.>.>.>.>.>.>.>.>.>.>.>.>.>.>.>.>.>.>.>.>.>.>.>.>.>.>.>.3.3.X.F b b F | | F n n F X.a.x.~ ; @ ",
"@ ; ^ z.5.>.>.>.>.>.>.>.>.>.>.>.>.>.>.>.>.>.>.>.>.>.>.>.>.>.>.>.>.>.>.>.>.>.>.>.>.>.>.>.>.>.>.>.>.>.>.>.>.>.>.3.3.%.X./ / X.%.%.X./ / X.%.a.x.^ ; @ ",
"@ * U } $.6.5.5.5.5.5.5.5.5.5.5.5.5.5.5.5.5.5.5.5.5.5.5.5.5.5.5.5.5.5.5.5.5.5.5.5.5.5.5.5.5.5.5.5.5.5.5.5.5.5.5.5.a.a.l.l.a.5.y.a.l.l.a.a.$.} U * @ ",
"# % & I } z.j.a.a.a.a.a.a.a.a.a.a.a.a.a.a.a.a.a.a.a.a.a.a.a.a.a.a.a.a.a.a.a.a.a.a.a.a.a.a.a.a.a.a.a.a.a.a.a.a.a.a.a.a.l.l.a.a.a.a.l.l.x.x.} I & % # ",
"$ @ . & U ^ ~ ! ! ! ! ! ! ! ! ! ! ! ! ! ! ! ! ! ! ! ! ! ! ! ! ! ! ! ! ! ! ! ! ! ! ! ! ! ! ! ! ! ! ! ! ! ! ! ! ! ! ! ! ! ! ! ! ! ! ! ! ~ ^ U & . @ $ ",
"    @ % * ; ; = = = = = = = = = = = = = = = = = = = = = = = = = = = = = = = = = = = = = = = = = = = = = = = = = = = = = = = = = = = ; ; ; * % @     ",
"    $ # @ @ @ @ @ @ @ @ @ @ @ @ @ @ @ @ @ @ @ @ @ @ @ @ @ @ @ @ @ @ @ @ @ @ @ @ @ @ @ @ @ @ @ @ @ @ @ @ @ @ @ @ @ @ @ @ @ @ @ @ @ @ @ @ @ @ # $     "
};
