/* XPM */
static char *hearts_q[] = {
/* columns rows colors chars-per-pixel */
"74 104 214 2 ",
"   c None",
".  c #1D002C",
"X  c #1E0231",
"o  c #21012E",
"O  c #2D062D",
"+  c #230532",
"@  c #2C0D34",
"#  c #2C0E39",
"$  c #270934",
"%  c #2D133D",
"&  c #25123B",
"*  c #31133C",
"=  c #321030",
"-  c #300B2F",
";  c #49042C",
":  c #48052D",
">  c #56032B",
",  c #59052B",
"<  c #58042A",
"1  c #451E28",
"2  c #56143B",
"3  c #571538",
"4  c #591130",
"5  c #7E0124",
"6  c #7D1232",
"7  c #46212A",
"8  c #4B242D",
"9  c #4D2426",
"0  c #532A27",
"q  c #532D2A",
"w  c #562828",
"e  c #56302B",
"r  c #7D2A24",
"t  c #743F26",
"y  c #794622",
"u  c #77411C",
"i  c #462B4E",
"p  c #482E4F",
"a  c #452E51",
"s  c #492E50",
"d  c #463253",
"f  c #4A3254",
"g  c #4F3B5D",
"h  c #543454",
"j  c #543C5A",
"k  c #583F5D",
"l  c #573453",
"z  c #552F50",
"x  c #6C2E4C",
"c  c #6D3250",
"v  c #743451",
"b  c #533F60",
"n  c #55415E",
"m  c #59415E",
"M  c #6B4A4A",
"N  c #795853",
"B  c #76534A",
"V  c #554262",
"C  c #594362",
"Z  c #7C6A7D",
"A  c #79647A",
"S  c #765D73",
"D  c #820628",
"F  c #9F0827",
"G  c #A9132E",
"H  c #AA1531",
"J  c #A10725",
"K  c #802026",
"L  c #C9041E",
"P  c #C7031E",
"I  c #D9061D",
"U  c #D6111F",
"Y  c #FF0216",
"T  c #FF0619",
"R  c #FF0A1C",
"E  c #F50A1E",
"W  c #FF171F",
"Q  c #D7301E",
"!  c #FD2C1E",
"~  c #FB281A",
"^  c #FF341D",
"/  c #C90621",
"(  c #CD0923",
")  c #C70420",
"_  c #D90921",
"`  c #D50922",
"'  c #DD1222",
"]  c #FF0C21",
"[  c #F70A21",
"{  c #FF1525",
"}  c #FF1A2A",
"|  c #FE1825",
" . c #CF2C22",
".. c #FE313E",
"X. c #FE2F3D",
"o. c #975E1D",
"O. c #98601F",
"+. c #BC7D19",
"@. c #BC7814",
"#. c #AF6F16",
"$. c #9D6424",
"%. c #A46C28",
"&. c #804326",
"*. c #F84E1A",
"=. c #CB661C",
"-. c #C57E18",
";. c #D1691B",
":. c #F47C14",
">. c #F26E18",
",. c #F66F24",
"<. c #C6364A",
"1. c #C93749",
"2. c #D73748",
"3. c #FE3541",
"4. c #FF3945",
"5. c #FE3E49",
"6. c #81445E",
"7. c #81697C",
"8. c #D64453",
"9. c #FD434D",
"0. c #FD4650",
"q. c #FF4B54",
"w. c #FC5343",
"e. c #F86B70",
"r. c #FC7175",
"t. c #F2666E",
"y. c #BE801A",
"u. c #C3821A",
"i. c #CA8415",
"p. c #D18017",
"a. c #ED9E0D",
"s. c #ED8116",
"d. c #F98216",
"f. c #F58915",
"g. c #EC9A13",
"h. c #EFA10F",
"j. c #F1A30F",
"k. c #EFA212",
"l. c #EFA719",
"z. c #F3A513",
"x. c #F5A614",
"c. c #FBB01E",
"v. c #F5B438",
"b. c #EEAE38",
"n. c #D18E22",
"m. c #CD994A",
"M. c #F5B945",
"N. c #F4BA49",
"B. c #F3B746",
"V. c #F4C76E",
"C. c #7B6D81",
"Z. c #816E80",
"A. c #837081",
"S. c #9A8B96",
"D. c #9C8E99",
"F. c #978996",
"G. c #9B919B",
"H. c #97959E",
"J. c #A58D96",
"K. c #A88D97",
"L. c #A59699",
"P. c #ACA3A9",
"I. c #AA9FA5",
"U. c #C49499",
"Y. c #C69297",
"T. c #FB8E8D",
"R. c #FA908F",
"E. c #FD9594",
"W. c #FE9B98",
"Q. c #F99996",
"!. c #D4A8A8",
"~. c #D5A5A6",
"^. c #C1B7B7",
"/. c #C2B8B7",
"(. c #C3BBBB",
"). c #C9BEBC",
"_. c #C1B7B8",
"`. c #F8BBB4",
"'. c #F8BFB8",
"]. c #EBBCB7",
"[. c #DFAF92",
"{. c #F6D38A",
"}. c #CAC1BE",
"|. c #C7C0BD",
" X c #D4C5BB",
".X c #FCC3BB",
"XX c #FCC8BF",
"oX c #F2C3BC",
"OX c #EFDBB3",
"+X c #F9E5B6",
"@X c #F7E4B8",
"#X c #C2C5C3",
"$X c #CCC4C2",
"%X c #CFCAC6",
"&X c #D2CBC6",
"*X c #D2CCC8",
"=X c #D7C4C0",
"-X c #D7D0CA",
";X c #F7CEC4",
":X c #F8CAC1",
">X c #F9D1C7",
",X c #EAE5DA",
"<X c #EDEADD",
"1X c #F6E6D9",
"2X c #F6EADB",
"3X c #FAEADC",
"4X c #F8EBCA",
"5X c #F6F3E4",
"6X c #F9F6E7",
"7X c #F6F6E9",
"8X c #F6FAEA",
"9X c #FBFAE9",
"0X c #F9F7E8",
"qX c #F6F4E8",
/* pixels */
"    $ + o o o o o o o o o o o o o o o o o o o o o o o o o o o o o o o o o o o o o o o o o o o o o o o o o o o o o o o o o o o o o o o o o o + $     ",
"    o * f m m m m m k k m m m m k k k k k k k k k k k k k k k k k k k k k k k k k k k k k k k k k k k k k k k k k k k k k k k k k k k m m f * o     ",
"$ o . s S.(.(./././././././././././././././././././././.^.^././././././././././.^././.^././././././././.^.^./././././././././././././.(.(.S.s . o $ ",
"+ * s Z.*X9X9X9X9X9X9X9X9X9X9X9X9X9X9X9X9X9X9X9X9X9X9X9X9X9X9X9X9X9X9X9X9X9X9X9X9X9X9X9X9X9X9X9X9X9X9X9X9X9X9X9X9X9X9X9X9X9X9X9X9X9X9X9X9X*XZ.p * + ",
"o f S.*X<X9X9X9X9X9X9X9X9X9X9X6X6X6X6X6X6X6X6X6X6X6X6X6X6X6X6X6X6X6X6X6X6X6X6X6X6X6X6X6X6X6X6X6X6X6X6X6X6X6X6X6X6X6X6X6X6X6X6X6X6X6X6X6X9X<X*XS.f o ",
"o m (.9X9X1X:X`.`.`.`.`.`.:X1X5X5X5X6X6X6X6X6X6X6X6X6X6X6X6X6X6X6X6X6X6X6X6X6X6X6X6X6X6X6X6X6X6X6X6X6X6X6X6X6X6X6X6X6X6X6X6X6X6X5X5X5X5X5X0X9X(.m o ",
"o m (.9X9X:Xr.9.9.9.9.5.9.r.:X5X5X5X6X9X9X9X9X9X9X9X9X9X9X9X9X9X9X9X9X9X9X9X9X9X9X9X9X9X9X9X9X9X9X9X9X9X9X9X9X9X9X9X9X9X9X9X9X6X6X5X5X5X5X6X9X(.m o ",
"o k /.9X9X`.9.Y T | 3...{ 9.`.8X8X,X$X^.^.^.^.^.^.^.^.^.^.^.^.^.^.^.^.^.^.^.^.^.^.^.^.^.^.^.^.^.^.^.^.^.^.^.^.^.^.^.^.^.^.^./.&X,X6X5X5X5X6X9X/.k o ",
"o m /.9X9X`.9.T T 4.E.R...5.`.9X9X$XZ h j j j j j j j j j j j j j j j j j j j j j j j j j j j j j j j j j j j j j j j j j j j Z &X6X6X5X5X6X9X/.k o ",
"o m /.9X9X`.0.T T q.XX.X0.9.`.8X9X$XZ h j j j j j j j j j j j j j j j j j j j j j j j j j j j j j j j j j j j j j j j j j i $ j /.9X6X5X5X6X9X/.k o ",
"o m /.9X9X`.0.T T q.:X.X0.9.`.8X8X,X$X^.^./.(.(.(.(.(.(././././.(.(././.(.(.(.(.(./._.^.^.^.^.^.^.^.^.^.^.^.^.^.^.^.^./.(.F.i j ^.9X6X5X5X6X9X/.k o ",
"o m /.9X9X`.0.T R 5.Q.E.3.9.`.8X5X5X6X9X9X<X&X XOX+X+X+X+X+X+X+X+X+X+X+X+X+X+X+X+X4X5X9X9X9X9X9X9X9X9X9X9X9X9X9X9X9X9X9X9X(.j j ^.9X6X5X5X6X9X^.k o ",
"o m /.9X9X`.0.R R } 4.3.| 0.'.8X8X5X6X9X9X&XZ N m.M.N.N.N.N.N.N.N.N.N.N.N.N.N.B.B.V.4X9X9X9X9X9X6X6X6X6X6X6X6X6X6X6X6X9X9X/.j j ^.9X6X5X5X6X9X/.k o ",
"o m /.9X9X`.9.T R R T T T 3.R.:X2X5X5X6X6X$XA M $.i.g.j.j.g.f.:.:.f.g.h.h.a.h.a.a.b.{.@X@XOXOX@X2X7X7X5X5X5X5X5X5X5X5X6X9X^.j j ^.9X6X5X5X6X9X/.k o ",
"o k /.9X8X`.9.T T R T T R { X.e.:X7X5X5X5X,X&XJ.M u i.x.z.f.*.! ! *.f.k.k.k.k.k.k.l.b.B.B.B.B.V.4X7X7X5X5X5X5X5X5X5X5X6X9X^.j j ^.9X6X5X5X6X9X/.k o ",
"o k /.9X9X:Xr.9.9.0.0.0.0.9.5.e.XX5X5X5X5X6X9X*XC.M $.-.s.>.! ] ] ! >.f.g.k.k.k.k.k.k.h.h.a.a.b.{.@X+X@X2X5X5X5X5X5X5X6X9X^.j j ^.9X6X5X5X6X9X/.k o ",
"o m /.9X9X1X:X`.`.`.`.`.`.`.`..X1X5X5X5X5X5X6X<X*XL.M r Q ! { ] ] W ~ *.f.z.k.k.k.k.k.k.k.k.k.l.v.B.M.V.@X7X5X5X5X5X5X6X9X^.j j ^.9X6X5X5X6X9X/.k o ",
"o m /.9X6X5X8X8X8X8X8X8X8X8X8X8X5X5X5X5X5X5X5X6X9X*XC.x H _ [ ] R } 4.w.,.:.:.f.g.k.k.k.z.z.z.g.i.@.@.m.OX7X5X5X5X5X5X6X9X^.j j ^.9X6X5X5X6X9X/.k o ",
"o m /.9X6X5X8X8X8X8X8X8X8X8X8X8X5X5X5X5X5X5X5X5X6X<X*XJ.c D _ R R 5.W.W.w.~ ~ *.f.l.k.z.z.x.x.i.y 9 9 N  X9X6X5X5X5X5X6X9X^.j j ^.9X6X5X5X6X9X^.k o ",
"o m /.9X9X1X:X`.`.:X2X2X:X`.`.:X1X5X5X5X5X5X5X5X5X9X9X|.V : F ( ( 1.U.!.t.0.0.w.,.:.:.:.-.+.+.%.M g g Z $X9X9X5X5X5X5X9X9X^.j j ^.9X6X5X5X6X9X/.k o ",
"o m /.9X9X:Xr.5.9.r.>X>Xr.9.5.r.:X5X5X5X5X5X5X5X5X9X9X}.C O : , , 3 l 7.~.XXXXW.w.~ ~ Q r 0 9 M L.(./.$X,X5X8X7X5X5X7X9X9X^.j j ^.9X6X5X5X6X9X/.k o ",
"o m /.9X9X`.9.Y Y 4.Q.Q.4.Y Y 9.`.8X5X5X5X5X5X5X5X<X*XD.f o . X X . . f G.#X#X~.t.0.0.1.2 & a C.&X9X9X9X5X1XXX:X2X2X:X:X3X/.j j ^.9X6X5X5X6X9X/.k o ",
"o m /.9X9X`.9.T T | 4.4.| T T 9.`.8X5X5X5X5X5X6X6X&XZ.f * + o . . o o * f m j S ~.XXXXY.z a F.*X<X6X6X9X8X.Xe.r.;X;Xr.r.:X/.j j ^.9X6X5X5X6X9X^.k o ",
"o m /.9X9X`.9.T R ] R R ] R T 9.`.8X5X5X5X5X5X6X9X/.j . o * f m m f * o o # i S I.#X#XG.a j ).9X9X5X5X5X8X`.5...E.E...9.`.(.j j ^.9X6X5X5X6X9X/.k o ",
"o m /.9X8X`.9.T R ] R R ] R T 9.`.8X5X5X5X5X5X6X9X/.j . . f G.}.}.D.s . . f D.I.A V V d & m }.9X9X5X5X5X8X`.9.{ 3.3.{ 9..X(.j j ^.9X6X5X5X6X9X/.k o ",
"o m /.9X9X:Xr.3.| R ] ] R | 3.r.:X7X5X5X5X5X5X6X6X&XA.p # m ).9X9X*XZ.i # C $X X6.> > > < v K.&X<X5X5X5X8X`.9.T T T T 0..X(.j j ^.9X6X5X5X6X9X/.k o ",
"o k /.9X9X2X;XR.3.T R R T 3.R.;X2X5X5X5X5X5X5X5X5X<X-XD.s j (.9X9X<X*XS.p m |.oX8.P P L ( H x Z %X0X6X5X8X`.9.T R R T 9..X(.j j ^.9X6X5X5X6X9X^.k o ",
"o k /.9X6X5X8X;Xr.3.{ { 3.r.;X8X5X5X5X5X5X5X5X5X5X<X-XD.s j /.9X6X9X9X(.j j (..X0.| 4.5.} / > g (.9X6X5X5X:Xr.3.| | 3.r.>X/.j j ^.9X6X5X5X6X9X/.k o ",
"o k /.9X6X5X5X2X;XR.....R.;X2X5X5X5X5X5X5X5X5X6X6X&XA.s # k /.9X6X0X9X(.j j (.`.9.4.E.W.5.L > g (.9X9X5X5X2X;XT.3.3.R.>X3X/.j j ^.9X6X5X5X6X9X/.k o ",
"o k /.9X6X5X5X5X8X:Xr.r.:X8X5X5X5X5X5X5X5X5X5X6X9X(.j . . m (.9X0X6X9X^.j j (..X9.3.Q.W.5.I D c J.*X<X6X6X8X8X].8.8.].8X8X^.j j ^.9X6X5X5X6X9X/.k o ",
"o k /.9X6X5X5X5X7X2X:X:X2X5X5X5X5X5X5X5X5X5X5X9X9X).k . . m ).9X9X6X9X^.j j |..X9.{ 4.5.} E I G x C.*X9X6X6X9X).v v ).9X9X^.j j ^.9X6X5X5X6X9X/.k o ",
"o k /.9X6X5X5X5X5X,X%X%X,X6X5X5X5X5X5X5X5X5X5X<X*XD.f o o f D.*X<X9X9X}.N M L.~.t.3.{ T R } 5.2.6 x J.*X<X9X9X/.j j /.9X9X^.j j ^.9X6X5X5X6X9X/.k o ",
"o k /.9X6X5X5X6X6X$XZ Z $X6X6X5X5X5X5X5X5X6X6X&X7.s * + + * a C.*X9X8XOXm.%.M A ~.E.3.Y T 5.W.Q.2.G x C.*X9X9X(.j j (.9X9X^.j j ^.9X6X5X5X6X9X/.k o ",
"o k /.9X6X5X5X6X9X^.h h ^.9X6X5X5X5X5X5X5X0X9X(.j . o $ + - 1 B [.+X+X{.v.-.0 a H.!.e.3.{ 4.Q.W.5.I 5 x K.}.).S.i i S.-X<X/.j j ^.9X6X5X5X6X9X/.k o ",
"o k /.9X6X5X5X6X9X^.j j ^.9X6X5X5X5X5X5X5X9X9X).k o + + + 8 o.n.b.B.B.v.c.-.w # a 7.!.E.3.{ 4.5.} E I G x m j i # # i A.*X(.j j ^.9X6X5X5X6X9X^.k o ",
"o k /.9X6X5X5X6X9X^.j j ^.9X6X5X5X5X5X6X6X<X*XD.f + + + + 8 O.-.-.@.@.@.-.$.8 X . d H.!.t.3.{ T R } 5.1.3 # i j m s @ j ).(.k j ^.9X6X5X5X6X9X/.k o ",
"o k ^.9X6X5X5X6X9X^.j j ^.9X6X5X5X5X5X6X9X*XC.a % + + + + = 7 0 w w 0 0 q 8 @ + X & d Z !.E.3.Y T 5.W.U.l i S.).}.S.i j (.(.j j ^.9X6X5X5X6X9X/.k o ",
"o k /.9X6X5X5X6X9X^.j j ^.9X6X5X5X6X6X<X*XJ.x > , 4 w 8 = * f f % % f f % @ 8 w 4 , > c L.!.t.3.{ 4.E.U.l j (.9X9X(.j j (.(.k j ^.9X6X5X5X6X9X/.k o ",
"o k /.9X6X5X5X6X9X^.j j _.9X6X5X5X6X9X*XC.x G ( (  .=.O.7 f G.D.s s D.D.f 7 O.=. .( ( H c A !.E.3.{ 4.<.3 m (.9X9X(.j j (.(.k j ^.9X6X5X5X6X9X/.k o ",
"o k /.9X6X5X5X6X9X^.j j ^.9X6X6X6X<X*XJ.x 5 _ ] ] ^ d.y.0 C $X}.m m }.$XC 0 +.d.^ ] ] _ 5 c L.!.t.3.{ P > m (.9X9X(.j m ).}.m j ^.9X6X5X5X6X9X/.k o ",
"o k /.9X6X5X5X6X9X^.j j ^.9X6X6X9X*XC.x G _ [ ] ] ^ d.+.0 C $X).k k ).$XC 0 +.d.^ ] ] [ _ H c A !.E.3.P > m ).9X9X(.j m }.}.m j ^.9X6X5X5X6X9X/.k o ",
"o k /.9X6X5X5X6X9X^.j j /.9X9X<X*XJ.x 5 _ { ] ] ] ^ d.+.0 V ).(.j j (.).V 0 +.d.^ ] ] ] ] _ 5 c L.~.e.1.4 a S.).}.S.a f G.G.f j /.9X6X5X5X6X9X/.k o ",
"o k /.9X6X5X5X6X9X^.j j (.9X9X*XC.x G _ [ ] ] ] ] ^ d.+.0 V ).(.j j (.).V 0 +.d.^ ] ] ] ] [ _ H c Z !.Y.z @ i j m f % % f d % m /.9X6X5X5X6X9X/.k o ",
"o k /.9X6X5X5X6X9X/.j s S.).).J.x 5 _ ] ] ] ] ] ] ^ d.+.0 V ).(.j j (.).V 0 +.f.*.^ ^ ^ ^ ^ ^ Q r M L.P.A m m l 3 , , , , ; O m /.9X6X5X5X6X9X/.k o ",
"o k /.9X6X5X5X6X9X(.k # a b b c H _ [ ] ] ] ] ] ] ^ d.+.0 V ).(.j j (.).V 0 +.x.f.d.d.d.d.d.d.s.p.%.M A P.$X$XY.1.L ( ` ` J ; m /.9X6X5X5X6X9X/.k o ",
"o k /.9X6X5X5X6X9X(.m - 1 0 0 r Q ^ ^ ^ ^ ^ ^ ^ ^ *.f.+.0 C $X).m m }.$XC 1 o.y.y.+.+.+.+.+.+.y.u.o.1 i D.$X$XU.1.( ( ( ` J ; m /.9X6X5X5X6X9X/.k o ",
"o k /.9X6X5X5X6X9X/.j 1 o.u.-.-.s.d.d.d.d.d.d.d.d.f.x.+.0 C $X}.m m }.$XC - 7 q q q 0 0 0 0 q e e 7 O # s m C l 2 , , , , ; O m /.9X6X5X5X6X9X/.k o ",
"o k /.9X6X5X5X6X9X/.j 7 O.u.u.+.+.+.+.+.+.y.y.y.+.+.+.o.1 f G.G.s s D.G.f O : , , 2 h V V h 2 , , 2 l V m l 3 < , 2 h V V d % k /.9X6X5X5X6X9X/.k o ",
"o k /.9X6X5X5X6X9X/.m - 7 e e q 0 0 0 0 q q q q 0 0 0 1 @ % f f % % s d % : F ( / <.U.#X#XU.<./ / <.U.#X#XY.<.L / <.U.#X#XG.a j /.9X6X5X5X6X9X/.k o ",
"o k /.9X6X5X5X6X9X/.m O ; , , 2 h V V h 2 , , 2 h V V h 3 , < 2 l C V h 2 D _ R R 4.E.XXXXE.4.T T 4.E.XXXXE.4.T T 4.E.XXXXY.z j /.9X6X5X5X6X9X/.k o ",
"o k /.9X6X5X5X6X9X/.m ; F ( / <.U.#X#XU.<./ / <.U.#X#XU.1.L L <.U.#X#XY.<.I E R R | 4.q.q.4.| R T | 4.q.q.4.| T T | 4.q.q.1.3 j /.9X6X5X5X6X9X/.k o ",
"o k /.9X6X5X5X6X9X/.m < ( R T 3.E.XXXXE.4.T T 4.E.XXXXE.3.T T 4.E.XXXXE.4.| 4.q.q.4.| T T | 4.q.q.4.| R T | 4.q.q.4.| R R L > m /.9X6X5X5X6X9X/.k o ",
"o k /.9X6X5X5X6X9X/.m > L R R | 4.q.q.4.| T T | 4.q.q.4.| T R | 4.q.q.4.| 4.E.XXXXE.4.T T 4.E.XXXXE.4.T T 4.E.XXXXE.3.T R ( , m /.9X6X5X5X6X9X/.k o ",
"o k /.9X6X5X5X6X9X/.j 3 1.q.q.4.| R T | 4.q.q.4.| T T | 4.q.q.4.| R R E _ <.Y.#X#XU.<.L L 1.U.#X#XU.<./ / <.U.#X#XU.<./ ( F ; m /.9X6X5X5X6X9X/.k o ",
"o k /.9X6X5X5X6X9X/.j z Y.XXXXE.4.T T 4.E.XXXXE.4.T T 4.E.XXXXE.4.R R _ D 2 h m C l 2 < , 3 h V V h 2 , , 2 h V V h 2 , , ; O m /.9X6X5X5X6X9X/.k o ",
"o k /.9X6X5X5X6X9X/.j a G.#X#XU.<.L L <.Y.#X#XU.<./ / <.U.#X#XU.<./ ( F : % d p # % f f % @ 7 0 0 0 q q q q 0 0 0 0 q e e 7 - m /.9X6X5X5X6X9X/.k o ",
"o k /.9X6X5X5X6X9X/.k % d V V h 2 , > 3 l V V l 2 , , 2 h V V h 2 , , : O f G.D.s s G.H.d 7 o.+.+.+.+.+.+.+.+.+.+.+.+.u.u.O.1 j /.9X6X5X5X6X9X/.k o ",
"o k /.9X6X5X5X6X9X/.m O ; , , , , 2 h C m s # O 7 e e q 0 0 0 0 q q q 7 - C $X}.m m }.=X6.r =.d.d.d.d.f.z.z.f.d.d.s.-.-.u.o.1 j /.9X6X5X5X6X9X/.k o ",
"o k /.9X6X5X5X6X9X/.m ; J ` ( ( ( 1.Y.$X$XD.i 1 o.u.y.+.+.+.+.+.+.y.y.o.1 C $X).m m ).oX8.U ~ ^ ^ ^ ^ *.f.f.*.^ ^ Q r 0 0 1 - m /.9X6X5X5X6X9X/.k o ",
"o k /.9X6X5X5X6X9X/.m ; J ` ` ` L 1.Y.$X$XP.A M %.p.s.d.d.d.d.d.d.f.x.+.0 V ).(.j j (..X0.R R ] ] ] ] ! >.>.! [ _ H c b b a # m /.9X6X5X5X6X9X/.k o ",
"o k /.9X6X5X5X6X9X/.m O ; , , , , 3 l m m A P.L.M r Q ^ ^ ^ ^ ^ ^ *.f.+.0 V ).(.j j (..X0.R R ] ] ] ] { ! ! { _ 5 x J.).).S.s j /.9X6X5X5X6X9X/.k o ",
"o k /.9X6X5X5X6X9X/.m % d f % % d m j i @ z Y.!.Z c H _ [ ] ] ] ] ^ d.+.0 C ).(.j j (..X0.R R | ! ! | ] ] [ _ G x C.*X9X9X(.j j ^.9X6X5X5X6X9X/.k o ",
"o k /.9X6X5X5X6X9X/.j f G.G.f a D.|.).S.a 4 1.e.~.L.c 5 _ ] ] ] ] ^ d.+.0 V ).(.j j (..X0.R R ! >.>.! ] ] _ 5 x J.*X<X9X9X(.j j ^.9X6X5X5X6X9X/.k o ",
"o k /.9X6X5X5X6X9X^.j m }.}.m j (.9X9X).m > P 3.E.!.A c H ( ( _ [ ^ d.+.0 C $X).m m ).oX8._ E ! >.>.! [ _ H x C.*X9X6X6X9X^.j j ^.9X6X5X5X6X9X/.k o ",
"o k /.9X6X5X5X6X9X^.j m ).).m j (.9X9X).m > P { 3.t.!.L.c > , D _ ^ d.+.0 C $X}.m m }.=X6.D _ | ! ! | _ 5 x J.*X<X6X6X6X9X^.j j ^.9X6X5X5X6X9X^.k o ",
"o k /.9X6X5X5X6X9X^.j k (.(.j j (.9X9X(.m 3 <.4.{ 3.E.!.Z d & : F  .=.O.7 f D.D.s s D.G.d : F ( ( ( ( G x C.&X9X6X5X5X6X9X^.j j ^.9X6X5X5X6X9X^.k o ",
"o k /.9X6X5X5X6X9X^.j j (.(.j j (.9X9X(.j l U.E.4.{ 3.t.!.H.d O : 4 w 8 @ % f f % % f f % - : , , , > c J.*X<X6X6X5X5X6X9X^.j j ^.9X6X5X5X6X9X/.k o ",
"o k /.9X6X5X5X6X9X^.j j (.(.j i S.}.).S.i l U.W.5.T Y 3.E.!.7.d & X + @ 8 w 0 0 w q w 7 = + + + + % a C.*X9X6X5X5X5X5X6X9X^.j j ^.9X6X5X5X6X9X/.k o ",
"o k /.9X6X5X5X6X9X^.j j (.).k @ s m k i # 3 1.5.} R T { 3.t.!.H.d . X 8 $.-.@.@.@.-.u.O.8 + + + + f D.&X<X6X6X5X5X5X5X6X9X^.j j ^.9X6X5X5X6X9X/.k o ",
"o k /.9X6X5X5X6X9X^.j j (.*XA.p # % p j m x G I E } 5.4.{ 3.E.!.7.a # 0 -.c.v.N.B.b.n.o.8 + + + o k ).9X9X5X5X5X5X5X5X6X9X^.j j ^.9X6X5X5X6X9X/.k o ",
"o k /.9X6X5X5X6X9X^.j j /.<X-XS.i i S.).}.J.x 5 I 5.W.Q.4.{ 3.e.!.H.a 0 -.v.{.+X+X[.B 1 - $ $ o . j (.9X0X5X5X5X5X5X5X6X9X^.h h ^.9X6X5X5X6X9X/.k o ",
"o k /.9X6X5X5X6X9X^.j j ^.9X9X(.j j (.9X9X*XC.x G 2.Q.W.5.T Y 3.E.~.A M %.m.OX8X9X*XC.a % + + * s 7.&X6X6X5X5X5X5X5X5X6X6X$XZ Z $X6X6X5X5X6X9X/.k o ",
"o k /.9X6X5X5X6X9X^.j j ^.9X9X/.j j /.9X9X<X*XJ.x 6 2.5.} R T { 3.t.~.L.M N }.9X9X<X*XD.f o o f D.*X<X5X5X5X5X5X5X5X5X5X5X,X%X%X,X5X5X5X5X6X9X/.k o ",
"o k /.9X6X5X5X6X9X^.j j ^.9X9X).v v ).9X9X6X9X*XC.x G I E } 5.4.{ 0..X|.j j ^.9X6X9X9X).m . . m ).9X9X5X5X5X5X5X5X5X5X5X7X2X:X:X2X5X5X5X5X6X9X/.k o ",
"o k /.9X6X5X5X6X9X^.j j ^.9X8X].8.8.].8X8X6X6X<X*XJ.c D I 5.W.Q.3.9..X(.j j ^.9X6X6X9X(.m . . j (.9X6X5X5X5X5X5X5X5X5X5X8X:Xr.r.:X8X5X5X5X6X9X/.k o ",
"o k /.9X6X5X5X6X9X^.j j /.3X>XR.3.3.R.;X2X5X5X9X9X(.g > L 5.W.E.4.9.`.(.j j /.9X6X6X9X/.k # p A.&X6X6X5X5X5X5X5X5X5X5X2X;XR.....R.;X2X5X5X6X9X/.k o ",
"o k /.9X6X5X5X6X9X^.j j /.;Xr.3.| | 3.r.:X5X5X0X9X(.g > ( } 5.4.| 0..X(.j j (.9X9X6X9X^.j p D.-X<X5X5X5X5X5X5X5X5X5X8X;Xr.3.{ { 3.r.;X8X5X6X9X/.k o ",
"o k /.9X6X5X5X6X9X^.j j (..X9.T R R T 9.`.8X5X6X0X%XZ x H ( / P ) 8.oX|.m p S.*X<X9X9X(.j s D.-X<X5X5X5X5X5X5X5X5X2X;XR.3.T R R T 3.R.;X2X9X9X/.k o ",
"o k /.9X6X5X5X6X9X^.j j (..X0.T T T T 9.`.8X5X5X5X<X&XK.v < > > > 6.=X$XC # i Z.*X9X9X).m # p A.&X6X6X5X5X5X5X5X7X:Xr.3.| R ] ] R | 3.r.:X9X9X/.k o ",
"o k /.9X6X5X5X6X9X^.j j (..X9.{ 3.3.{ 9.`.8X5X5X5X9X9X}.V O 7 q q B L.G.f . . s D.}.}.D.f . . j /.9X6X5X5X5X5X5X8X`.9.T R ] R R ] R T 9.`.9X9X/.k o ",
"o k /.9X6X5X5X6X9X^.j j (.`.9...E.E...5.`.8X5X5X5X9X9X).V 1 O.u.u.%.M a % + + * f m m f * o . j /.9X6X5X5X5X5X5X8X`.9.R R ] R R ] R R 9.`.9X9X/.k o ",
"o k /.9X6X5X5X6X9X^.j j /.:Xr.r.;X;Xr.e..X5X9X0X9X<X*XF.a 1 o.u.u.%.t 0 q 8 = + + . . + + * s Z.&X6X6X5X5X5X5X5X8X`.9.T T | 4.4.| T T 9.`.9X9X/.k o ",
"o k /.9X6X5X5X6X9X^.j j /.3X:X:X2X2X:XXX1X5X6X9X9X*XC.a # @ 8 q q t $.u.u.$.8 X X X X X + f D.*X<X5X5X5X5X5X5X5X8X`.9.Y Y 3.Q.Q.4.Y Y 9.`.9X9X/.k o ",
"o k /.9X6X5X5X6X9X^.j j ^.9X9X5X5X5X7X8X5X,X$X/.(.L.M 0 w q q q 8 t ;.d.d.;.&.q w e e 7 O V }.9X9X5X5X5X5X5X5X5X7X:Xr.5.5.r.>X>Xr.5.9.r.:X9X9X/.k o ",
"o k /.9X6X5X5X6X9X^.j j ^.9X9X5X5X5X5X9X9X$XZ g g M %.+.-.+.+.+.+.;.*.! ! *.;.u.u.u.u.O.1 V ).9X9X5X5X5X5X5X5X5X5X1X:X`.`.:X2X2X:X`.`.:X1X9X9X/.k o ",
"o k /.9X6X5X5X6X9X^.j j ^.9X6X5X5X5X5X6X9X XN 9 9 y i.x.x.x.x.x.z.f.*.! ! *.;.y.+.p.s.;.K c J.*X<X6X5X5X5X5X5X5X5X5X8X8X8X8X8X8X8X8X8X8X5X6X9X/.k o ",
"o k /.9X6X5X5X6X9X^.j j ^.9X6X5X5X5X5X5X7XOXm.@.@.i.g.z.z.z.z.z.z.g.f.:.:.;.t q q r Q ~ ' H x C.*X9X6X5X5X5X5X5X5X5X8X8X8X8X8X8X8X8X8X8X5X6X9X/.k o ",
"o k /.9X6X5X5X6X9X^.j j ^.9X6X5X5X5X5X5X7X@XV.M.B.v.l.k.k.k.k.k.k.k.k.z.z.i.y 8 8 r  .^ ^ Q r M L.*X<X6X5X5X5X5X5X1X.X`.`.`.`.`.`.`.`.:X1X9X9X/.k o ",
"o k /.9X6X5X5X6X9X^.j j ^.9X6X5X5X5X5X5X5X2X@X+X@X{.b.a.a.h.h.k.k.k.k.z.z.g.u.+.+.-.:.:.:.:.-.$.M C.*X9X6X5X5X5X7XXXe.5.9.0.0.0.0.9.9.r.:X9X9X/.k o ",
"o k /.9X6X5X5X6X9X^.j j ^.9X6X5X5X5X5X5X5X5X5X7X7X4XV.B.B.B.B.b.l.k.k.k.k.z.z.z.x.z.k.k.k.z.x.i.u M J.&X,X5X5X5X7X:Xe.X.{ R T T R T T 9.`.9X9X/.k o ",
"o k /.9X6X5X5X6X9X^.j j ^.9X6X5X5X5X5X5X5X5X5X7X7X2X@XOXOX@X@X{.b.a.a.h.h.h.j.j.j.j.h.h.h.j.j.g.i.$.M A $X0X6X5X5X1X:XR.3.T T T R R T 9.`.9X9X/.k o ",
"o k /.9X6X5X5X6X9X^.j j /.9X9X6X6X6X6X6X6X6X6X6X6X0X0X9X9X9X9X4XV.B.B.N.N.N.N.N.N.N.N.N.N.N.N.N.M.m.N Z &X9X9X6X5X8X8X'.0.| 3.4.} R R 0.`.9X9X/.k o ",
"o k /.9X6X5X5X6X9X^.j j (.9X9X9X9X9X9X9X9X9X9X9X9X9X9X9X9X9X9X5X4X+X+X+X+X+X+X+X+X+X+X+X+X+X+X+X+XOX X&X<X9X9X6X5X5X8X`.9.3.E.Q.5.R R 0.`.8X9X/.k o ",
"o k /.9X6X5X5X6X9X^.j i F.(./.^.^.^.^.^.^.^.^.^.^.^.^.^.^.^.^._./.(.(.(.(.(.(.(.(.(./.(.(.(.(.(././.(.(./.^.^.$X,X8X8X`.9.0..XXXq.T T 0.`.8X9X/.k o ",
"o k /.9X6X5X5X6X9X/.j $ i j j j j j j j j j j j j j j j j j j j j j j j j j j j j j j j j j j j j j j j j j h Z $X9X9X`.9.0.oXXXq.T T 0.`.8X9X/.k o ",
"o k /.9X6X5X5X6X6X&XZ j j j j j j j j j j j j j j j j j j j j j j j j j j j j j j j j j j j j j j j j j j j h Z $X9X8X`.5...R.E.4.T T 9.`.8X8X/.k o ",
"o k ^.9X6X5X5X5X5X,X&X/.^.^.^.^.^.^.^.^.^.^.^.^.^.^.^.^.^.^.^.^.^.^.^.^.^.^.^.^.^.^.^.^.^.^.^.^.^.^.^.^.^.^.^.$X,X8X8X`.9.{ ..3.| T Y 9.`.9X9X/.m o ",
"o m (.9X6X5X5X5X5X5X6X9X9X9X9X9X9X9X9X9X9X9X9X9X9X9X9X9X9X9X9X9X9X9X9X9X9X9X9X9X9X9X9X9X9X9X9X9X9X9X9X9X9X9X9X6X5X5X5X:Xr.9.9.9.9.9.9.r.:X9X9X(.m o ",
"o m (.9X9X5X5X5X5X5X6X6X6X6X6X6X6X6X6X6X6X6X6X6X6X6X6X6X6X6X6X6X6X6X6X6X6X6X6X6X6X6X6X6X6X6X6X6X6X6X6X6X6X6X6X6X5X5X5X1X:X`.`.`.`.`.`.:X1X9X9X(.m o ",
"o f S.*X<X9X6X6X6X6X6X6X6X6X6X6X6X6X6X6X6X6X6X6X6X6X6X6X6X6X6X6X6X6X6X6X6X6X6X6X6X6X6X6X6X6X6X6X6X6X6X6X6X6X6X6X6X6X6X9X9X9X9X9X9X9X9X9X9X<X*XS.f o ",
"+ * s Z.*X9X9X9X9X9X9X9X9X9X9X9X9X9X9X9X9X9X9X9X9X9X9X9X9X9X9X9X9X9X9X9X9X9X9X9X9X9X9X9X9X9X9X9X9X9X9X9X9X9X9X9X9X9X9X9X9X9X9X9X9X9X9X9X9X*XZ.s * + ",
"$ o o p S.(.(./././././.^././././././././././.^././././././.^.^././././././.^.^././././.^././.^./././././././././././././././././././.(.(.S.s o + $ ",
"    o * f m m k k k k k k k k k k k k k k k k k k k k k k k k k k k k k k k k k k k k k k k k k k k k k k k k k k m k k k k k k k m m m m f * +     ",
"    $ + o o o o o o o o o o o o o o o o o o o o o o o o o o o o o o o o o o o o o o o o o o o o o o o o o o o o o o o o o o o o o o o o o o + $     "
};
