/* XPM */
static char *hearts_7[] = {
/* columns rows colors chars-per-pixel */
"74 104 157 2 ",
"   c None",
".  c #1F002C",
"X  c #20012D",
"o  c #21012D",
"O  c #21012E",
"+  c #22032F",
"@  c #23032F",
"#  c #250632",
"$  c #270833",
"%  c #30133B",
"&  c #482E50",
"*  c #4B3152",
"=  c #583F5D",
"-  c #59405D",
";  c #59415E",
":  c #FF0013",
">  c #FF0014",
",  c #FF0115",
"<  c #FF0216",
"1  c #FF0316",
"2  c #FF0317",
"3  c #FF0418",
"4  c #FF0519",
"5  c #FF0619",
"6  c #FF071A",
"7  c #FF091C",
"8  c #FF0A1C",
"9  c #FF0A1D",
"0  c #FF0B1D",
"q  c #FF0B1E",
"w  c #FF0C1E",
"e  c #FF0C1F",
"r  c #FF0D20",
"t  c #FF0E20",
"y  c #FF0F21",
"u  c #FF1123",
"i  c #FF1224",
"p  c #FF1324",
"a  c #FF1627",
"s  c #FF1728",
"d  c #FF1829",
"f  c #FF1B2B",
"g  c #FE303D",
"h  c #FE313E",
"j  c #FE323F",
"k  c #FE3340",
"l  c #FE3440",
"z  c #FE3441",
"x  c #FD3542",
"c  c #FD3642",
"v  c #FD3743",
"b  c #FD3945",
"n  c #FD3C48",
"m  c #FD3E49",
"M  c #FD3F4A",
"N  c #FD414B",
"B  c #FD424C",
"V  c #FD424D",
"C  c #FD434D",
"Z  c #FD434E",
"A  c #FD444E",
"S  c #FD444F",
"D  c #FD454F",
"F  c #FD4650",
"G  c #FB6C70",
"H  c #FB6D71",
"J  c #FB7074",
"K  c #FB7175",
"L  c #FB7276",
"P  c #FB7376",
"I  c #FB7377",
"U  c #FB7477",
"Y  c #FB7578",
"T  c #FB7679",
"R  c #816E80",
"E  c #9B8B96",
"W  c #FA8D8D",
"Q  c #FA8F8E",
"!  c #FA8F8F",
"~  c #FA908F",
"^  c #FA9392",
"/  c #FA9594",
"(  c #C2B8B7",
")  c #C4BAB9",
"_  c #C6BCBB",
"`  c #F8B7B1",
"'  c #F8B8B1",
"]  c #F8B9B2",
"[  c #F8B9B3",
"{  c #F8BAB3",
"}  c #F8BBB4",
"|  c #F8BCB5",
" . c #F8BDB5",
".. c #F8BDB6",
"X. c #F8BFB7",
"o. c #F8BFB8",
"O. c #F8C1B9",
"+. c #F8C7BE",
"@. c #F8C8BF",
"#. c #D5CDC7",
"$. c #F7CDC4",
"%. c #F7CEC5",
"&. c #F7CFC5",
"*. c #F8C9C0",
"=. c #F8CAC1",
"-. c #F8CBC2",
";. c #F8CDC3",
":. c #F7D0C6",
">. c #F7D1C7",
",. c #F7D2C8",
"<. c #F7D4C9",
"1. c #EFEBDE",
"2. c #F6E5D8",
"3. c #F7E5D8",
"4. c #F7E6D9",
"5. c #F6E7DA",
"6. c #F6E8DB",
"7. c #F6EADC",
"8. c #F6EBDD",
"9. c #F6EEE0",
"0. c #F6F0E2",
"q. c #F6F3E4",
"w. c #F6F4E5",
"e. c #F6F5E5",
"r. c #F6F5E6",
"t. c #F6F6E6",
"y. c #F6F6E7",
"u. c #F6F7E7",
"i. c #F9F6E7",
"p. c #FAF7E7",
"a. c #F6F7E8",
"s. c #F6F8E8",
"d. c #F6F8E9",
"f. c #F6F9E9",
"g. c #F6F9EA",
"h. c #F6FAEA",
"j. c #F6FBEA",
"k. c #F6FBEB",
"l. c #F6FCEC",
"z. c #F6FDEC",
"x. c #F6FFEE",
"c. c #F9F8E8",
"v. c #FAF8E8",
"b. c #FBF8E8",
"n. c #FBF9E8",
"m. c #FAF9E9",
"M. c #FBF9E9",
"N. c #F9FBEA",
"B. c #FBFBEA",
"V. c #FAFBEB",
"C. c #FDFBEA",
"Z. c #F9FCEB",
"A. c #FAFCEB",
"S. c #FBFCEB",
"D. c #FFFDEB",
"F. c #FDFEEC",
"G. c #FFFEEC",
/* pixels */
"    $ # @ @ @ @ @ @ @ @ @ @ @ @ @ @ @ @ @ @ @ @ @ @ @ @ @ @ @ @ @ @ @ @ @ @ @ @ @ @ @ @ @ @ @ @ @ @ @ @ @ @ @ @ @ @ @ @ @ @ @ @ @ @ @ @ @ @ # $     ",
"    @ % * ; ; = = = = = = = = = = = = = = = = = = = = = = = = = = = = = = = = = = = = = = = = = = = = = = = = = = = = = = = = = = = = ; ; * % @     ",
"$ @ . & E _ ) ( ( ( ( ( ( ( ( ( ( ( ( ( ( ( ( ( ( ( ( ( ( ( ( ( ( ( ( ( ( ( ( ( ( ( ( ( ( ( ( ( ( ( ( ( ( ( ( ( ( ( ( ( ( ( ( ( ( ( ( ) ) E & . @ $ ",
"# % & R #.F.F.Z.Z.Z.B.B.B.B.Z.B.B.B.B.B.B.B.B.B.B.B.B.B.B.B.B.B.B.B.B.B.B.B.B.B.B.B.B.B.B.B.B.B.B.B.B.B.B.B.B.B.B.B.B.B.B.B.B.B.B.B.B.C.D.#.R & % # ",
"@ * E #.1.B.B.Z.Z.Z.Z.Z.B.B.Z.B.B.i.i.i.i.i.i.i.i.i.i.i.i.i.i.i.i.i.i.i.i.i.i.i.i.i.i.i.i.i.i.i.i.i.i.i.i.i.i.i.i.i.i.i.i.i.i.i.i.i.i.i.p.1.#.E * @ ",
"@ ; _ F.B.2.+.` [ [ [ [ } } } *.2.w.w.q.q.q.q.q.0.0.q.q.q.q.q.q.q.q.q.q.q.0.q.q.q.q.q.q.q.q.q.q.0.q.q.q.q.q.q.q.q.q.q.q.q.0.q.q.q.q.q.q.q.i.D._ ; @ ",
"@ ; ) F.B.@.G n n N N V A A V J *.a.w.q.q.q.q.q.0.q.q.q.q.q.q.q.q.q.q.q.q.q.q.q.q.q.q.q.q.q.q.q.0.q.q.q.q.q.q.q.q.q.q.q.q.q.q.q.q.q.q.q.q.i.C.) ; @ ",
"@ = ( B.B.@.G n n V A c d 3 , n [ k.w.q.q.q.q.q.q.q.q.q.q.q.q.q.q.q.q.q.q.q.q.0.q.q.q.q.q.q.q.q.q.q.q.0.q.q.q.q.q.q.q.q.q.q.q.0.q.q.q.q.q.i.B.( = @ ",
"@ = ( B.B.2.+.` [  .O.^ c , , n [ k.w.q.q.q.q.q.q.q.q.q.q.q.q.q.q.q.q.q.q.q.q.q.q.q.q.q.q.q.q.q.q.q.q.q.q.q.q.q.q.q.q.q.q.q.q.q.q.q.q.q.q.i.B.( = @ ",
"@ = ( B.i.w.a.k.l.0.<.^ c p j J *.a.w.w.w.w.w.w.w.w.w.w.w.w.w.q.q.q.q.q.q.q.q.q.q.q.q.w.w.w.w.w.w.w.w.w.w.w.w.q.q.q.q.q.q.q.q.q.q.q.q.q.q.i.B.( = @ ",
"@ = ( B.i.w.w.k.l.,.T k p j Q $.6.w.w.w.a.k.k.a.w.w.a.k.k.a.w.q.q.q.q.q.q.q.q.q.q.q.q.w.a.k.k.a.w.w.w.k.k.a.w.q.q.q.q.q.q.q.q.q.q.q.q.q.q.i.B.( = @ ",
"@ = ( B.i.w.w.6.$.Q j u j J $.k.w.w.w.6.*.[ [ *.8.8.*.[ [ *.6.w.w.q.q.q.q.q.q.q.q.w.w.6.*.[ [ *.8.8.*.[ [ *.6.w.w.q.q.q.q.q.q.q.q.q.q.q.q.i.B.( = @ ",
"@ = ( B.i.w.a.*.J j p c Q $.8.a.w.w.k.$.J n n U >.>.U n n J $.k.w.q.q.q.q.q.q.q.q.w.k.$.J n n U ,.>.U n n J $.k.w.q.q.q.q.q.q.q.q.q.q.q.0.i.B.( = @ ",
"@ = ( B.i.w.k.[ n : , A O.l.k.w.w.6.$.~ c , , b / / v , , c ~ $.6.w.w.q.q.q.q.w.w.6.$.~ c , , v / / v , , c ~ $.6.w.w.q.q.q.q.q.q.q.q.q.0.i.B.( = @ ",
"@ = ( B.i.w.k.[ n : , V  .k.a.w.k.*.J c s 9 9 d b b d 9 9 s c J *.w.w.q.q.q.q.w.a.*.J c s 9 9 d b b d 9 9 s c J *.a.w.q.q.q.q.q.q.q.q.q.0.i.B.( = @ ",
"@ = ( B.i.w.a.*.J N n J *.a.w.w.k.} V 3 9 t t t 9 9 t t t 9 3 V } k.w.q.q.q.q.w.k.} V 3 9 t t t 9 9 t t t 9 3 V } k.w.q.q.q.q.q.q.q.q.q.q.i.B.( = @ ",
"@ = ( B.i.q.w.2.*.[ [ *.2.w.w.w.k.} V 3 9 t t t e e t u u 9 3 V } k.w.q.q.q.q.w.k.} A 3 9 t t t e e t u t 9 3 A } k.w.q.q.q.q.q.q.q.q.q.q.i.B.( = @ ",
"@ = ( B.i.q.w.a.k.k.k.k.w.w.w.k.k. .F 9 e t t t t t t t t e 9 F  .k.w.q.q.q.q.w.k. .F 9 e t t t t t t t t e 9 F  .k.w.q.q.q.q.q.q.q.q.q.q.i.B.( = @ ",
"@ = ( B.i.w.w.k.k.k.k.w.k.k.k.k.k.} F 9 e t t t t t t t t e 9 F  .k.w.q.q.q.q.w.k. .F 9 e t t t t t t t t e 9 F  .k.w.q.q.q.q.q.q.q.q.q.q.i.B.( = @ ",
"@ = ( B.B.2.*.[ [ *.8.8.*.[ [ ;.8. .A 3 9 t t t t t t t t 9 3 A } k.w.q.q.q.q.w.k.} A 3 9 u t t t t t t t 9 3 A } k.w.q.q.q.q.q.q.q.q.q.q.i.B.( = @ ",
"@ ; ( B.B.*.J n N U ,.,.U N N J $. .A 3 9 t t t t t t t t 9 3 V } k.w.q.q.q.q.w.k.} V 3 9 t t t t t t t t 9 3 V } k.w.q.q.q.q.q.q.q.q.q.q.i.B.( = @ ",
"@ ; ( Z.Z.} V , , b / / b , , A  .>.T c s 9 t t t t t t 9 s c J *.a.w.q.q.q.q.w.w.*.J c s 9 t t t t t t 9 s c J *.w.w.q.q.q.q.q.q.q.q.q.q.i.B.( = @ ",
"@ = ( Z.Z.} V 3 3 d b b d 3 3 A  .9.>.~ c 3 9 u t t t 9 3 c ~ $.6.w.q.q.q.q.q.w.w.6.$.Q c 3 9 t t u u 9 3 c ~ $.6.w.w.q.q.q.q.q.q.q.q.q.q.i.B.( = @ ",
"@ = ( Z.Z.} V 3 9 t 9 9 t 9 3 A } l.l.$.J c s 9 t t 9 s c J $.k.w.q.q.q.q.q.q.q.q.w.k.$.J c s 9 t t e s c J $.k.w.q.q.q.q.q.q.q.q.q.q.q.q.i.B.( = @ ",
"@ = ( Z.Z.} V 3 9 t e e t 9 3 V } k.k.8.$.~ c 3 9 e 3 c ~ $.8.w.w.q.q.q.q.q.q.q.q.w.a.8.$.~ c 3 e e 3 c ~ $.8.w.w.q.q.q.q.q.q.q.q.q.q.q.q.i.B.( = @ ",
"@ = ( B.B.*.J c s 9 t t 9 s c J *.w.w.w.k.$.J k a a k J $.k.w.q.q.q.q.q.q.q.q.q.q.q.q.a.k.$.J k a a k J $.k.w.q.q.q.q.q.q.q.q.q.q.q.q.q.q.i.B.( = @ ",
"@ = ( B.B.6.$.~ c 3 9 9 3 c ~ $.6.w.w.w.w.8.$.Q j j Q $.8.a.w.q.q.q.q.q.q.q.q.q.q.q.q.w.a.8.$.Q j j Q $.8.w.w.q.q.q.q.q.q.q.q.q.q.q.q.q.q.i.B.( = @ ",
"@ = ( B.i.w.k.$.J k a a k J $.k.a.q.q.q.q.w.k.*.G G *.k.a.q.q.w.w.w.w.w.w.w.w.w.w.w.w.q.q.w.k.*.G G *.k.w.q.q.q.q.q.q.q.q.q.q.q.q.q.q.q.q.i.B.( = @ ",
"@ = ( B.i.w.w.8.$.Q j j Q $.8.w.w.q.q.q.q.w.w.6.*.*.2.a.w.q.q.w.a.k.k.a.w.w.a.k.k.a.w.q.q.w.w.6.*.*.6.w.w.q.q.q.q.q.q.q.q.q.q.q.q.q.q.q.0.i.B.( = @ ",
"@ = ( B.i.0.q.w.k.*.G G *.k.w.q.q.q.q.q.q.q.q.w.a.a.w.q.q.w.a.6.*.[ [ *.8.8.*.[ [ *.6.w.w.q.q.w.a.a.w.q.q.q.q.q.q.q.q.q.q.q.q.q.q.q.q.q.0.i.B.( = @ ",
"@ = ( B.i.q.q.w.w.6.*.*.6.w.w.q.q.q.q.q.q.q.q.w.w.w.w.q.q.w.k.$.J n n U >.>.U n n J $.k.a.q.q.w.w.w.w.q.q.q.q.q.q.q.q.q.q.q.q.q.q.q.q.q.0.i.B.( = @ ",
"@ = ( B.i.q.q.0.q.w.a.a.w.q.q.q.q.q.q.q.q.q.q.q.q.q.q.w.w.6.$.~ c , , c / / v , , c ~ $.6.w.w.q.q.q.q.q.q.q.q.q.q.q.q.q.q.q.q.q.q.q.q.q.q.i.B.( = @ ",
"@ = ( B.i.q.q.q.q.w.w.w.w.q.q.q.q.q.q.q.q.q.q.q.q.q.q.w.w.*.J c d 9 9 d b b d 9 9 s c J *.a.w.q.q.q.q.q.q.q.q.q.q.q.q.q.q.q.q.q.q.q.q.q.q.i.B.( = @ ",
"@ = ( B.i.q.q.q.q.q.q.q.q.q.q.q.q.q.q.q.q.q.q.q.q.q.q.w.k.} V 3 9 t t t 9 9 t u t 9 3 V } k.w.q.q.q.q.q.q.q.q.q.q.q.q.q.q.q.q.q.q.q.q.q.q.i.B.( = @ ",
"@ = ( B.i.q.q.q.q.q.q.q.q.q.q.q.q.q.q.q.q.q.q.q.q.q.q.w.k.} V 3 9 t t t e e t t t 9 3 V } k.w.q.q.q.q.q.q.q.q.q.q.q.q.q.q.q.q.q.q.q.q.q.q.i.B.( = @ ",
"@ = ( B.i.q.q.q.q.q.q.q.q.q.q.q.q.q.q.q.q.q.q.q.q.q.q.w.k. .F 9 e t t t t t t t t e 9 F  .k.w.q.q.q.q.q.q.q.q.q.q.q.q.q.q.q.q.q.q.q.q.q.q.i.B.( = @ ",
"@ = ( B.i.q.q.q.q.q.q.q.q.q.q.q.q.q.q.q.q.q.q.q.q.q.q.w.k. .F 9 e t t t t t t t t e 9 F  .k.w.q.q.q.q.q.q.q.q.q.q.q.q.q.q.q.q.q.q.q.q.q.q.i.B.( = @ ",
"@ = ( B.i.q.q.q.q.q.q.q.q.q.q.q.q.q.q.q.q.q.q.q.q.q.q.w.k.} V 3 9 t t t t t t t t 9 3 A } k.w.q.q.q.q.q.q.q.q.q.q.q.q.q.q.q.q.q.q.q.q.q.q.i.B.( = @ ",
"@ = ( B.i.q.q.q.q.q.q.q.q.q.q.q.q.q.q.q.q.q.q.q.q.q.q.w.k.} V 3 9 t t t t t t t t 9 3 V } k.w.q.q.q.q.q.q.q.q.q.q.q.q.q.q.q.q.q.q.q.q.q.q.i.B.( = @ ",
"@ = ( B.i.q.q.q.q.q.q.q.q.q.q.q.q.q.q.q.q.q.q.q.q.q.q.w.w.*.J c s 9 t u u t t t 9 s c J *.a.w.q.q.q.q.q.q.q.q.q.q.q.q.q.q.q.q.q.q.q.q.q.q.i.B.( = @ ",
"@ = ( B.i.0.0.q.q.q.q.q.q.q.q.q.q.q.q.q.q.q.q.q.q.q.q.w.w.6.$.Q c 3 9 u t t t 9 3 c ~ $.6.w.w.q.q.q.q.q.q.q.q.q.q.q.q.q.q.q.q.q.q.q.q.q.q.i.B.( = @ ",
"@ = ( B.i.0.q.q.q.q.q.q.q.q.q.q.q.q.q.w.w.w.w.w.w.w.w.w.w.k.l.$.J c s 9 t t 9 s c J $.l.k.w.w.w.w.w.w.w.w.w.w.q.q.q.q.q.q.q.q.q.q.q.q.q.q.i.B.( = @ ",
"@ = ( B.i.q.q.q.q.q.q.q.q.q.q.q.q.q.q.w.a.k.k.a.w.w.a.k.k.k.k.8.$.~ c 3 9 9 3 c ~ $.8.k.k.k.k.a.w.w.w.k.k.a.w.q.q.q.q.q.q.q.q.q.q.q.q.q.q.i.B.( = @ ",
"@ = ( B.i.q.q.q.q.q.q.q.q.q.q.q.q.w.w.6.*.[ [ *.8.8.*.[ [ *.6.k.l.$.J k a a k J $.l.k.6.*.[ [ *.8.8.*.[ [ *.6.w.w.q.q.q.q.q.q.q.q.q.q.q.q.i.B.( = @ ",
"@ = ( B.i.q.q.q.q.q.q.q.q.q.q.q.q.a.k.$.J n n U ,.,.U n n J $.l.k.8.$.Q g g Q $.8.k.l.$.J n n U ,.>.U n n J $.k.w.q.q.q.q.q.q.q.q.q.q.q.0.i.B.( = @ ",
"@ = ( B.i.q.q.q.q.q.q.q.q.q.q.w.w.6.$.~ c , , b / / b , , c ~ $.6.k.l.*.G G *.l.k.6.$.~ k , , v / / v , , c ~ $.6.w.w.q.q.q.q.q.q.q.q.q.0.i.B.( = @ ",
"@ = ( B.i.q.q.q.q.q.q.q.q.q.q.w.a.*.J c s 9 9 d b b d 9 9 s c J *.k.k.6.*.*.6.k.k.*.J c s 9 9 d b b d 9 9 s c J *.a.w.q.q.q.q.q.q.q.q.q.0.i.B.( = @ ",
"@ = ( B.i.q.q.q.q.q.q.q.q.q.q.w.k.} V 3 9 t t t 9 9 t t t 9 3 V } k.w.w.w.w.w.w.k.} V 3 9 t t t 9 9 t t t 9 3 V } k.w.q.q.q.q.q.q.q.q.q.q.i.B.( = @ ",
"@ = ( B.i.q.q.q.q.q.q.q.q.q.q.w.k.} V 3 9 t t t e e t t t 9 3 A } k.w.w.w.w.w.w.k.} A 3 9 t t t e e t u t 9 3 A } k.w.q.q.q.q.q.q.q.q.q.q.i.B.( = @ ",
"@ = ( B.i.q.q.q.q.q.q.q.q.q.q.w.k. .F 9 9 t t t t t t t t e 9 F  .k.w.q.q.q.q.w.k. .F 9 e t t t t t t t t e 9 F  .k.w.q.q.q.q.q.q.q.q.q.q.i.B.( = @ ",
"@ = ( B.i.q.q.q.q.q.q.q.q.q.q.w.k. .F 9 9 t t t t t t t t e 9 F  .k.w.q.q.q.q.w.k. .F 9 e t t t t t t t t e 9 F  .k.w.q.q.q.q.q.q.q.q.q.q.i.B.( = @ ",
"@ = ( B.i.q.q.q.q.q.q.q.q.q.q.w.k.} A 3 9 t t t t t t t t 9 3 A } k.w.q.w.w.q.w.k.} A 3 9 u t t t t t t t 9 3 A } k.w.q.q.q.q.q.q.q.q.q.q.i.B.( = @ ",
"@ = ( B.i.q.q.q.q.q.q.q.q.q.q.w.k.} V 3 9 t t t t t t t t 9 3 V } k.w.q.q.q.q.w.k.} V 3 9 t t t t t t t t 9 3 V } k.w.q.q.q.q.q.q.q.q.q.q.i.B.( = @ ",
"@ = ( B.i.0.q.q.q.q.q.q.q.q.q.w.a.*.J c s 9 t u t t t t 9 s c J *.a.w.q.q.q.q.w.w.*.J c s 9 t t t t t t 9 s c J *.w.w.q.q.q.q.q.q.q.q.q.q.i.B.( = @ ",
"@ = ( B.i.q.q.q.q.q.q.q.q.q.q.w.w.6.$.~ c 3 9 u u u u 9 3 c ~ $.6.w.q.q.q.q.q.w.w.6.$.Q c 3 9 t t u u 9 3 c ~ $.6.w.w.q.q.q.q.q.q.q.q.q.q.i.B.( = @ ",
"@ = ( B.i.q.q.0.q.q.q.q.q.q.q.q.q.w.k.$.J c s 9 t t e s c J $.k.w.q.q.q.q.q.q.q.q.w.k.$.J c s 9 t t e s c J $.k.w.q.q.q.q.q.q.q.q.q.q.q.q.i.B.( = @ ",
"@ = ( B.i.q.q.q.q.q.q.q.q.q.q.q.q.w.w.8.$.~ c 3 e e 3 c ~ $.8.w.w.q.q.q.q.q.q.q.q.w.w.8.$.~ c 3 e e 3 c ~ $.8.w.w.q.q.q.q.q.q.q.q.q.q.q.q.i.B.( = @ ",
"@ = ( B.i.q.q.q.q.q.q.q.q.q.q.q.q.q.q.w.k.$.J k a a k J $.k.w.q.q.q.q.q.q.q.q.q.q.q.q.w.k.$.J k a a k J $.k.w.q.q.q.q.q.q.q.q.q.q.q.q.q.q.i.B.( = @ ",
"@ = ( B.i.q.q.q.q.q.q.q.q.q.q.q.q.q.q.w.w.8.$.Q j j Q $.8.w.w.q.q.q.q.q.q.q.q.q.q.q.q.w.w.8.$.Q j j Q $.8.w.w.q.q.q.q.q.q.q.q.q.q.q.q.q.q.i.B.( = @ ",
"@ = ( B.i.q.q.q.q.q.q.q.q.q.q.q.q.q.q.q.q.w.k.*.G G *.k.w.q.q.q.q.q.q.q.q.q.q.q.q.q.q.q.q.w.k.*.G G *.k.w.q.q.q.q.q.q.q.q.q.q.q.q.q.q.q.q.i.B.( = @ ",
"@ = ( B.i.q.q.q.q.q.q.q.q.q.q.q.q.q.q.q.q.w.w.6.*.*.6.w.w.q.q.q.q.q.q.q.q.q.q.q.q.q.q.q.q.w.w.6.*.*.6.w.w.q.q.q.q.q.q.q.q.q.q.q.q.q.q.q.0.i.B.( = @ ",
"@ = ( B.i.q.q.q.q.q.q.q.q.q.q.q.q.q.q.q.q.q.q.w.a.a.w.q.q.q.q.q.q.q.q.q.q.q.q.q.q.q.q.q.q.q.q.w.a.a.w.q.q.q.q.q.q.q.q.q.q.q.q.q.q.q.q.q.q.i.B.( = @ ",
"@ = ( B.i.q.q.q.q.q.q.q.q.q.q.q.q.q.q.q.q.q.q.w.w.w.w.q.q.q.q.q.q.q.q.q.q.q.q.q.q.q.q.q.q.q.q.w.w.w.w.q.q.q.q.q.q.q.q.q.q.q.q.q.q.q.q.q.q.i.B.( = @ ",
"@ = ( B.i.q.q.q.q.q.q.q.q.q.q.q.q.q.q.q.q.q.q.q.q.q.q.q.q.q.q.q.q.q.q.q.q.q.q.q.q.q.q.q.q.q.q.q.q.q.q.q.q.q.q.q.q.q.q.q.q.q.q.q.q.q.q.q.q.i.B.( = @ ",
"@ = ( B.i.0.0.q.q.q.q.q.q.q.q.q.q.q.q.q.q.q.q.q.q.q.q.q.q.q.q.q.q.q.q.q.q.q.q.q.q.q.q.q.q.q.q.q.q.q.q.q.q.q.q.q.q.q.q.q.q.q.q.q.q.q.q.q.q.i.B.( = @ ",
"@ = ( B.i.0.q.q.q.q.q.q.q.q.q.q.q.q.q.q.q.q.q.q.q.q.q.q.q.q.q.q.q.q.q.q.q.q.q.q.q.q.q.q.q.q.q.q.q.q.q.q.q.q.q.q.q.q.q.q.q.q.q.q.q.q.q.q.q.i.B.( = @ ",
"@ = ( B.i.q.q.q.q.q.q.q.q.q.q.q.q.q.q.q.q.q.q.q.q.q.q.q.q.q.q.q.q.q.q.q.q.q.q.q.q.q.q.q.q.q.q.q.q.q.q.q.q.q.q.q.q.q.q.q.q.q.q.q.q.q.q.q.q.i.B.( = @ ",
"@ = ( B.i.q.q.q.q.q.q.q.q.q.q.q.q.q.q.q.q.q.q.q.q.q.q.q.q.q.q.q.q.q.q.q.q.q.q.q.q.q.q.q.q.q.q.q.q.q.q.q.q.q.q.q.q.q.q.q.q.q.q.q.q.q.q.q.q.i.B.( = @ ",
"@ = ( B.i.q.q.q.q.q.q.q.q.q.q.q.q.q.q.q.q.q.q.q.q.q.q.q.q.q.q.q.q.q.q.q.q.q.q.q.q.q.q.q.q.q.q.q.q.q.q.q.q.q.q.q.q.q.q.q.q.q.q.q.q.q.q.q.q.i.B.( = @ ",
"@ = ( B.i.q.q.q.q.q.q.q.q.q.q.q.q.q.q.q.q.q.q.q.q.q.q.q.q.q.q.q.q.q.q.q.q.q.q.q.q.q.q.q.q.q.q.q.q.q.q.q.q.q.q.q.q.q.q.q.q.q.q.q.q.q.q.q.q.i.B.( = @ ",
"@ = ( B.i.q.q.q.q.q.q.q.q.q.q.q.q.q.q.q.q.q.q.q.q.q.q.q.q.q.q.q.q.q.q.q.q.q.q.q.q.q.q.q.q.q.q.q.q.q.q.q.q.q.q.q.q.q.q.q.q.q.q.q.q.q.q.q.q.i.B.( = @ ",
"@ = ( B.i.q.q.q.q.q.q.q.q.q.q.q.q.q.q.q.q.q.q.q.q.q.q.q.q.q.q.q.q.q.q.q.q.q.q.q.q.q.q.q.q.q.q.q.q.q.q.q.q.q.q.q.q.q.q.q.q.w.w.w.w.q.q.q.q.i.B.( = @ ",
"@ = ( B.i.q.q.q.q.q.q.q.q.q.q.q.q.q.q.q.q.q.q.q.q.q.q.q.q.q.q.q.q.q.q.q.q.q.q.q.q.q.q.q.q.q.q.q.q.q.q.q.q.q.q.q.q.q.q.q.q.w.a.a.w.q.q.q.q.i.B.( = @ ",
"@ = ( B.i.q.q.q.q.q.q.q.q.q.q.q.q.q.q.q.q.q.q.w.w.w.w.q.q.q.q.q.q.q.q.q.q.q.q.q.q.q.q.q.q.q.q.w.w.w.w.q.q.q.q.q.q.q.q.w.w.6.*.*.2.w.w.q.q.i.B.( = @ ",
"@ = ( B.i.q.q.q.q.q.q.q.q.q.q.q.q.q.q.q.q.q.q.w.a.a.w.q.q.q.q.q.q.q.q.q.q.q.q.q.q.q.q.q.q.q.q.w.a.a.w.q.q.q.q.q.q.q.q.w.k.*.G G *.k.w.q.q.i.B.( = @ ",
"@ = ( B.i.q.q.q.q.q.q.q.q.q.q.q.q.q.q.q.q.w.a.6.*.*.6.w.w.q.q.q.q.q.q.q.q.q.q.q.q.q.q.q.q.w.a.6.*.*.6.w.w.q.q.q.q.w.w.8.$.Q j j Q $.8.w.w.i.B.( = @ ",
"@ = ( B.i.q.q.q.q.q.q.q.q.q.q.q.q.q.q.q.q.w.k.*.G G *.k.w.q.q.q.q.q.q.q.q.q.q.q.q.q.q.q.q.w.k.*.G G *.k.w.q.q.q.q.w.k.$.J k a a k J $.k.a.i.B.( = @ ",
"@ = ( B.i.0.q.q.q.q.q.q.q.q.q.q.q.q.q.w.a.8.$.Q j j Q $.8.w.w.q.q.q.q.q.q.q.q.q.q.q.q.w.w.8.$.Q j j Q $.8.w.w.w.w.6.$.~ c 3 9 9 3 c ~ $.6.B.B.( = @ ",
"@ = ( B.i.q.q.q.q.q.q.q.q.q.q.q.q.q.q.w.k.$.J k a a k J $.k.w.q.q.q.q.q.q.q.q.q.q.q.q.w.k.$.J k a a k J $.k.a.w.a.*.J c s 9 t t 9 s c J *.B.B.( = @ ",
"@ = ( B.i.q.q.0.q.q.q.q.q.q.q.q.q.w.w.8.$.~ c 3 9 9 3 c ~ $.8.w.w.q.q.q.q.q.q.q.q.w.w.8.$.~ c 3 9 9 3 c ~ $.8.k.k.} V 3 9 t e e t 9 3 V } Z.Z.( = @ ",
"@ = ( B.i.q.q.q.q.q.q.q.q.q.q.q.q.w.k.$.J c s 9 t t 9 s c J $.k.w.q.q.q.q.q.q.q.q.w.k.$.J c s 9 t t 9 s c J $.l.l. .A 3 9 t 9 9 t 9 3 V } Z.Z.( = @ ",
"@ = ( B.i.q.q.q.q.q.q.q.q.q.q.w.w.6.$.~ c 3 9 t t t t 9 3 c ~ $.6.w.w.q.q.q.q.w.w.6.$.~ c 3 9 t t t t 9 3 c ~ >.9. .A 3 3 d b b d 3 3 V } Z.Z.( = @ ",
"@ = ( B.i.q.q.q.q.q.q.q.q.q.q.w.a.*.J c d 9 t t t t t t 9 s c J *.w.w.q.q.q.q.w.a.*.J c d 9 t t t t t t 9 s c T >.o.A , , c / / v , , V } Z.B.( = @ ",
"@ = ( B.i.q.q.q.q.q.q.q.q.q.q.w.k.} V 3 9 u t t t t t t t 9 3 V } k.w.q.q.q.q.w.k.} V 3 9 u t t t t t t t 9 3 A o.>.J n n J >.>.U N n J *.B.B.( = @ ",
"@ = ( B.i.q.q.q.q.q.q.q.q.q.q.w.k.} V 3 9 t t t t t t t t 9 3 A } k.w.q.q.q.q.w.k.} V 3 9 t t t t t t t t 9 3 A  .8.;.[ [ *.8.8.*.[ } *.2.i.B.( = @ ",
"@ = ( B.i.q.q.q.q.q.q.q.q.q.q.w.k. .F 9 9 t t t t t t t t e 9 F  .k.w.q.q.q.q.w.k. .F 9 9 t t t t t t t t e 9 F  .k.k.k.k.k.w.k.k.k.k.a.w.i.B.( = @ ",
"@ = ( B.i.q.q.q.q.q.q.q.q.q.q.w.k. .F 9 9 t t t t t t t t e 9 F  .k.w.q.q.q.q.w.k. .F 9 9 t t t t t t t t e 9 F  .k.k.w.w.w.k.k.k.k.k.w.q.i.B.( = @ ",
"@ = ( B.i.q.q.q.q.q.q.q.q.q.q.w.k.} V 3 9 t t t e e t t t 9 3 A } k.w.q.q.q.q.w.k.} V 3 9 t t t e e t u t 9 3 V } k.w.w.w.2.*.[ [ *.2.w.q.i.B.( = @ ",
"@ = ( B.i.0.0.q.q.q.q.q.q.q.q.w.k.} V 3 9 u t t 9 9 t t t 9 3 V } k.w.q.q.q.q.w.k.} V 3 9 t t t 9 9 t t t 9 3 V } k.w.w.w.*.J N N J *.a.w.i.B.( = @ ",
"@ = ( B.i.0.q.q.q.q.q.q.q.q.q.w.a.*.J c s 9 9 d b b d 9 9 s c J *.a.w.q.q.q.q.w.a.*.J c s 9 9 d b b d 9 9 s c J *.a.w.a.k. .V , : n [ k.w.i.B.( = @ ",
"@ = ( B.i.q.q.q.q.q.q.q.q.q.q.w.w.6.$.~ c , , v / / b , , c ~ $.6.w.w.q.q.q.q.w.w.6.$.~ c , , b / / b , , c ~ $.6.w.w.k.l.O.A , : n [ k.w.i.B.( = @ ",
"@ = ( B.i.q.q.q.q.q.q.q.q.q.q.q.q.a.k.$.J n N U ,.,.U N n J $.k.w.q.q.q.q.q.q.q.q.a.k.$.J n N U ,.,.U n n J $.k.w.w.a.8.$.Q c p j J *.a.w.i.B.( = @ ",
"@ = ( B.i.q.q.q.q.q.q.q.q.q.q.q.q.w.w.6.*.[ [ *.8.8.*.[ [ *.6.w.w.q.q.q.q.q.q.q.q.w.w.6.*.[ [ *.8.8.*.[ [ *.6.w.w.w.k.$.J j u j Q $.6.w.w.i.B.( = @ ",
"@ = ( B.i.q.q.q.q.q.q.q.q.q.q.q.q.q.q.w.w.k.k.a.w.w.a.k.k.a.w.q.q.q.q.q.q.q.q.q.q.q.q.w.w.k.k.a.w.w.a.k.k.a.w.w.w.6.$.Q j p k T >.l.k.w.w.i.B.( = @ ",
"@ = ( B.i.q.q.q.q.q.q.q.q.q.q.q.q.q.q.w.w.w.w.w.w.w.w.w.w.w.w.q.q.q.q.q.q.q.q.q.q.q.q.w.w.w.w.w.w.w.w.w.w.w.w.w.w.*.J j p c ^ <.0.l.k.w.w.i.B.( = @ ",
"@ = ( B.i.q.q.q.q.q.q.q.q.q.q.q.q.q.q.q.q.q.q.q.q.q.q.q.q.q.q.q.q.q.q.q.q.q.q.q.q.q.q.q.q.q.q.q.q.q.q.q.q.q.q.w.k.[ n , , c ^ O. .[ ` +.2.B.B.( = @ ",
"@ = ( B.i.q.q.q.q.q.q.q.q.q.q.q.0.q.q.q.q.q.q.q.q.q.q.q.q.q.q.q.q.q.q.q.q.q.q.q.q.q.q.q.q.q.q.q.0.q.q.q.q.q.q.w.k.[ n , 3 d c A V n n G @.B.B.( = @ ",
"@ ; ) C.i.q.q.q.q.q.q.q.q.q.q.q.q.q.q.q.q.q.q.q.q.q.q.q.q.q.q.q.q.q.q.q.q.q.q.q.q.q.q.q.q.q.q.q.q.q.q.q.q.q.q.w.w.*.J V V A V N N n n G @.B.F.) ; @ ",
"@ ; ) D.i.q.q.q.q.q.q.q.q.q.q.q.q.q.0.q.q.q.q.q.q.q.q.q.q.q.q.q.q.q.q.q.q.q.q.q.q.q.q.q.q.q.q.q.q.q.0.q.q.q.q.w.w.2.*.} } } [ [ [ [ ` +.2.B.F._ ; @ ",
"@ * E #.1.p.i.i.i.i.i.i.i.i.i.i.i.i.i.i.i.i.i.i.i.i.i.i.i.i.i.i.i.i.i.i.i.i.i.i.i.i.i.i.i.i.i.i.i.i.i.i.i.i.i.i.i.B.B.Z.B.B.B.Z.Z.Z.Z.B.B.1.#.E * @ ",
"# % & R #.D.C.B.B.B.B.B.B.B.B.B.B.B.B.B.B.B.B.B.B.B.B.B.B.B.B.B.B.B.B.B.B.B.B.B.B.B.B.B.B.B.B.B.B.B.B.B.B.B.B.B.B.B.B.Z.B.Z.Z.Z.Z.Z.Z.F.F.#.R & % # ",
"$ @ . & E _ ) ( ( ( ( ( ( ( ( ( ( ( ( ( ( ( ( ( ( ( ( ( ( ( ( ( ( ( ( ( ( ( ( ( ( ( ( ( ( ( ( ( ( ( ( ( ( ( ( ( ( ( ( ( ( ( ( ( ( ( ( ) _ E & . @ $ ",
"    @ % * ; ; = = = = = = = = = = = = = = = = = = = = = = = = = = = = = = = = = = = = = = = = = = = = = = = = = ; = = = = = = = = = = ; ; * % @     ",
"    $ # @ @ @ @ @ @ @ @ @ @ @ @ @ @ @ @ @ @ @ @ @ @ @ @ @ @ @ @ @ @ @ @ @ @ @ @ @ @ @ @ @ @ @ @ @ @ @ @ @ @ @ @ @ @ @ @ @ @ @ @ @ @ @ @ @ @ # $     "
};
