/* XPM */
static char *hearts_6[] = {
/* columns rows colors chars-per-pixel */
"74 104 156 2 ",
"   c None",
".  c #1F002C",
"X  c #20012D",
"o  c #21012D",
"O  c #21012E",
"+  c #22032F",
"@  c #23032F",
"#  c #250632",
"$  c #270833",
"%  c #30133B",
"&  c #482E50",
"*  c #4B3152",
"=  c #583F5D",
"-  c #59405D",
";  c #59415E",
":  c #FF0216",
">  c #FF0317",
",  c #FF0417",
"<  c #FF0418",
"1  c #FF0518",
"2  c #FF0519",
"3  c #FF0619",
"4  c #FF071A",
"5  c #FF081B",
"6  c #FF091C",
"7  c #FF0A1C",
"8  c #FF0A1D",
"9  c #FF0B1D",
"0  c #FF0B1E",
"q  c #FF0C1E",
"w  c #FF0C1F",
"e  c #FF0D20",
"r  c #FF0E20",
"t  c #FF0F21",
"y  c #FF1224",
"u  c #FF1627",
"i  c #FF1728",
"p  c #FF1828",
"a  c #FF1B2B",
"s  c #FE1C2C",
"d  c #FE303D",
"f  c #FE313E",
"g  c #FE333F",
"h  c #FE3340",
"j  c #FE3440",
"k  c #FE3441",
"l  c #FD3642",
"z  c #FD3743",
"x  c #FD3945",
"c  c #FD3C48",
"v  c #FD3E49",
"b  c #FD3F4A",
"n  c #FD404B",
"m  c #FD414B",
"M  c #FD414C",
"N  c #FD424C",
"B  c #FD424D",
"V  c #FD434D",
"C  c #FD434E",
"Z  c #FD444E",
"A  c #FD444F",
"S  c #FD454F",
"D  c #FD4550",
"F  c #FD4650",
"G  c #FB6C70",
"H  c #FB6D71",
"J  c #FB6E72",
"K  c #FB7074",
"L  c #FB7175",
"P  c #FB7276",
"I  c #FB7376",
"U  c #FB7377",
"Y  c #FB7477",
"T  c #FB7578",
"R  c #816E80",
"E  c #9B8B96",
"W  c #FA8D8D",
"Q  c #FA8F8F",
"!  c #FA908F",
"~  c #FA9392",
"^  c #FA9493",
"/  c #FA9594",
"(  c #C2B8B7",
")  c #C4BAB9",
"_  c #C6BCBB",
"`  c #F8B7B1",
"'  c #F8B8B1",
"]  c #F8B8B2",
"[  c #F8B9B2",
"{  c #F8B9B3",
"}  c #F8BAB3",
"|  c #F8BBB4",
" . c #F8BCB5",
".. c #F8BDB6",
"X. c #F8BEB7",
"o. c #F8BFB7",
"O. c #F8BFB8",
"+. c #F8C0B9",
"@. c #F8C1B9",
"#. c #F8C2BA",
"$. c #F8C5BC",
"%. c #F8C7BE",
"&. c #F8C8BF",
"*. c #D5CDC7",
"=. c #F7CDC4",
"-. c #F7CEC5",
";. c #F7CFC5",
":. c #F8C9C0",
">. c #F8CAC1",
",. c #F8CBC2",
"<. c #F8CDC3",
"1. c #F7D0C6",
"2. c #F7D1C7",
"3. c #EFEBDE",
"4. c #F7E5D8",
"5. c #F6E6D9",
"6. c #F7E6D9",
"7. c #F6E7DA",
"8. c #F6E8DB",
"9. c #F6EADC",
"0. c #F6EBDD",
"q. c #F6EEE0",
"w. c #F6F3E4",
"e. c #F6F4E5",
"r. c #F6F5E5",
"t. c #F6F5E6",
"y. c #F6F6E6",
"u. c #F6F6E7",
"i. c #F6F7E7",
"p. c #F9F6E6",
"a. c #F9F6E7",
"s. c #FAF7E7",
"d. c #F6F7E8",
"f. c #F6F8E8",
"g. c #F6F8E9",
"h. c #F6F9E9",
"j. c #F6FAEA",
"k. c #F6FBEB",
"l. c #F6FCEC",
"z. c #F6FDED",
"x. c #F6FFEE",
"c. c #F9F8E8",
"v. c #FAF8E8",
"b. c #FBF8E8",
"n. c #FBF9E8",
"m. c #FAF9E9",
"M. c #FBF9E9",
"N. c #F9FBEA",
"B. c #FBFBEA",
"V. c #FAFBEB",
"C. c #FDFBEA",
"Z. c #F9FCEB",
"A. c #FBFCEB",
"S. c #FFFDEB",
"D. c #FDFEEC",
"F. c #FFFEEC",
/* pixels */
"    $ # @ @ @ @ @ @ @ @ @ @ @ @ @ @ @ @ @ @ @ @ @ @ @ @ @ @ @ @ @ @ @ @ @ @ @ @ @ @ @ @ @ @ @ @ @ @ @ @ @ @ @ @ @ @ @ @ @ @ @ @ @ @ @ @ @ @ # $     ",
"    @ % * ; ; ; = = = = = = = = = = = = = = = = = = = = = = = = = = = = = = = = = = = = = = = = = = = = = = = = = = = = = = = = = = = ; ; * % @     ",
"$ @ . & E _ ) ( ( ( ( ( ( ( ( ( ( ( ( ( ( ( ( ( ( ( ( ( ( ( ( ( ( ( ( ( ( ( ( ( ( ( ( ( ( ( ( ( ( ( ( ( ( ( ( ( ( ( ( ( ( ( ( ( ( ( ( ) _ E & . @ $ ",
"# % & R *.D.D.A.A.A.m.m.m.m.A.m.m.m.m.m.m.m.m.m.m.m.m.m.m.m.m.m.m.m.m.m.m.m.m.m.m.m.m.m.m.m.m.m.m.m.m.m.m.m.m.m.m.m.m.m.m.m.m.m.m.m.m.C.S.*.R & % # ",
"@ * E *.3.m.m.A.A.A.A.A.m.A.A.m.m.a.a.a.a.a.a.a.a.a.a.a.a.a.a.a.a.a.a.a.a.a.a.a.a.a.a.a.a.a.a.a.a.a.a.a.a.a.a.a.a.a.a.a.a.a.a.a.a.a.a.a.m.3.*.E * @ ",
"@ ; _ D.m.5.:.| | | ] ] ] ` ` %.5.r.r.w.w.w.w.w.w.w.w.w.w.w.w.w.w.w.w.w.w.w.w.w.w.w.w.w.w.w.w.w.w.w.w.w.w.w.w.w.w.w.w.w.w.w.w.w.w.w.w.w.w.m.S._ ; @ ",
"@ ; ) D.m.:.K B S S B B B c c G &.d.r.w.w.w.w.w.w.w.w.w.w.w.w.w.w.w.w.w.w.w.w.w.w.w.w.w.w.w.w.w.w.w.w.w.w.w.w.w.w.w.w.w.w.w.w.w.w.w.w.w.w.a.C.) ; @ ",
"@ = ( A.A.| B > 1 p l D S B n G :.d.r.w.w.w.w.w.w.w.w.w.w.w.w.w.w.w.w.w.w.w.w.w.w.w.w.w.w.w.w.w.w.w.w.w.w.w.w.w.w.w.w.w.w.w.w.w.w.w.w.w.w.a.m.( = @ ",
"@ = ( A.A.| B , 1 l ~ #.#.X.X.:.5.r.r.w.w.w.w.w.w.w.w.w.w.w.w.w.w.w.w.w.w.w.w.w.w.w.w.w.w.w.w.w.w.w.w.w.w.w.w.w.w.w.w.w.w.w.w.w.w.w.w.w.w.a.m.( = @ ",
"@ = ( A.A.X.D 1 5 x ^ #.#.X.O.=.5.r.r.r.r.r.r.r.r.r.r.r.r.r.r.w.w.w.w.w.w.w.w.w.w.w.w.r.r.r.r.r.r.r.r.r.r.r.r.w.w.w.w.w.w.w.w.w.w.w.w.w.w.a.m.( = @ ",
"@ = ( A.A.X.D 8 8 s l S S B S K :.r.r.r.d.j.j.r.r.r.r.j.j.d.r.w.w.w.w.w.w.w.w.w.w.w.w.r.d.j.j.d.r.r.r.j.j.d.r.w.w.w.w.w.w.w.w.w.w.w.w.w.w.a.m.( = @ ",
"@ = ( A.A.X.D 8 8 s l D D g y n ] j.j.8.:.] ] :.0.0.:.] ] :.8.r.r.w.w.w.w.w.w.w.w.r.r.8.:.] ] :.0.0.:.] ] :.8.r.r.w.w.w.w.w.w.w.w.w.w.w.w.a.m.( = @ ",
"@ = ( A.A.X.D 1 5 x ^ %.%.! g c ] l.l.=.K c c Y 2.2.Y c c K =.j.r.w.w.w.w.w.w.w.w.r.j.=.K c c Y 2.2.Y c c K =.j.r.w.w.w.w.w.w.w.w.w.w.w.w.a.m.( = @ ",
"@ = ( A.A.| B , 1 l ~ %.%.! g n ] q.2.! l > > x / / l > > l ! =.8.r.r.w.w.w.w.r.r.8.=.! l > > z / / l > > l ! =.8.r.r.w.w.w.w.w.w.w.w.w.w.a.m.( = @ ",
"@ = ( m.A.| B > 1 p l D D g y B X.2.T l i 8 8 p x x p 8 8 i l K :.r.r.w.w.w.w.r.r.:.K l i 8 8 p x x p 8 8 i l K :.d.r.w.w.w.w.w.w.w.w.w.w.a.m.( = @ ",
"@ = ( m.m.:.K B S S B n n c n K =.X.S 1 8 r r r 8 8 r r r 8 1 B | j.r.w.w.w.w.r.j.| B 1 8 r r r 8 8 r r r 8 1 B | j.r.w.w.w.w.w.w.w.w.w.w.a.m.( = @ ",
"@ = ( m.a.5.:.| | | ] ] ] ] ] <.0.X.S 1 8 r r r w w r y y 8 1 B | j.r.w.w.w.w.r.j.| S 1 8 r r r w w r r r 8 1 B | j.r.w.w.w.w.w.w.w.w.w.w.a.m.( = @ ",
"@ = ( m.a.r.j.l.l.j.j.j.j.l.l.l.j.X.D 8 8 r r r r r r r r w 8 D X.j.r.w.w.w.w.r.j.X.D 8 w r r r r r r r r w 8 D X.j.r.w.w.w.w.w.w.w.w.w.w.a.m.( = @ ",
"@ = ( m.a.r.j.l.l.j.j.j.j.l.l.l.j.X.D 8 w r r r r r r r r w 8 D X.j.r.w.w.w.w.r.j.X.D 8 w r r r r r r r r w 8 D X.j.r.w.w.w.w.w.w.w.w.w.w.a.m.( = @ ",
"@ = ( m.m.5.:.] ] :.0.0.:.] ] <.0.X.S 1 8 r r r r r r r r 8 1 S | j.r.w.w.w.w.r.j.| S 1 8 y r r r r r r r 8 1 S | j.r.w.w.w.w.w.w.w.w.w.w.a.m.( = @ ",
"@ ; ( m.m.:.K c n Y 2.2.Y c c K =.X.S 1 8 r r r r r r r r 8 1 B | j.r.w.w.w.w.r.j.| B 1 8 r r r r r r r r 8 1 B | j.r.w.w.w.w.w.w.w.w.w.w.a.m.( = @ ",
"@ ; ( A.A.| B > > x / / z > > S X.2.T l i 8 r r r r r r 8 i l K :.d.r.w.w.w.w.r.r.:.K l i 8 r r r r r r 8 i l K :.r.r.w.w.w.w.w.w.w.w.w.w.a.m.( = @ ",
"@ = ( A.A.| B 1 1 p x x p 1 1 S X.q.2.! l 1 8 r r r r 8 1 l ! =.8.r.w.w.w.w.w.r.r.8.=.Q l 1 8 r y y y 8 1 l ! =.8.r.r.w.w.w.w.w.w.w.w.w.w.a.m.( = @ ",
"@ = ( A.A.| B 1 8 r 8 8 r 8 1 S | l.l.=.K l i 8 r r 8 i l K =.j.r.w.w.w.w.w.w.w.w.r.j.=.K l i 8 r r w i l K =.j.r.w.w.w.w.w.w.w.w.w.w.w.w.a.m.( = @ ",
"@ = ( A.A.| B 1 8 r w w r 8 1 B | j.j.0.=.! l 1 8 w 1 l ! =.0.r.r.w.w.w.w.w.w.w.w.r.r.0.=.! l 1 8 8 1 l ! =.0.r.r.w.w.w.w.w.w.w.w.w.w.w.w.a.m.( = @ ",
"@ = ( m.m.:.K l i 8 r r 8 i l K :.r.r.r.j.=.K h u u h K =.j.r.w.w.w.w.w.w.w.w.w.w.w.w.r.j.=.K h u u h K =.j.r.w.w.w.w.w.w.w.w.w.w.w.w.w.w.a.m.( = @ ",
"@ = ( m.m.8.=.Q l 1 8 8 1 l ! =.8.r.r.r.r.0.=.Q g g Q =.0.r.r.w.w.w.w.w.w.w.w.w.w.w.w.r.r.0.=.Q g g Q =.0.r.r.w.w.w.w.w.w.w.w.w.w.w.w.w.w.a.m.( = @ ",
"@ = ( m.a.r.j.=.K h u u h K =.j.d.w.w.w.w.r.j.:.G G :.j.r.w.w.w.w.w.w.w.w.w.w.w.w.w.w.w.w.r.j.:.G G :.j.r.w.w.w.w.w.w.w.w.w.w.w.w.w.w.w.w.a.m.( = @ ",
"@ = ( m.a.r.r.0.=.Q g g Q =.0.r.r.w.w.w.w.r.r.5.:.:.5.r.r.w.w.w.w.w.w.w.w.w.w.w.w.w.w.w.w.r.r.8.:.:.8.r.r.w.w.w.w.w.w.w.w.w.w.w.w.w.w.w.w.a.m.( = @ ",
"@ = ( m.a.w.w.r.j.:.G G :.j.r.w.w.w.w.w.w.w.w.r.d.d.r.w.w.w.w.w.w.w.w.w.w.w.w.w.w.w.w.w.w.w.w.r.d.d.r.w.w.w.w.w.w.w.w.w.w.w.w.w.w.w.w.w.w.a.m.( = @ ",
"@ = ( m.a.w.w.r.r.8.:.:.8.r.r.w.w.w.w.w.w.w.w.r.r.r.r.w.w.w.w.w.w.w.w.w.w.w.w.w.w.w.w.w.w.w.w.r.r.r.r.w.w.w.w.w.w.w.w.w.w.w.w.w.w.w.w.w.w.a.m.( = @ ",
"@ = ( m.a.w.w.w.w.r.d.d.r.w.w.w.w.w.w.w.w.w.w.w.w.w.w.w.w.w.w.w.w.w.w.w.w.w.w.w.w.w.w.w.w.w.w.w.w.w.w.w.w.w.w.w.w.w.w.w.w.w.w.w.w.w.w.w.w.a.m.( = @ ",
"@ = ( m.a.w.w.w.w.r.r.r.r.w.w.w.w.w.w.w.w.w.w.w.w.w.w.w.w.w.w.w.w.w.w.w.w.w.w.w.w.w.w.w.w.w.w.w.w.w.w.w.w.w.w.w.w.w.w.w.w.w.w.w.w.w.w.w.w.a.m.( = @ ",
"@ = ( m.a.w.w.w.w.w.w.w.w.w.w.w.w.w.w.w.w.w.w.w.w.w.w.w.w.w.w.w.w.w.w.w.w.w.w.w.w.w.w.w.w.w.w.w.w.w.w.w.w.w.w.w.w.w.w.w.w.w.w.w.w.w.w.w.w.a.m.( = @ ",
"@ = ( m.a.w.w.w.w.w.w.w.w.w.w.w.w.w.w.w.w.w.w.w.w.w.w.w.w.w.w.w.w.w.w.w.w.w.w.w.w.w.w.w.w.w.w.w.w.w.w.w.w.w.w.w.w.w.w.w.w.w.w.w.w.w.w.w.w.a.m.( = @ ",
"@ = ( m.a.w.w.w.w.w.w.w.w.w.w.w.w.w.w.w.w.w.w.w.w.w.w.w.w.w.w.w.w.w.w.w.w.w.w.w.w.w.w.w.w.w.w.w.w.w.w.w.w.w.w.w.w.w.w.w.w.w.w.w.w.w.w.w.w.a.m.( = @ ",
"@ = ( m.a.w.w.w.w.w.w.w.w.w.w.w.w.w.w.w.w.w.w.w.w.w.w.w.w.w.w.w.w.w.w.w.w.w.w.w.w.w.w.w.w.w.w.w.w.w.w.w.w.w.w.w.w.w.w.w.w.w.w.w.w.w.w.w.w.a.m.( = @ ",
"@ = ( m.a.w.w.w.w.w.w.w.w.w.w.w.w.w.w.w.w.w.w.w.w.w.w.w.w.w.w.w.w.w.w.w.w.w.w.w.w.w.w.w.w.w.w.w.w.w.w.w.w.w.w.w.w.w.w.w.w.w.w.w.w.w.w.w.w.a.m.( = @ ",
"@ = ( m.a.w.w.w.w.w.w.w.w.w.w.w.w.w.w.w.w.w.w.w.w.w.w.w.w.w.w.w.w.w.w.w.w.w.w.w.w.w.w.w.w.w.w.w.w.w.w.w.w.w.w.w.w.w.w.w.w.w.w.w.w.w.w.w.w.a.m.( = @ ",
"@ = ( m.a.w.w.w.w.w.w.w.w.w.w.w.w.w.w.w.w.w.w.w.w.w.w.w.w.w.w.w.w.w.w.w.w.w.w.w.w.w.w.w.w.w.w.w.w.w.w.w.w.w.w.w.w.w.w.w.w.w.w.w.w.w.w.w.w.a.m.( = @ ",
"@ = ( m.a.w.w.w.w.w.w.w.w.w.w.w.w.w.w.w.w.w.w.w.w.w.w.w.w.w.w.w.w.w.w.w.w.w.w.w.w.w.w.w.w.w.w.w.w.w.w.w.w.w.w.w.w.w.w.w.w.w.w.w.w.w.w.w.w.a.m.( = @ ",
"@ = ( m.a.w.w.w.w.w.w.w.w.w.w.w.w.w.w.r.r.r.r.r.r.r.r.r.r.r.r.w.w.w.w.w.w.w.w.w.w.w.w.r.r.r.r.r.r.r.r.r.r.r.r.w.w.w.w.w.w.w.w.w.w.w.w.w.w.a.m.( = @ ",
"@ = ( m.a.w.w.w.w.w.w.w.w.w.w.w.w.w.w.r.d.j.j.d.r.r.d.j.j.r.r.w.w.w.w.w.w.w.w.w.w.w.w.r.d.j.j.d.r.r.r.j.j.d.r.w.w.w.w.w.w.w.w.w.w.w.w.w.w.a.m.( = @ ",
"@ = ( m.a.w.w.w.w.w.w.w.w.w.w.w.w.r.r.8.:.] ] :.0.0.:.] ] :.8.r.r.w.w.w.w.w.w.w.w.r.r.8.:.] ] :.0.0.:.] ] :.8.r.r.w.w.w.w.w.w.w.w.w.w.w.w.a.m.( = @ ",
"@ = ( m.a.w.w.w.w.w.w.w.w.w.w.w.w.d.j.=.K c c Y 2.2.Y c c K =.j.r.w.w.w.w.w.w.w.w.r.j.=.K c c Y 2.2.Y c c K =.j.r.w.w.w.w.w.w.w.w.w.w.w.w.a.m.( = @ ",
"@ = ( m.a.w.w.w.w.w.w.w.w.w.w.r.r.8.=.! l > > x / / x > > l ! =.8.r.r.w.w.w.w.r.r.8.=.! l > > z / / l > > l ! =.8.r.r.w.w.w.w.w.w.w.w.w.w.a.m.( = @ ",
"@ = ( m.a.w.w.w.w.w.w.w.w.w.w.r.d.:.K l i 8 8 p x x p 8 8 i l K :.r.r.w.w.w.w.r.r.:.K l i 8 8 p x x p 8 8 i l K :.d.r.w.w.w.w.w.w.w.w.w.w.a.m.( = @ ",
"@ = ( m.a.w.w.w.w.w.w.w.w.w.w.r.j.| B 1 8 r r r 8 8 r r r 8 1 B | j.r.w.w.w.w.r.j.| B 1 8 r r r 8 8 r r r 8 1 B | j.r.w.w.w.w.w.w.w.w.w.w.a.m.( = @ ",
"@ = ( m.a.w.w.w.w.w.w.w.w.w.w.r.j.| B 1 8 r r r w w r r r 8 1 B | j.r.w.w.w.w.r.j.| S 1 8 r r r w w r r r 8 1 B | j.r.w.w.w.w.w.w.w.w.w.w.a.m.( = @ ",
"@ = ( m.a.w.w.w.w.w.w.w.w.w.w.r.j.X.D 8 8 r r r r r r r r w 8 D X.j.r.w.w.w.w.r.j.X.D 8 w r r r r r r r r w 8 D X.j.r.w.w.w.w.w.w.w.w.w.w.a.m.( = @ ",
"@ = ( m.a.w.w.w.w.w.w.w.w.w.w.r.j.X.D 8 8 r r r r r r r r w 8 D X.j.r.w.w.w.w.r.j.X.D 8 w r r r r r r r r w 8 D X.j.r.w.w.w.w.w.w.w.w.w.w.a.m.( = @ ",
"@ = ( m.a.w.w.w.w.w.w.w.w.w.w.r.j.| B 1 8 r r r r r r r r 8 1 S | j.r.w.w.w.w.r.j.| S 1 8 y r r r r r r r 8 1 S | j.r.w.w.w.w.w.w.w.w.w.w.a.m.( = @ ",
"@ = ( m.a.w.w.w.w.w.w.w.w.w.w.r.j.| B 1 8 r r r r r r r r 8 1 B | j.r.w.w.w.w.r.j.| B 1 8 r r r r r r r r 8 1 B | j.r.w.w.w.w.w.w.w.w.w.w.a.m.( = @ ",
"@ = ( m.a.w.w.w.w.w.w.w.w.w.w.r.d.:.K l i 8 r r r r r r 8 i l K :.d.r.w.w.w.w.r.r.:.K l i 8 r r r r r r 8 i l K :.r.r.w.w.w.w.w.w.w.w.w.w.a.m.( = @ ",
"@ = ( m.a.w.w.w.w.w.w.w.w.w.w.r.r.8.=.! l 1 8 y y y y 8 1 l ! =.8.r.w.w.w.w.w.r.r.8.=.Q l 1 8 r y y y 8 1 l ! =.8.r.r.w.w.w.w.w.w.w.w.w.w.a.m.( = @ ",
"@ = ( m.a.w.w.w.w.w.w.w.w.w.w.w.w.d.j.=.K l i 8 r r w i l K =.j.r.w.w.w.w.w.w.w.w.r.j.=.K l i 8 r r w i l K =.j.r.w.w.w.w.w.w.w.w.w.w.w.w.a.m.( = @ ",
"@ = ( m.a.w.w.w.w.w.w.w.w.w.w.w.w.r.r.0.=.! l 1 8 8 1 l ! =.0.r.r.w.w.w.w.w.w.w.w.r.r.0.=.! l 1 8 8 1 l ! =.0.r.r.w.w.w.w.w.w.w.w.w.w.w.w.a.m.( = @ ",
"@ = ( m.a.w.w.w.w.w.w.w.w.w.w.w.w.w.w.r.j.=.K h u u h K =.j.r.w.w.w.w.w.w.w.w.w.w.w.w.r.j.=.K h u u h K =.j.r.w.w.w.w.w.w.w.w.w.w.w.w.w.w.a.m.( = @ ",
"@ = ( m.a.w.w.w.w.w.w.w.w.w.w.w.w.w.w.r.r.0.=.Q g g Q =.0.r.r.w.w.w.w.w.w.w.w.w.w.w.w.r.r.0.=.Q g g Q =.0.r.r.w.w.w.w.w.w.w.w.w.w.w.w.w.w.a.m.( = @ ",
"@ = ( m.a.w.w.w.w.w.w.w.w.w.w.w.w.w.w.w.w.r.j.:.G G :.j.r.w.w.w.w.w.w.w.w.w.w.w.w.w.w.w.w.r.j.:.G G :.j.r.w.w.w.w.w.w.w.w.w.w.w.w.w.w.w.w.a.m.( = @ ",
"@ = ( m.a.w.w.w.w.w.w.w.w.w.w.w.w.w.w.w.w.r.r.8.:.:.8.r.r.w.w.w.w.w.w.w.w.w.w.w.w.w.w.w.w.r.r.8.:.:.8.r.r.w.w.w.w.w.w.w.w.w.w.w.w.w.w.w.w.a.m.( = @ ",
"@ = ( m.a.w.w.w.w.w.w.w.w.w.w.w.w.w.w.w.w.w.w.r.d.d.r.w.w.w.w.w.w.w.w.w.w.w.w.w.w.w.w.w.w.w.w.r.d.d.r.w.w.w.w.w.w.w.w.w.w.w.w.w.w.w.w.w.w.a.m.( = @ ",
"@ = ( m.a.w.w.w.w.w.w.w.w.w.w.w.w.w.w.w.w.w.w.r.r.r.r.w.w.w.w.w.w.w.w.w.w.w.w.w.w.w.w.w.w.w.w.r.r.r.r.w.w.w.w.w.w.w.w.w.w.w.w.w.w.w.w.w.w.a.m.( = @ ",
"@ = ( m.a.w.w.w.w.w.w.w.w.w.w.w.w.w.w.w.w.w.w.w.w.w.w.w.w.w.w.w.w.w.w.w.w.w.w.w.w.w.w.w.w.w.w.w.w.w.w.w.w.w.w.w.w.w.w.w.w.w.w.w.w.w.w.w.w.a.m.( = @ ",
"@ = ( m.a.w.w.w.w.w.w.w.w.w.w.w.w.w.w.w.w.w.w.w.w.w.w.w.w.w.w.w.w.w.w.w.w.w.w.w.w.w.w.w.w.w.w.w.w.w.w.w.w.w.w.w.w.w.w.w.w.w.w.w.w.w.w.w.w.a.m.( = @ ",
"@ = ( m.a.w.w.w.w.w.w.w.w.w.w.w.w.w.w.w.w.w.w.w.w.w.w.w.w.w.w.w.w.w.w.w.w.w.w.w.w.w.w.w.w.w.w.w.w.w.w.w.w.w.w.w.w.w.w.w.w.w.w.w.w.w.w.w.w.a.m.( = @ ",
"@ = ( m.a.w.w.w.w.w.w.w.w.w.w.w.w.w.w.w.w.w.w.w.w.w.w.w.w.w.w.w.w.w.w.w.w.w.w.w.w.w.w.w.w.w.w.w.w.w.w.w.w.w.w.w.w.w.w.w.w.w.w.w.w.w.w.w.w.a.m.( = @ ",
"@ = ( m.a.w.w.w.w.w.w.w.w.w.w.w.w.w.w.w.w.w.w.w.w.w.w.w.w.w.w.w.w.w.w.w.w.w.w.w.w.w.w.w.w.w.w.w.w.w.w.w.w.w.w.w.w.w.w.w.w.w.w.w.w.w.w.w.w.a.m.( = @ ",
"@ = ( m.a.w.w.w.w.w.w.w.w.w.w.w.w.w.w.w.w.w.w.w.w.w.w.w.w.w.w.w.w.w.w.w.w.w.w.w.w.w.w.w.w.w.w.w.w.w.w.w.w.w.w.w.w.w.w.w.w.w.w.w.w.w.w.w.w.a.m.( = @ ",
"@ = ( m.a.w.w.w.w.w.w.w.w.w.w.w.w.w.w.w.w.w.w.w.w.w.w.w.w.w.w.w.w.w.w.w.w.w.w.w.w.w.w.w.w.w.w.w.w.w.w.w.w.w.w.w.w.w.w.w.w.w.w.w.w.w.w.w.w.a.m.( = @ ",
"@ = ( m.a.w.w.w.w.w.w.w.w.w.w.w.w.w.w.w.w.w.w.w.w.w.w.w.w.w.w.w.w.w.w.w.w.w.w.w.w.w.w.w.w.w.w.w.w.w.w.w.w.w.w.w.w.w.w.w.w.w.w.w.w.w.w.w.w.a.m.( = @ ",
"@ = ( m.a.w.w.w.w.w.w.w.w.w.w.w.w.w.w.w.w.w.w.w.w.w.w.w.w.w.w.w.w.w.w.w.w.w.w.w.w.w.w.w.w.w.w.w.w.w.w.w.w.w.w.w.w.w.w.w.w.r.r.r.r.w.w.w.w.a.m.( = @ ",
"@ = ( m.a.w.w.w.w.w.w.w.w.w.w.w.w.w.w.w.w.w.w.w.w.w.w.w.w.w.w.w.w.w.w.w.w.w.w.w.w.w.w.w.w.w.w.w.w.w.w.w.w.w.w.w.w.w.w.w.w.r.d.d.r.w.w.w.w.a.m.( = @ ",
"@ = ( m.a.w.w.w.w.w.w.w.w.w.w.w.w.w.w.w.w.w.w.r.r.r.r.w.w.w.w.w.w.w.w.w.w.w.w.w.w.w.w.w.w.w.w.r.r.r.r.w.w.w.w.w.w.w.w.r.r.8.:.:.5.r.r.w.w.a.m.( = @ ",
"@ = ( m.a.w.w.w.w.w.w.w.w.w.w.w.w.w.w.w.w.w.w.r.d.d.r.w.w.w.w.w.w.w.w.w.w.w.w.w.w.w.w.w.w.w.w.r.d.d.r.w.w.w.w.w.w.w.w.r.j.:.G G :.j.r.w.w.a.m.( = @ ",
"@ = ( m.a.w.w.w.w.w.w.w.w.w.w.w.w.w.w.w.w.r.d.8.:.:.8.r.r.w.w.w.w.w.w.w.w.w.w.w.w.w.w.w.w.r.d.8.:.:.8.r.r.w.w.w.w.r.r.0.=.Q g g Q =.0.r.r.a.m.( = @ ",
"@ = ( m.a.w.w.w.w.w.w.w.w.w.w.w.w.w.w.w.w.r.j.:.G G :.j.r.w.w.w.w.w.w.w.w.w.w.w.w.w.w.w.w.r.k.:.G G :.j.r.w.w.w.w.r.j.=.K h u u h K =.j.d.a.m.( = @ ",
"@ = ( m.a.w.w.w.w.w.w.w.w.w.w.w.w.w.w.r.d.0.=.Q g g Q =.0.r.r.w.w.w.w.w.w.w.w.w.w.w.w.r.r.0.=.Q g g Q =.0.r.r.r.r.8.=.! l 1 8 8 1 l ! =.8.m.m.( = @ ",
"@ = ( m.a.w.w.w.w.w.w.w.w.w.w.w.w.w.w.r.j.=.K h u u h K =.j.r.w.w.w.w.w.w.w.w.w.w.w.w.r.j.=.K h u u h K =.j.d.r.r.:.K l i 8 r r 8 i l K :.m.m.( = @ ",
"@ = ( m.a.w.w.w.w.w.w.w.w.w.w.w.w.r.r.0.=.! l 1 8 8 1 l ! =.0.r.r.w.w.w.w.w.w.w.w.r.r.0.=.Q l 1 8 8 1 l ! =.0.j.j.| B 1 8 r w w r 8 1 B | A.A.( = @ ",
"@ = ( m.a.w.w.w.w.w.w.w.w.w.w.w.w.r.j.=.K l i 8 r r 8 i l K =.k.r.w.w.w.w.w.w.w.w.r.j.=.K l i 8 r r 8 i l K =.l.l.| S 1 8 r 8 8 r 8 1 B | A.A.( = @ ",
"@ = ( m.a.w.w.w.w.w.w.w.w.w.w.r.r.8.=.! l 1 8 r r r r 8 1 l ! =.8.r.r.w.w.w.w.r.r.8.=.! l 1 8 r r r r 8 1 l ! 2.q.X.S 1 1 p x x p 1 1 B | A.A.( = @ ",
"@ = ( m.a.w.w.w.w.w.w.w.w.w.w.r.d.:.K l p 8 r r r r r r 8 i l K :.r.r.w.w.w.w.r.d.:.K l p 8 r r r r r r 8 i l T 2.O.S > > l / / x > > B | A.A.( = @ ",
"@ = ( m.a.w.w.w.w.w.w.w.w.w.w.r.j.| B 1 8 y r r r r r r r 8 1 B | j.r.w.w.w.w.r.j.| B 1 8 y r r r r r r r 8 1 S O.=.K c c Y 2.2.Y n c K :.m.m.( = @ ",
"@ = ( m.a.w.w.w.w.w.w.w.w.w.w.r.j.| B 1 8 r r r r r r r r 8 1 S | j.r.w.w.w.w.r.j.| B 1 8 r r r r r r r r 8 1 S X.0.<.] ] :.0.0.:.] ] :.5.a.m.( = @ ",
"@ = ( m.a.w.w.w.w.w.w.w.w.w.w.r.j.X.D 8 8 r r r r r r r r w 8 D X.j.r.w.w.w.w.r.j.X.D 8 8 r r r r r r r r w 8 D X.j.l.l.l.j.j.j.j.l.l.j.r.a.m.( = @ ",
"@ = ( m.a.w.w.w.w.w.w.w.w.w.w.r.j.X.D 8 8 r r r r r r r r w 8 D X.j.r.w.w.w.w.r.j.X.D 8 8 r r r r r r r r w 8 D X.j.l.l.k.j.j.j.j.l.l.j.r.a.m.( = @ ",
"@ = ( m.a.w.w.w.w.w.w.w.w.w.w.r.j.| B 1 8 r r r w w r r r 8 1 S | j.r.w.w.w.w.r.j.| B 1 8 r r r w w r y r 8 1 S X.0.<.] ] ] ] ] | | | :.5.a.m.( = @ ",
"@ = ( m.a.w.w.w.w.w.w.w.w.w.w.r.j.| B 1 8 y r r 8 8 r r r 8 1 B | j.r.w.w.w.w.r.j.| B 1 8 y r r 8 8 r r r 8 1 S X.=.K B c n n B S S B K :.m.m.( = @ ",
"@ = ( m.a.w.w.w.w.w.w.w.w.w.w.r.d.:.K l i 8 8 p x x p 8 8 i l K :.r.r.w.w.w.w.r.d.:.K l i 8 8 p x x p 8 8 i l T 2.X.B y h D D l p 1 > B | A.A.( = @ ",
"@ = ( m.a.w.w.w.w.w.w.w.w.w.w.r.r.8.=.! l > > z / / x > > l ! =.8.r.r.w.w.w.w.r.r.8.=.! l > > x / / x > > l ! 2.q.] n g ! %.%.~ l 1 , S | A.A.( = @ ",
"@ = ( m.a.w.w.w.w.w.w.w.w.w.w.w.w.d.j.=.K c n Y 2.2.Y n c K =.j.r.w.w.w.w.w.w.w.w.d.j.=.K c c Y 2.2.Y c c K =.l.l.] c g ! %.%.^ x 5 1 D X.A.A.( = @ ",
"@ = ( m.a.w.w.w.w.w.w.w.w.w.w.w.w.r.r.8.:.] ] :.0.0.:.] ] :.8.r.r.w.w.w.w.w.w.w.w.r.r.8.:.] ] :.0.0.:.] ] :.8.j.j.] n y g D D z s 8 8 D X.A.A.( = @ ",
"@ = ( m.a.w.w.w.w.w.w.w.w.w.w.w.w.w.w.r.r.j.j.d.r.r.r.j.j.d.r.w.w.w.w.w.w.w.w.w.w.w.w.r.r.j.j.d.r.r.r.j.j.d.r.r.r.:.K S B S S x s 8 8 D X.A.A.( = @ ",
"@ = ( m.a.w.w.w.w.w.w.w.w.w.w.w.w.w.w.r.r.r.r.r.r.r.r.r.r.r.r.w.w.w.w.w.w.w.w.w.w.w.w.r.r.r.r.r.r.r.r.r.r.r.r.r.r.5.=.O.X.#.#.^ x 5 1 D X.A.A.( = @ ",
"@ = ( m.a.w.w.w.w.w.w.w.w.w.w.w.w.w.w.w.w.w.w.w.w.w.w.w.w.w.w.w.w.w.w.w.w.w.w.w.w.w.w.w.w.w.w.w.w.w.w.w.w.w.w.r.r.5.:.X.X.#.#.~ l 1 > B | A.A.( = @ ",
"@ = ( m.a.w.w.w.w.w.w.w.w.w.w.w.w.w.w.w.w.w.w.w.w.w.w.w.w.w.w.w.w.w.w.w.w.w.w.w.w.w.w.w.w.w.w.w.w.w.w.w.w.w.w.r.r.:.G n B S D l p 1 > B | A.A.( = @ ",
"@ ; ) C.a.w.w.w.w.w.w.w.w.w.w.w.w.w.w.w.w.w.w.w.w.w.w.w.w.w.w.w.w.w.w.w.w.w.w.w.w.w.w.w.w.w.w.w.w.w.w.w.w.w.w.r.d.&.G c c n n B S S B K :.m.D.) ; @ ",
"@ ; _ S.a.w.w.w.w.w.w.w.w.w.w.w.w.w.w.w.w.w.w.w.w.w.w.w.w.w.w.w.w.w.w.w.w.w.w.w.w.w.w.w.w.w.w.w.w.w.w.w.w.w.w.r.r.5.%.` ` ] ] ] | | | :.5.m.D._ ; @ ",
"@ * E *.3.s.a.a.a.a.a.a.a.a.a.a.a.a.a.a.a.a.a.a.a.a.a.a.a.a.a.a.a.a.a.a.a.a.a.a.a.a.a.a.a.a.a.a.a.a.a.a.a.a.a.a.a.m.m.A.m.m.m.A.A.A.A.m.m.3.*.E * @ ",
"# % & R *.S.C.m.m.m.m.m.m.m.m.m.m.m.m.m.m.m.m.m.m.m.m.m.m.m.m.m.m.m.m.m.m.m.m.m.m.m.m.m.m.m.m.m.m.m.m.m.m.m.m.m.m.m.m.A.A.A.A.A.A.A.A.D.D.*.R & % # ",
"$ @ . & E _ ) ( ( ( ( ( ( ( ( ( ( ( ( ( ( ( ( ( ( ( ( ( ( ( ( ( ( ( ( ( ( ( ( ( ( ( ( ( ( ( ( ( ( ( ( ( ( ( ( ( ( ( ( ( ( ( ( ( ( ( ( ) _ E & . @ $ ",
"    @ % * ; ; = = = = = = = = = = = = = = = = = = = = = = = = = = = = = = = = = = = = = = = = = = = = = = = = = ; = = = = = = = = = = ; ; * % @     ",
"    $ # @ @ @ @ @ @ @ @ @ @ @ @ @ @ @ @ @ @ @ @ @ @ @ @ @ @ @ @ @ @ @ @ @ @ @ @ @ @ @ @ @ @ @ @ @ @ @ @ @ @ @ @ @ @ @ @ @ @ @ @ @ @ @ @ @ @ # $     "
};
