/* XPM */
static char *hearts_3[] = {
/* columns rows colors chars-per-pixel */
"74 104 137 2 ",
"   c None",
".  c #1F002C",
"X  c #20012D",
"o  c #21012D",
"O  c #21012E",
"+  c #22032F",
"@  c #23032F",
"#  c #250632",
"$  c #270833",
"%  c #30133B",
"&  c #482E50",
"*  c #4B3152",
"=  c #583F5D",
"-  c #59405D",
";  c #59415E",
":  c #FF0216",
">  c #FF0317",
",  c #FF0417",
"<  c #FF0418",
"1  c #FF0518",
"2  c #FF0519",
"3  c #FF0619",
"4  c #FF071A",
"5  c #FF081B",
"6  c #FF091C",
"7  c #FF0A1C",
"8  c #FF0A1D",
"9  c #FF0B1D",
"0  c #FF0B1E",
"q  c #FF0C1E",
"w  c #FF0C1F",
"e  c #FF0D20",
"r  c #FF0E20",
"t  c #FF0F21",
"y  c #FF1627",
"u  c #FF1728",
"i  c #FF1828",
"p  c #FF1B2B",
"a  c #FE1C2C",
"s  c #FE303D",
"d  c #FE3340",
"f  c #FE3440",
"g  c #FE3441",
"h  c #FD3642",
"j  c #FD3743",
"k  c #FD3945",
"l  c #FD3C48",
"z  c #FD3E49",
"x  c #FD3F4A",
"c  c #FD404B",
"v  c #FD414B",
"b  c #FD414C",
"n  c #FD424C",
"m  c #FD424D",
"M  c #FD434E",
"N  c #FD444E",
"B  c #FD454F",
"V  c #FD4550",
"C  c #FD4650",
"Z  c #FB6C70",
"A  c #FB6D71",
"S  c #FB6E72",
"D  c #FB7074",
"F  c #FB7175",
"G  c #FB7376",
"H  c #FB7477",
"J  c #816E80",
"K  c #9B8B96",
"L  c #FA8D8D",
"P  c #FA8F8F",
"I  c #FA908F",
"U  c #FA9392",
"Y  c #FA9493",
"T  c #FA9594",
"R  c #C2B8B7",
"E  c #C4BAB9",
"W  c #C6BCBB",
"Q  c #F8B7B1",
"!  c #F8B8B1",
"~  c #F8B9B2",
"^  c #F8B9B3",
"/  c #F8BAB3",
"(  c #F8BBB4",
")  c #F8BCB5",
"_  c #F8BDB6",
"`  c #F8C1B9",
"'  c #F8C2BA",
"]  c #F8C7BE",
"[  c #F8C8BF",
"{  c #D5CDC7",
"}  c #F7CDC4",
"|  c #F7CEC5",
" . c #F8C9C0",
".. c #F8CAC1",
"X. c #F8CBC2",
"o. c #F7D1C7",
"O. c #EFEBDE",
"+. c #F6E5D8",
"@. c #F7E5D8",
"#. c #F7E6D9",
"$. c #F6E7DA",
"%. c #F6E8DB",
"&. c #F6EADC",
"*. c #F6EBDD",
"=. c #F6F3E4",
"-. c #F6F4E5",
";. c #F6F5E5",
":. c #F6F5E6",
">. c #F6F6E6",
",. c #F6F6E7",
"<. c #F6F7E7",
"1. c #F9F6E6",
"2. c #F9F6E7",
"3. c #FAF7E7",
"4. c #F6F7E8",
"5. c #F6F8E8",
"6. c #F6F8E9",
"7. c #F6F9E9",
"8. c #F6FAEA",
"9. c #F6FBEB",
"0. c #F6FCEC",
"q. c #F9F8E8",
"w. c #FAF8E8",
"e. c #FBF8E8",
"r. c #FBF9E8",
"t. c #FAF9E9",
"y. c #FBF9E9",
"u. c #F9FBEA",
"i. c #FBFBEA",
"p. c #FAFBEB",
"a. c #FDFBEA",
"s. c #F9FCEB",
"d. c #FAFCEB",
"f. c #FBFCEB",
"g. c #FFFDEB",
"h. c #FDFEEC",
"j. c #FFFEEC",
/* pixels */
"    $ # @ @ @ @ @ @ @ @ @ @ @ @ @ @ @ @ @ @ @ @ @ @ @ @ @ @ @ @ @ @ @ @ @ @ @ @ @ @ @ @ @ @ @ @ @ @ @ @ @ @ @ @ @ @ @ @ @ @ @ @ @ @ @ @ @ @ # $     ",
"    @ % * ; ; = = = = = = = = = = = = = = = = = = = = = = = = = = = = = = = = = = = = = = = = = = = = = = = = = = = = = = = = = = = = ; ; * % @     ",
"$ @ . & K W E R R R R R R R R R R R R R R R R R R R R R R R R R R R R R R R R R R R R R R R R R R R R R R R R R R R R R R R R R R R R E E K & . @ $ ",
"# % & J { h.h.s.s.s.i.i.i.i.s.i.i.i.i.i.i.i.i.i.i.i.i.i.i.i.i.i.i.i.i.i.i.i.i.i.i.i.i.i.i.i.i.i.i.i.i.i.i.i.i.i.i.i.i.i.i.i.i.i.i.i.i.a.g.{ J & % # ",
"@ * K { O.i.i.s.s.s.s.s.i.i.s.i.i.2.2.2.2.2.2.2.2.2.2.2.2.2.2.2.2.2.2.2.2.2.2.2.2.2.2.2.2.2.2.2.2.2.2.2.2.2.2.2.2.2.2.2.2.2.2.2.2.2.2.2.3.O.{ K * @ ",
"@ ; W h.i.+.] Q ^ ^ ^ ^ ( ( (  .+.;.;.=.=.=.=.=.=.=.=.=.=.=.=.=.=.=.=.=.=.=.=.=.=.=.=.=.=.=.=.=.=.=.=.=.=.=.=.=.=.=.=.=.=.=.=.=.=.=.=.=.=.2.g.W ; @ ",
"@ ; E h.i.[ Z l l c c m N N m D  .;.;.=.=.=.=.=.=.=.=.=.=.=.=.=.=.=.=.=.=.=.=.=.=.=.=.=.=.=.=.=.=.=.=.=.=.=.=.=.=.=.=.=.=.=.=.=.=.=.=.=.=.2.a.E ; @ ",
"@ = R i.i. .Z c m N V h i 1 > m ( 7.;.=.=.=.=.=.=.=.=.=.=.=.=.=.=.=.=.=.=.=.=.=.=.=.=.=.=.=.=.=.=.=.=.=.=.=.=.=.=.=.=.=.=.=.=.=.=.=.=.=.=.2.i.R = @ ",
"@ = R i.i.+.X._ _ ` ` U h 1 , N ( 7.;.=.=.=.=.=.=.=.=.=.=.=.=.=.=.=.=.=.=.=.=.=.=.=.=.=.=.=.=.=.=.=.=.=.=.=.=.=.=.=.=.=.=.=.=.=.=.=.=.=.=.2.i.R = @ ",
"@ = R i.i.+.X._ _ ` ` Y k 5 1 V _ 7.;.=.=.=.=.=.=.=.=.=.=.=.=.;.;.;.;.;.;.;.;.;.;.;.;.=.=.=.=.=.=.=.=.=.=.=.=.=.=.=.=.=.=.=.=.=.=.=.=.=.=.2.i.R = @ ",
"@ = R i.i. .Z c m N N h a 6 6 V _ 7.;.=.=.=.=.=.=.=.=.=.=.=.=.;.4.7.7.;.;.;.4.7.7.4.;.=.=.=.=.=.=.=.=.=.=.=.=.=.=.=.=.=.=.=.=.=.=.=.=.=.=.2.i.R = @ ",
"@ = R i.i. .Z c m N N h a 6 6 V _ 7.;.=.=.=.=.=.=.=.=.=.=.;.;.%. .^ ^  .*.*. .^ ^  .%.;.;.=.=.=.=.=.=.=.=.=.=.=.=.=.=.=.=.=.=.=.=.=.=.=.=.2.i.R = @ ",
"@ = R i.i.+. ._ _ ` ` Y k 5 1 V _ 7.;.=.=.=.=.=.=.=.=.=.=.;.7.| D l l H o.o.H l l D | 7.4.=.=.=.=.=.=.=.=.=.=.=.=.=.=.=.=.=.=.=.=.=.=.=.=.2.i.R = @ ",
"@ = R i.i.+. ._ _ ` ` U h 1 1 N ( 7.;.=.=.=.=.=.=.=.=.;.;.%.| I h > > j Y T k > > h I | %.;.;.=.=.=.=.=.=.=.=.=.=.=.=.=.=.=.=.=.=.=.=.=.=.2.i.R = @ ",
"@ = R i.i. .Z c m N V h i 1 , m ( 7.;.=.=.=.=.=.=.=.=.;.4. .D h u 6 6 i k k i 6 6 u h D  .;.;.=.=.=.=.=.=.=.=.=.=.=.=.=.=.=.=.=.=.=.=.=.=.2.i.R = @ ",
"@ = R i.i.[ Z l l c m m N N m D  .;.;.=.=.=.=.=.=.=.=.;.7.( m 1 6 y y r 6 6 r r r 6 1 m ( 7.;.=.=.=.=.=.=.=.=.=.=.=.=.=.=.=.=.=.=.=.=.=.=.2.i.R = @ ",
"@ = R i.2.+.] Q ^ ^ ^ ^ ( ( (  .+.;.;.=.=.=.=.=.=.=.=.;.7.( N 1 6 r r r w w r r r 6 1 N ( 7.;.=.=.=.=.=.=.=.=.=.=.=.=.=.=.=.=.=.=.=.=.=.=.2.i.R = @ ",
"@ = R i.2.;.7.0.0.7.7.7.7.0.0.7.;.=.=.=.=.=.=.=.=.=.=.;.7._ V 6 w r r r r r r r r w 6 V _ 7.;.=.=.=.=.=.=.=.=.=.=.=.=.=.=.=.=.=.=.=.=.=.=.2.i.R = @ ",
"@ = R i.2.;.7.0.0.7.7.7.7.0.0.7.;.=.=.=.=.=.=.=.=.=.=.;.7._ V 6 w r r r r r r r r w 6 V _ 7.;.=.=.=.=.=.=.=.=.=.=.=.=.=.=.=.=.=.=.=.=.=.=.2.i.R = @ ",
"@ = R i.i.+. .^ ^  .*.*. .^ ^  .+.;.;.=.=.=.=.=.=.=.=.;.7.( N 1 6 r y r r r r r r 6 1 N ( 7.;.=.=.=.=.=.=.=.=.=.=.=.=.=.=.=.=.=.=.=.=.=.=.2.i.R = @ ",
"@ ; R i.i. .D l c H o.o.H c c D  .4.;.=.=.=.=.=.=.=.=.;.7.( m 1 6 y r r r r r r r 6 1 m ( 7.;.=.=.=.=.=.=.=.=.=.=.=.=.=.=.=.=.=.=.=.=.=.=.2.i.R = @ ",
"@ ; R s.s.( m > > j T T k > > m ( 7.;.=.=.=.=.=.=.=.=.;.4. .D h u w r r r r r r 6 u h D  .4.;.=.=.=.=.=.=.=.=.=.=.=.=.=.=.=.=.=.=.=.=.=.=.2.i.R = @ ",
"@ = R s.s.( m 1 1 i k k i 1 1 N ( 7.;.=.=.=.=.=.=.=.=.;.;.%.| I h 1 6 r r r r 6 1 h I | %.;.;.=.=.=.=.=.=.=.=.=.=.=.=.=.=.=.=.=.=.=.=.=.=.2.i.R = @ ",
"@ = R s.s.( m 1 6 r 6 6 r 6 1 N ( 7.;.=.=.=.=.=.=.=.=.=.=.4.7.| D h u 6 r r 6 u h D | 0.;.=.=.=.=.=.=.=.=.=.=.=.=.=.=.=.=.=.=.=.=.=.=.=.=.2.i.R = @ ",
"@ = R s.s.( m 1 6 r w w r 6 1 m ( 7.;.=.=.=.=.=.=.=.=.=.=.;.;.*.| P h 1 6 6 1 h I | *.;.;.=.=.=.=.=.=.=.=.=.=.=.=.=.=.=.=.=.=.=.=.=.=.=.=.2.i.R = @ ",
"@ = R i.i. .D h u 6 r r 6 u h D  .4.;.=.=.=.=.=.=.=.=.=.=.=.=.;.7.| D d y y d D | 7.;.=.=.=.=.=.=.=.=.=.=.=.=.=.=.=.=.=.=.=.=.=.=.=.=.=.=.2.i.R = @ ",
"@ = R i.i.%.| P h 1 6 6 1 h I | %.;.;.=.=.=.=.=.=.=.=.=.=.=.=.;.4.*.| P s s P | *.;.;.=.=.=.=.=.=.=.=.=.=.=.=.=.=.=.=.=.=.=.=.=.=.=.=.=.=.2.i.R = @ ",
"@ = R i.2.;.7.| D d y y d D | 7.;.=.=.=.=.=.=.=.=.=.=.=.=.=.=.=.=.4.7. .Z Z  .7.;.=.=.=.=.=.=.=.=.=.=.=.=.=.=.=.=.=.=.=.=.=.=.=.=.=.=.=.=.2.i.R = @ ",
"@ = R i.2.;.;.*.| P s s P | *.;.;.=.=.=.=.=.=.=.=.=.=.=.=.=.=.=.=.;.;.%. . .%.;.;.=.=.=.=.=.=.=.=.=.=.=.=.=.=.=.=.=.=.=.=.=.=.=.=.=.=.=.=.2.i.R = @ ",
"@ = R i.2.=.=.;.7. .Z Z  .0.;.=.=.=.=.=.=.=.=.=.=.=.=.=.=.=.=.=.=.=.=.;.4.4.;.=.=.=.=.=.=.=.=.=.=.=.=.=.=.=.=.=.=.=.=.=.=.=.=.=.=.=.=.=.=.2.i.R = @ ",
"@ = R i.2.=.=.;.;.%. . .%.;.;.=.=.=.=.=.=.=.=.=.=.=.=.=.=.=.=.=.=.=.=.;.;.;.;.=.=.=.=.=.=.=.=.=.=.=.=.=.=.=.=.=.=.=.=.=.=.=.=.=.=.=.=.=.=.2.i.R = @ ",
"@ = R i.2.=.=.=.=.;.4.4.;.=.=.=.=.=.=.=.=.=.=.=.=.=.=.=.=.=.=.=.=.=.=.=.=.=.=.=.=.=.=.=.=.=.=.=.=.=.=.=.=.=.=.=.=.=.=.=.=.=.=.=.=.=.=.=.=.2.i.R = @ ",
"@ = R i.2.=.=.=.=.;.;.;.;.=.=.=.=.=.=.=.=.=.=.=.=.=.=.=.=.=.=.=.=.=.=.=.=.=.=.=.=.=.=.=.=.=.=.=.=.=.=.=.=.=.=.=.=.=.=.=.=.=.=.=.=.=.=.=.=.2.i.R = @ ",
"@ = R i.2.=.=.=.=.=.=.=.=.=.=.=.=.=.=.=.=.=.=.=.=.=.=.=.=.=.=.=.=.=.=.=.=.=.=.=.=.=.=.=.=.=.=.=.=.=.=.=.=.=.=.=.=.=.=.=.=.=.=.=.=.=.=.=.=.2.i.R = @ ",
"@ = R i.2.=.=.=.=.=.=.=.=.=.=.=.=.=.=.=.=.=.=.=.=.=.=.=.=.=.=.=.=.=.=.=.=.=.=.=.=.=.=.=.=.=.=.=.=.=.=.=.=.=.=.=.=.=.=.=.=.=.=.=.=.=.=.=.=.2.i.R = @ ",
"@ = R i.2.=.=.=.=.=.=.=.=.=.=.=.=.=.=.=.=.=.=.=.=.=.=.=.=.=.=.=.=.=.=.=.=.=.=.=.=.=.=.=.=.=.=.=.=.=.=.=.=.=.=.=.=.=.=.=.=.=.=.=.=.=.=.=.=.2.i.R = @ ",
"@ = R i.2.=.=.=.=.=.=.=.=.=.=.=.=.=.=.=.=.=.=.=.=.=.=.=.=.=.=.=.=.=.=.=.=.=.=.=.=.=.=.=.=.=.=.=.=.=.=.=.=.=.=.=.=.=.=.=.=.=.=.=.=.=.=.=.=.2.i.R = @ ",
"@ = R i.2.=.=.=.=.=.=.=.=.=.=.=.=.=.=.=.=.=.=.=.=.=.=.=.=.=.=.=.=.=.=.=.=.=.=.=.=.=.=.=.=.=.=.=.=.=.=.=.=.=.=.=.=.=.=.=.=.=.=.=.=.=.=.=.=.2.i.R = @ ",
"@ = R i.2.=.=.=.=.=.=.=.=.=.=.=.=.=.=.=.=.=.=.=.=.=.=.=.=.=.=.=.=.=.=.=.=.=.=.=.=.=.=.=.=.=.=.=.=.=.=.=.=.=.=.=.=.=.=.=.=.=.=.=.=.=.=.=.=.2.i.R = @ ",
"@ = R i.2.=.=.=.=.=.=.=.=.=.=.=.=.=.=.=.=.=.=.=.=.=.=.=.=.=.=.=.=.=.=.=.=.=.=.=.=.=.=.=.=.=.=.=.=.=.=.=.=.=.=.=.=.=.=.=.=.=.=.=.=.=.=.=.=.2.i.R = @ ",
"@ = R i.2.=.=.=.=.=.=.=.=.=.=.=.=.=.=.=.=.=.=.=.=.=.=.=.=.=.=.=.=.=.=.=.=.=.=.=.=.=.=.=.=.=.=.=.=.=.=.=.=.=.=.=.=.=.=.=.=.=.=.=.=.=.=.=.=.2.i.R = @ ",
"@ = R i.2.=.=.=.=.=.=.=.=.=.=.=.=.=.=.=.=.=.=.=.=.=.=.=.=.=.=.;.;.;.;.;.;.;.;.;.;.;.;.=.=.=.=.=.=.=.=.=.=.=.=.=.=.=.=.=.=.=.=.=.=.=.=.=.=.2.i.R = @ ",
"@ = R i.2.=.=.=.=.=.=.=.=.=.=.=.=.=.=.=.=.=.=.=.=.=.=.=.=.=.=.;.4.7.7.;.;.;.4.7.7.4.;.=.=.=.=.=.=.=.=.=.=.=.=.=.=.=.=.=.=.=.=.=.=.=.=.=.=.2.i.R = @ ",
"@ = R i.2.=.=.=.=.=.=.=.=.=.=.=.=.=.=.=.=.=.=.=.=.=.=.=.=.;.;.%. .^ ^  .*.*. .^ ^  .%.;.;.=.=.=.=.=.=.=.=.=.=.=.=.=.=.=.=.=.=.=.=.=.=.=.=.2.i.R = @ ",
"@ = R i.2.=.=.=.=.=.=.=.=.=.=.=.=.=.=.=.=.=.=.=.=.=.=.=.=.;.7.| D l l H o.o.H l l D | 7.4.=.=.=.=.=.=.=.=.=.=.=.=.=.=.=.=.=.=.=.=.=.=.=.=.2.i.R = @ ",
"@ = R i.2.=.=.=.=.=.=.=.=.=.=.=.=.=.=.=.=.=.=.=.=.=.=.;.;.%.| I h > > j Y T k > > h I | %.;.;.=.=.=.=.=.=.=.=.=.=.=.=.=.=.=.=.=.=.=.=.=.=.2.i.R = @ ",
"@ = R i.2.=.=.=.=.=.=.=.=.=.=.=.=.=.=.=.=.=.=.=.=.=.=.;.4. .D h u 6 6 i k k i 6 6 u h D  .;.;.=.=.=.=.=.=.=.=.=.=.=.=.=.=.=.=.=.=.=.=.=.=.2.i.R = @ ",
"@ = R i.2.=.=.=.=.=.=.=.=.=.=.=.=.=.=.=.=.=.=.=.=.=.=.;.7.( m 1 6 y y r 6 6 r r r 6 1 m ( 7.;.=.=.=.=.=.=.=.=.=.=.=.=.=.=.=.=.=.=.=.=.=.=.2.i.R = @ ",
"@ = R i.2.=.=.=.=.=.=.=.=.=.=.=.=.=.=.=.=.=.=.=.=.=.=.;.7.( m 1 6 r r r w w r r r 6 1 N ( 7.;.=.=.=.=.=.=.=.=.=.=.=.=.=.=.=.=.=.=.=.=.=.=.2.i.R = @ ",
"@ = R i.2.=.=.=.=.=.=.=.=.=.=.=.=.=.=.=.=.=.=.=.=.=.=.;.7._ V 6 w r r r r r r r r w 6 V _ 7.;.=.=.=.=.=.=.=.=.=.=.=.=.=.=.=.=.=.=.=.=.=.=.2.i.R = @ ",
"@ = R i.2.=.=.=.=.=.=.=.=.=.=.=.=.=.=.=.=.=.=.=.=.=.=.;.7._ V 6 w r r r r r r r r w 6 V _ 7.;.=.=.=.=.=.=.=.=.=.=.=.=.=.=.=.=.=.=.=.=.=.=.2.i.R = @ ",
"@ = R i.2.=.=.=.=.=.=.=.=.=.=.=.=.=.=.=.=.=.=.=.=.=.=.;.7.( N 1 6 r y r r r r r r 6 1 N ( 7.;.=.=.=.=.=.=.=.=.=.=.=.=.=.=.=.=.=.=.=.=.=.=.2.i.R = @ ",
"@ = R i.2.=.=.=.=.=.=.=.=.=.=.=.=.=.=.=.=.=.=.=.=.=.=.;.7.( m 1 6 y r r r r r r r 6 1 m ( 7.;.=.=.=.=.=.=.=.=.=.=.=.=.=.=.=.=.=.=.=.=.=.=.2.i.R = @ ",
"@ = R i.2.=.=.=.=.=.=.=.=.=.=.=.=.=.=.=.=.=.=.=.=.=.=.;.4. .D h u w r r r r r r 6 u h D  .4.;.=.=.=.=.=.=.=.=.=.=.=.=.=.=.=.=.=.=.=.=.=.=.2.i.R = @ ",
"@ = R i.2.=.=.=.=.=.=.=.=.=.=.=.=.=.=.=.=.=.=.=.=.=.=.;.;.%.| I h 1 6 r r r r 6 1 h I | %.;.;.=.=.=.=.=.=.=.=.=.=.=.=.=.=.=.=.=.=.=.=.=.=.2.i.R = @ ",
"@ = R i.2.=.=.=.=.=.=.=.=.=.=.=.=.=.=.=.=.=.=.=.=.=.=.=.=.;.7.| D h u 6 r r 6 u h D | 0.;.=.=.=.=.=.=.=.=.=.=.=.=.=.=.=.=.=.=.=.=.=.=.=.=.2.i.R = @ ",
"@ = R i.2.=.=.=.=.=.=.=.=.=.=.=.=.=.=.=.=.=.=.=.=.=.=.=.=.;.;.*.| P h 1 6 6 1 h I | *.;.;.=.=.=.=.=.=.=.=.=.=.=.=.=.=.=.=.=.=.=.=.=.=.=.=.2.i.R = @ ",
"@ = R i.2.=.=.=.=.=.=.=.=.=.=.=.=.=.=.=.=.=.=.=.=.=.=.=.=.=.=.;.7.| D d y y d D | 7.;.=.=.=.=.=.=.=.=.=.=.=.=.=.=.=.=.=.=.=.=.=.=.=.=.=.=.2.i.R = @ ",
"@ = R i.2.=.=.=.=.=.=.=.=.=.=.=.=.=.=.=.=.=.=.=.=.=.=.=.=.=.=.;.4.*.| P s s P | *.;.;.=.=.=.=.=.=.=.=.=.=.=.=.=.=.=.=.=.=.=.=.=.=.=.=.=.=.2.i.R = @ ",
"@ = R i.2.=.=.=.=.=.=.=.=.=.=.=.=.=.=.=.=.=.=.=.=.=.=.=.=.=.=.=.=.4.7. .Z Z  .7.;.=.=.=.=.=.=.=.=.=.=.=.=.=.=.=.=.=.=.=.=.=.=.=.=.=.=.=.=.2.i.R = @ ",
"@ = R i.2.=.=.=.=.=.=.=.=.=.=.=.=.=.=.=.=.=.=.=.=.=.=.=.=.=.=.=.=.;.;.%. . .%.;.;.=.=.=.=.=.=.=.=.=.=.=.=.=.=.=.=.=.=.=.=.=.=.=.=.=.=.=.=.2.i.R = @ ",
"@ = R i.2.=.=.=.=.=.=.=.=.=.=.=.=.=.=.=.=.=.=.=.=.=.=.=.=.=.=.=.=.=.=.;.4.4.;.=.=.=.=.=.=.=.=.=.=.=.=.=.=.=.=.=.=.=.=.=.=.=.=.=.=.=.=.=.=.2.i.R = @ ",
"@ = R i.2.=.=.=.=.=.=.=.=.=.=.=.=.=.=.=.=.=.=.=.=.=.=.=.=.=.=.=.=.=.=.;.;.;.;.=.=.=.=.=.=.=.=.=.=.=.=.=.=.=.=.=.=.=.=.=.=.=.=.=.=.=.=.=.=.2.i.R = @ ",
"@ = R i.2.=.=.=.=.=.=.=.=.=.=.=.=.=.=.=.=.=.=.=.=.=.=.=.=.=.=.=.=.=.=.=.=.=.=.=.=.=.=.=.=.=.=.=.=.=.=.=.=.=.=.=.=.=.=.=.=.=.=.=.=.=.=.=.=.2.i.R = @ ",
"@ = R i.2.=.=.=.=.=.=.=.=.=.=.=.=.=.=.=.=.=.=.=.=.=.=.=.=.=.=.=.=.=.=.=.=.=.=.=.=.=.=.=.=.=.=.=.=.=.=.=.=.=.=.=.=.=.=.=.=.=.=.=.=.=.=.=.=.2.i.R = @ ",
"@ = R i.2.=.=.=.=.=.=.=.=.=.=.=.=.=.=.=.=.=.=.=.=.=.=.=.=.=.=.=.=.=.=.=.=.=.=.=.=.=.=.=.=.=.=.=.=.=.=.=.=.=.=.=.=.=.=.=.=.=.=.=.=.=.=.=.=.2.i.R = @ ",
"@ = R i.2.=.=.=.=.=.=.=.=.=.=.=.=.=.=.=.=.=.=.=.=.=.=.=.=.=.=.=.=.=.=.=.=.=.=.=.=.=.=.=.=.=.=.=.=.=.=.=.=.=.=.=.=.=.=.=.=.=.=.=.=.=.=.=.=.2.i.R = @ ",
"@ = R i.2.=.=.=.=.=.=.=.=.=.=.=.=.=.=.=.=.=.=.=.=.=.=.=.=.=.=.=.=.=.=.=.=.=.=.=.=.=.=.=.=.=.=.=.=.=.=.=.=.=.=.=.=.=.=.=.=.=.=.=.=.=.=.=.=.2.i.R = @ ",
"@ = R i.2.=.=.=.=.=.=.=.=.=.=.=.=.=.=.=.=.=.=.=.=.=.=.=.=.=.=.=.=.=.=.=.=.=.=.=.=.=.=.=.=.=.=.=.=.=.=.=.=.=.=.=.=.=.=.=.=.=.=.=.=.=.=.=.=.2.i.R = @ ",
"@ = R i.2.=.=.=.=.=.=.=.=.=.=.=.=.=.=.=.=.=.=.=.=.=.=.=.=.=.=.=.=.=.=.=.=.=.=.=.=.=.=.=.=.=.=.=.=.=.=.=.=.=.=.=.=.=.=.=.=.=.=.=.=.=.=.=.=.2.i.R = @ ",
"@ = R i.2.=.=.=.=.=.=.=.=.=.=.=.=.=.=.=.=.=.=.=.=.=.=.=.=.=.=.=.=.=.=.=.=.=.=.=.=.=.=.=.=.=.=.=.=.=.=.=.=.=.=.=.=.=.=.=.=.=.=.=.=.=.=.=.=.2.i.R = @ ",
"@ = R i.2.=.=.=.=.=.=.=.=.=.=.=.=.=.=.=.=.=.=.=.=.=.=.=.=.=.=.=.=.=.=.=.=.=.=.=.=.=.=.=.=.=.=.=.=.=.=.=.=.=.=.=.=.=.=.=.=.;.;.;.;.=.=.=.=.2.i.R = @ ",
"@ = R i.2.=.=.=.=.=.=.=.=.=.=.=.=.=.=.=.=.=.=.=.=.=.=.=.=.=.=.=.=.=.=.=.=.=.=.=.=.=.=.=.=.=.=.=.=.=.=.=.=.=.=.=.=.=.=.=.=.;.7.4.;.=.=.=.=.2.i.R = @ ",
"@ = R i.2.=.=.=.=.=.=.=.=.=.=.=.=.=.=.=.=.=.=.=.=.=.=.=.=.=.=.=.=.=.=.;.;.;.;.=.=.=.=.=.=.=.=.=.=.=.=.=.=.=.=.=.=.=.=.;.4.%. . .+.;.;.=.=.2.i.R = @ ",
"@ = R i.2.=.=.=.=.=.=.=.=.=.=.=.=.=.=.=.=.=.=.=.=.=.=.=.=.=.=.=.=.=.=.;.4.4.;.=.=.=.=.=.=.=.=.=.=.=.=.=.=.=.=.=.=.=.=.;.7. .Z Z  .7.;.=.=.2.i.R = @ ",
"@ = R i.2.=.=.=.=.=.=.=.=.=.=.=.=.=.=.=.=.=.=.=.=.=.=.=.=.=.=.=.=.;.;.%. . .%.;.;.=.=.=.=.=.=.=.=.=.=.=.=.=.=.=.=.;.;.*.| P s s P | *.;.;.2.i.R = @ ",
"@ = R i.2.=.=.=.=.=.=.=.=.=.=.=.=.=.=.=.=.=.=.=.=.=.=.=.=.=.=.=.=.4.0. .Z Z  .7.;.=.=.=.=.=.=.=.=.=.=.=.=.=.=.=.=.;.7.| D d y y d D | 7.4.2.i.R = @ ",
"@ = R i.2.=.=.=.=.=.=.=.=.=.=.=.=.=.=.=.=.=.=.=.=.=.=.=.=.=.=.;.4.*.| P s s P | *.;.;.=.=.=.=.=.=.=.=.=.=.=.=.;.;.%.| I h 1 6 6 1 h I | %.i.i.R = @ ",
"@ = R i.2.=.=.=.=.=.=.=.=.=.=.=.=.=.=.=.=.=.=.=.=.=.=.=.=.=.=.;.7.| D d y y d D | 7.;.=.=.=.=.=.=.=.=.=.=.=.=.;.4. .D h u 6 r r 6 u h D  .i.i.R = @ ",
"@ = R i.2.=.=.=.=.=.=.=.=.=.=.=.=.=.=.=.=.=.=.=.=.=.=.=.=.;.;.*.| I h 1 6 6 1 h I | *.;.;.=.=.=.=.=.=.=.=.=.=.;.7.( m 1 6 r w w r 6 1 m ( s.s.R = @ ",
"@ = R i.2.=.=.=.=.=.=.=.=.=.=.=.=.=.=.=.=.=.=.=.=.=.=.=.=.;.7.| D h u 6 r r w u h D | 0.4.=.=.=.=.=.=.=.=.=.=.;.7.( N 5 6 r 6 6 r 6 1 m ( s.s.R = @ ",
"@ = R i.2.=.=.=.=.=.=.=.=.=.=.=.=.=.=.=.=.=.=.=.=.=.=.;.;.%.| I h 1 6 r r r y 6 1 h I | %.;.;.=.=.=.=.=.=.=.=.;.7._ N 1 1 i k k i 1 1 m ( s.s.R = @ ",
"@ = R i.2.=.=.=.=.=.=.=.=.=.=.=.=.=.=.=.=.=.=.=.=.=.=.;.4. .D h u 6 w r r r r r 6 u h D  .4.;.=.=.=.=.=.=.=.=.;.7.( m > > h T T j > > m ( s.s.R = @ ",
"@ = R i.2.=.=.=.=.=.=.=.=.=.=.=.=.=.=.=.=.=.=.=.=.=.=.;.7.( m 1 6 r r r r r r r r 6 1 m ( 7.;.=.=.=.=.=.=.=.=.;.4. .D c l H o.o.H l l D  .i.i.R = @ ",
"@ = R i.2.=.=.=.=.=.=.=.=.=.=.=.=.=.=.=.=.=.=.=.=.=.=.;.7.( N 1 6 r r r r r r r r 6 1 N ( 7.;.=.=.=.=.=.=.=.=.;.;.+. .^ ^  .*.*. .^ (  .+.2.i.R = @ ",
"@ = R i.2.=.=.=.=.=.=.=.=.=.=.=.=.=.=.=.=.=.=.=.=.=.=.;.7._ V 6 w r r r r r r r r w 6 V _ 7.;.=.=.=.=.=.=.=.=.=.=.;.7.0.0.7.7.7.7.0.0.7.;.2.i.R = @ ",
"@ = R i.2.=.=.=.=.=.=.=.=.=.=.=.=.=.=.=.=.=.=.=.=.=.=.;.7._ V 6 w r r r r r r r r w 6 V _ 7.;.=.=.=.=.=.=.=.=.=.=.;.7.0.0.7.7.7.7.0.0.7.;.2.i.R = @ ",
"@ = R i.2.=.=.=.=.=.=.=.=.=.=.=.=.=.=.=.=.=.=.=.=.=.=.;.7.( m 1 6 y y r w w r r r 6 1 N ( 7.;.=.=.=.=.=.=.=.=.;.;.+. .( ( ( ^ ^ ^ ^ ^ ] +.2.i.R = @ ",
"@ = R i.2.=.=.=.=.=.=.=.=.=.=.=.=.=.=.=.=.=.=.=.=.=.=.;.7.( m 1 6 r r r 6 6 r r r 6 1 m ( 7.;.=.=.=.=.=.=.=.=.;.4. .D m N N m c m l l Z [ i.i.R = @ ",
"@ = R i.2.=.=.=.=.=.=.=.=.=.=.=.=.=.=.=.=.=.=.=.=.=.=.;.4. .D h u 6 6 i k k i 6 6 u h D  .;.;.=.=.=.=.=.=.=.=.;.7.( m > 1 i h V N m c Z  .i.i.R = @ ",
"@ = R i.2.=.=.=.=.=.=.=.=.=.=.=.=.=.=.=.=.=.=.=.=.=.=.;.;.%.| I h > > k T T k > > h I | %.;.;.=.=.=.=.=.=.=.=.;.7.( m , 1 h U ` ` _ _  .+.i.i.R = @ ",
"@ = R i.2.=.=.=.=.=.=.=.=.=.=.=.=.=.=.=.=.=.=.=.=.=.=.=.=.;.7.| D l l H o.o.H c l D | 7.;.=.=.=.=.=.=.=.=.=.=.;.7._ V 1 5 k Y ` ` _ _  .+.i.i.R = @ ",
"@ = R i.2.=.=.=.=.=.=.=.=.=.=.=.=.=.=.=.=.=.=.=.=.=.=.=.=.;.;.%. .^ ^  .*.*. .^ ^  .%.;.;.=.=.=.=.=.=.=.=.=.=.;.7._ V 6 6 a j V N m c Z X.i.i.R = @ ",
"@ = R i.2.=.=.=.=.=.=.=.=.=.=.=.=.=.=.=.=.=.=.=.=.=.=.=.=.=.=.;.;.7.7.4.;.;.;.7.7.4.;.=.=.=.=.=.=.=.=.=.=.=.=.;.7._ V 6 6 a j V N m c Z X.i.i.R = @ ",
"@ = R i.2.=.=.=.=.=.=.=.=.=.=.=.=.=.=.=.=.=.=.=.=.=.=.=.=.=.=.;.;.;.;.;.;.;.;.;.;.;.;.=.=.=.=.=.=.=.=.=.=.=.=.;.7._ V 1 5 k Y ` ` _ _ X.+.2.i.R = @ ",
"@ = R i.2.=.=.=.=.=.=.=.=.=.=.=.=.=.=.=.=.=.=.=.=.=.=.=.=.=.=.=.=.=.=.=.=.=.=.=.=.=.=.=.=.=.=.=.=.=.=.=.=.=.=.;.7.( N , 1 h U ` ` _ _ X.+.2.i.R = @ ",
"@ = R i.2.=.=.=.=.=.=.=.=.=.=.=.=.=.=.=.=.=.=.=.=.=.=.=.=.=.=.=.=.=.=.=.=.=.=.=.=.=.=.=.=.=.=.=.=.=.=.=.=.=.=.;.7.( m > 1 i h N N m c Z  .i.i.R = @ ",
"@ ; E a.2.=.=.=.=.=.=.=.=.=.=.=.=.=.=.=.=.=.=.=.=.=.=.=.=.=.=.=.=.=.=.=.=.=.=.=.=.=.=.=.=.=.=.=.=.=.=.=.=.=.=.;.;. .D m m N m c m l l Z [ i.h.E ; @ ",
"@ ; E g.2.=.=.=.=.=.=.=.=.=.=.=.=.=.=.=.=.=.=.=.=.=.=.=.=.=.=.=.=.=.=.=.=.=.=.=.=.=.=.=.=.=.=.=.=.=.=.=.=.=.=.;.;.+. .( ( ( ^ ^ ^ ^ Q ] +.i.h.W ; @ ",
"@ * K { O.3.2.2.2.2.2.2.2.2.2.2.2.2.2.2.2.2.2.2.2.2.2.2.2.2.2.2.2.2.2.2.2.2.2.2.2.2.2.2.2.2.2.2.2.2.2.2.2.2.2.2.2.i.i.s.i.i.i.s.s.s.s.s.i.O.{ K * @ ",
"# % & J { g.a.i.i.i.i.i.i.i.i.i.i.i.i.i.i.i.i.i.i.i.i.i.i.i.i.i.i.i.i.i.i.i.i.i.i.i.i.i.i.i.i.i.i.i.i.i.i.i.i.i.i.i.i.s.i.s.s.s.s.s.s.h.h.{ J & % # ",
"$ @ . & K W E R R R R R R R R R R R R R R R R R R R R R R R R R R R R R R R R R R R R R R R R R R R R R R R R R R R R R R R R R R R R E W K & . @ $ ",
"    @ % * ; ; = = = = = = = = = = = = = = = = = = = = = = = = = = = = = = = = = = = = = = = = = = = = = = = = = = = = = = = = = ; = = ; ; * % @     ",
"    $ # @ @ @ @ @ @ @ @ @ @ @ @ @ @ @ @ @ @ @ @ @ @ @ @ @ @ @ @ @ @ @ @ @ @ @ @ @ @ @ @ @ @ @ @ @ @ @ @ @ @ @ @ @ @ @ @ @ @ @ @ @ @ @ @ @ @ # $     "
};
