/* XPM */
static char *spades_6[] = {
/* columns rows colors chars-per-pixel */
"74 104 146 2 ",
"   c None",
".  c #1B0029",
"X  c #1C002A",
"o  c #1D002A",
"O  c #1E002B",
"+  c #1E002C",
"@  c #1F002C",
"#  c #20002D",
"$  c #20012D",
"%  c #21012D",
"&  c #21012E",
"*  c #21022E",
"=  c #22022F",
"-  c #22032F",
";  c #23032F",
":  c #230430",
">  c #240430",
",  c #250531",
"<  c #250631",
"1  c #250632",
"2  c #260632",
"3  c #260732",
"4  c #270833",
"5  c #2A0B36",
"6  c #2B0D37",
"7  c #2D0F38",
"8  c #2E1039",
"9  c #2F113A",
"0  c #30133B",
"q  c #33153D",
"w  c #452A4C",
"e  c #462B4D",
"r  c #462B4E",
"t  c #462C4E",
"y  c #472D4F",
"u  c #482D4F",
"i  c #482E4F",
"p  c #482E50",
"a  c #4A3051",
"s  c #4B3152",
"d  c #4C3152",
"f  c #4D3454",
"g  c #4F3555",
"h  c #503756",
"j  c #523857",
"k  c #523858",
"l  c #533A58",
"z  c #533A59",
"x  c #543B59",
"c  c #543B5A",
"v  c #553C5A",
"b  c #553D5B",
"n  c #563D5B",
"m  c #563E5B",
"M  c #573E5C",
"N  c #573F5C",
"B  c #583F5D",
"V  c #58405D",
"C  c #59405D",
"Z  c #59415E",
"A  c #5A425F",
"S  c #7B677B",
"D  c #7B687B",
"F  c #7C697C",
"G  c #7D6A7D",
"H  c #7F6C7E",
"J  c #7F6C7F",
"K  c #806C7F",
"L  c #806D7F",
"P  c #816E80",
"I  c #816F80",
"U  c #998A95",
"Y  c #9B8B96",
"T  c #9B8C96",
"R  c #9C8C97",
"E  c #9C8D97",
"W  c #9F9099",
"Q  c #A0919A",
"!  c #C0B5B6",
"~  c #C0B6B6",
"^  c #C1B6B6",
"/  c #C1B7B7",
"(  c #C2B8B7",
")  c #C2B8B8",
"_  c #C3B9B8",
"`  c #C3B9B9",
"'  c #C3BAB9",
"]  c #C4BAB9",
"[  c #C5BBBA",
"{  c #C5BCBA",
"}  c #C6BCBB",
"|  c #C6BDBB",
" . c #C7BEBC",
".. c #C8BFBD",
"X. c #CAC1BE",
"o. c #CBC2BF",
"O. c #CCC3C0",
"+. c #CEC5C2",
"@. c #CFC7C3",
"#. c #D0C7C3",
"$. c #D0C8C3",
"%. c #D0C8C4",
"&. c #D1C9C4",
"*. c #D1CAC5",
"=. c #D2CAC5",
"-. c #D3CBC6",
";. c #D4CCC7",
":. c #D4CDC7",
">. c #D5CDC7",
",. c #D5CDC8",
"<. c #D6CFC9",
"1. c #D7CFC9",
"2. c #E9E4D9",
"3. c #EAE5DA",
"4. c #EAE6DA",
"5. c #EBE7DB",
"6. c #ECE7DB",
"7. c #ECE8DC",
"8. c #EFEADE",
"9. c #EFEBDE",
"0. c #F0ECDF",
"q. c #F0EDDF",
"w. c #F1EDDF",
"e. c #F6F3E4",
"r. c #F7F4E5",
"t. c #F8F5E5",
"y. c #F8F5E6",
"u. c #F8F6E6",
"i. c #F9F6E7",
"p. c #F9F7E7",
"a. c #FAF7E7",
"s. c #FAF8E8",
"d. c #FBF8E8",
"f. c #FBF9E8",
"g. c #FBF9E9",
"h. c #FCF9E9",
"j. c #FCFAE9",
"k. c #FCFAEA",
"l. c #FDFAEA",
"z. c #FDFBEA",
"x. c #FEFCEA",
"c. c #FEFCEB",
"v. c #FEFDEB",
"b. c #FFFDEB",
"n. c #FFFEEC",
"m. c #FFFFED",
/* pixels */
"    4 1 ; ; ; ; ; ; ; ; ; ; ; ; ; ; ; ; ; ; ; ; ; ; ; ; ; ; ; ; ; ; ; ; ; ; ; ; ; ; ; ; ; ; ; ; ; ; ; ; ; ; ; ; ; ; ; ; ; ; ; ; ; ; ; ; ; ; 1 4     ",
"    ; 0 s Z Z B B B B N B B B B B B B B N B B N B B B B B B B B B B B N B B B B B B B B B B B N B B B B B B B B B B B N B B B B B B B Z Z s 0 ;     ",
"4 ; @ p Y } ] ( ( / / / / / ( / ( ( ( ( / / / / / / / / ( ( ( ( / / / / / / / / ( ( ( ( / / / / / / / / ( ( ( ( / / / / / / / / ( ( ( ] } Y i @ ; 4 ",
"1 0 p P :.n.n.c.c.c.c.c.z.c.c.z.z.g.g.g.g.g.g.g.g.g.g.g.g.g.g.g.g.g.g.g.g.g.g.g.g.g.g.g.g.g.g.g.g.g.g.g.g.g.g.g.g.g.g.g.g.g.g.g.g.g.g.z.c.:.P i 0 1 ",
"; s Y :.8.g.z.c.c.c.c.c.c.c.c.z.g.a.a.a.a.a.a.a.a.a.a.a.a.a.a.a.a.a.a.a.a.a.a.a.a.a.a.a.a.a.a.a.a.a.a.a.a.a.a.a.a.a.a.a.a.a.a.a.a.a.a.a.g.8.:.Y s ; ",
"; Z } n.g.2.$._ _ _ ( / / / / +.2.r.r.e.e.e.e.e.e.e.e.e.e.e.e.e.e.e.e.e.e.e.e.e.e.e.e.e.e.e.e.e.e.e.e.e.e.e.e.e.e.e.e.e.e.e.e.e.e.e.e.e.e.g.c.} Z ; ",
"; Z ] n.z.$.H b N B b x x j h D +.a.a.e.e.e.e.e.e.e.e.e.e.e.e.e.e.e.e.e.e.e.e.e.e.e.e.e.e.e.e.e.e.e.e.e.e.e.e.e.e.e.e.e.e.e.e.e.e.e.e.e.e.a.z.] Z ; ",
"; B ( c.c._ b X X 9 s Z B b z G #.a.a.e.e.e.e.e.e.e.e.e.e.e.e.e.e.e.e.e.e.e.e.e.e.e.e.e.e.e.e.e.e.e.e.e.e.e.e.e.e.e.e.e.e.e.e.e.e.e.e.e.e.a.g.( B ; ",
"; B ( c.c._ N X X s W X...] ] *.2.r.r.e.e.e.e.e.e.e.e.e.e.e.e.e.e.e.e.e.e.e.e.e.e.e.e.e.e.e.e.e.e.e.e.e.e.e.e.e.e.e.e.e.e.e.e.e.e.e.e.e.e.a.g.( N ; ",
"; B ( c.c.] Z ; ; f Q X...}  .:.2.r.r.e.e.e.e.r.a.a.r.e.e.e.e.e.e.e.e.e.e.e.e.e.e.e.e.e.e.e.e.r.a.a.r.e.e.e.e.e.e.e.e.e.e.e.e.e.e.e.e.e.e.a.g.( N ; ",
"; B / c.c.] Z ; ; q d Z B b N P *.a.a.e.e.e.e.r.a.a.r.e.e.e.e.e.e.e.e.e.e.e.e.e.e.e.e.e.e.e.e.r.a.a.r.e.e.e.e.e.e.e.e.e.e.e.e.e.e.e.e.e.e.a.g.( N ; ",
"; B / c.c.] Z ; ; q d Z Z y 5 x ( g.a.e.e.a.a.6.+.#.6.a.a.e.e.e.e.e.e.e.e.e.e.e.e.e.e.e.e.r.a.2.+.#.6.a.a.e.e.e.e.e.e.e.e.e.e.e.e.e.e.e.e.a.g.( N ; ",
"; B / c.c.] Z ; ; f Q O.O.E r z / g.a.e.e.a.z.*.G G *.z.a.e.e.e.e.e.e.e.e.e.e.e.e.e.e.e.e.a.z.*.G G *.z.a.e.e.e.e.e.e.e.e.e.e.e.e.e.e.e.e.a.g./ N ; ",
"; B / c.c._ N X X s W O.O.E r z / g.a.r.a.8.:.Y r r Y :.8.a.r.e.e.e.e.e.e.e.e.e.e.e.e.r.a.8.:.Y r r Y :.8.a.r.e.e.e.e.e.e.e.e.e.e.e.e.e.e.a.g./ N ; ",
"; B / c.c._ b X X 9 s Z Z y 5 x _ g.a.a.z.:.P y 7 7 y P :.z.a.e.e.e.e.e.e.e.e.e.e.e.e.a.z.1.P i 7 7 y P :.z.a.e.e.e.e.e.e.e.e.e.e.e.e.e.e.a.g./ N ; ",
"; N / z.z.*.H b N Z B b b z x H *.g.z.8.:.E i @ : : @ i E :.8.a.r.e.e.e.e.e.e.e.e.a.a.8.:.E i ; : : @ i E :.8.a.a.e.e.e.e.e.e.e.e.e.e.e.e.a.g./ N ; ",
"; B / g.a.2.$._ _ ] } ] _ / _ *.2.g.c.:.P i 9 : 1 1 : 9 i P :.z.a.e.e.e.e.e.e.e.e.a.z.:.P i 9 : 1 1 : 9 i P :.z.a.e.e.e.e.e.e.e.e.e.e.e.e.a.g.( B ; ",
"; B / g.a.r.a.z.c.q.:.:.q.c.z.g.a.8.:.T i @ : 4 4 4 4 : ; p E :.8.r.r.e.e.e.e.r.r.8.:.E i @ : 4 4 4 4 : @ i E :.8.r.r.e.e.e.e.e.e.e.e.e.e.a.g.( B ; ",
"; B ( g.a.r.a.z.n.:.H H :.n.z.g.g.*.L i 9 : 1 4 4 4 4 1 : 9 p L *.a.a.e.e.e.e.a.a.*.L p 9 : 1 4 4 4 4 1 : 9 i L *.a.a.e.e.e.e.e.e.e.e.e.e.a.g.( B ; ",
"; B / g.a.r.a.8.:.Y r r Y 1.8.z.z.( z X ; 4 4 4 4 4 4 4 4 ; X z ( g.a.e.e.e.e.a.g.( z X ; 4 4 4 4 4 4 4 4 ; X z _ g.a.e.e.e.e.e.e.e.e.e.e.a.g.( B ; ",
"; B ( g.a.a.z.:.P y 7 7 i P 1.n.c._ z X ; 4 4 4 4 4 4 4 4 ; X z ( g.a.e.e.e.e.a.g.( z X ; 4 4 4 4 4 4 4 4 ; X z _ g.a.e.e.e.e.e.e.e.e.e.e.a.g.( B ; ",
"; B ( z.g.8.:.E i @ 1 1 ; p E 1.q.*.P p 9 ; : 1 1 1 1 : ; 9 i L *.a.a.e.e.e.e.a.a.*.L i 9 ; : 1 1 1 1 : ; 9 p L *.a.a.e.e.e.e.e.e.e.e.e.e.a.g.( B ; ",
"; B / z.z.*.L i 9 : 1 1 : 9 p P *.q.1.E i X ; : 1 1 : ; X i E :.8.r.r.e.e.e.e.r.r.8.:.E p @ ; : 1 1 : ; @ p E :.8.r.r.e.e.e.e.e.e.e.e.e.e.a.g.( B ; ",
"; B / c.c.( z . @ 1 1 1 1 @ . z ( c.n.:.L N Z f q q f Z N L :.z.a.e.e.e.e.e.e.e.e.a.z.:.L N Z f q q f Z N L :.z.a.e.e.e.e.e.e.e.e.e.e.e.e.a.g.( B ; ",
"; B / c.c._ z . X : 1 1 1 X . z _ z.z.8.*.} X.Q s s Q X.} *.8.a.r.e.e.e.e.e.e.e.e.r.a.8.*.} X.W s s W X.} *.8.a.r.e.e.e.e.e.e.e.e.e.e.e.e.a.g.( N ; ",
"; B / z.z.*.H N Z f q q f Z N H *.a.a.a.g.q.1.T y y T 1.q.g.a.e.e.e.e.e.e.e.e.e.e.e.e.a.g.q.1.T y y T 1.q.g.a.e.e.e.e.e.e.e.e.e.e.e.e.e.e.a.g.( N ; ",
"; B / g.g.2.$.} X.Q s s Q X.} *.2.r.r.a.z.*.H r 6 6 r H *.z.a.e.e.e.e.e.e.e.e.e.e.e.e.a.z.*.H r 6 6 r H *.z.a.e.e.e.e.e.e.e.e.e.e.e.e.e.e.a.g.( N ; ",
"; N / g.a.a.g.q.1.T y y T 1.q.g.a.e.e.a.a.+.S j b b j S +.a.a.e.e.e.e.e.e.e.e.e.e.e.e.a.a.+.S j b b j S +.a.a.e.e.e.e.e.e.e.e.e.e.e.e.e.e.a.g.( N ; ",
"; B / g.a.a.z.*.L r 6 6 r H *.z.a.e.e.r.r.2.+./ _ _ / +.2.r.r.e.e.e.e.e.e.e.e.e.e.e.e.r.r.2.+./ _ _ / +.2.r.r.e.e.e.e.e.e.e.e.e.e.e.e.e.e.a.g./ N ; ",
"; B / g.a.a.a.+.S j b b j S +.a.a.e.e.e.e.r.a.g.g.g.g.a.r.e.e.e.e.e.e.e.e.e.e.e.e.e.e.e.e.r.a.g.g.g.g.a.r.e.e.e.e.e.e.e.e.e.e.e.e.e.e.e.e.a.g./ N ; ",
"; B / g.a.r.r.2.+./ _ _ / +.2.r.e.e.e.e.e.r.a.a.a.a.a.a.r.e.e.e.e.e.e.e.e.e.e.e.e.e.e.e.e.r.a.a.a.a.a.a.r.e.e.e.e.e.e.e.e.e.e.e.e.e.e.e.e.a.g./ N ; ",
"; B / g.a.e.e.r.a.g.g.g.g.a.r.e.e.e.e.e.e.e.e.e.e.e.e.e.e.e.e.e.e.e.e.e.e.e.e.e.e.e.e.e.e.e.e.e.e.e.e.e.e.e.e.e.e.e.e.e.e.e.e.e.e.e.e.e.e.a.g./ N ; ",
"; B ( g.a.e.e.r.a.a.a.a.a.a.r.e.e.e.e.e.e.e.e.e.e.e.e.e.e.e.e.e.e.e.e.e.e.e.e.e.e.e.e.e.e.e.e.e.e.e.e.e.e.e.e.e.e.e.e.e.e.e.e.e.e.e.e.e.e.a.g.( B ; ",
"; B ( g.a.e.e.e.e.e.e.e.e.e.e.e.e.e.e.e.e.e.e.e.e.e.e.e.e.e.e.e.e.e.e.e.e.e.e.e.e.e.e.e.e.e.e.e.e.e.e.e.e.e.e.e.e.e.e.e.e.e.e.e.e.e.e.e.e.a.g.( B ; ",
"; B ( g.a.e.e.e.e.e.e.e.e.e.e.e.e.e.e.e.e.e.e.e.e.e.e.e.e.e.e.e.e.e.e.e.e.e.e.e.e.e.e.e.e.e.e.e.e.e.e.e.e.e.e.e.e.e.e.e.e.e.e.e.e.e.e.e.e.a.g.( B ; ",
"; B ( g.a.e.e.e.e.e.e.e.e.e.e.e.e.e.e.e.e.e.e.e.e.e.e.e.e.e.e.e.e.e.e.e.e.e.e.e.e.e.e.e.e.e.e.e.e.e.e.e.e.e.e.e.e.e.e.e.e.e.e.e.e.e.e.e.e.a.g.( B ; ",
"; B / g.a.e.e.e.e.e.e.e.e.e.e.e.e.e.e.e.e.e.e.e.e.e.e.e.e.e.e.e.e.e.e.e.e.e.e.e.e.e.e.e.e.e.e.e.e.e.e.e.e.e.e.e.e.e.e.e.e.e.e.e.e.e.e.e.e.a.g.( B ; ",
"; B / g.a.e.e.e.e.e.e.e.e.e.e.e.e.e.e.e.e.e.e.e.e.e.e.e.e.e.e.e.e.e.e.e.e.e.e.e.e.e.e.e.e.e.e.e.e.e.e.e.e.e.e.e.e.e.e.e.e.e.e.e.e.e.e.e.e.a.g.( B ; ",
"; B / g.a.e.e.e.e.e.e.e.e.e.e.e.e.e.e.e.e.e.e.e.e.e.e.e.e.e.e.e.e.e.e.e.e.e.e.e.e.e.e.e.e.e.e.e.e.e.e.e.e.e.e.e.e.e.e.e.e.e.e.e.e.e.e.e.e.a.g.( B ; ",
"; N / g.a.e.e.e.e.e.e.e.e.e.e.e.e.e.e.e.e.e.e.e.e.e.e.e.e.e.e.e.e.e.e.e.e.e.e.e.e.e.e.e.e.e.e.e.e.e.e.e.e.e.e.e.e.e.e.e.e.e.e.e.e.e.e.e.e.a.g.( B ; ",
"; B / g.a.e.e.e.e.e.e.e.e.e.e.e.e.e.e.e.e.e.e.e.e.e.e.e.e.e.e.e.e.e.e.e.e.e.e.e.e.e.e.e.e.e.e.e.e.e.e.e.e.e.e.e.e.e.e.e.e.e.e.e.e.e.e.e.e.a.g.( N ; ",
"; B / g.a.e.e.e.e.e.e.e.e.e.e.e.e.e.e.e.e.e.e.r.a.a.r.e.e.e.e.e.e.e.e.e.e.e.e.e.e.e.e.e.e.e.e.r.a.a.r.e.e.e.e.e.e.e.e.e.e.e.e.e.e.e.e.e.e.a.g.( N ; ",
"; B / g.a.e.e.e.e.e.e.e.e.e.e.e.e.e.e.e.e.e.e.r.a.a.r.e.e.e.e.e.e.e.e.e.e.e.e.e.e.e.e.e.e.e.e.r.a.a.r.e.e.e.e.e.e.e.e.e.e.e.e.e.e.e.e.e.e.a.g.( N ; ",
"; B / g.a.e.e.e.e.e.e.e.e.e.e.e.e.e.e.e.e.a.a.6.+.+.2.a.a.e.e.e.e.e.e.e.e.e.e.e.e.e.e.e.e.r.a.2.+.#.6.a.a.e.e.e.e.e.e.e.e.e.e.e.e.e.e.e.e.a.g.( N ; ",
"; B ( g.a.e.e.e.e.e.e.e.e.e.e.e.e.e.e.e.e.a.z.*.G G *.z.a.e.e.e.e.e.e.e.e.e.e.e.e.e.e.e.e.a.z.*.G G *.z.a.e.e.e.e.e.e.e.e.e.e.e.e.e.e.e.e.a.g./ N ; ",
"; B ( g.a.e.e.e.e.e.e.e.e.e.e.e.e.e.e.r.a.8.:.Y r r Y :.8.a.r.e.e.e.e.e.e.e.e.e.e.e.e.r.a.8.:.Y r r Y :.8.a.r.e.e.e.e.e.e.e.e.e.e.e.e.e.e.a.g./ N ; ",
"; B ( g.a.e.e.e.e.e.e.e.e.e.e.e.e.e.e.a.z.:.P i 7 7 i P :.z.a.e.e.e.e.e.e.e.e.e.e.e.e.a.z.1.P i 7 7 y P :.z.a.e.e.e.e.e.e.e.e.e.e.e.e.e.e.a.g./ N ; ",
"; B ( g.a.e.e.e.e.e.e.e.e.e.e.e.e.a.a.8.:.E i @ 1 1 ; i E :.8.a.a.e.e.e.e.e.e.e.e.a.a.8.:.E i ; : : @ i E :.8.a.a.e.e.e.e.e.e.e.e.e.e.e.e.a.g./ N ; ",
"; B / g.a.e.e.e.e.e.e.e.e.e.e.e.e.a.z.:.P i 9 : 1 1 : 9 i P :.z.a.e.e.e.e.e.e.e.e.a.z.:.P i 9 : 1 1 : 9 i P :.z.a.e.e.e.e.e.e.e.e.e.e.e.e.a.g.( B ; ",
"; B / g.a.e.e.e.e.e.e.e.e.e.e.r.r.8.:.E i @ : 4 4 4 4 : @ i E :.8.r.r.e.e.e.e.r.r.8.:.E i @ : 4 4 4 4 : @ i E :.8.r.r.e.e.e.e.e.e.e.e.e.e.a.g.( B ; ",
"; B / g.a.e.e.e.e.e.e.e.e.e.e.a.a.*.L i 9 : 1 4 4 4 4 1 : 9 i L *.a.a.e.e.e.e.a.a.*.L p 9 : 1 4 4 4 4 1 : 9 i L *.a.a.e.e.e.e.e.e.e.e.e.e.a.g.( B ; ",
"; N / g.a.e.e.e.e.e.e.e.e.e.e.a.g.( z X ; 4 4 4 4 4 4 4 4 ; X z ( g.a.e.e.e.e.a.g.( z X ; 4 4 4 4 4 4 4 4 ; X z _ g.a.e.e.e.e.e.e.e.e.e.e.a.g.( B ; ",
"; B / g.a.e.e.e.e.e.e.e.e.e.e.a.g.( z X ; 4 4 4 4 4 4 4 4 ; X z ( g.a.e.e.e.e.a.g.( z X ; 4 4 4 4 4 4 4 4 ; X z _ g.a.e.e.e.e.e.e.e.e.e.e.a.g.( B ; ",
"; B / g.a.e.e.e.e.e.e.e.e.e.e.a.a.*.L p 9 ; : 1 1 1 1 : ; 9 p L *.a.a.e.e.e.e.a.a.*.L i 9 ; : 1 1 1 1 : ; 9 p L *.a.a.e.e.e.e.e.e.e.e.e.e.a.g.( B ; ",
"; B / g.a.e.e.e.e.e.e.e.e.e.e.r.r.8.:.E p @ ; : 1 1 : ; @ p E :.8.r.r.e.e.e.e.r.r.8.:.E p @ ; : 1 1 : ; @ p E :.8.r.r.e.e.e.e.e.e.e.e.e.e.a.g.( B ; ",
"; B / g.a.e.e.e.e.e.e.e.e.e.e.e.e.a.z.:.L N Z f q q f Z N L :.z.a.e.e.e.e.e.e.e.e.a.z.:.L N Z f q q f Z N L :.z.a.e.e.e.e.e.e.e.e.e.e.e.e.a.g.( B ; ",
"; B ( g.a.e.e.e.e.e.e.e.e.e.e.e.e.r.a.8.*.} X.W s s W X.} *.8.a.r.e.e.e.e.e.e.e.e.r.a.8.*.} X.W s s W X.} *.8.a.r.e.e.e.e.e.e.e.e.e.e.e.e.a.g.( B ; ",
"; B ( g.a.e.e.e.e.e.e.e.e.e.e.e.e.e.e.a.g.q.1.T y y T 1.q.g.a.e.e.e.e.e.e.e.e.e.e.e.e.a.g.q.1.T y y T 1.q.g.a.e.e.e.e.e.e.e.e.e.e.e.e.e.e.a.g.( B ; ",
"; B ( g.a.e.e.e.e.e.e.e.e.e.e.e.e.e.e.a.z.*.H r 6 6 r H *.z.a.e.e.e.e.e.e.e.e.e.e.e.e.a.z.*.H r 6 6 r H *.z.a.e.e.e.e.e.e.e.e.e.e.e.e.e.e.a.g.( B ; ",
"; B ( g.a.e.e.e.e.e.e.e.e.e.e.e.e.e.e.a.a.+.S j b b j S +.a.a.e.e.e.e.e.e.e.e.e.e.e.e.a.a.+.S j b b j S +.a.a.e.e.e.e.e.e.e.e.e.e.e.e.e.e.a.g.( B ; ",
"; B / g.a.e.e.e.e.e.e.e.e.e.e.e.e.e.e.r.r.2.+./ _ _ / +.2.r.r.e.e.e.e.e.e.e.e.e.e.e.e.r.r.2.+./ _ _ / +.2.r.r.e.e.e.e.e.e.e.e.e.e.e.e.e.e.a.g./ B ; ",
"; B / g.a.e.e.e.e.e.e.e.e.e.e.e.e.e.e.e.e.r.a.g.g.g.g.a.r.e.e.e.e.e.e.e.e.e.e.e.e.e.e.e.e.r.a.g.g.g.g.a.r.e.e.e.e.e.e.e.e.e.e.e.e.e.e.e.e.a.g./ B ; ",
"; B / g.a.e.e.e.e.e.e.e.e.e.e.e.e.e.e.e.e.r.a.a.a.a.a.a.r.e.e.e.e.e.e.e.e.e.e.e.e.e.e.e.e.r.a.a.a.a.a.a.r.e.e.e.e.e.e.e.e.e.e.e.e.e.e.e.e.a.g./ N ; ",
"; N / g.a.e.e.e.e.e.e.e.e.e.e.e.e.e.e.e.e.e.e.e.e.e.e.e.e.e.e.e.e.e.e.e.e.e.e.e.e.e.e.e.e.e.e.e.e.e.e.e.e.e.e.e.e.e.e.e.e.e.e.e.e.e.e.e.e.a.g./ N ; ",
"; B / g.a.e.e.e.e.e.e.e.e.e.e.e.e.e.e.e.e.e.e.e.e.e.e.e.e.e.e.e.e.e.e.e.e.e.e.e.e.e.e.e.e.e.e.e.e.e.e.e.e.e.e.e.e.e.e.e.e.e.e.e.e.e.e.e.e.a.g.( N ; ",
"; B / g.a.e.e.e.e.e.e.e.e.e.e.e.e.e.e.e.e.e.e.e.e.e.e.e.e.e.e.e.e.e.e.e.e.e.e.e.e.e.e.e.e.e.e.e.e.e.e.e.e.e.e.e.e.e.e.e.e.e.e.e.e.e.e.e.e.a.g.( N ; ",
"; B / g.a.e.e.e.e.e.e.e.e.e.e.e.e.e.e.e.e.e.e.e.e.e.e.e.e.e.e.e.e.e.e.e.e.e.e.e.e.e.e.e.e.e.e.e.e.e.e.e.e.e.e.e.e.e.e.e.e.e.e.e.e.e.e.e.e.a.g.( N ; ",
"; B / g.a.e.e.e.e.e.e.e.e.e.e.e.e.e.e.e.e.e.e.e.e.e.e.e.e.e.e.e.e.e.e.e.e.e.e.e.e.e.e.e.e.e.e.e.e.e.e.e.e.e.e.e.e.e.e.e.e.e.e.e.e.e.e.e.e.a.g.( N ; ",
"; B ( g.a.e.e.e.e.e.e.e.e.e.e.e.e.e.e.e.e.e.e.e.e.e.e.e.e.e.e.e.e.e.e.e.e.e.e.e.e.e.e.e.e.e.e.e.e.e.e.e.e.e.e.e.e.e.e.e.e.e.e.e.e.e.e.e.e.a.g.( N ; ",
"; B ( g.a.e.e.e.e.e.e.e.e.e.e.e.e.e.e.e.e.e.e.e.e.e.e.e.e.e.e.e.e.e.e.e.e.e.e.e.e.e.e.e.e.e.e.e.e.e.e.e.e.e.e.e.e.e.e.e.e.e.e.e.e.e.e.e.e.a.g.( N ; ",
"; B ( g.a.e.e.e.e.e.e.e.e.e.e.e.e.e.e.e.e.e.e.e.e.e.e.e.e.e.e.e.e.e.e.e.e.e.e.e.e.e.e.e.e.e.e.e.e.e.e.e.e.e.e.e.e.e.e.e.e.e.e.e.e.e.e.e.e.a.g.( N ; ",
"; B ( g.a.e.e.e.e.e.e.e.e.e.e.e.e.e.e.e.e.e.e.e.e.e.e.e.e.e.e.e.e.e.e.e.e.e.e.e.e.e.e.e.e.e.e.e.e.e.e.e.e.e.e.e.e.e.e.r.a.a.a.a.a.a.r.e.e.a.g.( N ; ",
"; B / g.a.e.e.e.e.e.e.e.e.e.e.e.e.e.e.e.e.e.e.e.e.e.e.e.e.e.e.e.e.e.e.e.e.e.e.e.e.e.e.e.e.e.e.e.e.e.e.e.e.e.e.e.e.e.e.r.a.g.g.g.g.a.r.e.e.a.g.( B ; ",
"; B / g.a.e.e.e.e.e.e.e.e.e.e.e.e.e.e.e.e.r.a.a.a.a.a.a.r.e.e.e.e.e.e.e.e.e.e.e.e.e.e.e.e.r.a.a.a.a.a.a.r.e.e.e.e.r.r.2.+./ _ _ / +.2.r.r.a.g.( B ; ",
"; B / g.a.e.e.e.e.e.e.e.e.e.e.e.e.e.e.e.e.r.a.g.g.g.g.a.r.e.e.e.e.e.e.e.e.e.e.e.e.e.e.e.e.r.a.g.g.g.g.a.r.e.e.e.e.a.a.+.S j b b j S +.a.a.a.g./ B ; ",
"; N / g.a.e.e.e.e.e.e.e.e.e.e.e.e.e.e.r.r.2.+./ _ _ / +.2.r.r.e.e.e.e.e.e.e.e.e.e.e.e.r.r.2.+./ _ _ / +.2.r.r.e.e.a.z.*.L r 6 6 r H *.z.a.a.g./ B ; ",
"; B / g.a.e.e.e.e.e.e.e.e.e.e.e.e.e.e.a.a.+.S j b b j S +.a.a.e.e.e.e.e.e.e.e.e.e.e.e.a.a.+.S z b b j S +.a.a.e.e.a.g.q.1.T y y T 1.q.g.a.a.g./ B ; ",
"; B / g.a.e.e.e.e.e.e.e.e.e.e.e.e.e.e.a.z.*.H r 6 6 r H *.z.a.e.e.e.e.e.e.e.e.e.e.e.e.a.z.*.H r 6 6 r H *.z.a.r.r.2.$.} X.Q s s Q X.} *.2.g.z.( B ; ",
"; B / g.a.e.e.e.e.e.e.e.e.e.e.e.e.e.e.a.g.q.1.T y y T 1.q.g.a.e.e.e.e.e.e.e.e.e.e.e.e.a.g.q.1.T y y T 1.q.g.a.a.a.*.H N Z f q q f Z N H *.z.z.( B ; ",
"; B / g.a.e.e.e.e.e.e.e.e.e.e.e.e.r.a.8.*.} X.Q s s W X.} *.8.a.r.e.e.e.e.e.e.e.e.r.a.8.*.} X.W s s W X.} *.8.z.z._ z . X : 1 1 1 X . z _ c.c.( B ; ",
"; B ( g.a.e.e.e.e.e.e.e.e.e.e.e.e.a.z.:.L N Z f q q f Z N L :.z.a.e.e.e.e.e.e.e.e.a.z.:.L N Z f q q f Z N L :.n.c.( z . @ 1 1 1 1 @ . z ( c.c.( N ; ",
"; B ( g.a.e.e.e.e.e.e.e.e.e.e.r.r.8.:.E p X ; : 1 1 : ; @ p E :.8.r.r.e.e.e.e.r.r.8.:.E p X ; : 1 1 : ; X p E 1.q.*.P p 9 : 1 1 : 9 i L *.z.z.( N ; ",
"; B ( g.a.e.e.e.e.e.e.e.e.e.e.a.a.*.L i 9 ; : 1 1 1 1 : ; 9 p L *.a.a.e.e.e.e.a.a.*.L i 9 ; : 1 1 1 1 : ; 9 p P *.q.1.E i ; 1 : @ i E :.8.g.g.( N ; ",
"; B ( g.a.e.e.e.e.e.e.e.e.e.e.a.g._ z X ; 4 4 4 4 4 4 4 4 ; X z ( g.a.e.e.e.e.a.g.( z X ; 4 4 4 4 4 4 4 4 ; X z ( c.n.:.P y 7 7 i P :.z.a.a.g.( N ; ",
"; B / g.a.e.e.e.e.e.e.e.e.e.e.a.g.( z X ; 4 4 4 4 4 4 4 4 ; X z _ g.a.e.e.e.e.a.g.( z X ; 4 4 4 4 4 4 4 4 ; X z _ z.z.8.1.Y r r Y :.8.a.r.a.g.( N ; ",
"; B / g.a.e.e.e.e.e.e.e.e.e.e.a.a.*.L i 9 : 1 4 4 4 4 1 : 9 p L *.a.a.e.e.e.e.a.a.*.L i 9 : 1 4 4 4 4 1 : 9 i L *.g.g.z.n.:.H H :.n.z.a.e.a.g.( N ; ",
"; B / g.a.e.e.e.e.e.e.e.e.e.e.r.r.8.:.E i @ : 4 4 4 4 : @ i E :.8.r.r.e.e.e.e.r.r.8.:.E i @ : 4 4 4 4 : @ i T :.8.a.g.z.c.q.:.:.q.c.z.a.r.a.g./ N ; ",
"; N / g.a.e.e.e.e.e.e.e.e.e.e.e.e.a.z.:.P i 9 : 1 1 : 9 i P :.z.a.e.e.e.e.e.e.e.e.a.z.:.P i 9 : 1 1 1 9 i P :.c.g.2.*._ / _ ] } ] _ _ $.2.a.g./ N ; ",
"; B / g.a.e.e.e.e.e.e.e.e.e.e.e.e.a.a.8.:.E i ; : 1 @ i T :.8.a.a.e.e.e.e.e.e.e.e.r.a.8.:.E i ; 1 1 @ i T :.8.z.g.*.H x z b b B Z N b H *.z.z./ N ; ",
"; B / g.a.e.e.e.e.e.e.e.e.e.e.e.e.e.e.a.z.:.P i 7 7 y P :.z.a.e.e.e.e.e.e.e.e.e.e.e.e.a.z.:.P i 7 7 y P :.z.a.a.g._ x 5 y Z Z s 9 X X b _ c.c./ N ; ",
"; B / g.a.e.e.e.e.e.e.e.e.e.e.e.e.e.e.r.a.8.:.Y r r Y :.8.a.r.e.e.e.e.e.e.e.e.e.e.e.e.r.a.8.1.Y r r Y :.8.a.r.a.g./ z r E O.O.W s X X N _ c.c./ N ; ",
"; B / g.a.e.e.e.e.e.e.e.e.e.e.e.e.e.e.e.e.a.z.*.G G *.z.a.e.e.e.e.e.e.e.e.e.e.e.e.e.e.e.e.a.z.*.G G *.z.a.e.e.a.g./ z r E O.O.W f ; ; Z ] c.c.( N ; ",
"; B ( g.a.e.e.e.e.e.e.e.e.e.e.e.e.e.e.e.e.r.a.6.#.#.6.a.a.e.e.e.e.e.e.e.e.e.e.e.e.e.e.e.e.r.a.6.#.#.2.a.r.e.e.a.g._ x 6 y Z Z s q ; ; Z ] c.c.( N ; ",
"; B ( g.a.e.e.e.e.e.e.e.e.e.e.e.e.e.e.e.e.e.e.r.a.a.r.e.e.e.e.e.e.e.e.e.e.e.e.e.e.e.e.e.e.e.e.r.a.a.r.e.e.e.e.a.a.*.P N b B Z s q ; ; Z ] c.c.( N ; ",
"; B ( g.a.e.e.e.e.e.e.e.e.e.e.e.e.e.e.e.e.e.e.r.a.a.r.e.e.e.e.e.e.e.e.e.e.e.e.e.e.e.e.e.e.e.e.r.a.a.r.e.e.e.e.r.r.2.:. .} ..X.W f ; ; Z ] c.c.( N ; ",
"; B ( g.a.e.e.e.e.e.e.e.e.e.e.e.e.e.e.e.e.e.e.e.e.e.e.e.e.e.e.e.e.e.e.e.e.e.e.e.e.e.e.e.e.e.e.e.e.e.e.e.e.e.e.r.r.2.*.] ] ..X.W s X X N _ c.c.( N ; ",
"; B / g.a.e.e.e.e.e.e.e.e.e.e.e.e.e.e.e.e.e.e.e.e.e.e.e.e.e.e.e.e.e.e.e.e.e.e.e.e.e.e.e.e.e.e.e.e.e.e.e.e.e.e.a.a.#.G z b Z Z s 9 X X b _ c.c.( B ; ",
"; Z ] z.a.e.e.e.e.e.e.e.e.e.e.e.e.e.e.e.e.e.e.e.e.e.e.e.e.e.e.e.e.e.e.e.e.e.e.e.e.e.e.e.e.e.e.e.e.e.e.e.e.e.e.a.a.+.S h j x x b B N b G *.z.n.] Z ; ",
"; Z } c.a.e.e.e.e.e.e.e.e.e.e.e.e.e.e.e.e.e.e.e.e.e.e.e.e.e.e.e.e.e.e.e.e.e.e.e.e.e.e.e.e.e.e.e.e.e.e.e.e.e.e.r.r.2.+./ / / / / _ _ _ $.2.g.n.} Z ; ",
"; s Y :.8.s.a.a.a.a.a.a.a.a.a.a.a.a.a.a.a.a.a.a.a.a.a.a.a.a.a.a.a.a.a.a.a.a.a.a.a.a.a.a.a.a.a.a.a.a.a.a.a.a.a.a.a.g.z.c.c.c.c.c.c.c.c.z.g.8.:.Y s ; ",
"1 0 i P :.c.z.g.g.g.g.g.g.g.g.g.g.g.g.g.g.g.g.g.g.g.g.g.g.g.g.g.g.g.g.g.g.g.g.g.g.g.g.g.g.g.g.g.g.g.g.g.g.g.g.g.g.z.z.c.c.c.c.c.c.c.c.n.n.:.P i 0 1 ",
"4 ; @ i Y } ] ( / / / / ( ( ( ( / / / / / / ( ( ( ( ( / / / / ( ( ( ( / / / / ( / / / / ( ( ( ( / / / / / / ( ( ( ( / / / / ( ( ( ( ( ] } Y i @ ; 4 ",
"    ; 0 s Z Z B N B B B B B B B B B B B N N B B B B B B N B B B B B B B N B B B N B B B B B B B B B B B N N B B B B B B N B B B B B B Z Z s 0 ;     ",
"    4 1 ; ; ; ; ; ; ; ; ; ; ; ; ; ; ; ; ; ; ; ; ; ; ; ; ; ; ; ; ; ; ; ; ; ; ; ; ; ; ; ; ; ; ; ; ; ; ; ; ; ; ; ; ; ; ; ; ; ; ; ; ; ; ; ; ; ; 1 4     "
};
