/* XPM */
static char *spades_j[] = {
/* columns rows colors chars-per-pixel */
"74 104 208 2 ",
"   c None",
".  c #1D002B",
"X  c #1B0433",
"o  c #21012E",
"O  c #2C022D",
"+  c #2D0B2C",
"@  c #250631",
"#  c #2B0C34",
"$  c #2C0F3A",
"%  c #2A0732",
"&  c #2E113B",
"*  c #2C1031",
"=  c #31133C",
"-  c #49052C",
";  c #47022A",
":  c #56042B",
">  c #59052B",
",  c #55092F",
"<  c #5A092E",
"1  c #520026",
"2  c #451E28",
"3  c #461E27",
"4  c #490830",
"5  c #56163A",
"6  c #55122E",
"7  c #770427",
"8  c #7B1E22",
"9  c #4D2225",
"0  c #48232B",
"q  c #512625",
"w  c #552A27",
"e  c #552C2B",
"r  c #53262A",
"t  c #542F32",
"y  c #762426",
"u  c #7B4928",
"i  c #452B4D",
"p  c #472C4E",
"a  c #462D51",
"s  c #482E50",
"d  c #463154",
"f  c #4B3253",
"g  c #4E3A59",
"h  c #533655",
"j  c #543C5A",
"k  c #583F5D",
"l  c #573853",
"z  c #55324F",
"x  c #6C2E4C",
"c  c #7F304B",
"v  c #763853",
"b  c #722F4D",
"n  c #553F60",
"m  c #54415F",
"M  c #59415E",
"N  c #4D405F",
"B  c #6A4B4B",
"V  c #7B5B59",
"C  c #7B5955",
"Z  c #7C4C51",
"A  c #554262",
"S  c #594461",
"D  c #6C5B74",
"F  c #7E6B7D",
"G  c #7B667B",
"H  c #830728",
"J  c #9E0827",
"K  c #A60925",
"L  c #A9132E",
"P  c #AC1731",
"I  c #812528",
"U  c #C9041E",
"Y  c #D9091E",
"T  c #FF0619",
"R  c #FF0A1D",
"E  c #F6091D",
"W  c #F7291E",
"Q  c #FD351D",
"!  c #C90620",
"~  c #CB0B23",
"^  c #C60D26",
"/  c #DB0A21",
"(  c #D50A22",
")  c #D81627",
"_  c #DB1C30",
"`  c #FF0E21",
"'  c #F60C21",
"]  c #FF1320",
"[  c #FF1929",
"{  c #E00E23",
"}  c #C62922",
"|  c #D5301D",
" . c #975D1D",
".. c #98601F",
"X. c #BA7614",
"o. c #BD7A19",
"O. c #BD7915",
"+. c #BF641E",
"@. c #9C6825",
"#. c #A36725",
"$. c #A65F1D",
"%. c #F9471C",
"&. c #D1631B",
"*. c #C17E19",
"=. c #CC7F16",
"-. c #CA621B",
";. c #F56A19",
":. c #C6384B",
">. c #C83749",
",. c #FF3944",
"<. c #F73643",
"1. c #82455D",
"2. c #806D7F",
"3. c #D84654",
"4. c #FF454F",
"5. c #FF4B54",
"6. c #FE4751",
"7. c #FF7578",
"8. c #F2676E",
"9. c #823650",
"0. c #BD852D",
"q. c #C38119",
"w. c #C88215",
"e. c #EC9C0C",
"r. c #F48416",
"t. c #FD8616",
"y. c #EE950E",
"u. c #EFA00E",
"i. c #F6A40B",
"p. c #F8A80F",
"a. c #EFA112",
"s. c #EFA61E",
"d. c #F3A412",
"f. c #F6A815",
"g. c #CA8E30",
"h. c #F2B137",
"j. c #EAAB38",
"k. c #BE8940",
"l. c #CA984C",
"z. c #CB9748",
"x. c #F2B644",
"c. c #F6BA46",
"v. c #F8BB46",
"b. c #F4C76D",
"n. c #F6C970",
"m. c #7B6D81",
"M. c #7D7082",
"N. c #816E80",
"B. c #827082",
"V. c #9A8B96",
"C. c #998C99",
"Z. c #978793",
"A. c #9D909B",
"S. c #A58C96",
"D. c #A39499",
"F. c #A59CA4",
"G. c #BFB9B9",
"H. c #C39499",
"J. c #C59297",
"K. c #D59295",
"L. c #D48E92",
"P. c #FF9694",
"I. c #C2AB92",
"U. c #CEB491",
"Y. c #C1B7B7",
"T. c #C2B8B7",
"R. c #C4BBBA",
"E. c #C9BEBC",
"W. c #D3B1B1",
"Q. c #EBBAB5",
"!. c #F1CE8A",
"~. c #CDC2BA",
"^. c #C9C1BC",
"/. c #D2C4BA",
"(. c #FCC2BA",
"). c #FDC8BF",
"_. c #F1C1BA",
"`. c #E8D6B4",
"'. c #EAD8B5",
"]. c #F1CDB6",
"[. c #F6E1B2",
"{. c #F7E4B8",
"}. c #C2BFC0",
"|. c #BFC0C1",
" X c #C2C5C3",
".X c #CDC5C2",
"XX c #CECAC5",
"oX c #D2CAC5",
"OX c #D3CDC8",
"+X c #D0C7C3",
"@X c #D4D0CB",
"#X c #FFD4C8",
"$X c #FCCCC2",
"%X c #F8E9C2",
"&X c #EAE5DA",
"*X c #EDEADD",
"=X c #F2EDDE",
"-X c #FAE8DB",
";X c #FBF5DD",
":X c #F6F3E4",
">X c #F9F6E7",
",X c #F6F5E9",
"<X c #FDFAEA",
"1X c #FEFCEB",
"2X c #FBF9E9",
"3X c #F9F7E8",
"4X c #FFFFF2",
"5X c #EFEDE0",
/* pixels */
"    % @ o o o o o o o o o o o o o o o o o o o o o o o o o o o o o o o o o o o o o o o o o o o o o o o o o o o o o o o o o o o o o o o o o o @ %     ",
"    o = f M M k M k k k k k k k k k k k k k k k k k k k k k k k k k k k k k k k k k k k k k k k k k k k k k k k k k k k k k k k k k k M M f = o     ",
"% o . s V.R.R.T.T.T.T.T.T.T.T.T.T.T.T.T.T.T.T.T.T.T.T.T.T.T.T.T.T.T.T.T.T.T.T.T.T.T.T.T.T.T.T.T.T.T.T.T.T.T.T.T.T.T.T.T.T.T.T.T.T.T.T.R.R.V.s . o % ",
"@ = s N.OX1X<X2X2X2X2X<X<X1X1X<X<X2X2X2X2X2X2X2X2X2X2X2X2X2X2X2X2X2X2X2X2X2X2X2X2X2X2X2X2X2X2X2X2X2X2X2X2X2X2X2X2X2X2X2X2X2X2X2X2X2X2X<X1XOXN.s = @ ",
"o f V.OX*X2X>X>X>X>X>X2X<X1X1X<X3X>X>X>X>X>X>X>X>X>X>X>X>X>X>X>X>X>X>X>X>X>X>X>X>X>X>X>X>X>X>X>X>X>X>X>X>X>X>X>X>X>X>X>X>X>X>X>X>X>X>X>X2X*XOXV.f o ",
"o M R.1X2X:X:X:X:X:X:X&X+XT.T.+X&X>X>X>X>X>X>X>X>X>X>X>X>X>X>X>X>X>X>X>X>X>X>X>X>X>X>X>X>X>X>X>X>X>X>X>X:X:X:X:X>X>X:X:X>X>X>X>X:X:X:X:X:X3X1XR.M o ",
"o M R.<X>X:X:X:X:X>X>X+XF j j F +X2X<X2X2X2X2X2X2X2X2X2X2X2X2X2X2X2X2X2X2X2X2X2X2X2X2X2X2X2X2X2X2X2X2X>X:X:X:X:X>X>X:X:X>X2X2X>X:X:X:X:X:X>X<XR.M o ",
"o M T.2X>X:X:X:X:X>X2XT.j . . j R.*X+XY.Y.Y.Y.Y.Y.Y.Y.Y.Y.Y.Y.Y.Y.Y.Y.Y.Y.Y.Y.Y.Y.Y.Y.Y.Y.Y.Y.Y.Y.Y.Y..X&X>X2X&X+X+X&X&X.XY.Y.+X&X:X:X:X:X>X2XT.M o ",
"o k T.2X>X:X:X:X:X>X2XT.k . . M R.OXF h h j j j j j j j j j j j j j j j j j j j j j j j j j j j j j h G .X<X1X+XF F +X+XF f j F +X>X>X:X:X>X2XT.k o ",
"o k T.2X>X:X:X:X:X>X2XR.M . . S E.OXF h h j j j j j j j j j j j j j j k k k k k k k k k j j j j j j h F +X=XOXV.i j R.OXF i % j T.2X>X:X:X>X2XT.k o ",
"o k T.2X>X:X:X:X:X>X2XR.M . . M R.*X+XY.Y.Y.Y.Y.Y.Y.Y.Y.Y.Y.Y.Y.Y.T.R.R.R.R.R.R.R.R.R.R.T.Y.Y.Y.Y.Y.Y.+X*X+XN.p # j R.=XOXZ.p j Y.2X>X:X:X>X2XT.k o ",
"o k T.2X>X:X>X>X>X<X1XR.M . . M R.<X<X2X2X2X2X2X2X2X2X<X1X1X1X1X1X5XOXR.R./._.(.(._.E.OX5X1X<X2X2X2X2X<X<XT.j . . M R.1X1XR.j j Y.2X>X:X:X>X2XT.k o ",
"o k T.2X>X:X3X2X2X1X1XE.M . . M R.<X2X>X>X>X>X>X>X2X2X<X1X1X1X1X1XOXM.m m 1.3.5.5.3.Z M.OX1X<X>X>X>X>X2X<XT.k . . M R.1X1XT.j j Y.2X>X:X:X>X2XT.k o ",
"o k T.<X2X&X.XY.Y.R.R.V.f . . k T.2X>X:X:X:X:X:X>X-X$XQ.E.G.G.E._.L.c 1 1 7 K / E Y 7 x S.OX*X:X:X:X:X>X2XR.M . . M R.1X1XY.j j Y.2X>X:X:X>X2XT.k o ",
"o k T.<X<X.XG h h j j s & . . j T.2X>X:X:X:X:X:X2X$X7.3.Z N N Z 3.<._ ~ ~ K 7 H ( E ( L b m.XX>X>X:X:X>X2XR.M . . M R.1X1XY.j j Y.2X>X:X:X>X2XT.k o ",
"o k T.<X<X.XG h h j j k M k j F +X>X>X:X:X:X:X&XXXL.<.Y H : : 7 K / ' ] ` ~ , , ^ ` ] ! 1 g G.2X>X:X:X>X2XT.k . . k T.1X1XY.j j Y.2X>X:X:X>X2XT.k o ",
"o k T.<X2X&X.XY.Y.T.R.R.R.T.T.+X&X:X:X:X:X>X>XXXm.c ) E ( ~ ~ K 7 H / ] ` ~ , , ^ ] ] ! 1 g G.2X>X:X:X>X2XT.k . . k T.1X1XY.j j Y.2X>X:X:X>X2XT.k o ",
"o k T.2X>X:X>X<X1X=XOXOX=X1X<X>X:X:X:X:X:X>X2XT.j 1 ~ ` ` ` ] ~ , , ~ ] ] ~ , , ~ ' / L x F XX>X>X:X:X>X2X/.V q q V /.<X<XY.j j Y.2X>X:X:X>X2XT.k o ",
"o k T.2X>X:X>X<X1XOXF F OX1X<X>X:X:X:X:X:X>X2XT.j : ~ ] ` ` ` ~ , , ~ ] ] ~ , < ~ / H x S.OX*X:X:X:X:X:X,X`.l.O.O.l.`.2X<XY.j j Y.2X>X:X:X>X2XT.k o ",
"o k T.2X>X:X>X*XOXV.p p V.OX*X>X>X:X:X:X:X>X2XT.j ; J ~ ~ ~ ~ K 4 4 J ! ! J - - K P b m.OX<X>X:X:X:X:X:X,X[.c.i.i.c.[.2X2XY.j j Y.2X>X:X:X>X2XT.k o ",
"o k T.2X>X>X<XOXN.p $ $ p N.OX1X>X:X:X:X:X>X2XT.j O ; > < < < 4 % % - > > - O O - v S.OX*X>X:X:X:X:X:X:X,X[.c.i.i.c.[.2X2XY.j j Y.2X>X:X:X>X2XT.k o ",
"o k T.<X2X*XOXV.s o @ @ o s V.OX*X:X:X:X:X>X>X+XF k m d & X X # 0 t l A m m M s $ j R.1X2X:X:X:X:X:X:X:X,X`.l.X.X.l.`.2X<XY.j j Y.2X>X:X:X>X2XT.k o ",
"o k T.<X<X+X2.s & @ @ @ @ & s 2.+X>X>X:X:X:X:X&X+XR.}.A.d X X 0  .g.I.R.R.R.R.V.a j T.<X>X:X:X:X:X:X:X>X2X~.V 9 9 V ~.<X<XY.j j Y.2X>X:X:X>X2XT.k o ",
"o k T.1X1XT.j . o @ @ @ @ o . j T.2X>X:X:X:X:X:X2X;X%XU.C r r u g.n.%X2X2X1X1X/.C C ~.2X3X:X:X:X:X:X:X>X2X~.V 9 9 V ~.<X<XY.j j Y.2X>X:X:X>X2XT.k o ",
"o k T.1X1XT.j . . @ @ @ @ . . j T.2X>X:X:X:X:X:X3X%Xn.j.q.o.o.g.!.%X;X3X3X2X2X`.z.z.`.,X,X:X:X:X:X:X:X:X,X`.l.X.X.l.`.2X<XY.j j Y.2X>X:X:X>X2XT.k o ",
"o k T.<X<X+XF k M f = = f M k F +X>X>X:X:X:X:X,X,X[.x.u.d.f.i.c.[.,X,X:X:X,X,X[.x.h.!.%X=X:X:X:X:X:X:X:X,X[.c.i.i.c.[.2X2XY.j j Y.2X>X:X:X>X2XT.k o ",
"o k T.<X2X&X+XR.^.D.f f D.^.R.+X&X:X:X:X:X:X:X,X,X[.x.u.d.d.i.x.[.,X,X:X:X:X,X[.x.f.h.b.{.,X:X:X:X:X:X:X,X[.c.i.i.c.[.2X2XY.j j Y.2X>X:X:X>X2XT.k o ",
"o k T.2X>X>X2X=XOXV.p p V.OX=X2X>X:X:X:X:X:X:X=X%X!.h.a.a.a.a.x.[.2X,X:X:X:X,X[.x.i.e.x.[.,X,X:X:X:X:X:X,X`.l.X.X.l.`.2X<XY.j j Y.2X>X:X:X>X2XT.k o ",
"o k T.2X>X>X<X+X2.p # # p 2.+X<X>X:X:X:X:X:X,X{.b.h.s.a.a.a.u.x.{.2X,X:X:X:X,X[.c.i.u.x.[.,X,X:X:X:X:X>X2X~.V 9 9 V ~.<X<XY.j j Y.2X>X:X:X>X2XT.k o ",
"o k T.2X>X>X>X.XG j k k j G .X>X>X:X:X:X:X,X2X[.x.e.a.a.a.d.d.j.U.oX*X2X>X2X2X'.l.w.y.h.!.%X=X:X:X:X:X>X2X~.V 9 9 V ~.<X<XY.j j Y.2X>X:X:X>X2XT.k o ",
"o k T.2X>X:X:X&X.XT.R.R.T..X&X:X:X:X:X:X:X,X2X{.x.e.a.a.a.d.d.q.Z m.oX1X<X1X1X/.V u w.s.h.b.{.,X:X:X:X:X,X`.l.X.X.l.`.2X<XY.j j Y.2X>X:X:X>X2XT.k o ",
"o k T.2X>X:X:X>X2X*XOXOX*X2X>X:X:X:X:X>X>X*XXXU.j.d.d.d.d.f.f.o.q a V.R.T.T.R.C.a r o.p.i.x.[.,X:X:X:X:X,X[.c.i.i.c.[.2X2XY.j j Y.2X>X:X:X>X2XT.k o ",
"o k T.2X>X:X:X>X<X+XF F +X<X>X:X:X:X:X>X1X+XG Z q.f.f.f.d.f.f.*.w $ a j j j j a $ w *.p.p.x.[.,X:X:X:X:X,X[.c.i.i.c.[.2X2XY.j j Y.2X>X:X:X>X2XT.k o ",
"o k T.2X>X:X:X>X2XY.h h Y.2X>X:X:X:X>X*XOXF.D B #.O.o.o.o.o.o. .0 & f M k M M f = 0  .O.O.l.'.2X3X:X:X:X3X`.l.X.X.l.`.2X<XY.j j Y.2X>X:X:X>X2XT.k o ",
"o k T.2X>X:X:X>X2XY.h h Y.2X>X:X:X>X1X+XF D F.D.B q q r r w w 3 + f A.^.E.E.^.A.f + 3 q 9 C /.1X3X:X:X>X2X~.V 9 9 V ~.<X<XY.j j Y.2X>X:X:X>X2XT.k o ",
"o k T.2X>X:X:X>X2XY.j j Y.2X>X:X>X*XOXS.x c K.W.G j n A A A n a & f A..X.X.X.XA.f & a k n D F.OX*X>X:X>X2X~.V 9 9 V ~.<X<XY.j j Y.2X>X:X:X>X2XT.k o ",
"o k T.2X>X:X:X>X2XY.j j Y.2X>X>X1XOXm.x L ) <.8.W.|.}.R.R.}.R.C.f & f S S S S f & f C.}. XF.D F +X<X>X:X,X`.l.X.X.l.`.2X<XY.j j Y.2X>X:X:X>X2XT.k o ",
"o k T.2X>X:X:X>X2XY.j j Y.<X<X*XOXS.x 7 ( R T ,.P.).).(.(.#X>XR.S + 3 3 + + 3 3 + S R.>X#XL.c x S.OX*X2X2X{.c.i.i.c.{.2X1XY.j j Y.2X>X:X:X>X2XT.k o ",
"o k T.2X>X:X:X>X2XY.j j Y.1X1XOXm.x L / ' R R [ ,.5.5.6.4.7.#XR.A 3  . .0 0  . .3 A R.#X7.<.) L x m.OX1X1X{.v.i.i.v.{.1X1XY.j j Y.2X>X:X:X>X2XT.k o ",
"o k T.2X>X:X:X>X2XY.j j R.:X@XD.B y | Q Q W ] R R R R T T 4.(.R.A w q.q.e e q.*.w A R.(.4.T R ( 7 x S.R.}.I.k.X.X.k.I.OX5XT.j j Y.2X>X:X:X>X2XT.k o ",
"o k T.2X>X:X:X>X2XY.j k E.@Xm.B @.=.r.r.r.;.W ` R R R R T 6.(.R.A w *.q.e e q.*.w A R.(.6.T R ' ( P b A A l t q q t z B.OXR.k j Y.2X>X:X:X>X2XT.k o ",
"o k T.2X>X:X:X>X2XT.j f A.D.b 8 &.t.r.r.r.;.%.W ] ` ` R R 5.(.R.A w *.*.e e *.*.w A R.(.5.R R ` ` ) y 2 + & s n n a # k R.R.k j Y.2X>X:X:X>X2XT.k o ",
"o k T.2X>X:X:X>X2XT.M & d v P ) W Q Q Q Q %.;.;.W ` ` R R 5.(.R.A w *.*.e e *.*.w A R.(.5.R R ` ` W &. .3 a C.R.R.V.p j R.R.k j Y.2X>X:X:X>X2XT.k o ",
"o k T.2X>X:X:X>X2XT.M O ; H / ` ` ` ` ` ` Q r.r.Q ` ` R R 5.(.R.A w *.*.e e q.*.w A  X(.5.R R ` ` Q t.q.w n R.4X4XR.j k E.E.M j Y.2X>X:X:X>X2XT.k o ",
"o k T.2X>X:X:X>X2XT.m - K / ' ` ` ` ` ` ` Q r.r.Q ` ` R R 5.(.R.A w *.*.e e q.q.w A  X).5.R R ` ` Q t.q.w n R.4X4XR.j M ^.^.M j Y.2X>X:X:X>X2XT.k o ",
"o k T.2X>X:X:X>X2XT.m - K { ' ` ` ` ` ` ` Q r.r.Q ` ` R R 5.(. XA w *.q.e 0 ....0 d C.J.>.! ~ ~ ^ } -. .3 a C.^.^.V.p s V.V.s j T.2X>X:X:X>X2XT.k o ",
"o k T.2X>X:X:X>X2XT.M O - H / ` ` ` ` ` ` Q r.r.Q ` ` R R 5.). XA w *.q.e # 0 0 * & a z 5 : , , , 6 r 3 + & d A A d & $ s s & M T.2X>X:X:X>X2XT.k o ",
"o k T.2X>X:X:X>X2XR.M X X 4 J ~ ~ ~ ~ ^ ^ } +.+.} ! ~ ~ ~ >.H.A.d 3  ...0 % 4 < < 5 l m A h 5 , , 5 h A S l 5 : : 5 l S m a & M T.2X>X:X:X>X2XT.k o ",
"o k T.2X>X:X:X>X2XR.M . X % 4 < , : : , , 6 r r , : : : , 5 h d & + 3 0 * 4 J ! ! >.J. X XH.:.! ! :.H. X XH.>.U U >.H. X XC.a j T.2X>X:X:X>X2XT.k o ",
"o k T.2X>X:X:X>X2XT.M O - < < 5 h A A h 5 , , 5 h A A h 5 , : 5 l S A h 5 H ( T T ,.P.).).P.,.T T ,.P.).).P.,.T T ,.P.).).J.z j T.2X>X:X:X>X2XT.k o ",
"o k T.2X>X:X:X>X2XT.m - K ! ~ :.H. X XH.:.! ! >.H. X XH.:.U U >.H. X XH.:.( E T T [ ,.5.5.,.[ T T [ ,.5.5.,.[ T T [ ,.5.5.>.5 k T.2X>X:X:X>X2XT.k o ",
"o k T.2X>X:X:X>X2XT.m : ! T T ,.P.).).P.,.T T ,.P.).).P.,.T T ,.P.).).P.,.[ ,.5.5.,.[ T T [ ,.5.5.,.[ T T [ ,.5.5.,.[ T T U : m T.2X>X:X:X>X2XT.k o ",
"o k T.2X>X:X:X>X2XT.m : U T T [ ,.5.5.,.[ T T [ ,.5.5.,.[ T T [ ,.5.5.,.[ ,.P.).).P.,.T T ,.P.).).P.,.T T ,.P.).).P.,.T T ! > m T.2X>X:X:X>X2XT.k o ",
"o k T.2X>X:X:X>X2XT.k 5 >.5.5.,.[ T T [ ,.5.5.,.[ T T [ ,.5.5.,.[ T T E Y >.H. X XH.>.! ! :.H. X XH.>.! ! >.H. X XH.:.~ ! K - m T.2X>X:X:X>X2XT.k o ",
"o k T.2X>X:X:X>X2XT.j z J.).).P.,.T T ,.P.).).P.,.T T ,.P.).).P.,.T T / H 5 h A S l 5 < < 5 h A A h 5 < < 5 h A A h 5 < < - O M T.2X>X:X:X>X2XT.k o ",
"o k T.2X>X:X:X>X2XT.j s C. X XH.>.U U >.H. X XH.:.! ! :.H. X XJ.:.~ ! K 4 % - - O X X % 4 , , : : - % X X % - > : , < 4 % X o M R.2X>X:X:X>X2XT.k o ",
"o k T.2X>X:X:X>X2XT.k & a m S l 5 : : 5 l S A h 5 , , 5 h A m l 5 < < 4 % 4 K K - X X - J ~ ^ ~ ! J 4 X X 4 J ! ~ ~ ~ J 4 X . M R.2X>X:X:X>X2XT.k o ",
"o k T.2X>X:X:X>X2XT.k & p s $ & d A A d & + 3 r 6 , , , : 5 z l 5 4 % X X < ( { H 5 h 9._ R ` ` ` ) I r 6 H / ` ` ` ` / H - O M T.2X>X:X:X>X2XT.k o ",
"o k T.2X>X:X:X>X2XT.j s V.V.s p V.^.^.C.a 3  .-.} ^ ^ ! ! >.J.J.>.J - X X < ~ R ( :.H.K.<.R R ` ` W &.+.} ( ' ` ` ` ` ' { K - m T.2X>X:X:X>X2XT.M o ",
"o k T.2X>X:X:X>X2XY.j M ^.^.M j R.4X4XR.n w q.t.Q ` ` R R 5.).).5.{ I e e I ) R R 5.).(.5.R R ` ` Q r.r.Q ` ` ` ` ` ` ' / K - m T.2X>X:X:X>X2XT.M o ",
"o k T.2X>X:X:X>X2XY.j M E.E.k j R.4X4XR.n w q.t.Q ` ` R R 5.(.(.5.W &.q.q.&.W R R 5.(.(.5.R R ` ` Q r.r.Q ` ` ` ` ` ` / H ; O M T.2X>X:X:X>X2XT.M o ",
"o k T.2X>X:X:X>X2XY.j k R.R.j p V.R.R.C.a 3  .&.W ` ` R R 5.(.(.6.W &.q.q.&.W R R 5.(.(.5.R R ` ` W ;.;.%.Q Q Q Q W ) P v d & M T.2X>X:X:X>X2XT.k o ",
"o k T.2X>X:X:X>X2XY.j k R.R.k # a n n a & + 2 y ) ` ` R R 5.(.(.5.{ y e e y ) R R 5.(.(.5.R R ` ` ] W %.;.r.r.r.t.&.8 b D.A.f j T.2X>X:X:X>X2XT.k o ",
"o k T.2X>X:X:X>X2XY.j k R.OXB.z t q q t l A A b P ( ' R T 6.(._.3.K y e e y L ( E 5.(.(.6.T T R R R ` W ;.r.r.r.w.@.B m.@XE.k j Y.2X>X:X:X>X2XT.k o ",
"o k T.2X>X:X:X>X2XY.j j T.5XOXI.k.X.X.k.I.R.R.S.x 7 ( R T 4.(.E.Z y $.q.q.$.y H / 5.(.(.4.T T R R R ` ] W Q Q | y B D.@X:XR.j j Y.2X>X:X:X>X2XT.k o ",
"o k T.2X>X:X:X>X2XY.j j Y.1X1X{.v.i.i.c.{.1X1XOXm.x L ) <.7.#XR.A 2  .w.q. .0 ; J 3._.#X7.4.6.5.5.,.[ R R ' / L x m.OX1X1XY.j j Y.2X>X:X:X>X2XT.k o ",
"o k T.2X>X:X:X>X2XY.j j Y.1X2X{.c.i.i.c.{.2X2X*XOXS.x c L.#X>XR.A + 3 w w 0 + O - 1./.>X#X(.(.(.).P.,.T R ( 7 x S.oX*X<X<XY.j j Y.2X>X:X:X>X2XT.k o ",
"o k T.2X>X:X:X>X2XY.j j Y.<X2X`.l.X.X.l.`.,X:X>X1X+XF D F. X}.C.f & f S S S S f & d C.R.R.R.R.}.|.W.8.<.) L x m.OX1X>X>X2XY.j j Y.2X>X:X:X>X2XT.k o ",
"o k T.2X>X:X:X>X2XY.j j Y.<X<X~.V 9 9 V ~.2X>X>X>X*XOXF.D j k s & f A..X.X.X.XD.f & a n A A A n j G W.K.c x S.OX*X>X>X>X2XY.j j Y.2X>X:X:X>X2XT.k o ",
"o k T.2X>X:X:X>X2XY.j j Y.1X<X~.V 9 9 V ~.2X>X:X:X3X1X/.C q q 3 + f A.^.E.E.^.A.f + 3 r r r r q q B D.F.D F +X<X>X:X:X>X2XY.h h Y.2X>X:X:X>X2XT.k o ",
"o k T.2X>X:X:X>X2XY.j j Y.<X2X`.l.X.X.l.`.,X:X:X:X3X2X'.l.O.O. .0 & s M k k M f & 0  .o.o.o.o.o.O.#.B D F.+X*X>X:X:X:X>X2XY.h h Y.2X>X:X:X>X2XT.k o ",
"o k T.2X>X:X:X>X2XY.j j Y.2X2X[.c.i.i.c.[.,X:X:X:X:X,X[.x.p.p.*.w $ a j j j j a $ w *.f.f.f.f.f.f.q.Z G +X<X>X:X:X:X:X>X<X+XF F +X<X>X:X:X>X2XT.k o ",
"o k T.2X>X:X:X>X2XY.j j Y.2X2X[.c.i.i.c.[.,X:X:X:X:X,X[.x.i.p.o.r a V.R.T.T.R.V.a q o.f.f.d.d.d.i.j.U.XX*X>X>X:X:X:X:X>X2X*XOXOX*X2X>X:X:X>X2XT.k o ",
"o k T.2X>X:X:X>X2XY.j j Y.2X2X`.l.X.X.l.`.,X:X:X:X:X,X{.b.h.s.w.u V /.1X<X<X1XoXm.Z q.d.d.a.a.u.e.x.{.2X,X:X:X:X:X:X:X&X.XT.R.R.T..X&X:X:X>X2XT.k o ",
"o k T.2X>X:X:X>X2XY.j j Y.<X<X~.V 9 9 V ~.2X>X:X:X:X:X=X%X!.h.y.w.l.'.2X2X>X2X&XoXU.j.d.a.a.a.u.e.x.[.2X,X:X:X:X:X>X>X.XG j M M j G .X>X>X>X2XT.k o ",
"o k T.2X>X:X:X>X2XY.j j Y.<X<X~.V 9 9 V ~.2X>X:X:X:X:X,X,X[.x.u.i.c.[.,X:X:X:X,X2X{.x.u.a.a.a.s.h.b.{.,X:X:X:X:X:X>X<X+X2.p # # p F +X<X>X>X2XT.k o ",
"o k T.2X>X:X:X>X2XY.j j Y.<X2X`.l.X.X.l.`.,X:X:X:X:X:X:X,X[.x.e.i.x.[.,X,X:X:X,X2X[.x.u.a.a.a.h.!.%X=X:X:X:X:X:X:X>X2X=XOXV.p p V.OX=X2X>X>X2XT.k o ",
"o k T.2X>X:X:X>X2XY.j j Y.2X2X[.c.i.i.c.[.,X:X:X:X:X:X:X,X{.b.h.f.x.[.,X,X:X:X,X,X[.x.i.d.d.i.x.[.,X,X:X:X:X:X:X:X&X+XR.^.D.f f D.^.R.+X&X2X<XT.k o ",
"o k T.2X>X:X:X>X2XY.j j Y.2X2X[.c.i.i.c.[.,X:X:X:X:X:X:X:X=X%X!.h.x.[.,X,X:X:X,X,X[.c.i.f.i.i.x.[.,X,X:X:X:X:X>X>X+XF k M f = = f M k F +X<X<XT.k o ",
"o k T.2X>X:X:X>X2XY.j j Y.<X2X`.l.X.X.l.`.,X:X:X:X:X:X:X:X,X,X`.z.z.`.2X2X3X3X;X%X!.g.o.o.g.j.n.%X3X,X:X:X:X:X>X2XT.j . . @ @ @ @ . . j T.1X1XT.k o ",
"o k T.2X>X:X:X>X2XY.j j Y.1X<X~.V 9 9 V ~.2X>X:X:X:X:X:X:X>X2X~.C C /.1X1X2X2X%Xn.g.u r r C U.%X;X2X:X:X:X:X:X>X2XT.j . o @ @ @ @ o . j T.1X1XT.k o ",
"o k T.2X>X:X:X>X2XY.j j Y.<X<X~.V 9 9 V ~.2X>X:X:X:X:X:X:X>X<XT.j a V.R.R.R.R.I.g. .0 X X d C.}.R.+X&X:X:X:X:X>X>X+X2.s & @ @ @ @ & s 2.+X<X<XT.k o ",
"o k T.2X>X:X:X>X2XY.j j Y.<X2X`.l.X.X.l.`.,X:X:X:X:X:X:X:X2X1XR.j $ s M m m A l t 0 # X X & d A k F +X>X>X:X:X:X:X*XOXV.s o @ @ o s V.OX*X3X2XT.k o ",
"o k T.2X>X:X:X>X2XY.j j Y.2X2X[.c.i.i.c.[.,X:X:X:X:X:X>X>X*XOXS.v - O O - > > - % % 4 < < < > ; O j T.2X>X:X:X:X:X>X<XOXN.s $ $ s N.OX<X>X>X2XT.k o ",
"o k T.2X>X:X:X>X2XY.j j Y.2X2X[.c.i.i.c.[.,X:X:X:X:X:X>X1XOXm.b P K - - J ! ! J 4 4 K ~ ~ ~ ~ J ; j T.2X>X:X:X:X:X>X>X*XOXV.p p V.OX*X>X:X>X2XT.k o ",
"o k T.2X>X:X:X>X2XY.j j Y.<X2X`.l.O.O.l.`.,X:X:X:X:X:X&XOXS.x H / ( < , ~ ` ` ~ , , ~ ] ] ] ] ~ : j T.2X>X:X:X:X:X:X>X<X1XOX2.2.OX1X<X>X:X>X2XT.k o ",
"o k T.2X>X:X:X>X2XY.j j Y.<X<X/.V q q V /.2X>X:X:X>X>XXXF x L / ' ~ < , ~ ] ` ~ , , ~ ] ] ` ] ~ 1 j G.2X>X:X:X:X:X:X>X<X1X=XOXOX=X1X<X>X:X>X2XT.k o ",
"o k T.2X>X:X:X>X2XY.j j Y.1X1XT.k . . k T.2X>X:X:X>X2XG.g 1 ! ] ] ^ , , ~ ] ` / H 7 K ~ ~ ( E ) c F XX>X>X:X:X:X:X&X+XT.R.R.R.R.T.Y.Y..X&X2X<XT.k o ",
"o k T.2X>X:X:X>X2XY.j j Y.1X1XT.k . . k T.2X>X:X:X>X2XG.g 1 ! ] ` ^ , , ~ ` ] ' ( K 7 1 : H Y <.L.XX&X:X:X:X:X>X>X+XF j k M k j j h h G .X<X<XT.k o ",
"o k T.2X>X:X:X>X2XY.j j Y.1X1XR.M . . M R.2X>X:X:X>X>XXXF x L ( E ( H 7 K ~ ~ _ <.3.Z N N v 3.7.$X<X:X:X:X:X:X>X2XT.j . . & s j j j h G .X<X<XT.k o ",
"o k T.2X>X:X:X>X2XY.j j Y.1X1XR.M . . M R.2X>X:X:X:X:X*XOXS.x 7 Y E / K 7 1 1 c L._.E.G.G.E.Q.$X-X>X:X:X:X:X:X>X2XR.k . . f V.R.T.Y.Y..X&X2X<XT.k o ",
"o k T.2X>X:X:X>X2XY.j j T.1X1XR.M . . k T.<X2X>X>X>X>X<X1X@XM.Z 3.5.5.3.1.m m M.OX1X1X1X1X1X<X2X2X>X>X>X>X>X>X2X<XR.M . . M E.1X1X2X2X>X:X>X2XT.k o ",
"o k T.2X>X:X:X>X2XY.j j R.1X1XR.M . . j T.<X<X2X2X2X2X<X1X5XOXE._.(.(._./.R.R.OX5X1X1X1X1X1X<X2X2X2X2X2X2X2X2X<X<XR.M . . M R.1X<X>X>X>X:X>X2XT.k o ",
"o k T.2X>X:X:X>X2XY.j p Z.OX=XR.j # p N.+X*X+XY.Y.Y.Y.Y.Y.T.R.R.R.R.R.R.R.R.R.R.T.Y.Y.Y.Y.Y.Y.Y.Y.Y.Y.Y.Y.Y.Y.+X*XR.M . . M R.2X>X:X:X:X:X>X2XT.k o ",
"o k T.2X>X:X:X>X2XT.j % i F OXR.j p V.OX=X+XG h h j j j j j k k k k k k k k k k j j j j j j j j j j j j j h h F OXE.S . . M R.2X>X:X:X:X:X>X2XT.k o ",
"o k T.2X>X:X:X>X>X+XF j f F +X+XF F +X1X<X.XG h h j j j j j j j j j j j j j j j j j j j j j j j j j j j j j h F OXR.M . . k T.2X>X:X:X:X:X>X2XT.k o ",
"o k T.2X>X:X:X:X:X&X+XY.Y..X&X&X+X+X&X2X>X&X.XY.Y.Y.Y.Y.Y.Y.Y.Y.Y.Y.Y.Y.Y.Y.Y.Y.Y.Y.Y.Y.Y.Y.Y.Y.Y.Y.Y.Y.Y.Y.Y.+X*XR.j . . j T.2X>X:X:X:X:X>X2XT.k o ",
"o M R.<X>X:X:X:X:X:X>X2X2X>X:X:X>X>X:X:X:X:X>X2X2X2X2X2X2X2X2X2X2X2X2X2X2X2X2X2X2X2X2X2X2X2X2X2X2X2X2X2X2X2X2X<X2X+XF j j F +X>X>X:X:X:X:X>X<XR.M o ",
"o M R.1X2X:X:X:X:X:X>X>X>X>X:X:X>X>X:X:X:X:X>X>X>X>X>X>X>X>X>X>X>X>X>X>X>X>X>X>X>X>X>X>X>X>X>X>X>X>X>X>X>X>X>X>X>X&X+XT.T.+X&X:X:X:X:X:X:X2X1XR.M o ",
"o f V.OX*X2X>X>X>X>X>X>X>X>X>X>X>X>X>X>X>X>X>X>X>X>X>X>X>X>X>X>X>X>X>X>X>X>X>X>X>X>X>X>X>X>X>X>X>X>X>X>X>X>X>X>X>X3X<X1X1X<X2X>X>X>X>X>X2X*XOXV.f o ",
"@ = s N.OX1X<X2X2X2X2X2X2X2X2X2X2X2X2X2X2X2X2X2X2X2X2X2X2X2X2X2X2X2X2X2X2X2X2X2X2X2X2X2X2X2X2X2X2X2X2X2X2X2X2X2X2X<X<X1X1X<X<X2X2X2X2X<X1XOXN.s = @ ",
"% o . s V.R.R.T.T.T.T.T.T.T.T.T.T.T.T.T.T.T.T.T.T.T.T.T.T.T.T.T.T.T.T.T.T.T.T.T.T.T.T.T.T.T.T.T.T.T.T.T.T.T.T.T.T.T.T.T.T.T.T.T.T.T.T.R.R.V.s . o % ",
"    o = f M M k k k k k k k k k k k k k k k k k k k k k k k k k k k k k k k k k k k k k k k k k k k k k k k k k k k k k k k k k k k k M M f = o     ",
"    % @ o o o o o o o o o o o o o o o o o o o o o o o o o o o o o o o o o o o o o o o o o o o o o o o o o o o o o o o o o o o o o o o o o o @ %     "
};
