/* XPM */
static char *spades_k[] = {
/* columns rows colors chars-per-pixel */
"74 104 210 2 ",
"   c None",
".  c #180026",
"X  c #1C002B",
"o  c #1E0231",
"O  c #21012E",
"+  c #2D022D",
"@  c #2D0B2D",
"#  c #240531",
"$  c #2A0C36",
"%  c #2C0E39",
"&  c #280633",
"*  c #2E113B",
"=  c #2E1132",
"-  c #31143C",
";  c #311031",
":  c #30092E",
">  c #4A042C",
",  c #46012C",
"<  c #57042B",
"1  c #59062E",
"2  c #5C092E",
"3  c #560D2A",
"4  c #461E2A",
"5  c #411A26",
"6  c #57142D",
"7  c #4B0832",
"8  c #711E28",
"9  c #4A222B",
"0  c #4C2227",
"q  c #532927",
"w  c #52242B",
"e  c #542B2A",
"r  c #562A29",
"t  c #522D37",
"y  c #5A312F",
"u  c #792826",
"i  c #784724",
"p  c #764B31",
"a  c #3D2244",
"s  c #462B4D",
"d  c #482D4E",
"f  c #452D51",
"g  c #492E50",
"h  c #4C3253",
"j  c #4A3456",
"k  c #503756",
"l  c #543A54",
"z  c #543C5A",
"x  c #583F5D",
"c  c #55334E",
"v  c #6D2B4D",
"b  c #722F51",
"n  c #553E60",
"m  c #55415F",
"M  c #59415E",
"N  c #6B4C4B",
"B  c #7C564A",
"V  c #7A5B58",
"C  c #6D504E",
"Z  c #5B4461",
"A  c #574061",
"S  c #745D6C",
"D  c #7E6A7D",
"F  c #7B6678",
"G  c #9E0625",
"H  c #A10726",
"J  c #AC102A",
"K  c #AF1332",
"L  c #812A26",
"P  c #FF081D",
"I  c #FF071C",
"U  c #D8301E",
"Y  c #FA271E",
"T  c #FE331E",
"R  c #CC0B24",
"E  c #CA0622",
"W  c #D30C24",
"Q  c #DE1321",
"!  c #FF0F20",
"~  c #FF1221",
"^  c #C82722",
"/  c #D83221",
"(  c #965C1E",
")  c #B15E1C",
"_  c #9B601E",
"`  c #BD7916",
"'  c #BD7C1A",
"]  c #BB7715",
"[  c #BF611C",
"{  c #965D20",
"}  c #986121",
"|  c #A16C28",
" . c #A35E21",
".. c #FE531A",
"X. c #C4621D",
"o. c #C17E19",
"O. c #CB7E18",
"+. c #D5631B",
"@. c #F07518",
"#. c #C63346",
"$. c #806C7C",
"%. c #947D7F",
"&. c #80425A",
"*. c #FF4750",
"=. c #D54553",
"-. c #BC893D",
";. c #CA8316",
":. c #CA8419",
">. c #C68419",
",. c #C7810F",
"<. c #EF9E0B",
"1. c #E4960B",
"2. c #EB8217",
"3. c #F58217",
"4. c #F78816",
"5. c #E49912",
"6. c #FB9015",
"7. c #F09F0A",
"8. c #EFA00E",
"9. c #F2A30E",
"0. c #EFA213",
"q. c #F2A412",
"w. c #F6A913",
"e. c #FDAD12",
"r. c #F4A81C",
"t. c #CB8A24",
"y. c #C9943F",
"u. c #E5A73A",
"i. c #F3B135",
"p. c #F3B33A",
"a. c #F8B739",
"s. c #F2A921",
"d. c #BE8A43",
"f. c #CA9849",
"g. c #F2B643",
"h. c #F5B945",
"j. c #F4BA4B",
"k. c #E6B762",
"l. c #F6C971",
"z. c #F9CC72",
"x. c #F3C66D",
"c. c #7C6B81",
"v. c #816F80",
"b. c #847182",
"n. c #957F80",
"m. c #9A8B96",
"M. c #9C8E98",
"N. c #9F919B",
"B. c #9F8C8D",
"V. c #A0929B",
"C. c #A69897",
"Z. c #B39F94",
"A. c #A58C94",
"S. c #B8A498",
"D. c #BDADA4",
"F. c #BFB6B8",
"G. c #CDB38F",
"H. c #C1AB95",
"J. c #CEB697",
"K. c #D0BA9F",
"L. c #C5B6AA",
"P. c #C9B9AC",
"I. c #D2BDA1",
"U. c #C1B7B7",
"Y. c #C2B8B7",
"T. c #C1B7B8",
"R. c #C3BABA",
"E. c #C8BFBD",
"W. c #D1BBB8",
"Q. c #F6BDB6",
"!. c #C38D93",
"~. c #F6D38C",
"^. c #F8D68F",
"/. c #F0D191",
"(. c #CBC2BE",
"). c #CBC1BA",
"_. c #D2C6B9",
"`. c #E9D8B6",
"'. c #F7D5B3",
"]. c #F6E1B3",
"[. c #FAE5B5",
"{. c #F7E6BE",
"}. c #C5BEC1",
"|. c #CDC5C2",
" X c #CFC9C8",
".X c #D2CAC5",
"XX c #D4CDC8",
"oX c #D9CEC1",
"OX c #D9D2CB",
"+X c #D6D1CB",
"@X c #E7DFD1",
"#X c #FAEBC3",
"$X c #F8E9C6",
"%X c #EAE4D5",
"&X c #EAE6DA",
"*X c #EEEADD",
"=X c #E7E0D2",
"-X c #F3EEDD",
";X c #FBF5DD",
":X c #F2EEE0",
">X c #F6F3E4",
",X c #F9F6E6",
"<X c #F6F5E9",
"1X c #FBF9E8",
"2X c #FBF8E8",
"3X c #FAF9EA",
"4X c #FEFCEB",
"5X c #FCFAE9",
"6X c #FBF7E6",
"7X c #FFFEF0",
/* pixels */
"    & # O O O O O O O O O O O O O O O O O O O O O O O O O O O O O O O O O O O O O O O O O O O O O O O O O O O O O O O O O O O O O O O O O O # &     ",
"    O - h M M x M M x x x x x x x x x x x x x x x x x x x x x x x x x x x x x x x x x x x x x x x x x x x x x x x x x x x x x x x x x M M h - O     ",
"& O X g m.R.R.Y.Y.Y.Y.Y.Y.Y.Y.Y.U.U.U.U.Y.Y.Y.Y.Y.Y.Y.Y.U.U.U.U.Y.Y.Y.Y.Y.Y.Y.Y.U.U.U.U.Y.Y.Y.Y.Y.Y.Y.Y.Y.Y.U.U.Y.Y.Y.Y.Y.Y.Y.Y.Y.U.Y.R.R.m.d X O & ",
"# - g v.XX4X4X4X4X5X5X5X5X4X4X5X1X1X1X1X1X1X1X1X1X1X1X1X1X1X1X1X1X1X1X1X1X1X1X1X1X1X1X1X1X1X1X1X1X1X1X1X1X1X1X1X1X1X1X1X1X1X1X1X1X1X1X5X4XXXv.d - # ",
"O h m.XX*X1X4X4X4X5X2X2X5X4X4X5X2X2X2X2X2X2X2X2X2X2X2X2X2X2X2X2X2X2X2X2X2X2X2X2X2X2X2X2X2X2X2X2X2X2X2X2X2X2X2X2X2X2X2X2X2X2X2X2X2X2X2X2X1X*XXXm.h O ",
"O M R.4X5X&X.XY.Y..X*X*X.XY.Y..X&X2X2X2X2X2X2X2X2X2X2X2X2X2X2X2X2X2X2X2X2X2X2X2X2X2X2X2X2X2X2X2X2X2X>X>X>X>X>X>X>X>X2X2X2X2X2X2X>X>X>X>X>X1X4XR.M O ",
"O M R.4X4X.XD z z b.+X+Xb.z z D .X1X5X1X1X1X1X1X1X1X1X1X1X1X1X1X1X1X1X1X1X1X1X1X1X1X1X1X1X1X1X1X1X2X>X>X>X>X>X>X>X>X2X1X1X1X1X2X>X>X>X>X>X2X5XR.M O ",
"O x Y.4X4XY.z X X h V.V.h X . z Y.*X.XU.U.U.U.U.U.U.U.U.U.U.U.U.U.U.U.U.U.U.U.U.U.U.U.U.U.U.U.U.U.|.&X2X2X:X%X%X:X&X|.F.U.U.Y..X&X>X>X>X>X2X1XU.M O ",
"O M Y.4X4XY.x X O - h h - X X z R.XXD k k z z z z z z z z z z z z z z z z z z z z z z z z z z k k F |.1X1X%X_._.&X.XD k k z z D .X2X2X>X>X2X1XU.x O ",
"O M Y.4X4XR.M O # # O O # - h b.XX.XD k k z z z z z z z x x x x z z z x x z z z x x x x z z z z k F |.>X*XoXD.L.=X.XD k z s $ z Y.1X2X>X>X2X1XU.x O ",
"O x Y.4X4XR.M O # # O X O h V.+X*X&X|.F.U.U.U.U.U.T.Y.R.R.R.R.Y.T.T.Y.Y.Y.Y.T.T.Y.R.R.Y.T.U.U.U.U.|.&X%X_.D.S.L.=X&X|.Y.R.m.s z U.1X2X>X>X2X1XU.x O ",
"O x Y.4X4XR.M O O - h h - h V.+X*X2X2X1X1X1X1X5X4X;X#X[.[.[.[.#X;X>X#X[.[.#X;X;X#X[.[.#X;X5X1X1X1X1X2X@XL.Z.Z.L.@X2X1X4X4XR.z z U.1X2X>X>X2X1XU.x O ",
"O x Y.4X4XR.M O O h V.V.h * g b..X2X1X2X2X2X2X1X4X#Xl.g.h.h.h.l.$X$Xl.h.h.z.$X$Xl.g.g.l.#X4X1X2X2X2X2X@XL.Z.Z.L.@X2X2X5X4XY.z z U.1X2X>X>X2X1XY.x O ",
"O x Y.4X4XR.z X X M |.|.M X . z Y.1X2X>X>X>X>X&X XG.u.<.9.8.<.p.~.~.p.1.,.y./.~.p.<.<.u.G. X&X>X>X>X2X=XL.Z.Z.L.@X>X>X2X1XU.z z U.1X2X>X>X2X1XY.x O ",
"O x Y.4X4XY.z X X M (.(.M . . z Y.1X2X>X>X2X2X|.c.B t.9.q.8.8.r.p.p.r.;.i p f.a.r.9.9.t.B c.|.2X2X>X2X@XL.Z.Z.L.@X>X>X2X1XU.z z U.1X2X>X>X2X1XY.x O ",
"O x Y.5X5X.XD z z v.XXXXv.z z D .X2X2X>X>X2X1XT.z 0 ` w.q.q.q.q.q.5.:. .8 8  .;.5.q.w.` 0 k F.1X2X>X>X@XL.Z.Z.L.@X>X>X2X1XU.z z U.1X2X>X>X2X1XY.x O ",
"O x Y.5X1X&X.XY.Y..X*X*X.XY.Y..X&X>X>X>X>X2X1XT.z q ' w.w.q.q.w.q.>.i u J J u i :.w.w.` 0 k F.1X2X>X>X@XL.Z.Z.L.@X>X>X2X1XU.z z U.1X2X>X>X2X1XU.x O ",
"O x Y.1X2X>X2X5X4X*X.X.X*X4X5X2X>X>X>X>X>X2X1XY.z 5 ( O.@.@.O.:.2.X.w 1 W W 1 w X.2.O.| N c.|.2X2X>X>X@XL.Z.Z.L.@X2X>X2X1XU.z z U.1X2X>X>X2X1XU.x O ",
"O x Y.1X2X>X2X5X4XXXD D XX4X5X2X>X>X>X>X>X2X1XY.z O ; L U / u u / ^ 6 1 W W 1 6 ^ U u N C..X&X>X>X>X>X@XL.Z.Z.L.@X>X>X2X1XU.z z U.1X2X>X>X2X1XU.x O ",
"O x Y.1X2X>X2X*XXXm.s s m.XX*X2X2X>X>X>X>X2X2X.XD z z b K H , , H H > > H H > > H K v c.XX5X2X>X>X>X>X@XL.Z.Z.L.@X>X>X2X1XU.z z U.1X2X>X>X2X1XU.x O ",
"O x Y.1X2X2X5XXXv.d % % d v.XX4X2X>X>X>X>X>X>X&X.XR.R.A.b , + + > > + + > > + + , b A.XX*X2X>X>X>X>X>X@XL.Z.Z.L.@X>X>X2X1XU.z z U.1X2X>X>X2X1XU.x O ",
"O x Y.5X2X*XXXm.d O # # O d m.XX*X>X>X>X>X>X>X>X2X4X4X_.V q q t l A M M m m M l t V _.4X3X>X>X>X>X>X2X=XL.Z.Z.L.@X>X>X2X1XU.z z U.1X2X>X>X2X1XY.x O ",
"O x Y.5X5X.X$.g * # # # # * g $..X2X2X>X>X>X>X>X2X1X7X`.f.` ` d.H.R.R.R.Y.R.R.H.-.f.`.1X<X>X>X>X>X>X2X=XL.Z.Z.L.@X>X>X2X1XU.z z U.1X2X>X>X2X1XY.x O ",
"O x Y.4X4XY.z X O # # # # O X z Y.1X2X>X>X>X>X>X>X-X$X~.p.9.9.h.[.7X4X5X1X4X4X[.h.g.].<X<X>X>X>X>X>X2X=XL.Z.Z.L.@X>X>X2X1XU.z z U.1X2X>X>X2X1XU.x O ",
"O x Y.4X4XY.z X X # # # # X X z Y.1X2X>X>X>X>X>X<X{.x.i.r.q.9.h.[.7X4X5X1X1X4X[.h.g.].<X<X>X>X>X>X>X>X@XL.Z.Z.L.@X>X>X2X1XU.z z U.1X2X>X>X2X1XU.x O ",
"O x Y.5X5X.XD x M h - - h M x D .X2X2X>X>X>X>X>X<X].g.<.9.q.q.u.G.R.Y..X&X&X XG.u.i.~.$X-X>X>X>X>X>X>X@XL.Z.Z.L.@X>X>X2X1XU.z z U.1X2X>X>X2X1XU.x O ",
"O x Y.5X2X&X.XR.(.V.h h V.(.R..X&X>X>X>X>X>X>X>X<X].g.9.q.w.w.t.B z z v.XXXXc.B t.r.a.x.{.>X>X>X>X>X2X@XL.Z.Z.L.@X2X>X2X1XU.z z U.1X2X>X>X2X1XU.x O ",
"O x Y.1X2X2X1X*XXXm.s s m.XX*X1X2X>X>X>X>X>X>X<X<X].g.5.;.' ' { 4 X X x R.R.z 5 ( ` ` f.`.3X>X>X>X>X2X@XL.Z.Z.L.=X2X>X2X1XU.z z U.1X2X>X>X2X1XU.x O ",
"O x Y.1X2X2X5X.X$.s $ $ s $..X5X2X>X>X>X>X>X>X<X<X].h.;.i 9 e 4 @ X X x }.}.x O 4 w 0 V ).1X2X>X>X>X2X=XL.Z.Z.L.@X>X>X2X1XU.z z U.1X2X>X>X2X1XY.x O ",
"O x Y.1X2X2X2X|.F z M M z F |.2X2X>X>X>X>X>X>X-X$X~.p.;.i 9 w t l A n $.I.I.$.l t w 0 V ).1X1X2X>X>X2X=XL.Z.Z.L.@X>X>X2X1XU.z z U.1X2X>X>X2X1XY.x O ",
"O x Y.1X2X>X>X&X|.Y.R.R.Y.|.&X>X>X>X>X>X>X>X<X{.x.i.r.5.>.' ' d.H.}.}.K.k.k.I.H.d.] ] f.`.3X1X2X>X>X>X@XL.Z.Z.L.@X>X>X2X1XU.z z U.1X2X>X>X2X1XY.x O ",
"O x Y.1X2X>X>X2X1X*XXXXX*X1X2X>X>X>X>X>X>X<X3X].g.<.<.q.q.q.q.p.^.{.{.~.i.i.^.^.p.9.9.p.~.`.)..X&X1X2X@XL.Z.Z.L.@X>X>X2X1XU.z z U.1X2X>X>X2X1XY.x O ",
"O x U.1X2X>X>X2X5X.XD D .X5X2X>X>X>X>X>X>X<X3X].g.<.8.q.q.q.q.s.p.h.h.p.r.r.p.p.s.q.q.s.p.f.V c..X4X1X@XL.Z.Z.L.@X2X>X2X1XU.z z U.1X2X>X>X2X1XU.x O ",
"O x U.1X2X>X>X2X1XU.k k F.1X2X>X>X>X>X>X2X*X.XK.k.i.r.8.8.8.q.q.9.9.9.5.:.:.5.9.8.q.q.w.w.` q f m.XX:X%XL.Z.Z.L.@X>X>X2X1XU.z z U.1X2X>X>X2X1XU.x O ",
"O x U.1X2X>X>X2X1XU.k k U.1X2X>X>X>X>X2X5X.XD F I.~.p.<.<.q.q.w.w.w.w.:.i i ;.9.9.q.q.w.w.o.q % f v.XX*XP.Z.Z.L.@X2X>X2X1XU.z z U.1X2X>X>X2X1XU.x O ",
"O x U.1X2X>X>X2X1XU.z z U.1X2X>X>X>X2X*XXXm.s z }.#Xl.g.g.u.t.' ' o.>.{ 4 t d.h.h.u.t.' ' } 9 o X f M.Y.D.S.S.P.%X1X1X1X1XU.z z U.1X2X>X>X2X1XU.x O ",
"O x Y.1X2X>X>X2X1XU.z z U.1X2X>X>X2X5XXXv.s $ x R.6X#X].[.G.B q q y y 9 @ l H.[.[.G.B e e 9 = o o * h S B.S.S.P.%X5X5X5X5XU.z z U.1X2X>X>X2X1XY.x O ",
"O x Y.1X2X>X>X2X1XU.z z U.1X2X>X2X*XXXm.f X X h M.XX*X3X4XR.n o o o o o O M R.7X7XR.n + , 1 2 2 2 > + a S n.%.B.D.R.R..X*XY.z z U.1X2X>X>X2X1XY.x O ",
"O x Y.1X2X>X>X2X1XU.z z U.1X2X2X5XXXc.f % o # - g v..X4X4XR.m o o o o o # M R.4X4XR.m , G R R R R H > $ a d d h z x z v.XXR.z z U.1X2X>X>X2X1XY.x O ",
"O x Y.1X2X>X>X2X1XU.z z U.5X5X*XXXC.N q q 9 ; o X z Y.4X4XY.M @ 9 y y 9 @ M Y.4X4XY.m < R ! ! ! ! R 2 # o O O O O X X z R.R.x z U.1X2X>X>X2X1XU.x O ",
"O x Y.1X2X>X>X2X1XU.z z U.4X4XXXc.N | >.>.} 9 o X z Y.4X4XY.x 9 _ :.:._ 9 x Y.4X4XY.m < R ! ! ! ! R 2 # o O O O # O X z R.R.x z U.1X2X>X>X2X1XU.x O ",
"O x Y.1X2X>X>X2X1XU.z z R.>XXXA.v 8 +.6.w.:.u < < &.W.4X4XY.x 4 ( >.>.( 4 x Y.4X4XY.m < R ! ! ! ! R 2 * j Z Z h - - g b.XXR.x z U.1X2X>X>X2X1XU.x O ",
"O x Y.1X2X>X>X2X1XU.z x E.+Xc.v J W Y ..6.2./ E E =.Q.1X3XY.M @ 9 y e 4 @ M R.4X4XY.m < R ! ! ! ! R 1 h M.(.(.m.g g m.+X:XY.z z U.1X2X>X>X2X1XU.x O ",
"O x Y.1X2X>X>X2X1XY.z h M.C.C u U Y ! T 3.3.T P P *.Q.3X3XY.M @ 4 e e 4 @ M R.4X4XR.m < R ! ! ! ! R < m R.4X7XR.z z R.7X4XY.z z U.1X2X>X>X2X1XU.x O ",
"O x U.1X2X>X>X2X1XR.x % f C | ;.2...Y T @.3.T P P *.Q.3X3XY.x 4 ( o.o.( 4 x R.7X4XR.A < R ! ! ! ! R < m R.4X4XY.z z R.7X7XR.z z U.1X2X>X>X2X1XY.x O ",
"O x U.1X2X>X>X2X1XY.M + , L +.6.w.3.T T 3.3.T P P *.Q.4X4XR.x q o.e.e.o.q g M.(.(.M.g , G R R R R H > m R.4X4XR.z s m.R.R.m.s z U.1X2X>X>X2X1XY.x O ",
"O x U.1X2X>X>X2X1XY.m , H Q Y ..6.3.T T 3.3.T P I *.'.7X7XR.x q o.e.e.>.e * h Z Z h * + , < 2 2 2 > + M R.4X4XE.M % s z z s % M Y.1X2X>X>X2X1XY.x O ",
"O x U.1X2X>X>X2X1XY.m > H W R ^ [ [ ^ ^ X.X.^ E E #.!.R.(.M.h 4 ( o.o.( 9 # # O X % h Z Z j * # o X X h M.(.(.M.g $ s x M g * M Y.1X2X>X>X2X1XY.x O ",
"O x Y.1X2X>X>X2X1XY.m + > 2 2 6 w 6 3 3 w r 6 1 < 6 c x M h - ; 4 q q 9 ; # # O X s m.|.|.N.j X X X O - h Z Z g $ s m.E.(.M.g z U.1X2X>X>X2X1XU.x O ",
"O x Y.1X2X>X>X2X1XR.M O # # o * g A Z j * o o * j A M h * O O - h A Z h - # # * g b.+X2XOXN.g % h Z Z h - X X $ s b.+X2XOXM.g z U.1X2X>X>X2X1XU.x O ",
"O x Y.1X2X>X>X2X1XR.M O # # X f M.|.|.N.h X X f M.(.|.N.h X X g M.|.|.V.h O X d m.+X>XOXb.d $ d m.|.|.V.h X X s m.+X>X+Xb.g % x Y.1X2X>X>X2X1XU.x O ",
"O x Y.1X2X>X>X2X1XR.M O O * g b.+X2XOXV.h % g b.+X>XOXN.h $ s b.+X>XOXV.h * g b.+X>X+Xm.s $ d b.+X2XOXV.h % g b.+X>X+Xm.g X X M R.1X2X>X>X2X1XU.x O ",
"O x Y.1X2X>X>X2X1XR.M X X d m.+X>X+Xb.g * h V.OX>X+Xb.d $ s m.+X>X+Xb.g % h V.OX>X+Xb.s $ g M.OX2X+Xb.g % h V.OX>X+Xb.d * O O M R.1X2X>X>X2X1XY.x O ",
"O x Y.1X2X>X>X2X1XR.M % g b.+X>X+Xm.s X X h V.|.|.m.d $ d b.+X>X+Xm.g X O h V.|.|.M.g X X h N.|.(.M.f X X h N.|.|.M.f X # # O M R.1X2X>X>X2X1XY.x O ",
"O x Y.1X2X>X>X2X1XY.z g M.OX>X+Xb.s $ X O - h Z Z g % h N.OX2X+Xb.d * O # - h Z A g - O O * h M m g * o # * j Z A f * o # # O M R.1X2X>X>X2X1XY.x O ",
"O x Y.1X2X>X>X2X1XY.z g M.(.E.m.s $ g Z Z h - O X X X j N.|.|.m.s X O # # ; 9 q q 4 ; - h M x c 6 < 1 6 r w 3 3 6 w 6 2 2 > + M Y.1X2X>X>X2X1XU.x O ",
"O x U.1X2X>X>X2X1XR.x * g M x s $ h M.(.(.M.h X X o # * j Z Z h % X O # # 9 { o.o.( 4 h M.(.R.!.#.E E ^ X.X.^ ^ [ [ ^ R W H > m Y.1X2X>X>X2X1XU.x O ",
"O x U.1X2X>X>X2X1XR.x % s z z s % M R.7X4XR.M + > 2 2 2 < , + * h Z Z h * e >.e.e.o.q n R.4X7X'.*.P P T 3.3.T T 3.6...Y Q H , m Y.1X2X>X>X2X1XU.x O ",
"O x U.1X2X>X>X2X1XY.z s m.R.R.m.s z R.4X4XR.m > H R R R R G , g M.(.(.M.g q o.e.e.o.q x R.4X4XQ.*.P P T 3.3.T T 3.w.6.+.L , + M Y.1X2X>X>X2X1XU.x O ",
"O x U.1X2X>X>X2X1XU.z z R.7X7XR.z z Y.4X4XR.m < R ! ! ! ! R < m R.4X4XR.n 4 ( o.o.( 4 x Y.3X3XQ.*.P P T 3.@.T Y ..2.;.| C f % M Y.1X2X>X>X2X1XY.M O ",
"O x Y.1X2X>X>X2X1XU.z z Y.4X7XR.x z R.4X4XR.m < R ! ! ! ! R < m R.4X4XR.M @ 4 e e 4 @ M Y.3X3XQ.*.P P T 3.3.T ! Y U u C C.M.h z U.1X2X>X>X2X1XY.M O ",
"O x Y.1X2X>X>X2X1XU.z z Y.:X+Xm.g g m.(.(.M.h < R ! ! ! ! R < m Y.4X4XY.M @ 9 e e 9 @ M Y.3X3XQ.=.E E / 2.6...Y W J v c.+XE.x z U.1X2X>X>X2X1XY.M O ",
"O x Y.1X2X>X>X2X1XU.z x R.XXb.g * - h Z Z h * 2 R ! ! ! ! R < m Y.4X4XY.x 4 ( >.>.( 4 x Y.4X4XW.&.< < L :.w.6.+.8 v A.XX:XR.z z U.1X2X>X>X2X1XY.x O ",
"O x Y.1X2X>X>X2X1XU.z x R.R.z X O # O O O X # 2 R ! ! ! ! R < m Y.4X4XY.x 9 _ :.:._ 9 x Y.4X4XY.z X o 9 } >.>.| N c.XX4X4XU.z z U.1X2X>X>X2X1XY.x O ",
"O x Y.1X2X>X>X2X1XU.z x R.R.z X X O O O O X # 2 R ! ! ! ! R < m Y.4X4XY.M @ 9 y y 9 @ M Y.4X4XY.z X o ; 9 q q N C.XX*X5X5XU.z z U.1X2X>X>X2X1XU.x O ",
"O x Y.1X2X>X>X2X1XU.z z R.XXv.z x z h d d a $ > H R R R R G , m R.4X4XR.M # o o o o o x R.4X4X.Xv.g - # o % f c.XX5X2X2X1XU.z z U.1X2X>X>X2X1XU.x O ",
"O x Y.1X2X>X>X2X1XU.z z Y.*XXXR.R.D.B.%.n.S a + > 2 2 2 1 , + n R.7X7XR.Z O o o o o o x R.3X3X*XXXM.h X X f m.XX*X2X>X2X1XU.z z U.1X2X>X>X2X1XU.x O ",
"O x Y.1X2X>X>X2X1XU.z z U.5X5X5X5X%XP.S.S.B.S h * o o = 9 e e B G.[.[.H.l @ 9 y e q q B G.].].#X6X}.x $ s v.XX5X2X>X>X2X1XU.z z U.1X2X>X>X2X1XU.x O ",
"O x U.1X2X>X>X2X1XU.z z U.1X1X1X1X%XP.S.S.D.Y.M.f X o 9 } ' ' t.u.h.h.d.t 4 { o.o.' ` t.u.g.g.l.#X}.z s m.XX*X2X>X>X>X2X1XU.z z U.1X2X>X>X2X1XY.x O ",
"O x U.1X2X>X>X2X1XU.z z U.1X2X>X2X=XL.Z.Z.P.*XXXb.f % q o.w.w.q.q.9.9.;.i i :.9.w.w.w.q.q.<.<.p.~.K.F D .X5X2X>X>X>X>X2X1XU.k z U.1X2X>X>X2X1XY.x O ",
"O x U.1X2X>X>X2X1XU.z z U.1X2X>X2X@XL.Z.Z.L.%X*XXXm.f q ` 9.w.q.q.8.9.5.:.:.5.9.9.q.q.q.q.8.8.r.i.k.K..X*X2X>X>X>X>X>X2X1XU.k k F.1X2X>X>X2X1XY.x O ",
"O x U.1X2X>X>X2X1XU.z z U.1X2X>X2X@XL.Z.Z.L.@X1X4X.Xc.V f.p.s.q.q.s.p.p.r.r.p.h.h.p.s.q.q.q.q.8.<.g.].3X<X>X>X>X>X>X>X2X5X.XD D .X5X2X>X>X2X1XU.x O ",
"O x Y.1X2X>X>X2X1XU.z z U.1X2X>X2X=XL.Z.Z.L.@X2X1X&X.X).`.~.p.9.9.p.^.~.i.i.~.{.{.^.p.w.q.q.q.8.<.g.].3X<X>X>X>X>X>X>X2X1X*XXXXX*X1X2X>X>X2X1XY.x O ",
"O x Y.1X2X>X>X2X1XU.z z U.1X2X>X2X=XL.Z.Z.L.=X>X>X>X2X3X3X`.f.] ] d.H.I.k.k.I.}.}.H.d.' ' >.5.r.i.x.{.>X>X>X>X>X>X>X>X&X|.Y.R.R.U.|.&X>X>X2X1XY.x O ",
"O x Y.1X2X>X>X2X1XU.z z U.1X2X>X2X@XL.Z.Z.L.@X>X>X>X2X1X1X).V 0 w t l $.I.I.$.n A l t w 9 i ;.p.~.$X-X>X>X>X>X>X>X2X2X|.F z M M z F |.2X2X2X1XY.x O ",
"O x Y.1X2X>X>X2X1XU.z z U.1X2X>X>X@XL.Z.Z.L.@X>X>X>X>X2X1X).V 0 w 4 O x }.|.x X X @ 4 e 9 i ;.h.].<X<X>X>X>X>X>X>X2X5X.X$.s $ $ s D .X5X2X2X1XU.x O ",
"O x Y.1X2X>X>X2X1XU.z z U.1X2X>X>X@XL.Z.Z.L.@X>X>X>X>X>X<X`.f.` ` ( 5 z R.R.x X X 4 { ' ' ;.5.g.].<X<X>X>X>X>X>X>X2X1X*XXXm.s s m.XX*X1X2X2X1XU.x O ",
"O x Y.1X2X>X>X2X1XU.z z U.1X2X>X>X@XL.Z.Z.L.@X>X>X>X>X>X<X{.x.a.r.t.B c.XXXXv.z z B t.w.w.q.8.g.].<X>X>X>X>X>X>X>X&X.XR.(.N.h h N.(.R..X&X1X5XY.x O ",
"O x Y.1X2X>X>X2X1XU.z z U.1X2X>X2X=XL.Z.Z.L.@X2X>X>X>X>X>X-X$X~.i.u.G.XX&X&X.XY.R.G.u.q.q.q.8.g.].<X>X>X>X>X>X2X2X.XD x M h - - h M x D .X5X5XY.x O ",
"O x Y.1X2X>X>X2X1XU.z z U.1X2X>X2X@XL.Z.Z.L.@X2X>X>X>X>X>X<X<X].g.h.[.4X1X1X5X4X7X[.h.9.q.r.i.x.{.<X>X>X>X>X>X2X1XY.z X X # # # # X X z Y.4X4XY.x O ",
"O x U.1X2X>X>X2X1XU.z z U.1X2X>X2X@XL.Z.Z.L.@X2X>X>X>X>X>X<X<X].g.h.[.4X4X1X5X4X7X[.h.9.9.p.~.$X-X>X>X>X>X>X>X2X1XY.z X O # # # # X X z Y.4X4XY.x O ",
"O x U.1X2X>X>X2X1XU.z z U.1X2X>X>X@XL.Z.Z.L.=X2X>X>X>X>X>X3X1X`.f.-.H.R.R.Y.Y.R.R.H.d.` ` f.`.7X1X2X>X>X>X>X>X2X2X.X$.g * # # # # * g $..X5X5XY.x O ",
"O x U.1X2X>X>X2X1XU.z z U.1X2X>X>X@XL.Z.Z.L.@X>X>X>X>X>X>X3X4X_.V t l M m m M M A l t q q V _.4X4X2X>X>X>X>X>X>X>X*XXXm.d O # # X d m.XX*X1X1XY.x O ",
"O x U.1X2X>X>X2X1XU.z z U.1X2X>X>X@XL.Z.Z.L.@X>X>X>X>X>X2X*XXXA.b , + + > > + + > > + + , b A.R.R..X&X>X>X>X>X>X>X2X4XXXv.d % % d v.XX5X2X2X1XY.x O ",
"O x Y.1X2X>X>X2X1XU.z z U.1X2X>X>X=XL.Z.Z.L.@X>X>X>X>X2X5XXXc.v K H > > H H > > H H , , H K b z z D .X2X2X>X>X>X>X2X2X*XXXm.s s m.XX*X2X>X2X1XY.x O ",
"O x Y.1X2X>X>X2X1XU.z z U.1X2X>X>X@XL.Z.Z.L.@X2X>X>X>X&X.XC.N u U ^ 6 1 W W 1 6 ^ / u u / / L 5 O z Y.1X2X>X>X>X>X>X2X5X4XXXD D XX4X5X2X>X2X1XY.x O ",
"O x Y.1X2X>X>X2X1XU.z z U.1X2X>X>X@XL.Z.Z.L.=X2X>X2X2X|.c.N | O.2.X.w 1 W W 1 w X.2.O.O.@.2.O.( 5 z Y.1X2X>X>X>X>X>X2X5X4X*X.X.X*X4X5X2X>X2X1XY.x O ",
"O x Y.1X2X>X>X2X1XU.z z U.1X2X>X>X@XL.Z.Z.L.=X2X>X2X1XF.k 0 ` w.w.:.i u J J u i >.w.w.q.q.w.w.' q z T.1X2X>X>X>X>X&X.XY.Y..X*X*X.XY.Y..X&X1X5XY.x O ",
"O x Y.1X2X>X>X2X1XU.z z U.1X2X>X>X@XL.Z.Z.L.@X2X>X2X1XF.k 0 ` w.q.5.;. .8 8  .:.5.q.q.q.0.q.w.` 0 z T.1X2X>X>X2X2X.XD z z v.XXXXv.z z D .X5X5XY.x O ",
"O x Y.1X2X>X>X2X1XU.z z U.1X2X>X>X@XL.Z.Z.L.@X2X>X2X2X|.c.B t.9.9.r.p.f.p i ;.r.p.p.r.8.8.q.9.t.B c.|.2X2X>X>X2X1XY.z . . M (.(.M X X z Y.4X4XY.x O ",
"O x Y.1X2X>X>X2X1XU.z z U.1X2X>X>X@XL.Z.Z.L.@X2X>X>X>X&X XG.u.<.<.p.~./.y.,.1.p.~.~.p.<.<.8.<.u.G. X&X>X>X>X>X2X1XY.z . X M |.|.M X X x Y.4X4XY.x O ",
"O x Y.1X2X>X>X2X1XU.z z Y.4X5X2X2X@XL.Z.Z.L.@X2X2X2X2X1X4X#Xl.g.g.l.$X$Xz.h.h.l.$X$Xl.g.h.h.g.l.#X4X1X2X2X2X2X1X1X.Xb.g * h V.V.h O O M R.4X4XY.x O ",
"O x U.1X2X>X>X2X1XU.z z R.4X4X1X2X@XL.Z.Z.L.@X2X1X1X1X1X5X;X#X[.[.#X;X;X#X[.[.#X>X>X#X[.[.[.[.#X;X4X5X1X1X1X1X2X2X*X+XV.h - h h - O O M R.4X4XY.x O ",
"O x U.1X2X>X>X2X1XU.z s m.R.Y.|.&X=XL.S.D._.%X&X|.F.U.U.U.U.Y.R.R.Y.T.T.Y.R.R.Y.T.T.Y.R.R.R.Y.Y.T.U.U.U.U.U.F.|.&X*X+XV.h O X O # # O M R.4X4XY.x O ",
"O x U.1X2X>X>X2X1XY.z $ s z k D .X=XL.D.oX*X>X|.F k z z z z x x x x z z x x x x z z x x x x x x z z z z z k k D .XXXb.h - # O O # # O M R.4X4XY.x O ",
"O x U.1X2X>X>X2X2X.XD z z k k D .X&X_._.%X1X1X|.F k z z z z z z z z z z z z z z z z z z z z z z z z z z z k k D XXR.z X X - h h - O X x Y.4X4XY.x O ",
"O x Y.1X2X>X>X>X>X&X.XY.U.U.F.|.&X:X%X%X:X2X2X&X|.U.U.U.U.U.U.U.U.U.U.U.U.U.U.U.U.U.U.U.U.U.U.U.U.U.U.U.U.U.F..X*XY.z . X h V.V.h X X z Y.4X4XY.M O ",
"O M R.5X2X>X>X>X>X>X2X1X1X1X1X2X>X>X>X>X>X>X>X>X2X1X1X1X1X1X1X1X1X1X1X1X1X1X1X1X1X1X1X1X1X1X1X1X1X1X1X1X1X1X1X5X1X.XD z z b.+X+Xb.z z D .X4X4XR.M O ",
"O M R.4X1X>X>X>X>X>X2X2X2X2X2X2X>X>X>X>X>X>X>X>X2X2X2X2X2X2X2X2X2X2X2X2X2X2X2X2X2X2X2X2X2X2X2X2X2X2X2X2X2X2X2X2X2X&X.XY.Y..X*X*X.XY.Y..X&X5X4XR.M O ",
"O h m.XX*X1X2X2X2X2X2X2X2X2X2X2X2X2X2X2X2X2X2X2X2X2X2X2X2X2X2X2X2X2X2X2X2X2X2X2X2X2X2X2X2X2X2X2X2X2X2X2X2X2X2X2X2X2X5X4X4X5X2X1X5X4X4X4X5X*XXXm.h O ",
"# - g v.XX4X5X1X1X1X1X1X1X1X1X1X1X1X1X1X1X1X1X1X1X1X1X1X1X1X1X1X1X1X1X1X1X1X1X1X1X1X1X1X1X1X1X1X1X1X1X1X1X1X1X1X1X1X5X4X4X5X5X5X5X4X4X4X4XXXv.g - # ",
"& O X g m.R.R.Y.Y.Y.Y.Y.U.U.U.U.Y.Y.Y.Y.Y.Y.Y.Y.U.U.U.U.Y.Y.Y.Y.U.U.U.U.Y.Y.Y.Y.Y.Y.Y.Y.U.U.U.U.Y.Y.Y.Y.Y.Y.Y.Y.Y.U.U.U.Y.Y.Y.Y.Y.Y.Y.R.R.m.g X O & ",
"    O - h M M x x x x x x x x x x x x x x x x x x x x x x x x x x x x x x x x x x x x x x x x x x x x x x x x x x x x x x x x M x x x M M h - O     ",
"    & # O O O O O O O O O O O O O O O O O O O O O O O O O O O O O O O O O O O O O O O O O O O O O O O O O O O O O O O O O O O O O O O O O O # &     "
};
