/* XPM */
static char *spades_4[] = {
/* columns rows colors chars-per-pixel */
"74 104 134 2 ",
"   c None",
".  c #1A0028",
"X  c #1B0029",
"o  c #1C0029",
"O  c #1C002A",
"+  c #1D002A",
"@  c #1D002B",
"#  c #1E002B",
"$  c #1E002C",
"%  c #1F002C",
"&  c #20002D",
"*  c #20012D",
"=  c #21012D",
"-  c #21012E",
";  c #21022E",
":  c #22022F",
">  c #22032F",
",  c #23032F",
"<  c #230430",
"1  c #240430",
"2  c #250531",
"3  c #250631",
"4  c #250632",
"5  c #260632",
"6  c #260732",
"7  c #270833",
"8  c #2B0D37",
"9  c #2D0F38",
"0  c #2E1039",
"q  c #2F113A",
"w  c #30133B",
"e  c #32143C",
"r  c #33153D",
"t  c #452A4C",
"y  c #462B4D",
"u  c #462C4E",
"i  c #482D4F",
"p  c #482E4F",
"a  c #482E50",
"s  c #492F50",
"d  c #4A3051",
"f  c #4B3152",
"g  c #4C3253",
"h  c #4E3555",
"j  c #4F3555",
"k  c #523857",
"l  c #533A58",
"z  c #533A59",
"x  c #553D5B",
"c  c #563D5B",
"v  c #563E5B",
"b  c #573E5C",
"n  c #583F5D",
"m  c #58405D",
"M  c #59405D",
"N  c #59415E",
"B  c #5A425F",
"V  c #5B435F",
"C  c #7B677B",
"Z  c #7C697C",
"A  c #7D6A7D",
"S  c #7F6C7E",
"D  c #806C7F",
"F  c #806D7F",
"G  c #816E80",
"H  c #816F80",
"J  c #998A95",
"K  c #9B8B96",
"L  c #9B8C96",
"P  c #9C8C97",
"I  c #9C8D97",
"U  c #9F9099",
"Y  c #A0919A",
"T  c #C1B6B6",
"R  c #C2B8B7",
"E  c #C2B8B8",
"W  c #C3B9B8",
"Q  c #C3B9B9",
"!  c #C3BAB9",
"~  c #C4BAB9",
"^  c #C5BCBA",
"/  c #C6BCBB",
"(  c #C6BDBB",
")  c #C7BEBC",
"_  c #CAC1BF",
"`  c #CBC2BF",
"'  c #CCC3C0",
"]  c #CEC5C2",
"[  c #CFC7C3",
"{  c #D0C7C3",
"}  c #D0C8C3",
"|  c #D0C8C4",
" . c #D1C9C4",
".. c #D1C9C5",
"X. c #D1CAC5",
"o. c #D2CAC5",
"O. c #D2CBC6",
"+. c #D3CBC6",
"@. c #D4CCC7",
"#. c #D5CDC7",
"$. c #D5CDC8",
"%. c #D6CFC9",
"&. c #D7CFC9",
"*. c #E9E4D9",
"=. c #EAE5DA",
"-. c #EBE7DB",
";. c #ECE7DB",
":. c #ECE8DC",
">. c #EEEADD",
",. c #EFEADE",
"<. c #EFEBDE",
"1. c #F0ECDF",
"2. c #F1EDDF",
"3. c #F6F3E4",
"4. c #F7F4E5",
"5. c #F8F5E5",
"6. c #F8F5E6",
"7. c #F8F6E6",
"8. c #F9F6E7",
"9. c #F9F7E7",
"0. c #FAF7E7",
"q. c #FAF8E8",
"w. c #FBF8E8",
"e. c #FBF9E8",
"r. c #FBF9E9",
"t. c #FCF9E9",
"y. c #FCFAE9",
"u. c #FDFAEA",
"i. c #FDFBEA",
"p. c #FEFCEA",
"a. c #FEFCEB",
"s. c #FFFDEB",
"d. c #FFFEEC",
"f. c #FFFFED",
/* pixels */
"    7 4 , , , , , , , , , , , , , , , , , , , , , , , , , , , , , , , , , , , , , , , , , , , , , , , , , , , , , , , , , , , , , , , , , , 4 7     ",
"    , w f N N n n n n b n n n n n n n n n n n b n n n n n n n n n n n b n n n n n n n n n n n b n n n n n n n n n n n b n n n n n n n N N f w ,     ",
"7 , % a K ^ ~ R R T T T T T R T R R R R T T T T T T T T R R R R T T T T T T T T R R R R T T T T T T T T R R R R T T T T T T T T R R R ~ ^ K p % , 7 ",
"4 w a G #.d.d.a.a.i.r.r.i.a.a.i.i.r.r.r.r.r.r.r.r.r.r.r.r.r.r.r.r.r.r.r.r.r.r.r.r.r.r.r.r.r.r.r.r.r.r.r.r.r.r.r.r.r.r.r.r.r.r.r.r.r.r.i.a.#.G p w 4 ",
", f K #.,.r.i.a.a.i.q.q.i.a.a.i.r.9.9.9.9.9.9.9.9.9.9.9.9.9.9.9.9.9.9.9.9.9.9.9.9.9.9.9.9.9.9.9.9.9.9.9.9.9.9.9.9.9.9.9.9.9.9.9.9.9.9.9.r.,.#.K f , ",
", N ^ d.r.*.| W W | *.*.| R W | *.4.4.3.3.3.3.3.3.3.3.3.3.3.3.3.3.3.3.3.3.3.3.3.3.3.3.3.3.3.3.3.3.3.3.3.3.3.3.3.3.3.3.3.3.3.3.3.3.3.3.3.3.r.a.^ N , ",
", N ~ d.i.} S z z G #.#.G z z S | 9.9.3.3.3.3.3.3.3.3.3.3.3.3.3.3.3.3.3.3.3.3.3.3.3.3.3.3.3.3.3.3.3.3.3.3.3.3.3.3.3.3.3.3.3.3.3.3.3.3.3.3.9.i.~ N , ",
", n R a.a.W x . . N _ _ N . . x W r.9.3.3.3.3.3.3.3.3.3.3.3.3.3.3.3.3.3.3.3.3.3.3.3.3.3.3.3.3.3.3.3.3.3.3.3.3.3.3.3.3.3.3.3.3.3.3.3.3.3.3.9.r.R n , ",
", n R a.a.W b o o N ' ' V o o b W r.9.3.3.3.3.3.3.3.3.3.3.3.3.3.3.3.3.3.3.3.3.3.3.3.3.3.3.3.3.3.3.3.3.3.3.3.3.3.3.3.3.3.3.3.3.3.3.3.3.3.3.9.r.R b , ",
", n R a.a.W b o o g U Y j , , N ~ r.9.3.3.3.3.4.9.9.4.3.3.3.3.3.3.3.3.3.3.3.3.3.3.3.3.3.3.3.3.4.9.9.4.3.3.3.3.3.3.3.3.3.3.3.3.3.3.3.3.3.3.9.r.R b , ",
", n R a.a.W x o o q a f r , , N ~ r.9.3.3.3.3.4.9.9.4.3.3.3.3.3.3.3.3.3.3.3.3.3.3.3.3.3.3.3.3.4.9.9.4.3.3.3.3.3.3.3.3.3.3.3.3.3.3.3.3.3.3.9.r.R b , ",
", n R i.i.| S x b N x a r , , N ~ r.9.3.3.4.9.;.{ { ;.9.9.3.3.3.3.3.3.3.3.3.3.3.3.3.3.3.3.4.9.;.{ { ;.9.9.3.3.3.3.3.3.3.3.3.3.3.3.3.3.3.3.9.r.R b , ",
", n R r.r.*.| W W ^ ^ I g , , N ~ r.9.3.3.9.i.| S S | i.9.3.3.3.3.3.3.3.3.3.3.3.3.3.3.3.3.9.i.| S S | i.9.3.3.3.3.3.3.3.3.3.3.3.3.3.3.3.3.9.r.T b , ",
", n T r.9.4.9.r.r.a.d.) n o o b W r.9.4.9.,.#.K y y K #.,.9.9.3.3.3.3.3.3.3.3.3.3.3.3.9.9.,.#.K y y K #.,.9.4.3.3.3.3.3.3.3.3.3.3.3.3.3.3.9.r.T b , ",
", n T r.9.4.9.9.9.i.a.~ x . . x W r.9.9.i.&.G u 9 9 u G #.i.9.3.3.3.3.3.3.3.3.3.3.3.3.9.i.#.G p 9 9 u G #.i.9.3.3.3.3.3.3.3.3.3.3.3.3.3.3.9.r.T b , ",
", b T r.9.3.3.3.3.9.i.| S z z S | r.i.,.&.I p % < < % p I #.,.9.9.3.3.3.3.3.3.3.3.9.9.,.#.I p , < < % p I &.,.9.9.3.3.3.3.3.3.3.3.3.3.3.3.9.r.T b , ",
", n T r.9.3.3.3.3.9.r.,.| R W } *.r.a.#.G p q < 4 4 < q p G #.i.9.3.3.3.3.3.3.3.3.9.i.#.G p q < 4 4 4 q p G #.i.9.3.3.3.3.3.3.3.3.3.3.3.3.9.r.R n , ",
", n T r.9.3.3.9.9.*.[ | ,.a.i.r.9.,.#.L p % < 7 7 7 7 < , a I #.,.4.4.3.3.3.3.4.4.,.#.I p % < 7 7 7 7 < % p I #.,.4.4.3.3.3.3.3.3.3.3.3.3.9.r.R n , ",
", n T r.9.3.3.9.i.| S S #.d.i.r.r.| F p q < 4 7 7 7 7 4 < q a F | 9.9.3.3.3.3.9.9.| F a q < 4 7 7 7 7 4 < q a F | 9.9.3.3.3.3.3.3.3.3.3.3.9.r.R n , ",
", n T r.9.4.9.,.#.K y y K &.,.i.i.R z o , 7 7 7 7 7 7 7 7 , o z W r.9.3.3.3.3.9.r.R z o , 7 7 7 7 7 7 7 7 , o z W r.9.3.3.3.3.3.3.3.3.3.3.9.r.R n , ",
", n R r.9.9.i.#.G u 9 9 u G &.d.a.W z o , 7 7 7 7 7 7 7 7 , o z W r.9.3.3.3.3.9.r.W z o , 7 7 7 7 7 7 7 7 , o z W r.9.3.3.3.3.3.3.3.3.3.3.9.r.R n , ",
", n R i.r.,.#.I p % < < , a I &.2.| G a q , < 4 4 4 4 < , q a F | 9.9.3.3.3.3.9.9.| F a q , < 4 4 4 4 < , q a F | 9.9.3.3.3.3.3.3.3.3.3.3.9.r.R n , ",
", n R i.i.| F a q < 4 4 4 q a G | 2.&.I p o , < 4 4 < , o a I #.,.4.4.3.3.3.3.4.4.,.#.I a % , < 4 4 < , % a I #.,.4.4.3.3.3.3.3.3.3.3.3.3.9.r.R n , ",
", n T a.a.W z . % 4 4 4 4 , . z R a.d.#.F b N j r r j N b F #.i.9.3.3.3.3.3.3.3.3.9.a.#.F b N j r r j N b F #.i.9.3.3.3.3.3.3.3.3.3.3.3.3.9.r.R n , ",
", n T a.a.W z . o < 4 4 4 % . z W i.i.,.| ^ _ Y f f Y _ ^ | ,.9.4.3.3.3.3.3.3.3.3.4.9.,.| ^ _ Y f f U _ ^ | ,.9.4.3.3.3.3.3.3.3.3.3.3.3.3.9.r.R b , ",
", n T i.i.| S b N j r r j N b S | 9.9.9.r.2.&.L u u L &.2.r.9.3.3.3.3.3.3.3.3.3.3.3.3.9.r.2.&.L u u L &.2.r.9.3.3.3.3.3.3.3.3.3.3.3.3.3.3.9.r.R b , ",
", n T r.r.*.} ^ _ Y f f Y _ ^ | *.4.4.9.i.| S y 8 8 y F | i.9.3.3.3.3.3.3.3.3.3.3.3.3.9.i.| S y 8 8 y S | i.9.3.3.3.3.3.3.3.3.3.3.3.3.3.3.9.r.R b , ",
", b T r.9.9.r.2.&.L u u L &.2.r.9.3.3.9.9.[ C k x x k C [ 9.9.3.3.3.3.3.3.3.3.3.3.3.3.9.9.[ C k x x k C [ 9.9.3.3.3.3.3.3.3.3.3.3.3.3.3.3.9.r.R b , ",
", n T r.9.9.i.| F y 8 8 y S | i.9.3.3.4.4.*.[ T W W T [ *.4.4.3.3.3.3.3.3.3.3.3.3.3.3.4.4.*.[ T W W T [ *.4.4.3.3.3.3.3.3.3.3.3.3.3.3.3.3.9.r.T b , ",
", n T r.9.9.9.[ C k x x k C [ 9.9.3.3.3.3.4.9.r.r.r.r.9.4.3.3.3.3.3.3.3.3.3.3.3.3.3.3.3.3.4.9.r.r.r.r.9.4.3.3.3.3.3.3.3.3.3.3.3.3.3.3.3.3.9.r.T b , ",
", n R r.9.4.4.*.[ T W W T [ *.4.4.3.3.3.3.4.9.9.9.9.9.9.4.3.3.3.3.3.3.3.3.3.3.3.3.3.3.3.3.4.9.9.9.9.9.9.4.3.3.3.3.3.3.3.3.3.3.3.3.3.3.3.3.9.r.T b , ",
", n T r.9.3.3.4.9.r.r.r.r.9.4.3.3.3.3.3.3.3.3.3.3.3.3.3.3.3.3.3.3.3.3.3.3.3.3.3.3.3.3.3.3.3.3.3.3.3.3.3.3.3.3.3.3.3.3.3.3.3.3.3.3.3.3.3.3.9.r.T b , ",
", n R r.9.3.3.4.9.9.9.9.9.9.4.3.3.3.3.3.3.3.3.3.3.3.3.3.3.3.3.3.3.3.3.3.3.3.3.3.3.3.3.3.3.3.3.3.3.3.3.3.3.3.3.3.3.3.3.3.3.3.3.3.3.3.3.3.3.9.r.R n , ",
", n R r.9.3.3.3.3.3.3.3.3.3.3.3.3.3.3.3.3.3.3.3.3.3.3.3.3.3.3.3.3.3.3.3.3.3.3.3.3.3.3.3.3.3.3.3.3.3.3.3.3.3.3.3.3.3.3.3.3.3.3.3.3.3.3.3.3.9.r.R n , ",
", n R r.9.3.3.3.3.3.3.3.3.3.3.3.3.3.3.3.3.3.3.3.3.3.3.3.3.3.3.3.3.3.3.3.3.3.3.3.3.3.3.3.3.3.3.3.3.3.3.3.3.3.3.3.3.3.3.3.3.3.3.3.3.3.3.3.3.9.r.R n , ",
", n R r.9.3.3.3.3.3.3.3.3.3.3.3.3.3.3.3.3.3.3.3.3.3.3.3.3.3.3.3.3.3.3.3.3.3.3.3.3.3.3.3.3.3.3.3.3.3.3.3.3.3.3.3.3.3.3.3.3.3.3.3.3.3.3.3.3.9.r.R n , ",
", n T r.9.3.3.3.3.3.3.3.3.3.3.3.3.3.3.3.3.3.3.3.3.3.3.3.3.3.3.3.3.3.3.3.3.3.3.3.3.3.3.3.3.3.3.3.3.3.3.3.3.3.3.3.3.3.3.3.3.3.3.3.3.3.3.3.3.9.r.R n , ",
", n T r.9.3.3.3.3.3.3.3.3.3.3.3.3.3.3.3.3.3.3.3.3.3.3.3.3.3.3.3.3.3.3.3.3.3.3.3.3.3.3.3.3.3.3.3.3.3.3.3.3.3.3.3.3.3.3.3.3.3.3.3.3.3.3.3.3.9.r.R n , ",
", n T r.9.3.3.3.3.3.3.3.3.3.3.3.3.3.3.3.3.3.3.3.3.3.3.3.3.3.3.3.3.3.3.3.3.3.3.3.3.3.3.3.3.3.3.3.3.3.3.3.3.3.3.3.3.3.3.3.3.3.3.3.3.3.3.3.3.9.r.R n , ",
", b T r.9.3.3.3.3.3.3.3.3.3.3.3.3.3.3.3.3.3.3.3.3.3.3.3.3.3.3.3.3.3.3.3.3.3.3.3.3.3.3.3.3.3.3.3.3.3.3.3.3.3.3.3.3.3.3.3.3.3.3.3.3.3.3.3.3.9.r.R n , ",
", n T r.9.3.3.3.3.3.3.3.3.3.3.3.3.3.3.3.3.3.3.3.3.3.3.3.3.3.3.3.3.3.3.3.3.3.3.3.3.3.3.3.3.3.3.3.3.3.3.3.3.3.3.3.3.3.3.3.3.3.3.3.3.3.3.3.3.9.r.R b , ",
", n T r.9.3.3.3.3.3.3.3.3.3.3.3.3.3.3.3.3.3.3.3.3.3.3.3.3.3.3.3.3.3.3.3.3.3.3.3.3.3.3.3.3.3.3.3.3.3.3.3.3.3.3.3.3.3.3.3.3.3.3.3.3.3.3.3.3.9.r.R b , ",
", n T r.9.3.3.3.3.3.3.3.3.3.3.3.3.3.3.3.3.3.3.3.3.3.3.3.3.3.3.3.3.3.3.3.3.3.3.3.3.3.3.3.3.3.3.3.3.3.3.3.3.3.3.3.3.3.3.3.3.3.3.3.3.3.3.3.3.9.r.R b , ",
", n T r.9.3.3.3.3.3.3.3.3.3.3.3.3.3.3.3.3.3.3.3.3.3.3.3.3.3.3.3.3.3.3.3.3.3.3.3.3.3.3.3.3.3.3.3.3.3.3.3.3.3.3.3.3.3.3.3.3.3.3.3.3.3.3.3.3.9.r.R b , ",
", n R r.9.3.3.3.3.3.3.3.3.3.3.3.3.3.3.3.3.3.3.3.3.3.3.3.3.3.3.3.3.3.3.3.3.3.3.3.3.3.3.3.3.3.3.3.3.3.3.3.3.3.3.3.3.3.3.3.3.3.3.3.3.3.3.3.3.9.r.T b , ",
", n R r.9.3.3.3.3.3.3.3.3.3.3.3.3.3.3.3.3.3.3.3.3.3.3.3.3.3.3.3.3.3.3.3.3.3.3.3.3.3.3.3.3.3.3.3.3.3.3.3.3.3.3.3.3.3.3.3.3.3.3.3.3.3.3.3.3.9.r.T b , ",
", n R r.9.3.3.3.3.3.3.3.3.3.3.3.3.3.3.3.3.3.3.3.3.3.3.3.3.3.3.3.3.3.3.3.3.3.3.3.3.3.3.3.3.3.3.3.3.3.3.3.3.3.3.3.3.3.3.3.3.3.3.3.3.3.3.3.3.9.r.T b , ",
", n R r.9.3.3.3.3.3.3.3.3.3.3.3.3.3.3.3.3.3.3.3.3.3.3.3.3.3.3.3.3.3.3.3.3.3.3.3.3.3.3.3.3.3.3.3.3.3.3.3.3.3.3.3.3.3.3.3.3.3.3.3.3.3.3.3.3.9.r.T b , ",
", n T r.9.3.3.3.3.3.3.3.3.3.3.3.3.3.3.3.3.3.3.3.3.3.3.3.3.3.3.3.3.3.3.3.3.3.3.3.3.3.3.3.3.3.3.3.3.3.3.3.3.3.3.3.3.3.3.3.3.3.3.3.3.3.3.3.3.9.r.R n , ",
", n T r.9.3.3.3.3.3.3.3.3.3.3.3.3.3.3.3.3.3.3.3.3.3.3.3.3.3.3.3.3.3.3.3.3.3.3.3.3.3.3.3.3.3.3.3.3.3.3.3.3.3.3.3.3.3.3.3.3.3.3.3.3.3.3.3.3.9.r.R n , ",
", n T r.9.3.3.3.3.3.3.3.3.3.3.3.3.3.3.3.3.3.3.3.3.3.3.3.3.3.3.3.3.3.3.3.3.3.3.3.3.3.3.3.3.3.3.3.3.3.3.3.3.3.3.3.3.3.3.3.3.3.3.3.3.3.3.3.3.9.r.R n , ",
", b T r.9.3.3.3.3.3.3.3.3.3.3.3.3.3.3.3.3.3.3.3.3.3.3.3.3.3.3.3.3.3.3.3.3.3.3.3.3.3.3.3.3.3.3.3.3.3.3.3.3.3.3.3.3.3.3.3.3.3.3.3.3.3.3.3.3.9.r.R n , ",
", n T r.9.3.3.3.3.3.3.3.3.3.3.3.3.3.3.3.3.3.3.3.3.3.3.3.3.3.3.3.3.3.3.3.3.3.3.3.3.3.3.3.3.3.3.3.3.3.3.3.3.3.3.3.3.3.3.3.3.3.3.3.3.3.3.3.3.9.r.R n , ",
", n T r.9.3.3.3.3.3.3.3.3.3.3.3.3.3.3.3.3.3.3.3.3.3.3.3.3.3.3.3.3.3.3.3.3.3.3.3.3.3.3.3.3.3.3.3.3.3.3.3.3.3.3.3.3.3.3.3.3.3.3.3.3.3.3.3.3.9.r.R n , ",
", n T r.9.3.3.3.3.3.3.3.3.3.3.3.3.3.3.3.3.3.3.3.3.3.3.3.3.3.3.3.3.3.3.3.3.3.3.3.3.3.3.3.3.3.3.3.3.3.3.3.3.3.3.3.3.3.3.3.3.3.3.3.3.3.3.3.3.9.r.R n , ",
", n T r.9.3.3.3.3.3.3.3.3.3.3.3.3.3.3.3.3.3.3.3.3.3.3.3.3.3.3.3.3.3.3.3.3.3.3.3.3.3.3.3.3.3.3.3.3.3.3.3.3.3.3.3.3.3.3.3.3.3.3.3.3.3.3.3.3.9.r.R n , ",
", n R r.9.3.3.3.3.3.3.3.3.3.3.3.3.3.3.3.3.3.3.3.3.3.3.3.3.3.3.3.3.3.3.3.3.3.3.3.3.3.3.3.3.3.3.3.3.3.3.3.3.3.3.3.3.3.3.3.3.3.3.3.3.3.3.3.3.9.r.R n , ",
", n R r.9.3.3.3.3.3.3.3.3.3.3.3.3.3.3.3.3.3.3.3.3.3.3.3.3.3.3.3.3.3.3.3.3.3.3.3.3.3.3.3.3.3.3.3.3.3.3.3.3.3.3.3.3.3.3.3.3.3.3.3.3.3.3.3.3.9.r.R n , ",
", n R r.9.3.3.3.3.3.3.3.3.3.3.3.3.3.3.3.3.3.3.3.3.3.3.3.3.3.3.3.3.3.3.3.3.3.3.3.3.3.3.3.3.3.3.3.3.3.3.3.3.3.3.3.3.3.3.3.3.3.3.3.3.3.3.3.3.9.r.R n , ",
", n R r.9.3.3.3.3.3.3.3.3.3.3.3.3.3.3.3.3.3.3.3.3.3.3.3.3.3.3.3.3.3.3.3.3.3.3.3.3.3.3.3.3.3.3.3.3.3.3.3.3.3.3.3.3.3.3.3.3.3.3.3.3.3.3.3.3.9.r.R n , ",
", n T r.9.3.3.3.3.3.3.3.3.3.3.3.3.3.3.3.3.3.3.3.3.3.3.3.3.3.3.3.3.3.3.3.3.3.3.3.3.3.3.3.3.3.3.3.3.3.3.3.3.3.3.3.3.3.3.3.3.3.3.3.3.3.3.3.3.9.r.T n , ",
", n T r.9.3.3.3.3.3.3.3.3.3.3.3.3.3.3.3.3.3.3.3.3.3.3.3.3.3.3.3.3.3.3.3.3.3.3.3.3.3.3.3.3.3.3.3.3.3.3.3.3.3.3.3.3.3.3.3.3.3.3.3.3.3.3.3.3.9.r.T n , ",
", n T r.9.3.3.3.3.3.3.3.3.3.3.3.3.3.3.3.3.3.3.3.3.3.3.3.3.3.3.3.3.3.3.3.3.3.3.3.3.3.3.3.3.3.3.3.3.3.3.3.3.3.3.3.3.3.3.3.3.3.3.3.3.3.3.3.3.9.r.T b , ",
", b T r.9.3.3.3.3.3.3.3.3.3.3.3.3.3.3.3.3.3.3.3.3.3.3.3.3.3.3.3.3.3.3.3.3.3.3.3.3.3.3.3.3.3.3.3.3.3.3.3.3.3.3.3.3.3.3.3.3.3.3.3.3.3.3.3.3.9.r.T b , ",
", n T r.9.3.3.3.3.3.3.3.3.3.3.3.3.3.3.3.3.3.3.3.3.3.3.3.3.3.3.3.3.3.3.3.3.3.3.3.3.3.3.3.3.3.3.3.3.3.3.3.3.3.3.3.3.3.3.3.3.3.3.3.3.3.3.3.3.9.r.R b , ",
", n T r.9.3.3.3.3.3.3.3.3.3.3.3.3.3.3.3.3.3.3.3.3.3.3.3.3.3.3.3.3.3.3.3.3.3.3.3.3.3.3.3.3.3.3.3.3.3.3.3.3.3.3.3.3.3.3.3.3.3.3.3.3.3.3.3.3.9.r.R b , ",
", n T r.9.3.3.3.3.3.3.3.3.3.3.3.3.3.3.3.3.3.3.3.3.3.3.3.3.3.3.3.3.3.3.3.3.3.3.3.3.3.3.3.3.3.3.3.3.3.3.3.3.3.3.3.3.3.3.3.3.3.3.3.3.3.3.3.3.9.r.R b , ",
", n T r.9.3.3.3.3.3.3.3.3.3.3.3.3.3.3.3.3.3.3.3.3.3.3.3.3.3.3.3.3.3.3.3.3.3.3.3.3.3.3.3.3.3.3.3.3.3.3.3.3.3.3.3.3.3.3.3.3.3.3.3.3.3.3.3.3.9.r.R b , ",
", n R r.9.3.3.3.3.3.3.3.3.3.3.3.3.3.3.3.3.3.3.3.3.3.3.3.3.3.3.3.3.3.3.3.3.3.3.3.3.3.3.3.3.3.3.3.3.3.3.3.3.3.3.3.3.3.3.3.3.3.3.3.3.3.3.3.3.9.r.R n , ",
", n R r.9.3.3.3.3.3.3.3.3.3.3.3.3.3.3.3.3.3.3.3.3.3.3.3.3.3.3.3.3.3.3.3.3.3.3.3.3.3.3.3.3.3.3.3.3.3.3.3.3.3.3.3.3.3.3.3.3.3.3.3.3.3.3.3.3.9.r.R b , ",
", n R r.9.3.3.3.3.3.3.3.3.3.3.3.3.3.3.3.3.3.3.3.3.3.3.3.3.3.3.3.3.3.3.3.3.3.3.3.3.3.3.3.3.3.3.3.3.3.3.3.3.3.3.3.3.3.3.3.3.3.3.3.3.3.3.3.3.9.r.R b , ",
", n R r.9.3.3.3.3.3.3.3.3.3.3.3.3.3.3.3.3.3.3.3.3.3.3.3.3.3.3.3.3.3.3.3.3.3.3.3.3.3.3.3.3.3.3.3.3.3.3.3.3.3.3.3.3.3.3.4.9.9.9.9.9.9.4.3.3.9.r.R b , ",
", n T r.9.3.3.3.3.3.3.3.3.3.3.3.3.3.3.3.3.3.3.3.3.3.3.3.3.3.3.3.3.3.3.3.3.3.3.3.3.3.3.3.3.3.3.3.3.3.3.3.3.3.3.3.3.3.3.4.9.r.r.r.r.9.4.3.3.9.r.R n , ",
", n T r.9.3.3.3.3.3.3.3.3.3.3.3.3.3.3.3.3.4.9.9.9.9.9.9.4.3.3.3.3.3.3.3.3.3.3.3.3.3.3.3.3.4.9.9.9.9.9.9.4.3.3.3.3.4.4.*.[ T W W T [ *.4.4.9.r.R n , ",
", n T r.9.3.3.3.3.3.3.3.3.3.3.3.3.3.3.3.3.4.9.r.r.r.r.9.4.3.3.3.3.3.3.3.3.3.3.3.3.3.3.3.3.4.9.r.r.r.r.9.4.3.3.3.3.9.9.[ C k x x k C [ 9.9.9.r.R n , ",
", b T r.9.3.3.3.3.3.3.3.3.3.3.3.3.3.3.4.4.*.[ T W W T [ *.4.4.3.3.3.3.3.3.3.3.3.3.3.3.4.4.*.[ T W W T [ *.4.4.3.3.9.i.| F y 8 8 y S | i.9.9.r.R n , ",
", n T r.9.3.3.3.3.3.3.3.3.3.3.3.3.3.3.9.9.[ C k x x k C [ 9.9.3.3.3.3.3.3.3.3.3.3.3.3.9.9.[ C k x x k C [ 9.9.3.3.9.r.2.&.L u u L &.2.r.9.9.r.R n , ",
", n T r.9.3.3.3.3.3.3.3.3.3.3.3.3.3.3.9.i.| F y 8 8 y S | i.9.3.3.3.3.3.3.3.3.3.3.3.3.9.i.| S y 8 8 y S | i.9.4.4.*.} ^ _ Y f f Y _ ^ | *.r.i.R n , ",
", n T r.9.3.3.3.3.3.3.3.3.3.3.3.3.3.3.9.r.2.&.L u u L &.2.r.9.3.3.3.3.3.3.3.3.3.3.3.3.9.r.2.&.L u u L &.2.r.9.9.9.| S b N j r r j N b S | i.i.R n , ",
", n T r.9.3.3.3.3.3.3.3.3.3.3.3.3.4.9.,.| ^ _ Y f f Y _ ^ | ,.9.4.3.3.3.3.3.3.3.3.4.9.,.| ^ _ U f f U _ ^ | ,.i.i.W z . o < 4 4 4 o . z W a.a.R n , ",
", n R r.9.3.3.3.3.3.3.3.3.3.3.3.3.9.i.#.F b N j r r j N b F #.i.9.3.3.3.3.3.3.3.3.9.i.#.F b N j r r j N b F #.d.a.R z . % 4 4 4 4 % . z W a.a.R b , ",
", n R r.9.3.3.3.3.3.3.3.3.3.3.4.4.,.#.I a % , < 4 4 < , % a I #.,.4.4.3.3.3.3.4.4.,.#.I a o , < 4 4 < , o a I &.2.| G a q < 4 4 < q p F | i.i.R b , ",
", n R r.9.3.3.3.3.3.3.3.3.3.3.9.9.| F p q , < 4 4 4 4 < , q p F | 9.9.3.3.3.3.9.9.| F a q , < 4 4 4 4 < , q a G | 2.&.I p % 4 < % p I #.,.r.r.R b , ",
", n R r.9.3.3.3.3.3.3.3.3.3.3.9.r.W z o , 7 7 7 7 7 7 7 7 , o z R r.9.3.3.3.3.9.r.R z o , 7 7 7 7 7 7 7 7 , o z W a.d.#.G u 9 9 p G #.i.9.9.r.R b , ",
", n T r.9.3.3.3.3.3.3.3.3.3.3.9.r.R z o , 7 7 7 7 7 7 7 7 , o z W r.9.3.3.3.3.9.r.R z o , 7 7 7 7 7 7 7 7 , o z W i.i.,.&.K y y K #.,.9.4.9.r.R b , ",
", n T r.9.3.3.3.3.3.3.3.3.3.3.9.9.| F a q < 4 7 7 7 7 4 < q a F | 9.9.3.3.3.3.9.9.| F a q < 4 7 7 7 7 4 < q p F | r.r.i.d.#.S S | i.9.3.3.9.r.R n , ",
", n T r.9.3.3.3.3.3.3.3.3.3.3.4.4.,.#.I p % < 7 7 7 7 < % p I #.,.4.4.3.3.3.3.4.4.,.#.I p % < 7 7 7 7 < % p I #.,.9.r.i.a.,.| [ *.9.4.3.3.9.r.T b , ",
", b T r.9.3.3.3.3.3.3.3.3.3.3.3.3.9.i.#.G p q < 4 4 < q p G #.i.9.3.3.3.3.3.3.3.3.9.i.&.G p q < 4 4 4 q p G #.a.r.*.| W R | ,.r.9.3.3.3.3.9.r.T b , ",
", n T r.9.3.3.3.3.3.3.3.3.3.3.3.3.9.9.,.#.I p , < 4 % p L #.,.9.9.3.3.3.3.3.3.3.3.9.9.,.#.I p , < 4 % p L #.,.i.r.} S z z F | i.9.3.3.3.3.9.r.R b , ",
", n T r.9.3.3.3.3.3.3.3.3.3.3.3.3.3.3.9.i.&.G p 9 9 u G #.i.9.3.3.3.3.3.3.3.3.3.3.3.3.9.i.&.G p 9 9 u G #.i.9.9.r.W x . . x ^ a.i.9.9.9.4.9.r.R n , ",
", n T r.9.3.3.3.3.3.3.3.3.3.3.3.3.3.3.4.9.,.&.K y y K #.,.9.9.3.3.3.3.3.3.3.3.3.3.3.3.4.9.,.&.K y y K #.,.9.9.9.r.W b o o n ) d.a.r.r.9.4.9.r.R b , ",
", n T r.9.3.3.3.3.3.3.3.3.3.3.3.3.3.3.3.3.9.i.| S S | i.9.3.3.3.3.3.3.3.3.3.3.3.3.3.3.3.3.9.i.| S S | i.9.3.3.9.r.~ N , , g I ^ ^ W W | *.r.i.R n , ",
", n R r.9.3.3.3.3.3.3.3.3.3.3.3.3.3.3.3.3.4.9.;.{ { ;.9.9.3.3.3.3.3.3.3.3.3.3.3.3.3.3.3.3.4.9.;.{ { ;.9.4.3.3.9.r.~ N , , r a x N b x S | i.i.R b , ",
", n R r.9.3.3.3.3.3.3.3.3.3.3.3.3.3.3.3.3.3.3.4.9.9.4.3.3.3.3.3.3.3.3.3.3.3.3.3.3.3.3.3.3.3.3.4.9.9.4.3.3.3.3.9.r.~ N , , r f a q o o x W a.a.R n , ",
", n R r.9.3.3.3.3.3.3.3.3.3.3.3.3.3.3.3.3.3.3.4.9.9.4.3.3.3.3.3.3.3.3.3.3.3.3.3.3.3.3.3.3.3.3.4.9.9.4.3.3.3.3.9.r.~ N , , j Y U g o o b W a.a.R b , ",
", n R r.9.3.3.3.3.3.3.3.3.3.3.3.3.3.3.3.3.3.3.3.3.3.3.3.3.3.3.3.3.3.3.3.3.3.3.3.3.3.3.3.3.3.3.3.3.3.3.3.3.3.3.9.r.W b o o N [ [ V o o b W a.a.R n , ",
", n T r.9.3.3.3.3.3.3.3.3.3.3.3.3.3.3.3.3.3.3.3.3.3.3.3.3.3.3.3.3.3.3.3.3.3.3.3.3.3.3.3.3.3.3.3.3.3.3.3.3.3.3.9.r.W x . . N _ _ N . . x W a.a.R n , ",
", N ~ i.9.3.3.3.3.3.3.3.3.3.3.3.3.3.3.3.3.3.3.3.3.3.3.3.3.3.3.3.3.3.3.3.3.3.3.3.3.3.3.3.3.3.3.3.3.3.3.3.3.3.3.9.9.| S z z G #.#.G z z S } i.d.~ N , ",
", N ^ a.q.3.3.3.3.3.3.3.3.3.3.3.3.3.3.3.3.3.3.3.3.3.3.3.3.3.3.3.3.3.3.3.3.3.3.3.3.3.3.3.3.3.3.3.3.3.3.3.3.3.3.4.4.*.| W R | *.*.| W W | *.r.d.^ N , ",
", f K #.,.q.9.9.9.9.9.9.9.9.9.9.9.9.9.9.9.9.9.9.9.9.9.9.9.9.9.9.9.9.9.9.9.9.9.9.9.9.9.9.9.9.9.9.9.9.9.9.9.9.9.9.9.r.i.a.a.i.9.q.i.a.a.i.r.,.#.K f , ",
"4 w p G #.a.i.r.r.r.r.r.r.r.r.r.r.r.r.r.r.r.r.r.r.r.r.r.r.r.r.r.r.r.r.r.r.r.r.r.r.r.r.r.r.r.r.r.r.r.r.r.r.r.r.r.r.i.i.a.a.i.r.r.i.a.a.d.d.#.G p w 4 ",
"7 , % p K ^ ~ R T T T T R R R R T T T T T R R R R R R R T T T R R R R R T T T R T T T T R R R R T T T T T R R R R R R T T T R R R R R ~ ^ K p % , 7 ",
"    , w f N N n b n n n n n n n n n n n b b n n n n n n b n n n n n n n b n n n b n n n n n n n n n n n b b n n n n n n b n n n n n n N N f w ,     ",
"    7 4 , , , , , , , , , , , , , , , , , , , , , , , , , , , , , , , , , , , , , , , , , , , , , , , , , , , , , , , , , , , , , , , , , , 4 7     "
};
