/* XPM */
static char *spades_2[] = {
/* columns rows colors chars-per-pixel */
"74 104 138 2 ",
"   c None",
".  c #1B0029",
"X  c #1C002A",
"o  c #1D002A",
"O  c #1E002B",
"+  c #1E002C",
"@  c #1F002C",
"#  c #20002D",
"$  c #20012D",
"%  c #21012D",
"&  c #21012E",
"*  c #22022F",
"=  c #22032F",
"-  c #23032F",
";  c #230430",
":  c #240430",
">  c #250531",
",  c #250631",
"<  c #250632",
"1  c #260632",
"2  c #260732",
"3  c #270833",
"4  c #2B0D37",
"5  c #2D0F38",
"6  c #2E1039",
"7  c #2F113A",
"8  c #30133B",
"9  c #33153D",
"0  c #452A4C",
"q  c #462B4D",
"w  c #462C4E",
"e  c #482D4F",
"r  c #482E4F",
"t  c #482E50",
"y  c #4A3051",
"u  c #4B3152",
"i  c #4F3555",
"p  c #503756",
"a  c #523857",
"s  c #523858",
"d  c #533A58",
"f  c #533A59",
"g  c #543B59",
"h  c #543B5A",
"j  c #553C5A",
"k  c #553D5B",
"l  c #563D5B",
"z  c #563E5C",
"x  c #573E5C",
"c  c #583F5D",
"v  c #58405D",
"b  c #59405D",
"n  c #59415E",
"m  c #5A415E",
"M  c #5A425E",
"N  c #5A425F",
"B  c #5C4460",
"V  c #7B677B",
"C  c #7B687B",
"Z  c #7C697C",
"A  c #7D6A7D",
"S  c #7F6C7E",
"D  c #7F6C7F",
"F  c #806C7F",
"G  c #806D7F",
"H  c #816E80",
"J  c #816F80",
"K  c #998A95",
"L  c #9B8B96",
"P  c #9B8C96",
"I  c #9C8C97",
"U  c #9C8D97",
"Y  c #9F9099",
"T  c #A0919A",
"R  c #C0B5B6",
"E  c #C0B6B6",
"W  c #C1B6B6",
"Q  c #C1B7B7",
"!  c #C2B8B7",
"~  c #C2B8B8",
"^  c #C3B9B8",
"/  c #C3B9B9",
"(  c #C3BAB9",
")  c #C4BAB9",
"_  c #C5BBBA",
"`  c #C5BCBA",
"'  c #C6BCBB",
"]  c #C6BDBB",
"[  c #C8BFBD",
"{  c #CAC1BE",
"}  c #CAC1BF",
"|  c #CBC2BF",
" . c #CEC5C2",
".. c #CFC7C3",
"X. c #D0C7C3",
"o. c #D0C8C3",
"O. c #D0C8C4",
"+. c #D1C9C4",
"@. c #D1CAC5",
"#. c #D2CAC5",
"$. c #D3CBC6",
"%. c #D4CCC7",
"&. c #D4CDC7",
"*. c #D5CDC7",
"=. c #D5CDC8",
"-. c #D7CFC9",
";. c #E9E4D9",
":. c #EAE5DA",
">. c #EAE6DA",
",. c #EBE7DB",
"<. c #ECE7DB",
"1. c #ECE8DC",
"2. c #EFEADE",
"3. c #EFEBDE",
"4. c #F0EDDF",
"5. c #F1EDDF",
"6. c #F6F3E4",
"7. c #F7F4E5",
"8. c #F8F5E5",
"9. c #F8F5E6",
"0. c #F8F6E6",
"q. c #F9F6E7",
"w. c #F9F7E7",
"e. c #FAF7E7",
"r. c #FAF8E8",
"t. c #FBF8E8",
"y. c #FBF9E8",
"u. c #FBF9E9",
"i. c #FCF9E9",
"p. c #FCFAE9",
"a. c #FCFAEA",
"s. c #FDFBEA",
"d. c #FEFCEA",
"f. c #FEFCEB",
"g. c #FEFDEB",
"h. c #FFFDEB",
"j. c #FFFEEC",
"k. c #FFFFED",
/* pixels */
"    3 < - - - - - - - - - - - - - - - - - - - - - - - - - - - - - - - - - - - - - - - - - - - - - - - - - - - - - - - - - - - - - - - - - - < 3     ",
"    - 8 u n n c c c c x c c n c c c c c c c c x c c c c c c c c c c c x c c c c c c c c c c c x c c c c c c c c c c c x c c c c c c c n n u 8 -     ",
"3 - @ t L ' ) ! ! R R R R R ! ! ! ! R ! R R R R R R ! R ! ! ! ! R R R R R R ! R ! ! ! ! R R R R R R ! R ! ! ! ! R R R R R R ! R ! ! ! ) ' L r @ - 3 ",
"< 8 t H &.j.j.f.f.f.f.f.s.f.f.s.u.u.u.u.u.u.u.u.u.u.u.u.u.u.u.u.u.u.u.u.u.u.u.u.u.u.u.u.u.u.u.u.u.u.u.u.u.u.u.u.u.u.u.u.u.u.u.u.u.u.u.s.f.&.H r 8 < ",
"- u L &.2.u.s.f.f.f.f.f.f.f.f.s.u.e.e.e.e.e.e.e.e.e.e.e.e.e.e.e.e.e.e.e.e.e.e.e.e.e.e.e.e.e.e.e.e.e.e.e.e.e.e.e.e.e.e.e.e.e.e.e.e.e.e.e.u.2.&.L u - ",
"- n ' j.u.;...R R R R ! / / / O.;.7.7.6.6.6.6.6.6.6.6.6.6.6.6.6.6.6.6.6.6.6.6.6.6.6.6.6.6.6.6.6.6.6.6.6.6.6.6.6.6.6.6.6.6.6.6.6.6.6.6.6.6.u.f.' n - ",
"- n ) j.s...V p f g g k c x k S O.e.e.6.6.6.6.6.6.6.6.6.6.6.6.6.6.6.6.6.6.6.6.6.6.6.6.6.6.6.6.6.6.6.6.6.6.6.6.6.6.6.6.6.6.6.6.6.6.6.6.6.6.e.s.) n - ",
"- c ! s.s.X.A f k n n u 7 X X k / u.e.6.6.6.6.6.6.6.6.6.6.6.6.6.6.6.6.6.6.6.6.6.6.6.6.6.6.6.6.6.6.6.6.6.6.6.6.6.6.6.6.6.6.6.6.6.6.6.6.6.6.e.u.! c - ",
"- c ! s.u.;.O.) ) [ | Y u X X x / u.e.6.6.6.6.6.6.6.6.6.6.6.6.6.6.6.6.6.6.6.6.6.6.6.6.6.6.6.6.6.6.6.6.6.6.6.6.6.6.6.6.6.6.6.6.6.6.6.6.6.6.e.u.! x - ",
"- c ! s.u.;.&.[ [ | | Y u X X x / u.e.6.6.6.6.6.6.6.6.6.6.6.6.6.6.6.6.7.e.e.7.6.6.6.6.6.6.6.6.6.6.6.6.6.6.6.6.6.6.6.6.6.6.6.6.6.6.6.6.6.6.e.u.! x - ",
"- c ! s.s.O.H n n B n u 7 X X k / u.e.6.6.6.6.6.6.6.6.6.6.6.6.6.6.6.6.7.e.e.7.6.6.6.6.6.6.6.6.6.6.6.6.6.6.6.6.6.6.6.6.6.6.6.6.6.6.6.6.6.6.e.u.! x - ",
"- c ! f.f./ k X X 7 u n B n n H O.e.e.6.6.6.6.6.6.6.6.6.6.6.6.6.6.e.e.;.X.X.;.e.e.6.6.6.6.6.6.6.6.6.6.6.6.6.6.6.6.6.6.6.6.6.6.6.6.6.6.6.6.e.u.! x - ",
"- c R f.f./ x X X u Y | | [ [ &.;.7.7.6.6.6.6.6.6.6.6.6.6.6.6.6.6.e.s.O.A A O.s.e.6.6.6.6.6.6.6.6.6.6.6.6.6.6.6.6.6.6.6.6.6.6.6.6.6.6.6.6.e.u.R x - ",
"- c R f.f./ x X X u Y | [ ' ) O.;.7.7.6.6.6.6.6.6.6.6.6.6.6.6.e.e.2.&.L q q L &.2.e.7.6.6.6.6.6.6.6.6.6.6.6.6.6.6.6.6.6.6.6.6.6.6.6.6.6.6.e.u.R x - ",
"- c R f.f./ k X X 7 u n n k f A X.e.e.6.6.6.6.6.6.6.6.6.6.6.6.e.s.-.H w 5 5 w H &.s.e.6.6.6.6.6.6.6.6.6.6.6.6.6.6.6.6.6.6.6.6.6.6.6.6.6.6.e.u.R x - ",
"- c R s.s.O.S k x n c x k f p C ..e.e.6.6.6.6.6.6.6.6.6.6.7.e.2.&.I t - ; ; @ r I &.2.e.e.6.6.6.6.6.6.6.6.6.6.6.6.6.6.6.6.6.6.6.6.6.6.6.6.e.u.R x - ",
"- c R u.e.;.o./ / ) ' ) / R R ..;.7.7.6.6.6.6.6.6.6.6.6.6.e.s.&.H r 7 ; < < < 7 r H &.s.e.6.6.6.6.6.6.6.6.6.6.6.6.6.6.6.6.6.6.6.6.6.6.6.6.e.u.! c - ",
"- c R u.e.7.e.s.f.4.&.&.4.f.s.e.7.6.6.6.6.6.6.6.6.6.6.7.7.2.&.I r - ; 3 3 3 3 ; @ r I &.2.7.7.6.6.6.6.6.6.6.6.6.6.6.6.6.6.6.6.6.6.6.6.6.6.e.u.! c - ",
"- c ! u.e.7.e.s.j.&.S S &.j.s.e.7.6.6.6.6.6.6.6.6.6.6.e.e.O.G r 7 ; < 3 3 3 3 < ; 7 r G O.e.e.6.6.6.6.6.6.6.6.6.6.6.6.6.6.6.6.6.6.6.6.6.6.e.u.! c - ",
"- c R u.e.e.e.2.&.L q q L -.2.e.7.6.6.6.6.6.6.6.6.6.6.e.u./ f X - 3 3 3 3 3 3 3 3 - X f ! u.e.6.6.6.6.6.6.6.6.6.6.6.6.6.6.6.6.6.6.6.6.6.6.e.u.! c - ",
"- c ! u.e.e.s.&.H w 5 5 r H -.s.e.6.6.6.6.6.6.6.6.6.6.e.u.! f X - 3 3 3 3 3 3 3 3 - X f / u.e.6.6.6.6.6.6.6.6.6.6.6.6.6.6.6.6.6.6.6.6.6.6.e.u.! c - ",
"- c ! s.u.2.&.I r @ < < - t I &.2.7.7.6.6.6.6.6.6.6.6.e.e.O.G t 7 - - < < < < ; - 7 t G O.e.e.6.6.6.6.6.6.6.6.6.6.6.6.6.6.6.6.6.6.6.6.6.6.e.u.! c - ",
"- c R s.s.O.G r 7 ; < < ; 7 t G O.e.e.6.6.6.6.6.6.6.6.7.7.2.&.I t X @ ; < < ; - X t I &.2.7.7.6.6.6.6.6.6.6.6.6.6.6.6.6.6.6.6.6.6.6.6.6.6.e.u.! c - ",
"- c R f.f.! f . @ < < < < @ . f / u.e.6.6.6.6.6.6.6.6.6.6.e.s.&.G x n i 9 9 i n x G &.s.e.6.6.6.6.6.6.6.6.6.6.6.6.6.6.6.6.6.6.6.6.6.6.6.6.e.u.! c - ",
"- c R f.f./ f . X ; < < < X . f / u.e.6.6.6.6.6.6.6.6.6.6.7.e.2.O.' | T u u T | ' O.2.e.7.6.6.6.6.6.6.6.6.6.6.6.6.6.6.6.6.6.6.6.6.6.6.6.6.e.u.! x - ",
"- c R s.s.O.S x n i 9 9 i n x S o.e.e.6.6.6.6.6.6.6.6.6.6.6.6.e.u.4.-.P w w P -.4.u.e.6.6.6.6.6.6.6.6.6.6.6.6.6.6.6.6.6.6.6.6.6.6.6.6.6.6.e.u.! x - ",
"- c R u.u.;.o.' | T u u T | ' O.;.7.7.6.6.6.6.6.6.6.6.6.6.6.6.e.s.O.G q 4 4 q G O.s.e.6.6.6.6.6.6.6.6.6.6.6.6.6.6.6.6.6.6.6.6.6.6.6.6.6.6.e.u.! x - ",
"- c R u.e.e.u.4.-.P w w P -.4.u.e.6.6.6.6.6.6.6.6.6.6.6.6.6.6.e.e...V a k k a V ..e.e.6.6.6.6.6.6.6.6.6.6.6.6.6.6.6.6.6.6.6.6.6.6.6.6.6.6.e.u.! x - ",
"- c R u.e.e.s.O.G q 4 4 q S O.s.e.6.6.6.6.6.6.6.6.6.6.6.6.6.6.7.7.;...R / / R ..;.7.7.6.6.6.6.6.6.6.6.6.6.6.6.6.6.6.6.6.6.6.6.6.6.6.6.6.6.e.u.R x - ",
"- n R u.e.e.e...V a k k a V ..e.e.6.6.6.6.6.6.6.6.6.6.6.6.6.6.6.6.7.e.u.u.u.u.e.7.6.6.6.6.6.6.6.6.6.6.6.6.6.6.6.6.6.6.6.6.6.6.6.6.6.6.6.6.e.u.R x - ",
"- c ! u.e.7.7.;...R / / R ..;.7.7.6.6.6.6.6.6.6.6.6.6.6.6.6.6.6.6.7.e.e.e.e.e.e.7.6.6.6.6.6.6.6.6.6.6.6.6.6.6.6.6.6.6.6.6.6.6.6.6.6.6.6.6.e.u.R x - ",
"- c R u.e.6.6.7.e.u.u.u.u.e.7.6.6.6.6.6.6.6.6.6.6.6.6.6.6.6.6.6.6.6.6.6.6.6.6.6.6.6.6.6.6.6.6.6.6.6.6.6.6.6.6.6.6.6.6.6.6.6.6.6.6.6.6.6.6.e.u.R x - ",
"- c ! u.e.6.6.7.e.e.e.e.e.e.7.6.6.6.6.6.6.6.6.6.6.6.6.6.6.6.6.6.6.6.6.6.6.6.6.6.6.6.6.6.6.6.6.6.6.6.6.6.6.6.6.6.6.6.6.6.6.6.6.6.6.6.6.6.6.e.u.! c - ",
"- c ! u.e.6.6.6.6.6.6.6.6.6.6.6.6.6.6.6.6.6.6.6.6.6.6.6.6.6.6.6.6.6.6.6.6.6.6.6.6.6.6.6.6.6.6.6.6.6.6.6.6.6.6.6.6.6.6.6.6.6.6.6.6.6.6.6.6.e.u.! c - ",
"- c ! u.e.6.6.6.6.6.6.6.6.6.6.6.6.6.6.6.6.6.6.6.6.6.6.6.6.6.6.6.6.6.6.6.6.6.6.6.6.6.6.6.6.6.6.6.6.6.6.6.6.6.6.6.6.6.6.6.6.6.6.6.6.6.6.6.6.e.u.! c - ",
"- c ! u.e.6.6.6.6.6.6.6.6.6.6.6.6.6.6.6.6.6.6.6.6.6.6.6.6.6.6.6.6.6.6.6.6.6.6.6.6.6.6.6.6.6.6.6.6.6.6.6.6.6.6.6.6.6.6.6.6.6.6.6.6.6.6.6.6.e.u.! c - ",
"- c R u.e.6.6.6.6.6.6.6.6.6.6.6.6.6.6.6.6.6.6.6.6.6.6.6.6.6.6.6.6.6.6.6.6.6.6.6.6.6.6.6.6.6.6.6.6.6.6.6.6.6.6.6.6.6.6.6.6.6.6.6.6.6.6.6.6.e.u.! c - ",
"- c R u.e.6.6.6.6.6.6.6.6.6.6.6.6.6.6.6.6.6.6.6.6.6.6.6.6.6.6.6.6.6.6.6.6.6.6.6.6.6.6.6.6.6.6.6.6.6.6.6.6.6.6.6.6.6.6.6.6.6.6.6.6.6.6.6.6.e.u.! c - ",
"- c R u.e.6.6.6.6.6.6.6.6.6.6.6.6.6.6.6.6.6.6.6.6.6.6.6.6.6.6.6.6.6.6.6.6.6.6.6.6.6.6.6.6.6.6.6.6.6.6.6.6.6.6.6.6.6.6.6.6.6.6.6.6.6.6.6.6.e.u.! c - ",
"- x R u.e.6.6.6.6.6.6.6.6.6.6.6.6.6.6.6.6.6.6.6.6.6.6.6.6.6.6.6.6.6.6.6.6.6.6.6.6.6.6.6.6.6.6.6.6.6.6.6.6.6.6.6.6.6.6.6.6.6.6.6.6.6.6.6.6.e.u.! c - ",
"- c R u.e.6.6.6.6.6.6.6.6.6.6.6.6.6.6.6.6.6.6.6.6.6.6.6.6.6.6.6.6.6.6.6.6.6.6.6.6.6.6.6.6.6.6.6.6.6.6.6.6.6.6.6.6.6.6.6.6.6.6.6.6.6.6.6.6.e.u.! x - ",
"- c R u.e.6.6.6.6.6.6.6.6.6.6.6.6.6.6.6.6.6.6.6.6.6.6.6.6.6.6.6.6.6.6.6.6.6.6.6.6.6.6.6.6.6.6.6.6.6.6.6.6.6.6.6.6.6.6.6.6.6.6.6.6.6.6.6.6.e.u.! x - ",
"- c ! u.e.6.6.6.6.6.6.6.6.6.6.6.6.6.6.6.6.6.6.6.6.6.6.6.6.6.6.6.6.6.6.6.6.6.6.6.6.6.6.6.6.6.6.6.6.6.6.6.6.6.6.6.6.6.6.6.6.6.6.6.6.6.6.6.6.e.u.! x - ",
"- c R u.e.6.6.6.6.6.6.6.6.6.6.6.6.6.6.6.6.6.6.6.6.6.6.6.6.6.6.6.6.6.6.6.6.6.6.6.6.6.6.6.6.6.6.6.6.6.6.6.6.6.6.6.6.6.6.6.6.6.6.6.6.6.6.6.6.e.u.! x - ",
"- c ! u.e.6.6.6.6.6.6.6.6.6.6.6.6.6.6.6.6.6.6.6.6.6.6.6.6.6.6.6.6.6.6.6.6.6.6.6.6.6.6.6.6.6.6.6.6.6.6.6.6.6.6.6.6.6.6.6.6.6.6.6.6.6.6.6.6.e.u.R x - ",
"- c ! u.e.6.6.6.6.6.6.6.6.6.6.6.6.6.6.6.6.6.6.6.6.6.6.6.6.6.6.6.6.6.6.6.6.6.6.6.6.6.6.6.6.6.6.6.6.6.6.6.6.6.6.6.6.6.6.6.6.6.6.6.6.6.6.6.6.e.u.R x - ",
"- c ! u.e.6.6.6.6.6.6.6.6.6.6.6.6.6.6.6.6.6.6.6.6.6.6.6.6.6.6.6.6.6.6.6.6.6.6.6.6.6.6.6.6.6.6.6.6.6.6.6.6.6.6.6.6.6.6.6.6.6.6.6.6.6.6.6.6.e.u.R x - ",
"- c ! u.e.6.6.6.6.6.6.6.6.6.6.6.6.6.6.6.6.6.6.6.6.6.6.6.6.6.6.6.6.6.6.6.6.6.6.6.6.6.6.6.6.6.6.6.6.6.6.6.6.6.6.6.6.6.6.6.6.6.6.6.6.6.6.6.6.e.u.R x - ",
"- c R u.e.6.6.6.6.6.6.6.6.6.6.6.6.6.6.6.6.6.6.6.6.6.6.6.6.6.6.6.6.6.6.6.6.6.6.6.6.6.6.6.6.6.6.6.6.6.6.6.6.6.6.6.6.6.6.6.6.6.6.6.6.6.6.6.6.e.u.! c - ",
"- c R u.e.6.6.6.6.6.6.6.6.6.6.6.6.6.6.6.6.6.6.6.6.6.6.6.6.6.6.6.6.6.6.6.6.6.6.6.6.6.6.6.6.6.6.6.6.6.6.6.6.6.6.6.6.6.6.6.6.6.6.6.6.6.6.6.6.e.u.! c - ",
"- c R u.e.6.6.6.6.6.6.6.6.6.6.6.6.6.6.6.6.6.6.6.6.6.6.6.6.6.6.6.6.6.6.6.6.6.6.6.6.6.6.6.6.6.6.6.6.6.6.6.6.6.6.6.6.6.6.6.6.6.6.6.6.6.6.6.6.e.u.! c - ",
"- x R u.e.6.6.6.6.6.6.6.6.6.6.6.6.6.6.6.6.6.6.6.6.6.6.6.6.6.6.6.6.6.6.6.6.6.6.6.6.6.6.6.6.6.6.6.6.6.6.6.6.6.6.6.6.6.6.6.6.6.6.6.6.6.6.6.6.e.u.! c - ",
"- c R u.e.6.6.6.6.6.6.6.6.6.6.6.6.6.6.6.6.6.6.6.6.6.6.6.6.6.6.6.6.6.6.6.6.6.6.6.6.6.6.6.6.6.6.6.6.6.6.6.6.6.6.6.6.6.6.6.6.6.6.6.6.6.6.6.6.e.u.! c - ",
"- c R u.e.6.6.6.6.6.6.6.6.6.6.6.6.6.6.6.6.6.6.6.6.6.6.6.6.6.6.6.6.6.6.6.6.6.6.6.6.6.6.6.6.6.6.6.6.6.6.6.6.6.6.6.6.6.6.6.6.6.6.6.6.6.6.6.6.e.u.! c - ",
"- c ! u.e.6.6.6.6.6.6.6.6.6.6.6.6.6.6.6.6.6.6.6.6.6.6.6.6.6.6.6.6.6.6.6.6.6.6.6.6.6.6.6.6.6.6.6.6.6.6.6.6.6.6.6.6.6.6.6.6.6.6.6.6.6.6.6.6.e.u.! c - ",
"- c R u.e.6.6.6.6.6.6.6.6.6.6.6.6.6.6.6.6.6.6.6.6.6.6.6.6.6.6.6.6.6.6.6.6.6.6.6.6.6.6.6.6.6.6.6.6.6.6.6.6.6.6.6.6.6.6.6.6.6.6.6.6.6.6.6.6.e.u.! c - ",
"- c ! u.e.6.6.6.6.6.6.6.6.6.6.6.6.6.6.6.6.6.6.6.6.6.6.6.6.6.6.6.6.6.6.6.6.6.6.6.6.6.6.6.6.6.6.6.6.6.6.6.6.6.6.6.6.6.6.6.6.6.6.6.6.6.6.6.6.e.u.! c - ",
"- c ! u.e.6.6.6.6.6.6.6.6.6.6.6.6.6.6.6.6.6.6.6.6.6.6.6.6.6.6.6.6.6.6.6.6.6.6.6.6.6.6.6.6.6.6.6.6.6.6.6.6.6.6.6.6.6.6.6.6.6.6.6.6.6.6.6.6.e.u.! c - ",
"- c ! u.e.6.6.6.6.6.6.6.6.6.6.6.6.6.6.6.6.6.6.6.6.6.6.6.6.6.6.6.6.6.6.6.6.6.6.6.6.6.6.6.6.6.6.6.6.6.6.6.6.6.6.6.6.6.6.6.6.6.6.6.6.6.6.6.6.e.u.! c - ",
"- c ! u.e.6.6.6.6.6.6.6.6.6.6.6.6.6.6.6.6.6.6.6.6.6.6.6.6.6.6.6.6.6.6.6.6.6.6.6.6.6.6.6.6.6.6.6.6.6.6.6.6.6.6.6.6.6.6.6.6.6.6.6.6.6.6.6.6.e.u.! c - ",
"- c R u.e.6.6.6.6.6.6.6.6.6.6.6.6.6.6.6.6.6.6.6.6.6.6.6.6.6.6.6.6.6.6.6.6.6.6.6.6.6.6.6.6.6.6.6.6.6.6.6.6.6.6.6.6.6.6.6.6.6.6.6.6.6.6.6.6.e.u.R c - ",
"- c R u.e.6.6.6.6.6.6.6.6.6.6.6.6.6.6.6.6.6.6.6.6.6.6.6.6.6.6.6.6.6.6.6.6.6.6.6.6.6.6.6.6.6.6.6.6.6.6.6.6.6.6.6.6.6.6.6.6.6.6.6.6.6.6.6.6.e.u.R c - ",
"- c R u.e.6.6.6.6.6.6.6.6.6.6.6.6.6.6.6.6.6.6.6.6.6.6.6.6.6.6.6.6.6.6.6.6.6.6.6.6.6.6.6.6.6.6.6.6.6.6.6.6.6.6.6.6.6.6.6.6.6.6.6.6.6.6.6.6.e.u.R x - ",
"- x R u.e.6.6.6.6.6.6.6.6.6.6.6.6.6.6.6.6.6.6.6.6.6.6.6.6.6.6.6.6.6.6.6.6.6.6.6.6.6.6.6.6.6.6.6.6.6.6.6.6.6.6.6.6.6.6.6.6.6.6.6.6.6.6.6.6.e.u.R x - ",
"- c R u.e.6.6.6.6.6.6.6.6.6.6.6.6.6.6.6.6.6.6.6.6.6.6.6.6.6.6.6.6.6.6.6.6.6.6.6.6.6.6.6.6.6.6.6.6.6.6.6.6.6.6.6.6.6.6.6.6.6.6.6.6.6.6.6.6.e.u.! x - ",
"- c R u.e.6.6.6.6.6.6.6.6.6.6.6.6.6.6.6.6.6.6.6.6.6.6.6.6.6.6.6.6.6.6.6.6.6.6.6.6.6.6.6.6.6.6.6.6.6.6.6.6.6.6.6.6.6.6.6.6.6.6.6.6.6.6.6.6.e.u.! x - ",
"- c ! u.e.6.6.6.6.6.6.6.6.6.6.6.6.6.6.6.6.6.6.6.6.6.6.6.6.6.6.6.6.6.6.6.6.6.6.6.6.6.6.6.6.6.6.6.6.6.6.6.6.6.6.6.6.6.6.6.6.6.6.6.6.6.6.6.6.e.u.! x - ",
"- c R u.e.6.6.6.6.6.6.6.6.6.6.6.6.6.6.6.6.6.6.6.6.6.6.6.6.6.6.6.6.6.6.6.6.6.6.6.6.6.6.6.6.6.6.6.6.6.6.6.6.6.6.6.6.6.6.6.6.6.6.6.6.6.6.6.6.e.u.! x - ",
"- c ! u.e.6.6.6.6.6.6.6.6.6.6.6.6.6.6.6.6.6.6.6.6.6.6.6.6.6.6.6.6.6.6.6.6.6.6.6.6.6.6.6.6.6.6.6.6.6.6.6.6.6.6.6.6.6.6.6.6.6.6.6.6.6.6.6.6.e.u.! c - ",
"- c ! u.e.6.6.6.6.6.6.6.6.6.6.6.6.6.6.6.6.6.6.6.6.6.6.6.6.6.6.6.6.6.6.6.6.6.6.6.6.6.6.6.6.6.6.6.6.6.6.6.6.6.6.6.6.6.6.6.6.6.6.6.6.6.6.6.6.e.u.! x - ",
"- c ! u.e.6.6.6.6.6.6.6.6.6.6.6.6.6.6.6.6.6.6.6.6.6.6.6.6.6.6.6.6.6.6.6.6.6.6.6.6.6.6.6.6.6.6.6.6.6.6.6.6.6.6.6.6.6.6.6.6.6.6.6.6.6.6.6.6.e.u.! x - ",
"- c ! u.e.6.6.6.6.6.6.6.6.6.6.6.6.6.6.6.6.6.6.6.6.6.6.6.6.6.6.6.6.6.6.6.6.6.6.6.6.6.6.6.6.6.6.6.6.6.6.6.6.6.6.6.6.6.6.7.e.e.e.e.e.e.7.6.6.e.u.! x - ",
"- c R u.e.6.6.6.6.6.6.6.6.6.6.6.6.6.6.6.6.6.6.6.6.6.6.6.6.6.6.6.6.6.6.6.6.6.6.6.6.6.6.6.6.6.6.6.6.6.6.6.6.6.6.6.6.6.6.7.e.u.u.u.u.e.7.6.6.e.u.! c - ",
"- c R u.e.6.6.6.6.6.6.6.6.6.6.6.6.6.6.6.6.6.6.6.6.6.6.6.6.6.6.6.6.7.e.e.e.e.e.e.7.6.6.6.6.6.6.6.6.6.6.6.6.6.6.6.6.7.7.;...R / / R ..;.7.7.e.u.! c - ",
"- c R u.e.6.6.6.6.6.6.6.6.6.6.6.6.6.6.6.6.6.6.6.6.6.6.6.6.6.6.6.6.7.e.u.u.u.u.e.7.6.6.6.6.6.6.6.6.6.6.6.6.6.6.6.6.e.e...V a k k a V ..e.e.e.u.! c - ",
"- x R u.e.6.6.6.6.6.6.6.6.6.6.6.6.6.6.6.6.6.6.6.6.6.6.6.6.6.6.7.7.;...R / / R ..;.7.7.6.6.6.6.6.6.6.6.6.6.6.6.6.6.e.s.O.G q 4 4 q S O.s.e.e.u.R c - ",
"- c R u.e.6.6.6.6.6.6.6.6.6.6.6.6.6.6.6.6.6.6.6.6.6.6.6.6.6.6.e.e...V a k k a V ..e.e.6.6.6.6.6.6.6.6.6.6.6.6.6.6.e.u.4.-.P w w P -.4.u.e.e.u.R c - ",
"- c R u.e.6.6.6.6.6.6.6.6.6.6.6.6.6.6.6.6.6.6.6.6.6.6.6.6.6.6.e.s.O.S q 4 4 q S O.s.e.6.6.6.6.6.6.6.6.6.6.6.6.7.7.;.o.' | T u u T | ' O.;.u.s.! c - ",
"- c ! u.e.6.6.6.6.6.6.6.6.6.6.6.6.6.6.6.6.6.6.6.6.6.6.6.6.6.6.e.u.4.-.P w w P -.4.u.e.6.6.6.6.6.6.6.6.6.6.6.6.e.e.O.S x n i 9 9 i n x S O.s.s.! c - ",
"- c R u.e.6.6.6.6.6.6.6.6.6.6.6.6.6.6.6.6.6.6.6.6.6.6.6.6.7.e.2.O.' | T u u T | ' O.2.e.7.6.6.6.6.6.6.6.6.6.6.e.u./ f . X ; < < ; X . f / f.f.! c - ",
"- c ! u.e.6.6.6.6.6.6.6.6.6.6.6.6.6.6.6.6.6.6.6.6.6.6.6.6.e.s.&.G x n i 9 9 i n x G &.s.e.6.6.6.6.6.6.6.6.6.6.e.u.! f . @ < < < < @ . f ! f.f.! x - ",
"- c ! u.e.6.6.6.6.6.6.6.6.6.6.6.6.6.6.6.6.6.6.6.6.6.6.7.7.2.&.I t X - ; < < ; - @ t I &.2.7.7.6.6.6.6.6.6.6.6.e.e.O.G t 7 ; < < ; 7 r G O.s.s.! x - ",
"- c ! u.e.6.6.6.6.6.6.6.6.6.6.6.6.6.6.6.6.6.6.6.6.6.6.e.e.O.G t 7 - ; < < < < ; - 7 r G O.e.e.6.6.6.6.6.6.6.6.7.7.2.&.I r - < < @ r I &.2.u.s.! x - ",
"- c ! u.e.6.6.6.6.6.6.6.6.6.6.6.6.6.6.6.6.6.6.6.6.6.6.e.u.! f X - 3 3 3 3 3 3 3 3 - X f ! u.e.6.6.6.6.6.6.6.6.6.6.e.s.&.H w 5 5 r H &.s.e.e.u.! x - ",
"- c R u.e.6.6.6.6.6.6.6.6.6.6.6.6.6.6.6.6.6.6.6.6.6.6.e.u./ f X - 3 3 3 3 3 3 3 3 - X f ! u.e.6.6.6.6.6.6.6.6.6.6.7.e.2.&.L q q L &.2.e.7.e.u.! x - ",
"- c R u.e.6.6.6.6.6.6.6.6.6.6.6.6.6.6.6.6.6.6.6.6.6.6.e.e.O.G t 7 ; < 3 3 3 3 < ; 7 t G O.e.e.6.6.6.6.6.6.6.6.6.6.7.e.s.j.&.S S &.j.s.e.6.e.u.! c - ",
"- c R u.e.6.6.6.6.6.6.6.6.6.6.6.6.6.6.6.6.6.6.6.6.6.6.7.7.2.&.I r @ ; 3 3 3 3 ; @ r I &.2.7.7.6.6.6.6.6.6.6.6.6.6.7.e.s.f.4.&.&.4.f.s.e.7.e.u.R x - ",
"- x R u.e.6.6.6.6.6.6.6.6.6.6.6.6.6.6.6.6.6.6.6.6.6.6.6.6.e.s.&.H r 7 ; < < ; 7 r H &.s.e.6.6.6.6.6.6.6.6.6.6.7.7.;...R R / ) ' ) / / O.;.e.u.R x - ",
"- c R u.e.6.6.6.6.6.6.6.6.6.6.6.6.6.6.6.6.6.6.6.6.6.6.6.6.7.e.2.-.I r - < ; @ r I &.2.e.e.6.6.6.6.6.6.6.6.6.6.e.e...C p f k k c n x k S O.s.s.! x - ",
"- c R u.e.6.6.6.6.6.6.6.6.6.6.6.6.6.6.6.6.6.6.6.6.6.6.6.6.6.6.e.s.-.H r 5 5 w H -.s.e.6.6.6.6.6.6.6.6.6.6.6.6.e.e.X.A g k n n u 7 X X k / f.f.! c - ",
"- c ! u.e.6.6.6.6.6.6.6.6.6.6.6.6.6.6.6.6.6.6.6.6.6.6.6.6.6.6.e.e.2.&.L q q L &.2.e.7.6.6.6.6.6.6.6.6.6.6.6.6.7.7.;.O.) ' [ | Y u X X x / f.f.! x - ",
"- c R u.e.6.6.6.6.6.6.6.6.6.6.6.6.6.6.6.6.6.6.6.6.6.6.6.6.6.6.6.6.e.s.O.A A O.s.e.6.6.6.6.6.6.6.6.6.6.6.6.6.6.7.7.;.&.[ [ | | Y u X X x / f.f.! c - ",
"- c ! u.e.6.6.6.6.6.6.6.6.6.6.6.6.6.6.6.6.6.6.6.6.6.6.6.6.6.6.6.6.7.e.<.X.X.<.e.e.6.6.6.6.6.6.6.6.6.6.6.6.6.6.e.e.O.H n n B n u 7 X X k / f.f.! x - ",
"- c ! u.e.6.6.6.6.6.6.6.6.6.6.6.6.6.6.6.6.6.6.6.6.6.6.6.6.6.6.6.6.6.6.7.e.e.7.6.6.6.6.6.6.6.6.6.6.6.6.6.6.6.6.e.u./ k X X 7 u n B n n H O.s.s.! c - ",
"- c ! u.e.6.6.6.6.6.6.6.6.6.6.6.6.6.6.6.6.6.6.6.6.6.6.6.6.6.6.6.6.6.6.7.e.e.7.6.6.6.6.6.6.6.6.6.6.6.6.6.6.6.6.e.u./ x X X u Y | | [ [ &.;.r.s.! x - ",
"- c ! u.e.6.6.6.6.6.6.6.6.6.6.6.6.6.6.6.6.6.6.6.6.6.6.6.6.6.6.6.6.6.6.6.6.6.6.6.6.6.6.6.6.6.6.6.6.6.6.6.6.6.6.e.u./ x X X u Y | [ ' ) O.;.u.s.! c - ",
"- c R u.e.6.6.6.6.6.6.6.6.6.6.6.6.6.6.6.6.6.6.6.6.6.6.6.6.6.6.6.6.6.6.6.6.6.6.6.6.6.6.6.6.6.6.6.6.6.6.6.6.6.6.e.u./ k X X 7 u n n k f A X.s.s.! c - ",
"- n ) s.e.6.6.6.6.6.6.6.6.6.6.6.6.6.6.6.6.6.6.6.6.6.6.6.6.6.6.6.6.6.6.6.6.6.6.6.6.6.6.6.6.6.6.6.6.6.6.6.6.6.6.e.e.O.S k x c k g g a p V ..f.j.) n - ",
"- n ' f.r.6.6.6.6.6.6.6.6.6.6.6.6.6.6.6.6.6.6.6.6.6.6.6.6.6.6.6.6.6.6.6.6.6.6.6.6.6.6.6.6.6.6.6.6.6.6.6.6.6.6.7.7.;.o./ / / ! R R R R ..;.u.j.' n - ",
"- u L &.2.r.e.e.e.e.e.e.e.e.e.e.e.e.e.e.e.e.e.e.e.e.e.e.e.e.e.e.e.e.e.e.e.e.e.e.e.e.e.e.e.e.e.e.e.e.e.e.e.e.e.e.e.r.s.f.f.f.f.f.f.f.f.f.u.2.&.L u - ",
"< 8 r H &.f.s.u.u.u.u.u.u.u.u.u.u.u.u.u.u.u.u.u.u.u.u.u.u.u.u.u.u.u.u.u.u.u.u.u.u.u.u.u.u.u.u.u.u.u.u.u.u.u.u.u.u.s.s.f.f.f.f.f.f.f.f.j.j.&.H r 8 < ",
"3 - @ r L ' ) ! R R R R ! ! ! ! R R R R ! ! ! ! ! ! ! R R R ! ! ! ! ! R R R ! ! R R R R ! ! ! ! R R R R ! ! ! ! ! ! ! ! R R ! ! ! ! ! ) ' L r @ - 3 ",
"    - 8 u n n c x c c c c c c c c c c c c x c c c c c c x c c c c c c c x c c c x c c c c c c c c c c c c x c c c c c c x c c c c c c n n u 8 -     ",
"    3 < - - - - - - - - - - - - - - - - - - - - - - - - - - - - - - - - - - - - - - - - - - - - - - - - - - - - - - - - - - - - - - - - - - < 3     "
};
