/* XPM */
static char *spades_7[] = {
/* columns rows colors chars-per-pixel */
"74 104 154 2 ",
"   c None",
".  c #180026",
"X  c #190027",
"o  c #1A0028",
"O  c #1B0028",
"+  c #1B0029",
"@  c #1C0029",
"#  c #1C002A",
"$  c #1D002A",
"%  c #1E002B",
"&  c #1E002C",
"*  c #1F002C",
"=  c #20002D",
"-  c #20012D",
";  c #21012D",
":  c #21012E",
">  c #22022F",
",  c #22032F",
"<  c #23032F",
"1  c #230430",
"2  c #240430",
"3  c #250531",
"4  c #250631",
"5  c #250632",
"6  c #260632",
"7  c #260732",
"8  c #270833",
"9  c #290A35",
"0  c #2A0B36",
"q  c #2B0C36",
"w  c #2B0D37",
"e  c #2D0F38",
"r  c #2E1039",
"t  c #2F113A",
"y  c #30133B",
"u  c #33153D",
"i  c #452A4C",
"p  c #462B4D",
"a  c #462B4E",
"s  c #462C4E",
"d  c #472C4E",
"f  c #472D4F",
"g  c #482D4F",
"h  c #482E4F",
"j  c #482E50",
"k  c #492E50",
"l  c #4A2F51",
"z  c #4A3051",
"x  c #4B3152",
"c  c #4F3555",
"v  c #503756",
"b  c #523857",
"n  c #523858",
"m  c #533A58",
"M  c #533A59",
"N  c #543B59",
"B  c #543B5A",
"V  c #553D5B",
"C  c #563D5B",
"Z  c #563E5B",
"A  c #573E5C",
"S  c #583F5D",
"D  c #58405D",
"F  c #59405D",
"G  c #59415E",
"H  c #5A425F",
"J  c #7B677B",
"K  c #7B687B",
"L  c #7C697C",
"P  c #7F6B7E",
"I  c #7F6C7E",
"U  c #7F6C7F",
"Y  c #806C7F",
"T  c #806D7F",
"R  c #816E80",
"E  c #816F80",
"W  c #857283",
"Q  c #998A95",
"!  c #9B8B96",
"~  c #9B8C96",
"^  c #9B8C97",
"/  c #9C8C97",
"(  c #9C8D97",
")  c #9F909A",
"_  c #A0919A",
"`  c #C0B5B6",
"'  c #C0B6B6",
"]  c #C1B6B6",
"[  c #C1B7B7",
"{  c #C2B8B7",
"}  c #C2B8B8",
"|  c #C3B9B8",
" . c #C3B9B9",
".. c #C3BAB9",
"X. c #C4BAB9",
"o. c #C5BBBA",
"O. c #C5BCBA",
"+. c #C6BCBB",
"@. c #C6BDBB",
"#. c #C7BEBC",
"$. c #C8BFBD",
"%. c #CBC2BF",
"&. c #CEC5C2",
"*. c #CFC7C3",
"=. c #D0C7C3",
"-. c #D0C8C3",
";. c #D0C8C4",
":. c #D1C9C4",
">. c #D2CAC5",
",. c #D3CBC6",
"<. c #D3CCC6",
"1. c #D4CCC7",
"2. c #D5CDC7",
"3. c #D5CDC8",
"4. c #D6CFC9",
"5. c #D7CFC9",
"6. c #D8D1CA",
"7. c #DAD3CC",
"8. c #E9E4D9",
"9. c #EAE5DA",
"0. c #EBE7DB",
"q. c #ECE7DB",
"w. c #ECE8DC",
"e. c #EDE8DC",
"r. c #EFEADE",
"t. c #EFEBDE",
"y. c #F0ECDF",
"u. c #F1EDDF",
"i. c #F4F0E2",
"p. c #F6F3E4",
"a. c #F7F4E5",
"s. c #F7F5E5",
"d. c #F8F5E5",
"f. c #F8F5E6",
"g. c #F8F6E6",
"h. c #F9F6E6",
"j. c #F9F6E7",
"k. c #F9F7E7",
"l. c #FAF7E7",
"z. c #FAF8E8",
"x. c #FBF8E8",
"c. c #FBF9E8",
"v. c #FBF9E9",
"b. c #FCF9E9",
"n. c #FCFAE9",
"m. c #FCFAEA",
"M. c #FDFAEA",
"N. c #FDFBEA",
"B. c #FEFCEA",
"V. c #FEFCEB",
"C. c #FEFDEB",
"Z. c #FFFDEB",
"A. c #FFFEEC",
"S. c #FFFFED",
/* pixels */
"    8 5 < < < < < < < < < < < < < < < < < < < < < < < < < < < < < < < < < < < < < < < < < < < < < < < < < < < < < < < < < < < < < < < < < < 5 8     ",
"    < y x G G S S S S A S S G S S S S S S S S S S S S S S S S S S S S A S S S S S S S S S S S A S S S S S S S S S S S A S S S S S S S G G x y <     ",
"8 < * j ! O.X.{ { ` ` ` ` ` { { { { ` ` ` ` ` ` ` ` { ` { { { { ` ` ` ` ` ` { ` { { { { ` ` ` ` ` ` { ` { { { { ` ` ` ` ` ` { ` { { { X.O.! g * < 8 ",
"5 y j R 2.A.A.V.V.V.V.V.N.V.V.N.v.v.v.v.v.v.v.v.v.v.v.v.v.v.v.v.v.v.v.v.v.v.v.v.v.v.v.v.v.v.v.v.v.v.v.v.v.v.v.v.v.v.v.v.v.v.v.v.v.v.v.N.V.2.R g y 5 ",
"< x ! 2.r.v.N.V.V.V.V.V.V.V.V.N.v.l.l.l.l.l.l.l.l.l.l.l.l.l.l.l.l.l.l.l.l.l.l.l.l.l.l.l.l.l.l.l.l.l.l.l.l.l.l.l.l.l.l.l.l.l.l.l.l.l.l.l.v.r.2.! x < ",
"< G O.A.v.8.*.` ` ` ` {  . . .;.8.a.a.p.p.p.p.p.p.p.p.p.p.p.p.p.p.p.p.p.p.p.p.p.p.p.p.p.p.p.p.p.p.p.p.p.p.p.p.p.p.p.p.p.p.p.p.p.p.p.p.p.p.v.V.O.G < ",
"< G X.A.N.*.J v M N N V S A V I ;.l.l.p.p.p.p.p.p.p.p.p.p.p.p.p.p.p.p.p.p.p.p.p.p.p.p.p.p.p.p.p.p.p.p.p.p.p.p.p.p.p.p.p.p.p.p.p.p.p.p.p.p.l.N.X.G < ",
"< S { N.N.*.K v b V S x t $ o M  .v.l.p.p.p.p.p.p.p.p.p.p.p.p.p.p.p.p.p.p.p.p.p.p.p.p.p.p.p.p.p.p.p.p.p.p.p.p.p.p.p.p.p.p.p.p.p.p.p.p.p.p.l.v.{ S < ",
"< S { v.z.8.*.` ` X.$.) x $ X M { v.l.p.p.p.p.p.p.p.p.p.p.p.p.p.p.p.p.p.p.p.p.p.p.p.p.p.p.p.p.p.p.p.p.p.p.p.p.p.p.p.p.p.p.p.p.p.p.p.p.p.p.l.v.{ A < ",
"< S { v.l.a.l.N.V.i.7.) x q a T ;.l.l.p.p.p.p.a.l.l.a.p.p.p.p.p.p.p.p.p.p.p.p.p.p.p.p.p.p.p.p.a.l.l.a.p.p.p.p.p.p.p.p.p.p.p.p.p.p.p.p.p.p.l.v.{ A < ",
"< S ` v.l.a.l.N.A.6.W g 9 f ~ 2.r.a.a.p.p.p.p.a.l.l.a.p.p.p.p.p.p.p.p.p.p.p.p.p.p.p.p.p.p.p.p.a.l.l.a.p.p.p.p.p.p.p.p.p.p.p.p.p.p.p.p.p.p.l.v.{ A < ",
"< S ` v.l.a.a.r.2.~ f 9 a R 3.N.l.p.p.p.p.a.l.8.*.=.q.l.l.p.p.p.p.p.p.p.p.p.p.p.p.p.p.p.p.a.l.q.*.=.q.l.l.p.p.p.p.p.p.p.p.p.p.p.p.p.p.p.p.l.v.{ A < ",
"< S ` v.l.l.l.;.T a q j ~ 2.r.l.l.p.p.p.p.l.N.;.P P ;.N.l.p.p.p.p.p.p.p.p.p.p.p.p.p.p.p.p.l.N.;.P P ;.N.l.p.p.p.p.p.p.p.p.p.p.p.p.p.p.p.p.l.v.` A < ",
"< S ` v.l.l.v.{ M X o G #.V.v.p.p.p.p.a.l.r.2.! a a ! 2.r.l.a.p.p.p.p.p.p.p.p.p.p.p.p.a.l.r.2.! a a ! 2.r.l.a.p.p.p.p.p.p.p.p.p.p.p.p.p.p.l.v.` A < ",
"< S ` v.l.l.v. .M X X V O.N.l.p.p.p.p.l.N.3.R f e e f R 2.N.l.p.p.p.p.p.p.p.p.p.p.p.p.l.N.3.R g e e f R 2.N.l.p.p.p.p.p.p.p.p.p.p.p.p.p.p.l.v.` A < ",
"< A ` v.l.l.l.;.I N V R ;.l.l.p.p.l.l.r.3./ g * 1 1 * g / 2.r.l.l.p.p.p.p.p.p.p.p.l.l.r.2./ j < 1 1 * g / 2.r.l.l.p.p.p.p.p.p.p.p.p.p.p.p.l.v.` A < ",
"< S ` v.l.p.a.8.-. .O.2.8.a.a.p.p.l.N.2.R g t 1 5 5 1 t g R 2.N.l.p.p.p.p.p.p.p.p.l.N.2.R g t 1 5 5 5 t g R 2.N.l.p.p.p.p.p.p.p.p.p.p.p.p.l.v.{ S < ",
"< S ` v.l.p.p.l.N.u.2.<.r.l.a.a.a.r.2./ g * 1 8 8 8 8 1 < j / 2.r.a.a.p.p.p.p.a.a.r.2./ g * 1 8 8 8 8 1 * g / 2.r.a.a.p.p.p.p.p.p.p.p.p.p.l.v.{ S < ",
"< S { v.l.p.p.v.A.2.I P ;.N.l.l.l.;.T g t 1 5 8 8 8 8 5 1 t j T ;.l.l.p.p.p.p.l.l.;.T j t 1 5 8 8 8 8 5 1 t g T ;.l.l.p.p.p.p.p.p.p.p.p.p.l.v.{ S < ",
"< S ` v.l.l.l.r.2.! a a ! 3.r.N.N.{ M $ < 8 8 8 8 8 8 8 8 < $ M { v.l.p.p.p.p.l.v.{ M $ < 8 8 8 8 8 8 8 8 < $ M  .v.l.p.p.p.p.p.p.p.p.p.p.l.v.{ S < ",
"< S { v.l.l.N.2.R f e e f R 3.A.V. .M $ < 8 8 8 8 8 8 8 8 < $ M { v.l.p.p.p.p.l.v. .M $ < 8 8 8 8 8 8 8 8 < $ M  .v.l.p.p.p.p.p.p.p.p.p.p.l.v.{ S < ",
"< S { N.v.r.2./ g * 1 1 < j / 3.u.;.R j t < 1 5 5 5 5 1 < t g T ;.l.l.p.p.p.p.l.l.;.T j t < 1 5 5 5 5 1 < t j T ;.l.l.p.p.p.p.p.p.p.p.p.p.l.v.{ S < ",
"< S { N.N.;.T g t 1 5 5 5 t j R ;.u.3./ g $ < 1 5 5 1 < $ g / 2.r.a.a.p.p.p.p.a.a.r.2./ j * < 1 5 5 1 < * j / 2.r.a.a.p.p.p.p.p.p.p.p.p.p.l.v.{ S < ",
"< S ` V.V.{ M o * 5 5 5 5 < o M  .V.A.2.T A G c u u c G A T 2.N.l.p.p.p.p.p.p.p.p.l.N.2.T A G c u u c G A T 2.N.l.p.p.p.p.p.p.p.p.p.p.p.p.l.v.{ S < ",
"< S ` V.V. .M o $ 1 5 5 5 * o M  .N.N.r.;.O.%._ x x _ %.O.;.r.l.a.p.p.p.p.p.p.p.p.a.l.r.;.O.%.) x x ) %.O.;.r.l.a.p.p.p.p.p.p.p.p.p.p.p.p.l.v.{ A < ",
"< S ` N.N.;.I A G c u u c G A I ;.l.l.l.v.u.3.~ f f ~ 3.u.v.l.p.p.p.p.p.p.p.p.p.p.p.p.l.v.u.3.~ f f ~ 3.u.v.l.p.p.p.p.p.p.p.p.p.p.p.p.p.p.l.v.{ A < ",
"< S ` v.v.8.-.O.%._ x x _ %.O.;.8.a.a.l.N.;.I a q q a T ;.N.l.p.p.p.p.p.p.p.p.p.p.p.p.l.N.;.I a q q a I ;.N.l.p.p.p.p.p.p.p.p.p.p.p.p.p.p.l.v.{ A < ",
"< S ` v.l.l.v.u.3.~ f f ~ 3.u.v.l.p.p.l.l.*.J b V V b K *.l.l.p.p.p.p.a.l.l.a.p.p.p.p.l.l.*.J b V V b J *.l.l.p.p.p.p.p.p.p.p.p.p.p.p.p.p.l.v.{ A < ",
"< S ` v.l.l.N.;.T a q q a I ;.N.l.p.p.a.a.8.*.`  . .` *.8.a.a.p.p.p.p.a.l.l.a.p.p.p.p.a.a.8.*.`  . .` *.8.a.a.p.p.p.p.p.p.p.p.p.p.p.p.p.p.l.v.` A < ",
"< S ` v.l.l.l.*.J b V V b J *.l.l.p.p.p.p.a.l.v.v.v.v.l.a.p.p.p.p.a.l.q.=.=.8.l.a.p.p.p.p.a.l.v.v.v.v.l.a.p.p.p.p.p.p.p.p.p.p.p.p.p.p.p.p.l.v.` A < ",
"< S { v.l.a.a.8.*.`  . .` *.8.a.p.p.p.p.p.a.l.l.l.l.l.l.a.p.p.p.p.l.N.;.P P ;.N.l.p.p.p.p.a.l.l.l.l.l.l.a.p.p.p.p.p.p.p.p.p.p.p.p.p.p.p.p.l.v.` A < ",
"< S ` v.l.p.p.a.l.v.v.v.v.l.a.p.p.p.p.p.p.p.p.p.p.p.p.p.p.p.p.a.l.r.3.! a a ! 2.r.l.a.p.p.p.p.p.p.p.p.p.p.p.p.p.p.p.p.p.p.p.p.p.p.p.p.p.p.l.v.` A < ",
"< S { v.l.p.p.a.l.l.l.l.l.l.a.p.p.p.p.p.p.p.p.p.p.p.p.p.p.p.p.l.N.3.R g e e g R 2.N.l.p.p.p.p.p.p.p.p.p.p.p.p.p.p.p.p.p.p.p.p.p.p.p.p.p.p.l.v.{ S < ",
"< S { v.l.p.p.p.p.p.p.p.p.p.p.p.p.p.p.p.p.p.p.p.p.p.p.p.p.a.l.r.3./ g < 5 5 < g / 2.r.l.l.p.p.p.p.p.p.p.p.p.p.p.p.p.p.p.p.p.p.p.p.p.p.p.p.l.v.{ S < ",
"< S { v.l.p.p.p.p.p.p.p.p.p.p.p.p.p.p.p.p.p.p.p.p.p.p.p.p.l.N.2.R g t 1 5 5 1 t g R 2.N.l.p.p.p.p.p.p.p.p.p.p.p.p.p.p.p.p.p.p.p.p.p.p.p.p.l.v.{ S < ",
"< S { v.l.p.p.p.p.p.p.p.p.p.p.p.p.p.p.p.p.p.p.p.p.p.p.a.a.r.2./ j * 1 8 8 8 8 1 * g / 2.r.a.a.p.p.p.p.p.p.p.p.p.p.p.p.p.p.p.p.p.p.p.p.p.p.l.v.{ S < ",
"< S ` v.l.p.p.p.p.p.p.p.p.p.p.p.p.p.p.p.p.p.p.p.p.p.p.l.l.;.T j t 1 5 8 8 8 8 5 1 t j T ;.l.l.p.p.p.p.p.p.p.p.p.p.p.p.p.p.p.p.p.p.p.p.p.p.l.v.{ S < ",
"< S ` v.l.p.p.p.p.p.p.p.p.p.p.p.p.p.p.p.p.p.p.p.p.p.p.l.v.{ M $ < 8 8 8 8 8 8 8 8 < $ M { v.l.p.p.p.p.p.p.p.p.p.p.p.p.p.p.p.p.p.p.p.p.p.p.l.v.{ S < ",
"< S ` v.l.p.p.p.p.p.p.p.p.p.p.p.p.p.p.p.p.p.p.p.p.p.p.l.v.{ M $ < 8 8 8 8 8 8 8 8 < $ M { v.l.p.p.p.p.p.p.p.p.p.p.p.p.p.p.p.p.p.p.p.p.p.p.l.v.{ S < ",
"< A ` v.l.p.p.p.p.p.p.p.p.p.p.p.p.p.p.p.p.p.p.p.p.p.p.l.l.;.T j t < 1 5 5 5 5 1 < t j T ;.l.l.p.p.p.p.p.p.p.p.p.p.p.p.p.p.p.p.p.p.p.p.p.p.l.v.{ S < ",
"< S ` v.l.p.p.p.p.p.p.p.p.p.p.p.p.p.p.p.p.p.p.p.p.p.p.a.a.r.2./ j $ < 1 5 5 1 < * j / 2.r.a.a.p.p.p.p.p.p.p.p.p.p.p.p.p.p.p.p.p.p.p.p.p.p.l.v.{ A < ",
"< S ` v.l.p.p.p.p.p.p.p.p.p.p.p.p.p.p.p.p.p.p.a.l.l.a.p.p.l.N.2.T A G c u u c G A T 2.N.l.p.p.a.l.l.a.p.p.p.p.p.p.p.p.p.p.p.p.p.p.p.p.p.p.l.v.{ A < ",
"< S { v.l.p.p.p.p.p.p.p.p.p.p.p.p.p.p.p.p.p.p.a.l.l.a.p.p.a.l.r.;.O.%.) x x ) %.O.;.r.l.l.p.p.a.l.l.a.p.p.p.p.p.p.p.p.p.p.p.p.p.p.p.p.p.p.l.v.{ A < ",
"< S ` v.l.p.p.p.p.p.p.p.p.p.p.p.p.p.p.p.p.l.l.q.*.*.8.l.a.p.p.l.v.u.3.~ f f ~ 3.u.v.l.p.p.l.l.q.*.=.q.l.l.p.p.p.p.p.p.p.p.p.p.p.p.p.p.p.p.l.v.{ A < ",
"< S { v.l.p.p.p.p.p.p.p.p.p.p.p.p.p.p.p.p.l.N.;.P P ;.N.l.p.p.l.N.;.T a q q a T ;.N.l.p.p.l.N.;.P P ;.N.l.p.p.p.p.p.p.p.p.p.p.p.p.p.p.p.p.l.v.` A < ",
"< S { v.l.p.p.p.p.p.p.p.p.p.p.p.p.p.p.l.l.r.2.! a a ! 2.r.l.l.l.l.*.K b V V b J *.l.l.l.l.r.2.! a a ! 2.r.l.a.p.p.p.p.p.p.p.p.p.p.p.p.p.p.l.v.` A < ",
"< S { v.l.p.p.p.p.p.p.p.p.p.p.p.p.p.p.l.N.3.R g e e f R 2.N.l.a.a.8.*.`  . .` *.8.a.a.l.N.2.R f e e f R 2.N.l.p.p.p.p.p.p.p.p.p.p.p.p.p.p.l.v.` A < ",
"< S { v.l.p.p.p.p.p.p.p.p.p.p.p.p.a.l.r.3./ g * 1 1 * g / 2.r.l.l.a.l.v.v.v.v.l.a.a.l.r.2./ g * 1 1 * g / 2.r.l.l.p.p.p.p.p.p.p.p.p.p.p.p.l.v.` A < ",
"< S ` v.l.p.p.p.p.p.p.p.p.p.p.p.p.l.N.2.R g t 5 5 5 1 t g R 2.N.l.a.l.l.l.l.l.l.a.l.N.2.R g t 1 5 5 5 t g R 2.N.l.p.p.p.p.p.p.p.p.p.p.p.p.l.v.{ S < ",
"< S ` v.l.p.p.p.p.p.p.p.p.p.p.a.a.r.2./ g * 1 8 8 8 8 1 * g / 2.r.a.a.p.p.p.p.a.a.r.2./ g * 1 8 8 8 8 1 * g / 2.r.a.a.p.p.p.p.p.p.p.p.p.p.l.v.{ S < ",
"< S ` v.l.p.p.p.p.p.p.p.p.p.p.l.l.;.T j t 1 5 8 8 8 8 5 1 t g T ;.l.l.p.p.p.p.l.l.;.T j t 1 5 8 8 8 8 5 1 t g T ;.l.l.p.p.p.p.p.p.p.p.p.p.l.v.{ S < ",
"< A ` v.l.p.p.p.p.p.p.p.p.p.p.l.v.{ M $ < 8 8 8 8 8 8 8 8 < $ M { v.l.p.p.p.p.l.v.{ M $ < 8 8 8 8 8 8 8 8 < $ M  .v.l.p.p.p.p.p.p.p.p.p.p.l.v.{ S < ",
"< S ` v.l.p.p.p.p.p.p.p.p.p.p.l.v.{ M $ < 8 8 8 8 8 8 8 8 < $ M { v.l.p.p.p.p.l.v.{ M $ < 8 8 8 8 8 8 8 8 < $ M  .v.l.p.p.p.p.p.p.p.p.p.p.l.v.{ S < ",
"< S ` v.l.p.p.p.p.p.p.p.p.p.p.l.l.;.T j t < 1 5 5 5 5 1 < t j T ;.l.l.p.p.p.p.l.l.;.T j t < 1 5 5 5 5 1 < t j T ;.l.l.p.p.p.p.p.p.p.p.p.p.l.v.{ S < ",
"< S { v.l.p.p.p.p.p.p.p.p.p.p.a.a.r.2./ j * < 1 5 5 1 < * j / 2.r.a.a.p.p.p.p.a.a.r.2./ j * < 1 5 5 1 < * j / 2.r.a.a.p.p.p.p.p.p.p.p.p.p.l.v.{ S < ",
"< S ` v.l.p.p.p.p.p.p.p.p.p.p.p.p.l.N.2.T A G c u u c G A T 2.N.l.p.p.p.p.p.p.p.p.l.V.2.T A G c u u c G A T 2.N.l.p.p.p.p.p.p.p.p.p.p.p.p.l.v.{ S < ",
"< S { v.l.p.p.p.p.p.p.p.p.p.p.p.p.a.l.r.;.O.%.) x x ) %.O.;.r.l.a.p.p.p.p.p.p.p.p.a.l.r.;.O.%.) x x ) %.O.;.r.l.a.p.p.p.p.p.p.p.p.p.p.p.p.l.v.{ S < ",
"< S { v.l.p.p.p.p.p.p.p.p.p.p.p.p.p.p.l.v.u.3.~ f f ~ 3.u.v.l.p.p.p.p.p.p.p.p.p.p.p.p.l.v.u.3.~ f f ~ 3.u.v.l.p.p.p.p.p.p.p.p.p.p.p.p.p.p.l.v.{ S < ",
"< S { v.l.p.p.p.p.p.p.p.p.p.p.p.p.p.p.l.N.;.I a q q a I ;.N.l.p.p.p.p.p.p.p.p.p.p.p.p.l.N.;.I a q q a I ;.N.l.p.p.p.p.p.p.p.p.p.p.p.p.p.p.l.v.{ S < ",
"< S { v.l.p.p.p.p.p.p.p.p.p.p.p.p.p.p.l.l.*.J b V V b J *.l.l.p.p.p.p.p.p.p.p.p.p.p.p.l.l.*.J b V V b J *.l.l.p.p.p.p.p.p.p.p.p.p.p.p.p.p.l.v.{ S < ",
"< S ` v.l.p.p.p.p.p.p.p.p.p.p.p.p.p.p.a.a.8.*.`  . .` *.8.a.a.p.p.p.p.p.p.p.p.p.p.p.p.a.a.8.*.`  . .` *.8.a.a.p.p.p.p.p.p.p.p.p.p.p.p.p.p.l.v.` S < ",
"< S ` v.l.p.p.p.p.p.p.p.p.p.p.p.p.p.p.p.p.a.l.v.v.v.v.l.a.p.p.p.p.p.p.p.p.p.p.p.p.p.p.p.p.a.l.v.v.v.v.l.a.p.p.p.p.p.p.p.p.p.p.p.p.p.p.p.p.l.v.` S < ",
"< S ` v.l.p.p.p.p.p.p.p.p.p.p.p.p.p.p.p.p.a.l.l.l.l.l.l.a.p.p.p.p.p.p.p.p.p.p.p.p.p.p.p.p.a.l.l.l.l.l.l.a.p.p.p.p.p.p.p.p.p.p.p.p.p.p.p.p.l.v.` A < ",
"< A ` v.l.p.p.p.p.p.p.p.p.p.p.p.p.p.p.p.p.p.p.p.p.p.p.p.p.p.p.p.p.p.p.p.p.p.p.p.p.p.p.p.p.p.p.p.p.p.p.p.p.p.p.p.p.p.p.p.p.p.p.p.p.p.p.p.p.l.v.` A < ",
"< S ` v.l.p.p.p.p.p.p.p.p.p.p.p.p.p.p.p.p.p.p.p.p.p.p.p.p.p.p.p.p.p.p.p.p.p.p.p.p.p.p.p.p.p.p.p.p.p.p.p.p.p.p.p.p.p.p.p.p.p.p.p.p.p.p.p.p.l.v.{ A < ",
"< S ` v.l.p.p.p.p.p.p.p.p.p.p.p.p.p.p.p.p.p.p.p.p.p.p.p.p.p.p.p.p.p.p.p.p.p.p.p.p.p.p.p.p.p.p.p.p.p.p.p.p.p.p.p.p.p.p.p.p.p.p.p.p.p.p.p.p.l.v.{ A < ",
"< S { v.l.p.p.p.p.p.p.p.p.p.p.p.p.p.p.p.p.p.p.p.p.p.p.p.p.p.p.p.p.p.p.p.p.p.p.p.p.p.p.p.p.p.p.p.p.p.p.p.p.p.p.p.p.p.p.p.p.p.p.p.p.p.p.p.p.l.v.{ A < ",
"< S ` v.l.p.p.p.p.p.p.p.p.p.p.p.p.p.p.p.p.p.p.p.p.p.p.p.p.p.p.p.p.p.p.p.p.p.p.p.p.p.p.p.p.p.p.p.p.p.p.p.p.p.p.p.p.p.p.p.p.p.p.p.p.p.p.p.p.l.v.{ A < ",
"< S { v.l.p.p.p.p.p.p.p.p.p.p.p.p.p.p.p.p.p.p.p.p.p.p.p.p.p.p.p.p.p.p.p.p.p.p.p.p.p.p.p.p.p.p.p.p.p.p.p.p.p.p.p.p.p.p.p.p.p.p.p.p.p.p.p.p.l.v.{ S < ",
"< S { v.l.p.p.p.p.p.p.p.p.p.p.p.p.p.p.p.p.p.p.p.p.p.p.p.p.p.p.p.p.p.p.p.p.p.p.p.p.p.p.p.p.p.p.p.p.p.p.p.p.p.p.p.p.p.p.p.p.p.p.p.p.p.p.p.p.l.v.{ A < ",
"< S { v.l.p.p.p.p.p.p.p.p.p.p.p.p.p.p.p.p.p.p.p.p.p.p.p.p.p.p.p.p.p.p.p.p.p.p.p.p.p.p.p.p.p.p.p.p.p.p.p.p.p.p.p.p.p.p.p.p.p.p.p.p.p.p.p.p.l.v.{ A < ",
"< S { v.l.p.p.p.p.p.p.p.p.p.p.p.p.p.p.p.p.p.p.p.p.p.p.p.p.p.p.p.p.p.p.p.p.p.p.p.p.p.p.p.p.p.p.p.p.p.p.p.p.p.p.p.p.p.p.a.l.l.l.l.l.l.a.p.p.l.v.{ A < ",
"< S ` v.l.p.p.p.p.p.p.p.p.p.p.p.p.p.p.p.p.p.p.p.p.p.p.p.p.p.p.p.p.p.p.p.p.p.p.p.p.p.p.p.p.p.p.p.p.p.p.p.p.p.p.p.p.p.p.a.l.v.v.v.v.l.a.p.p.l.v.{ S < ",
"< S ` v.l.p.p.p.p.p.p.p.p.p.p.p.p.p.p.p.p.a.l.l.l.l.l.l.a.p.p.p.p.p.p.p.p.p.p.p.p.p.p.p.p.a.l.l.l.l.l.l.a.p.p.p.p.a.a.8.*.`  . .` *.8.a.a.l.v.{ S < ",
"< S ` v.l.p.p.p.p.p.p.p.p.p.p.p.p.p.p.p.p.a.l.v.v.v.v.l.a.p.p.p.p.p.p.p.p.p.p.p.p.p.p.p.p.a.l.v.v.v.v.l.a.p.p.p.p.l.l.*.J b V V b J *.l.l.l.v.{ S < ",
"< A ` v.l.p.p.p.p.p.p.p.p.p.p.p.p.p.p.a.a.8.*.`  . .` *.8.a.a.p.p.p.p.p.p.p.p.p.p.p.p.a.a.8.*.`  . .` *.8.a.a.p.p.l.N.;.T a q q a I ;.N.l.l.v.` S < ",
"< S ` v.l.p.p.p.p.p.p.p.p.p.p.p.p.p.p.l.l.*.J b V V b J *.l.l.p.p.p.p.p.p.p.p.p.p.p.p.l.l.*.J b V V b J *.l.l.p.p.l.v.u.3.~ f f ~ 3.u.v.l.l.v.` S < ",
"< S ` v.l.p.p.p.p.p.p.p.p.p.p.p.p.p.p.l.N.;.T a q q a I ;.N.l.p.p.p.p.p.p.p.p.p.p.p.p.l.N.;.I a q q a I ;.N.l.a.a.8.-.O.%._ x x _ %.O.;.8.v.N.{ S < ",
"< S { v.l.p.p.p.p.p.p.p.p.p.p.p.p.p.p.l.v.u.3.~ f f ~ 3.u.v.l.p.p.p.p.p.p.p.p.p.p.p.p.l.v.u.3.~ f f ~ 3.u.v.l.l.l.;.I A G c u u c G A I ;.N.N.{ S < ",
"< S ` v.l.p.p.p.p.p.p.p.p.p.p.p.p.a.l.r.;.O.%._ x x _ %.O.;.r.l.a.p.p.p.p.p.p.p.p.a.l.r.;.O.%.) x x ) %.O.;.r.N.N. .M o $ 1 5 5 1 $ o M  .V.V.{ S < ",
"< S { v.l.p.p.p.p.p.p.p.p.p.p.p.p.l.N.2.T A G c u u c G A T 2.N.l.p.p.p.p.p.p.p.p.l.N.2.T A G c u u c G A T 2.A.V.{ M o * 5 5 5 5 * o M  .V.V.{ A < ",
"< S { v.l.p.p.p.p.p.p.p.p.p.p.a.a.r.2./ j $ < 1 5 5 1 < * j / 2.r.a.a.p.p.p.p.a.a.r.2./ j $ < 1 5 5 1 < $ j / 3.u.;.R j t 1 5 5 1 t g T ;.N.N.{ A < ",
"< S { v.l.p.p.p.p.p.p.p.p.p.p.l.l.;.T g t < 1 5 5 5 5 1 < t g T ;.l.l.p.p.p.p.l.l.;.T g t < 1 5 5 5 5 1 < t j R ;.u.3./ g * 5 5 * g / 2.r.v.v.` A < ",
"< S { v.l.p.p.p.p.p.p.p.p.p.p.l.v. .M $ < 8 8 8 8 8 8 8 8 < $ M { v.l.p.p.p.p.l.v.{ M $ < 8 8 8 8 8 8 8 8 < $ M  .V.A.2.R f e e g R 2.N.l.l.v.{ A < ",
"< S ` v.l.p.p.p.p.p.p.p.p.p.p.l.v.{ M $ < 8 8 8 8 8 8 8 8 < $ M  .v.l.p.p.p.p.l.v.{ M $ < 8 8 8 8 8 8 8 8 < $ M  .N.N.r.3.! a a ! 2.r.l.a.l.v.{ A < ",
"< S ` v.l.p.p.p.p.p.p.p.p.p.p.l.l.;.T g t 1 5 8 8 8 8 5 1 t j T ;.l.l.p.p.p.p.l.l.;.T j t 1 5 8 8 8 8 5 1 t g T ;.l.l.l.N.;.I T 2.A.v.p.p.l.v.{ S < ",
"< S ` v.l.p.p.p.p.p.p.p.p.p.p.a.a.r.2./ g * 1 8 8 8 8 1 * g / 2.r.a.a.p.p.p.p.a.a.r.2./ g * 1 8 8 8 8 1 * g / 2.r.a.a.l.l.r.<.3.u.N.l.p.p.l.v.` A < ",
"< A ` v.l.p.p.p.p.p.p.p.p.p.p.p.p.l.N.2.R g t 1 5 5 1 t g R 2.N.l.p.p.p.p.p.p.p.p.l.V.2.R g t 1 5 5 5 t g R 2.N.l.p.p.a.a.8.2.O. .-.8.a.p.l.v.` A < ",
"< S ` v.l.p.p.p.p.p.p.p.p.p.p.p.p.a.l.r.3./ g < 1 5 * g ~ 2.r.l.l.p.p.p.p.p.p.p.p.a.l.r.3./ g < 5 1 * g ~ 2.r.l.a.p.p.l.l.;.R V N I -.l.l.l.v.{ A < ",
"< S ` v.l.p.p.p.p.p.p.p.p.p.p.p.p.p.p.l.V.2.R g e e f R 2.N.l.p.p.p.p.p.p.p.p.p.p.p.p.l.V.2.R g e e f R 2.N.l.p.p.p.p.l.N.O.V X X M  .v.l.l.v.{ S < ",
"< S { v.l.p.p.p.p.p.p.p.p.p.p.p.p.p.p.a.l.r.3.! a a ! 2.r.l.l.p.p.p.p.p.p.p.p.p.p.p.p.a.l.r.3.! a a ! 2.r.l.a.p.p.p.p.v.V.#.G o X M  .v.l.l.v.{ A < ",
"< S ` v.l.p.p.p.p.p.p.p.p.p.p.p.p.p.p.p.p.l.N.;.P P ;.N.l.p.p.p.p.p.p.p.p.p.p.p.p.p.p.p.p.l.N.;.P P ;.N.l.p.p.p.p.a.l.r.2.~ j q a T ;.l.l.l.v.{ S < ",
"< S { v.l.p.p.p.p.p.p.p.p.p.p.p.p.p.p.p.p.a.l.q.=.=.q.l.a.p.p.p.p.p.p.p.p.p.p.p.p.p.p.p.p.a.l.q.=.=.8.l.a.p.p.p.p.l.V.2.R a 9 f ~ 2.r.a.a.l.v.{ A < ",
"< S { v.l.p.p.p.p.p.p.p.p.p.p.p.p.p.p.p.p.p.p.a.l.l.a.p.p.p.p.p.p.p.p.p.p.p.p.p.p.p.p.p.p.p.p.a.l.l.a.p.p.p.p.a.a.r.2.~ f 9 g W 6.A.N.l.a.l.v.` S < ",
"< S { v.l.p.p.p.p.p.p.p.p.p.p.p.p.p.p.p.p.p.p.a.l.l.a.p.p.p.p.p.p.p.p.p.p.p.p.p.p.p.p.p.p.p.p.a.l.l.a.p.p.p.p.l.l.;.T a q j ) 7.i.V.N.l.a.l.v.` A < ",
"< S { v.l.p.p.p.p.p.p.p.p.p.p.p.p.p.p.p.p.p.p.p.p.p.p.p.p.p.p.p.p.p.p.p.p.p.p.p.p.p.p.p.p.p.p.p.p.p.p.p.p.p.p.l.v. .M X $ x ) $.X.` ` *.8.z.v.` S < ",
"< S ` v.l.p.p.p.p.p.p.p.p.p.p.p.p.p.p.p.p.p.p.p.p.p.p.p.p.p.p.p.p.p.p.p.p.p.p.p.p.p.p.p.p.p.p.p.p.p.p.p.p.p.p.l.v. .M o $ t x S V b v J *.N.N.{ S < ",
"< G X.N.l.p.p.p.p.p.p.p.p.p.p.p.p.p.p.p.p.p.p.p.p.p.p.p.p.p.p.p.p.p.p.p.p.p.p.p.p.p.p.p.p.p.p.p.p.p.p.p.p.p.p.l.l.;.I V A S V N N b v J *.V.A.X.G < ",
"< G O.V.z.p.p.p.p.p.p.p.p.p.p.p.p.p.p.p.p.p.p.p.p.p.p.p.p.p.p.p.p.p.p.p.p.p.p.p.p.p.p.p.p.p.p.p.p.p.p.p.p.p.p.a.a.8.-. . . .{ ` ` ` ` *.8.N.A.O.G < ",
"< x ! 2.r.z.l.l.l.l.l.l.l.l.l.l.l.l.l.l.l.l.l.l.l.l.l.l.l.l.l.l.l.l.l.l.l.l.l.l.l.l.l.l.l.l.l.l.l.l.l.l.l.l.l.l.l.z.N.V.V.V.V.V.V.V.V.V.v.r.2.! x < ",
"5 y g R 2.V.N.v.v.v.v.v.v.v.v.v.v.v.v.v.v.v.v.v.v.v.v.v.v.v.v.v.v.v.v.v.v.v.v.v.v.v.v.v.v.v.v.v.v.v.v.v.v.v.v.v.v.v.N.V.V.V.V.V.V.V.V.A.A.2.R g y 5 ",
"8 < * g ! O.X.{ ` ` ` ` { { { { ` ` ` ` { { { { { { { { ` ` { { { { { ` ` ` { { ` ` ` ` { { { { ` ` ` ` { { { { { { { { ` ` { { { { { X.O.! g * < 8 ",
"    < y x G G S A S S S S S S S S S S S S A S S S S S S A S S S S S S S A S S S A S S S S S S S S S S S S A S S S S S S A S S S S S S G G x y <     ",
"    8 5 < < < < < < < < < < < < < < < < < < < < < < < < < < < < < < < < < < < < < < < < < < < < < < < < < < < < < < < < < < < < < < < < < < 5 8     "
};
