/* XPM */
static char *spades_3[] = {
/* columns rows colors chars-per-pixel */
"74 104 136 2 ",
"   c None",
".  c #1B0029",
"X  c #1C002A",
"o  c #1D002A",
"O  c #1E002B",
"+  c #1E002C",
"@  c #1F002C",
"#  c #20002D",
"$  c #20012D",
"%  c #21012D",
"&  c #21012E",
"*  c #21022E",
"=  c #22022F",
"-  c #22032F",
";  c #23032F",
":  c #230430",
">  c #240430",
",  c #250531",
"<  c #250631",
"1  c #250632",
"2  c #260632",
"3  c #260732",
"4  c #270833",
"5  c #2B0D37",
"6  c #2D0F38",
"7  c #2E1039",
"8  c #2F113A",
"9  c #30133B",
"0  c #33153D",
"q  c #452A4C",
"w  c #462B4D",
"e  c #462C4E",
"r  c #482D4F",
"t  c #482E4F",
"y  c #482E50",
"u  c #4A3051",
"i  c #4B3152",
"p  c #4C3152",
"a  c #4D3454",
"s  c #4F3555",
"d  c #503756",
"f  c #523857",
"g  c #523858",
"h  c #533A58",
"j  c #533A59",
"k  c #543B59",
"l  c #543B5A",
"z  c #553C5A",
"x  c #553D5B",
"c  c #563D5B",
"v  c #563E5C",
"b  c #573E5C",
"n  c #583F5D",
"m  c #58405D",
"M  c #59405D",
"N  c #59415E",
"B  c #5A425F",
"V  c #7B677B",
"C  c #7B687B",
"Z  c #7C697C",
"A  c #7D6A7D",
"S  c #7F6C7E",
"D  c #7F6C7F",
"F  c #806C7F",
"G  c #806D7F",
"H  c #816E80",
"J  c #816F80",
"K  c #998A95",
"L  c #9B8B96",
"P  c #9B8C96",
"I  c #9C8C97",
"U  c #9C8D97",
"Y  c #9F9099",
"T  c #A0919A",
"R  c #C0B5B6",
"E  c #C0B6B6",
"W  c #C1B6B6",
"Q  c #C1B7B7",
"!  c #C2B8B7",
"~  c #C2B8B8",
"^  c #C3B9B8",
"/  c #C3B9B9",
"(  c #C3BAB9",
")  c #C4BAB9",
"_  c #C5BBBA",
"`  c #C5BCBA",
"'  c #C6BCBB",
"]  c #C6BDBB",
"[  c #C8BFBD",
"{  c #CAC1BE",
"}  c #CBC2BF",
"|  c #CEC5C2",
" . c #CFC7C3",
".. c #D0C7C3",
"X. c #D0C8C3",
"o. c #D0C8C4",
"O. c #D1C9C4",
"+. c #D1CAC5",
"@. c #D2CAC5",
"#. c #D3CBC6",
"$. c #D4CCC7",
"%. c #D4CDC7",
"&. c #D5CDC7",
"*. c #D5CDC8",
"=. c #D7CFC9",
"-. c #E9E4D9",
";. c #EAE5DA",
":. c #EAE6DA",
">. c #ECE7DB",
",. c #ECE8DC",
"<. c #EFEADE",
"1. c #EFEBDE",
"2. c #F0EDDF",
"3. c #F1EDDF",
"4. c #F6F3E4",
"5. c #F7F4E5",
"6. c #F8F5E5",
"7. c #F8F5E6",
"8. c #F8F6E6",
"9. c #F9F6E7",
"0. c #F9F7E7",
"q. c #FAF7E7",
"w. c #FAF8E8",
"e. c #FBF8E8",
"r. c #FBF9E8",
"t. c #FBF9E9",
"y. c #FCF9E9",
"u. c #FCFAE9",
"i. c #FCFAEA",
"p. c #FDFBEA",
"a. c #FEFCEA",
"s. c #FEFCEB",
"d. c #FEFDEB",
"f. c #FFFDEB",
"g. c #FFFEEC",
"h. c #FFFFED",
/* pixels */
"    4 1 ; ; ; ; ; ; ; ; ; ; ; ; ; ; ; ; ; ; ; ; ; ; ; ; ; ; ; ; ; ; ; ; ; ; ; ; ; ; ; ; ; ; ; ; ; ; ; ; ; ; ; ; ; ; ; ; ; ; ; ; ; ; ; ; ; ; 1 4     ",
"    ; 9 i N N n n n n b n n N n n n n n n n n b n n n n n n n n n n n b n n n n n n n n n n n b n n n n n n n n n n n b n n n n n n n N N i 9 ;     ",
"4 ; @ y L ' ) ! ! R R R R R ! ! ! ! R ! R R R R R R ! R ! ! ! ! R R R R R R ! R ! ! ! ! R R R R R R ! R ! ! ! ! R R R R R R ! R ! ! ! ) ' L t @ ; 4 ",
"1 9 y H %.g.g.s.s.s.s.s.p.s.s.p.t.t.t.t.t.t.t.t.t.t.t.t.t.t.t.t.t.t.t.t.t.t.t.t.t.t.t.t.t.t.t.t.t.t.t.t.t.t.t.t.t.t.t.t.t.t.t.t.t.t.t.p.s.%.H t 9 1 ",
"; i L %.<.t.p.s.s.s.s.s.s.s.s.p.t.q.q.q.q.q.q.q.q.q.q.q.q.q.q.q.q.q.q.q.q.q.q.q.q.q.q.q.q.q.q.q.q.q.q.q.q.q.q.q.q.q.q.q.q.q.q.q.q.q.q.q.t.<.%.L i ; ",
"; N ' g.t.-. .R R R R ! / / / o.-.5.5.4.4.4.4.4.4.4.4.4.4.4.4.4.4.4.4.4.4.4.4.4.4.4.4.4.4.4.4.4.4.4.4.4.4.4.4.4.4.4.4.4.4.4.4.4.4.4.4.4.4.t.s.' N ; ",
"; N ) g.p. .V d j k k x n b x S o.q.q.4.4.4.4.4.4.4.4.4.4.4.4.4.4.4.4.4.4.4.4.4.4.4.4.4.4.4.4.4.4.4.4.4.4.4.4.4.4.4.4.4.4.4.4.4.4.4.4.4.4.q.p.) N ; ",
"; n ! p.p...A j x N N i 8 o o x / t.q.4.4.4.4.4.4.4.4.4.4.4.4.4.4.4.4.4.4.4.4.4.4.4.4.4.4.4.4.4.4.4.4.4.4.4.4.4.4.4.4.4.4.4.4.4.4.4.4.4.4.q.t.! n ; ",
"; n ! p.t.-.o.) ) [ { Y i o o b / t.q.4.4.4.4.4.4.4.4.4.4.4.4.4.4.4.4.4.4.4.4.4.4.4.4.4.4.4.4.4.4.4.4.4.4.4.4.4.4.4.4.4.4.4.4.4.4.4.4.4.4.q.t.! b ; ",
"; n ! p.t.-.o.) ' [ { Y a ; ; N ) t.q.4.4.4.4.4.4.4.4.4.4.4.4.4.4.4.4.5.q.q.5.4.4.4.4.4.4.4.4.4.4.4.4.4.4.4.4.4.4.4.4.4.4.4.4.4.4.4.4.4.4.q.t.! b ; ",
"; n ! p.p.X.A j x N N i 0 ; ; N ) t.q.4.4.4.4.4.4.4.4.4.4.4.4.4.4.4.4.5.q.q.5.4.4.4.4.4.4.4.4.4.4.4.4.4.4.4.4.4.4.4.4.4.4.4.4.4.4.4.4.4.4.q.t.! b ; ",
"; n ! p.p.X.A j x N N i 0 ; ; N ) t.q.4.4.4.4.4.4.4.4.4.4.4.4.4.4.q.q.-.....-.q.q.4.4.4.4.4.4.4.4.4.4.4.4.4.4.4.4.4.4.4.4.4.4.4.4.4.4.4.4.q.t.! b ; ",
"; n R t.t.-.o.) ) [ { Y a ; ; N ) t.q.4.4.4.4.4.4.4.4.4.4.4.4.4.4.q.p.o.A A o.p.q.4.4.4.4.4.4.4.4.4.4.4.4.4.4.4.4.4.4.4.4.4.4.4.4.4.4.4.4.q.t.R b ; ",
"; n R t.t.-.o.) ' [ { Y i o o x / t.q.4.4.4.4.4.4.4.4.4.4.4.4.q.q.<.%.L w w L %.<.q.5.4.4.4.4.4.4.4.4.4.4.4.4.4.4.4.4.4.4.4.4.4.4.4.4.4.4.q.t.R b ; ",
"; n R p.p...A j x N N i 8 o o x / t.q.4.4.4.4.4.4.4.4.4.4.4.4.q.p.=.H e 6 6 e H %.p.q.4.4.4.4.4.4.4.4.4.4.4.4.4.4.4.4.4.4.4.4.4.4.4.4.4.4.q.t.R b ; ",
"; n R p.p. .C d f x x b N b x S o.q.q.4.4.4.4.4.4.4.4.4.4.5.q.<.%.I y ; : : @ t I %.<.q.q.4.4.4.4.4.4.4.4.4.4.4.4.4.4.4.4.4.4.4.4.4.4.4.4.q.t.R b ; ",
"; n R t.q.-. .R R / ) ' ) / / o.-.5.5.4.4.4.4.4.4.4.4.4.4.q.p.%.H t 8 : 1 1 1 8 t H %.p.q.4.4.4.4.4.4.4.4.4.4.4.4.4.4.4.4.4.4.4.4.4.4.4.4.q.t.! n ; ",
"; N R t.q.5.q.p.s.2.%.%.2.s.p.q.5.4.4.4.4.4.4.4.4.4.4.5.5.<.%.I t ; : 4 4 4 4 : @ t I %.<.5.5.4.4.4.4.4.4.4.4.4.4.4.4.4.4.4.4.4.4.4.4.4.4.q.t.! n ; ",
"; n ! t.q.5.q.p.g.%.S S %.g.p.q.5.4.4.4.4.4.4.4.4.4.4.q.q.o.G t 8 : 1 4 4 4 4 1 : 8 t G o.q.q.4.4.4.4.4.4.4.4.4.4.4.4.4.4.4.4.4.4.4.4.4.4.q.t.! n ; ",
"; n R t.q.q.q.<.%.L w w L =.<.q.5.4.4.4.4.4.4.4.4.4.4.q.t./ j o ; 4 4 4 4 4 4 4 4 ; o j ! t.q.4.4.4.4.4.4.4.4.4.4.4.4.4.4.4.4.4.4.4.4.4.4.q.t.! n ; ",
"; n ! t.q.q.p.%.H e 6 6 e H =.s.q.4.4.4.4.4.4.4.4.4.4.q.t.! j o ; 4 4 4 4 4 4 4 4 ; o j / t.q.4.4.4.4.4.4.4.4.4.4.4.4.4.4.4.4.4.4.4.4.4.4.q.t.! n ; ",
"; n ! p.w.<.%.I t ; : 1 ; t I %.<.5.5.4.4.4.4.4.4.4.4.q.q.o.G y 8 ; ; 1 1 1 1 : ; 8 y G o.q.q.4.4.4.4.4.4.4.4.4.4.4.4.4.4.4.4.4.4.4.4.4.4.q.t.! n ; ",
"; n R p.p.o.G t 8 : 1 1 : 8 y G o.q.q.4.4.4.4.4.4.4.4.5.5.<.%.I y o @ : 1 1 : ; o t I %.<.5.5.4.4.4.4.4.4.4.4.4.4.4.4.4.4.4.4.4.4.4.4.4.4.q.t.! n ; ",
"; n R s.s.! j . @ 1 1 1 1 @ . j / t.q.4.4.4.4.4.4.4.4.4.4.q.p.%.G b N s 0 0 s N b G %.p.q.4.4.4.4.4.4.4.4.4.4.4.4.4.4.4.4.4.4.4.4.4.4.4.4.q.t.! n ; ",
"; n R s.s./ j . o : 1 1 1 @ . j / t.q.4.4.4.4.4.4.4.4.4.4.5.q.<.o.' { T i i T { ' o.<.q.5.4.4.4.4.4.4.4.4.4.4.4.4.4.4.4.4.4.4.4.4.4.4.4.4.q.t.! b ; ",
"; n R p.p.o.S b N s 0 0 s N b S X.q.q.4.4.4.4.4.4.4.4.4.4.4.4.q.t.2.=.P e e P =.2.t.q.4.4.4.4.4.4.4.4.4.4.4.4.4.4.4.4.4.4.4.4.4.4.4.4.4.4.q.t.! b ; ",
"; n R t.t.-.X.' { T i i T { ' o.-.5.5.4.4.4.4.4.4.4.4.4.4.4.4.q.p.o.G w 5 5 w G o.p.q.4.4.4.4.4.4.4.4.4.4.4.4.4.4.4.4.4.4.4.4.4.4.4.4.4.4.q.t.! b ; ",
"; n R t.q.q.t.2.=.P e e P =.2.t.q.4.4.4.4.4.4.4.4.4.4.4.4.4.4.q.q. .V f x x f V  .q.q.4.4.4.4.4.4.4.4.4.4.4.4.4.4.4.4.4.4.4.4.4.4.4.4.4.4.q.t.! b ; ",
"; n R t.q.q.p.o.G w 5 5 w S o.p.q.4.4.4.4.4.4.4.4.4.4.4.4.4.4.5.5.-. .R / / R  .-.5.5.4.4.4.4.4.4.4.4.4.4.4.4.4.4.4.4.4.4.4.4.4.4.4.4.4.4.q.t.R b ; ",
"; N R t.q.q.q. .V f x x f V  .q.q.4.4.4.4.4.4.4.4.4.4.4.4.4.4.4.4.5.q.t.t.t.t.q.5.4.4.4.4.4.4.4.4.4.4.4.4.4.4.4.4.4.4.4.4.4.4.4.4.4.4.4.4.q.t.R b ; ",
"; n ! t.q.5.5.-. .R / / R  .-.5.5.4.4.4.4.4.4.4.4.4.4.4.4.4.4.4.4.5.q.q.q.q.q.q.5.4.4.4.4.4.4.4.4.4.4.4.4.4.4.4.4.4.4.4.4.4.4.4.4.4.4.4.4.q.t.R b ; ",
"; n R t.q.4.4.5.q.t.t.t.t.q.5.4.4.4.4.4.4.4.4.4.4.4.4.4.4.4.4.4.4.4.4.4.4.4.4.4.4.4.4.4.4.4.4.4.4.4.4.4.4.4.4.4.4.4.4.4.4.4.4.4.4.4.4.4.4.q.t.R b ; ",
"; n ! t.q.4.4.5.q.q.q.q.q.q.5.4.4.4.4.4.4.4.4.4.4.4.4.4.4.4.4.4.4.4.4.4.4.4.4.4.4.4.4.4.4.4.4.4.4.4.4.4.4.4.4.4.4.4.4.4.4.4.4.4.4.4.4.4.4.q.t.! n ; ",
"; n ! t.q.4.4.4.4.4.4.4.4.4.4.4.4.4.4.4.4.4.4.4.4.4.4.4.4.4.4.4.4.4.4.4.4.4.4.4.4.4.4.4.4.4.4.4.4.4.4.4.4.4.4.4.4.4.4.4.4.4.4.4.4.4.4.4.4.q.t.! n ; ",
"; n ! t.q.4.4.4.4.4.4.4.4.4.4.4.4.4.4.4.4.4.4.4.4.4.4.4.4.4.4.4.4.4.4.4.4.4.4.4.4.4.4.4.4.4.4.4.4.4.4.4.4.4.4.4.4.4.4.4.4.4.4.4.4.4.4.4.4.q.t.! n ; ",
"; n ! t.q.4.4.4.4.4.4.4.4.4.4.4.4.4.4.4.4.4.4.4.4.4.4.4.4.4.4.4.4.4.4.4.4.4.4.4.4.4.4.4.4.4.4.4.4.4.4.4.4.4.4.4.4.4.4.4.4.4.4.4.4.4.4.4.4.q.t.! n ; ",
"; n R t.q.4.4.4.4.4.4.4.4.4.4.4.4.4.4.4.4.4.4.4.4.4.4.4.4.4.4.4.4.4.4.4.4.4.4.4.4.4.4.4.4.4.4.4.4.4.4.4.4.4.4.4.4.4.4.4.4.4.4.4.4.4.4.4.4.q.t.! n ; ",
"; n R t.q.4.4.4.4.4.4.4.4.4.4.4.4.4.4.4.4.4.4.4.4.4.4.4.4.4.4.4.4.4.4.4.4.4.4.4.4.4.4.4.4.4.4.4.4.4.4.4.4.4.4.4.4.4.4.4.4.4.4.4.4.4.4.4.4.q.t.! n ; ",
"; n R t.q.4.4.4.4.4.4.4.4.4.4.4.4.4.4.4.4.4.4.4.4.4.4.4.4.4.4.4.4.4.4.4.4.4.4.4.4.4.4.4.4.4.4.4.4.4.4.4.4.4.4.4.4.4.4.4.4.4.4.4.4.4.4.4.4.q.t.! n ; ",
"; b R t.q.4.4.4.4.4.4.4.4.4.4.4.4.4.4.4.4.4.4.4.4.4.4.4.4.4.4.4.4.4.4.4.4.4.4.4.4.4.4.4.4.4.4.4.4.4.4.4.4.4.4.4.4.4.4.4.4.4.4.4.4.4.4.4.4.q.t.! n ; ",
"; n R t.q.4.4.4.4.4.4.4.4.4.4.4.4.4.4.4.4.4.4.4.4.4.4.4.4.4.4.4.4.4.4.4.4.4.4.4.4.4.4.4.4.4.4.4.4.4.4.4.4.4.4.4.4.4.4.4.4.4.4.4.4.4.4.4.4.q.t.! b ; ",
"; n R t.q.4.4.4.4.4.4.4.4.4.4.4.4.4.4.4.4.4.4.4.4.4.4.4.4.4.4.4.4.4.4.5.q.q.5.4.4.4.4.4.4.4.4.4.4.4.4.4.4.4.4.4.4.4.4.4.4.4.4.4.4.4.4.4.4.q.t.! b ; ",
"; n ! t.q.4.4.4.4.4.4.4.4.4.4.4.4.4.4.4.4.4.4.4.4.4.4.4.4.4.4.4.4.4.4.5.q.q.5.4.4.4.4.4.4.4.4.4.4.4.4.4.4.4.4.4.4.4.4.4.4.4.4.4.4.4.4.4.4.q.t.! b ; ",
"; n R t.q.4.4.4.4.4.4.4.4.4.4.4.4.4.4.4.4.4.4.4.4.4.4.4.4.4.4.4.4.q.q.>. . .-.q.q.4.4.4.4.4.4.4.4.4.4.4.4.4.4.4.4.4.4.4.4.4.4.4.4.4.4.4.4.q.t.! b ; ",
"; n ! t.q.4.4.4.4.4.4.4.4.4.4.4.4.4.4.4.4.4.4.4.4.4.4.4.4.4.4.4.4.q.p.o.A A o.p.q.4.4.4.4.4.4.4.4.4.4.4.4.4.4.4.4.4.4.4.4.4.4.4.4.4.4.4.4.q.t.R b ; ",
"; n ! t.q.4.4.4.4.4.4.4.4.4.4.4.4.4.4.4.4.4.4.4.4.4.4.4.4.4.4.5.q.<.=.L w w L %.<.q.5.4.4.4.4.4.4.4.4.4.4.4.4.4.4.4.4.4.4.4.4.4.4.4.4.4.4.q.t.R b ; ",
"; n ! t.q.4.4.4.4.4.4.4.4.4.4.4.4.4.4.4.4.4.4.4.4.4.4.4.4.4.4.q.p.%.H e 6 6 e H %.p.q.4.4.4.4.4.4.4.4.4.4.4.4.4.4.4.4.4.4.4.4.4.4.4.4.4.4.q.t.R b ; ",
"; n ! t.q.4.4.4.4.4.4.4.4.4.4.4.4.4.4.4.4.4.4.4.4.4.4.4.4.5.q.<.%.I t @ 1 1 @ t I %.<.q.q.4.4.4.4.4.4.4.4.4.4.4.4.4.4.4.4.4.4.4.4.4.4.4.4.q.t.R b ; ",
"; n R t.q.4.4.4.4.4.4.4.4.4.4.4.4.4.4.4.4.4.4.4.4.4.4.4.4.q.p.%.H t 8 : 1 1 1 8 t H %.p.q.4.4.4.4.4.4.4.4.4.4.4.4.4.4.4.4.4.4.4.4.4.4.4.4.q.t.! n ; ",
"; n R t.q.4.4.4.4.4.4.4.4.4.4.4.4.4.4.4.4.4.4.4.4.4.4.5.5.<.%.I t ; : 4 4 4 4 : @ t I %.<.5.5.4.4.4.4.4.4.4.4.4.4.4.4.4.4.4.4.4.4.4.4.4.4.q.t.! n ; ",
"; n R t.q.4.4.4.4.4.4.4.4.4.4.4.4.4.4.4.4.4.4.4.4.4.4.q.q.o.G t 8 : 1 4 4 4 4 1 : 8 t G o.q.q.4.4.4.4.4.4.4.4.4.4.4.4.4.4.4.4.4.4.4.4.4.4.q.t.! n ; ",
"; b R t.q.4.4.4.4.4.4.4.4.4.4.4.4.4.4.4.4.4.4.4.4.4.4.q.t.! j o ; 4 4 4 4 4 4 4 4 ; o j ! t.q.4.4.4.4.4.4.4.4.4.4.4.4.4.4.4.4.4.4.4.4.4.4.q.t.! n ; ",
"; n R t.q.4.4.4.4.4.4.4.4.4.4.4.4.4.4.4.4.4.4.4.4.4.4.q.t./ j o ; 4 4 4 4 4 4 4 4 ; o j / t.q.4.4.4.4.4.4.4.4.4.4.4.4.4.4.4.4.4.4.4.4.4.4.q.t.! n ; ",
"; n R t.q.4.4.4.4.4.4.4.4.4.4.4.4.4.4.4.4.4.4.4.4.4.4.q.q.o.G t 8 ; ; 1 1 1 1 : ; 8 y G o.q.q.4.4.4.4.4.4.4.4.4.4.4.4.4.4.4.4.4.4.4.4.4.4.q.t.! n ; ",
"; n ! t.q.4.4.4.4.4.4.4.4.4.4.4.4.4.4.4.4.4.4.4.4.4.4.5.5.<.%.I y o @ : 1 1 : ; o t I %.<.5.5.4.4.4.4.4.4.4.4.4.4.4.4.4.4.4.4.4.4.4.4.4.4.q.t.! n ; ",
"; n R t.q.4.4.4.4.4.4.4.4.4.4.4.4.4.4.4.4.4.4.4.4.4.4.4.4.q.p.%.G b N s 0 0 s N b G %.p.q.4.4.4.4.4.4.4.4.4.4.4.4.4.4.4.4.4.4.4.4.4.4.4.4.q.t.! n ; ",
"; n ! t.q.4.4.4.4.4.4.4.4.4.4.4.4.4.4.4.4.4.4.4.4.4.4.4.4.5.q.<.o.' { T i i T { ' o.<.q.5.4.4.4.4.4.4.4.4.4.4.4.4.4.4.4.4.4.4.4.4.4.4.4.4.q.t.! n ; ",
"; n ! t.q.4.4.4.4.4.4.4.4.4.4.4.4.4.4.4.4.4.4.4.4.4.4.4.4.4.4.q.t.2.=.P e e P =.2.t.q.4.4.4.4.4.4.4.4.4.4.4.4.4.4.4.4.4.4.4.4.4.4.4.4.4.4.q.t.! n ; ",
"; n ! t.q.4.4.4.4.4.4.4.4.4.4.4.4.4.4.4.4.4.4.4.4.4.4.4.4.4.4.q.p.o.G w 5 5 w G o.p.q.4.4.4.4.4.4.4.4.4.4.4.4.4.4.4.4.4.4.4.4.4.4.4.4.4.4.q.t.! n ; ",
"; n ! t.q.4.4.4.4.4.4.4.4.4.4.4.4.4.4.4.4.4.4.4.4.4.4.4.4.4.4.q.q. .V f x x f V  .q.q.4.4.4.4.4.4.4.4.4.4.4.4.4.4.4.4.4.4.4.4.4.4.4.4.4.4.q.t.! n ; ",
"; n R t.q.4.4.4.4.4.4.4.4.4.4.4.4.4.4.4.4.4.4.4.4.4.4.4.4.4.4.5.5.-. .R / / R  .-.5.5.4.4.4.4.4.4.4.4.4.4.4.4.4.4.4.4.4.4.4.4.4.4.4.4.4.4.q.t.R n ; ",
"; n R t.q.4.4.4.4.4.4.4.4.4.4.4.4.4.4.4.4.4.4.4.4.4.4.4.4.4.4.4.4.5.q.t.t.t.t.q.5.4.4.4.4.4.4.4.4.4.4.4.4.4.4.4.4.4.4.4.4.4.4.4.4.4.4.4.4.q.t.R n ; ",
"; n R t.q.4.4.4.4.4.4.4.4.4.4.4.4.4.4.4.4.4.4.4.4.4.4.4.4.4.4.4.4.5.q.q.q.q.q.q.5.4.4.4.4.4.4.4.4.4.4.4.4.4.4.4.4.4.4.4.4.4.4.4.4.4.4.4.4.q.t.R b ; ",
"; b R t.q.4.4.4.4.4.4.4.4.4.4.4.4.4.4.4.4.4.4.4.4.4.4.4.4.4.4.4.4.4.4.4.4.4.4.4.4.4.4.4.4.4.4.4.4.4.4.4.4.4.4.4.4.4.4.4.4.4.4.4.4.4.4.4.4.q.t.R b ; ",
"; n R t.q.4.4.4.4.4.4.4.4.4.4.4.4.4.4.4.4.4.4.4.4.4.4.4.4.4.4.4.4.4.4.4.4.4.4.4.4.4.4.4.4.4.4.4.4.4.4.4.4.4.4.4.4.4.4.4.4.4.4.4.4.4.4.4.4.q.t.! b ; ",
"; n R t.q.4.4.4.4.4.4.4.4.4.4.4.4.4.4.4.4.4.4.4.4.4.4.4.4.4.4.4.4.4.4.4.4.4.4.4.4.4.4.4.4.4.4.4.4.4.4.4.4.4.4.4.4.4.4.4.4.4.4.4.4.4.4.4.4.q.t.! b ; ",
"; n ! t.q.4.4.4.4.4.4.4.4.4.4.4.4.4.4.4.4.4.4.4.4.4.4.4.4.4.4.4.4.4.4.4.4.4.4.4.4.4.4.4.4.4.4.4.4.4.4.4.4.4.4.4.4.4.4.4.4.4.4.4.4.4.4.4.4.q.t.! b ; ",
"; n R t.q.4.4.4.4.4.4.4.4.4.4.4.4.4.4.4.4.4.4.4.4.4.4.4.4.4.4.4.4.4.4.4.4.4.4.4.4.4.4.4.4.4.4.4.4.4.4.4.4.4.4.4.4.4.4.4.4.4.4.4.4.4.4.4.4.q.t.! b ; ",
"; n ! t.q.4.4.4.4.4.4.4.4.4.4.4.4.4.4.4.4.4.4.4.4.4.4.4.4.4.4.4.4.4.4.4.4.4.4.4.4.4.4.4.4.4.4.4.4.4.4.4.4.4.4.4.4.4.4.4.4.4.4.4.4.4.4.4.4.q.t.! n ; ",
"; n ! t.q.4.4.4.4.4.4.4.4.4.4.4.4.4.4.4.4.4.4.4.4.4.4.4.4.4.4.4.4.4.4.4.4.4.4.4.4.4.4.4.4.4.4.4.4.4.4.4.4.4.4.4.4.4.4.4.4.4.4.4.4.4.4.4.4.q.t.! b ; ",
"; n ! t.q.4.4.4.4.4.4.4.4.4.4.4.4.4.4.4.4.4.4.4.4.4.4.4.4.4.4.4.4.4.4.4.4.4.4.4.4.4.4.4.4.4.4.4.4.4.4.4.4.4.4.4.4.4.4.4.4.4.4.4.4.4.4.4.4.q.t.! b ; ",
"; n ! t.q.4.4.4.4.4.4.4.4.4.4.4.4.4.4.4.4.4.4.4.4.4.4.4.4.4.4.4.4.4.4.4.4.4.4.4.4.4.4.4.4.4.4.4.4.4.4.4.4.4.4.4.4.4.4.5.q.q.q.q.q.q.5.4.4.q.t.! b ; ",
"; n R t.q.4.4.4.4.4.4.4.4.4.4.4.4.4.4.4.4.4.4.4.4.4.4.4.4.4.4.4.4.4.4.4.4.4.4.4.4.4.4.4.4.4.4.4.4.4.4.4.4.4.4.4.4.4.4.5.q.t.t.t.t.q.5.4.4.q.t.! n ; ",
"; n R t.q.4.4.4.4.4.4.4.4.4.4.4.4.4.4.4.4.4.4.4.4.4.4.4.4.4.4.4.4.5.q.q.q.q.q.q.5.4.4.4.4.4.4.4.4.4.4.4.4.4.4.4.4.5.5.-. .R / / R  .-.5.5.q.t.! n ; ",
"; n R t.q.4.4.4.4.4.4.4.4.4.4.4.4.4.4.4.4.4.4.4.4.4.4.4.4.4.4.4.4.5.q.t.t.t.t.q.5.4.4.4.4.4.4.4.4.4.4.4.4.4.4.4.4.q.q. .V f x x f V  .q.q.q.t.! n ; ",
"; b R t.q.4.4.4.4.4.4.4.4.4.4.4.4.4.4.4.4.4.4.4.4.4.4.4.4.4.4.5.5.-. .R / / R  .-.5.5.4.4.4.4.4.4.4.4.4.4.4.4.4.4.q.p.o.G w 5 5 w S o.p.q.q.t.R n ; ",
"; n R t.q.4.4.4.4.4.4.4.4.4.4.4.4.4.4.4.4.4.4.4.4.4.4.4.4.4.4.q.q. .V f x x f V  .q.q.4.4.4.4.4.4.4.4.4.4.4.4.4.4.q.t.2.=.P e e P =.2.t.q.q.t.R n ; ",
"; n R t.q.4.4.4.4.4.4.4.4.4.4.4.4.4.4.4.4.4.4.4.4.4.4.4.4.4.4.q.p.o.G w 5 5 w S o.p.q.4.4.4.4.4.4.4.4.4.4.4.4.5.5.-.X.' { T i i T { ' o.-.t.p.! n ; ",
"; n ! t.q.4.4.4.4.4.4.4.4.4.4.4.4.4.4.4.4.4.4.4.4.4.4.4.4.4.4.q.t.2.=.P e e P =.2.t.q.4.4.4.4.4.4.4.4.4.4.4.4.q.q.o.S b N s 0 0 s N b S o.p.p.! n ; ",
"; n R t.q.4.4.4.4.4.4.4.4.4.4.4.4.4.4.4.4.4.4.4.4.4.4.4.4.5.q.<.o.' { T i i T { ' o.<.q.5.4.4.4.4.4.4.4.4.4.4.q.t./ j . o : 1 1 : o . j / s.s.! n ; ",
"; n ! t.q.4.4.4.4.4.4.4.4.4.4.4.4.4.4.4.4.4.4.4.4.4.4.4.4.q.p.%.G b N s 0 0 s N b G %.p.q.4.4.4.4.4.4.4.4.4.4.q.t.! j . @ 1 1 1 1 @ . j ! s.s.! b ; ",
"; n ! t.q.4.4.4.4.4.4.4.4.4.4.4.4.4.4.4.4.4.4.4.4.4.4.5.5.<.%.I y o ; : 1 1 : ; @ y I %.<.5.5.4.4.4.4.4.4.4.4.q.q.o.G y 8 : 1 1 : 8 t G o.p.p.! b ; ",
"; n ! t.q.4.4.4.4.4.4.4.4.4.4.4.4.4.4.4.4.4.4.4.4.4.4.q.q.o.G y 8 ; : 1 1 1 1 : ; 8 t G o.q.q.4.4.4.4.4.4.4.4.5.5.<.%.I t ; 1 1 @ t I %.<.t.t.! b ; ",
"; n ! t.q.4.4.4.4.4.4.4.4.4.4.4.4.4.4.4.4.4.4.4.4.4.4.q.t.! j o ; 4 4 4 4 4 4 4 4 ; o j ! t.q.4.4.4.4.4.4.4.4.4.4.q.p.%.H e 6 6 t H %.p.q.q.t.! b ; ",
"; n R t.q.4.4.4.4.4.4.4.4.4.4.4.4.4.4.4.4.4.4.4.4.4.4.q.t.! j o ; 4 4 4 4 4 4 4 4 ; o j ! t.q.4.4.4.4.4.4.4.4.4.4.5.q.<.%.L w w L %.<.q.5.q.t.! b ; ",
"; n R t.q.4.4.4.4.4.4.4.4.4.4.4.4.4.4.4.4.4.4.4.4.4.4.q.q.o.G y 8 : 1 4 4 4 4 1 : 8 y G o.q.q.4.4.4.4.4.4.4.4.4.4.5.q.p.g.%.S S %.g.p.q.4.q.t.! n ; ",
"; n R t.q.4.4.4.4.4.4.4.4.4.4.4.4.4.4.4.4.4.4.4.4.4.4.5.5.<.%.I t @ : 4 4 4 4 : @ t I %.<.5.5.4.4.4.4.4.4.4.4.4.4.5.q.p.s.2.%.%.2.s.p.q.5.q.t.R b ; ",
"; b R t.q.4.4.4.4.4.4.4.4.4.4.4.4.4.4.4.4.4.4.4.4.4.4.4.4.q.p.%.H t 8 : 1 1 : 8 t H %.p.q.4.4.4.4.4.4.4.4.4.4.5.5.-.X./ / ) ' ) / R R  .-.w.t.R b ; ",
"; n R t.q.4.4.4.4.4.4.4.4.4.4.4.4.4.4.4.4.4.4.4.4.4.4.4.4.5.q.<.=.I t ; 1 : @ t I %.<.q.q.4.4.4.4.4.4.4.4.4.4.q.q.X.A x b N n x x f d V  .p.p.! b ; ",
"; n R t.q.4.4.4.4.4.4.4.4.4.4.4.4.4.4.4.4.4.4.4.4.4.4.4.4.4.4.q.p.=.H t 6 6 e H =.p.q.4.4.4.4.4.4.4.4.4.4.4.4.q.t./ x o o 8 i N n x j A X.p.p./ n ; ",
"; n ! t.q.4.4.4.4.4.4.4.4.4.4.4.4.4.4.4.4.4.4.4.4.4.4.4.4.4.4.q.q.<.%.L w w L %.<.q.5.4.4.4.4.4.4.4.4.4.4.4.4.q.t./ b o o i Y { [ ) ) o.-.t.p.! b ; ",
"; n R t.q.4.4.4.4.4.4.4.4.4.4.4.4.4.4.4.4.4.4.4.4.4.4.4.4.4.4.4.4.q.p.o.A A o.p.q.4.4.4.4.4.4.4.4.4.4.4.4.4.4.q.t.) N ; ; a Y { [ ) ) o.-.t.p.! n ; ",
"; n ! t.q.4.4.4.4.4.4.4.4.4.4.4.4.4.4.4.4.4.4.4.4.4.4.4.4.4.4.4.4.5.q.>.....>.q.q.4.4.4.4.4.4.4.4.4.4.4.4.4.4.q.t.) N ; ; 0 i N n x k A ..p.p.! b ; ",
"; n ! t.q.4.4.4.4.4.4.4.4.4.4.4.4.4.4.4.4.4.4.4.4.4.4.4.4.4.4.4.4.4.4.5.q.q.5.4.4.4.4.4.4.4.4.4.4.4.4.4.4.4.4.q.t.) N ; ; 0 p N N x j A ..p.p.R n ; ",
"; n ! t.q.4.4.4.4.4.4.4.4.4.4.4.4.4.4.4.4.4.4.4.4.4.4.4.4.4.4.4.4.4.4.5.q.q.5.4.4.4.4.4.4.4.4.4.4.4.4.4.4.4.4.q.t.) N ; ; a Y { [ ' ) o.-.t.t.! b ; ",
"; n ! t.q.4.4.4.4.4.4.4.4.4.4.4.4.4.4.4.4.4.4.4.4.4.4.4.4.4.4.4.4.4.4.4.4.4.4.4.4.4.4.4.4.4.4.4.4.4.4.4.4.4.4.q.t./ b o o i Y { [ ' ) o.-.t.t.! n ; ",
"; n R t.q.4.4.4.4.4.4.4.4.4.4.4.4.4.4.4.4.4.4.4.4.4.4.4.4.4.4.4.4.4.4.4.4.4.4.4.4.4.4.4.4.4.4.4.4.4.4.4.4.4.4.q.t./ x o o 8 i N N x j A ..p.p.! n ; ",
"; N ) p.q.4.4.4.4.4.4.4.4.4.4.4.4.4.4.4.4.4.4.4.4.4.4.4.4.4.4.4.4.4.4.4.4.4.4.4.4.4.4.4.4.4.4.4.4.4.4.4.4.4.4.q.q.o.S x b n x k k j d V  .s.g.) N ; ",
"; N ' s.w.4.4.4.4.4.4.4.4.4.4.4.4.4.4.4.4.4.4.4.4.4.4.4.4.4.4.4.4.4.4.4.4.4.4.4.4.4.4.4.4.4.4.4.4.4.4.4.4.4.4.5.5.-.X./ / / ! R R R R  .-.t.g.' N ; ",
"; i L %.<.w.q.q.q.q.q.q.q.q.q.q.q.q.q.q.q.q.q.q.q.q.q.q.q.q.q.q.q.q.q.q.q.q.q.q.q.q.q.q.q.q.q.q.q.q.q.q.q.q.q.q.q.w.p.s.s.s.s.s.s.s.s.p.t.<.%.L i ; ",
"1 9 t H %.s.p.t.t.t.t.t.t.t.t.t.t.t.t.t.t.t.t.t.t.t.t.t.t.t.t.t.t.t.t.t.t.t.t.t.t.t.t.t.t.t.t.t.t.t.t.t.t.t.t.t.t.p.p.s.s.s.s.s.s.s.s.g.g.%.H t 9 1 ",
"4 ; @ t L ' ) ! R R R R ! ! ! ! R R R R ! ! ! ! ! ! ! R R R ! ! ! ! ! R R R ! ! R R R R ! ! ! ! R R R R ! ! ! ! ! ! ! ! R R ! ! ! ! ! ) ' L t @ ; 4 ",
"    ; 9 i N N n b n n n n n n n n n n n n b n n n n n n b n n n n n n n b n n n b n n n n n n n n n n n n b n n n n n n b n n n n n n N N i 9 ;     ",
"    4 1 ; ; ; ; ; ; ; ; ; ; ; ; ; ; ; ; ; ; ; ; ; ; ; ; ; ; ; ; ; ; ; ; ; ; ; ; ; ; ; ; ; ; ; ; ; ; ; ; ; ; ; ; ; ; ; ; ; ; ; ; ; ; ; ; ; ; 1 4     "
};
