/* XPM */
static char *spades_ace[] = {
/* columns rows colors chars-per-pixel */
"74 104 164 2 ",
"   c None",
".  c #1A0028",
"X  c #1B0029",
"o  c #1C0029",
"O  c #1C002A",
"+  c #1D002A",
"@  c #1E002B",
"#  c #1E002C",
"$  c #1F002C",
"%  c #20002D",
"&  c #20012D",
"*  c #21012D",
"=  c #21012E",
"-  c #21022E",
";  c #22022F",
":  c #22032F",
">  c #23032F",
",  c #230430",
"<  c #240430",
"1  c #240530",
"2  c #250531",
"3  c #250631",
"4  c #250632",
"5  c #260632",
"6  c #260732",
"7  c #270833",
"8  c #290B35",
"9  c #2A0B36",
"0  c #2B0D37",
"q  c #2D0F38",
"w  c #2E1039",
"e  c #2F113A",
"r  c #2F123A",
"t  c #30133B",
"y  c #31143C",
"u  c #32143C",
"i  c #33153D",
"p  c #43284B",
"a  c #452A4C",
"s  c #452A4D",
"d  c #462B4D",
"f  c #462B4E",
"g  c #462C4E",
"h  c #472D4F",
"j  c #482D4F",
"k  c #482E4F",
"l  c #482E50",
"z  c #492F50",
"x  c #4A3051",
"c  c #4B3152",
"v  c #4C3152",
"b  c #4C3252",
"n  c #4C3253",
"m  c #4D3454",
"M  c #4F3555",
"N  c #503756",
"B  c #513857",
"V  c #523857",
"C  c #533A58",
"Z  c #533A59",
"A  c #543B59",
"S  c #543B5A",
"D  c #553C5A",
"F  c #553C5B",
"G  c #553D5B",
"H  c #563D5B",
"J  c #573E5C",
"K  c #583F5D",
"L  c #58405D",
"P  c #59405D",
"I  c #59415E",
"U  c #5A425F",
"Y  c #7B677B",
"T  c #7B687B",
"R  c #7C697C",
"E  c #7D6A7D",
"W  c #7F6C7E",
"Q  c #806C7F",
"!  c #806D7F",
"~  c #816E80",
"^  c #816F80",
"/  c #826F81",
"(  c #847282",
")  c #998994",
"_  c #998A95",
"`  c #9A8B96",
"'  c #9B8B96",
"]  c #9B8C96",
"[  c #9C8C97",
"{  c #9C8D97",
"}  c #9F9099",
"|  c #A0919A",
" . c #A1929B",
".. c #C0B5B6",
"X. c #C0B6B6",
"o. c #C1B6B6",
"O. c #C1B7B7",
"+. c #C2B8B7",
"@. c #C2B8B8",
"#. c #C3B9B8",
"$. c #C3B9B9",
"%. c #C3BAB9",
"&. c #C4BAB9",
"*. c #C5BCBA",
"=. c #C6BCBB",
"-. c #C6BDBB",
";. c #C7BDBC",
":. c #C7BEBC",
">. c #C8BFBD",
",. c #CBC2BF",
"<. c #CCC3C0",
"1. c #CEC5C2",
"2. c #CFC7C3",
"3. c #D0C8C3",
"4. c #D0C8C4",
"5. c #D1C9C4",
"6. c #D1C9C5",
"7. c #D2CAC5",
"8. c #D2CBC6",
"9. c #D3CBC6",
"0. c #D4CCC7",
"q. c #D5CDC7",
"w. c #D5CDC8",
"e. c #D5CEC8",
"r. c #D6CEC8",
"t. c #D7CFC9",
"y. c #D7D0C9",
"u. c #DBD5CD",
"i. c #E9E4D9",
"p. c #EAE5DA",
"a. c #EBE7DB",
"s. c #ECE7DB",
"d. c #ECE8DC",
"f. c #EEEADD",
"g. c #EFEADE",
"h. c #EFEBDE",
"j. c #F1EDDF",
"k. c #F2EFE1",
"l. c #F5F2E3",
"z. c #F6F3E4",
"x. c #F7F4E5",
"c. c #F8F5E5",
"v. c #F8F5E6",
"b. c #F8F6E6",
"n. c #F9F6E7",
"m. c #F9F7E7",
"M. c #FAF7E7",
"N. c #FAF8E8",
"B. c #FBF8E8",
"V. c #FBF9E8",
"C. c #FBF9E9",
"Z. c #FCF9E9",
"A. c #FCFAE9",
"S. c #FCFAEA",
"D. c #FDFAEA",
"F. c #FDFBEA",
"G. c #FEFCEA",
"H. c #FEFCEB",
"J. c #FEFDEB",
"K. c #FFFDEB",
"L. c #FFFEEC",
"P. c #FFFFED",
"I. c #FFFFEE",
"U. c #FFFFEF",
/* pixels */
"    7 4 > > > > > > > > > > > > > > > > > > > > > > > > > > > > > > > > > > > > > > > > > > > > > > > > > > > > > > > > > > > > > > > > > > 4 7     ",
"    > t c I I K K K K J K K K K K K K K J K K J K K K K K K K K K K K J K K K K K K K K K K K J K K K K K K K K K K K J K K K K K K K I I c t >     ",
"7 > $ l ' =.&.+.+.O.O.O.O.O.+.O.+.+.+.+.O.O.O.O.O.O.O.O.+.+.+.+.O.O.O.O.O.O.O.O.+.+.+.+.O.O.O.O.O.O.O.O.+.+.+.+.O.O.O.O.O.O.O.O.+.+.+.&.=.' k $ > 7 ",
"4 t l ~ q.L.L.H.H.H.H.H.F.H.H.F.F.C.C.C.C.C.C.C.C.C.C.C.C.C.C.C.C.C.C.C.C.C.C.C.C.C.C.C.C.C.C.C.C.C.C.C.C.C.C.C.C.C.C.C.C.C.C.C.C.C.C.F.H.q.~ k t 4 ",
"> c ' q.g.C.F.H.H.H.H.H.H.H.H.F.C.M.M.M.M.M.M.M.M.M.M.M.M.M.M.M.M.M.M.M.M.M.M.M.M.M.M.M.M.M.M.M.M.M.M.M.M.M.M.M.M.M.M.M.M.M.M.M.M.M.M.M.C.g.q.' c > ",
"> I =.L.C.p.4.@.O.O.O.+.@.@.@.4.p.x.x.z.z.z.z.z.z.z.z.z.z.z.z.z.z.z.z.z.z.z.z.z.z.z.z.z.z.z.z.z.z.z.z.z.z.z.z.z.z.z.z.z.z.z.z.z.z.z.z.z.z.C.H.=.I > ",
"> I &.L.F.4.W A Z A A G K J G W 4.M.M.z.z.z.z.z.z.z.z.z.z.z.z.z.z.z.z.z.z.z.z.z.z.z.z.z.z.z.z.z.z.z.z.z.z.z.z.z.z.z.z.z.z.z.z.z.z.z.z.z.z.M.F.&.I > ",
"> K +.H.H.@.A 9 h I I c e O O G @.C.M.z.z.z.z.z.z.z.z.z.z.z.z.z.z.z.z.z.z.z.z.z.z.z.z.z.z.z.z.z.z.z.z.z.z.z.z.z.z.z.z.z.z.z.z.z.z.z.z.z.z.M.C.+.K > ",
"> K +.H.H.O.Z f [ <.<.} c O O J @.C.M.z.z.z.z.z.z.z.z.z.z.z.z.z.z.z.z.z.z.z.z.z.z.z.z.z.z.z.z.z.z.z.z.z.z.z.z.z.z.z.z.z.z.z.z.z.z.z.z.z.z.M.C.+.J > ",
"> K +.H.H.+.G l [ <.<.| m > > I &.C.M.z.z.z.z.z.z.z.z.z.z.z.z.z.z.z.z.z.z.z.z.z.z.z.z.z.z.z.z.z.z.z.z.z.z.z.z.z.z.z.z.z.z.z.z.z.z.z.z.z.z.M.C.+.J > ",
"> I +.H.H.@.K e l I I b i > > I &.C.M.z.z.z.z.z.z.z.z.z.z.z.z.z.z.z.z.z.z.z.z.z.z.z.z.z.z.z.z.z.z.z.z.z.z.z.z.z.z.z.z.z.z.z.z.z.z.z.z.z.z.M.C.+.J > ",
"> K +.H.H.@.K q f G G l i > > I &.C.M.z.z.z.z.z.z.z.z.z.z.z.z.z.z.z.z.z.z.z.z.z.z.z.z.z.z.z.z.z.z.z.z.z.z.z.z.z.z.z.z.z.z.z.z.z.z.z.z.z.z.M.C.+.J > ",
"> K +.H.H.+.G h ' ;.;.[ b > > I &.C.M.z.z.z.z.z.z.z.z.z.z.z.z.z.z.z.z.z.z.z.z.z.z.z.z.z.z.z.z.z.z.z.z.z.z.z.z.z.z.z.z.z.z.z.z.z.z.z.z.z.z.M.C.O.J > ",
"> K O.H.H.O.Z Z &.L.L.;.K O O G @.C.M.z.z.z.z.z.z.z.z.z.z.z.z.z.z.z.z.z.z.z.z.z.z.z.z.z.z.z.z.z.z.z.z.z.z.z.z.z.z.z.z.z.z.z.z.z.z.z.z.z.z.M.C.O.J > ",
"> J O.H.H.O.N B @.L.L.&.G . . G @.C.M.z.z.z.z.z.z.z.z.z.z.z.z.z.z.z.z.z.z.z.z.z.z.z.z.z.z.z.z.z.z.z.z.z.z.z.z.z.z.z.z.z.z.z.z.z.z.z.z.z.z.M.C.O.J > ",
"> J O.F.F.1.T T 1.F.H.4.W Z Z W 4.M.M.z.z.z.z.z.z.z.z.z.z.z.z.z.z.z.z.z.z.z.z.z.z.z.z.z.z.z.z.z.z.z.z.z.z.z.z.z.z.z.z.z.z.z.z.z.z.z.z.z.z.M.C.O.J > ",
"> K O.C.M.p.1.1.p.M.F.g.4.+.@.4.p.x.x.z.z.z.z.z.z.z.z.z.z.z.z.z.z.z.z.z.z.z.z.z.z.z.z.z.z.z.z.z.z.z.z.z.z.z.z.z.z.z.z.z.z.z.z.z.z.z.z.z.z.M.C.+.K > ",
"> K O.C.M.x.M.C.C.p.1.4.g.H.F.M.x.z.z.z.z.z.z.z.z.z.z.z.z.z.z.z.z.z.z.z.z.z.z.z.z.z.z.z.z.z.z.z.z.z.z.z.z.z.z.z.z.z.z.z.z.z.z.z.z.z.z.z.z.M.C.+.K > ",
"> K +.C.M.x.M.F.H.4.E E q.L.F.M.x.z.z.z.z.z.z.z.z.z.z.z.z.z.z.z.z.z.z.z.z.z.z.z.z.z.z.z.z.z.z.z.z.z.z.z.z.z.z.z.z.z.z.z.z.z.z.z.z.z.z.z.z.M.C.+.K > ",
"> K O.C.M.x.M.g.q.' f f ' t.g.M.x.z.z.z.z.z.z.z.z.z.z.z.z.z.z.z.z.z.z.z.z.z.z.z.z.z.z.z.z.z.z.z.z.z.z.z.z.z.z.z.z.z.z.z.z.z.z.z.z.z.z.z.z.M.C.+.K > ",
"> K +.C.M.M.F.q.~ h q q h ~ t.H.M.z.z.z.z.z.z.z.z.z.z.z.z.z.z.z.z.z.z.z.z.z.z.z.z.z.z.z.z.z.z.z.z.z.z.z.z.z.z.z.z.z.z.z.z.z.z.z.z.z.z.z.z.M.C.+.K > ",
"> K +.F.C.g.q.[ k $ , , > l [ q.g.x.x.z.z.z.z.z.z.z.z.z.z.z.z.z.z.z.z.z.z.z.z.z.z.z.z.z.z.z.z.z.z.z.z.z.z.z.z.z.z.z.z.z.z.z.z.z.z.z.z.z.z.M.C.+.K > ",
"> K +.F.F.4.! k e , 4 4 4 e l ! 4.M.M.z.z.z.z.z.z.z.z.z.z.z.z.z.z.z.z.z.z.z.z.z.z.z.z.z.z.z.z.z.z.z.z.z.z.z.z.z.z.z.z.z.z.z.z.z.z.z.z.z.z.M.C.+.K > ",
"> K O.H.H.+.Z . $ 4 4 4 4 > . Z @.C.M.z.z.z.z.z.z.z.z.z.z.z.z.z.z.z.z.z.z.z.z.z.z.z.z.z.z.z.z.z.z.z.z.z.z.z.z.z.z.z.z.z.z.z.z.z.z.z.z.z.z.M.C.+.K > ",
"> K O.H.H.@.Z . O , 4 4 4 $ . Z @.C.M.z.z.z.z.z.z.z.z.z.z.z.z.z.z.z.z.z.z.z.z.z.z.z.z.z.z.z.z.z.z.z.z.z.z.z.z.z.z.z.z.z.z.z.z.z.z.z.z.z.z.M.C.+.J > ",
"> K O.F.F.4.W J I m i i m I J W 3.M.M.z.z.z.z.z.z.z.z.z.z.z.z.z.z.z.z.z.z.z.z.z.z.z.z.z.z.z.z.z.z.z.z.z.z.z.z.z.z.z.z.z.z.z.z.z.z.z.z.z.z.M.C.+.J > ",
"> K O.C.C.p.3.=.,.| c c | ,.=.4.p.x.x.z.z.z.z.z.z.z.z.z.z.z.z.z.z.z.z.z.z.z.z.z.z.z.z.z.z.z.z.z.z.z.z.z.z.z.z.z.z.z.z.z.z.z.z.z.z.z.z.z.z.M.C.+.J > ",
"> J O.C.M.M.C.j.t.] h h ] t.j.C.M.z.z.z.z.z.z.z.z.z.z.z.z.z.z.z.z.z.z.z.z.z.z.z.z.z.z.z.z.z.z.z.z.z.z.z.z.z.z.z.z.z.z.z.z.z.z.z.z.z.z.z.z.M.C.+.J > ",
"> K O.C.M.M.F.4.! f 0 0 f W 4.F.M.z.z.z.z.z.z.z.z.z.z.z.z.z.z.z.z.z.z.z.z.z.z.z.z.z.z.z.z.z.z.z.z.z.z.z.z.z.z.z.z.z.z.z.z.z.z.z.z.z.z.z.z.M.C.O.J > ",
"> K O.C.M.M.M.1.Y B G G B Y 1.M.M.z.z.z.z.z.z.z.z.z.z.z.z.z.z.z.z.z.z.z.z.z.z.z.z.z.z.z.z.z.z.z.z.z.z.z.z.z.z.z.z.z.z.z.z.z.z.z.z.z.z.z.z.M.C.O.J > ",
"> K O.C.M.x.x.p.1.O.@.@.O.1.p.x.x.z.z.z.z.z.z.z.z.z.z.z.z.z.z.z.z.z.z.z.z.z.z.z.z.z.z.z.z.z.z.z.z.z.z.z.z.z.z.z.z.z.z.z.z.z.z.z.z.z.z.z.z.M.C.O.J > ",
"> K O.C.M.z.z.x.M.C.C.C.C.M.x.z.z.z.z.z.z.z.z.z.z.z.z.z.z.z.z.z.z.z.z.x.M.M.x.z.z.z.z.z.z.z.z.z.z.z.z.z.z.z.z.z.z.z.z.z.z.z.z.z.z.z.z.z.z.M.C.O.J > ",
"> K +.C.M.z.z.x.M.M.M.M.M.M.x.z.z.z.z.z.z.z.z.z.z.z.z.z.z.z.z.z.z.z.z.x.M.M.x.z.z.z.z.z.z.z.z.z.z.z.z.z.z.z.z.z.z.z.z.z.z.z.z.z.z.z.z.z.z.M.C.+.K > ",
"> K +.C.M.z.z.z.z.z.z.z.z.z.z.z.z.z.z.z.z.z.z.z.z.z.z.z.z.z.z.z.z.x.x.p.1.1.p.x.x.z.z.z.z.z.z.z.z.z.z.z.z.z.z.z.z.z.z.z.z.z.z.z.z.z.z.z.z.M.C.+.K > ",
"> K +.C.M.z.z.z.z.z.z.z.z.z.z.z.z.z.z.z.z.z.z.z.z.z.z.z.z.z.z.z.z.M.M.1.T T 1.M.M.z.z.z.z.z.z.z.z.z.z.z.z.z.z.z.z.z.z.z.z.z.z.z.z.z.z.z.z.M.C.+.K > ",
"> K +.C.M.z.z.z.z.z.z.z.z.z.z.z.z.z.z.z.z.z.z.z.z.z.z.z.z.z.z.z.z.M.F.@.B B @.F.M.z.z.z.z.z.z.z.z.z.z.z.z.z.z.z.z.z.z.z.z.z.z.z.z.z.z.z.z.M.C.+.K > ",
"> K O.C.M.z.z.z.z.z.z.z.z.z.z.z.z.z.z.z.z.z.z.z.z.z.z.z.z.z.z.z.z.N.H.&.Z Z &.H.C.z.z.z.z.z.z.z.z.z.z.z.z.z.z.z.z.z.z.z.z.z.z.z.z.z.z.z.z.M.C.+.K > ",
"> K O.C.M.z.z.z.z.z.z.z.z.z.z.z.z.z.z.z.z.z.z.z.z.z.z.z.z.z.z.M.M.g.q.' l l ' q.g.M.x.z.z.z.z.z.z.z.z.z.z.z.z.z.z.z.z.z.z.z.z.z.z.z.z.z.z.M.C.+.K > ",
"> K O.C.M.z.z.z.z.z.z.z.z.z.z.z.z.z.z.z.z.z.z.z.z.z.z.z.z.z.z.M.F.q.~ k e e l ~ q.F.M.z.z.z.z.z.z.z.z.z.z.z.z.z.z.z.z.z.z.z.z.z.z.z.z.z.z.M.C.+.K > ",
"> J O.C.M.z.z.z.z.z.z.z.z.z.z.z.z.z.z.z.z.z.z.z.z.z.z.z.z.x.M.g.q.] k > 4 4 > l [ q.g.M.M.z.z.z.z.z.z.z.z.z.z.z.z.z.z.z.z.z.z.z.z.z.z.z.z.M.C.+.K > ",
"> K O.C.M.z.z.z.z.z.z.z.z.z.z.z.z.z.z.z.z.z.z.z.z.z.z.z.z.M.F.q.~ k e , 4 4 , e k ~ q.F.M.z.z.z.z.z.z.z.z.z.z.z.z.z.z.z.z.z.z.z.z.z.z.z.z.M.C.+.J > ",
"> K O.C.M.z.z.z.z.z.z.z.z.z.z.z.z.z.z.z.z.z.z.z.z.z.z.x.M.g.q.[ k > , 7 7 7 7 , > k [ q.g.M.M.z.z.z.z.z.z.z.z.z.z.z.z.z.z.z.z.z.z.z.z.z.z.M.C.+.J > ",
"> K O.C.M.z.z.z.z.z.z.z.z.z.z.z.z.z.z.z.z.z.z.z.z.z.z.M.F.q.~ k e , 4 7 7 7 7 4 , e k ~ q.F.M.z.z.z.z.z.z.z.z.z.z.z.z.z.z.z.z.z.z.z.z.z.z.M.C.+.J > ",
"> K O.C.M.z.z.z.z.z.z.z.z.z.z.z.z.z.z.z.z.z.z.z.z.x.M.g.q.[ k > , 7 7 7 7 7 7 7 7 , $ k [ q.g.M.M.z.z.z.z.z.z.z.z.z.z.z.z.z.z.z.z.z.z.z.z.M.C.+.J > ",
"> K +.C.M.z.z.z.z.z.z.z.z.z.z.z.z.z.z.z.z.z.z.z.z.M.F.t.~ k e , 4 7 7 7 7 7 7 7 7 4 , e k ~ q.F.M.z.z.z.z.z.z.z.z.z.z.z.z.z.z.z.z.z.z.z.z.M.C.O.J > ",
"> K +.C.M.z.z.z.z.z.z.z.z.z.z.z.z.z.z.z.z.z.z.M.M.g.t.[ k > , 7 7 7 7 7 7 7 7 7 7 7 7 , > k [ q.g.M.x.z.z.z.z.z.z.z.z.z.z.z.z.z.z.z.z.z.z.M.C.O.J > ",
"> K +.C.M.z.z.z.z.z.z.z.z.z.z.z.z.z.z.z.z.z.z.M.F.q.~ k e , 4 7 7 7 7 7 7 7 7 7 7 7 7 4 , e k ~ q.F.M.z.z.z.z.z.z.z.z.z.z.z.z.z.z.z.z.z.z.M.C.O.J > ",
"> K +.C.M.z.z.z.z.z.z.z.z.z.z.z.z.z.z.z.z.x.M.g.q.[ k $ , 7 7 7 7 7 7 7 7 7 7 7 7 7 7 7 7 , $ k [ q.g.M.M.z.z.z.z.z.z.z.z.z.z.z.z.z.z.z.z.M.C.O.J > ",
"> K O.C.M.z.z.z.z.z.z.z.z.z.z.z.z.z.z.z.z.M.F.q.~ l e , 4 7 7 7 7 7 7 7 7 7 7 7 7 7 7 7 7 4 , e k ~ q.F.M.z.z.z.z.z.z.z.z.z.z.z.z.z.z.z.z.M.C.+.K > ",
"> K O.C.M.z.z.z.z.z.z.z.z.z.z.z.z.z.z.x.x.g.q.[ k $ , 7 7 7 7 7 7 7 7 7 7 7 7 7 7 7 7 7 7 7 7 , > l [ q.g.x.x.z.z.z.z.z.z.z.z.z.z.z.z.z.z.M.C.+.K > ",
"> K O.C.M.z.z.z.z.z.z.z.z.z.z.z.z.z.z.M.M.4.! l e , 4 7 7 7 7 7 7 7 7 7 7 7 7 7 7 7 7 7 7 7 7 4 , e l ! 4.M.M.z.z.z.z.z.z.z.z.z.z.z.z.z.z.M.C.+.K > ",
"> J O.C.M.z.z.z.z.z.z.z.z.z.z.z.z.z.z.M.C.@.G $ > 7 7 7 7 7 7 7 7 7 7 7 7 7 7 7 7 7 7 7 7 7 7 7 7 > $ G @.C.M.z.z.z.z.z.z.z.z.z.z.z.z.z.z.M.C.+.K > ",
"> K O.C.M.z.z.z.z.z.z.z.z.z.z.z.z.z.z.M.C.@.G > , 7 7 7 7 7 7 7 7 7 7 7 7 7 7 7 7 7 7 7 7 7 7 7 7 , > J @.C.M.z.z.z.z.z.z.z.z.z.z.z.z.z.z.M.C.+.K > ",
"> K O.C.M.z.z.z.z.z.z.z.z.z.z.z.z.z.z.M.C.&.I > 4 7 7 7 7 7 7 7 7 7 7 7 7 7 7 7 7 7 7 7 7 7 7 7 7 4 > I &.C.M.z.z.z.z.z.z.z.z.z.z.z.z.z.z.M.C.+.K > ",
"> K O.C.M.z.z.z.z.z.z.z.z.z.z.z.z.z.z.M.C.&.I > 4 7 7 7 7 7 7 7 7 7 7 7 7 7 7 7 7 7 7 7 7 7 7 7 7 4 > I &.C.M.z.z.z.z.z.z.z.z.z.z.z.z.z.z.M.C.+.K > ",
"> K O.C.M.z.z.z.z.z.z.z.z.z.z.z.z.z.z.M.C.@.J > , 7 7 7 7 7 7 7 7 7 7 7 7 7 7 7 7 7 7 7 7 7 7 7 7 , > J @.C.M.z.z.z.z.z.z.z.z.z.z.z.z.z.z.M.C.+.K > ",
"> K +.C.M.z.z.z.z.z.z.z.z.z.z.z.z.z.z.M.C.@.G $ > 7 7 7 7 7 7 7 7 7 7 7 7 7 7 7 7 7 7 7 7 7 7 7 7 > O G @.C.M.z.z.z.z.z.z.z.z.z.z.z.z.z.z.M.C.+.K > ",
"> K +.C.M.z.z.z.z.z.z.z.z.z.z.z.z.z.z.M.M.4.! l e , 4 7 7 7 7 7 7 4 4 4 4 4 4 4 4 7 7 7 7 7 7 4 , e k ! 4.M.M.z.z.z.z.z.z.z.z.z.z.z.z.z.z.M.C.+.K > ",
"> K +.C.M.z.z.z.z.z.z.z.z.z.z.z.z.z.z.x.x.g.q.[ k $ , 7 7 7 7 7 7 4 , , 4 4 , , 4 7 7 7 7 7 7 , $ l [ q.g.x.x.z.z.z.z.z.z.z.z.z.z.z.z.z.z.M.C.+.K > ",
"> K +.C.M.z.z.z.z.z.z.z.z.z.z.z.z.z.z.z.z.M.F.q.~ k e > > 4 4 , > i m m i i m m i > , 4 4 , > e l ~ q.F.M.z.z.z.z.z.z.z.z.z.z.z.z.z.z.z.z.M.C.+.K > ",
"> K O.C.M.z.z.z.z.z.z.z.z.z.z.z.z.z.z.z.z.x.M.g.q.[ l $ > > > > $ c | | b b | | c $ > > > > $ l [ q.g.M.M.z.z.z.z.z.z.z.z.z.z.z.z.z.z.z.z.M.C.O.K > ",
"> K O.C.M.z.z.z.z.z.z.z.z.z.z.z.z.z.z.z.z.z.z.M.F.q.! G J I I J G ( u.,.I I ,.u.( G J I I J G ! q.F.M.z.z.z.z.z.z.z.z.z.z.z.z.z.z.z.z.z.z.M.C.O.K > ",
"> K O.C.M.z.z.z.z.z.z.z.z.z.z.z.z.z.z.z.z.z.z.x.M.g.4.@.@.&.&.@.@.t.l.>.J J >.l.t.@.@.&.&.@.@.4.g.M.x.z.z.z.z.z.z.z.z.z.z.z.z.z.z.z.z.z.z.M.C.O.J > ",
"> J O.C.M.z.z.z.z.z.z.z.z.z.z.z.z.z.z.z.z.z.z.z.z.x.M.C.C.C.C.F.H.k.t.' k l ' t.k.H.F.C.C.C.C.M.x.z.z.z.z.z.z.z.z.z.z.z.z.z.z.z.z.z.z.z.z.M.C.O.J > ",
"> K O.C.M.z.z.z.z.z.z.z.z.z.z.z.z.z.z.z.z.z.z.z.z.x.M.M.M.M.M.F.L.y.~ k e e k ~ t.L.F.M.M.M.M.M.x.z.z.z.z.z.z.z.z.z.z.z.z.z.z.z.z.z.z.z.z.M.C.+.J > ",
"> K O.C.M.z.z.z.z.z.z.z.z.z.z.z.z.z.z.z.z.z.z.z.z.z.z.z.z.x.x.s.4.' f O > > O f ' 4.p.x.x.z.z.z.z.z.z.z.z.z.z.z.z.z.z.z.z.z.z.z.z.z.z.z.z.M.C.+.J > ",
"> K O.C.M.z.z.z.z.z.z.z.z.z.z.z.z.z.z.z.z.z.z.z.z.z.z.z.z.M.M.3.E p 9 $ > > $ 9 p E 3.M.M.z.z.z.z.z.z.z.z.z.z.z.z.z.z.z.z.z.z.z.z.z.z.z.z.M.C.+.J > ",
"> K O.C.M.z.z.z.z.z.z.z.z.z.z.z.z.z.z.z.z.z.z.z.z.z.z.z.z.M.M.1.Y B G I I I I G B Y 1.M.M.z.z.z.z.z.z.z.z.z.z.z.z.z.z.z.z.z.z.z.z.z.z.z.z.M.C.+.J > ",
"> K +.C.M.z.z.z.z.z.z.z.z.z.z.z.z.z.z.z.z.z.z.z.z.z.z.z.z.x.x.p.1.O.@.&.&.&.&.@.O.1.p.x.x.z.z.z.z.z.z.z.z.z.z.z.z.z.z.z.z.z.z.z.z.z.z.z.z.M.C.+.J > ",
"> K +.C.M.z.z.z.z.z.z.z.z.z.z.z.z.z.z.z.z.z.z.z.z.z.z.z.z.z.z.x.M.C.C.C.C.C.C.C.C.M.x.z.z.z.z.z.z.z.z.z.z.z.z.z.z.z.z.z.z.z.z.z.z.z.z.z.z.M.C.+.J > ",
"> K +.C.M.z.z.z.z.z.z.z.z.z.z.z.z.z.z.z.z.z.z.z.z.z.z.z.z.z.z.x.M.M.M.M.M.M.M.M.M.M.x.z.z.z.z.z.z.z.z.z.z.z.z.z.z.z.z.z.z.z.z.z.z.z.z.z.z.M.C.+.J > ",
"> K +.C.M.z.z.z.z.z.z.z.z.z.z.z.z.z.z.z.z.z.z.z.z.z.z.z.z.z.z.z.z.z.z.z.z.z.z.z.z.z.z.z.z.z.z.z.z.z.z.z.z.z.z.z.z.z.z.x.M.M.M.M.M.M.x.z.z.M.C.+.J > ",
"> K O.C.M.z.z.z.z.z.z.z.z.z.z.z.z.z.z.z.z.z.z.z.z.z.z.z.z.z.z.z.z.z.z.z.z.z.z.z.z.z.z.z.z.z.z.z.z.z.z.z.z.z.z.z.z.z.z.x.M.C.C.C.C.M.x.z.z.M.C.+.K > ",
"> K O.C.M.z.z.z.z.z.z.z.z.z.z.z.z.z.z.z.z.z.z.z.z.z.z.z.z.z.z.z.z.z.z.z.z.z.z.z.z.z.z.z.z.z.z.z.z.z.z.z.z.z.z.z.z.x.x.p.1.O.@.@.O.1.p.x.x.M.C.+.K > ",
"> K O.C.M.z.z.z.z.z.z.z.z.z.z.z.z.z.z.z.z.z.z.z.z.z.z.z.z.z.z.z.z.z.z.z.z.z.z.z.z.z.z.z.z.z.z.z.z.z.z.z.z.z.z.z.z.M.M.1.Y B G G B Y 1.M.M.M.C.+.K > ",
"> J O.C.M.z.z.z.z.z.z.z.z.z.z.z.z.z.z.z.z.z.z.z.z.z.z.z.z.z.z.z.z.z.z.z.z.z.z.z.z.z.z.z.z.z.z.z.z.z.z.z.z.z.z.z.z.M.F.4.! f 0 0 f W 4.F.M.M.C.O.K > ",
"> K O.C.M.z.z.z.z.z.z.z.z.z.z.z.z.z.z.z.z.z.z.z.z.z.z.z.z.z.z.z.z.z.z.z.z.z.z.z.z.z.z.z.z.z.z.z.z.z.z.z.z.z.z.z.z.M.C.j.t.] h h ] t.j.C.M.M.C.O.K > ",
"> K O.C.M.z.z.z.z.z.z.z.z.z.z.z.z.z.z.z.z.z.z.z.z.z.z.z.z.z.z.z.z.z.z.z.z.z.z.z.z.z.z.z.z.z.z.z.z.z.z.z.z.z.z.x.x.p.3.=.,.| c c | ,.=.4.p.C.F.+.K > ",
"> K O.C.M.z.z.z.z.z.z.z.z.z.z.z.z.z.z.z.z.z.z.z.z.z.z.z.z.z.z.z.z.z.z.z.z.z.z.z.z.z.z.z.z.z.z.z.z.z.z.z.z.z.z.M.M.4.W J I m i i m I J W 4.F.F.+.K > ",
"> K O.C.M.z.z.z.z.z.z.z.z.z.z.z.z.z.z.z.z.z.z.z.z.z.z.z.z.z.z.z.z.z.z.z.z.z.z.z.z.z.z.z.z.z.z.z.z.z.z.z.z.z.z.M.C.@.Z . O 4 4 4 4 O . Z @.H.H.+.K > ",
"> K +.C.M.z.z.z.z.z.z.z.z.z.z.z.z.z.z.z.z.z.z.z.z.z.z.z.z.z.z.z.z.z.z.z.z.z.z.z.z.z.z.z.z.z.z.z.z.z.z.z.z.z.z.M.C.@.Z . $ 4 4 4 4 $ . Z +.H.H.O.J > ",
"> K +.C.M.z.z.z.z.z.z.z.z.z.z.z.z.z.z.z.z.z.z.z.z.z.z.z.z.z.z.z.z.z.z.z.z.z.z.z.z.z.z.z.z.z.z.z.z.z.z.z.z.z.z.M.M.4.! l e , 4 4 , e k ! 4.F.F.+.J > ",
"> K +.C.M.z.z.z.z.z.z.z.z.z.z.z.z.z.z.z.z.z.z.z.z.z.z.z.z.z.z.z.z.z.z.z.z.z.z.z.z.z.z.z.z.z.z.z.z.z.z.z.z.z.z.x.x.g.q.[ k $ 4 , $ k [ q.g.C.C.+.J > ",
"> K +.C.M.z.z.z.z.z.z.z.z.z.z.z.z.z.z.z.z.z.z.z.z.z.z.z.z.z.z.z.z.z.z.z.z.z.z.z.z.z.z.z.z.z.z.z.z.z.z.z.z.z.z.z.z.M.F.q.~ h q q k ~ q.F.M.M.C.+.J > ",
"> K O.C.M.z.z.z.z.z.z.z.z.z.z.z.z.z.z.z.z.z.z.z.z.z.z.z.z.z.z.z.z.z.z.z.z.z.z.z.z.z.z.z.z.z.z.z.z.z.z.z.z.z.z.z.z.M.M.g.t.' f f ' q.g.M.x.M.C.+.J > ",
"> K O.C.M.z.z.z.z.z.z.z.z.z.z.z.z.z.z.z.z.z.z.z.z.z.z.z.z.z.z.z.z.z.z.z.z.z.z.z.z.z.z.z.z.z.z.z.z.z.z.z.z.z.z.z.z.x.M.F.L.q.E E 4.H.F.M.z.M.C.+.K > ",
"> K O.C.M.z.z.z.z.z.z.z.z.z.z.z.z.z.z.z.z.z.z.z.z.z.z.z.z.z.z.z.z.z.z.z.z.z.z.z.z.z.z.z.z.z.z.z.z.z.z.z.z.z.z.z.z.x.M.F.L.g.4.1.p.C.C.M.x.M.C.O.J > ",
"> J O.C.M.z.z.z.z.z.z.z.z.z.z.z.z.z.z.z.z.z.z.z.z.z.z.z.z.z.z.z.z.z.z.z.z.z.z.z.z.z.z.z.z.z.z.z.z.z.z.z.z.z.z.x.x.p.3.+.@.4.g.F.M.p.1.1.p.M.C.O.J > ",
"> K O.C.M.z.z.z.z.z.z.z.z.z.z.z.z.z.z.z.z.z.z.z.z.z.z.z.z.z.z.z.z.z.z.z.z.z.z.z.z.z.z.z.z.z.z.z.z.z.z.z.z.z.z.M.M.3.E Z Z ! 4.H.F.1.T T 1.F.F.+.J > ",
"> K O.C.M.z.z.z.z.z.z.z.z.z.z.z.z.z.z.z.z.z.z.z.z.z.z.z.z.z.z.z.z.z.z.z.z.z.z.z.z.z.z.z.z.z.z.z.z.z.z.z.z.z.z.M.C.@.G . . G =.L.L.@.B N O.H.H.+.K > ",
"> K O.C.M.z.z.z.z.z.z.z.z.z.z.z.z.z.z.z.z.z.z.z.z.z.z.z.z.z.z.z.z.z.z.z.z.z.z.z.z.z.z.z.z.z.z.z.z.z.z.z.z.z.z.M.C.@.J O O K ;.L.L.&.Z B O.H.H.+.J > ",
"> K O.C.M.z.z.z.z.z.z.z.z.z.z.z.z.z.z.z.z.z.z.z.z.z.z.z.z.z.z.z.z.z.z.z.z.z.z.z.z.z.z.z.z.z.z.z.z.z.z.z.z.z.z.M.C.&.I > > b [ ;.;.' h G +.H.H.+.K > ",
"> K +.C.M.z.z.z.z.z.z.z.z.z.z.z.z.z.z.z.z.z.z.z.z.z.z.z.z.z.z.z.z.z.z.z.z.z.z.z.z.z.z.z.z.z.z.z.z.z.z.z.z.z.z.M.C.&.I > , i l G G f q I @.H.H.+.J > ",
"> K +.C.M.z.z.z.z.z.z.z.z.z.z.z.z.z.z.z.z.z.z.z.z.z.z.z.z.z.z.z.z.z.z.z.z.z.z.z.z.z.z.z.z.z.z.z.z.z.z.z.z.z.z.M.C.&.I > > i b I I l e K @.H.H.+.K > ",
"> K +.C.M.z.z.z.z.z.z.z.z.z.z.z.z.z.z.z.z.z.z.z.z.z.z.z.z.z.z.z.z.z.z.z.z.z.z.z.z.z.z.z.z.z.z.z.z.z.z.z.z.z.z.M.C.&.I > > m | <.<.[ l G +.H.H.+.J > ",
"> K +.C.M.z.z.z.z.z.z.z.z.z.z.z.z.z.z.z.z.z.z.z.z.z.z.z.z.z.z.z.z.z.z.z.z.z.z.z.z.z.z.z.z.z.z.z.z.z.z.z.z.z.z.M.C.@.J O O c } <.<.[ f Z O.H.H.+.K > ",
"> K O.C.M.z.z.z.z.z.z.z.z.z.z.z.z.z.z.z.z.z.z.z.z.z.z.z.z.z.z.z.z.z.z.z.z.z.z.z.z.z.z.z.z.z.z.z.z.z.z.z.z.z.z.M.C.@.G O O e c I I h 9 A @.H.H.+.K > ",
"> I &.F.M.z.z.z.z.z.z.z.z.z.z.z.z.z.z.z.z.z.z.z.z.z.z.z.z.z.z.z.z.z.z.z.z.z.z.z.z.z.z.z.z.z.z.z.z.z.z.z.z.z.z.M.M.3.W G J K G A A Z A W 4.F.L.&.I > ",
"> I =.H.M.z.z.z.z.z.z.z.z.z.z.z.z.z.z.z.z.z.z.z.z.z.z.z.z.z.z.z.z.z.z.z.z.z.z.z.z.z.z.z.z.z.z.z.z.z.z.z.z.z.z.x.x.p.3.@.@.@.O.O.O.O.@.4.p.C.L.=.I > ",
"> c ' q.g.N.M.M.M.M.M.M.M.M.M.M.M.M.M.M.M.M.M.M.M.M.M.M.M.M.M.M.M.M.M.M.M.M.M.M.M.M.M.M.M.M.M.M.M.M.M.M.M.M.M.M.M.C.F.H.H.H.H.H.H.H.H.H.C.g.q.' c > ",
"4 t k ~ q.H.F.C.C.C.C.C.C.C.C.C.C.C.C.C.C.C.C.C.C.C.C.C.C.C.C.C.C.C.C.C.C.C.C.C.C.C.C.C.C.C.C.C.C.C.C.C.C.C.C.C.C.F.F.H.H.H.H.H.H.H.H.L.L.q.~ k t 4 ",
"7 > $ k ' =.&.+.O.O.O.O.+.+.+.+.O.+.O.O.O.O.+.+.+.+.+.O.O.O.O.+.+.+.+.O.O.O.O.+.O.O.O.O.+.+.+.+.O.+.O.O.O.O.+.+.+.+.O.O.O.O.+.+.+.+.+.&.=.' k $ > 7 ",
"    > t c I I K J K K K K K K K K K K K J J K K K K K K J K K K K K K K J K K K J K K K K K K K K K K K J J K K K K K K J K K K K K K I I c t >     ",
"    7 4 > > > > > > > > > > > > > > > > > > > > > > > > > > > > > > > > > > > > > > > > > > > > > > > > > > > > > > > > > > > > > > > > > > 4 7     "
};
