/* XPM */
static char *spades_q[] = {
/* columns rows colors chars-per-pixel */
"74 104 209 2 ",
"   c None",
".  c #1D002C",
"X  c #1E0331",
"o  c #21012E",
"O  c #2C052C",
"+  c #240531",
"@  c #270934",
"#  c #2A0C36",
"$  c #2D0F39",
"%  c #2E123B",
"&  c #2F1030",
"*  c #31143C",
"=  c #311032",
"-  c #310731",
";  c #4B042B",
":  c #47002A",
">  c #56022A",
",  c #59042B",
"<  c #5B082E",
"1  c #550828",
"2  c #481E28",
"3  c #591438",
"4  c #4F112D",
"5  c #4A242C",
"6  c #4B2429",
"7  c #542C2A",
"8  c #542828",
"9  c #5A302B",
"0  c #7D2725",
"q  c #743F26",
"w  c #794623",
"e  c #77411C",
"r  c #452B4E",
"t  c #482D4F",
"y  c #42264A",
"u  c #552E4E",
"i  c #462E51",
"p  c #492E50",
"a  c #463153",
"s  c #4B3253",
"d  c #4F3A5D",
"f  c #513655",
"g  c #543C5A",
"h  c #583F5D",
"j  c #563554",
"k  c #6B2B4A",
"l  c #792E4A",
"z  c #733351",
"x  c #7B3F59",
"c  c #6E304F",
"v  c #533F60",
"b  c #56415F",
"n  c #59415E",
"m  c #6C4C4C",
"M  c #684648",
"N  c #775652",
"B  c #554260",
"V  c #5C4561",
"C  c #6B5D74",
"Z  c #7A5E76",
"A  c #7B667B",
"S  c #7D6B7D",
"D  c #786776",
"F  c #6D6177",
"G  c #8B0527",
"H  c #A30926",
"J  c #AA132E",
"K  c #AD1432",
"L  c #B01831",
"P  c #813231",
"I  c #CB041E",
"U  c #D1071F",
"Y  c #FF0619",
"T  c #FF0B1D",
"R  c #FF0417",
"E  c #CF2A1E",
"W  c #FD2E1C",
"Q  c #F8291A",
"!  c #FE321C",
"~  c #C90622",
"^  c #CB0A23",
"/  c #C70222",
"(  c #D90C22",
")  c #DA1528",
"_  c #FE0E20",
"`  c #F50F22",
"'  c #FF1A2A",
"]  c #FF1727",
"[  c #CE2A21",
"{  c #FE3327",
"}  c #985E1E",
"|  c #98601E",
" . c #BC7C1B",
".. c #B97511",
"X. c #B06A19",
"o. c #9D6524",
"O. c #A36E2A",
"+. c #9F5121",
"@. c #F1451D",
"#. c #CB661C",
"$. c #D1681B",
"%. c #C77D18",
"&. c #E87D16",
"*. c #F47D13",
"=. c #F87E17",
"-. c #F77B0F",
";. c #C05C16",
":. c #83344E",
">. c #C93648",
",. c #FF3944",
"<. c #F83744",
"1. c #814F56",
"2. c #806D7F",
"3. c #826578",
"4. c #D74451",
"5. c #FF4952",
"6. c #FF4750",
"7. c #FE5542",
"8. c #FF654F",
"9. c #F5686E",
"0. c #FB686D",
"q. c #F36870",
"w. c #BE801B",
"e. c #C4821A",
"r. c #CA8416",
"t. c #D0801A",
"y. c #ED9E0D",
"u. c #F68216",
"i. c #FB8416",
"p. c #F48C1C",
"a. c #EA9015",
"s. c #EFA10F",
"d. c #F1A20F",
"f. c #EFA212",
"g. c #EFA61E",
"h. c #F2A512",
"j. c #F3A816",
"k. c #CF9032",
"l. c #F88D3B",
"z. c #FD903B",
"x. c #F3AE38",
"c. c #F2B138",
"v. c #E8AE3D",
"b. c #CC9849",
"n. c #F4BA49",
"m. c #F4B845",
"M. c #F9A14B",
"N. c #F0AE57",
"B. c #EAC267",
"V. c #F4C76E",
"C. c #7C6B81",
"Z. c #816E80",
"A. c #847182",
"S. c #9A8B96",
"D. c #9B8E99",
"F. c #978A96",
"G. c #9E929B",
"H. c #A68C97",
"J. c #A1919B",
"K. c #A79597",
"L. c #A59CA3",
"P. c #AAA1A8",
"I. c #C59398",
"U. c #D49396",
"Y. c #C68E94",
"T. c #FF9895",
"R. c #FC9593",
"E. c #FCB692",
"W. c #D5A3A5",
"Q. c #D6A7A8",
"!. c #C1B7B7",
"~. c #C2B8B7",
"^. c #C4BABA",
"/. c #C8BFBD",
"(. c #C1B7B8",
"). c #CFBFA2",
"_. c #FCA7A3",
"`. c #D3BB94",
"'. c #F4D18A",
"]. c #D1C3A3",
"[. c #C6C1BF",
"{. c #CAC1BF",
"}. c #CEC2B6",
"|. c #D0C3B0",
" X c #FEC5BC",
".X c #FEC9BD",
"XX c #F2C2BC",
"oX c #F8DFB4",
"OX c #ECD2B8",
"+X c #F9E5B6",
"@X c #F8E6B8",
"#X c #C6C3C1",
"$X c #CDC5C1",
"%X c #CEC9C4",
"&X c #D2CBC6",
"*X c #D4CDC8",
"=X c #D3C6C2",
"-X c #D9D2CC",
";X c #D5D0CB",
":X c #EAE5DA",
">X c #EEEADD",
",X c #F2EDDE",
"<X c #F8EBCA",
"1X c #F6F3E4",
"2X c #F9F6E7",
"3X c #F6F5E9",
"4X c #FCFAE9",
"5X c #F9F7E9",
"6X c #F8F6E8",
/* pixels */
"    @ + o o o o o o o o o o o o o o o o o o o o o o o o o o o o o o o o o o o o o o o o o o o o o o o o o o o o o o o o o o o o o o o o o o + @     ",
"    o * s n n n n n h h h h n n h h h h h h h h h h h h h h h h h h h h h h h h h h h h h h h h h h h h h h h h h h h h h h h h h h h n n s * o     ",
"@ o . p S.^.^.~.^.~.~.~.~.~.~.~.~.~.!.!.!.~.~.~.~.~.~.!.!.!.~.~.~.~.~.~.~.~.~.!.!.~.!.!.~.~.~.~.~.~.~.!.!.!.~.~.~.~.~.~.~.~.~.!.~.~.~.^.^.S.p . o @ ",
"+ * p Z.*X4X4X4X4X4X4X4X4X4X4X4X4X4X4X4X4X4X4X4X4X4X4X4X4X4X4X4X4X4X4X4X4X4X4X4X4X4X4X4X4X4X4X4X4X4X4X4X4X4X4X4X4X4X4X4X4X4X4X4X4X4X4X4X4X*XZ.p * + ",
"o s S.*X>X4X4X4X4X4X4X4X4X4X4X2X2X2X2X2X2X2X2X2X2X2X2X2X2X2X2X2X2X2X2X2X2X2X2X2X2X2X2X2X2X2X2X2X2X2X2X2X2X2X2X2X2X2X2X2X2X2X2X2X2X2X2X2X4X>X*XS.s o ",
"o n ^.4X4X:X=X^.^.^.~.!.^.=X:X1X1X1X2X2X2X2X2X2X2X2X2X2X2X2X2X2X2X2X2X2X2X2X2X2X2X2X2X2X2X2X2X2X2X2X2X2X2X2X2X2X2X2X2X2X2X2X2X2X1X1X1X1X1X2X4X^.n o ",
"o n ^.4X4X=XS g h h g g g S =X2X2X1X2X4X4X4X4X4X4X4X4X4X4X4X4X4X4X4X4X4X4X4X4X4X4X4X4X4X4X4X4X4X4X4X4X4X4X4X4X4X4X4X4X4X4X4X4X2X1X1X1X1X1X2X4X^.n o ",
"o h ~.4X4X^.g . . % p r # g ^.4X4X:X%X!.!.!.!.!.!.!.!.!.!.!.!.!.!.!.!.!.!.!.!.!.!.!.!.!.!.!.!.!.!.!.!.!.!.!.!.!.!.!.!.!.!.!.~.=X:X1X1X1X1X2X4X~.h o ",
"o n ~.4X4X^.h . . s G.S.t g !.4X4X%XA f f g g g g g g g g g g g g g g g g g g g g g g g g g g g g g g g g g g g g g g g g g g S =X2X2X1X1X2X4X~.h o ",
"o n ~.4X4X^.n . . V %X$Xn g !.4X4X%XA f f g g g g g g g g g g g g g h h g h h h h h g g h h h h h h h h h h g g g g g g g r # g ^.4X2X1X1X2X4X~.h o ",
"o n ~.4X4X^.n . . V %X$Xn g !.4X4X:X%X!.!.!.!.!.!.!.!.!.!.!.!.!.!.(.^.^.^.^.^.^.^.^.^.^.^.^.^.^.^.^.^.^.^.^.^.!.!.!.!.^.^.F.r g !.4X2X1X1X2X4X~.h o ",
"o n ~.4X4X^.n o o s J.G.s g ^.4X2X1X2X4X4X4X4X4X4X4X4X4X4X5X4X5X5X1X<X+X+X+X+X+X+X+X+X+X+X+X+X+X+X+X+XOX}.=X>X4X4X4X4X4X4X^.g g !.4X2X1X1X2X4X~.h o ",
"o n ~.4X4X^.n o o * s s % n /.4X4X1X2X2X2X2X2X2X2X2X2X5X4X5X4X5X5X<XV.m.m.n.n.n.n.n.n.n.n.n.n.n.n.n.n.b.N S =X4X4X2X2X4X4X^.g g !.4X2X1X1X2X4X~.h o ",
"o n ~.4X4X^.h . o o o . . p S.=X:X1X1X1X1X1X1X1X1X3X3X,X@XoXoX+X+X'.c.y.y.y.s.d.d.d.d.d.s.s.s.d.d.y.r.o.M A $X2X2X1X1X2X4X!.g g !.4X2X1X1X2X4X~.h o ",
"o h ~.4X4X^.g . . o o . o $ r S %X2X2X1X1X1X1X1X1X3X3X<XV.m.m.m.m.c.g.s.f.f.f.h.h.h.h.h.h.f.f.h.h.r.e M K.=X:X1X1X1X1X2X4X!.g g !.4X2X1X1X2X4X~.h o ",
"o h ~.4X4X=XS g h n V V n g f A %X2X2X1X1X1X1X,X@X+X+X'.c.y.s.s.s.f.f.f.f.f.h.a.e. . .%.&.=.=.&.%.o.M C.&X4X2X1X1X1X1X2X4X!.g g !.4X2X1X1X2X4X~.h o ",
"o h ~.4X4X:X=X^.^.^././.^.^.!.%X:X1X1X1X1X1X3X@XV.m.m.c.g.s.f.f.f.f.f.f.f.j.j.r.w 5 5 0 [ ! ! E 0 m K.&X>X2X1X1X1X1X1X2X4X!.g g !.4X2X1X1X2X4X~.h o ",
"o h ~.4X2X1X2X4X4X,X*X*X,X4X4X2X1X1X1X1X2X4X5XOXb.....r.a.h.h.h.h.h.h.f.u.=.=.$.q 7 7 P E Q ) K c C.*X4X2X1X1X1X1X1X1X2X4X!.g g !.4X2X1X1X2X4X~.h o ",
"o n ~.4X2X1X2X4X4X*X2.2.*X4X4X2X1X1X1X1X2X4X4X}.N 6 6 w r.j.h.h.h.h.j.p.@.W W @.$.w. .t.u.$.P z H.;X>X2X2X1X1X1X1X1X1X2X4X!.g g !.4X2X1X1X2X4X~.h o ",
"o n ~.4X2X1X2X>X*XS.r r S.*X>X2X2X2X2X:X%X=X>X=XC.d d m O. .%. . . . .#.@.W W @.$.e.e.e.e.| 5 a G.-X,X2X2X1X1X1X1X1X1X2X4X!.g g !.4X2X1X1X2X4X~.h o ",
"o h ~.4X2X2X4X*XZ.t $ $ r Z.*X4X2X2X4X=XS S =X,X=X^.^.K.m 8 8 7 7 7 5 q $.i.i.$.P 7 9 9 9 5 & % s A.*X4X2X1X1X1X1X1X1X2X4X!.g g !.4X2X1X1X2X4X!.h o ",
"o h ~.4X4X>X*XS.p o + + . t S.*X>X>X*XS.r r S.*X,X4X4X*XC.i $ # 5 7 7 q o.e.e.o.5 X X X X + + + . p S.*X>X2X2X1X1X1X1X2X4X!.g g !.4X2X1X1X2X4X~.h o ",
"o n ~.4X4X=X2.p % + + + + % p A.*X*XA.t $ $ t Z.=X4X4X>X&XF.i 2 } e.e.o.q 8 7 5 = + + . . + + + + % p Z.*X4X2X1X1X1X1X2X4X!.g g !.4X2X1X1X2X4X~.h o ",
"o n ~.4X4X^.g . o + + + + . . h /./.n . o + . g ^.4X2X4X4X[.B 2 | e.e.O.m i % + o * s V n s * + + o . r S.*X>X1X1X1X1X2X4X!.g g !.4X2X1X1X2X4X~.h o ",
"o h ~.4X4X^.g . . + + + + . . g /./.n o + + o h ^.4X2X4X4X{.B O 5 7 7 N K.G.s . . p D.{.{.G.s o o o . # r 2.=X2X2X1X1X2X4X!.g g !.4X2X1X1X2X4X~.h o ",
"o h ~.4X4X=XS h n s * * s n h A.*X/.n o + + o h ^.4X2X:X*XH.z , > > > 1.=X$XV $ r Z.*X4X4X/.n % s V V t # g !.4X2X1X1X2X4X!.g g !.4X2X1X1X2X4X~.h o ",
"o h ~.4X4X:X=X^.{.J.s s J.{.^.=X>X^.g . + + . g ^.4X4X%XC.c K ^ ^ ~ / 4.XX[.b r S.*X>X4X4X^.g p G.%X$XS.y s !.4X2X1X1X2X4X!.g g !.4X2X1X1X2X4X~.h o ",
"o h ~.4X2X2X4X,X*XS.r r S.*X,X4X4X=X2.p * * p 2.=X4X4X^.d 1 [ ! ! ! ! 8..X^.h g ^.4X4X2X4X^.g p D.-X1X=XS A %X2X2X1X1X2X4X!.g g !.4X2X1X1X2X4X~.h o ",
"o h ~.4X2X2X4X=X2.r $ $ r 2.=X4X4X>X*XS.p p S.*X>X4X4X^.d 2 X.i.i.u.*.M.oX^.h g ^.4X2X4X4X/.n $ p A.*X>X=X%X:X1X1X1X1X2X4X!.g g !.4X2X1X1X2X4X~.h o ",
"o h ~.4X2X2X2X%XA g n n g A %X2X4X4X4X/.g g /.4X4X>X&XH.c 0 #.u.u.*.*.M.oX^.h g ^.4X4X>X*XD.s . . g ^.4X4X2X1X1X1X1X1X2X4X!.g g !.4X2X1X1X2X4X~.h o ",
"o h ~.4X2X1X1X:X%X~.^.^.!.%X:X2X4X4X4X/.g g /.4X4X*XC.k K ) Q ! ! W Q 8..X[.h g ^.4X4X*XZ.p * o . h /.4X4X2X1X1X1X1X1X2X4X!.g g !.4X2X1X1X2X4X~.h o ",
"o h ~.4X2X1X1X2X4X>X*X*X>X4X2X:X=X^.^.S.r r S.{.[.K.m 0 E ! ! ! W { ,.q.W.F.r u Y. X XY.u . o o o s S.*X>X1X1X1X1X1X1X2X4X!.g g !.4X2X1X1X2X4X~.h o ",
"o h ~.4X2X1X1X2X4X=XS S =X4X4X=XS g g r $ % s B B m O.%.u.u.u.*.-.l.E.W.Z y # 3 >.6.6.>.3 . . o o $ t 2.=X2X2X1X1X1X1X2X4X!.g g !.4X2X1X1X2X4X~.h o ",
"o h ~.4X2X1X1X2X4X!.f f !.4X4X^.g # r h n s % O : 0 $.i.u.*.*.p.x.B.].P.C h B z J I I H ; % s V V s # g ^.4X2X1X1X1X1X2X4X!.g g !.4X2X1X1X2X4X~.h o ",
"o h ~.4X2X1X1X2X4X!.g g !.4X4X~.g r S./.{.D.a : H ) Q ! ! W Q 7.E.].D C L.$X%XK.c > > : O s J.%X%XD.r g ^.4X2X1X1X1X1X2X4X!.g g !.4X2X1X1X2X4X~.h o ",
"o h ~.4X2X1X1X2X4X!.g g !.4X4X!.g g ^.4X4X/.B 1 [ ! ! ! W { ,.q.W.F.y y S.$X%XP.F b b b n D P.%X%XG.t r F.=X>X2X2X1X1X2X4X!.g g !.4X2X1X1X2X4X~.h o ",
"o h !.4X2X1X1X2X4X!.g g !.4X4X!.g g ^.4X4X^.h 8 #.i.u.*.*.l.E.W.Z y # # p n n D P.$X{.{.$XP.D n V s % # y S *X4X2X1X1X2X4X!.g g !.4X2X1X1X2X4X!.h o ",
"o h ~.4X2X1X1X2X4X!.g g !.4X4X!.g g ^.4X4X^.h 6 ;.u.*.p.x.B.].P.C g b B b r # r J.%X$X$X%XJ.s . . $ s n g C L.*X>X2X1X2X4X!.g g !.4X2X1X1X2X4X!.h o ",
"o h ~.4X2X1X1X2X4X!.g g !.4X4X!.g g ^.4X4X/.b 1 [ W W 7.E.].D C L.[.[.[.[.D.r # s V V V V s * . . r G.#X#XL.C S =X4X2X2X4X!.g g !.4X2X1X1X2X4X!.h o ",
"o h ~.4X2X1X1X2X4X!.g g ^.4X4X^.g r S.[.[.D.a 1 [ { ,.q.W.H.k l U. X X X XW.3.a # . o o o o o % s 3.W. X.XU.l k H.=X>X4X4X^.g g !.4X2X1X1X2X4X~.h o ",
"o h ~.4X2X1X1X2X4X!.g g ^.4X4X/.b % i B B a % 8 ;.z.E.W.Z k J ) <.5.5.6.6.9.Q.G.i . o + + o . s G.Q.9.6.6.<.) J k S *X4X4X^.g g !.4X2X1X1X2X4X~.h o ",
"o h ~.4X2X1X1X2X4X!.g r S././.H.z > > > > > > P k.B.].P.C m 4.,.] Y Y Y Y ,.T.Q.3.s % o o % s 3.Q.T.,.Y Y T T ) l C L.[.{.S.t g ~.4X2X1X1X2X4X~.h o ",
"o h ~.4X2X1X1X2X4X^.h $ i v v z L ^ ~ ~ I I I 4.E.].D C L.=XXXR.,.R Y T T ' ,.q.Q.G.s . . s G.Q.q.,.' T T T Y <.U.P.F g b s % n ^.4X2X1X1X2X4X~.h o ",
"o h !.4X2X1X1X2X4X^.n O 2 8 8 0 E ! ! { 6.6.6.9.Q.J.k l U..X X_.0.,.' _ _ T Y ,.T.Q.3.b b 3.Q.T.,.Y T _ _ ' ,.0._.U.:.; O . o n ^.4X2X1X1X2X4X~.h o ",
"o h ~.4X2X1X1X2X4X^.h 2 } e.%.%.&.-.-.l.E. X XW.A c J ) <.6.6.0._.R.,.T T _ T ' ,.9.W.#X#XW.9.,.' T T T T ,.T._.0.<.) H ; . . n ^.4X2X1X1X2X4X~.h o ",
"o h ~.4X2X1X1X2X4X^.h 2 | e.e.k.v.n.n.B.).#X#XK.c G ( T T Y Y 6..X.X5.T T ` ( ^ I >.Y.#X#XY.>.I ^ ^ ^ ~ I >.I.I.>.I ^ H ; . . n ^.4X2X1X1X2X4X~.h o ",
"o h ~.4X2X1X1X2X4X^.n & 6 9 7 1.`.@X@X].D b B z L ( _ _ T Y Y 6..X.X5.Y T ( G < , 3 u b b u 3 < < < , > > 3 j j 3 < , ; O . o n ^.4X2X1X1X2X4X~.h o ",
"o h ~.4X2X1X1X2X4X^.n o + + X s D.$X#XD.p . . ; H ^ ^ ^ ^ ^ ^ >.I.I.>.~ ^ H ; X X % r h n s % X X % a B V s * o . % a V V s % h ^.4X2X1X1X2X4X~.h o ",
"o h ~.4X2X1X1X2X4X^.n o + + + * p h h p * + + - ; , , , < < < 3 j u 3 , < 4 - X . i S./.{.G.s . . i D.$X#XG.s . . i D.$X%XG.p g !.4X2X1X1X2X4X~.h o ",
"o h ~.4X2X1X1X2X4X^.n o + + + * t h n s * + o % s B V s % X X % i h V s % + + % p A.-X2X-XG.s # r A.-X1X-XG.s # r A.-X1X-XD.t g !.4X2X1X1X2X4X~.h o ",
"o h ~.4X2X1X1X2X4X^.n o + + o p S./.{.G.s o . p D.$X#XG.s . . i S.{.#XG.s . . p S.-X1X-XA.t # r S.-X1X-XA.t # r S.-X1X-XA.t $ h ^.4X2X1X1X2X4X~.h o ",
"o h ~.4X2X1X1X2X4X^.n o o % p A.-X1X-XG.p # r A.-X2X-XG.s # r A.-X1X-XJ.s % p A.-X1X-XS.r # i A.-X1X-XS.r # t A.-X1X-XS.t . . n ^.4X2X1X1X2X4X~.h o ",
"o h ~.4X2X1X1X2X4X^.n . . t S.-X1X-XA.t # r S.-X1X-XA.t # r S.-X1X-XA.p $ s G.-X1X-XA.r # s G.-X1X-XA.r # p G.-X1X-XA.p % o o n ^.4X2X1X1X2X4X!.h o ",
"o h ~.4X2X1X1X2X4X^.h $ p A.-X1X-XS.r # t A.-X1X-XS.r # t A.-X1X-XS.t . . s G.#X{.S.r . . s G.#X$XD.p . . s J.{./.S.p o + + o n ^.4X2X1X1X2X4X!.h o ",
"o h ~.4X2X1X1X2X4X~.g t D.-X1X-XA.r # s G.-X1X-XA.r # p G.-X1X-XA.t % o + % s V h r % X X % s V B s % o + * s n h p * + + + o n ^.4X2X1X1X2X4X!.h o ",
"o h !.4X2X1X1X2X4X~.g p G.%X$XD.i . . s G.#X$XD.i . . s G.{./.S.i . X - 4 < , 3 u j 3 < < < , > , ; - + o * p h h p * + + + o n ^.4X2X1X1X2X4X~.h o ",
"o h ~.4X2X1X1X2X4X^.h % s V V a % . o % s V B a % X X % s n h i % X X ; H ^ ~ >.I.I.>.^ ^ ^ ^ ^ ^ H ; . . p D.#X[.D.s X + + o n ^.4X2X1X1X2X4X~.h o ",
"o h ~.4X2X1X1X2X4X^.n o . O ; , < 3 j j 3 > > , < < < 3 u b b u 3 , < G ( T T 5..X X6.Y Y T _ _ ( L z B b D ].@X@X`.1.7 9 6 & n ^.4X2X1X1X2X4X~.h o ",
"o h ~.4X2X1X1X2X4X^.n . . ; H U I >.I.I.>.I ~ ^ ^ ^ I >.Y.#X#XY.>.I ^ ( ` T T 5..X.X6.Y Y T T ( G c K.#X#X).B.n.n.v.k.e.e.| 6 h ^.4X2X1X1X2X4X!.h o ",
"o h ~.4X2X1X1X2X4X^.n . . ; H ) <.0._.T.,.T T _ T ' ,.9.W.#X#XW.9.,.' T _ _ T ,.R._.0.6.6.<.) J c A W. X XE.l.-.-.&.%.%.%.} 2 h ^.4X2X1X1X2X4X~.h o ",
"o h ~.4X2X1X1X2X4X^.n o . O ; :.U._.0.,.' _ _ T Y ,.T.Q.3.b b 3.Q.T.,.Y T _ _ ' ,.0._..X XU.l k J.Q.9.6.6.6.{ ! ! E 0 8 8 2 O n ^.4X2X1X1X2X4X~.h o ",
"o h ~.4X2X1X1X2X4X^.n % p n h F P.U.<.Y Y T T ' ,.q.Q.G.s . . s G.Q.q.,.' T T Y R ,.R.XX=XL.C D ].E.4.I I I ~ ~ ^ L z v v i $ h ^.4X2X1X1X2X4X~.h o ",
"o h ~.4X2X1X1X2X4X~.g t S.{.[.L.C l ) T T Y Y ,.T.Q.3.s % o o % s 3.Q.T.,.Y Y Y Y ] ,.4.x C P.].B.k.P > > > > > > z H././.S.r g !.4X2X1X1X2X4X~.h o ",
"o h ~.4X2X1X1X2X4X!.g g ^.4X4X*XS k J ) <.6.6.9.Q.G.s . o + + o . i G.Q.9.6.6.5.5.<.) J k Z W.E.z.;.8 % a B B a % b /.4X4X^.g g !.4X2X1X1X2X4X~.h o ",
"o h ~.4X2X1X1X2X4X!.g g ^.4X4X>X=XH.k l U..X XW.3.s % o o o o o . # s 3.W. X X X XU.l k H.W.q.,.{ [ 1 a F.[.[.F.i h ^.4X4X^.g g !.4X2X1X1X2X4X~.h o ",
"o h ~.4X2X1X1X2X4X!.g g !.4X2X2X4X=XS C L.#X#XG.r . . * s V V V V s # r D.[.[.[.[.L.C D ].E.7.W W [ 1 b /.4X4X^.g g !.4X4X!.g g !.4X2X1X1X2X4X~.h o ",
"o h ~.4X2X1X1X2X4X!.g g !.4X2X1X2X>X*XL.C h B s % . . s J.%X{.$X%XJ.r # r b V b g C P.].B.x.p.*.u.X.8 h ^.4X4X^.g g !.4X4X!.g g !.4X2X1X1X2X4X~.h o ",
"o h !.4X2X1X1X2X4X!.g g !.4X2X1X1X2X4X*XS y # % s V n D P.$X{.[.{.P.D n h t # # y Z W.E.l.*.*.u.i.#.8 h ^.4X4X^.g g !.4X4X!.g g !.4X2X1X1X2X4X~.h o ",
"o h ~.4X2X1X1X2X4X!.g g !.4X2X1X1X1X2X>X=XF.r t G.%X%XP.D n b b b F P.%X%XS.y y F.W.q.,.{ W ! ! ! [ 1 b /.4X4X^.g g !.4X4X!.g g !.4X2X1X1X2X4X~.h o ",
"o h ~.4X2X1X1X2X4X!.g g !.4X2X1X1X1X1X4X4X^.g r D.%X%XJ.s O : > > c K.%X{.L.C D ].E.7.Q W ! ! Q ) H : a D.{.{.S.r g !.4X4X!.f f !.4X2X1X1X2X4X!.h o ",
"o h ~.4X2X1X1X2X4X!.g g !.4X2X1X1X1X1X2X4X^.g # s V V s % ; H I I J z B h C P.].B.x.p.*.*.u.i.$.0 : O % s n n r # g ^.4X4X!.f f !.4X2X1X1X2X4X~.h o ",
"o h ~.4X2X1X1X2X4X!.g g !.4X2X1X1X1X1X2X2X=X2.t $ o o . . 3 >.6.6.>.3 # y Z W.E.l.*.*.u.u.u.r.O.m B B s % $ p g g S =X4X4X=XS S =X4X2X1X1X2X4X~.h o ",
"o h ~.4X2X1X1X2X4X!.g g !.4X2X1X1X1X1X1X1X>X*XS.s o o o . u Y. X XY.u r F.W.q.,.{ W ! ! ! E 0 m K.[.{.S.r r S.^.^.=X:X2X4X>X*X*X>X4X2X1X1X2X4X~.h o ",
"o h ~.4X2X1X1X2X4X!.g g !.4X2X1X1X1X1X1X2X4X4X/.h . o * p Z.*X4X4X^.g h [..X8.Q W ! ! Q ) K k C.*X4X4X/.g g /.4X4X4X2X:X%X~.^.^.~.%X:X1X1X2X4X~.h o ",
"o h ~.4X2X1X1X2X4X!.g g !.4X2X1X1X1X1X1X2X4X4X^.g . . s D.*X>X4X4X^.g h ^.oXM.*.*.u.u.#.0 c H.*X>X4X4X/.g g /.4X4X4X4X%XA g n n g A %X2X2X2X4X~.h o ",
"o h ~.4X2X1X1X2X4X!.g g !.4X2X1X1X1X2X:X%X=X>X*XA.t $ n /.4X4X2X4X^.g h ^.oXM.*.u.i.i.X.2 d ^.4X4X>X*XS.t t S.*X>X4X4X=X2.r $ $ r S =X4X2X2X4X~.h o ",
"o h ~.4X2X1X1X2X4X!.g g !.4X2X1X1X2X2X%XA S =X1X-XD.p g ^.4X2X4X4X^.g h ^..X8.! ! ! ! [ 1 d ^.4X4X=X2.p * % p 2.=X4X4X,X*XS.r r S.*X,X4X2X2X4X~.h o ",
"o h ~.4X2X1X1X2X4X!.g g !.4X2X1X1X2X4X!.f y S.$X%XG.p g ^.4X4X>X*XS.t b [.XX4./ / ~ ^ K c C.%X4X4X^.g . o o . g ^.>X=X^.{.J.s s G.{.^.=X:X4X4X~.h o ",
"o h ~.4X2X1X1X2X4X!.g g !.4X2X1X1X2X4X!.f # t V V s % n /.4X4X*XZ.r $ B $X=X1.> > > , z H.*X>X4X4X^.h o + + o n /.*XZ.h n s * * s n h S =X4X4X^.h o ",
"o h !.4X2X1X1X2X4X!.g g !.4X2X1X1X2X2X=X2.t # . o o o s G.{.{.D.p . . s G.K.N 7 7 5 O B {.4X4X2X4X^.h o + + o n /./.g . . + + + + . . g ~.4X4X~.h o ",
"o h ~.4X2X1X1X2X4X!.g g !.4X2X1X1X1X1X>X*XS.r . o + + * s n n s * + + % i m O.e.e.| 5 B /.4X4X2X4X^.g . + + . n /./.g . o + @ + + o . g ^.4X4X~.h o ",
"o h ~.4X2X1X1X2X4X!.g g !.4X2X1X1X1X1X2X4X*XZ.p % + + + + . . + + = 5 7 8 q o.e.e.} 2 i F.=X>X4X4X=XZ.t $ $ t A.*X*XA.p % + + + + % p 2.=X4X4X~.h o ",
"o h ~.4X2X1X1X2X4X!.g g !.4X2X1X1X1X1X1X2X>X*XS.p o + + + X X X X 5 o.e.e.o.q 7 7 5 # $ i C.*X4X4X,X*XS.r r S.*X>X>X*XS.t o + + o p S.*X>X2X4X~.h o ",
"o h ~.4X2X1X1X2X4X!.g g !.4X2X1X1X1X1X1X1X2X4X*XA.s % & 5 9 9 9 7 P $.i.i.$.q 7 7 7 7 8 8 m K.^.^.=X,X=XS S =X4X2X2X4X*XZ.t $ $ t Z.*X4X2X2X4X~.h o ",
"o h !.4X2X1X1X2X4X!.g g !.4X2X1X1X1X1X1X1X1X2X,X-XG.a 5 | e.e.e.e.$.@.W W @.$. . . . . . .O.m g d C.=X>X=X%X:X2X2X2X2X>X*XS.r r S.*X>X2X1X2X4X~.h o ",
"o h ~.4X2X1X1X2X4X!.g g !.4X2X1X1X1X1X1X1X1X2X>X;XH.z P $.u.t. .w.$.@.W W @.p.j.h.h.h.h.j.r.w 6 6 N }.4X4X2X1X1X1X1X2X4X4X*X2.S *X4X4X2X1X2X4X~.h o ",
"o h ~.4X2X1X1X2X4X!.g g !.4X2X1X1X1X1X1X1X2X4X*XC.c J ) Q E 0 7 7 q $.=.=.u.f.h.h.h.h.h.h.a.r.....b.OX5X5X2X1X1X1X1X2X4X4X,X*X*X,X4X4X2X1X2X4X~.h o ",
"o h ~.4X2X1X1X2X4X!.g g !.4X2X1X1X1X1X1X2X>X&XK.m 0 E ! ! [ 0 5 5 w r.j.h.f.f.f.f.f.f.f.f.g.c.m.m.V.@X3X1X1X1X1X1X:X%X!.^.^././.^.^.^.=X:X4X4X~.h o ",
"o h ~.4X2X1X1X2X4X!.g g !.4X2X1X1X1X1X2X4X&XC.M o.%.&.=.=.&.%. . .e.a.h.f.f.f.f.f.s.y.y.y.c.'.+X+X@X,X1X1X1X1X2X2X%XA f g n V V n h g S =X4X4X^.h o ",
"o h ~.4X2X1X1X2X4X!.g g !.4X2X1X1X1X1X:X=XK.M e r.h.h.f.f.h.h.h.h.h.h.f.f.f.f.g.c.m.m.m.m.V.<X3X3X3X1X1X1X1X1X2X2X=XS r $ o . o o . . g ^.4X4X^.h o ",
"o h ~.4X2X1X1X2X4X!.g g !.4X2X1X1X2X2X$XA M o.r.y.d.d.s.s.s.d.d.d.d.s.y.s.y.y.c.'.+X+XoXoX@X,X3X3X1X1X1X1X1X1X1X1X:X=XS.p . . o o o . h ^.4X4X~.h o ",
"o h !.4X2X1X1X2X4X!.g g ^.4X4X2X2X4X4X=XS N b.n.n.n.n.n.n.n.n.n.n.n.n.n.n.m.m.V.<X4X5X4X4X4X5X2X2X2X2X2X2X2X2X2X1X2X4X/.n % s s * o o n ^.4X4X~.h o ",
"o h ~.4X2X1X1X2X4X!.g g ^.4X4X4X4X4X4X>X=X}.OX+X+X+X+X+X+X+X+X+X+X+X+X+X+X+X+X<X1X5X5X4X4X4X4X4X4X4X4X4X4X4X4X2X1X2X4X^.g s G.J.s o o n ^.4X4X~.h o ",
"o h ~.4X2X1X1X2X4X!.g r F.^.^.!.!.!.!.^.^.^.^.^.^.^.^.^.^.^.^.^.^.^.^.^.^.^.^.^.(.!.!.!.!.!.!.!.!.!.!.!.!.!.!.%X:X2X4X!.g n $X%XV . . n ^.4X4X~.h o ",
"o h ~.4X2X1X1X2X4X~.g # r g g g g g g g h h h g g g h h h h h h h g g h h h h h g g g g g g g g g g g g g f f A %X4X4X!.g n %X%XV . o n ^.4X4X^.h o ",
"o h ~.4X2X1X1X2X2X=XS g g g g g g g g g g g g g g g g g g g g g g g g g g g g g g g g g g g g g g g g g g f f A %X4X4X!.g r S.G.s . . h ^.4X4X^.h o ",
"o h !.4X2X1X1X1X1X:X=X^.!.!.!.!.!.!.!.!.!.!.!.!.!.!.!.!.!.!.!.!.!.!.!.!.!.!.!.!.!.!.!.!.!.!.!.!.!.!.!.!.!.!.!.%X:X4X4X^.g # r p % . . g ^.4X4X~.n o ",
"o n ^.4X2X1X1X1X1X1X2X4X4X4X4X4X4X4X4X4X4X4X4X4X4X4X4X4X4X4X4X4X4X4X4X4X4X4X4X4X4X4X4X4X4X4X4X4X4X4X4X4X4X4X4X2X1X2X2X=XS g g g h h g S =X4X4X^.n o ",
"o n ^.4X4X1X1X1X1X1X2X2X2X2X2X2X2X2X2X2X2X2X2X2X2X2X2X2X2X2X2X2X2X2X2X2X2X2X2X2X2X2X2X2X2X2X2X2X2X2X2X2X2X2X2X2X1X1X1X:X=X^.!.~.^.^.^.=X:X4X4X^.n o ",
"o s S.*X>X4X2X2X2X2X2X2X2X2X2X2X2X2X2X2X2X2X2X2X2X2X2X2X2X2X2X2X2X2X2X2X2X2X2X2X2X2X2X2X2X2X2X2X2X2X2X2X2X2X2X2X2X2X2X2X4X4X4X4X4X4X4X4X4X>X*XS.s o ",
"+ * p Z.*X4X4X4X4X4X4X4X4X4X4X4X4X4X4X4X4X4X4X4X4X4X4X4X4X4X4X4X4X4X4X4X4X4X4X4X4X4X4X4X4X4X4X4X4X4X4X4X4X4X4X4X4X4X4X4X4X4X4X4X4X4X4X4X4X*XZ.p * + ",
"@ o . p S.^.^.~.~.~.~.!.!.~.~.~.!.~.~.~.~.~.~.~.~.!.~.~.~.~.!.!.~.!.~.~.~.~.!.!.~.~.~.~.!.!.~.!.!.~.~.~.~.~.~.!.~.!.~.~.~.~.~.~.~.~.~.^.^.S.p o + @ ",
"    o * s n n h h h h h h h h h h h h h h h h h h h h h h h h h h h h h h h h h h h h h h h h h h h h h h h h h h h h h h h h h n n n n n s * +     ",
"    @ + o o o o o o o o o o o o o o o o o o o o o o o o o o o o o o o o o o o o o o o o o o o o o o o o o o o o o o o o o o o o o o o o o o + @     "
};
