/* XPM */
static char *spades_5[] = {
/* columns rows colors chars-per-pixel */
"74 104 141 2 ",
"   c None",
".  c #1B0029",
"X  c #1C002A",
"o  c #1D002A",
"O  c #1E002B",
"+  c #1E002C",
"@  c #1F002C",
"#  c #20002D",
"$  c #20012D",
"%  c #21012D",
"&  c #21012E",
"*  c #22022F",
"=  c #22032F",
"-  c #23032F",
";  c #230430",
":  c #240430",
">  c #250531",
",  c #250631",
"<  c #250632",
"1  c #260632",
"2  c #260732",
"3  c #270833",
"4  c #2B0D37",
"5  c #2D0F38",
"6  c #2E1039",
"7  c #2F113A",
"8  c #30133B",
"9  c #33153D",
"0  c #452A4C",
"q  c #462B4D",
"w  c #462C4E",
"e  c #482D4F",
"r  c #482E4F",
"t  c #482E50",
"y  c #4A3051",
"u  c #4B3152",
"i  c #4F3555",
"p  c #503756",
"a  c #523857",
"s  c #523858",
"d  c #533A58",
"f  c #533A59",
"g  c #543B59",
"h  c #543B5A",
"j  c #553C5A",
"k  c #553D5B",
"l  c #563D5B",
"z  c #563E5C",
"x  c #573E5C",
"c  c #583F5D",
"v  c #58405D",
"b  c #59405D",
"n  c #59415E",
"m  c #5A415E",
"M  c #5A425E",
"N  c #5A425F",
"B  c #5C4460",
"V  c #7B677B",
"C  c #7B687B",
"Z  c #7C697C",
"A  c #7D6A7D",
"S  c #7F6C7E",
"D  c #7F6C7F",
"F  c #806C7F",
"G  c #806D7F",
"H  c #816E80",
"J  c #816F80",
"K  c #998A95",
"L  c #9B8B96",
"P  c #9B8C96",
"I  c #9C8C97",
"U  c #9C8D97",
"Y  c #9F9099",
"T  c #A0919A",
"R  c #C0B5B6",
"E  c #C0B6B6",
"W  c #C1B6B6",
"Q  c #C1B7B7",
"!  c #C2B8B7",
"~  c #C2B8B8",
"^  c #C3B9B8",
"/  c #C3B9B9",
"(  c #C3BAB9",
")  c #C4BAB9",
"_  c #C5BBBA",
"`  c #C5BCBA",
"'  c #C6BCBB",
"]  c #C6BDBB",
"[  c #C8BFBD",
"{  c #CAC1BE",
"}  c #CAC1BF",
"|  c #CBC2BF",
" . c #CEC5C2",
".. c #CFC7C3",
"X. c #D0C7C3",
"o. c #D0C8C3",
"O. c #D0C8C4",
"+. c #D1C9C4",
"@. c #D1CAC5",
"#. c #D2CAC5",
"$. c #D3CBC6",
"%. c #D4CCC7",
"&. c #D4CDC7",
"*. c #D5CDC7",
"=. c #D5CDC8",
"-. c #D6CFC9",
";. c #D7CFC9",
":. c #E9E4D9",
">. c #EAE5DA",
",. c #EAE6DA",
"<. c #EBE7DB",
"1. c #ECE7DB",
"2. c #ECE8DC",
"3. c #EFEADE",
"4. c #EFEBDE",
"5. c #F0ECDF",
"6. c #F0EDDF",
"7. c #F1EDDF",
"8. c #F6F3E4",
"9. c #F7F4E5",
"0. c #F8F5E5",
"q. c #F8F5E6",
"w. c #F8F6E6",
"e. c #F9F6E7",
"r. c #F9F7E7",
"t. c #FAF7E7",
"y. c #FAF8E8",
"u. c #FBF8E8",
"i. c #FBF9E8",
"p. c #FBF9E9",
"a. c #FCF9E9",
"s. c #FCFAE9",
"d. c #FCFAEA",
"f. c #FDFAEA",
"g. c #FDFBEA",
"h. c #FEFCEA",
"j. c #FEFCEB",
"k. c #FEFDEB",
"l. c #FFFDEB",
"z. c #FFFEEC",
"x. c #FFFFED",
/* pixels */
"    3 < - - - - - - - - - - - - - - - - - - - - - - - - - - - - - - - - - - - - - - - - - - - - - - - - - - - - - - - - - - - - - - - - - - < 3     ",
"    - 8 u n n c c c c x c c c c c c c c x c c x c c c c c c c c c c c x c c c c c c c c c c c x c c c c c c c c c c c x c c c c c c c n n u 8 -     ",
"3 - @ t L ' ) ! ! Q Q Q Q Q ! Q ! ! Q ! Q Q Q Q Q Q Q Q ! ! ! ! Q Q Q Q Q Q Q Q ! ! ! ! Q Q Q Q Q Q Q Q ! ! ! ! Q Q Q Q Q Q Q Q ! ! ! ) ' L r @ - 3 ",
"< 8 t H &.z.z.j.j.j.j.j.g.j.j.g.g.p.p.p.p.p.p.p.p.p.p.p.p.p.p.p.p.p.p.p.p.p.p.p.p.p.p.p.p.p.p.p.p.p.p.p.p.p.p.p.p.p.p.p.p.p.p.p.p.p.p.g.j.&.H r 8 < ",
"- u L &.3.p.g.j.j.j.j.j.j.j.j.g.p.t.t.t.t.t.t.t.t.t.t.t.t.t.t.t.t.t.t.t.t.t.t.t.t.t.t.t.t.t.t.t.t.t.t.t.t.t.t.t.t.t.t.t.t.t.t.t.t.t.t.t.p.3.&.L u - ",
"- n ' z.p.>.o.^ ^ ^ ! Q Q Q Q  .>.9.9.8.8.8.8.8.8.8.8.8.8.8.8.8.8.8.8.8.8.8.8.8.8.8.8.8.8.8.8.8.8.8.8.8.8.8.8.8.8.8.8.8.8.8.8.8.8.8.8.8.8.p.j.' n - ",
"- n ) z.g.o.S k x c k g g a p C  .t.t.8.8.8.8.8.8.8.8.8.8.8.8.8.8.8.8.8.8.8.8.8.8.8.8.8.8.8.8.8.8.8.8.8.8.8.8.8.8.8.8.8.8.8.8.8.8.8.8.8.8.t.g.) n - ",
"- c ! j.j.^ k X X 7 u n c k f A X.t.t.8.8.8.8.8.8.8.8.8.8.8.8.8.8.8.8.8.8.8.8.8.8.8.8.8.8.8.8.8.8.8.8.8.8.8.8.8.8.8.8.8.8.8.8.8.8.8.8.8.8.t.p.! c - ",
"- c ! j.j.^ x X X u Y } [ ' ) @.>.9.9.8.8.8.8.8.8.8.8.8.8.8.8.8.8.8.8.8.8.8.8.8.8.8.8.8.8.8.8.8.8.8.8.8.8.8.8.8.8.8.8.8.8.8.8.8.8.8.8.8.8.t.p.! x - ",
"- c ! j.j.^ x X X u Y } } [ [ &.>.9.9.8.8.8.8.9.t.t.9.8.8.8.8.8.8.8.8.8.8.8.8.8.8.8.8.8.8.8.8.9.t.t.9.8.8.8.8.8.8.8.8.8.8.8.8.8.8.8.8.8.8.t.p.! x - ",
"- c ! j.j.^ k X X 7 u n B n n H @.t.t.8.8.8.8.9.t.t.9.8.8.8.8.8.8.8.8.8.8.8.8.8.8.8.8.8.8.8.8.9.t.t.9.8.8.8.8.8.8.8.8.8.8.8.8.8.8.8.8.8.8.t.p.! x - ",
"- c ! g.g.@.H n n B n u 7 X X k ^ p.t.8.8.t.t.1. . .1.t.t.8.8.8.8.8.8.8.8.8.8.8.8.8.8.8.8.9.t.>. .X.1.t.t.8.8.8.8.8.8.8.8.8.8.8.8.8.8.8.8.t.p.! x - ",
"- c ! p.p.>.&.[ [ } } Y u X X x ^ p.t.8.8.t.g.@.A A @.g.t.8.8.8.8.8.8.8.8.8.8.8.8.8.8.8.8.t.g.@.A A @.g.t.8.8.8.8.8.8.8.8.8.8.8.8.8.8.8.8.t.p.Q x - ",
"- c Q p.p.>.@.) ) [ } Y u X X x ^ p.t.9.t.3.&.L q q L &.3.t.t.8.8.8.8.8.8.8.8.8.8.8.8.9.t.3.&.L q q L &.3.t.9.8.8.8.8.8.8.8.8.8.8.8.8.8.8.t.p.Q x - ",
"- c Q g.g.X.A f k c n u 7 X X k ^ p.t.t.g.&.H w 5 5 w H &.g.t.8.8.8.8.8.8.8.8.8.8.8.8.t.g.;.H r 5 5 w H &.g.t.8.8.8.8.8.8.8.8.8.8.8.8.8.8.t.p.Q x - ",
"- x Q g.g. .V p a k x c n x k S @.p.g.3.&.I r @ ; < - r I &.3.t.9.8.8.8.8.8.8.8.8.t.t.3.&.I r - ; < @ r I &.3.t.t.8.8.8.8.8.8.8.8.8.8.8.8.t.p.Q x - ",
"- c Q p.t.>. .R Q ^ ) ' ) ^ ^ @.>.p.j.&.H r 7 ; < < ; 7 r H &.g.t.8.8.8.8.8.8.8.8.t.g.&.H r 7 ; < < ; 7 r H &.g.t.8.8.8.8.8.8.8.8.8.8.8.8.t.p.! c - ",
"- c Q p.t.9.t.g.j.6.&.&.6.j.g.p.t.3.&.P r @ ; 3 3 3 3 ; - t I &.3.9.9.8.8.8.8.9.9.3.&.I r @ ; 3 3 3 3 ; @ r I &.3.9.9.8.8.8.8.8.8.8.8.8.8.t.p.! c - ",
"- c ! p.t.9.t.g.z.&.S S &.z.g.p.p.@.G r 7 ; < 3 3 3 3 < ; 7 t G @.t.t.8.8.8.8.t.t.@.G t 7 ; < 3 3 3 3 < ; 7 t G @.t.t.8.8.8.8.8.8.8.8.8.8.t.p.! c - ",
"- c Q p.t.9.t.3.&.L q q L ;.3.g.g.! f X - 3 3 3 3 3 3 3 3 - X f ! p.t.8.8.8.8.t.p.! f X - 3 3 3 3 3 3 3 3 - X f ^ p.t.8.8.8.8.8.8.8.8.8.8.t.p.! c - ",
"- c ! p.t.t.g.&.H w 5 5 r H ;.z.j.^ f X - 3 3 3 3 3 3 3 3 - X f ! p.t.8.8.8.8.t.p.! f X - 3 3 3 3 3 3 3 3 - X f ^ p.t.8.8.8.8.8.8.8.8.8.8.t.p.! c - ",
"- c ! g.y.3.&.I r @ < < - t I ;.6.@.H t 7 - ; < < < < ; - 7 r G @.t.t.8.8.8.8.t.t.@.G r 7 - ; < < < < ; - 7 t G @.t.t.8.8.8.8.8.8.8.8.8.8.t.p.! c - ",
"- c Q g.g.@.G r 7 ; < < ; 7 t H @.6.;.I r X - ; < < ; - X r I &.3.9.9.8.8.8.8.9.9.3.&.I t @ - ; < < ; - @ t I &.3.9.9.8.8.8.8.8.8.8.8.8.8.t.p.! c - ",
"- c Q j.j.! f . @ < < < < @ . f ! j.z.&.G x n i 9 9 i n x G &.g.t.8.8.8.8.8.8.8.8.t.g.&.G x n i 9 9 i n x G &.g.t.8.8.8.8.8.8.8.8.8.8.8.8.t.p.! c - ",
"- c Q j.j.^ f . X ; < < < X . f ^ g.g.3.@.' } T u u T } ' @.3.t.9.8.8.8.8.8.8.8.8.9.t.3.@.' } Y u u Y } ' @.3.t.9.8.8.8.8.8.8.8.8.8.8.8.8.t.p.! x - ",
"- c Q g.g.@.S x n i 9 9 i n x S @.t.t.t.p.6.;.P w w P ;.6.p.t.8.8.8.8.8.8.8.8.8.8.8.8.t.p.6.;.P w w P ;.6.p.t.8.8.8.8.8.8.8.8.8.8.8.8.8.8.t.p.! x - ",
"- c Q p.p.>.o.' } T u u T } ' o.>.9.9.t.g.@.S q 4 4 q S @.g.t.8.8.8.8.8.8.8.8.8.8.8.8.t.g.@.S q 4 4 q S @.g.t.8.8.8.8.8.8.8.8.8.8.8.8.8.8.t.p.! x - ",
"- x Q p.t.t.p.6.;.P w w P ;.6.p.t.8.8.t.t. .V a k k a V  .t.t.8.8.8.8.8.8.8.8.8.8.8.8.t.t. .V a k k a V  .t.t.8.8.8.8.8.8.8.8.8.8.8.8.8.8.t.p.! x - ",
"- c Q p.t.t.g.@.G q 4 4 q S @.g.t.8.8.9.9.>. .Q ^ ^ Q  .>.9.9.8.8.8.8.8.8.8.8.8.8.8.8.9.9.>. .Q ^ ^ Q  .>.9.9.8.8.8.8.8.8.8.8.8.8.8.8.8.8.t.p.Q x - ",
"- c Q p.t.t.t. .V a k k a V  .t.t.8.8.8.8.9.t.p.p.p.p.t.9.8.8.8.8.8.8.8.8.8.8.8.8.8.8.8.8.9.t.p.p.p.p.t.9.8.8.8.8.8.8.8.8.8.8.8.8.8.8.8.8.t.p.Q x - ",
"- c Q p.t.9.9.>. .Q ^ ^ Q  .>.9.8.8.8.8.8.9.t.t.t.t.t.t.9.8.8.8.8.8.8.8.8.8.8.8.8.8.8.8.8.9.t.t.t.t.t.t.9.8.8.8.8.8.8.8.8.8.8.8.8.8.8.8.8.t.p.Q x - ",
"- c Q p.t.8.8.9.t.p.p.p.p.t.9.8.8.8.8.8.8.8.8.8.8.8.8.8.8.8.8.8.8.8.8.8.8.8.8.8.8.8.8.8.8.8.8.8.8.8.8.8.8.8.8.8.8.8.8.8.8.8.8.8.8.8.8.8.8.t.p.Q x - ",
"- c ! p.t.8.8.9.t.t.t.t.t.t.9.8.8.8.8.8.8.8.8.8.8.8.8.8.8.8.8.8.8.8.8.8.8.8.8.8.8.8.8.8.8.8.8.8.8.8.8.8.8.8.8.8.8.8.8.8.8.8.8.8.8.8.8.8.8.t.p.! c - ",
"- c ! p.t.8.8.8.8.8.8.8.8.8.8.8.8.8.8.8.8.8.8.8.8.8.8.8.8.8.8.8.8.8.8.8.8.8.8.8.8.8.8.8.8.8.8.8.8.8.8.8.8.8.8.8.8.8.8.8.8.8.8.8.8.8.8.8.8.t.p.! c - ",
"- c ! p.t.8.8.8.8.8.8.8.8.8.8.8.8.8.8.8.8.8.8.8.8.8.8.8.8.8.8.8.8.8.8.8.8.8.8.8.8.8.8.8.8.8.8.8.8.8.8.8.8.8.8.8.8.8.8.8.8.8.8.8.8.8.8.8.8.t.p.! c - ",
"- c ! p.t.8.8.8.8.8.8.8.8.8.8.8.8.8.8.8.8.8.8.8.8.8.8.8.8.8.8.8.8.8.8.8.8.8.8.8.8.8.8.8.8.8.8.8.8.8.8.8.8.8.8.8.8.8.8.8.8.8.8.8.8.8.8.8.8.t.p.! c - ",
"- c Q p.t.8.8.8.8.8.8.8.8.8.8.8.8.8.8.8.8.8.8.8.8.8.8.8.8.8.8.8.8.8.8.8.8.8.8.8.8.8.8.8.8.8.8.8.8.8.8.8.8.8.8.8.8.8.8.8.8.8.8.8.8.8.8.8.8.t.p.! c - ",
"- c Q p.t.8.8.8.8.8.8.8.8.8.8.8.8.8.8.8.8.8.8.8.8.8.8.8.8.8.8.8.8.8.8.8.8.8.8.8.8.8.8.8.8.8.8.8.8.8.8.8.8.8.8.8.8.8.8.8.8.8.8.8.8.8.8.8.8.t.p.! c - ",
"- c Q p.t.8.8.8.8.8.8.8.8.8.8.8.8.8.8.8.8.8.8.8.8.8.8.8.8.8.8.8.8.8.8.8.8.8.8.8.8.8.8.8.8.8.8.8.8.8.8.8.8.8.8.8.8.8.8.8.8.8.8.8.8.8.8.8.8.t.p.! c - ",
"- x Q p.t.8.8.8.8.8.8.8.8.8.8.8.8.8.8.8.8.8.8.8.8.8.8.8.8.8.8.8.8.8.8.8.8.8.8.8.8.8.8.8.8.8.8.8.8.8.8.8.8.8.8.8.8.8.8.8.8.8.8.8.8.8.8.8.8.t.p.! c - ",
"- c Q p.t.8.8.8.8.8.8.8.8.8.8.8.8.8.8.8.8.8.8.8.8.8.8.8.8.8.8.8.8.8.8.8.8.8.8.8.8.8.8.8.8.8.8.8.8.8.8.8.8.8.8.8.8.8.8.8.8.8.8.8.8.8.8.8.8.t.p.! x - ",
"- c Q p.t.8.8.8.8.8.8.8.8.8.8.8.8.8.8.8.8.8.8.8.8.8.8.8.8.8.8.8.8.8.8.9.t.t.9.8.8.8.8.8.8.8.8.8.8.8.8.8.8.8.8.8.8.8.8.8.8.8.8.8.8.8.8.8.8.t.p.! x - ",
"- c Q p.t.8.8.8.8.8.8.8.8.8.8.8.8.8.8.8.8.8.8.8.8.8.8.8.8.8.8.8.8.8.8.9.t.t.9.8.8.8.8.8.8.8.8.8.8.8.8.8.8.8.8.8.8.8.8.8.8.8.8.8.8.8.8.8.8.t.p.! x - ",
"- c Q p.t.8.8.8.8.8.8.8.8.8.8.8.8.8.8.8.8.8.8.8.8.8.8.8.8.8.8.8.8.t.t.1.X.X.>.t.t.8.8.8.8.8.8.8.8.8.8.8.8.8.8.8.8.8.8.8.8.8.8.8.8.8.8.8.8.t.p.! x - ",
"- c ! p.t.8.8.8.8.8.8.8.8.8.8.8.8.8.8.8.8.8.8.8.8.8.8.8.8.8.8.8.8.t.g.@.A A @.g.t.8.8.8.8.8.8.8.8.8.8.8.8.8.8.8.8.8.8.8.8.8.8.8.8.8.8.8.8.t.p.Q x - ",
"- c ! p.t.8.8.8.8.8.8.8.8.8.8.8.8.8.8.8.8.8.8.8.8.8.8.8.8.8.8.9.t.3.;.L q q L &.3.t.9.8.8.8.8.8.8.8.8.8.8.8.8.8.8.8.8.8.8.8.8.8.8.8.8.8.8.t.p.Q x - ",
"- c ! p.t.8.8.8.8.8.8.8.8.8.8.8.8.8.8.8.8.8.8.8.8.8.8.8.8.8.8.t.g.&.H w 5 5 w H &.g.t.8.8.8.8.8.8.8.8.8.8.8.8.8.8.8.8.8.8.8.8.8.8.8.8.8.8.t.p.Q x - ",
"- c ! p.t.8.8.8.8.8.8.8.8.8.8.8.8.8.8.8.8.8.8.8.8.8.8.8.8.9.t.3.&.I r @ < ; @ r I &.3.t.t.8.8.8.8.8.8.8.8.8.8.8.8.8.8.8.8.8.8.8.8.8.8.8.8.t.p.Q x - ",
"- c Q p.t.8.8.8.8.8.8.8.8.8.8.8.8.8.8.8.8.8.8.8.8.8.8.8.8.t.g.&.H r 7 ; < < < 7 r H &.g.t.8.8.8.8.8.8.8.8.8.8.8.8.8.8.8.8.8.8.8.8.8.8.8.8.t.p.! c - ",
"- c Q p.t.8.8.8.8.8.8.8.8.8.8.8.8.8.8.8.8.8.8.8.8.8.8.9.9.3.&.I r - ; 3 3 3 3 ; @ r I &.3.9.9.8.8.8.8.8.8.8.8.8.8.8.8.8.8.8.8.8.8.8.8.8.8.t.p.! c - ",
"- c Q p.t.8.8.8.8.8.8.8.8.8.8.8.8.8.8.8.8.8.8.8.8.8.8.t.t.@.G r 7 ; < 3 3 3 3 < ; 7 r G @.t.t.8.8.8.8.8.8.8.8.8.8.8.8.8.8.8.8.8.8.8.8.8.8.t.p.! c - ",
"- x Q p.t.8.8.8.8.8.8.8.8.8.8.8.8.8.8.8.8.8.8.8.8.8.8.t.p.! f X - 3 3 3 3 3 3 3 3 - X f ! p.t.8.8.8.8.8.8.8.8.8.8.8.8.8.8.8.8.8.8.8.8.8.8.t.p.! c - ",
"- c Q p.t.8.8.8.8.8.8.8.8.8.8.8.8.8.8.8.8.8.8.8.8.8.8.t.p.^ f X - 3 3 3 3 3 3 3 3 - X f ^ p.t.8.8.8.8.8.8.8.8.8.8.8.8.8.8.8.8.8.8.8.8.8.8.t.p.! c - ",
"- c Q p.t.8.8.8.8.8.8.8.8.8.8.8.8.8.8.8.8.8.8.8.8.8.8.t.t.@.G r 7 - - < < < < ; - 7 t G @.t.t.8.8.8.8.8.8.8.8.8.8.8.8.8.8.8.8.8.8.8.8.8.8.t.p.! c - ",
"- c Q p.t.8.8.8.8.8.8.8.8.8.8.8.8.8.8.8.8.8.8.8.8.8.8.9.9.3.&.I t X @ ; < < ; - X t I &.3.9.9.8.8.8.8.8.8.8.8.8.8.8.8.8.8.8.8.8.8.8.8.8.8.t.p.! c - ",
"- c Q p.t.8.8.8.8.8.8.8.8.8.8.8.8.8.8.8.8.8.8.8.8.8.8.8.8.t.g.&.G x n i 9 9 i n x G &.g.t.8.8.8.8.8.8.8.8.8.8.8.8.8.8.8.8.8.8.8.8.8.8.8.8.t.p.! c - ",
"- c ! p.t.8.8.8.8.8.8.8.8.8.8.8.8.8.8.8.8.8.8.8.8.8.8.8.8.9.t.3.@.' } T u u T } ' @.3.t.9.8.8.8.8.8.8.8.8.8.8.8.8.8.8.8.8.8.8.8.8.8.8.8.8.t.p.! c - ",
"- c ! p.t.8.8.8.8.8.8.8.8.8.8.8.8.8.8.8.8.8.8.8.8.8.8.8.8.8.8.t.p.6.;.P w w P ;.6.p.t.8.8.8.8.8.8.8.8.8.8.8.8.8.8.8.8.8.8.8.8.8.8.8.8.8.8.t.p.! c - ",
"- c ! p.t.8.8.8.8.8.8.8.8.8.8.8.8.8.8.8.8.8.8.8.8.8.8.8.8.8.8.t.g.@.G q 4 4 q G @.g.t.8.8.8.8.8.8.8.8.8.8.8.8.8.8.8.8.8.8.8.8.8.8.8.8.8.8.t.p.! c - ",
"- c ! p.t.8.8.8.8.8.8.8.8.8.8.8.8.8.8.8.8.8.8.8.8.8.8.8.8.8.8.t.t. .V a k k a V  .t.t.8.8.8.8.8.8.8.8.8.8.8.8.8.8.8.8.8.8.8.8.8.8.8.8.8.8.t.p.! c - ",
"- c Q p.t.8.8.8.8.8.8.8.8.8.8.8.8.8.8.8.8.8.8.8.8.8.8.8.8.8.8.9.9.>. .Q ^ ^ Q  .>.9.9.8.8.8.8.8.8.8.8.8.8.8.8.8.8.8.8.8.8.8.8.8.8.8.8.8.8.t.p.Q c - ",
"- c Q p.t.8.8.8.8.8.8.8.8.8.8.8.8.8.8.8.8.8.8.8.8.8.8.8.8.8.8.8.8.9.t.p.p.p.p.t.9.8.8.8.8.8.8.8.8.8.8.8.8.8.8.8.8.8.8.8.8.8.8.8.8.8.8.8.8.t.p.Q c - ",
"- c Q p.t.8.8.8.8.8.8.8.8.8.8.8.8.8.8.8.8.8.8.8.8.8.8.8.8.8.8.8.8.9.t.t.t.t.t.t.9.8.8.8.8.8.8.8.8.8.8.8.8.8.8.8.8.8.8.8.8.8.8.8.8.8.8.8.8.t.p.Q x - ",
"- x Q p.t.8.8.8.8.8.8.8.8.8.8.8.8.8.8.8.8.8.8.8.8.8.8.8.8.8.8.8.8.8.8.8.8.8.8.8.8.8.8.8.8.8.8.8.8.8.8.8.8.8.8.8.8.8.8.8.8.8.8.8.8.8.8.8.8.t.p.Q x - ",
"- c Q p.t.8.8.8.8.8.8.8.8.8.8.8.8.8.8.8.8.8.8.8.8.8.8.8.8.8.8.8.8.8.8.8.8.8.8.8.8.8.8.8.8.8.8.8.8.8.8.8.8.8.8.8.8.8.8.8.8.8.8.8.8.8.8.8.8.t.p.! x - ",
"- c Q p.t.8.8.8.8.8.8.8.8.8.8.8.8.8.8.8.8.8.8.8.8.8.8.8.8.8.8.8.8.8.8.8.8.8.8.8.8.8.8.8.8.8.8.8.8.8.8.8.8.8.8.8.8.8.8.8.8.8.8.8.8.8.8.8.8.t.p.! x - ",
"- c Q p.t.8.8.8.8.8.8.8.8.8.8.8.8.8.8.8.8.8.8.8.8.8.8.8.8.8.8.8.8.8.8.8.8.8.8.8.8.8.8.8.8.8.8.8.8.8.8.8.8.8.8.8.8.8.8.8.8.8.8.8.8.8.8.8.8.t.p.! x - ",
"- c Q p.t.8.8.8.8.8.8.8.8.8.8.8.8.8.8.8.8.8.8.8.8.8.8.8.8.8.8.8.8.8.8.8.8.8.8.8.8.8.8.8.8.8.8.8.8.8.8.8.8.8.8.8.8.8.8.8.8.8.8.8.8.8.8.8.8.t.p.! x - ",
"- c ! p.t.8.8.8.8.8.8.8.8.8.8.8.8.8.8.8.8.8.8.8.8.8.8.8.8.8.8.8.8.8.8.8.8.8.8.8.8.8.8.8.8.8.8.8.8.8.8.8.8.8.8.8.8.8.8.8.8.8.8.8.8.8.8.8.8.t.p.! c - ",
"- c ! p.t.8.8.8.8.8.8.8.8.8.8.8.8.8.8.8.8.8.8.8.8.8.8.8.8.8.8.8.8.8.8.8.8.8.8.8.8.8.8.8.8.8.8.8.8.8.8.8.8.8.8.8.8.8.8.8.8.8.8.8.8.8.8.8.8.t.p.! x - ",
"- c ! p.t.8.8.8.8.8.8.8.8.8.8.8.8.8.8.8.8.8.8.8.8.8.8.8.8.8.8.8.8.8.8.8.8.8.8.8.8.8.8.8.8.8.8.8.8.8.8.8.8.8.8.8.8.8.8.8.8.8.8.8.8.8.8.8.8.t.p.! x - ",
"- c ! p.t.8.8.8.8.8.8.8.8.8.8.8.8.8.8.8.8.8.8.8.8.8.8.8.8.8.8.8.8.8.8.8.8.8.8.8.8.8.8.8.8.8.8.8.8.8.8.8.8.8.8.8.8.8.8.9.t.t.t.t.t.t.9.8.8.t.p.! x - ",
"- c Q p.t.8.8.8.8.8.8.8.8.8.8.8.8.8.8.8.8.8.8.8.8.8.8.8.8.8.8.8.8.8.8.8.8.8.8.8.8.8.8.8.8.8.8.8.8.8.8.8.8.8.8.8.8.8.8.9.t.p.p.p.p.t.9.8.8.t.p.! c - ",
"- c Q p.t.8.8.8.8.8.8.8.8.8.8.8.8.8.8.8.8.9.t.t.t.t.t.t.9.8.8.8.8.8.8.8.8.8.8.8.8.8.8.8.8.9.t.t.t.t.t.t.9.8.8.8.8.9.9.>. .Q ^ ^ Q  .>.9.9.t.p.! c - ",
"- c Q p.t.8.8.8.8.8.8.8.8.8.8.8.8.8.8.8.8.9.t.p.p.p.p.t.9.8.8.8.8.8.8.8.8.8.8.8.8.8.8.8.8.9.t.p.p.p.p.t.9.8.8.8.8.t.t. .V a k k a V  .t.t.t.p.Q c - ",
"- x Q p.t.8.8.8.8.8.8.8.8.8.8.8.8.8.8.9.9.>. .Q ^ ^ Q  .>.9.9.8.8.8.8.8.8.8.8.8.8.8.8.9.9.>. .Q ^ ^ Q  .>.9.9.8.8.t.g.@.G q 4 4 q S @.g.t.t.p.Q c - ",
"- c Q p.t.8.8.8.8.8.8.8.8.8.8.8.8.8.8.t.t. .V a k k a V  .t.t.8.8.8.8.8.8.8.8.8.8.8.8.t.t. .V a k k a V  .t.t.8.8.t.p.6.;.P w w P ;.6.p.t.t.p.Q c - ",
"- c Q p.t.8.8.8.8.8.8.8.8.8.8.8.8.8.8.t.g.@.S q 4 4 q S @.g.t.8.8.8.8.8.8.8.8.8.8.8.8.t.g.@.S q 4 4 q S @.g.t.9.9.>.o.' } Y u u T } ' @.>.p.g.Q c - ",
"- c Q p.t.8.8.8.8.8.8.8.8.8.8.8.8.8.8.t.p.6.;.P w w P ;.6.p.t.8.8.8.8.8.8.8.8.8.8.8.8.t.p.6.;.P w w P ;.6.p.t.t.t.@.S x n i 9 9 i n x S @.g.g.! c - ",
"- c Q p.t.8.8.8.8.8.8.8.8.8.8.8.8.9.t.3.@.' } T u u Y } ' @.3.t.9.8.8.8.8.8.8.8.8.9.t.3.@.' } Y u u Y } ' @.3.g.g.^ f . X ; < < ; X . f ^ j.j.! c - ",
"- c ! p.t.8.8.8.8.8.8.8.8.8.8.8.8.t.g.&.G x n i 9 9 i n x G &.g.t.8.8.8.8.8.8.8.8.t.g.&.G x n i 9 9 i n x G &.z.j.! f . @ < < < < @ . f ! j.j.Q x - ",
"- c ! p.t.8.8.8.8.8.8.8.8.8.8.9.9.3.&.I t X - ; < < ; - @ t I &.3.9.9.8.8.8.8.9.9.3.&.I t X - ; < < ; - X t I ;.6.@.H t 7 ; < < ; 7 r G @.g.g.! x - ",
"- c ! p.t.8.8.8.8.8.8.8.8.8.8.t.t.@.G r 7 - ; < < < < ; - 7 r G @.t.t.8.8.8.8.t.t.@.G r 7 - ; < < < < ; - 7 t H @.6.;.I r - < < @ r I &.3.p.p.! x - ",
"- c ! p.t.8.8.8.8.8.8.8.8.8.8.t.p.^ f X - 3 3 3 3 3 3 3 3 - X f ! p.t.8.8.8.8.t.p.! f X - 3 3 3 3 3 3 3 3 - X f ! j.z.&.H w 5 5 r H &.g.t.t.p.! x - ",
"- c Q p.t.8.8.8.8.8.8.8.8.8.8.t.p.! f X - 3 3 3 3 3 3 3 3 - X f ^ p.t.8.8.8.8.t.p.! f X - 3 3 3 3 3 3 3 3 - X f ^ g.g.3.&.L q q L &.3.t.9.t.p.! x - ",
"- c Q p.t.8.8.8.8.8.8.8.8.8.8.t.t.@.G r 7 ; < 3 3 3 3 < ; 7 t G @.t.t.8.8.8.8.t.t.@.G r 7 ; < 3 3 3 3 < ; 7 r G @.p.p.g.z.&.S S &.z.g.t.8.t.p.! c - ",
"- c Q p.t.8.8.8.8.8.8.8.8.8.8.9.9.3.&.I r @ ; 3 3 3 3 ; @ r I &.3.9.9.8.8.8.8.9.9.3.&.I r @ ; 3 3 3 3 ; @ r P &.3.t.p.g.j.6.&.&.6.j.g.t.9.t.p.Q x - ",
"- x Q p.t.8.8.8.8.8.8.8.8.8.8.8.8.t.g.&.H r 7 ; < < ; 7 r H &.g.t.8.8.8.8.8.8.8.8.t.g.&.H r 7 ; < < < 7 r H &.j.p.>.o.^ ^ ) ' ) ^ Q Q  .>.y.p.Q x - ",
"- c Q p.t.8.8.8.8.8.8.8.8.8.8.8.8.t.t.3.&.I r - ; < @ r P &.3.t.t.8.8.8.8.8.8.8.8.t.t.3.&.I r - ; < @ r P &.3.g.p.@.S k x n c x k a p V  .g.g.! x - ",
"- c Q p.t.8.8.8.8.8.8.8.8.8.8.8.8.8.8.t.g.&.H r 5 5 w H &.g.t.8.8.8.8.8.8.8.8.8.8.8.8.t.g.&.H r 5 5 w H &.g.t.t.p.^ k X X 7 u n c k f A X.g.g.! c - ",
"- c Q p.t.8.8.8.8.8.8.8.8.8.8.8.8.8.8.9.t.3.&.L q q L &.3.t.9.8.8.8.8.8.8.8.8.8.8.8.8.9.t.3.;.L q q L &.3.t.9.t.p.^ x X X u Y } [ ) ) @.>.p.g.! x - ",
"- c Q p.t.8.8.8.8.8.8.8.8.8.8.8.8.8.8.8.8.t.g.@.A A @.g.t.8.8.8.8.8.8.8.8.8.8.8.8.8.8.8.8.t.g.@.A A @.g.t.8.8.t.p.^ x X X u Y } } [ [ &.>.p.g.! c - ",
"- c ! p.t.8.8.8.8.8.8.8.8.8.8.8.8.8.8.8.8.9.t.1.X.X.1.t.t.8.8.8.8.8.8.8.8.8.8.8.8.8.8.8.8.9.t.1.X.X.>.t.9.8.8.t.p.^ k X X 7 u n B n n H @.g.g.! x - ",
"- c ! p.t.8.8.8.8.8.8.8.8.8.8.8.8.8.8.8.8.8.8.9.t.t.9.8.8.8.8.8.8.8.8.8.8.8.8.8.8.8.8.8.8.8.8.9.t.t.9.8.8.8.8.t.t.@.H n n B n u 7 X X k ^ j.j.! c - ",
"- c ! p.t.8.8.8.8.8.8.8.8.8.8.8.8.8.8.8.8.8.8.9.t.t.9.8.8.8.8.8.8.8.8.8.8.8.8.8.8.8.8.8.8.8.8.9.t.t.9.8.8.8.8.9.9.>.&.[ [ } } Y u X X x ^ j.j.! x - ",
"- c ! p.t.8.8.8.8.8.8.8.8.8.8.8.8.8.8.8.8.8.8.8.8.8.8.8.8.8.8.8.8.8.8.8.8.8.8.8.8.8.8.8.8.8.8.8.8.8.8.8.8.8.8.9.9.>.@.) ) [ } Y u X X x ^ j.j.Q c - ",
"- c Q p.t.8.8.8.8.8.8.8.8.8.8.8.8.8.8.8.8.8.8.8.8.8.8.8.8.8.8.8.8.8.8.8.8.8.8.8.8.8.8.8.8.8.8.8.8.8.8.8.8.8.8.t.t.X.A f k n n u 7 X X k ^ j.j.! c - ",
"- n ) g.t.8.8.8.8.8.8.8.8.8.8.8.8.8.8.8.8.8.8.8.8.8.8.8.8.8.8.8.8.8.8.8.8.8.8.8.8.8.8.8.8.8.8.8.8.8.8.8.8.8.8.t.t. .V p a g g k c x k S o.g.z.) n - ",
"- n ' j.y.8.8.8.8.8.8.8.8.8.8.8.8.8.8.8.8.8.8.8.8.8.8.8.8.8.8.8.8.8.8.8.8.8.8.8.8.8.8.8.8.8.8.8.8.8.8.8.8.8.8.9.9.>. .Q Q Q Q Q ^ ) ^ @.>.p.z.' n - ",
"- u L &.3.y.t.t.t.t.t.t.t.t.t.t.t.t.t.t.t.t.t.t.t.t.t.t.t.t.t.t.t.t.t.t.t.t.t.t.t.t.t.t.t.t.t.t.t.t.t.t.t.t.t.t.t.p.g.j.j.j.j.j.j.j.j.j.p.3.&.L u - ",
"< 8 r H &.j.g.p.p.p.p.p.p.p.p.p.p.p.p.p.p.p.p.p.p.p.p.p.p.p.p.p.p.p.p.p.p.p.p.p.p.p.p.p.p.p.p.p.p.p.p.p.p.p.p.p.p.g.g.j.j.j.j.j.j.j.j.z.z.&.H r 8 < ",
"3 - @ r L ' ) ! Q Q Q Q ! ! ! ! Q ! Q Q Q Q ! ! ! ! ! Q Q Q Q ! ! ! ! Q Q Q Q ! Q Q Q Q ! ! ! ! Q ! Q Q Q Q ! ! ! ! Q Q Q Q ! ! ! ! ! ) ' L r @ - 3 ",
"    - 8 u n n c x c c c c c c c c c c c x x c c c c c c x c c c c c c c x c c c x c c c c c c c c c c c x x c c c c c c x c c c c c c n n u 8 -     ",
"    3 < - - - - - - - - - - - - - - - - - - - - - - - - - - - - - - - - - - - - - - - - - - - - - - - - - - - - - - - - - - - - - - - - - - < 3     "
};
