/* XPM */
static char *num0[] = {
/* columns rows colors chars-per-pixel */
"20 20 139 2 ",
"   c #2B2D32",
".  c #2A2D33",
"X  c #2A2D34",
"o  c #2B2D34",
"O  c #2B2D35",
"+  c #2B2E34",
"@  c #2C2D34",
"#  c #2C2D35",
"$  c #2D2E35",
"%  c #2E2F36",
"&  c #2D3134",
"*  c #2D3135",
"=  c #2E3034",
"-  c #2E3035",
";  c #2E3235",
":  c #2C3136",
">  c #2E3036",
",  c #2F3136",
"<  c #2F3137",
"1  c #2D3236",
"2  c #2E3236",
"3  c #2F3236",
"4  c #2E3237",
"5  c #2F3237",
"6  c #2E3337",
"7  c #2F3337",
"8  c #2D3138",
"9  c #2E3038",
"0  c #2E3138",
"q  c #2F3138",
"w  c #2E3139",
"e  c #2D3238",
"r  c #2E3238",
"t  c #2F3238",
"y  c #2F3338",
"u  c #2E3239",
"i  c #2F3239",
"p  c #2F3339",
"a  c #2F333A",
"s  c #303135",
"d  c #303235",
"f  c #303236",
"g  c #303237",
"h  c #303337",
"j  c #323337",
"k  c #303139",
"l  c #303238",
"z  c #303338",
"x  c #303239",
"c  c #313339",
"v  c #30313A",
"b  c #30323A",
"n  c #313438",
"m  c #313538",
"M  c #313439",
"N  c #333538",
"B  c #323439",
"V  c #30343A",
"C  c #31343A",
"Z  c #31353A",
"A  c #31343B",
"S  c #33363B",
"D  c #31343C",
"F  c #32353C",
"G  c #35383C",
"H  c #36393D",
"J  c #35383E",
"K  c #35393E",
"L  c #35393F",
"P  c #36393E",
"I  c #37393F",
"U  c #363A3F",
"Y  c #363940",
"T  c #373940",
"R  c #373941",
"E  c #3A3B42",
"W  c #393C41",
"Q  c #393C42",
"!  c #393C43",
"~  c #3A3D42",
"^  c #3A3C43",
"/  c #3A3D43",
"(  c #3A3C44",
")  c #45494C",
"_  c #45494D",
"`  c #454A4D",
"'  c #464A4D",
"]  c #4C4E51",
"[  c #4F5054",
"{  c #4E5055",
"}  c #515358",
"|  c #535559",
" . c #52565B",
".. c #717376",
"X. c #737476",
"o. c #747678",
"O. c #74777B",
"+. c #797A7C",
"@. c #797A7D",
"#. c #7B7D7E",
"$. c #7B7D7F",
"%. c #919395",
"&. c #939597",
"*. c #959698",
"=. c #9C9C9E",
"-. c #9FA0A2",
";. c #A0A1A2",
":. c #A1A2A3",
">. c #C0C1C1",
",. c #C1C1C2",
"<. c #C1C2C2",
"1. c #C2C3C4",
"2. c #CECFCF",
"3. c #CFCFCF",
"4. c #CECFD0",
"5. c #CFCFD0",
"6. c #D0D0D0",
"7. c #D0D1D1",
"8. c #D1D1D1",
"9. c #D0D1D2",
"0. c #D1D1D2",
"q. c #D5D6D6",
"w. c #D6D7D7",
"e. c #D8D8D9",
"r. c #E8E8E8",
"t. c #E8E9E9",
"y. c #E9EAEA",
"u. c #EAEAEA",
"i. c #EAEBEA",
"p. c #EBEBEA",
"a. c #EAEBEB",
"s. c #EBEBEB",
"d. c #EBECEB",
"f. c #F9F9F8",
"g. c #FAFAFA",
"h. c #FBFBFA",
"j. c #FCFCFB",
"k. c #FDFDFC",
"l. c #00FF00",
/* pixels */
"l.l.M 3 3 3 & & & 8 3 & 8 8 1 1 3 3 l.l.",
"l.l.n 3 G ` ) ) ) ) ` ` ) ) ` ~ 3 b l.l.",
"l.l.y 3 o.k.k.j.g.k.k.k.j.g.j.-.M M M p ",
"y s s 3 @.k.k.k.j.j.k.k.k.k.j.-.s y y y ",
"y y &.-.<.k.k.k.k.k.k.j.k.k.k.<.@.X.M p ",
"y J u.k.k.k.k.e.{  . .} e.j.k.j.j.d.T F ",
"y F u.k.k.k.k.9.X y 8 8 9.k.k.k.j.d.T y ",
"y Y u.k.k.k.k.0.X y y & 9.k.k.k.j.d.G y ",
"7 J s.k.k.k.j.0.X a b # 3.k.k.k.k.d.T 8 ",
"3 J u.j.k.k.j.0.X a 3 3 3.k.k.k.k.d.T y ",
"y J u.j.k.k.j.0.# y b # 3.k.k.k.j.d.Y y ",
"p J u.k.k.k.j.0.X b b # 3.k.k.k.j.a.G 8 ",
"p G y.j.k.k.k.0.# b b 9 3.k.k.k.k.d.T y ",
"p J a.k.k.k.k.0.@ b b s 3.k.k.k.k.d.T a ",
"p U a.j.j.j.k.e.] } } ] q.k.k.k.k.a.R a ",
"3 M X.#.<.k.k.j.j.j.k.k.k.k.k.<.$.O.b y ",
"& 7 n n =.j.k.k.k.k.k.j.j.k.k.:.b b a a ",
"l.l.3 3 %.u.a.s.a.a.a.y.a.a.d.*.y F l.l.",
"l.l.M 7 F T ~ ~ ! ! ! ! ! ! ! b y y l.l.",
"l.l.M p y y y 3 8 a y y y b b a 9 a l.l."
};
