/* XPM */
static char *num1[] = {
/* columns rows colors chars-per-pixel */
"20 20 98 2 ",
"   c #2D3135",
".  c #2E3135",
"X  c #2D3136",
"o  c #2D3236",
"O  c #2E3236",
"+  c #2F3236",
"@  c #2E3237",
"#  c #2F3237",
"$  c #2E3337",
"%  c #2F3337",
"&  c #2D3139",
"*  c #2D3238",
"=  c #2D3239",
"-  c #2E3238",
";  c #2E3338",
":  c #2F3338",
">  c #2E3239",
",  c #2E3339",
"<  c #2F3339",
"1  c #2E323A",
"2  c #2F323A",
"3  c #2E333A",
"4  c #2F333A",
"5  c #2F3438",
"6  c #2F3439",
"7  c #2F343A",
"8  c #303337",
"9  c #303338",
"0  c #303339",
"q  c #30333A",
"w  c #30333B",
"e  c #303438",
"r  c #313438",
"t  c #313439",
"y  c #323439",
"u  c #323539",
"i  c #30343A",
"p  c #31343A",
"a  c #30353A",
"s  c #31353A",
"d  c #31343B",
"f  c #30353B",
"g  c #31353B",
"h  c #32363A",
"j  c #33373B",
"k  c #34383E",
"l  c #35393E",
"z  c #373C41",
"x  c #373C42",
"c  c #383C41",
"v  c #393C41",
"b  c #383D41",
"n  c #393D41",
"m  c #383D42",
"M  c #393D42",
"N  c #383D43",
"B  c #3C4045",
"V  c #414448",
"C  c #46494D",
"Z  c #454A4D",
"A  c #464A4D",
"S  c #464A4E",
"D  c #484A4F",
"F  c #4B4E51",
"G  c #4B4E52",
"H  c #4F5256",
"J  c #4F5357",
"K  c #4F5258",
"L  c #4F5358",
"P  c #505357",
"I  c #515359",
"U  c #505458",
"Y  c #515458",
"T  c #515459",
"R  c #505559",
"E  c #52555B",
"W  c #54565A",
"Q  c #6B6F72",
"!  c #6D6F73",
"~  c #75777A",
"^  c #797B7F",
"/  c #848689",
"(  c #8E9093",
")  c #9EA0A2",
"_  c #9FA0A3",
"`  c #C6C7C9",
"'  c #C7C8C9",
"]  c #C7C8CA",
"[  c #C8C9CA",
"{  c #CECFD1",
"}  c #D1D2D3",
"|  c #D7D8D8",
" . c #EAEBEB",
".. c #EBEBEC",
"X. c #ECECED",
"o. c #ECEDED",
"O. c #FFFFFF",
"+. c #00FF00",
/* pixels */
"+.+.+.+.+.q X $ X X . X 8 r $ +.+.+.+.+.",
"+.+.+.+.+.< y D A A A A V X X +.+.+.+.+.",
"+.+.+.y y y E O.O.O.O.O.' , y +.+.+.+.+.",
"+.+.+.y q q K O.O.O.O.O.' , y +.+.+.+.+.",
"+.+.+.y W ^ ( O.O.O.O.O.[ $ y +.+.+.+.+.",
"+.+.+.X ) O.O.O.O.O.O.O.[ , , +.+.+.+.+.",
"+.+.+.X ) O.O.O.O.O.O.O.[ , y +.+.+.+.+.",
"+.+.+.< / { | O.O.O.O.O.[ , , +.+.+.+.+.",
"+.+.+.< < , J O.O.O.O.O.[ X , +.+.+.+.+.",
"+.+.+.< < < E O.O.O.O.O.[ < y +.+.+.+.+.",
"+.+.+.+.+.< J O.O.O.O.O.[ , , +.+.+.+.+.",
"+.+.+.+.+.< J O.O.O.O.O.[ , , +.+.+.+.+.",
"+.+.+.+.+., L O.O.O.O.O.[ , , +.+.+.+.+.",
"< X < y y y E O.O.O.O.O.[ y g y < < q < ",
"q y U P H H Q O.O.O.O.O.} L L E I E M < ",
"y F O.O.O.O.O.O.O.O.O.O.O.O.O.O.O.O.~ q ",
"r F O.O.O.O.O.O.O.O.O.O.O.O.O.O.O.O.~ g ",
"8 D ..o.o.o.o.o.o.o.o.o.o.o.X.X.X. .! w ",
"X X l x x z N N N x x z x x N N N g y 4 ",
"< < < < < < < < < < < < < & $ , X < 4 < "
};
