/* XPM */
static char *num2[] = {
/* columns rows colors chars-per-pixel */
"20 20 134 2 ",
"   c #2C2F32",
".  c #2C2E33",
"X  c #2C3134",
"o  c #2C3035",
"O  c #2C3135",
"+  c #2D3135",
"@  c #2F3235",
"#  c #2E3137",
"$  c #2D3236",
"%  c #2D3237",
"&  c #2F3236",
"*  c #2E3336",
"=  c #2F3336",
"-  c #2E3237",
";  c #2F3237",
":  c #2E3337",
">  c #2F3337",
",  c #2D3238",
"<  c #2E3238",
"1  c #2F3238",
"2  c #2E3338",
"3  c #2F3338",
"4  c #2E3239",
"5  c #2E3339",
"6  c #2F3339",
"7  c #2E333A",
"8  c #2F333A",
"9  c #2E3439",
"0  c #2F3439",
"q  c #2F343A",
"w  c #2F353A",
"e  c #2F343B",
"r  c #303236",
"t  c #303336",
"y  c #303237",
"u  c #303337",
"i  c #313337",
"p  c #323437",
"a  c #303338",
"s  c #303339",
"d  c #30333A",
"f  c #303438",
"g  c #313438",
"h  c #303439",
"j  c #323539",
"k  c #333639",
"l  c #30343A",
"z  c #31343A",
"x  c #30353A",
"c  c #31353A",
"v  c #30343B",
"b  c #30353B",
"n  c #31353B",
"m  c #31363B",
"M  c #32363B",
"N  c #343538",
"B  c #34373B",
"V  c #30343C",
"C  c #31343C",
"Z  c #31353C",
"A  c #31363C",
"S  c #33373D",
"D  c #33383E",
"F  c #3B3E42",
"G  c #3D4045",
"H  c #414549",
"J  c #43474B",
"K  c #43484B",
"L  c #44484B",
"P  c #45494C",
"I  c #44494D",
"U  c #45494D",
"Y  c #454A4D",
"T  c #454A4E",
"R  c #464B4E",
"E  c #464B50",
"W  c #474B50",
"Q  c #484B50",
"!  c #484D51",
"~  c #494D51",
"^  c #4A4D51",
"/  c #494E51",
"(  c #484D52",
")  c #494D52",
"_  c #494E52",
"`  c #4A4E52",
"'  c #4B4E52",
"]  c #4A4E53",
"[  c #4A4F53",
"{  c #4B4F53",
"}  c #4E4F52",
"|  c #4D5052",
" . c #4E5053",
".. c #4E5155",
"X. c #4F5255",
"o. c #4F5357",
"O. c #4F5358",
"+. c #505254",
"@. c #515355",
"#. c #515456",
"$. c #515458",
"%. c #515559",
"&. c #525559",
"*. c #535659",
"=. c #545659",
"-. c #676A6C",
";. c #727579",
":. c #77797B",
">. c #787B7D",
",. c #787B7E",
"<. c #797B7E",
"1. c #94979A",
"2. c #9A9DA0",
"3. c #9B9DA0",
"4. c #9B9DA1",
"5. c #A7A9AC",
"6. c #BABDBF",
"7. c #BEC0C2",
"8. c #CACCCE",
"9. c #CACDCE",
"0. c #CBCDCF",
"q. c #CBCED0",
"w. c #CCCED0",
"e. c #CCCFD1",
"r. c #CDCFD1",
"t. c #D3D5D7",
"y. c #D4D6D8",
"u. c #E5E7E9",
"i. c #E6E8EA",
"p. c #E6E9EA",
"a. c #F0F2F3",
"s. c #F1F3F4",
"d. c #FCFEFF",
"f. c #00FF00",
/* pixels */
"f.f.= t = = X X X = = X X X X = t f.f.f.",
"f.f.2 2 J R R K K K K K K R K F = f.f.f.",
"f.f.M 2 q.d.d.d.d.d.d.d.d.d.d.4.2 s M M ",
"= = = = q.d.d.d.d.d.d.d.d.d.d.4.= = = = ",
"= J 9.9.s.d.d.d.d.d.d.d.d.d.d.i.q.6.2 0 ",
"= / d.d.d.d.d.y.*.*.=.| d.d.d.d.d.i.C 2 ",
"= / d.d.d.d.d.q.= 0 u   d.d.d.d.d.i.C e ",
"X J q.e.q.e.r.5.2 = =   d.d.d.d.d.p.C 2 ",
". 2 s 2 2 2 s t M = t . d.d.d.d.d.i.M 2 ",
"2 s 2 s s M F >.>.>.>.:.d.d.d.d.d.i.C M ",
"f.f.V 2 s V =.d.d.d.d.d.d.d.d.7.>.;.e e ",
"f.f.V 2 2 . #.d.d.d.d.d.d.d.d.3.s s V e ",
"f.f.C 2 0.d.d.d.d.d.s.a.a.a.a.1.2 2 e 2 ",
"2 t s s 0.d.d.d.d.d.} t u M t M , e e e ",
"= B *.} t.d.d.d.d.d.-.#.#.#.+.} ..O.F e ",
"= Q d.d.d.d.d.d.d.d.d.d.d.d.d.d.d.d.J e ",
"= Q d.d.d.d.d.d.d.d.d.d.d.d.d.d.d.d.W 2 ",
"= / d.d.d.d.d.d.d.d.d.d.d.d.d.d.d.d.W 2 ",
"2 C ] ] ( ] / / ] ( ( ] / ] / / / / M 2 ",
"2 2 2 C e 2 2 M 0 e e e 2 e C 0 M 2 2 2 "
};
