/* XPM */
static char *num3[] = {
/* columns rows colors chars-per-pixel */
"20 20 149 2 ",
"   c #292E34",
".  c #2A2F34",
"X  c #2B3034",
"o  c #2C3034",
"O  c #2D3135",
"+  c #2D3235",
"@  c #2D3136",
"#  c #2C3137",
"$  c #2D3236",
"%  c #2D3237",
"&  c #2E3236",
"*  c #2F3236",
"=  c #2E3237",
"-  c #2F3237",
";  c #2E3337",
":  c #2F3337",
">  c #2C3138",
",  c #2E3138",
"<  c #2D3238",
"1  c #2D3239",
"2  c #2E3238",
"3  c #2E3338",
"4  c #2F3338",
"5  c #2E3239",
"6  c #2F3239",
"7  c #2E3339",
"8  c #2F3339",
"9  c #2D313A",
"0  c #2D323A",
"q  c #2D323B",
"w  c #2E323A",
"e  c #2F323A",
"r  c #2E333A",
"t  c #2F333A",
"y  c #2F3438",
"u  c #2F3439",
"i  c #303236",
"p  c #303336",
"a  c #303338",
"s  c #303339",
"d  c #30333A",
"f  c #303438",
"g  c #313438",
"h  c #303439",
"j  c #313539",
"k  c #323438",
"l  c #323539",
"z  c #333539",
"x  c #30343A",
"c  c #31353A",
"v  c #30343B",
"b  c #32353B",
"n  c #33373B",
"m  c #34373B",
"M  c #30333C",
"N  c #31343C",
"B  c #31343D",
"V  c #34383C",
"C  c #353A41",
"Z  c #373B40",
"A  c #3A3D42",
"S  c #3E4146",
"D  c #434548",
"F  c #424549",
"G  c #434649",
"H  c #40444A",
"J  c #41454A",
"K  c #43464B",
"L  c #44474A",
"P  c #44474B",
"I  c #43464C",
"U  c #43474C",
"Y  c #44484C",
"T  c #45494D",
"R  c #454A4E",
"E  c #464A4E",
"W  c #464B4E",
"Q  c #494D51",
"!  c #4A4E51",
"~  c #484D53",
"^  c #4A4E52",
"/  c #4A4E53",
"(  c #4A4F53",
")  c #4A4E54",
"_  c #4A4F54",
"`  c #4B4F55",
"'  c #4B4F56",
"]  c #4F5155",
"[  c #4F5256",
"{  c #4F5359",
"}  c #505255",
"|  c #505257",
" . c #505458",
".. c #515459",
"X. c #51555A",
"o. c #51565C",
"O. c #52565C",
"+. c #53575D",
"@. c #66696D",
"#. c #666A6D",
"$. c #6B6E70",
"%. c #6A6D72",
"&. c #6B6F72",
"*. c #6D6E71",
"=. c #6C6F73",
"-. c #6D7073",
";. c #6E7176",
":. c #75797C",
">. c #76797D",
",. c #777A7D",
"<. c #787A7C",
"1. c #83868B",
"2. c #8A8C90",
"3. c #9D9FA2",
"4. c #9EA0A3",
"5. c #9FA0A3",
"6. c #9FA1A4",
"7. c #A3A6A9",
"8. c #A4A6AA",
"9. c #ADAEB1",
"0. c #B8BABD",
"q. c #C8C9CB",
"w. c #C9CACD",
"e. c #C9CBCD",
"r. c #C9CBCE",
"t. c #CACBCE",
"y. c #CBCCCF",
"u. c #CBCDCF",
"i. c #CCCDD0",
"p. c #CDCED0",
"a. c #CCCED1",
"s. c #CDCFD2",
"d. c #CED0D2",
"f. c #CED0D3",
"g. c #CFD0D3",
"h. c #CFD1D3",
"j. c #D5D7D9",
"k. c #D6D8DA",
"l. c #D9DADD",
"z. c #DBDCDE",
"x. c #E5E6E8",
"c. c #E5E6E9",
"v. c #EFF0F2",
"b. c #EFF0F3",
"n. c #F0F1F3",
"m. c #F0F1F4",
"M. c #F8F9FB",
"N. c #FBFCFE",
"B. c #00FF00",
/* pixels */
"B.B.p : u u 3 : X % X % : $ $ % : B.B.B.",
"B.B.3 3 S E E E E E Y Y T T R V : B.B.B.",
"B.B.3 : r.N.N.N.N.N.N.N.N.N.N.-.f f B.B.",
"3 : : X y.N.N.N.N.N.N.N.N.N.N.$.a f a a ",
"3 ;.4.6.c.N.N.N.N.N.N.N.N.N.N.l.i.t.U a ",
"a 8.N.N.N.&.X.o.O.O.+.{ k.N.N.N.N.N.U a ",
"a 8.N.N.N.] u 3 X u u X d.N.N.N.N.N.U d ",
"f 2.y.a.a.! f x.v.v.v.v.M.N.N.z.d.a.A > ",
"f 3 3 3 f f n m.N.N.N.N.N.N.N.-.p : 3 3 ",
"f f 3 f f f f b.N.N.N.N.N.N.N.4.<.<.Z 3 ",
"B f f 3 a 3 3 ` { { { o.k.N.N.N.N.N.U a ",
"f 3     :     3 r B B f d.N.N.N.N.N.U 3 ",
"f #.a.h.a.h.d.1.3 3 a 3 d.N.N.N.N.N.P 3 ",
"f >.N.N.N.N.N.6.: : a : d.N.N.N.N.N.F 3 ",
": :.N.N.N.N.N.9.} } { ] k.N.N.N.N.N.F 3 ",
"3 #.r.r.v.N.N.N.N.N.N.N.N.N.N.0.3.3.A 3 ",
"a p f z t.N.N.N.N.N.N.N.N.N.N.%.u B B 3 ",
"B.B.f f t.N.N.N.N.N.N.N.N.N.N.%.3 u B.B.",
"B.B.3 : F ! ! ! ` ~ ~ ` ` ` ` C 3 B.B.B.",
"B.B.u 3 3 3 : 3 3 3 3 3 3 3 q q q B.B.B."
};
