/* XPM */
static char *num4[] = {
/* columns rows colors chars-per-pixel */
"20 20 107 2 ",
"   c #2C3034",
".  c #2D3034",
"X  c #2C3135",
"o  c #2D3135",
"O  c #2E3134",
"+  c #2D3235",
"@  c #2E3235",
"#  c #2C3136",
"$  c #2D3136",
"%  c #2E3136",
"&  c #2E3137",
"*  c #2D3236",
"=  c #2C3237",
"-  c #2D3237",
";  c #2E3236",
":  c #2E3336",
">  c #2F3336",
",  c #2E3237",
"<  c #2F3237",
"1  c #2E3337",
"2  c #2F3337",
"3  c #2F3437",
"4  c #2C3238",
"5  c #2D3238",
"6  c #2D3338",
"7  c #2D3339",
"8  c #2E3238",
"9  c #2E3338",
"0  c #2F3338",
"q  c #2E3339",
"w  c #2F3339",
"e  c #2E3438",
"r  c #2F3438",
"t  c #2E3439",
"y  c #2F3439",
"u  c #2E343A",
"i  c #2F343A",
"p  c #2F353A",
"a  c #303437",
"s  c #303438",
"d  c #303439",
"f  c #303539",
"g  c #313539",
"h  c #30343A",
"j  c #31343A",
"k  c #30353A",
"l  c #31353A",
"z  c #31353B",
"x  c #32353A",
"c  c #31363C",
"v  c #32363C",
"b  c #32373C",
"n  c #35383C",
"m  c #363B3F",
"M  c #373B40",
"N  c #373C41",
"B  c #383B40",
"V  c #393D42",
"C  c #3A3F43",
"Z  c #3E4346",
"A  c #404549",
"S  c #45494C",
"D  c #454A4D",
"F  c #464A4D",
"G  c #464A4E",
"H  c #464B4E",
"J  c #505256",
"K  c #515356",
"L  c #73777A",
"P  c #74787B",
"I  c #75787C",
"U  c #75797C",
"Y  c #787B7E",
"T  c #797D80",
"R  c #7A7D80",
"E  c #898A8C",
"W  c #9A9C9F",
"Q  c #9B9D9F",
"!  c #9C9FA1",
"~  c #9EA0A2",
"^  c #A9AAAB",
"/  c #B3B4B6",
"(  c #B7B8B9",
")  c #BEC0C1",
"_  c #C0C1C2",
"`  c #C4C4C6",
"'  c #C4C5C6",
"]  c #C4C5C7",
"[  c #C5C5C7",
"{  c #C5C6C7",
"}  c #CDCDCE",
"|  c #CDCECF",
" . c #CDCED0",
".. c #CECED0",
"X. c #D2D3D4",
"o. c #D4D5D6",
"O. c #D5D5D6",
"+. c #D5D6D7",
"@. c #D6D6D7",
"#. c #D6D7D7",
"$. c #E4E4E5",
"%. c #ECECED",
"&. c #ECEDED",
"*. c #EDEDED",
"=. c #F5F5F5",
"-. c #FFFFFF",
";. c #00FF00",
/* pixels */
"; ; ; X ; ; ; ; ; ; ; ; ; y ; 3 ; ; ; ; ",
"; m D D D D D C ; ; ; ; Z H D D D Z z z ",
"6 I -.-.-.-.-.~ y y y X X.-.-.-.-._ h 6 ",
"; L -.-.-.-.-.! 3 ; 3 X o.-.-.-.-.[ z h ",
"X P -.-.-.-.-.W 6 4 4 ; +.-.-.-.-.[ z 6 ",
"6 I -.-.-.-.-.W 6 6 6 ; +.-.-.-.-.[ 6 6 ",
"6 I -.-.-.-.-.W 6 u y 6 +.-.-.-.-.[ z y ",
"6 P -.-.-.-.-.W u u 6 ; +.-.-.-.-.[ z 6 ",
"; P -.-.-.-.-.W 4 u z 6 +.-.-.-.-.[ z 6 ",
"y P -.-.-.-.-.) T T T I $.-.-.-.-.[ z y ",
"z N J J ( -.-.-.-.-.-.-.-.-.-.-.-.[ z 6 ",
"6 6 h ; ^ -.-.-.-.-.-.-.-.-.-.-.-.[ z 6 ",
";.;.; ; E } } } ........=.-.-.-.-.[ z 6 ",
";.;.; a 6 ; h ; 6 6 ; . +.-.-.-.-.' y 6 ",
";.;.; 6 6 y z z z h z a +.-.-.-.-.' z 6 ",
";.;.;.;.;.;.;.;.;.;.6 6 +.-.-.-.-.[ z 6 ",
";.;.;.;.;.;.;.;.;.;.z ; +.-.-.-.-.` p 6 ",
";.;.;.;.;.;.;.;.;.;.a . ` %.%.%.%./ u 4 ",
";.;.;.;.;.;.;.;.;.;.; a n m B M B z 6 6 ",
";.;.;.;.;.;.;.;.;.;.a ; ; ; ; 6 6 6 u u "
};
