/* XPM */
static char *num5[] = {
/* columns rows colors chars-per-pixel */
"20 20 128 2 ",
"   c #292E32",
".  c #2B3034",
"X  c #2C3035",
"o  c #2C3135",
"O  c #2D3135",
"+  c #2D3235",
"@  c #2C3136",
"#  c #2D3136",
"$  c #2C3236",
"%  c #2D3236",
"&  c #2C3237",
"*  c #2D3237",
"=  c #2E3236",
"-  c #2E3336",
";  c #2F3336",
":  c #2E3237",
">  c #2F3237",
",  c #2E3337",
"<  c #2F3337",
"1  c #2D3238",
"2  c #2D3338",
"3  c #2E3238",
"4  c #2E3338",
"5  c #2F3338",
"6  c #2E3339",
"7  c #2F3339",
"8  c #2F3438",
"9  c #2E3439",
"0  c #2F3439",
"q  c #2F343A",
"w  c #2F353A",
"e  c #303437",
"r  c #313538",
"t  c #303439",
"y  c #313539",
"u  c #323538",
"i  c #30343A",
"p  c #31353A",
"a  c #30353B",
"s  c #31363A",
"d  c #30363B",
"f  c #33363A",
"g  c #31373C",
"h  c #33373D",
"j  c #35393D",
"k  c #373C3F",
"l  c #383B3E",
"z  c #373B41",
"x  c #393D41",
"c  c #3B3E41",
"v  c #383D42",
"b  c #3B3E42",
"n  c #3B3F42",
"m  c #3D4145",
"M  c #3C4146",
"N  c #40454A",
"B  c #41464B",
"V  c #43474A",
"C  c #43474B",
"Z  c #43484B",
"A  c #43484C",
"S  c #44494C",
"D  c #45494C",
"F  c #44484D",
"G  c #44494D",
"H  c #45494D",
"J  c #454A4D",
"K  c #464A4D",
"L  c #44494E",
"P  c #444A4E",
"I  c #454A4E",
"U  c #464A4E",
"Y  c #474B4E",
"T  c #484D51",
"R  c #484D52",
"E  c #494E53",
"W  c #4A4E53",
"Q  c #4A4F54",
"!  c #4B4F54",
"~  c #4C5052",
"^  c #4C5256",
"/  c #4E5256",
"(  c #4E5356",
")  c #4E5357",
"_  c #505559",
"`  c #50555A",
"'  c #51555A",
"]  c #636769",
"[  c #61666A",
"{  c #6C6F74",
"}  c #707377",
"|  c #74767A",
" . c #75777B",
".. c #73787B",
"X. c #74787C",
"o. c #75787C",
"O. c #76797D",
"+. c #9A9DA1",
"@. c #9B9EA1",
"#. c #9B9FA3",
"$. c #9C9FA3",
"%. c #A4A7AA",
"&. c #A5A8AC",
"*. c #C5C8CC",
"=. c #C5C9CC",
"-. c #C6C9CC",
";. c #C7CBCE",
":. c #C8CBCF",
">. c #C9CCD0",
",. c #CACDD1",
"<. c #CBCED2",
"1. c #CBCFD2",
"2. c #CED1D4",
"3. c #CFD3D6",
"4. c #D0D4D7",
"5. c #D2D6D9",
"6. c #DFE3E6",
"7. c #E0E3E6",
"8. c #E4E7EA",
"9. c #E5E8EB",
"0. c #E6E8EB",
"q. c #E6E9EC",
"w. c #EBEEF1",
"e. c #EBEEF2",
"r. c #EBEFF2",
"t. c #F4F7FA",
"y. c #F7FAFD",
"u. c #00FF00",
/* pixels */
"% % e % % % % @ % % 1 % % % 1 % > u u.u.",
"% % V Y Y Y Z Y A Y A Z Y Y Y j e f u.u.",
"e l 9.y.y.y.y.y.y.y.y.y.y.y.y.| > p h p ",
"e n 9.y.y.y.y.y.y.y.y.y.y.y.y.|   i i i ",
"e l q.y.y.y.y.y.y.y.y.y.y.y.y.} i # 3 3 ",
"e n q.y.y.y.y.5.^ ' ' ^ _ _ ` v i   3   ",
"e c 9.y.y.y.y.,.  % % @ @ 1 1 @ i i i % ",
"e c q.y.y.y.y.t.e.r.e.e.e.e.e.{   e i i ",
"1 c q.y.y.y.y.y.y.y.y.y.y.y.y.o.1 1 i % ",
"8 z 9.y.y.y.y.y.y.y.y.y.y.y.y.%.O.o.z 1 ",
"% % C Y Y Y Y Y Y Y Y Z 2.y.y.y.y.y.C 1 ",
"% @ %   %     @ % 8 1 % ;.y.y.y.y.y.P 1 ",
"8 [ ,.,.,.,.3.&.1 8 8 1 :.y.y.y.y.y.P q ",
"1 X.y.y.y.y.y.;.% 8 8 8 ,.y.y.y.y.y.P q ",
"< ..y.y.y.y.y.4.~ ^ ) ^ 3.y.y.y.y.y.Z g ",
"< [ ;.;.6.y.y.y.y.y.y.y.y.y.y.6.=.:.M w ",
"e r % r @.y.y.y.y.y.y.y.y.y.y.$.r w 8 w ",
"u.u.e % @.y.y.y.y.y.y.y.y.y.y.$.1 g u.u.",
"u.u.< < M Q ! ! Q Q Q Q Q E E M 8 w u.u.",
"u.u.% % 1 r r % 1 r i 1 1 1 1 1 w w u.u."
};
