/* XPM */
static char *num6[] = {
/* columns rows colors chars-per-pixel */
"20 20 128 2 ",
"   c #2B3035",
".  c #2C3035",
"X  c #2D3035",
"o  c #2C3135",
"O  c #2E3135",
"+  c #2C3136",
"@  c #2D3137",
"#  c #2E3136",
"$  c #2D3236",
"%  c #2D3237",
"&  c #2E3236",
"*  c #2F3236",
"=  c #2E3336",
"-  c #2E3237",
";  c #2F3237",
":  c #2E3337",
">  c #2F3337",
",  c #2D3238",
"<  c #2E3238",
"1  c #2F3238",
"2  c #2E3338",
"3  c #2F3338",
"4  c #2E3339",
"5  c #2F3339",
"6  c #2F3439",
"7  c #2F343A",
"8  c #303236",
"9  c #303237",
"0  c #303338",
"q  c #313338",
"w  c #303339",
"e  c #303438",
"r  c #313438",
"t  c #303439",
"y  c #313439",
"u  c #313539",
"i  c #323438",
"p  c #323539",
"a  c #30343A",
"s  c #30353A",
"d  c #31353A",
"f  c #30353B",
"g  c #31353B",
"h  c #31363B",
"j  c #34373B",
"k  c #32363C",
"l  c #33373C",
"z  c #33383C",
"x  c #33383D",
"c  c #34383D",
"v  c #36393D",
"b  c #35393F",
"n  c #373B3F",
"m  c #393C3F",
"M  c #363A40",
"N  c #373B40",
"B  c #373B41",
"V  c #373C42",
"C  c #393D40",
"Z  c #383C41",
"A  c #383C42",
"S  c #3A3F43",
"D  c #3C3F44",
"F  c #404448",
"G  c #45484C",
"H  c #45494C",
"J  c #44484D",
"K  c #45494D",
"L  c #45494E",
"P  c #46494E",
"I  c #454A4E",
"U  c #464A4E",
"Y  c #474B4F",
"T  c #464B50",
"R  c #474B50",
"E  c #4F5155",
"W  c #4F5254",
"Q  c #4F5255",
"!  c #505255",
"~  c #515356",
"^  c #505357",
"/  c #515457",
"(  c #53565B",
")  c #56575B",
"_  c #6A6D70",
"`  c #707376",
"'  c #73757A",
"]  c #73767A",
"[  c #74767A",
"{  c #75777A",
"}  c #74777B",
"|  c #797A7E",
" . c #7A7B7F",
".. c #939497",
"X. c #929498",
"o. c #95979A",
"O. c #9A9A9D",
"+. c #9A9B9E",
"@. c #9B9C9F",
"#. c #9C9DA1",
"$. c #9D9EA1",
"%. c #9E9FA1",
"&. c #9D9EA2",
"*. c #9E9FA2",
"=. c #A0A1A3",
"-. c #A0A1A4",
";. c #A0A1A5",
":. c #A1A2A5",
">. c #A2A3A6",
",. c #AFAFB2",
"<. c #B0B1B3",
"1. c #BEBEC1",
"2. c #CACACD",
"3. c #CBCCCE",
"4. c #D0D0D2",
"5. c #D0D0D3",
"6. c #D2D1D4",
"7. c #D6D6D8",
"8. c #D8D8D9",
"9. c #DBDBDD",
"0. c #EAEAED",
"q. c #EBEBED",
"w. c #F2F1F3",
"e. c #F3F3F5",
"r. c #F4F3F5",
"t. c #F9F8FA",
"y. c #FEFDFF",
"u. c #00FF00",
/* pixels */
"u.u.& & & & & o & & = = 6 6 o 6 q u.u.u.",
"u.u.& 9 S K G K K K K K Y R R S , u.u.u.",
"u.u.& 9 -.y.y.y.y.y.y.y.y.y.y.+.9 9 q f ",
"p q 9 & &.y.y.y.y.y.y.y.y.y.y.O.& q , , ",
"q ) -.;.6.y.y.t.r.w.r.w.e.e.e...p q , 7 ",
"p { y.y.y.y.y.;.c c x f x x x 6 , p f q ",
"p ' y.y.y.y.y.-.& & & o , , & & f p f p ",
"p { y.y.y.y.y.t.w.w.w.w.w.w.w.o., 6 p , ",
"p } y.y.y.y.y.y.y.y.y.y.y.y.y.@.p , q p ",
"p ' y.y.y.y.y.y.y.y.y.y.y.y.y.1.| | M f ",
"f } y.y.y.y.y.<.! ! ! ! 8.y.y.y.y.y.R , ",
"f ' y.y.y.y.y.=.& & & & 4.y.y.y.y.y.R 6 ",
"6 ' y.y.y.y.y.=.& 6 , p 4.y.y.y.y.y.K 6 ",
"x } y.y.y.y.y.:.6 p 6 p 4.y.y.y.y.y.K 6 ",
"p ' y.y.y.y.y.,.W Q ! / 7.y.y.y.y.y.G 6 ",
"6 ( #.#.4.y.y.y.y.y.y.y.y.y.y.9.2.3.F , ",
"p 6 , 9 &.y.y.y.y.y.y.y.y.y.y.` p 6 & 6 ",
"u.u.6 & ..q.q.q.0.0.0.q.q.0.q._ 6 6 u.u.",
"u.u.6 6 p S m m A M V M V V V 6 , u.u.u.",
"u.u.6 6 , & & p 6 6 6 6 p 6 7 6 6 u.u.u."
};
