/* XPM */
static char *num7[] = {
/* columns rows colors chars-per-pixel */
"20 20 96 2 ",
"   c #2A2F34",
".  c #2C2F35",
"X  c #2C3135",
"o  c #2D3135",
"O  c #2D3137",
"+  c #2E3136",
"@  c #2E3137",
"#  c #2F3137",
"$  c #2D3236",
"%  c #2D3237",
"&  c #2E3236",
"*  c #2E3336",
"=  c #2E3237",
"-  c #2F3237",
";  c #2F3337",
":  c #2E3138",
">  c #2F3138",
",  c #2F3039",
"<  c #2D3238",
"1  c #2E3238",
"2  c #2F3238",
"3  c #2E3338",
"4  c #2F3338",
"5  c #2E3239",
"6  c #2E3339",
"7  c #2F3339",
"8  c #2F323A",
"9  c #2F333A",
"0  c #2F3438",
"q  c #2F3439",
"w  c #2F343A",
"e  c #303338",
"r  c #303239",
"t  c #30333A",
"y  c #31333A",
"u  c #30333B",
"i  c #32333A",
"p  c #303438",
"a  c #303439",
"s  c #303539",
"d  c #30343A",
"f  c #31353A",
"g  c #30343B",
"h  c #30353B",
"j  c #32363A",
"k  c #33353C",
"l  c #33353D",
"z  c #31363C",
"x  c #32363C",
"c  c #33363C",
"v  c #33373C",
"b  c #34373C",
"n  c #373B41",
"m  c #3C4046",
"M  c #42474B",
"N  c #43484C",
"B  c #44494C",
"V  c #44494D",
"C  c #45494D",
"Z  c #454A4D",
"A  c #46494E",
"S  c #454A4E",
"D  c #474B50",
"F  c #494C52",
"G  c #494D52",
"H  c #4A4E53",
"J  c #4A4E54",
"K  c #4F5258",
"L  c #4F5358",
"P  c #505257",
"I  c #505258",
"U  c #515258",
"Y  c #505358",
"T  c #505259",
"R  c #515458",
"E  c #505459",
"W  c #515459",
"Q  c #6D7176",
"!  c #6F7377",
"~  c #75777C",
"^  c #76797F",
"/  c #777A7E",
"(  c #7B7E82",
")  c #A8A9AC",
"_  c #B7BABD",
"`  c #C9CBCE",
"'  c #D8DADC",
"]  c #E0E3E5",
"[  c #E1E3E5",
"{  c #EBEDEF",
"}  c #EBEDF0",
"|  c #EBEEF0",
" . c #ECEEF1",
".. c #EDEFF1",
"X. c #F7F9FB",
"o. c #00FF00",
/* pixels */
"$ $ $ $ $ . $ $ $ $ $ $ $ 6 $ $ . # # # ",
"$ s V V A A V V V V M A V V V V A M # # ",
"q F X.X.X.X.X.X.X.X.X.X.X.X.X.X.X.] u 6 ",
"6 F X.X.X.X.X.X.X.X.X.X.X.X.X.X.X.] k 6 ",
"6 D ....................X.X.X.X.X.] g 6 ",
"; ; s v b b v v s v v q X.X.X.X.X.] g 6 ",
"; ; q $ 6 $ 6 u s 6 .   X.X.X.X.X.] g 6 ",
"o.o.; q 6 6 6 $ 6 ~ { ..X.X.X.' ` _ 9 6 ",
"o.o.s 6 6 6 6 6 6 ( X.X.X.X.X.Q 6 6 6 q ",
"o.o.o.s v s n ^ ~ ) X.X.X.X.X.~ 6 v v 9 ",
"o.o.o.o.o.6 L X.X.X.X.X...R J n 6 o.o.o.",
"o.o.o.o.o.$ U X.X.X.X.X.{ # $ u q o.o.o.",
"o.o.o.o.o.u U X.X.X.X.X.{ $ u o.o.o.o.o.",
"o.o.o.o.o., P X.X.X.X.X.{ u u o.o.o.o.o.",
"o.o.o.o.o.u U X.X.X.X.X.{ 6 u o.o.o.o.o.",
"o.o.o.o.o.$ U X.X.X.X.X.{ $ p o.o.o.o.o.",
"o.o.o.o.o.$ U X.X.X.X.X.{ $ q o.o.o.o.o.",
"o.o.o.o.o.6 U X.X.X.X.X.{ # s o.o.o.o.o.",
"o.o.o.o.o.$ b F F J J F F q q o.o.o.o.o.",
"o.o.o.o.o.u 6 6 $ 6 6 6 s q q o.o.o.o.o."
};
