/* XPM */
static char *num8[] = {
/* columns rows colors chars-per-pixel */
"20 20 156 2 ",
"   c #2C2F33",
".  c #2D3033",
"X  c #2D3134",
"o  c #2C3035",
"O  c #2E3134",
"+  c #2F3135",
"@  c #2D3235",
"#  c #2E3235",
"$  c #2F3235",
"%  c #2D3036",
"&  c #2C3136",
"*  c #2D3137",
"=  c #2E3136",
"-  c #2E3137",
";  c #2D3237",
":  c #2E3236",
">  c #2F3236",
",  c #2E3336",
"<  c #2F3336",
"1  c #2E3237",
"2  c #2E3337",
"3  c #2F3337",
"4  c #2E3138",
"5  c #2E3139",
"6  c #2D3238",
"7  c #2E3238",
"8  c #2F3238",
"9  c #2E3338",
"0  c #2F3338",
"q  c #2F3239",
"w  c #2E3339",
"e  c #2F3339",
"r  c #2F323A",
"t  c #2F333A",
"y  c #2F333B",
"u  c #2F3438",
"i  c #2F3439",
"p  c #2F343A",
"a  c #303337",
"s  c #303338",
"d  c #303339",
"f  c #30333A",
"g  c #31333A",
"h  c #30333B",
"j  c #303439",
"k  c #313439",
"l  c #303539",
"z  c #323438",
"x  c #323538",
"c  c #323439",
"v  c #323639",
"b  c #30343A",
"n  c #30353A",
"m  c #30343B",
"M  c #30353B",
"N  c #31363A",
"B  c #32373A",
"V  c #32363B",
"C  c #34373A",
"Z  c #35373A",
"A  c #30333C",
"S  c #31353C",
"D  c #31353D",
"F  c #32353C",
"G  c #32363C",
"H  c #33373C",
"J  c #32363D",
"K  c #36393C",
"L  c #363A3E",
"P  c #373B3F",
"I  c #373A40",
"U  c #373A41",
"Y  c #373B41",
"T  c #373C40",
"R  c #383B41",
"E  c #383B43",
"W  c #383C40",
"Q  c #3F4147",
"!  c #414447",
"~  c #43464C",
"^  c #454A4C",
"/  c #464A4C",
"(  c #464A4D",
")  c #464B4D",
"_  c #474A50",
"`  c #4B4F54",
"'  c #4D5054",
"]  c #4D5155",
"[  c #4E5155",
"{  c #4F5355",
"}  c #4F5156",
"|  c #4F5357",
" . c #4F5258",
".. c #505257",
"X. c #515357",
"o. c #505456",
"O. c #515456",
"+. c #525457",
"@. c #505458",
"#. c #525559",
"$. c #6C6E73",
"%. c #6E7174",
"&. c #737576",
"*. c #737578",
"=. c #737579",
"-. c #787B7E",
";. c #797D7F",
":. c #898B8C",
">. c #919495",
",. c #9A9D9D",
"<. c #9D9F9F",
"1. c #9DA0A0",
"2. c #9EA0A1",
"3. c #A3A6A6",
"4. c #A4A6A6",
"5. c #A5A6A6",
"6. c #A6A7A7",
"7. c #A7A9A8",
"8. c #ABADAC",
"9. c #B2B4B2",
"0. c #B4B6B5",
"q. c #BABCBB",
"w. c #BCBFBE",
"e. c #C6C8C6",
"r. c #C9CBC9",
"t. c #C9CCCA",
"y. c #CACCCA",
"u. c #CBCDCB",
"i. c #CCCECC",
"p. c #CCCECD",
"a. c #CDCFCD",
"s. c #CED1CF",
"d. c #D1D3D1",
"f. c #D4D5D3",
"g. c #D8DAD8",
"h. c #DCDEDC",
"j. c #E5E7E4",
"k. c #E7E9E6",
"l. c #E8EAE8",
"z. c #E9EBE8",
"x. c #E9ECE9",
"c. c #EAECE9",
"v. c #EBEDE9",
"b. c #F1F3EF",
"n. c #F1F3F0",
"m. c #F2F4F1",
"M. c #F3F5F1",
"N. c #F8FAF6",
"B. c #F9FBF7",
"V. c #F9FBF8",
"C. c #FAFCF9",
"Z. c #FBFDF9",
"A. c #FBFDFA",
"S. c #FCFEFB",
"D. c #FDFFFB",
"F. c #00FF00",
/* pixels */
"F.F.< < < < < < o < < < < < < < < F.F.F.",
"F.F.< < ! ( ^ ^ ^ ~ ( ( ^ ^ ( K < F.F.F.",
"F.F.5 5 u.D.S.S.C.S.S.S.S.V.S.=.p p F.F.",
"A 5 5 < t.D.D.D.S.S.S.S.S.S.S.=.p c 2 2 ",
"5 ~ a.a.b.S.D.N.M.M.M.M.V.D.D.6.;.%.p 2 ",
"5 [ D.D.D.S.D.7.Z Z K Z f.D.D.D.S.x.c p ",
"A [ D.D.D.D.D.6.    a   d.D.D.D.V.z.B c ",
"A _ s.a.n.D.D.N.n.n.n.n.V.D.D.e.8.,.c 2 ",
"s F 5 5 t.D.S.S.D.D.D.D.D.D.D.&.a < 5 p ",
"A E -.-.h.D.D.S.D.D.S.S.D.D.D.:.o.' p p ",
"A  .S.S.S.D.S.0.X.X.#.X.g.D.D.D.S.k.p p ",
"s [ S.D.D.D.S.3.< 5 F s d.D.D.D.S.c.2 p ",
"A ..D.D.D.D.D.6.5 p 5 < d.D.D.D.S.x.c 2 ",
"A ..D.D.D.D.D.6.< p p < d.D.D.D.S.x.p p ",
"A [ D.D.D.D.D.9.[ |  .[ g.D.D.D.S.x.c p ",
"s Q <.<.j.D.D.D.D.S.S.D.D.D.D.w.1.>.p 5 ",
"A s a c u.S.S.S.D.D.D.D.D.D.D.=.A y 5 5 ",
"F.F.< c q.x.v.x.x.x.x.z.x.x.z.$.y F F.F.",
"F.F.< a F T P W T T I I W I I F y F.F.F.",
"F.F.5 5 c p p c p F p p F F F p F F.F.F."
};
