/* XPM */
static char *num9[] = {
/* columns rows colors chars-per-pixel */
"20 20 144 2 ",
"   c #2C3033",
".  c #2C3134",
"X  c #2C3135",
"o  c #2C3235",
"O  c #2D3235",
"+  c #2C3136",
"@  c #2E3136",
"#  c #2E3137",
"$  c #2C3236",
"%  c #2D3237",
"&  c #2D3337",
"*  c #2E3236",
"=  c #2F3336",
"-  c #2F3237",
";  c #2E3337",
":  c #2F3337",
">  c #2E3038",
",  c #2F3138",
"<  c #2F3139",
"1  c #2D3238",
"2  c #2D3338",
"3  c #2D3339",
"4  c #2F3238",
"5  c #2E3338",
"6  c #2F3338",
"7  c #2F3239",
"8  c #2E3339",
"9  c #2F3339",
"0  c #2E333A",
"q  c #2F333A",
"w  c #2E3439",
"e  c #2E343A",
"r  c #303237",
"t  c #303337",
"y  c #313337",
"u  c #303238",
"i  c #313338",
"p  c #303239",
"a  c #303339",
"s  c #313339",
"d  c #30323A",
"f  c #31323A",
"g  c #30333A",
"h  c #31333A",
"j  c #303438",
"k  c #313438",
"l  c #303439",
"z  c #313439",
"x  c #323438",
"c  c #323538",
"v  c #323439",
"b  c #30343A",
"n  c #31343A",
"m  c #30343B",
"M  c #31343B",
"N  c #32343A",
"B  c #32353B",
"V  c #31353C",
"C  c #33383B",
"Z  c #33383C",
"A  c #35393C",
"S  c #35393D",
"D  c #3B3E41",
"F  c #3A3F43",
"G  c #3E4145",
"H  c #3E4347",
"J  c #3F4449",
"K  c #404447",
"L  c #43474A",
"P  c #44484A",
"I  c #43484C",
"U  c #43484D",
"Y  c #43494D",
"T  c #44484C",
"R  c #44494C",
"E  c #45494C",
"W  c #44494D",
"Q  c #45494D",
"!  c #454A4C",
"~  c #454A4D",
"^  c #47494F",
"/  c #4A4D51",
"(  c #4A4E52",
")  c #4B4F52",
"_  c #4A4F53",
"`  c #4B4F53",
"'  c #4A4F54",
"]  c #4B4F54",
"[  c #4B5055",
"{  c #4C5054",
"}  c #4F5254",
"|  c #4F5358",
" . c #505355",
".. c #515256",
"X. c #515357",
"o. c #515457",
"O. c #505458",
"+. c #6D7072",
"@. c #6D7073",
"#. c #6D7074",
"$. c #6F7174",
"%. c #75787B",
"&. c #76797B",
"*. c #75787C",
"=. c #76797C",
"-. c #787A7E",
";. c #787B7F",
":. c #797B7F",
">. c #797C7F",
",. c #989B9E",
"<. c #999D9F",
"1. c #9A9E9F",
"2. c #9DA1A3",
"3. c #9FA2A5",
"4. c #A1A4A6",
"5. c #A2A5A7",
"6. c #A3A5A7",
"7. c #A3A6A8",
"8. c #B0B2B4",
"9. c #BDC0C2",
"0. c #C2C5C6",
"q. c #C9CCCC",
"w. c #CACDCD",
"e. c #CBCECF",
"r. c #CBCED0",
"t. c #CED1D2",
"y. c #CFD1D3",
"u. c #CFD2D3",
"i. c #D1D3D4",
"p. c #D6D8D9",
"a. c #D9DCDC",
"s. c #DADDDD",
"d. c #DFE2E3",
"f. c #EFF2F3",
"g. c #EFF3F3",
"h. c #F0F2F3",
"j. c #F0F3F3",
"k. c #F1F4F4",
"l. c #F2F5F5",
"z. c #F7FAFA",
"x. c #F9FCFC",
"c. c #FAFDFD",
"v. c #FCFFFF",
"b. c #00FF00",
/* pixels */
"b.b.k * * *   * . . * . * * . * * b.b.b.",
"b.b.w 2 F ~ P ~ ~ P L L L ~ ~ C * b.b.b.",
"b.b.k w 4.v.v.v.v.v.v.v.v.v.v.@.u k b.b.",
"u > u 2 6.v.v.v.v.v.v.v.v.v.v.@.* * 2 w ",
"u ^ -.>.0.v.v.z.l.l.l.l.v.v.v.a.w.r.J w ",
"u *.v.v.v.v.v.2.S Z C k u.v.v.v.v.v.~ * ",
"u =.v.v.v.v.v.1.k w 2 u u.v.v.v.v.v.U w ",
"u -.v.v.v.v.v.1.* 2 * 2 u.v.v.v.v.v.~ * ",
"r -.v.v.v.v.v.1.2 2 2 u i.v.v.v.v.v.U 3 ",
"r &.v.v.v.v.v.9.;.;.;.-.d.v.v.v.v.v.U 3 ",
"r D  . .8.v.v.v.v.v.v.v.v.v.v.v.v.v.U 3 ",
"u u r k 4.v.v.v.v.v.v.v.v.v.v.v.v.v.U 3 ",
"b.b.  r 1.f.f.k.h.h.h.h.x.v.v.v.v.v.U w ",
"b.b.k u u M 2 u N k u r i.v.v.v.v.v.U w ",
"b.b.k k J } O.X.X.X. .} p.v.v.v.v.v.U w ",
"b.b.V V 4.v.v.v.v.v.v.v.v.v.v.a.q.w.J w ",
"b.b.V u 7.v.v.v.v.v.v.v.v.v.v.#.k k w w ",
"b.b.V u 7.v.v.v.v.v.v.v.v.v.v.+.: w b.b.",
"b.b.k 2 G ( ( ( ] ] ] } ( ( ( S * b.b.b.",
"b.b.k 2 2 * * 2 2 2 2 2 2 2 * . 2 b.b.b."
};
